<svg xmlns="http://www.w3.org/2000/svg" width="19" height="15" viewBox="0 0 19 15"><g><g><path fill="#c4a089" d="M18.193 5.056c.516 0 .9.437.787.898l-2.079 8.47c-.082.336-.409.575-.786.575H2.862c-.378 0-.704-.239-.787-.575l-2.078-8.47c-.113-.46.27-.898.786-.898H4.73l-.406.869a.51.51 0 0 0 .288.687c.072.03.148.043.223.043a.56.56 0 0 0 .51-.312l.614-1.315H4.743l2.2-4.715a.572.572 0 0 1 .734-.27c.282.116.411.423.288.687L5.946 5.056h7.085l.6 1.287a.56.56 0 0 0 .511.312c.074 0 .15-.014.223-.043a.51.51 0 0 0 .287-.687l-.405-.869zm-5.162 0l-.014-.028.014.028zM11.01.73A.509.509 0 0 1 11.3.044a.572.572 0 0 1 .734.269l2.2 4.715h-1.216zm3.236 4.326l-.013-.028zm-9.517 0l.013-.028-.013.028zm1.972 3.338c0-.288-.25-.522-.557-.522-.308 0-.558.234-.558.522v3.824c0 .288.25.522.558.522.307 0 .557-.234.557-.522zm3.344 0c0-.288-.25-.522-.558-.522-.308 0-.557.234-.557.522v3.824c0 .288.25.522.557.522.308 0 .558-.234.558-.522zm3.343 0c0-.288-.25-.522-.557-.522-.308 0-.557.234-.557.522v3.824c0 .288.25.522.557.522.308 0 .557-.234.557-.522z"/></g></g></svg>