<svg xmlns="http://www.w3.org/2000/svg" width="14.19" height="14" viewBox="0 0 14.19 14">
  <metadata><?xpacket begin="﻿" id="W5M0MpCehiHzreSzNTczkc9d"?>
<x:xmpmeta xmlns:x="adobe:ns:meta/" x:xmptk="Adobe XMP Core 5.6-c138 79.159824, 2016/09/14-01:09:01        ">
   <rdf:RDF xmlns:rdf="http://www.w3.org/1999/02/22-rdf-syntax-ns#">
      <rdf:Description rdf:about=""/>
   </rdf:RDF>
</x:xmpmeta>
                                                                                                    
                                                                                                    
                                                                                                    
                                                                                                    
                                                                                                    
                                                                                                    
                                                                                                    
                                                                                                    
                                                                                                    
                                                                                                    
                                                                                                    
                                                                                                    
                                                                                                    
                                                                                                    
                                                                                                    
                                                                                                    
                                                                                                    
                                                                                                    
                                                                                                    
                                                                                                    
                           
<?xpacket end="w"?></metadata>
<defs>
    <style>
      .cls-1 {
        fill: #f7a98f;
        fill-rule: evenodd;
      }
    </style>
  </defs>
  <path id="Forma_1" data-name="Forma 1" class="cls-1" d="M1318,59.812A3.213,3.213,0,0,1,1314.77,63h-7.74a3.213,3.213,0,0,1-3.23-3.186V52.186A3.213,3.213,0,0,1,1307.03,49h7.74a3.213,3.213,0,0,1,3.23,3.187v7.626h0Zm-7.1-8.2A4.386,4.386,0,1,0,1315.35,56,4.425,4.425,0,0,0,1310.9,51.613Zm0,7.261A2.876,2.876,0,1,1,1313.82,56,2.893,2.893,0,0,1,1310.9,58.874Zm4.64-8.541a1.146,1.146,0,0,0-.8.324,1.094,1.094,0,0,0,0,1.566,1.137,1.137,0,0,0,1.59,0,1.094,1.094,0,0,0,0-1.566A1.14,1.14,0,0,0,1315.54,50.333Z" transform="translate(-1303.81 -49)"/>
</svg>
