<svg xmlns="http://www.w3.org/2000/svg" xmlns:xlink="http://www.w3.org/1999/xlink" width="30" height="17" viewBox="0 0 30 17">
  <metadata><?xpacket begin="﻿" id="W5M0MpCehiHzreSzNTczkc9d"?>
<x:xmpmeta xmlns:x="adobe:ns:meta/" x:xmptk="Adobe XMP Core 5.6-c138 79.159824, 2016/09/14-01:09:01        ">
   <rdf:RDF xmlns:rdf="http://www.w3.org/1999/02/22-rdf-syntax-ns#">
      <rdf:Description rdf:about=""/>
   </rdf:RDF>
</x:xmpmeta>
                                                                                                    
                                                                                                    
                                                                                                    
                                                                                                    
                                                                                                    
                                                                                                    
                                                                                                    
                                                                                                    
                                                                                                    
                                                                                                    
                                                                                                    
                                                                                                    
                                                                                                    
                                                                                                    
                                                                                                    
                                                                                                    
                                                                                                    
                                                                                                    
                                                                                                    
                                                                                                    
                           
<?xpacket end="w"?></metadata>
<defs>
    <style>
      .cls-1 {
        filter: url(#filter);
      }

      .cls-2 {
        fill: none;
        stroke: #000;
        stroke-linecap: round;
        stroke-linejoin: round;
        stroke-width: 2px;
        fill-rule: evenodd;
      }
    </style>
    <filter id="filter" filterUnits="userSpaceOnUse">
      <feFlood result="flood" flood-color="#f7a98f"/>
      <feComposite result="composite" operator="in" in2="SourceGraphic"/>
      <feBlend result="blend" in2="SourceGraphic"/>
    </filter>
  </defs>
  <g id="Группа_11" data-name="Группа 11" class="cls-1">
    <path id="Forma_1" data-name="Forma 1" class="cls-2" d="M860.368,227.876a3.8,3.8,0,0,0-1.326-.595l-2.532-.6-0.146-.554a8.7,8.7,0,0,0,2.685-.8,0.3,0.3,0,0,0,.034-0.516c-0.012-.009-1.193-0.932-1.193-4.131,0-2.7-.667-4.066-1.983-4.066h-0.2a2.18,2.18,0,0,0-1.788-.625,4.367,4.367,0,0,0-3.965,4.691c0,3.2-1.181,4.122-1.19,4.128a0.3,0.3,0,0,0,.028.518,8.489,8.489,0,0,0,2.687.8l-0.146.553-2.532.6a3.552,3.552,0,0,0-2.812,3.412,0.322,0.322,0,0,0,.33.312h11.725" transform="translate(-845 -215)"/>
    <path id="Forma_1-2" data-name="Forma 1" class="cls-2" d="M871.193,227.281l-2.532-.6-0.216-.816a4.228,4.228,0,0,0,1.279-2.4,0.956,0.956,0,0,0,.717-0.786l0.165-1.251a0.9,0.9,0,0,0-.236-0.731,0.99,0.99,0,0,0-.4-0.261l0.061-1.178,0.247-.235a1.388,1.388,0,0,0,.036-1.949,2.838,2.838,0,0,0-2.5-1.079,4.551,4.551,0,0,0-2.5.627c-2.816.055-3.2,1.293-3.2,2.5,0,0.281.072,0.914,0.12,1.295a0.988,0.988,0,0,0-.444.274,0.9,0.9,0,0,0-.241.737l0.165,1.251a0.967,0.967,0,0,0,.795.806,4.253,4.253,0,0,0,1.216,2.327l-0.23.872-2.532.6a3.55,3.55,0,0,0-2.814,3.411,0.322,0.322,0,0,0,.33.312h15.2a0.323,0.323,0,0,0,.33-0.314A3.551,3.551,0,0,0,871.193,227.281Z" transform="translate(-845 -215)"/>
  </g>
</svg>
