<svg xmlns="http://www.w3.org/2000/svg" width="13" height="18" viewBox="0 0 13 18">
  <metadata><?xpacket begin="﻿" id="W5M0MpCehiHzreSzNTczkc9d"?>
<x:xmpmeta xmlns:x="adobe:ns:meta/" x:xmptk="Adobe XMP Core 5.6-c138 79.159824, 2016/09/14-01:09:01        ">
   <rdf:RDF xmlns:rdf="http://www.w3.org/1999/02/22-rdf-syntax-ns#">
      <rdf:Description rdf:about=""/>
   </rdf:RDF>
</x:xmpmeta>
                                                                                                    
                                                                                                    
                                                                                                    
                                                                                                    
                                                                                                    
                                                                                                    
                                                                                                    
                                                                                                    
                                                                                                    
                                                                                                    
                                                                                                    
                                                                                                    
                                                                                                    
                                                                                                    
                                                                                                    
                                                                                                    
                                                                                                    
                                                                                                    
                                                                                                    
                                                                                                    
                           
<?xpacket end="w"?></metadata>
<defs>
    <style>
      .cls-1 {
        fill: #fff;
        fill-rule: evenodd;
      }
    </style>
  </defs>
  <path id="Forma_1" data-name="Forma 1" class="cls-1" d="M95.078,101.942h-0.33V99.273A5.25,5.25,0,0,0,89.654,94c-0.077,0-.232,0-0.309,0a5.25,5.25,0,0,0-5.094,5.273v0.06a1.086,1.086,0,0,0,2.172,0v-0.06a3.076,3.076,0,1,1,6.152,0v2.669H83.922A1.068,1.068,0,0,0,83,103.11v7.717A1.072,1.072,0,0,0,83.922,112H95.078A1.072,1.072,0,0,0,96,110.827V103.11A1.068,1.068,0,0,0,95.078,101.942Zm-4.532,5.019v2.331a0.5,0.5,0,0,1-.492.493H88.947a0.5,0.5,0,0,1-.492-0.493v-2.331a1.411,1.411,0,0,1,.891-2.4c0.077,0,.232,0,0.309,0A1.411,1.411,0,0,1,90.545,106.961Z" transform="translate(-83 -94)"/>
</svg>
