<svg xmlns="http://www.w3.org/2000/svg" width="13" height="13" viewBox="0 0 13 13"><g><g><path fill="#fff" d="M1.625 0a1.625 1.625 0 1 1 0 3.25 1.625 1.625 0 0 1 0-3.25zM6.5 0a1.625 1.625 0 1 1 0 3.25A1.625 1.625 0 0 1 6.5 0zm4.875 0a1.625 1.625 0 1 1 0 3.25 1.625 1.625 0 0 1 0-3.25zm0 4.875a1.625 1.625 0 1 1 0 3.25 1.625 1.625 0 0 1 0-3.25zm-4.875 0a1.625 1.625 0 1 1 0 3.25 1.625 1.625 0 0 1 0-3.25zm-4.875 0a1.625 1.625 0 1 1 0 3.25 1.625 1.625 0 0 1 0-3.25zm0 4.875a1.625 1.625 0 1 1 0 3.25 1.625 1.625 0 0 1 0-3.25zm4.875 0a1.625 1.625 0 1 1 0 3.25 1.625 1.625 0 0 1 0-3.25zm4.875 0a1.625 1.625 0 1 1 0 3.25 1.625 1.625 0 0 1 0-3.25z"/></g></g></svg>