<svg xmlns="http://www.w3.org/2000/svg" width="22" height="12" viewBox="0 0 22 12">
  <metadata><?xpacket begin="﻿" id="W5M0MpCehiHzreSzNTczkc9d"?>
<x:xmpmeta xmlns:x="adobe:ns:meta/" x:xmptk="Adobe XMP Core 5.6-c138 79.159824, 2016/09/14-01:09:01        ">
   <rdf:RDF xmlns:rdf="http://www.w3.org/1999/02/22-rdf-syntax-ns#">
      <rdf:Description rdf:about=""/>
   </rdf:RDF>
</x:xmpmeta>
                                                                                                    
                                                                                                    
                                                                                                    
                                                                                                    
                                                                                                    
                                                                                                    
                                                                                                    
                                                                                                    
                                                                                                    
                                                                                                    
                                                                                                    
                                                                                                    
                                                                                                    
                                                                                                    
                                                                                                    
                                                                                                    
                                                                                                    
                                                                                                    
                                                                                                    
                                                                                                    
                           
<?xpacket end="w"?></metadata>
<defs>
    <style>
      .cls-1 {
        fill: #f7a98f;
        fill-rule: evenodd;
      }
    </style>
  </defs>
  <path id="Forma_1" data-name="Forma 1" class="cls-1" d="M1267.81,60.6a9.335,9.335,0,0,0-2.18-2.395c-1.85-1.621-1.6-1.357.62-4.16,1.35-1.707,1.89-2.749,1.72-3.195-0.16-.425-1.15-0.313-1.15-0.313l-3.31.018a0.805,0.805,0,0,0-.43.072,0.854,0.854,0,0,0-.29.336,17.365,17.365,0,0,1-1.22,2.444c-1.48,2.37-2.07,2.495-2.31,2.348-0.56-.343-0.42-1.379-0.42-2.113,0-2.3.37-3.255-.71-3.5a6.018,6.018,0,0,0-1.55-.146,7.561,7.561,0,0,0-2.75.266c-0.37.175-.66,0.564-0.49,0.586a1.515,1.515,0,0,1,.98.465,2.892,2.892,0,0,1,.33,1.419s0.19,2.7-.46,3.04c-0.44.23-1.06-.24-2.37-2.391a19.935,19.935,0,0,1-1.18-2.319,0.966,0.966,0,0,0-.27-0.348,1.473,1.473,0,0,0-.51-0.194l-3.15.018a1.1,1.1,0,0,0-.64.207,0.6,0.6,0,0,0-.02.53s2.47,5.456,5.25,8.206a7.807,7.807,0,0,0,5.47,2.356h1.31a1.138,1.138,0,0,0,.6-0.249,0.852,0.852,0,0,0,.18-0.547s-0.03-1.672.79-1.918,1.85,1.616,2.95,2.331a2.166,2.166,0,0,0,1.46.422l2.94-.039S1268.54,61.746,1267.81,60.6Z" transform="translate(-1246 -50)"/>
</svg>
