<svg xmlns="http://www.w3.org/2000/svg" width="18" height="14" viewBox="0 0 18 14">
  <metadata><?xpacket begin="﻿" id="W5M0MpCehiHzreSzNTczkc9d"?>
<x:xmpmeta xmlns:x="adobe:ns:meta/" x:xmptk="Adobe XMP Core 5.6-c138 79.159824, 2016/09/14-01:09:01        ">
   <rdf:RDF xmlns:rdf="http://www.w3.org/1999/02/22-rdf-syntax-ns#">
      <rdf:Description rdf:about=""/>
   </rdf:RDF>
</x:xmpmeta>
                                                                                                    
                                                                                                    
                                                                                                    
                                                                                                    
                                                                                                    
                                                                                                    
                                                                                                    
                                                                                                    
                                                                                                    
                                                                                                    
                                                                                                    
                                                                                                    
                                                                                                    
                                                                                                    
                                                                                                    
                                                                                                    
                                                                                                    
                                                                                                    
                                                                                                    
                                                                                                    
                           
<?xpacket end="w"?></metadata>
<defs>
    <style>
      .cls-1 {
        fill: #f7a98f;
        fill-rule: evenodd;
      }
    </style>
  </defs>
  <path id="Forma_1" data-name="Forma 1" class="cls-1" d="M1294.02,51.25a2.381,2.381,0,0,0-1.94-1.973,81.751,81.751,0,0,0-13.47,0,2.381,2.381,0,0,0-1.94,1.973,24.224,24.224,0,0,0-.32,4.748,23.471,23.471,0,0,0,.32,4.747,2.381,2.381,0,0,0,1.94,1.974,54.032,54.032,0,0,0,6.73.279,53.873,53.873,0,0,0,6.73-.279,2.38,2.38,0,0,0,1.95-1.974,24.214,24.214,0,0,0,.31-4.747A24.222,24.222,0,0,0,1294.02,51.25Zm-11,7.865V52.473c1.91,1.111,3.8,2.214,5.72,3.331C1286.83,56.912,1284.93,58.008,1283.02,59.115Z" transform="translate(-1276.34 -49)"/>
</svg>
