<svg width="45" height="44" viewBox="0 0 45 44" fill="none" xmlns="http://www.w3.org/2000/svg">
<path d="M22.4515 43.7231C19.1975 43.7231 16.2046 43.1607 13.4728 42.0358C10.741 40.8708 8.37076 39.3241 6.36209 37.3958C4.3936 35.4273 2.84692 33.1374 1.72207 30.5262C0.63739 27.8747 0.09505 25.0425 0.09505 22.0295V21.909C0.09505 18.896 0.657477 16.0839 1.78233 13.4726C2.90718 10.8212 4.45386 8.51119 6.42235 6.5427C8.43102 4.53403 10.8012 2.96727 13.533 1.84242C16.305 0.677393 19.318 0.0948804 22.572 0.0948804C25.8261 0.0948804 28.819 0.677393 31.5508 1.84242C34.2826 2.96727 36.6327 4.51395 38.6012 6.48244C40.6099 8.41076 42.1565 10.7006 43.2412 13.3521C44.3661 15.9633 44.9285 18.7755 44.9285 21.7885V21.909C44.9285 24.922 44.3661 27.7542 43.2412 30.4057C42.1164 33.0169 40.5496 35.3269 38.5409 37.3356C36.5724 39.3041 34.2022 40.8708 31.4302 42.0358C28.6985 43.1607 25.7055 43.7231 22.4515 43.7231ZM22.572 35.1662C24.42 35.1662 26.1274 34.8247 27.6941 34.1418C29.2609 33.4588 30.5866 32.5148 31.6713 31.3096C32.7961 30.1044 33.6599 28.7184 34.2625 27.1516C34.9052 25.5447 35.2266 23.8373 35.2266 22.0295V21.909C35.2266 20.1012 34.9052 18.3938 34.2625 16.7869C33.6599 15.18 32.7761 13.7739 31.611 12.5687C30.4862 11.3635 29.1404 10.4194 27.5736 9.73648C26.0069 9.01336 24.2995 8.6518 22.4515 8.6518C20.5634 8.6518 18.8359 8.99327 17.2692 9.67622C15.7426 10.3592 14.4168 11.3032 13.292 12.5084C12.2073 13.7136 11.3436 15.1197 10.7008 16.7266C10.0982 18.2934 9.79691 19.9807 9.79691 21.7885V21.909C9.79691 23.7168 10.0982 25.4242 10.7008 27.0311C11.3436 28.638 12.2274 30.0441 13.3522 31.2493C14.5173 32.4545 15.8631 33.4187 17.3897 34.1418C18.9564 34.8247 20.6839 35.1662 22.572 35.1662Z" fill="url(#paint0_linear)"/>
<defs>
<linearGradient id="paint0_linear" x1="72.4741" y1="-11" x2="-41.6379" y2="-11" gradientUnits="userSpaceOnUse">
<stop stop-color="#80A3DD"/>
<stop offset="0.319197" stop-color="#80A3DD"/>
<stop offset="0.580327" stop-color="#444444"/>
<stop offset="1" stop-color="#444444"/>
</linearGradient>
</defs>
</svg>
