<svg width="82" height="79" viewBox="0 0 82 79" fill="none" xmlns="http://www.w3.org/2000/svg">
<g clip-path="url(#clip0)">
<path d="M-0.200091 78.7502C-0.632417 53.2429 -1.49707 1.88916 -1.49707 0.532318H86.3983V78.7502H83.2057C83.1392 76.522 83.0461 71.8263 83.2057 70.8685C83.4052 69.6713 78.2173 56.0031 77.8182 54.7062C77.499 53.6686 71.4331 50.6822 68.4401 49.3187L70.5352 48.0217L60.8577 43.2329C60.3589 42.5345 59.3612 40.8784 59.3612 39.8408C59.3612 38.8032 60.3589 38.6103 60.8577 38.6436L62.3542 36.9475V33.5554V28.7666C62.3542 26.6714 60.8577 25.2747 62.3542 23.7782C63.5515 23.7782 64.2498 24.7759 64.4494 25.2747V22.6807C63.751 21.5833 62.0549 19.3884 60.8577 19.3884L62.3542 16.8942C61.7224 16.9607 60.2392 17.0538 59.3612 16.8942C58.4833 16.7346 58.9954 15.697 59.3612 15.1982L56.6675 11.407C56.1686 10.5091 54.1733 7.91513 50.1826 4.72256C46.1919 1.52999 42.6668 4.52303 41.403 6.41861C40.7712 5.91977 39.3079 4.88219 38.5098 4.72256C37.5121 4.52303 35.1177 5.82 32.0249 7.61582C28.9321 9.41164 29.0318 15.3977 29.0318 19.3884C29.0318 20.5856 27.9677 21.284 27.4356 21.4835H24.9414L27.4356 23.7782L24.9414 25.2747L27.4356 28.7666C24.9414 27.0705 26.3381 31.0812 26.3381 33.5554C27.3401 33.5554 28.2908 33.9148 28.7481 33.8601C28.9189 33.5253 29.0318 33.3734 29.0318 33.5554C29.0318 33.7528 28.9283 33.8386 28.7481 33.8601C28.3948 34.5529 27.7943 36.0283 27.4356 36.9475L24.9414 38.6436C25.8393 38.8431 27.9144 39.1225 29.0318 38.6436C30.1492 38.1647 30.4951 41.5036 30.5284 43.2329C27.7349 45.0952 21.23 49.199 17.5586 50.7155C12.9692 52.611 7.98086 60.1934 7.78132 62.8871C7.6217 65.0421 4.58876 74.3604 3.09224 78.7502H-0.200091Z" fill="#612660"/>
<path d="M2.08727 33.6255L0.985675 32.5764C1.37635 32.3292 1.66863 29.8689 2.57499 29.2953C3.70793 28.5783 1.18683 27.1017 2.88429 23.905C4.24226 21.3476 4.4554 28.3474 4.39222 32.1669C4.34751 32.5862 3.82394 33.4649 2.08727 33.6255Z" fill="#DCCED7"/>
<path d="M6.67379 21.5069C6.40399 20.8212 9.37394 17.6241 11.2242 15.2914C11.7106 16.1752 9.47354 19.3777 8.82247 20.1472C8.81367 22.2082 7.38635 21.9124 6.67379 21.5069Z" fill="#DCCED7"/>
<path d="M16.6397 45.6415C17.8512 47.5559 14.0841 47.4822 13.7483 44.7901C14.0764 43.2048 14.9591 39.8907 15.8654 39.3171C16.9984 38.6001 15.4282 43.7271 16.6397 45.6415Z" fill="#DCCED7"/>
<path d="M20.1146 -0.717246C19.7798 -0.68299 19.4333 -0.666711 19.0757 -0.67098C10.9737 4.45618 14.9411 -0.389297 24.6177 -2.62121C28.4377 -6.00024 37.4735 -4.0196 43.1353 -2.29996C44.6949 -1.87774 46.2856 -1.34073 47.8982 -0.670983C48.584 -0.386173 46.4314 -1.29883 43.1353 -2.29996C36.0341 -4.22234 29.5764 -3.76491 24.6177 -2.62121C24.6166 -2.62021 24.6155 -2.61921 24.6143 -2.6182C23.6481 -1.762 22.2106 -0.999072 20.4143 -0.753095C20.2736 0.0620591 19.3402 2.25788 19.0757 2.70453C18.8891 3.0196 13.5603 8.78854 10.6509 11.7698C10.1582 13.8187 9.48218 15.5924 8.82247 15.2913C8.38353 15.0911 9.03772 13.8828 10.1024 12.3276C9.20707 13.2298 8.67165 13.7212 8.82247 13.4461C9.10086 12.9382 10.2083 10.5249 11.3039 8.11134C11.4327 6.9724 11.4263 6.19924 11.2258 6.32202C10.7457 6.97647 10.5713 7.20528 11.2242 6.323C11.2248 6.32266 11.2253 6.32234 11.2258 6.32202C11.9743 5.30186 13.4655 3.24745 13.7238 2.75497C13.76 2.67551 13.7697 2.65528 13.7483 2.70453C13.7421 2.71885 13.7339 2.73572 13.7238 2.75497C13.5142 3.21529 12.4151 5.6634 11.3039 8.11134C11.1959 9.06645 10.9927 10.2788 10.7291 11.4357C13.0792 8.16392 16.5335 4.01852 15.8722 4.05333C14.9744 4.10058 18.9649 0.0269693 20.1146 -0.717246Z" fill="#DCCED7"/>
<path d="M5.88574 78.3512C6.58412 76.256 8.4797 64.4834 9.37761 62.1888C10.2755 59.8941 17.9576 52.1123 18.656 50.915C19.3544 49.7178 29.9298 45.2283 29.0318 44.1308C28.1339 43.0334 27.0365 40.3397 25.1409 40.0404C23.2453 39.7411 19.1548 41.2376 20.0528 40.0404C20.7711 39.0826 23.7442 35.318 25.1409 33.5555L23.2453 29.8641C23.8772 29.5315 25.1409 28.6868 25.1409 27.9685C25.1409 27.0706 24.6421 26.6715 23.2453 26.1727C23.2453 24.6562 25.7063 20.752 26.9367 18.9894C27.1695 14.3668 27.9144 5.12168 29.0318 5.12168C30.1492 5.12168 34.6188 3.59191 36.714 2.82702H42.7L47.5886 0.731903L59.5608 13.7017C58.8624 14.4666 57.8847 15.9964 59.5608 15.9964C61.2368 15.9964 62.8531 15.9964 63.4517 15.9964L62.3542 18.291L68.8391 21.4836L66.0457 27.9685L64.6489 31.2608L59.5608 40.0404C57.6984 41.8029 54.8118 45.3281 58.164 45.3281C61.5162 45.3281 66.6775 47.3234 68.8391 48.3211L66.0457 50.915L78.0178 57.1006L81.3101 78.3512" stroke="#DCCED7" stroke-width="0.798141"/>
</g>
<defs>
<clipPath id="clip0">
<rect width="81.8095" height="78.2179" fill="white" transform="translate(0 0.532471)"/>
</clipPath>
</defs>
</svg>
