<svg width="14" height="18" viewBox="0 0 14 18" fill="none" xmlns="http://www.w3.org/2000/svg">
<path fill-rule="evenodd" clip-rule="evenodd" d="M6.75 18C6.75 18 13.5 11.6033 13.5 6.75C13.5 4.95979 12.7888 3.2429 11.523 1.97703C10.2571 0.711159 8.54021 0 6.75 0C4.95979 0 3.2429 0.711159 1.97703 1.97703C0.711159 3.2429 2.66762e-08 4.95979 0 6.75C0 11.6033 6.75 18 6.75 18ZM6.75 10.125C7.64511 10.125 8.50355 9.76942 9.13649 9.13649C9.76942 8.50355 10.125 7.64511 10.125 6.75C10.125 5.85489 9.76942 4.99645 9.13649 4.36351C8.50355 3.73058 7.64511 3.375 6.75 3.375C5.85489 3.375 4.99645 3.73058 4.36351 4.36351C3.73058 4.99645 3.375 5.85489 3.375 6.75C3.375 7.64511 3.73058 8.50355 4.36351 9.13649C4.99645 9.76942 5.85489 10.125 6.75 10.125Z" fill="white"/>
</svg>
