<svg width="17" height="18" viewBox="0 0 17 18" fill="none" xmlns="http://www.w3.org/2000/svg">
<path d="M14.1306 9.98737H13.6359V7.17104C13.6359 7.00232 13.6283 6.82855 13.6135 6.65454C13.6015 6.51475 13.4809 6.41159 13.3441 6.42355C13.2073 6.43578 13.1061 6.55907 13.1181 6.69882C13.1318 6.85816 13.1387 7.01702 13.1387 7.17101V7.60501H12.8711C12.4043 7.60501 12.0246 7.96729 12.0246 8.41257V9.70194C11.6721 9.92554 11.4369 10.3245 11.4369 10.7788V13.0373C11.4369 13.6488 11.863 14.1605 12.4277 14.2785V15.6152C12.4277 16.3673 11.829 16.9791 11.0932 16.9791H8.55295C8.27447 16.9791 8.02671 16.7982 7.93654 16.5289L7.66757 15.7259C7.75635 15.6549 7.83136 15.5659 7.88821 15.4624C8.00135 15.2564 8.02926 15.0178 7.96678 14.7904L7.89272 14.5208C7.76374 14.0514 7.28523 13.7768 6.82595 13.9086C6.60349 13.9725 6.41865 14.121 6.30551 14.3269C6.19237 14.5329 6.16446 14.7715 6.22695 14.9989L6.301 15.2685C6.36349 15.4959 6.50885 15.6848 6.71033 15.8004C6.84146 15.8757 6.98616 15.9141 7.13255 15.9141C7.15628 15.9141 7.18005 15.9127 7.20382 15.9107L7.46606 16.6935C7.62508 17.1683 8.06185 17.4873 8.55292 17.4873H11.0931C12.1032 17.4873 12.9249 16.6475 12.9249 15.6152V14.2948C13.1994 14.2531 13.4305 14.0742 13.5495 13.8288H14.1306C14.6484 13.8288 15.0698 13.3982 15.0698 12.8689V10.9472C15.0698 10.418 14.6484 9.98737 14.1306 9.98737ZM6.95377 15.3573C6.86812 15.3082 6.80629 15.2278 6.77974 15.1312L6.70569 14.8615C6.67913 14.7648 6.691 14.6634 6.7391 14.5758C6.78723 14.4882 6.8658 14.4251 6.9604 14.3979C6.99355 14.3884 7.02687 14.3839 7.05972 14.3839C7.22043 14.3839 7.36847 14.4926 7.41402 14.6583L7.48807 14.9279C7.51462 15.0246 7.50276 15.126 7.45466 15.2136C7.40656 15.3011 7.32796 15.3643 7.23335 15.3915C7.23332 15.3915 7.03943 15.4065 6.95377 15.3573ZM12.5218 8.4126C12.5218 8.24754 12.6785 8.11324 12.8711 8.11324H13.1387V9.58498C13.0355 9.53823 12.9216 9.51207 12.8017 9.51207H12.6763C12.624 9.51207 12.5724 9.5158 12.5218 9.52227V8.4126ZM13.1387 13.4516C13.1387 13.6415 12.9875 13.796 12.8017 13.796H12.6763C12.267 13.796 11.9341 13.4557 11.9341 13.0374V10.7788C11.9341 10.3606 12.267 10.0202 12.6763 10.0202H12.8017C12.9875 10.0202 13.1387 10.1747 13.1387 10.3647V13.4516ZM14.5725 12.869C14.5725 13.1181 14.3743 13.3207 14.1306 13.3207H13.6359V10.4956H14.1306C14.3743 10.4956 14.5725 10.6982 14.5725 10.9473V12.869Z" fill="white"/>
<path d="M6.27731 2.89745C6.22017 2.76979 6.07262 2.71372 5.94781 2.77213C4.98791 3.22104 4.19174 3.99594 3.70597 4.95403C3.64683 5.07064 3.5095 5.12176 3.39347 5.0704L3.15092 4.96307C3.7241 3.67675 4.7862 2.6401 6.13859 2.14244C6.26777 2.0949 6.33479 1.94932 6.28829 1.81726C6.24178 1.68526 6.0993 1.61672 5.97012 1.66426C3.70541 2.49767 2.18386 4.71104 2.18386 7.17197V9.9883H1.75992C1.20305 9.9883 0.75 10.4513 0.75 11.0205V11.5702C0.75 11.7105 0.861315 11.8243 0.998618 11.8243C1.13592 11.8243 1.24724 11.7105 1.24724 11.5702V11.0205C1.24724 10.7316 1.47722 10.4965 1.75992 10.4965H2.18386V13.3216H1.75992C1.47722 13.3216 1.24724 13.0866 1.24724 12.7976C1.24724 12.6573 1.13592 12.5435 0.998618 12.5435C0.861315 12.5435 0.75 12.6573 0.75 12.7976C0.75 13.3668 1.20305 13.8298 1.75992 13.8298H2.27025C2.40669 14.1112 2.69058 14.3051 3.01806 14.3051H3.14346C3.8269 14.3051 4.38291 13.7369 4.38291 13.0383V10.7798C4.38291 10.3255 4.14765 9.92654 3.79521 9.70293V8.41357C3.79521 7.96828 3.41545 7.60601 2.94865 7.60601H2.6811V7.17201C2.6811 6.57026 2.78081 5.98475 2.96642 5.43526L3.19587 5.53679C3.29012 5.57847 3.3888 5.59829 3.48629 5.59829C3.75583 5.59829 4.01615 5.44681 4.14745 5.18786C4.5824 4.32999 5.29524 3.6362 6.1547 3.23425C6.27953 3.17584 6.33446 3.02507 6.27731 2.89745ZM3.88564 13.0383C3.88564 13.4566 3.55269 13.7969 3.14343 13.7969H3.01803C2.83223 13.7969 2.68107 13.6425 2.68107 13.4526V10.3656C2.68107 10.1757 2.83223 10.0212 3.01803 10.0212H3.14343C3.55269 10.0212 3.88564 10.3615 3.88564 10.7798V13.0383ZM2.94865 8.11417C3.14128 8.11417 3.29797 8.24847 3.29797 8.41353V9.5232C3.24732 9.51673 3.19581 9.513 3.14346 9.513H3.01806C2.89816 9.513 2.78423 9.53919 2.6811 9.58591V9.05122V8.11414H2.94865V8.11417Z" fill="white"/>
<path d="M14.53 0.203339C14.3929 0.197613 14.2774 0.307553 14.2723 0.447748C14.2671 0.587977 14.3742 0.705913 14.5114 0.711164C15.2067 0.737726 15.7513 1.31582 15.7513 2.02719V4.08882C15.7513 4.8152 15.1731 5.40617 14.4623 5.40617H10.5553C10.418 5.40617 10.3066 5.51994 10.3066 5.66027C10.3066 5.8006 10.418 5.91437 10.5553 5.91437H14.4623C15.4472 5.91437 16.2485 5.09542 16.2485 4.08882V2.02719C16.2485 1.04129 15.4936 0.240166 14.53 0.203339Z" fill="white"/>
<path d="M7.03451 6.80241C7.09441 6.83232 7.15835 6.84703 7.22186 6.84703C7.31442 6.84703 7.40597 6.81579 7.48262 6.75477L8.53838 5.91438H9.49503C9.63233 5.91438 9.74365 5.80061 9.74365 5.66028C9.74365 5.51995 9.63233 5.40619 9.49503 5.40619H8.45299C8.39766 5.40619 8.34386 5.42506 8.30024 5.45982L7.29317 6.26145V2.02721C7.29314 1.30082 7.87135 0.709858 8.58207 0.709858H13.4605C13.5978 0.709858 13.7091 0.59609 13.7091 0.455759C13.7091 0.315429 13.5978 0.20166 13.4605 0.20166H8.58207C7.59718 0.20166 6.7959 1.0206 6.7959 2.02721V6.41181C6.7959 6.57924 6.88732 6.72889 7.03451 6.80241Z" fill="white"/>
<path d="M10.7256 2.96401C10.7256 3.41372 11.0836 3.77958 11.5236 3.77958C11.9636 3.77958 12.3215 3.41372 12.3215 2.96401C12.3215 2.5143 11.9636 2.14844 11.5236 2.14844C11.0836 2.14844 10.7256 2.5143 10.7256 2.96401ZM11.824 2.96401C11.824 3.13329 11.6892 3.27101 11.5236 3.27101C11.358 3.27101 11.2232 3.13329 11.2232 2.96401C11.2232 2.79472 11.358 2.657 11.5236 2.657C11.6892 2.657 11.824 2.79472 11.824 2.96401Z" fill="white"/>
<path d="M8.25684 2.96401C8.25684 3.41372 8.61481 3.77958 9.05482 3.77958C9.49482 3.77958 9.8528 3.41372 9.8528 2.96401C9.8528 2.5143 9.49482 2.14844 9.05482 2.14844C8.61481 2.14844 8.25684 2.5143 8.25684 2.96401ZM9.3552 2.96401C9.3552 3.13329 9.22045 3.27101 9.05482 3.27101C8.88918 3.27101 8.75443 3.13329 8.75443 2.96401C8.75443 2.79472 8.88918 2.657 9.05482 2.657C9.22045 2.657 9.3552 2.79472 9.3552 2.96401Z" fill="white"/>
<path d="M13.1934 2.96401C13.1934 3.41372 13.5513 3.77958 13.9913 3.77958C14.4313 3.77958 14.7893 3.41372 14.7893 2.96401C14.7893 2.5143 14.4313 2.14844 13.9913 2.14844C13.5513 2.14844 13.1934 2.5143 13.1934 2.96401ZM13.9913 2.657C14.157 2.657 14.2917 2.79472 14.2917 2.96401C14.2917 3.13329 14.157 3.27101 13.9913 3.27101C13.8257 3.27101 13.691 3.13329 13.691 2.96401C13.691 2.79472 13.8257 2.657 13.9913 2.657Z" fill="white"/>
</svg>
