<svg width="23" height="22" viewBox="0 0 23 22" fill="none" xmlns="http://www.w3.org/2000/svg">
<path d="M11.0837 6.76227C9.95093 6.76227 8.86453 7.20884 8.06351 8.00374C7.2625 8.79865 6.8125 9.87677 6.8125 11.0009C6.8125 12.1251 7.2625 13.2032 8.06351 13.9981C8.86453 14.793 9.95093 15.2396 11.0837 15.2396C12.2165 15.2396 13.3029 14.793 14.1039 13.9981C14.905 13.2032 15.355 12.1251 15.355 11.0009C15.355 9.87677 14.905 8.79865 14.1039 8.00374C13.3029 7.20884 12.2165 6.76227 11.0837 6.76227ZM11.0837 13.7537C10.3478 13.7537 9.64201 13.4636 9.12163 12.9472C8.60125 12.4307 8.30891 11.7303 8.30891 11C8.30891 10.2697 8.60125 9.56929 9.12163 9.05288C9.64201 8.53647 10.3478 8.24635 11.0837 8.24635C11.8197 8.24635 12.5254 8.53647 13.0458 9.05288C13.5662 9.56929 13.8586 10.2697 13.8586 11C13.8586 11.7303 13.5662 12.4307 13.0458 12.9472C12.5254 13.4636 11.8197 13.7537 11.0837 13.7537Z" fill="white"/>
<path d="M15.5241 7.59462C16.074 7.59462 16.5198 7.1522 16.5198 6.60645C16.5198 6.0607 16.074 5.61829 15.5241 5.61829C14.9741 5.61829 14.5283 6.0607 14.5283 6.60645C14.5283 7.1522 14.9741 7.59462 15.5241 7.59462Z" fill="white"/>
<path d="M18.9665 5.60174C18.7526 5.05374 18.4259 4.55609 18.0071 4.14063C17.5883 3.72518 17.0866 3.40108 16.5344 3.18908C15.8881 2.94832 15.2053 2.81814 14.5151 2.80408C13.6256 2.76558 13.3439 2.75458 11.0882 2.75458C8.83248 2.75458 8.54336 2.75458 7.66121 2.80408C6.97156 2.81742 6.28928 2.94763 5.64383 3.18908C5.0914 3.40083 4.58967 3.72484 4.17083 4.14033C3.75199 4.55582 3.4253 5.0536 3.21171 5.60174C2.96906 6.24306 2.83818 6.92068 2.82468 7.60558C2.78496 8.48741 2.77295 8.76699 2.77295 11.0064C2.77295 13.2449 2.77295 13.53 2.82468 14.4072C2.83853 15.0929 2.96878 15.7694 3.21171 16.412C3.4259 16.9599 3.75291 17.4575 4.17185 17.873C4.59079 18.2884 5.09244 18.6125 5.64476 18.8247C6.28898 19.0751 6.97155 19.2146 7.66306 19.2372C8.55259 19.2757 8.83432 19.2876 11.09 19.2876C13.3457 19.2876 13.6348 19.2876 14.517 19.2372C15.2071 19.2232 15.8898 19.0934 16.5362 18.8531C17.0884 18.6406 17.5898 18.3162 18.0086 17.9006C18.4273 17.4851 18.7542 16.9874 18.9683 16.4395C19.2113 15.7978 19.3415 15.1213 19.3554 14.4357C19.3951 13.5538 19.4071 13.2742 19.4071 11.0348C19.4071 8.79541 19.4071 8.51124 19.3554 7.63399C19.3446 6.93941 19.213 6.25189 18.9665 5.60174ZM17.8414 14.3394C17.8354 14.8677 17.7383 15.391 17.5541 15.8867C17.4154 16.2432 17.203 16.5669 16.9307 16.837C16.6583 17.1072 16.332 17.3177 15.9727 17.4552C15.4788 17.6371 14.957 17.7335 14.4301 17.7402C13.5526 17.7806 13.3051 17.7907 11.0549 17.7907C8.80292 17.7907 8.57291 17.7907 7.67876 17.7402C7.15218 17.7338 6.63066 17.6374 6.1371 17.4552C5.77656 17.3186 5.44893 17.1084 5.17541 16.8382C4.90189 16.568 4.68857 16.2439 4.54924 15.8867C4.36768 15.3964 4.27057 14.8792 4.26197 14.3568C4.22225 13.486 4.21301 13.2403 4.21301 11.0073C4.21301 8.77341 4.21301 8.54516 4.26197 7.65691C4.26794 7.12893 4.3651 6.60588 4.54924 6.11049C4.83097 5.38724 5.40829 4.81799 6.1371 4.54116C6.6309 4.35979 7.15227 4.26338 7.67876 4.25608C8.55721 4.21666 8.80384 4.20566 11.0549 4.20566C13.306 4.20566 13.5369 4.20566 14.4301 4.25608C14.957 4.26237 15.4789 4.35881 15.9727 4.54116C16.332 4.67891 16.6583 4.88968 16.9306 5.15994C17.2029 5.4302 17.4153 5.75398 17.5541 6.11049C17.7357 6.60086 17.8328 7.11806 17.8414 7.64041C17.8811 8.51216 17.8913 8.75691 17.8913 10.9908C17.8913 13.2238 17.8913 13.464 17.8516 14.3403H17.8414V14.3394Z" fill="white"/>
</svg>
