<svg width="50" height="50" viewBox="0 0 50 50" fill="none" xmlns="http://www.w3.org/2000/svg">
<path d="M16.4063 11.7188C15.975 11.7188 15.625 12.0688 15.625 12.5C15.625 12.9312 15.975 13.2812 16.4063 13.2812C16.8375 13.2812 17.1875 12.9312 17.1875 12.5C17.1875 12.0688 16.8375 11.7188 16.4063 11.7188Z" fill="white"/>
<path d="M21.0937 11.7188C20.6625 11.7188 20.3125 12.0688 20.3125 12.5C20.3125 12.9312 20.6625 13.2812 21.0937 13.2812C21.525 13.2812 21.875 12.9312 21.875 12.5C21.875 12.0688 21.525 11.7188 21.0937 11.7188Z" fill="white"/>
<path d="M18.7502 17.1875C17.4885 17.1875 16.3541 16.4867 15.79 15.3578L15.708 15.193L17.1057 14.4938L17.1877 14.6594C17.4854 15.2547 18.0838 15.625 18.7502 15.625C19.4166 15.625 20.015 15.2547 20.3127 14.6594L20.3947 14.4946L21.7924 15.1938L21.7103 15.3586C21.1463 16.4867 20.0119 17.1875 18.7502 17.1875Z" fill="white"/>
<path d="M18.75 20.3125C15.3039 20.3125 12.5 17.5086 12.5 14.0625V10.9516C12.5 9.21719 13.6648 7.67266 15.3328 7.19531L17.2344 6.65234C17.457 5.53281 18.4453 4.6875 19.6289 4.6875H20.3125V6.25H19.6289C19.1437 6.25 18.75 6.64453 18.75 7.12891C18.75 7.57031 19.0805 7.94531 19.5195 8L22.9469 8.42891C24.1172 8.575 25 9.575 25 10.7547V14.0625C25 17.5086 22.1961 20.3125 18.75 20.3125ZM17.4445 8.21719L15.7625 8.69766C14.7617 8.98359 14.0625 9.91094 14.0625 10.9516V14.0625C14.0625 16.6477 16.1648 18.75 18.75 18.75C21.3352 18.75 23.4375 16.6477 23.4375 14.0625V10.7547C23.4375 10.3617 23.1437 10.0281 22.7531 9.97969L19.3258 9.55078C18.4922 9.44688 17.7992 8.92734 17.4445 8.21719Z" fill="white"/>
<path d="M13.5078 16.4062H12.5C10.7766 16.4062 9.375 15.0047 9.375 13.2812C9.375 11.5578 10.7766 10.1562 12.5 10.1562H13.2813V11.7187H12.5C11.6383 11.7187 10.9375 12.4195 10.9375 13.2812C10.9375 14.143 11.6383 14.8437 12.5 14.8437H13.5078V16.4062Z" fill="white"/>
<path d="M25 16.4062H23.9922V14.8437H25C25.8617 14.8437 26.5625 14.143 26.5625 13.2812C26.5625 12.4195 25.8617 11.7187 25 11.7187H24.2188V10.1562H25C26.7234 10.1562 28.125 11.5578 28.125 13.2812C28.125 15.0047 26.7234 16.4062 25 16.4062Z" fill="white"/>
<path d="M10.9375 42.9688H7.03125C6.16953 42.9688 5.46875 42.268 5.46875 41.4063V28.7321C5.46875 25.2805 7.93984 22.3633 11.3438 21.7961L14.9914 21.1883L15.5914 18.7883L17.107 19.1665L16.2586 22.5618L11.6008 23.3375C8.95312 23.779 7.03125 26.0477 7.03125 28.7321V41.4063H10.9375V42.9688Z" fill="white"/>
<path d="M10.9375 47.6562H10.1562C8.43281 47.6562 7.03125 46.2547 7.03125 44.5312V42.1875H8.59375V44.5312C8.59375 45.393 9.29453 46.0937 10.1562 46.0937H10.9375V47.6562Z" fill="white"/>
<path d="M10.9375 39.8438H26.5625V41.4062H10.9375V39.8438Z" fill="white"/>
<path d="M17.9688 24.2188H19.5312V48.4375H17.9688V24.2188Z" fill="white"/>
<path d="M21.0938 35.1562H22.6563V36.7188H21.0938V35.1562Z" fill="white"/>
<path d="M21.0938 32.0312H22.6563V33.5938H21.0938V32.0312Z" fill="white"/>
<path d="M27.3438 49.2187H10.1562V28.9062H11.7188V47.6562H25.7812V27.3438H29.6875V28.9062H27.3438V49.2187Z" fill="white"/>
<path d="M39.8438 18.75H38.2812V8.59375C38.2812 7.73203 37.5805 7.03125 36.7188 7.03125C35.857 7.03125 35.1562 7.73203 35.1562 8.59375V9.85859L34.4164 10.2273C33.9094 10.4812 33.5938 10.9914 33.5938 11.5594C33.5938 11.9578 33.7484 12.3313 34.0297 12.6133L35.1562 13.7391V18.75H33.5938V14.3859L32.925 13.718C32.3484 13.1414 32.0312 12.375 32.0312 11.5594C32.0312 10.4437 32.6266 9.43516 33.5938 8.89531V8.59375C33.5938 6.87031 34.9953 5.46875 36.7188 5.46875C38.4422 5.46875 39.8438 6.87031 39.8438 8.59375V18.75Z" fill="white"/>
<path d="M29.6876 22.6563H21.2649L20.3931 19.1665L21.9087 18.7883L22.4853 21.0938H29.6876V22.6563Z" fill="white"/>
<path d="M18.75 25.1953L15.1562 22.5L16.0938 21.25L18.75 23.2422L21.4063 21.25L22.3438 22.5L18.75 25.1953Z" fill="white"/>
<path d="M23.0852 28.6874L18.2617 24.8289L19.2383 23.6085L22.2273 25.9999L23.468 21.6609L24.9695 22.089L23.0852 28.6874Z" fill="white"/>
<path d="M14.4148 28.6875L12.6367 22.4625L14.1391 22.0336L15.2727 26L18.2617 23.6086L19.2383 24.8289L14.4148 28.6875Z" fill="white"/>
<path d="M27.3508 11.825L25.8688 11.3305L26.2586 10.1625C26.4609 9.55625 26.5633 8.92422 26.5633 8.28438C26.5625 5.00859 23.8977 2.34375 20.6219 2.34375H15.9938C15.3602 2.34375 14.8438 2.85938 14.8438 3.49375C14.8438 3.93281 15.0875 4.32656 15.4797 4.52266L15.9742 4.76953L15.2758 6.16719L14.7813 5.92031C13.8555 5.45781 13.2812 4.52813 13.2812 3.49375C13.2812 1.99844 14.4984 0.78125 15.9938 0.78125H20.6219C24.7594 0.78125 28.125 4.14766 28.125 8.28438C28.125 9.09297 27.9953 9.89141 27.7398 10.657L27.3508 11.825Z" fill="white"/>
<path d="M10.6312 7.66094C10.3203 7.12109 10.1562 6.50781 10.1562 5.88672C10.1562 3.93281 11.7461 2.34375 13.7 2.34375H14.0977V3.90625H13.7C12.6078 3.90625 11.7187 4.79531 11.7187 5.88672C11.7187 6.23359 11.8109 6.57812 11.9852 6.87969L10.6312 7.66094Z" fill="white"/>
<path d="M10.4828 12.0382C9.77891 11.3804 9.375 10.4507 9.375 9.48745C9.375 8.15698 10.1141 6.96089 11.3047 6.3648L12.932 5.55151L13.6313 6.94917L12.0039 7.76245C11.3461 8.09058 10.9375 8.75151 10.9375 9.48745C10.9375 10.0203 11.1602 10.5335 11.5492 10.896L10.4828 12.0382Z" fill="white"/>
<path d="M34.375 13.2812H39.0625V14.8438H34.375V13.2812Z" fill="white"/>
<path d="M41.4062 30.4687H32.0312V22.6562H41.4062V30.4687ZM33.5938 28.9062H39.8438V24.2187H33.5938V28.9062Z" fill="white"/>
<path d="M42.1875 36.7187H31.25C29.9578 36.7187 28.9062 35.6672 28.9062 34.375V19.5312C28.9062 18.6695 29.607 17.9688 30.4687 17.9688H42.9687C43.8305 17.9688 44.5312 18.6695 44.5312 19.5312V34.375C44.5312 35.6672 43.4797 36.7187 42.1875 36.7187ZM30.4687 19.5312V34.375C30.4687 34.8062 30.8195 35.1562 31.25 35.1562H42.1875C42.618 35.1562 42.9687 34.8062 42.9687 34.375V19.5312H30.4687Z" fill="white"/>
<path d="M42.9687 18.75H41.4062V16.4063C41.4062 13.8211 39.3039 11.7188 36.7187 11.7188C34.1336 11.7188 32.0312 13.8211 32.0312 16.4063V18.75H30.4688V16.4063C30.4688 12.9602 33.2727 10.1562 36.7187 10.1562C40.1648 10.1562 42.9687 12.9602 42.9687 16.4063V18.75Z" fill="white"/>
</svg>
