<svg width="50" height="50" viewBox="0 0 50 50" fill="none" xmlns="http://www.w3.org/2000/svg">
<path d="M8.59375 28.9062V46.0938C8.59444 46.7151 8.8416 47.3109 9.28099 47.7503C9.72037 48.1897 10.3161 48.4368 10.9375 48.4375H39.0625C39.6839 48.4368 40.2796 48.1897 40.719 47.7503C41.1584 47.3109 41.4056 46.7151 41.4062 46.0938V28.9062H39.8438V46.0938C39.8435 46.3009 39.7611 46.4995 39.6147 46.6459C39.4682 46.7924 39.2696 46.8748 39.0625 46.875H10.9375C10.7304 46.8748 10.5318 46.7924 10.3853 46.6459C10.2389 46.4995 10.1565 46.3009 10.1562 46.0938V28.9062H8.59375Z" fill="white"/>
<path d="M10.1562 3.90625C10.1565 3.69912 10.2389 3.50055 10.3853 3.35408C10.5318 3.20762 10.7304 3.12524 10.9375 3.125H39.0625C39.2696 3.12524 39.4682 3.20762 39.6147 3.35408C39.7611 3.50055 39.8435 3.69912 39.8438 3.90625V17.9688H41.4062V3.90625C41.4056 3.28486 41.1584 2.68912 40.719 2.24974C40.2796 1.81035 39.6839 1.56319 39.0625 1.5625H10.9375C10.3161 1.56319 9.72037 1.81035 9.28099 2.24974C8.8416 2.68912 8.59444 3.28486 8.59375 3.90625V17.9688H10.1562V3.90625Z" fill="white"/>
<path d="M12.5 6.25C12.9315 6.25 13.2812 5.90022 13.2812 5.46875C13.2812 5.03728 12.9315 4.6875 12.5 4.6875C12.0685 4.6875 11.7188 5.03728 11.7188 5.46875C11.7188 5.90022 12.0685 6.25 12.5 6.25Z" fill="white"/>
<path d="M14.8438 6.25C15.2752 6.25 15.625 5.90022 15.625 5.46875C15.625 5.03728 15.2752 4.6875 14.8438 4.6875C14.4123 4.6875 14.0625 5.03728 14.0625 5.46875C14.0625 5.90022 14.4123 6.25 14.8438 6.25Z" fill="white"/>
<path d="M17.1875 6.25C17.619 6.25 17.9688 5.90022 17.9688 5.46875C17.9688 5.03728 17.619 4.6875 17.1875 4.6875C16.756 4.6875 16.4062 5.03728 16.4062 5.46875C16.4062 5.90022 16.756 6.25 17.1875 6.25Z" fill="white"/>
<path d="M5.99494 25.9916L14.725 27.3346C14.8849 27.3592 15.0484 27.3336 15.1931 27.2613L17.3864 26.1646L18.5951 32.8125H14.0625V34.375H35.9375V32.8125H31.4049L32.6136 26.1646L34.8069 27.2613C34.9515 27.3337 35.1151 27.3593 35.275 27.3346L44.0051 25.9916C44.6085 25.8987 45.1559 25.5852 45.5412 25.1116C45.9265 24.6381 46.1222 24.0384 46.0904 23.4288C46.0586 22.8191 45.8016 22.243 45.3692 21.8121C44.9368 21.3812 44.3597 21.1262 43.75 21.0966V20.3125C43.75 20.2099 43.7298 20.1083 43.6905 20.0135C43.6513 19.9187 43.5937 19.8326 43.5212 19.7601C43.4486 19.6875 43.3625 19.63 43.2677 19.5907C43.1729 19.5515 43.0714 19.5312 42.9688 19.5312H41.4063C41.3037 19.5312 41.2021 19.5515 41.1073 19.5907C41.0125 19.63 40.9264 19.6875 40.8538 19.7601L39.5201 21.0938H37.0847L33.4127 16.6873C33.326 16.5833 33.2137 16.5036 33.0868 16.456L27.8765 14.5021C28.0409 14.1161 28.1254 13.7008 28.125 13.2812V9.375C28.125 9.24638 28.0933 9.11976 28.0326 9.00636C27.9719 8.89297 27.8841 8.79631 27.7771 8.72497L25.8866 7.46465C25.498 7.20557 25.0464 7.05682 24.5799 7.03426C24.1134 7.0117 23.6495 7.11618 23.2378 7.33655C22.826 7.55693 22.4817 7.88493 22.2417 8.28559C22.0017 8.68624 21.875 9.14452 21.875 9.61156V13.2812C21.8746 13.7008 21.9591 14.1161 22.1235 14.5021L16.9132 16.456C16.7863 16.5036 16.6741 16.5833 16.5873 16.6873L12.9153 21.0938H10.4799L9.14617 19.7601C9.07363 19.6875 8.98751 19.63 8.89272 19.5907C8.79794 19.5515 8.69635 19.5312 8.59375 19.5312H7.03125C6.92866 19.5312 6.82707 19.5515 6.73228 19.5907C6.63749 19.63 6.55137 19.6875 6.47882 19.7601C6.40627 19.8326 6.34873 19.9187 6.30947 20.0135C6.27021 20.1083 6.25 20.2099 6.25 20.3125V21.0966C5.64025 21.1262 5.06322 21.3812 4.6308 21.8121C4.19837 22.243 3.94136 22.8191 3.90959 23.4288C3.87782 24.0384 4.07357 24.6382 4.45887 25.1117C4.84417 25.5852 5.39157 25.8988 5.99494 25.9916ZM41.7299 21.0938H42.1875V21.875C42.1875 21.9776 42.2077 22.0792 42.247 22.174C42.2862 22.2688 42.3438 22.3549 42.4163 22.4274C42.4889 22.5 42.575 22.5575 42.6698 22.5968C42.7646 22.636 42.8662 22.6563 42.9688 22.6562H43.6305C43.8575 22.6563 44.0761 22.742 44.2427 22.8962C44.4092 23.0505 44.5113 23.262 44.5286 23.4883C44.5459 23.7147 44.4772 23.9392 44.336 24.117C44.1949 24.2948 43.9919 24.4128 43.7675 24.4473L41.2329 24.8372L40.6918 22.1318L41.7299 21.0938ZM23.4375 11.7187H26.5625V13.2812C26.5625 13.6957 26.3979 14.0931 26.1049 14.3861C25.8118 14.6791 25.4144 14.8437 25 14.8437C24.5856 14.8437 24.1882 14.6791 23.8952 14.3861C23.6021 14.0931 23.4375 13.6957 23.4375 13.2812V11.7187ZM25 16.4062C25.6705 16.4069 26.3233 16.1908 26.8609 15.79L29.2589 16.6893L25 22.165L20.7411 16.6893L23.1391 15.79C23.6767 16.1908 24.3295 16.4069 25 16.4062ZM24.4553 8.59375C24.6563 8.59358 24.8528 8.65307 25.0199 8.7647L26.5625 9.79314V10.1562H23.4375V9.61156C23.4378 9.34171 23.5451 9.083 23.7359 8.89219C23.9268 8.70138 24.1855 8.59405 24.4553 8.59375ZM13.2813 22.6562C13.3958 22.6562 13.5089 22.6311 13.6126 22.5825C13.7163 22.5339 13.8081 22.4631 13.8814 22.3752L17.6553 17.8464L19.2086 17.264L24.3833 23.9172C24.4564 24.0111 24.5499 24.087 24.6568 24.1393C24.7636 24.1916 24.881 24.2188 25 24.2188C25.119 24.2188 25.2364 24.1916 25.3433 24.1393C25.4501 24.087 25.5437 24.0111 25.6167 23.9172L30.7914 17.264L32.3447 17.8464L36.1186 22.3752C36.1919 22.4631 36.2837 22.5339 36.3874 22.5825C36.4911 22.6311 36.6042 22.6562 36.7188 22.6562H39.2033L39.687 25.075L35.2832 25.7525L32.3806 24.3012C32.2721 24.247 32.1525 24.2188 32.0312 24.2188C31.91 24.2188 31.7903 24.247 31.6819 24.3012C31.5734 24.3555 31.479 24.4342 31.4062 24.5313C31.3335 24.6283 31.2843 24.7409 31.2626 24.8602L29.8167 32.8125H20.1833L18.7374 24.8602C18.7157 24.7409 18.6665 24.6283 18.5938 24.5313C18.521 24.4342 18.4266 24.3555 18.3181 24.3012C18.2097 24.247 18.09 24.2188 17.9688 24.2188C17.8475 24.2188 17.7279 24.247 17.6194 24.3012L14.7168 25.7525L10.313 25.075L10.7967 22.6562H13.2813ZM6.3695 22.6562H7.03125C7.13385 22.6563 7.23544 22.636 7.33023 22.5968C7.42502 22.5575 7.51114 22.5 7.58369 22.4274C7.65623 22.3549 7.71378 22.2688 7.75304 22.174C7.7923 22.0792 7.81251 21.9776 7.8125 21.875V21.0938H8.27012L9.30817 22.1318L8.76708 24.8372L6.23255 24.4473C6.00819 24.4128 5.80512 24.2948 5.66399 24.117C5.52286 23.9392 5.45407 23.7147 5.47138 23.4883C5.48868 23.262 5.59081 23.0505 5.75734 22.8962C5.92386 22.742 6.14249 22.6563 6.3695 22.6562Z" fill="white"/>
<path d="M28.9062 36.7188H25V38.2812H28.9062V36.7188Z" fill="white"/>
<path d="M23.4375 36.7188H21.0938V38.2812H23.4375V36.7188Z" fill="white"/>
<path d="M31.25 40.625H25.7812V42.1875H31.25V40.625Z" fill="white"/>
<path d="M24.2188 40.625H18.75V42.1875H24.2188V40.625Z" fill="white"/>
</svg>
