<svg width="50" height="50" viewBox="0 0 50 50" fill="none" xmlns="http://www.w3.org/2000/svg">
<path d="M27.9599 16.9203L28.0419 16.7555L26.6442 16.0563L26.5622 16.2219C26.2645 16.8172 25.6661 17.1875 24.9997 17.1875C24.3333 17.1875 23.7349 16.8172 23.4372 16.2219L23.3552 16.0571L21.9575 16.7563L22.0396 16.9211C22.6036 18.0492 23.738 18.75 24.9997 18.75C26.2614 18.75 27.3958 18.0492 27.9599 16.9203Z" fill="white"/>
<path d="M22.6562 14.8438C23.0877 14.8438 23.4375 14.494 23.4375 14.0625C23.4375 13.631 23.0877 13.2812 22.6562 13.2812C22.2248 13.2812 21.875 13.631 21.875 14.0625C21.875 14.494 22.2248 14.8438 22.6562 14.8438Z" fill="white"/>
<path d="M27.3438 14.8438C27.7752 14.8438 28.125 14.494 28.125 14.0625C28.125 13.631 27.7752 13.2812 27.3438 13.2812C26.9123 13.2812 26.5625 13.631 26.5625 14.0625C26.5625 14.494 26.9123 14.8438 27.3438 14.8438Z" fill="white"/>
<path d="M25 36.7188C23.7078 36.7188 22.6562 37.7703 22.6562 39.0625C22.6562 40.3547 23.7078 41.4062 25 41.4062C26.2922 41.4062 27.3438 40.3547 27.3438 39.0625C27.3438 37.7703 26.2922 36.7188 25 36.7188ZM25 39.8438C24.5688 39.8438 24.2188 39.4938 24.2188 39.0625C24.2188 38.6313 24.5688 38.2812 25 38.2812C25.4313 38.2812 25.7812 38.6313 25.7812 39.0625C25.7812 39.4938 25.4313 39.8438 25 39.8438Z" fill="white"/>
<path d="M10.1562 5.6125V3.90625H8.59375V5.46875H7.03125V7.8125C7.03125 9.10469 8.08281 10.1562 9.375 10.1562C9.80625 10.1562 10.1562 10.5062 10.1562 10.9375V11.7188H9.375C8.94375 11.7188 8.59375 11.3688 8.59375 10.9375V10.1562H7.03125V10.9375C7.03125 11.9547 7.68672 12.8141 8.59375 13.1375V14.8438H10.1562V13.2812H11.7188V10.9375C11.7188 9.64531 10.6672 8.59375 9.375 8.59375C8.94375 8.59375 8.59375 8.24375 8.59375 7.8125V7.03125H9.375C9.80625 7.03125 10.1562 7.38125 10.1562 7.8125V8.59375H11.7188V7.8125C11.7188 6.79531 11.0633 5.93594 10.1562 5.6125Z" fill="white"/>
<path d="M13.2812 30.4688V28.125C13.2812 26.8328 12.2297 25.7812 10.9375 25.7812C10.5063 25.7812 10.1562 25.4313 10.1562 25V24.2188H10.9375C11.3688 24.2188 11.7188 24.5688 11.7188 25V25.7812H13.2812V25C13.2812 23.7078 12.2297 22.6562 10.9375 22.6562H8.59375V25C8.59375 26.2922 9.64531 27.3438 10.9375 27.3438C11.3688 27.3438 11.7188 27.6937 11.7188 28.125V28.9062H10.9375C10.5063 28.9062 10.1562 28.5563 10.1562 28.125V27.3438H8.59375V28.125C8.59375 29.4172 9.64531 30.4688 10.9375 30.4688H13.2812Z" fill="white"/>
<path d="M44.5312 25.7812H46.0938V27.3438H44.5312V25.7812Z" fill="white"/>
<path d="M41.4062 25.7812H42.9688V27.3438H41.4062V25.7812Z" fill="white"/>
<path d="M38.2812 25.7812H39.8438V27.3438H38.2812V25.7812Z" fill="white"/>
<path d="M47.6562 22.6562H36.7188C35.857 22.6562 35.1562 23.357 35.1562 24.2188V24.2227C34.2219 23.7156 33.2164 23.375 32.1609 23.2242L28.7453 22.7367L28.2625 20.9453C29.3922 20.25 30.2852 19.2102 30.7898 17.9688H33.5938V19.3469C33.5938 20.3102 34.3773 21.0938 35.3406 21.0938C36.0062 21.0938 36.6039 20.7234 36.9031 20.1281L37.9828 17.9688H44.5312C45.393 17.9688 46.0938 17.268 46.0938 16.4062V8.59375C46.0938 7.73203 45.393 7.03125 44.5312 7.03125H34.2289C33.5344 3.47422 30.3984 0.78125 26.6414 0.78125H23.3594C20.4617 0.78125 17.9352 2.38516 16.6102 4.74922C15.0492 2.325 12.3227 0.78125 9.375 0.78125C4.63672 0.78125 0.78125 4.63672 0.78125 9.375C0.78125 14.1133 4.63672 17.9688 9.375 17.9688C12.0023 17.9688 14.4297 16.7734 16.0359 14.8008C16.5719 15.7539 17.5812 16.4062 18.75 16.4062H18.8039C19.0453 18.3266 20.1594 19.9742 21.7367 20.9453L21.2539 22.7367L17.8383 23.2242C17.618 23.2555 17.3984 23.2953 17.1812 23.3438C16.0117 21.0828 13.6547 19.5312 10.9375 19.5312C7.06016 19.5312 3.90625 22.6852 3.90625 26.5625C3.90625 30.1758 6.64609 33.1578 10.1562 33.5477V40.625C10.1562 42.7789 11.9086 44.5312 14.0625 44.5312H14.8438V46.0938C14.8438 47.8172 16.2453 49.2188 17.9688 49.2188H32.0312C33.7547 49.2188 35.1562 47.8172 35.1562 46.0938V44.5312H35.9375C38.0914 44.5312 39.8438 42.7789 39.8438 40.625V33.5664C40.4219 33.6672 41.0719 33.4711 41.5008 33.0414L44.0734 30.4688H47.6562C48.518 30.4688 49.2188 29.768 49.2188 28.9062V24.2188C49.2188 23.357 48.518 22.6562 47.6562 22.6562ZM29.3797 24.4062L28.4344 27.7125L26.2594 26.4078L28.4008 24.2664L29.3797 24.4062ZM32.8125 13.2812C32.8125 14.143 32.1117 14.8438 31.25 14.8438V11.7188C32.1117 11.7188 32.8125 12.4195 32.8125 13.2812ZM44.5312 16.4062H37.0172L35.5063 19.4281C35.4281 19.5828 35.1562 19.5187 35.1562 19.3469V16.4062H31.25C32.4016 16.4062 33.3984 15.7734 33.9406 14.8438H42.9688V13.2812H34.375C34.375 12.7094 34.2094 12.1805 33.9406 11.7188H42.9688V10.1562H34.1922C34.3039 9.64297 34.3656 9.11875 34.3711 8.59375H44.5312V16.4062ZM9.375 16.4062C5.49766 16.4062 2.34375 13.2523 2.34375 9.375C2.34375 5.49766 5.49766 2.34375 9.375 2.34375C12.2 2.34375 14.7711 4.07969 15.8555 6.67578C15.7102 7.26641 15.625 7.88047 15.625 8.51484C15.625 9.52266 15.8375 10.5273 16.2211 11.4594C16.0648 11.675 15.9375 11.9109 15.8406 12.1633L15.8336 12.1602C14.7195 14.7398 12.1844 16.4062 9.375 16.4062ZM17.1875 13.2812C17.1875 12.4195 17.8883 11.7188 18.75 11.7188H18.7578C18.757 11.7516 18.75 11.782 18.75 11.8148V14.8438C17.8883 14.8438 17.1875 14.143 17.1875 13.2812ZM19.1313 10.1562H18.75C18.3047 10.1562 17.882 10.2531 17.4984 10.4219C17.2984 9.80625 17.1875 9.16172 17.1875 8.51484C17.1875 5.1125 19.9562 2.34375 23.3586 2.34375H26.6406C30.0437 2.34375 32.8125 5.1125 32.8125 8.51484C32.8125 9.16094 32.7016 9.80625 32.5016 10.4219C32.118 10.2531 31.6953 10.1562 31.25 10.1562H25C24.1383 10.1562 23.4375 9.45547 23.4375 8.59375C23.4375 7.73203 24.1383 7.03125 25 7.03125V5.46875C23.4906 5.46875 22.2289 6.54375 21.9383 7.96797L21.7094 8.025C20.5406 8.31797 19.6188 9.12109 19.1313 10.1562ZM20.3125 15.625V11.8148C20.3125 10.7539 21.0227 9.83359 22.0422 9.55625C22.4508 10.807 23.6148 11.7188 25 11.7188H29.6875V15.625C29.6875 18.2102 27.5852 20.3125 25 20.3125C22.4148 20.3125 20.3125 18.2102 20.3125 15.625ZM25 21.875C25.6336 21.875 26.2445 21.7789 26.8211 21.6023L27.2531 23.2047L25 25.4578L22.7469 23.2047L23.1789 21.6023C23.7555 21.7789 24.3664 21.875 25 21.875ZM21.5984 24.2664L23.7398 26.4078L21.5648 27.7125L20.6195 24.4062L21.5984 24.2664ZM18.0602 24.7719L19.0586 24.6289L20.6219 30.1L25 27.4734L29.3781 30.1L30.9414 24.6289L31.9398 24.7719C32.8664 24.9039 33.7477 25.207 34.5602 25.6711C34.768 25.7898 34.9602 25.9336 35.1562 26.0719V28.9062C35.1562 29.768 35.857 30.4688 36.7188 30.4688H38.2812V35.1562H35.1562V34.375C35.1562 33.0828 34.1047 32.0312 32.8125 32.0312H17.1875C15.8953 32.0312 14.8438 33.0828 14.8438 34.375V35.1562H11.7188V33.5477C15.2289 33.1578 17.9688 30.1758 17.9688 26.5625C17.9688 25.968 17.8867 25.393 17.7469 24.8406C17.8523 24.8211 17.9547 24.7867 18.0602 24.7719ZM33.5938 44.5312H16.4062V34.375C16.4062 33.9437 16.7563 33.5938 17.1875 33.5938H32.8125C33.2438 33.5938 33.5938 33.9437 33.5938 34.375V44.5312ZM5.46875 26.5625C5.46875 23.5477 7.92266 21.0938 10.9375 21.0938C13.9523 21.0938 16.4062 23.5477 16.4062 26.5625C16.4062 29.5773 13.9523 32.0312 10.9375 32.0312C7.92266 32.0312 5.46875 29.5773 5.46875 26.5625ZM14.0625 42.9688C12.7703 42.9688 11.7188 41.9172 11.7188 40.625V36.7188H14.8438V38.2812H13.2812V39.8438H14.8438V42.9688H14.0625ZM32.0312 47.6562H17.9688C17.107 47.6562 16.4062 46.9555 16.4062 46.0938H33.5938C33.5938 46.9555 32.893 47.6562 32.0312 47.6562ZM35.9375 42.9688H35.1562V39.8438H36.7188V38.2812H35.1562V36.7188H38.2812V40.625C38.2812 41.9172 37.2297 42.9688 35.9375 42.9688ZM47.6562 28.9062H43.4266L40.3961 31.9367C40.2094 32.1227 39.8438 31.9719 39.8438 31.7078V28.9062H36.7188V24.2188H47.6562V28.9062Z" fill="white"/>
</svg>
