<svg width="50" height="50" viewBox="0 0 50 50" fill="none" xmlns="http://www.w3.org/2000/svg">
<path d="M41.0875 35.1562H40.9438C40.2703 35.1562 39.607 35.3594 39.0602 35.7164C38.5047 35.3555 37.8484 35.1562 37.1812 35.1562H37.0375C36.132 35.1562 35.2461 35.5234 34.5992 36.1703C33.9508 36.8195 33.5938 37.6828 33.5938 38.6C33.5938 39.6234 34.0445 40.5852 34.8297 41.2398L39.0625 44.7672L43.2953 41.2398C44.0805 40.5852 44.5312 39.6227 44.5312 38.6C44.5312 37.6828 44.1742 36.8203 43.518 36.1633C42.8789 35.5234 41.993 35.1562 41.0875 35.1562ZM42.2945 40.0398L39.0625 42.7328L35.8305 40.0398C35.4016 39.6828 35.1562 39.1578 35.1562 38.6C35.1562 38.1 35.3516 37.6289 35.7133 37.2672C36.0609 36.9187 36.5438 36.7187 37.0375 36.7187H37.1812C37.675 36.7187 38.1578 36.9187 38.5398 37.2992L39.0953 37.7922L39.6195 37.2672C39.9672 36.9187 40.45 36.7187 40.9438 36.7187H41.0875C41.5812 36.7187 42.0641 36.9187 42.4195 37.2742C42.7734 37.6289 42.9688 38.1 42.9688 38.6C42.9688 39.1578 42.7234 39.6828 42.2945 40.0398Z" fill="white"/>
<path d="M28.5875 35.1562H28.4438C27.7703 35.1562 27.107 35.3594 26.5602 35.7164C26.0047 35.3555 25.3484 35.1562 24.6812 35.1562H24.5375C23.632 35.1562 22.7461 35.5234 22.0992 36.1703C21.4508 36.8195 21.0938 37.6828 21.0938 38.6C21.0938 39.6234 21.5445 40.5852 22.3297 41.2398L26.5625 44.7672L30.7953 41.2398C31.5805 40.5852 32.0312 39.6227 32.0312 38.6C32.0312 37.6828 31.6742 36.8203 31.018 36.1633C30.3789 35.5234 29.493 35.1562 28.5875 35.1562ZM29.7945 40.0398L26.5625 42.7328L23.3305 40.0398C22.9016 39.6828 22.6562 39.1578 22.6562 38.6C22.6562 38.1 22.8516 37.6289 23.2133 37.2672C23.5609 36.9187 24.0438 36.7187 24.5375 36.7187H24.6812C25.175 36.7187 25.6578 36.9187 26.0398 37.2992L26.5953 37.7922L27.1195 37.2672C27.4672 36.9187 27.95 36.7187 28.4438 36.7187H28.5875C29.0812 36.7187 29.5641 36.9187 29.9195 37.2742C30.2734 37.6289 30.4688 38.1 30.4688 38.6C30.4688 39.1578 30.2234 39.6828 29.7945 40.0398Z" fill="white"/>
<path d="M7.03125 37.5C6.16953 37.5 5.46875 38.2008 5.46875 39.0625V40.625C5.46875 41.4867 6.16953 42.1875 7.03125 42.1875H9.21875L19.5312 46.4844V33.2031L9.21875 37.5H7.03125ZM7.03125 39.0625H8.59375V40.625H7.03125V39.0625ZM17.9688 44.1406L10.1562 40.8852V38.8016L17.9688 35.5469V44.1406Z" fill="white"/>
<path d="M46.0938 23.3398V9.00859C46.0938 7.57891 45.7195 6.16719 45.0094 4.92656C43.5484 2.36953 40.8109 0.78125 37.8664 0.78125H35.5711C32.6258 0.78125 29.8891 2.36953 28.4273 4.92656C27.718 6.16797 27.3438 7.57891 27.3438 9.00859V23.3398C26.3273 24.1672 25.5344 25.207 25 26.3742C24.3563 24.9672 23.3414 23.7367 22.0109 22.8492C21.0852 22.232 20.0648 21.8094 18.975 21.5914L17.0438 21.2055L16.582 19.3594C17.9219 18.5211 18.9188 17.193 19.325 15.625H19.5312C21.2547 15.625 22.6562 14.2234 22.6562 12.5C22.6562 11.8234 22.4352 11.2016 22.0687 10.6898C22.4469 9.82422 22.6562 8.88437 22.6562 7.94062C22.6562 5.64219 21.5148 3.50859 19.6023 2.23359C18.1766 1.28359 16.5187 0.78125 14.8062 0.78125H12.4125C10.2969 0.78125 8.22891 1.17969 6.26563 1.96484L4.28438 2.75703L5.81328 5.05078L3.90625 5.68672V6.90469C3.90625 8.22734 4.07813 9.54297 4.40234 10.825C4.09219 11.3102 3.90625 11.8828 3.90625 12.5C3.90625 14.2234 5.30781 15.625 7.03125 15.625H7.23672C7.64297 17.193 8.63984 18.5219 9.97969 19.3594L9.51797 21.2055L7.58672 21.5914C6.49688 21.8094 5.47656 22.232 4.55078 22.8492C2.19062 24.4234 0.78125 27.057 0.78125 29.8945V46.875C0.78125 48.1672 1.83281 49.2188 3.125 49.2188H46.875C48.1672 49.2188 49.2188 48.1672 49.2188 46.875V29.8945C49.2188 27.3297 48.0594 24.9398 46.0938 23.3398ZM47.6562 29.8945V30.6125C47.4109 30.525 47.15 30.4688 46.875 30.4688H44.5312V26.5078C44.5312 25.2453 43.5047 24.2188 42.2414 24.2188C42.2281 24.2188 42.2156 24.2234 42.2016 24.2234L42.6344 23.2563C43.325 23.4516 43.9789 23.7477 44.5812 24.1492C46.5062 25.4328 47.6562 27.5805 47.6562 29.8945ZM35.7453 30.4688L34.3469 27.3438H39.0203L37.0672 30.4688H35.7453ZM36.7188 18.75C34.1336 18.75 32.0312 16.6477 32.0312 14.0625L32.0484 10.7437C33.7328 10.2242 35.3664 9.29766 36.7188 8.10234C38.0703 9.29766 39.7055 10.2242 41.4062 10.7453V14.0625C41.4062 16.6477 39.3039 18.75 36.7188 18.75ZM34.8594 20.0297C35.4469 20.2133 36.0719 20.3125 36.7188 20.3125C37.3656 20.3125 37.9906 20.2133 38.5781 20.0297L39.2062 22.5438L41.0742 22.9172L39.7922 25.7812H33.6477L32.3656 22.9172L34.2313 22.5445L34.8594 20.0297ZM29.7844 5.70156C30.9688 3.63047 33.1859 2.34375 35.5711 2.34375H37.8664C40.2523 2.34375 42.4695 3.63047 43.6531 5.70156C44.2273 6.70703 44.5312 7.85078 44.5312 9.00859V22.3258C43.8617 21.9906 43.1547 21.7398 42.4125 21.5914L40.4813 21.2055L40.0195 19.3594C41.7875 18.2539 42.9688 16.2961 42.9688 14.0625V10.7461C42.9688 10.0586 42.5187 9.45781 41.8492 9.25078C40.1664 8.73203 38.5406 7.74766 37.2711 6.47891L36.7188 5.92656L36.1664 6.47891C34.8969 7.74766 33.2711 8.73203 31.5883 9.25078C30.9187 9.45703 30.4688 10.0586 30.4688 10.7461V14.0625C30.4688 16.2961 31.65 18.2539 33.4172 19.3594L32.9555 21.2055L31.0242 21.5914C30.282 21.7398 29.575 21.9906 28.9055 22.3258V9.00859C28.9062 7.85078 29.2102 6.70703 29.7844 5.70156ZM28.8563 24.15C29.4594 23.7484 30.1141 23.4523 30.8055 23.2563L34.0328 30.4688H25.7812V29.8945C25.7812 27.5805 26.9313 25.4328 28.8563 24.15ZM21.1437 24.15C23.0687 25.4328 24.2188 27.5805 24.2188 29.8945V30.4688H16.2344L15.6672 28.2L15.9734 27.5266L17.7852 28.6133L18.618 23.1133L18.668 23.1234C19.5562 23.3016 20.3898 23.6469 21.1437 24.15ZM13.2812 25.9109L14.6258 26.7172L14.3406 27.3438H12.2219L11.9375 26.7172L13.2812 25.9109ZM12.3289 28.9062H14.2344L14.625 30.4688H11.9375L12.3289 28.9062ZM17.0852 22.807L16.5898 26.0734L14.5414 24.8445L16.6633 22.7227L17.0852 22.807ZM19.5312 14.0625V10.9375C20.393 10.9375 21.0938 11.6383 21.0938 12.5C21.0938 13.3617 20.393 14.0625 19.5312 14.0625ZM5.46875 6.81328L8.24922 5.88672L6.65312 3.49297L6.84531 3.41641C8.62344 2.70469 10.4969 2.34375 12.4125 2.34375H14.8062C16.2086 2.34375 17.5672 2.75469 18.7352 3.53281C20.2117 4.51797 21.0938 6.16562 21.0938 7.94062C21.0938 8.52187 20.9922 9.10156 20.8039 9.65234C20.4141 9.47734 19.9852 9.375 19.5312 9.375H19.0508C18.7094 8.92344 18.2117 8.59922 17.6234 8.49922C16.2305 8.26406 14.9664 7.61094 13.9664 6.61172L13.2812 5.92812L12.5945 6.6125C12 7.20625 10.6055 7.83516 8.76641 8.3375C8.17656 8.49922 7.69531 8.88125 7.38906 9.375H7.03125C6.56953 9.375 6.13438 9.48203 5.73906 9.6625C5.5625 8.75469 5.46875 7.83125 5.46875 6.90469V6.81328ZM5.46875 12.5C5.46875 11.6383 6.16953 10.9375 7.03125 10.9375V14.0625C6.16953 14.0625 5.46875 13.3617 5.46875 12.5ZM8.59375 14.0625V10.6016C8.59375 10.2508 8.83438 9.93984 9.17813 9.84609C10.4883 9.48828 12.1797 8.90781 13.2633 8.09297C14.4219 9.11094 15.8289 9.78125 17.3625 10.0398C17.7086 10.0984 17.9688 10.425 17.9688 10.7992V14.0625C17.9688 16.6477 15.8664 18.75 13.2812 18.75C10.6961 18.75 8.59375 16.6477 8.59375 14.0625ZM13.2812 20.3125C13.9281 20.3125 14.5531 20.2133 15.1406 20.0297L15.5414 21.6352L13.2812 23.8953L11.0211 21.6352L11.4219 20.0297C12.0094 20.2133 12.6344 20.3125 13.2812 20.3125ZM9.89922 22.7227L12.0211 24.8445L9.97266 26.0734L9.47734 22.807L9.89922 22.7227ZM5.41875 24.15C6.17344 23.6469 7.00625 23.3023 7.89453 23.1242L7.94453 23.1141L8.77734 28.6141L10.5891 27.5273L10.8953 28.2008L10.3281 30.4688H3.125C2.85 30.4688 2.58906 30.525 2.34375 30.6125V29.8945C2.34375 27.5805 3.49375 25.4328 5.41875 24.15ZM47.6562 46.875C47.6562 47.3055 47.3063 47.6562 46.875 47.6562H3.125C2.69375 47.6562 2.34375 47.3055 2.34375 46.875V32.8125C2.34375 32.382 2.69375 32.0312 3.125 32.0312H37.9336L41.6258 26.1234C41.7594 25.9094 41.9898 25.7812 42.2414 25.7812C42.6422 25.7812 42.9688 26.107 42.9688 26.5078V32.0312H46.875C47.3063 32.0312 47.6562 32.382 47.6562 32.8125V46.875Z" fill="white"/>
</svg>
