<svg width="229" height="37" viewBox="0 0 229 37" fill="none" xmlns="http://www.w3.org/2000/svg">
<path d="M62.8693 17.5583V28.1892H57.7563V17.8776C57.7563 14.136 56.0264 12.725 53.288 12.725C50.3517 12.725 48.4941 14.4553 48.4941 18.3245V28.1892H43.3811V17.8776C43.3811 14.136 41.6065 12.725 38.9128 12.725C35.9764 12.725 34.1189 14.4553 34.1189 18.3245V28.1892H29.0059V8.0512H32.4273L32.7912 11.1926C34.1636 8.9387 36.7361 7.77026 39.7171 7.77026C43.1002 7.77026 45.5961 9.18133 46.8855 11.6778C48.1749 9.14302 50.8687 7.77026 54.0923 7.77026C59.8883 7.77026 62.8693 11.7161 62.8693 17.5583Z" fill="white"/>
<path d="M74.4226 25.7696C74.4226 27.2637 73.0949 28.4705 71.4033 28.4705C69.6734 28.4705 68.3457 27.2637 68.3457 25.7696C68.3457 24.2436 69.6734 23.0305 71.4033 23.0305C73.0949 23.0369 74.4226 24.2436 74.4226 25.7696Z" fill="white"/>
<path d="M85.2107 10.0307C86.4171 8.65793 88.3513 7.77682 90.5216 7.77682C96.241 7.77682 100.307 12.4059 100.307 18.1267C100.307 23.8476 96.241 28.4384 90.5216 28.4384C87.7066 28.4384 85.332 27.2316 83.8 25.3353L83.5191 28.1957H80.0977V0H85.2107V10.0307ZM84.8085 18.1204C84.8085 21.4214 87.3427 23.4773 90.0046 23.4773C92.6983 23.4773 95.2006 21.4214 95.2006 18.1204C95.2006 14.8194 92.7047 12.7251 90.0046 12.7251C87.3427 12.7251 84.8085 14.8194 84.8085 18.1204Z" fill="white"/>
<path d="M105.382 0H110.533V28.1894H105.382V0Z" fill="white"/>
<path d="M136.66 18.1202C136.66 23.8347 132.032 28.4318 126.313 28.4318C120.594 28.4318 116.004 23.8411 116.004 18.1202C116.004 12.3993 120.594 7.77026 126.313 7.77026C132.032 7.77026 136.66 12.4057 136.66 18.1202ZM121.123 18.1202C121.123 21.4212 123.619 23.4771 126.319 23.4771C128.975 23.4771 131.515 21.4212 131.515 18.1202C131.515 14.8192 128.975 12.725 126.319 12.725C123.613 12.725 121.123 14.8192 121.123 18.1202Z" fill="white"/>
<path d="M188.448 13.2102C189.291 15.0618 189.336 17.801 188.774 19.5313H174.724C174.724 22.2704 176.978 23.7581 179.716 23.7581C181.81 23.7581 183.98 23.2728 185.793 22.347L188.487 25.2904C186.31 26.8994 183.291 28.4318 179.71 28.4318C173.588 28.4318 169.445 24.0007 169.445 18.1202C169.445 12.4057 173.307 7.77026 179.588 7.77026C183.903 7.77026 186.923 9.8262 188.448 13.2102ZM174.922 16.3069H184.14C184.14 15.8216 183.98 15.1768 183.655 14.6979C182.972 13.4081 181.523 12.444 179.588 12.444C176.856 12.444 175.005 14.3786 174.922 16.3069Z" fill="white"/>
<path d="M205.358 12.725C201.611 12.725 199.721 15.2598 199.721 19.0907V28.1892H194.608V8.0512H198.03L198.592 12.3993C200.085 9.57719 202.779 7.77026 206.564 7.77026H207.407V12.725H205.358Z" fill="white"/>
<path d="M219.931 7.77055C223.269 7.77055 226.531 9.21992 228.305 11.5185L225.407 14.2129C224.118 12.7635 221.667 11.8377 219.975 11.8377H219.65C217.837 11.876 216.547 12.5656 216.547 13.849C216.547 14.9791 217.39 15.458 219.886 15.6623L221.258 15.8219C225.324 16.1029 228.708 17.7118 228.708 22.1047C228.708 25.6866 225.605 28.4257 220.614 28.4257H220.409C216.464 28.4257 212.641 26.8933 210.949 24.5629L213.847 21.8237C215.054 23.2348 217.913 24.2819 220.371 24.2819H220.575C222.305 24.2819 223.595 23.6754 223.595 22.309C223.595 20.7383 222.388 20.336 220.135 20.1317L219.005 20.0104C214.217 19.6082 211.434 17.7182 211.434 14.1682C211.434 10.0627 215.137 7.80885 219.605 7.76416H219.931V7.77055Z" fill="white"/>
<path d="M23.1525 18.1202C23.1525 23.8347 18.5246 28.4318 12.8051 28.4318C7.0857 28.4318 2.49609 23.8411 2.49609 18.1202C2.49609 12.3993 7.0857 7.77026 12.8051 7.77026C18.5246 7.77026 23.1525 12.4057 23.1525 18.1202ZM7.61551 18.1202C7.61551 21.4212 10.1114 23.4771 12.8115 23.4771C15.467 23.4771 18.0075 21.4212 18.0075 18.1202C18.0075 14.8192 15.467 12.725 12.8115 12.725C10.1114 12.725 7.61551 14.8192 7.61551 18.1202Z" fill="white"/>
<path d="M22.4246 28.0742C19.8776 30.6729 16.3796 32.1478 12.7794 32.1478C9.24942 32.1478 5.87265 30.7814 3.36401 28.3552L0 31.969C3.35124 35.0785 7.82594 36.9875 12.7922 36.9875C17.8669 36.9875 22.4565 34.9827 25.8524 31.7519L22.4246 28.0742Z" fill="white"/>
<path d="M23.752 7.77026H13.2451V11.863H23.2159L23.752 7.77026Z" fill="white"/>
<path opacity="0.9" d="M154.746 5.00024H154.306C154.452 5.00024 154.599 5.0194 154.746 5.0194V5.00024Z" fill="#00AEEF"/>
<path d="M154.308 9.95483C153.881 9.95483 153.459 10.0251 153.051 10.1272C155.202 10.6699 157.002 12.5726 157.002 15.3501C157.002 18.1275 155.202 20.0047 153.051 20.5346C153.459 20.6368 153.881 20.707 154.308 20.707C156.964 20.707 159.504 18.6511 159.504 15.3501C159.504 12.0491 156.964 9.95483 154.308 9.95483Z" fill="#27AAE1"/>
<path d="M143.999 15.3502C143.999 9.63569 148.589 5.00024 154.308 5.00024H152.247V5.0194C152.1 5.01301 151.953 5.00024 151.806 5.00024C146.087 5.00024 141.497 9.6293 141.497 15.3502C141.497 21.0711 146.087 25.6618 151.806 25.6618C152.227 25.6618 152.649 25.6299 153.057 25.5788C147.938 24.9659 143.999 20.6433 143.999 15.3502Z" fill="#27AAE1"/>
<path d="M143.776 26.76C143.284 26.4024 142.805 26.0193 142.365 25.5916L139.001 29.2054C142.352 32.3149 146.827 34.2239 151.793 34.2239C152.208 34.2239 152.617 34.192 153.031 34.1601C148.576 33.8664 144.567 32.0403 141.503 29.199L143.776 26.76Z" fill="#27AAE1"/>
<path d="M162.549 26.5109L161.426 25.3042C159.166 27.6092 156.159 29.0266 152.993 29.3139C153.421 29.3522 153.849 29.3778 154.276 29.3778C157.27 29.3778 160.181 28.3498 162.549 26.5109Z" fill="#27AAE1"/>
<path opacity="0.9" d="M149.113 15.3496C149.113 12.5722 150.881 10.6695 153.051 10.1267C152.643 10.0246 152.228 9.95435 151.806 9.95435C149.106 9.95435 146.61 12.0486 146.61 15.3496C146.61 18.6506 149.106 20.7065 151.806 20.7065C152.228 20.7065 152.643 20.6363 153.051 20.5341C150.887 20.0042 149.113 18.127 149.113 15.3496Z" fill="#C8459C"/>
<path opacity="0.9" d="M165.256 4.99976H162.753L162.217 9.09248H160.04C161.362 10.8292 162.16 12.9937 162.16 15.3497C162.16 20.6428 158.189 24.9654 153.063 25.5783C153.472 25.6294 153.887 25.6613 154.315 25.6613C160.028 25.6613 164.662 21.0706 164.662 15.3497C164.662 12.9937 163.87 10.8292 162.543 9.09248H164.719L165.256 4.99976Z" fill="#C8459C"/>
<path opacity="0.9" d="M167.35 28.9878L163.922 25.3101C163.495 25.7506 163.022 26.1465 162.543 26.5168L164.841 28.9878C161.726 31.9568 157.603 33.8658 153.02 34.1659C153.441 34.1915 153.856 34.2298 154.283 34.2298C159.371 34.2234 163.954 32.2185 167.35 28.9878Z" fill="#C8459C"/>
<path opacity="0.9" d="M152.993 29.3135C149.936 29.0262 147.063 27.7173 144.861 25.5847L143.77 26.7532C146.068 28.4324 148.863 29.371 151.774 29.371C152.183 29.3774 152.591 29.3518 152.993 29.3135Z" fill="#C8459C"/>
<path opacity="0.9" d="M162.154 15.3497C162.154 12.9937 161.362 10.8292 160.034 9.09248H162.211L162.747 4.99976H154.743V5.01891C154.596 5.01253 154.449 4.99976 154.302 4.99976C148.583 4.99976 143.993 9.62881 143.993 15.3497C143.993 20.6428 147.925 24.9654 153.051 25.5783C158.183 24.9654 162.154 20.6428 162.154 15.3497ZM154.309 20.7066C153.881 20.7066 153.46 20.6364 153.051 20.5342C152.643 20.6364 152.228 20.7066 151.806 20.7066C149.106 20.7066 146.61 18.6507 146.61 15.3497C146.61 12.0487 149.106 9.95444 151.806 9.95444C152.228 9.95444 152.643 10.0247 153.051 10.1268C153.46 10.0247 153.881 9.95444 154.309 9.95444C156.964 9.95444 159.505 12.0487 159.505 15.3497C159.505 18.6507 156.964 20.7066 154.309 20.7066Z" fill="#6235AD"/>
<path opacity="0.9" d="M162.549 26.5105C160.187 28.3494 157.277 29.3773 154.283 29.3773C153.849 29.3773 153.421 29.3582 153 29.3135C152.598 29.3518 152.189 29.3773 151.781 29.3773C148.876 29.3773 146.08 28.4387 143.776 26.7595L141.497 29.1985C144.561 32.0398 148.57 33.8595 153.025 34.1596C157.609 33.8595 161.732 31.9504 164.847 28.9815L162.549 26.5105Z" fill="#6235AD"/>
</svg>
