<svg width="22" height="18" viewBox="0 0 22 18" fill="none" xmlns="http://www.w3.org/2000/svg">
<path d="M21.0113 0H0.778196C0.347756 0 0 0.365625 0 0.818182V17.1818C0 17.6344 0.347756 18 0.778196 18H21.0113C21.4417 18 21.7895 17.6344 21.7895 17.1818V0.818182C21.7895 0.365625 21.4417 0 21.0113 0ZM20.0385 2.83295V16.1591H1.75094V2.83295L1.07975 2.28324L2.03547 0.992046L3.0763 1.84347H18.7156L19.7564 0.992046L20.7122 2.28324L20.0385 2.83295V2.83295ZM18.7156 1.84091L10.8947 8.23295L3.07387 1.84091L2.03304 0.989489L1.07731 2.28068L1.74851 2.8304L10.0557 9.62131C10.2946 9.81644 10.5886 9.92237 10.8911 9.92237C11.1936 9.92237 11.4875 9.81644 11.7264 9.62131L20.0385 2.83295L20.7097 2.28324L19.754 0.992046L18.7156 1.84091Z" fill="white"/>
</svg>
