<svg width="343" height="318" viewBox="0 0 343 318" fill="none" xmlns="http://www.w3.org/2000/svg">
<path d="M93.2896 77.4198C93.266 79.1466 91.842 80.5219 90.1094 80.4911C88.3768 80.4603 86.9936 79.0364 87.0172 77.3095C87.0408 75.5827 88.4648 74.2074 90.1973 74.2382C91.9282 74.2666 93.3156 75.6913 93.2896 77.4198Z" fill="white"/>
<path d="M92.6978 110.092C92.6742 111.819 91.2502 113.194 89.5176 113.163C87.785 113.133 86.4017 111.709 86.4254 109.982C86.449 108.255 87.8729 106.879 89.6055 106.91C91.3364 106.939 92.7238 108.363 92.6978 110.092Z" fill="white"/>
<path d="M92.1061 142.763C92.0824 144.49 90.6584 145.866 88.9258 145.835C87.1932 145.804 85.8099 144.38 85.8336 142.653C85.8572 140.926 87.2812 139.551 89.0138 139.582C90.7464 139.613 92.1297 141.036 92.1061 142.763Z" fill="white"/>
<path d="M91.514 175.435C91.4904 177.162 90.0664 178.537 88.3339 178.506C86.6014 178.475 85.2181 177.052 85.2417 175.325C85.2654 173.598 86.6893 172.223 88.4218 172.253C90.1544 172.284 91.54 173.706 91.514 175.435Z" fill="white"/>
<path d="M90.9232 208.11C90.8996 209.837 89.4757 211.212 87.7431 211.181C86.0106 211.15 84.6273 209.726 84.6509 207.999C84.6745 206.273 86.0984 204.897 87.8309 204.928C89.5617 204.957 90.9491 206.381 90.9232 208.11Z" fill="white"/>
<path d="M90.3304 240.78C90.3069 242.507 88.8829 243.882 87.1504 243.851C85.4178 243.821 84.0345 242.397 84.0581 240.67C84.0817 238.943 85.5057 237.568 87.2382 237.598C88.9707 237.629 90.354 239.053 90.3304 240.78Z" fill="white"/>
<path d="M126.322 77.3982C126.298 79.1251 124.874 80.5004 123.142 80.4696C121.409 80.4387 120.026 79.0148 120.049 77.2879C120.073 75.561 121.497 74.1857 123.23 74.2165C124.962 74.2474 126.345 75.6713 126.322 77.3982Z" fill="white"/>
<path d="M125.732 110.072C125.708 111.799 124.284 113.175 122.552 113.144C120.819 113.113 119.436 111.689 119.46 109.962C119.483 108.235 120.907 106.86 122.64 106.891C124.371 106.919 125.756 108.346 125.732 110.072Z" fill="white"/>
<path d="M125.14 142.744C125.117 144.471 123.693 145.846 121.96 145.816C120.227 145.785 118.844 144.361 118.868 142.634C118.891 140.907 120.315 139.532 122.048 139.563C123.779 139.591 125.164 141.017 125.14 142.744Z" fill="white"/>
<path d="M124.549 175.417C124.525 177.144 123.101 178.519 121.37 178.491C119.638 178.46 118.254 177.036 118.278 175.309C118.302 173.582 119.726 172.207 121.458 172.238C123.189 172.266 124.572 173.69 124.549 175.417Z" fill="white"/>
<path d="M123.956 208.088C123.932 209.815 122.508 211.19 120.775 211.159C119.043 211.129 117.66 209.705 117.683 207.978C117.707 206.251 119.131 204.876 120.863 204.906C122.596 204.937 123.979 206.361 123.956 208.088Z" fill="white"/>
<path d="M123.365 240.761C123.342 242.488 121.918 243.863 120.185 243.832C118.452 243.801 117.069 242.378 117.093 240.651C117.116 238.924 118.54 237.549 120.271 237.577C122.004 237.608 123.389 239.034 123.365 240.761Z" fill="white"/>
<path d="M159.353 77.3816C159.329 79.1085 157.905 80.4838 156.174 80.4554C154.442 80.4246 153.058 79.0007 153.082 77.2738C153.106 75.5469 154.53 74.1716 156.26 74.2C157.991 74.2284 159.376 75.6547 159.353 77.3816Z" fill="white"/>
<path d="M158.76 110.054C158.737 111.78 157.313 113.156 155.582 113.127C153.849 113.096 152.466 111.673 152.49 109.946C152.513 108.219 153.937 106.844 155.67 106.874C157.401 106.903 158.784 108.327 158.76 110.054Z" fill="white"/>
<path d="M158.169 142.725C158.145 144.452 156.721 145.827 154.99 145.799C153.258 145.768 151.874 144.344 151.898 142.618C151.922 140.891 153.346 139.515 155.078 139.546C156.809 139.575 158.193 140.998 158.169 142.725Z" fill="white"/>
<path d="M157.578 175.4C157.554 177.127 156.13 178.502 154.398 178.471C152.665 178.44 151.282 177.016 151.306 175.289C151.329 173.563 152.753 172.187 154.484 172.216C156.217 172.246 157.602 173.673 157.578 175.4Z" fill="white"/>
<path d="M156.987 208.072C156.963 209.798 155.539 211.174 153.808 211.145C152.075 211.115 150.692 209.691 150.716 207.964C150.739 206.237 152.163 204.862 153.894 204.89C155.627 204.921 157.01 206.345 156.987 208.072Z" fill="white"/>
<path d="M156.394 240.742C156.37 242.469 154.946 243.844 153.215 243.816C151.483 243.785 150.099 242.361 150.123 240.634C150.147 238.907 151.57 237.532 153.301 237.56C155.034 237.591 156.417 239.015 156.394 240.742Z" fill="white"/>
<path d="M192.386 77.363C192.362 79.0899 190.939 80.4652 189.206 80.4343C187.474 80.4035 186.09 78.9796 186.114 77.2527C186.137 75.5258 187.561 74.1505 189.294 74.1813C191.025 74.2097 192.41 75.6361 192.386 77.363Z" fill="white"/>
<path d="M191.795 110.034C191.771 111.761 190.347 113.137 188.614 113.106C186.882 113.075 185.498 111.651 185.522 109.924C185.546 108.197 186.97 106.822 188.702 106.853C190.433 106.881 191.818 108.308 191.795 110.034Z" fill="white"/>
<path d="M191.203 142.706C191.179 144.433 189.755 145.808 188.023 145.777C186.29 145.746 184.907 144.323 184.931 142.596C184.954 140.869 186.378 139.494 188.109 139.522C189.843 139.555 191.227 140.979 191.203 142.706Z" fill="white"/>
<path d="M190.611 175.378C190.587 177.105 189.163 178.48 187.432 178.452C185.699 178.421 184.316 176.997 184.34 175.27C184.363 173.544 185.787 172.168 187.518 172.197C189.251 172.227 190.634 173.651 190.611 175.378Z" fill="white"/>
<path d="M190.021 208.052C189.997 209.779 188.573 211.154 186.842 211.126C185.11 211.095 183.726 209.671 183.75 207.944C183.774 206.217 185.198 204.842 186.928 204.87C188.659 204.899 190.044 206.325 190.021 208.052Z" fill="white"/>
<path d="M189.427 240.723C189.404 242.45 187.98 243.825 186.247 243.795C184.514 243.764 183.131 242.34 183.155 240.613C183.178 238.886 184.602 237.511 186.335 237.542C188.067 237.573 189.451 238.996 189.427 240.723Z" fill="white"/>
<path d="M225.416 77.3435C225.392 79.0704 223.968 80.4457 222.235 80.4149C220.503 80.3841 219.119 78.9603 219.143 77.2334C219.167 75.5065 220.591 74.1312 222.323 74.162C224.056 74.1928 225.439 75.6166 225.416 77.3435Z" fill="white"/>
<path d="M224.826 110.018C224.802 111.745 223.378 113.12 221.646 113.089C219.913 113.058 218.53 111.634 218.553 109.908C218.577 108.181 220.001 106.805 221.734 106.836C223.464 106.865 224.848 108.288 224.826 110.018Z" fill="white"/>
<path d="M224.234 142.69C224.21 144.417 222.786 145.792 221.054 145.761C219.321 145.73 217.938 144.306 217.961 142.579C217.985 140.853 219.409 139.477 221.142 139.508C222.873 139.536 224.258 140.963 224.234 142.69Z" fill="white"/>
<path d="M223.642 175.361C223.619 177.088 222.195 178.463 220.462 178.432C218.729 178.401 217.346 176.977 217.37 175.251C217.393 173.524 218.817 172.149 220.55 172.179C222.282 172.21 223.666 173.634 223.642 175.361Z" fill="white"/>
<path d="M223.05 208.033C223.026 209.76 221.602 211.135 219.87 211.104C218.137 211.073 216.754 209.65 216.777 207.923C216.801 206.196 218.225 204.82 219.956 204.849C221.69 204.882 223.073 206.306 223.05 208.033Z" fill="white"/>
<path d="M222.459 240.706C222.435 242.432 221.011 243.808 219.279 243.777C217.546 243.746 216.163 242.322 216.186 240.595C216.21 238.869 217.634 237.493 219.365 237.522C221.097 237.553 222.482 238.979 222.459 240.706Z" fill="white"/>
<path d="M258.449 77.3249C258.425 79.0518 257.001 80.4271 255.271 80.3987C253.538 80.3678 252.155 78.9439 252.178 77.217C252.202 75.4902 253.626 74.1149 255.358 74.1457C257.088 74.1717 258.473 75.598 258.449 77.3249Z" fill="white"/>
<path d="M257.858 109.996C257.834 111.723 256.41 113.098 254.679 113.07C252.947 113.039 251.563 111.615 251.587 109.888C251.611 108.161 253.034 106.786 254.765 106.814C256.498 106.845 257.881 108.269 257.858 109.996Z" fill="white"/>
<path d="M257.265 142.668C257.241 144.395 255.817 145.77 254.086 145.742C252.354 145.711 250.97 144.287 250.994 142.56C251.018 140.833 252.442 139.458 254.173 139.486C255.905 139.517 257.288 140.941 257.265 142.668Z" fill="white"/>
<path d="M256.675 175.343C256.652 177.07 255.228 178.445 253.497 178.417C251.764 178.386 250.381 176.962 250.404 175.235C250.428 173.508 251.852 172.133 253.583 172.161C255.314 172.189 256.699 173.616 256.675 175.343Z" fill="white"/>
<path d="M256.081 208.016C256.058 209.743 254.634 211.118 252.903 211.09C251.17 211.059 249.787 209.635 249.811 207.908C249.834 206.181 251.258 204.806 252.989 204.834C254.724 204.864 256.107 206.288 256.081 208.016Z" fill="white"/>
<path d="M255.49 240.684C255.467 242.411 254.043 243.787 252.312 243.758C250.579 243.728 249.196 242.304 249.219 240.577C249.243 238.85 250.667 237.474 252.4 237.505C254.13 237.533 255.514 238.957 255.49 240.684Z" fill="white"/>
</svg>
