<svg width="168" height="287" viewBox="0 0 168 287" fill="none" xmlns="http://www.w3.org/2000/svg">
<path d="M7.22506 0.658297L-7 16.7999V23.8798L13.4619 0.660897C11.382 0.627084 9.3021 0.616682 7.22506 0.658297Z" fill="#B22F86"/>
<path d="M24.7385 1.20215L-7 37.2177V44.2975L30.4868 1.75875C28.5727 1.53767 26.6556 1.35821 24.7385 1.20215Z" fill="#B22F86"/>
<path d="M40.8692 3.31104L-7 57.6322V64.712L46.2175 4.32541C44.4405 3.94827 42.6549 3.63095 40.8692 3.31104Z" fill="#B22F86"/>
<path d="M55.8714 6.70483L-7 78.0493V85.1292L60.8597 8.12496C59.2055 7.61257 57.537 7.1626 55.8714 6.70483Z" fill="#B22F86"/>
<path d="M69.8793 11.2261L-7 98.465V105.545L74.542 13.0155C72.9992 12.3861 71.4392 11.8061 69.8793 11.2261Z" fill="#B22F86"/>
<path d="M82.9958 16.7588L-7 118.883V125.963L87.3356 18.915C85.8957 18.1763 84.4529 17.4506 82.9958 16.7588Z" fill="#B22F86"/>
<path d="M95.2724 23.2444L-7 139.297V146.377L99.3122 25.7361C97.9694 24.896 96.6324 24.0429 95.2724 23.2444Z" fill="#B22F86"/>
<path d="M108.658 32.0132C108.02 31.5477 107.363 31.1237 106.72 30.6711L-7 159.715V166.795L110.517 33.4438C109.889 32.9704 109.292 32.4762 108.658 32.0132Z" fill="#B22F86"/>
<path d="M117.409 38.9556L-7 180.131V187.211L120.96 42.0065C119.808 40.9713 118.603 39.9673 117.409 38.9556Z" fill="#B22F86"/>
<path d="M127.325 48.1211L-7 200.548V207.628L130.577 51.5102C129.519 50.3657 128.428 49.2395 127.325 48.1211Z" fill="#B22F86"/>
<path d="M136.422 58.2122L-7 220.962V228.042L139.353 61.9654C138.393 60.7065 137.433 59.4476 136.422 58.2122Z" fill="#B22F86"/>
<path d="M144.636 69.3105L-7 241.38V248.46L147.239 73.4357C146.384 72.0546 145.542 70.6709 144.636 69.3105Z" fill="#B22F86"/>
<path d="M151.884 81.502L-7 261.796V268.875L154.13 86.0328C153.401 84.5165 152.673 82.9975 151.884 81.502Z" fill="#B22F86"/>
<path d="M159.889 99.9104C159.304 98.2406 158.698 96.576 158.047 94.9218L-7 282.212V285.193C-5.89148 285.302 -4.78296 285.424 -3.67158 285.515L159.889 99.9104Z" fill="#B22F86"/>
<path d="M164.269 115.358C163.863 113.503 163.401 111.657 162.912 109.818L7.60498 286.054C9.68488 286.088 11.7619 286.098 13.8418 286.059L164.269 115.358Z" fill="#B22F86"/>
<path d="M33.1295 284.587L166.875 132.819C166.703 130.704 166.486 128.597 166.212 126.493L26.2041 285.37C28.5183 285.157 30.8267 284.892 33.1295 284.587Z" fill="#B22F86"/>
<path d="M166.944 153.158C167.129 150.672 167.238 148.185 167.281 145.696L47.0234 282.158C49.6833 281.581 52.3261 280.944 54.9516 280.241L166.944 153.158Z" fill="#B22F86"/>
<path d="M162.458 178.663C163.367 175.417 164.189 172.16 164.841 168.881L71.3594 274.958C74.7335 273.668 78.0505 272.23 81.3332 270.721L162.458 178.663Z" fill="#B22F86"/>
<path d="M104.712 257.527C114.969 250.504 124.44 242.22 132.839 232.687C141.239 223.155 148.07 212.941 153.375 202.303L104.712 257.527Z" fill="#B22F86"/>
</svg>
