<svg width="193" height="176" viewBox="0 0 193 176" fill="none" xmlns="http://www.w3.org/2000/svg">
<path d="M83.445 4.23121C82.6143 5.26978 81.0171 5.4969 79.8779 4.73837C78.7387 3.97984 78.4896 2.52452 79.3202 1.48595C80.1509 0.447381 81.7481 0.220266 82.8873 0.978796C84.0265 1.73512 84.278 3.19264 83.445 4.23121Z" fill="#462B76"/>
<path d="M67.679 23.9285C66.8483 24.9672 65.251 25.1943 64.1118 24.4357C62.9726 23.6771 62.7234 22.2216 63.5541 21.183C64.3848 20.1443 65.982 19.9171 67.1212 20.6757C68.2604 21.4321 68.512 22.8898 67.679 23.9285Z" fill="#462B76"/>
<path d="M51.9134 43.6258C51.0827 44.6644 49.4855 44.8916 48.3462 44.133C47.207 43.3744 46.9578 41.919 47.7885 40.8804C48.6192 39.8418 50.2164 39.6147 51.3557 40.3732C52.4949 41.1318 52.7441 42.5872 51.9134 43.6258Z" fill="#462B76"/>
<path d="M36.1471 63.3227C35.3165 64.3613 33.7192 64.5885 32.5801 63.8299C31.4409 63.0713 31.1917 61.6159 32.0224 60.5773C32.853 59.5387 34.4503 59.3116 35.5894 60.0701C36.7286 60.8287 36.9802 62.2841 36.1471 63.3227Z" fill="#462B76"/>
<path d="M20.3814 83.0222C19.5508 84.0608 17.9536 84.2879 16.8144 83.5294C15.6752 82.7708 15.4261 81.3154 16.2567 80.2768C17.0874 79.2381 18.6845 79.011 19.8237 79.7696C20.9628 80.526 21.2144 81.9836 20.3814 83.0222Z" fill="#462B76"/>
<path d="M4.61536 102.718C3.78472 103.757 2.1875 103.984 1.04834 103.225C-0.0908273 102.467 -0.340043 101.011 0.490599 99.9726C1.32124 98.9339 2.91845 98.7068 4.05762 99.4654C5.19678 100.224 5.446 101.679 4.61536 102.718Z" fill="#462B76"/>
<path d="M105.156 18.6721C104.325 19.7107 102.728 19.9378 101.589 19.1793C100.45 18.4208 100.2 16.9654 101.031 15.9269C101.862 14.8883 103.459 14.6612 104.598 15.4197C105.737 16.1782 105.987 17.6336 105.156 18.6721Z" fill="#462B76"/>
<path d="M89.39 38.3719C88.5593 39.4105 86.962 39.6377 85.8228 38.8791C84.6836 38.1205 84.4344 36.6651 85.265 35.6264C86.0957 34.5878 87.693 34.3606 88.8322 35.1192C89.9714 35.8756 90.2207 37.3332 89.39 38.3719Z" fill="#462B76"/>
<path d="M73.6244 58.0689C72.7937 59.1076 71.1964 59.3347 70.0572 58.5761C68.918 57.8175 68.6687 56.3621 69.4994 55.3235C70.3301 54.2849 71.9274 54.0578 73.0666 54.8163C74.2058 55.5727 74.455 57.0303 73.6244 58.0689Z" fill="#462B76"/>
<path d="M57.8582 77.7659C57.0275 78.8045 55.4302 79.0316 54.291 78.2752C53.1518 77.5167 52.9026 76.0613 53.7333 75.0227C54.564 73.9841 56.1613 73.757 57.3005 74.5156C58.4397 75.2719 58.6889 76.7273 57.8582 77.7659Z" fill="#462B76"/>
<path d="M42.0919 97.463C41.2613 98.5016 39.664 98.7287 38.5249 97.9702C37.3857 97.2116 37.1365 95.7562 37.9672 94.7176C38.7978 93.6789 40.395 93.4518 41.5342 94.2104C42.6733 94.969 42.9226 96.4244 42.0919 97.463Z" fill="#462B76"/>
<path d="M26.3265 117.161C25.4958 118.2 23.8985 118.427 22.7593 117.668C21.6201 116.91 21.3709 115.454 22.2016 114.416C23.0322 113.377 24.6295 113.15 25.7687 113.906C26.9079 114.665 27.1571 116.122 26.3265 117.161Z" fill="#462B76"/>
<path d="M126.865 33.1156C126.034 34.1542 124.437 34.3813 123.298 33.625C122.159 32.8664 121.909 31.411 122.74 30.3724C123.571 29.3337 125.168 29.1066 126.307 29.863C127.446 30.6193 127.696 32.0769 126.865 33.1156Z" fill="#462B76"/>
<path d="M111.099 52.813C110.268 53.8516 108.671 54.0787 107.532 53.3223C106.393 52.5638 106.143 51.1084 106.974 50.0697C107.805 49.0311 109.402 48.804 110.541 49.5626C111.68 50.3189 111.929 51.7743 111.099 52.813Z" fill="#462B76"/>
<path d="M95.3334 72.5101C94.5027 73.5487 92.9054 73.7759 91.7662 73.0195C90.6269 72.2609 90.3777 70.8054 91.2084 69.7668C92.0391 68.7281 93.6364 68.501 94.7756 69.2596C95.9148 70.016 96.164 71.4714 95.3334 72.5101Z" fill="#462B76"/>
<path d="M79.567 92.209C78.7363 93.2476 77.1392 93.4747 76 92.7161C74.8608 91.9576 74.6116 90.5022 75.4423 89.4636C76.2729 88.425 77.8701 88.1979 79.0093 88.9543C80.1485 89.7128 80.3976 91.1704 79.567 92.209Z" fill="#462B76"/>
<path d="M63.8009 111.906C62.9703 112.945 61.373 113.172 60.2339 112.416C59.0947 111.657 58.8455 110.202 59.6762 109.163C60.5068 108.125 62.1041 107.898 63.2432 108.654C64.3824 109.413 64.6316 110.868 63.8009 111.906Z" fill="#462B76"/>
<path d="M48.0352 131.602C47.2046 132.641 45.6074 132.868 44.4682 132.112C43.3291 131.353 43.0799 129.898 43.9105 128.859C44.7411 127.82 46.3383 127.593 47.4775 128.35C48.6166 129.108 48.8659 130.564 48.0352 131.602Z" fill="#462B76"/>
<path d="M148.576 47.5589C147.745 48.5975 146.148 48.8247 145.009 48.0661C143.87 47.3075 143.62 45.8521 144.451 44.8135C145.282 43.7749 146.879 43.5478 148.018 44.3063C149.157 45.0627 149.406 46.5203 148.576 47.5589Z" fill="#462B76"/>
<path d="M132.81 67.256C131.979 68.2947 130.382 68.5218 129.243 67.7632C128.103 67.0046 127.854 65.5492 128.685 64.5106C129.516 63.4719 131.113 63.2448 132.252 64.0034C133.391 64.7598 133.64 66.2174 132.81 67.256Z" fill="#462B76"/>
<path d="M117.044 86.9527C116.214 87.9913 114.616 88.2185 113.477 87.4599C112.338 86.7013 112.089 85.2459 112.919 84.2073C113.75 83.1687 115.347 82.9416 116.486 83.6979C117.626 84.4587 117.875 85.9141 117.044 86.9527Z" fill="#462B76"/>
<path d="M101.278 106.65C100.447 107.689 98.8502 107.916 97.711 107.16C96.5718 106.401 96.3225 104.946 97.1532 103.907C97.9839 102.868 99.5812 102.641 100.72 103.398C101.86 104.156 102.109 105.612 101.278 106.65Z" fill="#462B76"/>
<path d="M85.512 126.35C84.6813 127.388 83.084 127.616 81.9448 126.859C80.8056 126.101 80.5564 124.645 81.3871 123.606C82.2178 122.568 83.8151 122.34 84.9543 123.097C86.0935 123.853 86.3427 125.311 85.512 126.35Z" fill="#462B76"/>
<path d="M69.7462 146.046C68.9156 147.084 67.3183 147.311 66.1792 146.553C65.04 145.794 64.7908 144.339 65.6215 143.3C66.4521 142.261 68.0493 142.034 69.1885 142.793C70.3276 143.551 70.5769 145.007 69.7462 146.046Z" fill="#462B76"/>
<path d="M170.285 62C169.454 63.0386 167.857 63.2657 166.717 62.5071C165.578 61.7486 165.329 60.2932 166.16 59.2546C166.99 58.2159 168.588 57.9888 169.727 58.7474C170.866 59.5059 171.115 60.9613 170.285 62Z" fill="#462B76"/>
<path d="M154.518 81.6995C153.688 82.738 152.09 82.9652 150.951 82.2066C149.812 81.4481 149.563 79.9927 150.393 78.9541C151.224 77.9155 152.821 77.6884 153.961 78.4469C155.1 79.2033 155.349 80.6586 154.518 81.6995Z" fill="#462B76"/>
<path d="M138.753 101.396C137.922 102.435 136.325 102.662 135.186 101.903C134.046 101.145 133.797 99.6896 134.628 98.651C135.458 97.6124 137.056 97.3853 138.195 98.1438C139.334 98.9002 139.583 100.358 138.753 101.396Z" fill="#462B76"/>
<path d="M122.986 121.094C122.156 122.132 120.559 122.359 119.419 121.601C118.28 120.842 118.031 119.387 118.862 118.348C119.692 117.309 121.29 117.082 122.429 117.841C123.568 118.599 123.817 120.055 122.986 121.094Z" fill="#462B76"/>
<path d="M107.221 140.791C106.39 141.829 104.793 142.056 103.654 141.298C102.515 140.539 102.265 139.084 103.096 138.045C103.927 137.007 105.524 136.779 106.663 137.536C107.802 138.297 108.051 139.752 107.221 140.791Z" fill="#462B76"/>
<path d="M91.4546 160.489C90.624 161.527 89.0268 161.755 87.8876 160.996C86.7485 160.238 86.4993 158.782 87.33 157.744C88.1606 156.705 89.7578 156.478 90.897 157.234C92.0361 157.993 92.2853 159.45 91.4546 160.489Z" fill="#462B76"/>
<path d="M191.995 76.4435C191.165 77.4822 189.567 77.7093 188.428 76.9529C187.289 76.1943 187.04 74.7388 187.87 73.7002C188.701 72.6615 190.298 72.4343 191.438 73.193C192.577 73.9472 192.826 75.4048 191.995 76.4435Z" fill="#462B76"/>
<path d="M176.229 96.1402C175.399 97.1789 173.801 97.406 172.662 96.6496C171.523 95.891 171.274 94.4356 172.104 93.397C172.935 92.3584 174.532 92.1312 175.672 92.8876C176.811 93.6462 177.06 95.1016 176.229 96.1402Z" fill="#462B76"/>
<path d="M160.464 115.837C159.633 116.876 158.036 117.103 156.897 116.347C155.757 115.588 155.508 114.133 156.339 113.094C157.169 112.056 158.767 111.829 159.906 112.585C161.045 113.343 161.294 114.799 160.464 115.837Z" fill="#462B76"/>
<path d="M144.698 135.537C143.867 136.575 142.27 136.802 141.13 136.046C139.991 135.288 139.742 133.832 140.573 132.793C141.403 131.755 143.001 131.528 144.14 132.284C145.279 133.04 145.528 134.498 144.698 135.537Z" fill="#462B76"/>
<path d="M128.929 155.234C128.099 156.273 126.501 156.5 125.362 155.743C124.223 154.985 123.974 153.53 124.805 152.491C125.635 151.452 127.232 151.225 128.372 151.981C129.513 152.74 129.762 154.195 128.929 155.234Z" fill="#462B76"/>
<path d="M113.166 174.93C112.335 175.968 110.738 176.196 109.599 175.439C108.459 174.681 108.21 173.225 109.041 172.187C109.872 171.148 111.469 170.921 112.608 171.68C113.747 172.436 113.996 173.891 113.166 174.93Z" fill="#462B76"/>
</svg>
