<svg width="108" height="210" viewBox="0 0 108 210" fill="none" xmlns="http://www.w3.org/2000/svg">
<path d="M104.695 0.420166L128.007 26.9158V32.1242L100.473 0.829645C101.879 0.667002 103.287 0.534973 104.695 0.420166Z" fill="#27AAE1"/>
<path d="M92.8475 1.97156L128.007 41.9341V47.1426L88.9192 2.71781C90.2245 2.44035 91.536 2.20691 92.8475 1.97156Z" fill="#27AAE1"/>
<path d="M81.8286 4.46826L128.007 56.9544V62.1629L78.1647 5.51301C79.3797 5.13606 80.6052 4.80503 81.8286 4.46826Z" fill="#27AAE1"/>
<path d="M71.54 7.79443L128.007 71.9737V77.1821L68.1153 9.11089C69.2485 8.64784 70.3942 8.22113 71.54 7.79443Z" fill="#27AAE1"/>
<path d="M61.9061 11.8645L128.007 86.9945V92.2029L58.7185 13.4508C59.7761 12.9073 60.8359 12.3735 61.9061 11.8645Z" fill="#27AAE1"/>
<path d="M52.8891 16.636L128.007 102.013V107.221L49.9219 18.4691C50.9081 17.851 51.8902 17.2234 52.8891 16.636Z" fill="#27AAE1"/>
<path d="M43.0579 23.087C43.5258 22.7444 44.0085 22.4326 44.4806 22.0996L128.007 117.034V122.242L41.6918 24.1394C42.1535 23.7911 42.592 23.4275 43.0579 23.087Z" fill="#27AAE1"/>
<path d="M36.6304 28.1942L128.007 132.053V137.261L34.022 30.4387C34.8677 29.6771 35.7532 28.9385 36.6304 28.1942Z" fill="#27AAE1"/>
<path d="M29.3467 34.937L128.007 147.073V152.282L26.9587 37.4302C27.7351 36.5883 28.5367 35.7598 29.3467 34.937Z" fill="#27AAE1"/>
<path d="M22.6652 42.3607L128.007 162.091V167.3L20.5123 45.1218C21.2173 44.1957 21.9224 43.2696 22.6652 42.3607Z" fill="#27AAE1"/>
<path d="M16.6323 50.5255L128.007 177.112V182.321L14.7206 53.5603C15.348 52.5442 15.9671 51.5263 16.6323 50.5255Z" fill="#27AAE1"/>
<path d="M11.3085 59.4943L128.007 192.131V197.34L9.65916 62.8275C10.1943 61.712 10.7294 60.5945 11.3085 59.4943Z" fill="#27AAE1"/>
<path d="M5.4287 73.037C5.85887 71.8085 6.30374 70.5839 6.78219 69.3669L128.007 207.151V209.344C127.193 209.424 126.378 209.514 125.562 209.581L5.4287 73.037Z" fill="#27AAE1"/>
<path d="M2.21149 84.4012C2.50947 83.0369 2.84941 81.6784 3.20824 80.3256L117.279 209.978C115.752 210.003 114.226 210.01 112.698 209.981L2.21149 84.4012Z" fill="#27AAE1"/>
<path d="M98.5325 208.899L0.298347 97.2465C0.424255 95.6909 0.58374 94.141 0.785187 92.593L103.619 209.475C101.919 209.318 100.224 209.122 98.5325 208.899Z" fill="#27AAE1"/>
<path d="M0.247292 112.21C0.110893 110.381 0.0311584 108.551 -0.000320435 106.72L88.3271 207.112C86.3735 206.687 84.4324 206.218 82.504 205.701L0.247292 112.21Z" fill="#27AAE1"/>
<path d="M3.54233 130.973C2.87502 128.585 2.27068 126.189 1.79224 123.776L70.4531 201.815C67.9749 200.866 65.5386 199.808 63.1275 198.698L3.54233 130.973Z" fill="#27AAE1"/>
<path d="M45.9561 188.991C38.4227 183.824 31.4663 177.73 25.2969 170.717C19.1275 163.704 14.1102 156.19 10.2134 148.364L45.9561 188.991Z" fill="#27AAE1"/>
</svg>
