<svg width="281" height="416" viewBox="0 0 281 416" fill="none" xmlns="http://www.w3.org/2000/svg">
<path d="M-1.54165 101.422C-1.57244 103.676 -3.43157 105.472 -5.69368 105.432C-7.95578 105.391 -9.76184 103.532 -9.73106 101.278C-9.70028 99.0229 -7.84115 97.2273 -5.57904 97.2676C-3.31693 97.3079 -1.51087 99.1671 -1.54165 101.422Z" fill="white"/>
<path d="M-2.31149 144.082C-2.34229 146.337 -4.20147 148.133 -6.46361 148.092C-8.72575 148.052 -10.5319 146.193 -10.5011 143.938C-10.4703 141.683 -8.61111 139.888 -6.34897 139.928C-4.08908 139.965 -2.28069 141.827 -2.31149 144.082Z" fill="white"/>
<path d="M41.5845 101.4C41.5537 103.655 39.6946 105.45 37.4347 105.413C35.1726 105.373 33.3666 103.514 33.3974 101.259C33.4281 99.0045 35.2873 97.209 37.5471 97.2461C39.807 97.2832 41.6153 99.1455 41.5845 101.4Z" fill="white"/>
<path d="M40.812 144.057C40.7813 146.312 38.9222 148.108 36.6623 148.071C34.4002 148.03 32.5941 146.171 32.6249 143.916C32.6557 141.662 34.5147 139.866 36.7768 139.907C39.0367 139.944 40.8428 141.803 40.812 144.057Z" fill="white"/>
<path d="M40.0393 186.715C40.0085 188.969 38.1493 190.765 35.8894 190.728C33.6273 190.688 31.8211 188.829 31.8519 186.574C31.8827 184.319 33.7419 182.524 36.0041 182.564C38.264 182.601 40.0701 184.46 40.0393 186.715Z" fill="white"/>
<path d="M39.2682 229.375C39.2374 231.63 37.3784 233.425 35.1164 233.385C32.8543 233.345 31.0482 231.486 31.0789 229.231C31.1097 226.976 32.9688 225.181 35.2286 225.218C37.4907 225.258 39.299 227.12 39.2682 229.375Z" fill="white"/>
<path d="M38.4955 272.032C38.4648 274.286 36.6057 276.082 34.3458 276.045C32.0837 276.005 30.2777 274.145 30.3085 271.891C30.3393 269.636 32.1984 267.841 34.4582 267.878C36.7203 267.918 38.5263 269.777 38.4955 272.032Z" fill="white"/>
<path d="M37.7211 314.688C37.6904 316.942 35.8313 318.738 33.5715 318.701C31.3094 318.66 29.5033 316.801 29.534 314.546C29.5648 312.292 31.4238 310.496 33.6836 310.533C35.9457 310.574 37.7518 312.433 37.7211 314.688Z" fill="white"/>
<path d="M84.7141 101.375C84.6833 103.63 82.8243 105.426 80.5622 105.385C78.3001 105.345 76.494 103.486 76.5248 101.231C76.5555 98.9765 78.4146 97.1809 80.6767 97.2212C82.9365 97.2584 84.7448 99.1207 84.7141 101.375Z" fill="white"/>
<path d="M83.9417 144.033C83.911 146.287 82.0518 148.083 79.7897 148.043C77.5276 148.002 75.7216 146.143 75.7523 143.889C75.7831 141.634 77.6423 139.838 79.9044 139.879C82.1642 139.916 83.9725 141.778 83.9417 144.033Z" fill="white"/>
<path d="M83.1688 186.689C83.138 188.944 81.2789 190.74 79.0168 190.699C76.7547 190.659 74.9485 188.8 74.9794 186.545C75.0102 184.291 76.8693 182.495 79.1292 182.532C81.3935 182.576 83.1996 184.435 83.1688 186.689Z" fill="white"/>
<path d="M82.3961 229.347C82.3653 231.602 80.5062 233.397 78.2463 233.36C75.9842 233.32 74.1781 231.461 74.2089 229.206C74.2397 226.951 76.0988 225.156 78.3587 225.193C80.6208 225.233 82.4269 227.092 82.3961 229.347Z" fill="white"/>
<path d="M81.6251 272.007C81.5943 274.262 79.7351 276.058 77.4753 276.02C75.2131 275.98 73.4071 274.121 73.4379 271.866C73.4687 269.611 75.3278 267.816 77.5877 267.853C79.8476 267.89 81.6559 269.752 81.6251 272.007Z" fill="white"/>
<path d="M80.8508 314.663C80.82 316.917 78.9609 318.713 76.6988 318.673C74.4367 318.632 72.6307 316.773 72.6615 314.518C72.6923 312.264 74.5513 310.468 76.8134 310.509C79.0754 310.549 80.8815 312.408 80.8508 314.663Z" fill="white"/>
<path d="M127.839 101.35C127.808 103.605 125.949 105.4 123.687 105.36C121.425 105.32 119.619 103.461 119.649 101.206C119.68 98.9512 121.539 97.1556 123.801 97.1959C126.064 97.2361 127.87 99.0952 127.839 101.35Z" fill="white"/>
<path d="M127.068 144.011C127.037 146.265 125.178 148.061 122.916 148.021C120.654 147.981 118.848 146.121 118.879 143.867C118.91 141.612 120.769 139.816 123.031 139.857C125.291 139.894 127.097 141.753 127.068 144.011Z" fill="white"/>
<path d="M126.295 186.668C126.265 188.923 124.405 190.718 122.143 190.678C119.881 190.638 118.075 188.779 118.106 186.524C118.137 184.269 119.996 182.474 122.258 182.514C124.518 182.551 126.326 184.413 126.295 186.668Z" fill="white"/>
<path d="M125.522 229.325C125.491 231.579 123.632 233.375 121.37 233.334C119.108 233.294 117.302 231.435 117.333 229.18C117.364 226.926 119.223 225.13 121.485 225.17C123.747 225.211 125.553 227.07 125.522 229.325Z" fill="white"/>
<path d="M124.749 271.982C124.718 274.237 122.859 276.032 120.597 275.992C118.335 275.952 116.529 274.093 116.56 271.838C116.591 269.583 118.45 267.788 120.71 267.825C122.974 267.868 124.78 269.728 124.749 271.982Z" fill="white"/>
<path d="M123.977 314.64C123.946 316.895 122.087 318.69 119.825 318.65C117.563 318.61 115.757 316.751 115.788 314.496C115.819 312.241 117.678 310.446 119.938 310.483C122.2 310.523 124.008 312.386 123.977 314.64Z" fill="white"/>
<path d="M170.968 101.326C170.937 103.581 169.078 105.376 166.818 105.339C164.556 105.299 162.75 103.44 162.781 101.185C162.811 98.9302 164.67 97.1346 166.933 97.1749C169.19 97.2089 170.998 99.0713 170.968 101.326Z" fill="white"/>
<path d="M170.195 143.982C170.164 146.237 168.305 148.033 166.045 147.996C163.783 147.955 161.977 146.096 162.008 143.841C162.038 141.587 163.898 139.791 166.157 139.828C168.42 139.868 170.226 141.728 170.195 143.982Z" fill="white"/>
<path d="M169.422 186.64C169.391 188.895 167.532 190.69 165.272 190.653C163.01 190.613 161.203 188.754 161.234 186.499C161.265 184.244 163.124 182.448 165.384 182.485C167.646 182.526 169.452 184.385 169.422 186.64Z" fill="white"/>
<path d="M168.652 229.3C168.621 231.555 166.762 233.351 164.502 233.314C162.24 233.273 160.433 231.414 160.464 229.159C160.495 226.905 162.354 225.109 164.614 225.146C166.874 225.183 168.682 227.046 168.652 229.3Z" fill="white"/>
<path d="M167.875 271.96C167.845 274.215 165.986 276.01 163.726 275.973C161.464 275.933 159.658 274.074 159.688 271.819C159.719 269.564 161.578 267.769 163.838 267.806C166.103 267.844 167.909 269.703 167.875 271.96Z" fill="white"/>
<path d="M167.104 314.613C167.073 316.868 165.214 318.663 162.954 318.626C160.692 318.586 158.886 316.727 158.917 314.472C158.948 312.217 160.807 310.421 163.069 310.462C165.329 310.499 167.135 312.358 167.104 314.613Z" fill="white"/>
</svg>
