<svg width="24" height="24" viewBox="0 0 24 24" fill="none" xmlns="http://www.w3.org/2000/svg">
<path fill-rule="evenodd" clip-rule="evenodd" d="M20.0037 4.04129C18.9642 2.99489 17.7273 2.16518 16.3648 1.60022C15.0023 1.03526 13.5412 0.746287 12.0662 0.750036C5.88125 0.750036 0.84625 5.78379 0.84375 11.9713C0.84375 13.9488 1.36 15.8788 2.34125 17.5813L0.75 23.395L6.69875 21.8338C8.34424 22.7295 10.1877 23.1992 12.0612 23.2H12.0662C18.25 23.2 23.285 18.1663 23.2875 11.9788C23.2917 10.5044 23.0037 9.04377 22.4401 7.68136C21.8765 6.31894 21.0484 5.08175 20.0037 4.04129ZM12.0662 21.3063H12.0625C10.3919 21.3065 8.75204 20.857 7.315 20.005L6.975 19.8025L3.445 20.7288L4.38625 17.2875L4.165 16.935C3.23098 15.4481 2.73654 13.7273 2.73875 11.9713C2.74125 6.82878 6.925 2.64504 12.07 2.64504C13.2953 2.64231 14.509 2.88264 15.6408 3.3521C16.7726 3.82156 17.8001 4.51084 18.6637 5.38004C19.532 6.24509 20.2202 7.27365 20.6886 8.40628C21.157 9.53891 21.3962 10.7531 21.3925 11.9788C21.39 17.1213 17.2062 21.3063 12.0662 21.3063ZM17.1825 14.32C16.9012 14.1788 15.5237 13.5013 15.2662 13.4075C15.01 13.3138 14.8237 13.2675 14.6362 13.5475C14.4487 13.8275 13.9112 14.4588 13.7475 14.6463C13.5837 14.8338 13.42 14.8563 13.14 14.7163C12.86 14.5763 11.9562 14.28 10.885 13.325C10.0512 12.5813 9.48875 11.6638 9.325 11.3825C9.16125 11.1013 9.3075 10.95 9.44875 10.81C9.575 10.685 9.72875 10.4825 9.86875 10.3188C10.0087 10.155 10.055 10.0388 10.1487 9.85128C10.2425 9.66378 10.1962 9.50003 10.125 9.36003C10.055 9.21878 9.49375 7.83878 9.26 7.27753C9.03375 6.73378 8.8025 6.80628 8.63 6.79878C8.45135 6.79148 8.27255 6.78814 8.09375 6.78878C7.95157 6.79241 7.81167 6.82537 7.68283 6.88559C7.55398 6.94582 7.43897 7.03202 7.345 7.13878C7.0875 7.42003 6.36375 8.09753 6.36375 9.47753C6.36375 10.8575 7.36875 12.1913 7.50875 12.3788C7.64875 12.5663 9.48625 15.3975 12.2987 16.6125C12.9687 16.9013 13.4912 17.0738 13.8975 17.2038C14.5687 17.4175 15.18 17.3863 15.6637 17.315C16.2025 17.235 17.3225 16.6375 17.5562 15.9825C17.79 15.3275 17.79 14.7663 17.72 14.6488C17.65 14.5313 17.4612 14.46 17.1825 14.32Z" fill="white"/>
</svg>
