<svg width="24" height="24" viewBox="0 0 24 24" fill="none" xmlns="http://www.w3.org/2000/svg">
<path d="M0.704348 12.1047L0.622412 12.0656C0.441494 11.9635 0.295574 11.8092 0.203712 11.6229C0.0720599 11.3941 0.00187906 11.1351 0 10.8712L0.0195443 10.7419C0.0195443 10.5419 0.0706604 10.3623 0.160865 10.1901L0.242801 10.0413C0.28189 9.95937 0.340523 9.88871 0.391639 9.82181C0.419414 9.78863 0.438605 9.74913 0.447518 9.70679C0.456432 9.66445 0.454796 9.62057 0.442755 9.57901L0.391639 9.41814C0.330674 9.22412 0.297767 9.02237 0.293917 8.81903L0.262345 8.69801C0.262345 8.47475 0.320978 8.25525 0.462299 8.09514L0.563779 7.96585C0.63444 7.86437 0.744189 7.80498 0.865213 7.76589C0.962935 7.73432 1.0336 7.63284 1.04562 7.51557L1.06517 7.17505C1.06517 6.90519 1.19446 6.65412 1.39441 6.46995L1.63722 6.28954C1.68457 6.24218 1.73494 6.19182 1.77403 6.10913C1.82514 6.0505 1.83642 5.96781 1.82514 5.90918C1.8056 5.81146 1.82514 5.77988 1.87626 5.76786C2.03712 5.83025 2.1386 5.8107 2.20926 5.72877L2.33856 5.56039L2.69862 5.15747C2.75091 5.10282 2.78615 5.03411 2.80004 4.95976C2.81392 4.8854 2.80585 4.80861 2.7768 4.73877L2.65954 4.47643C2.63999 4.41779 2.65954 4.34713 2.71065 4.32759C2.83994 4.32759 2.93015 4.37495 2.96924 4.45688L3.00833 4.52754C3.07072 4.64857 3.21204 4.70795 3.30976 4.65684C3.49287 4.59058 3.68633 4.55749 3.88106 4.55911H4.20204C4.42153 4.55911 4.60119 4.40652 4.64479 4.17574C4.68388 3.89761 4.7816 3.67436 4.92292 3.52552C5.07552 3.35338 5.2439 3.22408 5.44385 3.1226C5.7062 2.98579 5.86706 2.78208 5.91743 2.5235C5.98809 2.20252 6.15647 1.97174 6.38724 1.82291L7.15098 1.39218L7.37048 1.25913C7.49977 1.18095 7.62079 1.07872 7.72302 0.957692L7.92298 0.71865C8.00884 0.622907 8.12017 0.553558 8.24396 0.518696C8.34168 0.487124 8.483 0.46758 8.60402 0.479607L9.00318 0.506669C9.20313 0.506669 9.36325 0.557785 9.52411 0.627693L9.62559 0.678809C9.72707 0.717898 9.82555 0.698354 9.87591 0.627693L9.96611 0.576577L10.3968 0.126306C10.441 0.078484 10.4963 0.0423853 10.5578 0.0212589C10.6194 0.000132608 10.6852 -0.00535814 10.7494 0.00528095C10.8787 0.0248253 11.008 0.0759413 11.129 0.138333C11.3094 0.236055 11.4583 0.275143 11.6304 0.275143H11.7319C11.9514 0.275143 12.1701 0.306715 12.3934 0.357079L12.5422 0.396168C12.6153 0.414119 12.692 0.410305 12.7629 0.385194C12.8338 0.360084 12.8959 0.314774 12.9414 0.254847C12.9484 0.243131 12.958 0.233141 12.9694 0.22561C12.9809 0.21808 12.9938 0.213199 13.0074 0.211325C13.0209 0.209451 13.0347 0.210632 13.0477 0.214781C13.0608 0.21893 13.0727 0.225942 13.0827 0.235303C13.1143 0.254847 13.1218 0.274392 13.1338 0.305963C13.1533 0.505917 13.2751 0.658513 13.4352 0.705119L13.5961 0.756235C13.7645 0.807351 13.9171 0.9171 14.0148 1.05767C14.1163 1.20651 14.2381 1.3591 14.3749 1.45682L14.4764 1.55831C14.5261 1.60658 14.586 1.64321 14.6516 1.66557C14.7173 1.68792 14.7871 1.69545 14.856 1.6876H15.4468C15.6896 1.6876 15.9204 1.73045 16.1519 1.82892C16.3714 1.9304 16.6022 1.94994 16.8096 1.86801C17.0329 1.80111 17.2637 1.77029 17.4944 1.80111L17.9252 1.86801C18.1251 1.89131 18.3243 1.98903 18.4461 2.14238L18.4972 2.18974C18.5949 2.29122 18.6972 2.42051 18.7949 2.56183C18.8275 2.62347 18.8766 2.67482 18.9368 2.71013C18.9969 2.74545 19.0657 2.76333 19.1354 2.76179H19.7578C19.9104 2.76179 20.0593 2.79336 20.181 2.86327C20.3103 2.96099 20.4201 3.06322 20.5216 3.1647L20.6193 3.29399C20.7403 3.43531 20.7997 3.62324 20.7914 3.8262C20.7914 3.98707 20.9125 4.12388 21.0696 4.12388L21.2733 4.14718C21.4146 4.14718 21.5319 4.2449 21.6025 4.37419L21.704 4.57791L21.9626 5.15747C22.0003 5.24636 22.015 5.34329 22.0054 5.43936C22.0054 5.53708 22.0325 5.61977 22.1032 5.65886L22.2046 5.72952C22.2693 5.77792 22.3201 5.84255 22.3518 5.91686C22.3834 5.99118 22.3949 6.07255 22.385 6.15273L22.3144 6.62255L22.2948 6.8225C22.2866 6.87896 22.2935 6.93658 22.3147 6.98952C22.336 7.04247 22.3709 7.08884 22.4159 7.12394C22.5647 7.22166 22.6354 7.35471 22.6429 7.50355V7.7035C22.6429 7.80498 22.6233 7.92676 22.5452 8.00493C22.4783 8.09109 22.4425 8.19732 22.4437 8.30637L22.4753 8.53714C22.4753 8.69801 22.573 8.83858 22.6752 8.9363C22.7419 8.987 22.7978 9.05058 22.8395 9.12328C22.8812 9.19598 22.9079 9.27631 22.918 9.35951C22.9571 9.60983 22.9654 9.80978 22.9654 10.0097V10.2405C22.9654 10.3224 22.9654 10.4014 22.9969 10.4795C23.0193 10.5532 23.0646 10.6177 23.1262 10.6637L23.3262 10.8126C23.5299 10.9418 23.6705 11.114 23.7494 11.3448C23.8509 11.5643 23.8787 11.795 23.8787 12.0258V12.104C23.8787 12.2844 23.8591 12.4761 23.8005 12.6445C23.7498 12.8095 23.7593 12.9872 23.8276 13.1458C23.9095 13.2872 23.9606 13.4473 23.9802 13.6194C24.0193 13.8194 23.9997 14.0186 23.9291 14.1794L23.9095 14.2501C23.8574 14.3729 23.7786 14.4826 23.6787 14.5711C23.5773 14.6726 23.4788 14.7319 23.4201 14.8019C23.3578 14.8605 23.3187 14.9627 23.3495 15.0522L23.3765 15.1935C23.4277 15.3934 23.4277 15.5927 23.3765 15.7731V15.855C23.3375 16.0038 23.2788 16.1331 23.2157 16.2542C23.1481 16.3816 23.0446 16.4864 22.918 16.5556L22.7654 16.6533C22.7285 16.6777 22.6981 16.7109 22.677 16.7498C22.6559 16.7887 22.6447 16.8323 22.6444 16.8766C22.6451 16.9719 22.6103 17.0641 22.5467 17.1352L22.3941 17.3389C22.2963 17.4682 22.1671 17.5779 22.0257 17.6365C21.8986 17.7252 21.7805 17.8261 21.6732 17.938C21.5726 18.0554 21.4979 18.1927 21.4537 18.3409C21.44 18.4191 21.399 18.49 21.3381 18.5409C21.2771 18.5918 21.2001 18.6195 21.1207 18.619H20.5802C20.4389 18.619 20.3103 18.7205 20.251 18.8423C20.1944 18.9767 20.1165 19.1011 20.0202 19.2106C19.9235 19.3119 19.8535 19.4357 19.8165 19.5707C19.7969 19.6917 19.6992 19.7744 19.597 19.7315C19.5404 19.7057 19.4763 19.7018 19.417 19.7205C19.3577 19.7393 19.3074 19.7794 19.276 19.833C19.1747 20.009 19.0508 20.1709 18.9077 20.3149L18.837 20.3735C18.7039 20.475 18.5356 20.5539 18.383 20.5539C18.2026 20.5539 18.1131 20.6358 18.0853 20.7539C18.0537 20.8664 18.0328 20.9817 18.0229 21.0981C18.0014 21.2109 17.9687 21.3212 17.9252 21.4274L17.8741 21.486C17.7726 21.6386 17.6937 21.7875 17.5922 21.9168L17.5531 21.9791C17.4238 22.1475 17.2516 22.2806 17.0517 22.3279C16.8386 22.3993 16.6149 22.4336 16.3902 22.4294H16.2489C16.1943 22.4326 16.1413 22.4489 16.0943 22.4769C16.0473 22.5049 16.0078 22.5438 15.979 22.5903L15.9204 22.6918L15.858 22.809L15.7287 23.0323C15.6811 23.1191 15.6168 23.1955 15.5396 23.2573C15.4623 23.3191 15.3735 23.365 15.2784 23.3923C15.0685 23.4436 14.8522 23.4634 14.6365 23.451L14.4756 23.4314C14.3343 23.4314 14.2057 23.3923 14.0764 23.33C13.975 23.2909 13.8336 23.33 13.775 23.4314C13.6893 23.555 13.5655 23.6472 13.4225 23.6938L13.121 23.7915C12.9139 23.8426 12.6975 23.8426 12.4903 23.7915L12.3295 23.7404C12.2285 23.7333 12.1313 23.6996 12.0476 23.6427C11.9564 23.5938 11.8531 23.5722 11.7499 23.5803L11.6169 23.6036C11.4169 23.6231 11.2373 23.6036 11.0568 23.5525L10.787 23.4901C10.6624 23.4512 10.5556 23.3694 10.4855 23.2593C10.4545 23.2047 10.411 23.1581 10.3587 23.1234C10.3063 23.0886 10.2465 23.0667 10.1841 23.0593H9.86313C9.66318 23.0323 9.48352 22.9616 9.36174 22.809L8.96259 22.4294L8.82127 22.3084L8.60177 22.1475L8.47248 22.0498C8.31624 21.9419 8.13624 21.8733 7.94779 21.8498L7.34868 21.7484C7.28628 21.7484 7.2472 21.7288 7.18781 21.7168L6.95704 21.6657C6.85556 21.6461 6.75708 21.568 6.68717 21.4657C6.62854 21.368 6.51503 21.3244 6.41731 21.368C6.21736 21.4462 6.05725 21.4657 5.89638 21.4973H5.75506C5.49999 21.5193 5.24357 21.4748 5.01087 21.368C4.77183 21.2665 4.61172 21.1177 4.46288 20.9253C4.40231 20.8366 4.32475 20.7608 4.23468 20.7024C4.14461 20.6439 4.04383 20.6039 3.93819 20.5847L3.66006 20.5261C3.45194 20.483 3.25396 20.4006 3.07673 20.2833C2.87678 20.142 2.7753 20.0134 2.69712 19.8526C2.61574 19.6971 2.56762 19.5263 2.5558 19.3512V19.273C2.53626 19.0693 2.39493 18.8896 2.20701 18.8423C2.00345 18.7829 1.81521 18.68 1.65526 18.5408C1.58446 18.4738 1.52813 18.3931 1.48974 18.3035C1.45134 18.2139 1.43169 18.1174 1.432 18.0199L1.4553 17.5772C1.4553 17.405 1.40419 17.2562 1.28316 17.1464C1.16214 17.0254 1.08321 16.8766 1.08321 16.7157L1.05164 16.3556C1.02762 16.0917 0.98441 15.83 0.922343 15.5724C0.86371 15.3416 0.953915 15.1101 1.14184 15.0011L1.2125 14.9499C1.26318 14.9158 1.29954 14.8643 1.31465 14.8051C1.32976 14.7459 1.32257 14.6832 1.29444 14.629L1.2125 14.5312C1.13142 14.4392 1.02743 14.3702 0.911067 14.3313C0.83289 14.308 0.813346 14.2298 0.813346 14.1787L0.911067 14.0577C0.93867 14.024 0.953752 13.9817 0.953752 13.9381C0.953752 13.8946 0.93867 13.8523 0.911067 13.8186C0.838082 13.7415 0.792629 13.6424 0.781774 13.5367L0.76223 12.8361C0.76223 12.6948 0.781774 12.5543 0.820863 12.4174C0.86371 12.2964 0.820863 12.1551 0.703597 12.0965L0.704348 12.1047ZM10.6254 10.781C10.696 10.7103 10.684 10.581 10.6254 10.5307C10.5311 10.4571 10.4526 10.3654 10.3946 10.2608L10.2931 10.0999C10.2254 9.97354 10.1381 9.85862 10.0345 9.75942L10.015 9.73987C9.91529 9.65906 9.8362 9.55576 9.7842 9.43844C9.75907 9.39218 9.7459 9.34037 9.7459 9.28772C9.7459 9.23507 9.75907 9.18326 9.7842 9.137L9.84284 9.03928C9.90708 8.92999 9.94203 8.80597 9.94432 8.67921V8.63637C9.93917 8.52957 9.90399 8.42639 9.84284 8.33869C9.79863 8.24917 9.7658 8.15447 9.74511 8.0568V7.99817C9.73051 7.93733 9.72997 7.87396 9.74351 7.81287C9.75706 7.75178 9.78434 7.69459 9.82329 7.64562C9.90523 7.51632 9.96461 7.3953 9.99543 7.24646V7.22316C10.0133 7.16855 10.0187 7.11065 10.0113 7.05369C10.0038 6.99673 9.9838 6.94214 9.95259 6.89391C9.92214 6.84689 9.90279 6.79354 9.89602 6.73793C9.88925 6.68232 9.89522 6.62589 9.9135 6.57293L9.98416 6.37298C10.0428 6.19257 10.1368 6.03246 10.254 5.89114L10.3953 5.7423L10.4968 5.62127L10.5555 5.56264C10.5851 5.53004 10.6031 5.48851 10.6067 5.44458C10.6102 5.40064 10.5991 5.35677 10.575 5.31984C10.522 5.22887 10.5013 5.12262 10.5164 5.01841L10.5359 4.87709C10.5675 4.67713 10.6374 4.47793 10.7667 4.31707L10.8058 4.27798C10.9546 4.07802 11.1463 3.94497 11.3658 3.87506L11.6402 3.77734C11.7574 3.73825 11.8401 3.6052 11.8401 3.47591C11.8401 3.31504 11.8912 3.17447 11.9807 3.04518L12.028 2.99406C12.1295 2.82568 12.2513 2.65354 12.3295 2.47313L12.4001 2.34384C12.4193 2.31333 12.4302 2.27835 12.4317 2.24236C12.4317 2.07398 12.3302 1.92138 12.1694 1.91311L11.7311 1.88154C11.4808 1.86199 11.2297 1.88154 10.9869 1.88154L10.1375 1.98302C10.0045 1.98302 9.90673 2.08074 9.8947 2.22206C9.89319 2.28869 9.87136 2.35326 9.83213 2.40713C9.7929 2.461 9.73815 2.5016 9.67521 2.5235L9.31514 2.62122L9.21366 2.65279L8.91222 2.75427C8.80198 2.79042 8.70046 2.84912 8.61414 2.92664C8.52782 3.00416 8.45858 3.0988 8.41084 3.20454L8.33266 3.33383C8.22945 3.55581 8.06147 3.74135 7.85082 3.86604C7.65086 3.99534 7.54938 4.20656 7.52984 4.44561V4.54709C7.51029 4.74704 7.4479 4.94624 7.32988 5.08756L7.27877 5.1695C7.23902 5.21567 7.21313 5.27214 7.20409 5.33239C7.19505 5.39264 7.20321 5.45421 7.22765 5.51002C7.27877 5.62729 7.30959 5.76034 7.29831 5.88963V6.42184C7.29676 6.48534 7.27713 6.54709 7.24171 6.59981C7.20629 6.65254 7.15656 6.69407 7.09836 6.71952C7.03196 6.74353 6.97255 6.78364 6.92546 6.83624C6.87836 6.88885 6.84505 6.95231 6.8285 7.02095L6.77738 7.2209C6.75606 7.31833 6.76362 7.41986 6.79914 7.51306C6.83465 7.60625 6.89658 7.68707 6.97733 7.7456C7.1382 7.86286 7.23968 8.04327 7.27877 8.26653V8.44694C7.31034 8.64689 7.42009 8.84609 7.59975 8.94833C7.78016 9.06935 7.92072 9.24976 7.9989 9.44971L8.05002 9.61058C8.08389 9.70969 8.14542 9.79704 8.22733 9.86231C8.30925 9.92758 8.40814 9.96804 8.51232 9.97891H8.57095C8.75136 9.97891 8.91147 10.0804 9.0137 10.2413C9.11143 10.4021 9.27229 10.5111 9.45195 10.5427L9.73384 10.6209C9.90598 10.672 10.0668 10.7622 10.1961 10.8907L10.2157 10.914C10.2688 10.9533 10.3349 10.9707 10.4005 10.9627C10.466 10.9547 10.526 10.922 10.5682 10.8712L10.6389 10.793L10.6254 10.781ZM11.768 9.8609C11.8657 9.91953 11.9679 9.88796 12.007 9.7985L12.0386 9.75115C12.1092 9.60983 12.1994 9.46926 12.2972 9.34823L12.5009 9.0468C12.5279 9.0468 12.54 9.02725 12.5482 9.00771L12.791 8.68673C12.8925 8.58901 13.0105 8.51835 13.1511 8.51835C13.2155 8.51867 13.2786 8.49983 13.3322 8.46423C13.3859 8.42862 13.4278 8.37786 13.4525 8.3184C13.4916 8.17707 13.5502 8.04402 13.672 7.93503L13.7231 7.87639C13.8246 7.77491 13.9231 7.7238 14.0246 7.67644C14.1539 7.65689 14.2749 7.63359 14.3967 7.63359H14.6943C14.8154 7.63359 14.9176 7.58623 14.9762 7.48475C15.0349 7.38327 15.1251 7.31637 15.2266 7.26526L15.328 7.22241C15.4889 7.15551 15.6686 7.10514 15.849 7.0856L16.0489 7.06605C16.1699 7.06605 16.2992 7.06605 16.421 7.13296C16.5187 7.20362 16.6518 7.19535 16.7503 7.11341L16.8209 7.07432C16.9698 6.97284 17.1419 6.89391 17.3223 6.87437H17.3419C17.5343 6.84055 17.7302 6.82995 17.9252 6.8428H18.0229C18.2229 6.87437 18.395 6.94428 18.5243 7.09311L18.5559 7.1322C18.6573 7.23368 18.8144 7.31637 18.955 7.31637H19.1272C19.1783 7.31637 19.2249 7.29307 19.2564 7.24571C19.2904 7.20974 19.3364 7.18753 19.3857 7.18332H19.4872C19.6285 7.18332 19.7571 7.22241 19.8864 7.26526L20.0585 7.33592C20.2194 7.38327 20.3878 7.43364 20.5599 7.45318H20.6809C20.7591 7.45318 20.8102 7.40582 20.8102 7.33592C20.814 7.23714 20.7895 7.13935 20.7396 7.05403L20.6689 6.89316C20.5907 6.76387 20.5276 6.6233 20.4689 6.49401L20.4494 6.44289C20.4243 6.39663 20.4111 6.34482 20.4111 6.29217C20.4111 6.23953 20.4243 6.18772 20.4494 6.14146V6.09034C20.4593 6.05038 20.4545 6.00818 20.4359 5.97146C20.4173 5.93475 20.386 5.90597 20.3479 5.89039H20.2697C20.1114 5.84293 19.971 5.7489 19.8668 5.62052L19.7691 5.51904C19.6676 5.42132 19.6082 5.26872 19.5654 5.11989C19.518 4.99059 19.409 4.88911 19.2677 4.88911H18.8445C18.7711 4.87879 18.7005 4.85408 18.6366 4.81642C18.5728 4.77875 18.517 4.72887 18.4724 4.66962L18.4333 4.6185C18.3609 4.51379 18.3042 4.39907 18.2649 4.27798C18.2138 4.1765 18.1041 4.11711 18.0026 4.14868L17.8816 4.18777C17.6816 4.25843 17.4824 4.28549 17.2825 4.26595L17.1216 4.2464C16.9495 4.2464 16.7886 4.17574 16.6593 4.07802L16.5578 4.00736C16.4815 3.94857 16.3973 3.90098 16.3075 3.86604C16.2098 3.82695 16.1271 3.8465 16.0685 3.91716L16.0173 3.97579C15.9157 4.0816 15.7825 4.15173 15.6377 4.17574L15.0973 4.20732C14.995 4.21115 14.8983 4.25454 14.8274 4.32834C14.7498 4.39765 14.6551 4.4449 14.553 4.46515H14.5335C14.4358 4.46515 14.3335 4.53581 14.2358 4.60647V4.62602C14.1883 4.67432 14.1317 4.71269 14.0692 4.73889C14.0068 4.76509 13.9397 4.77859 13.872 4.77861L13.8329 4.79816C13.7119 4.79816 13.5938 4.79816 13.4728 4.82973H13.3518C13.1834 4.85679 13.0504 4.99811 13.0113 5.17852L12.9722 5.40929C12.94 5.56649 12.8715 5.71398 12.7722 5.84002C12.6708 5.96105 12.549 6.03998 12.4001 6.03998H12.2318C12.1303 6.06328 12.028 6.17303 12.0476 6.29029C12.0709 6.46243 12.0476 6.61127 12.0205 6.76387L11.9814 6.93225C11.9642 7.00357 11.9304 7.06982 11.8827 7.1256C11.835 7.18137 11.7748 7.2251 11.7071 7.25323L11.6484 7.2848H11.6289C11.5703 7.32389 11.5274 7.41409 11.5778 7.48475C11.6356 7.574 11.6605 7.68056 11.6484 7.78619L11.6169 8.10717C11.6104 8.22304 11.577 8.3358 11.5191 8.43641C11.4904 8.48078 11.4734 8.5318 11.47 8.58458C11.4666 8.63736 11.4768 8.69013 11.4996 8.73785L11.5973 8.95735C11.6488 9.05628 11.6601 9.17126 11.6289 9.27832C11.5946 9.37488 11.5812 9.47764 11.5898 9.57976C11.5898 9.68124 11.6484 9.77971 11.7311 9.82256L11.768 9.8609ZM19.6849 17.1081C19.7864 17.2058 19.9352 17.2449 20.057 17.1667L20.257 17.0374C20.3623 16.9649 20.4398 16.8585 20.4765 16.736V16.7164L20.5779 16.415L20.6366 16.3135L20.6794 16.2158L20.7185 16.1452C20.7368 16.1033 20.7643 16.0662 20.7989 16.0364C20.8335 16.0066 20.8744 15.9849 20.9185 15.973L20.9576 15.9535C21.0395 15.9339 21.0906 15.8557 21.0906 15.7731C21.0906 15.6753 21.138 15.5927 21.1883 15.5227L21.2703 15.4521L21.4702 15.1935V15.174C21.5287 15.0916 21.5699 14.9983 21.5912 14.8996C21.6079 14.7983 21.5929 14.6944 21.5484 14.6019L21.5289 14.5591C21.4938 14.4764 21.47 14.3895 21.4582 14.3005L21.4311 14.0186L21.3996 13.7171C21.3996 13.6194 21.4387 13.5172 21.501 13.4195C21.5679 13.3375 21.6183 13.2353 21.6619 13.1376V13.0985L21.6815 13.0789C21.701 12.9775 21.6499 12.8752 21.5604 12.8752C21.4589 12.8279 21.3605 12.7459 21.3297 12.6249L21.2981 12.5663C21.2489 12.3902 21.2227 12.2086 21.2199 12.0258L21.2394 11.5244V11.4928C21.2387 11.4131 21.2067 11.3369 21.1503 11.2806C21.0939 11.2242 21.0177 11.1922 20.938 11.1914H20.9185C20.8256 11.1951 20.7329 11.1792 20.6465 11.1447C20.5602 11.1103 20.482 11.0581 20.4171 10.9915L20.3389 10.89L20.1352 10.663L19.8766 10.3615C19.78 10.2219 19.6683 10.0934 19.5436 9.97816C19.4459 9.88044 19.2933 9.77821 19.1444 9.75866L18.9445 9.72709C18.8237 9.70216 18.7084 9.65583 18.604 9.59028C18.522 9.52789 18.404 9.54743 18.3221 9.62937L18.1928 9.77069L18.1304 9.80978C18.0597 9.82932 17.9936 9.79024 17.962 9.7083C17.9196 9.58393 17.9266 9.44805 17.9816 9.32869V9.27005C17.9816 9.19939 17.9229 9.14903 17.8605 9.16857H17.6997C17.5185 9.17526 17.338 9.14189 17.1712 9.07085L17.0697 9.02801C16.9674 8.97716 16.8548 8.95042 16.7405 8.94983C16.6347 8.94747 16.5304 8.97454 16.4391 9.02801L16.4 9.05958C16.279 9.13649 16.1402 9.18101 15.9971 9.18887H15.6678C15.5225 9.18738 15.3808 9.23418 15.2649 9.32192C15.1361 9.39924 14.9942 9.45224 14.8462 9.47828L14.5763 9.52112C14.4439 9.54905 14.3195 9.60662 14.2125 9.68951C14.1148 9.79099 13.9735 9.85037 13.8442 9.88946L13.793 9.91276C13.6287 9.96107 13.4871 10.0667 13.3939 10.2104L13.2729 10.3315C13.2385 10.3779 13.22 10.4342 13.22 10.492C13.22 10.5497 13.2385 10.606 13.2729 10.6524C13.3315 10.7539 13.4533 10.7817 13.5743 10.7539L13.7231 10.6915C13.8013 10.6645 13.8953 10.6915 13.9622 10.7306C13.996 10.7579 14.0348 10.7782 14.0765 10.7903C14.1182 10.8024 14.1619 10.8062 14.205 10.8013L14.4553 10.7742C14.5966 10.7742 14.7372 10.7742 14.874 10.8133C15.0266 10.8644 15.1559 10.9148 15.2769 11.0133C15.3908 11.1057 15.5299 11.1618 15.6761 11.1741C15.8287 11.1937 15.9775 11.2252 16.1188 11.2756L16.2165 11.2951C16.318 11.3267 16.4007 11.3929 16.4594 11.4951C16.5105 11.577 16.5571 11.6951 16.5571 11.7965V11.8281C16.5571 11.9454 16.6586 12.0281 16.7608 12.0281H16.8194C16.9803 12.0281 17.1524 12.0476 17.3208 12.0987L17.3915 12.1258C17.4995 12.1657 17.5933 12.2366 17.6613 12.3295C17.7433 12.4272 17.7906 12.5295 17.8222 12.6272L17.8538 12.7685C17.8808 12.9211 17.8929 13.0699 17.8929 13.2308V13.2819C17.8929 13.3796 17.9635 13.4819 18.0733 13.521C18.1747 13.5405 18.2928 13.5833 18.4063 13.642L18.4536 13.6615C18.5867 13.7397 18.716 13.8419 18.8137 13.963L18.8648 14.0336C18.9979 14.1825 19.0648 14.3741 19.0648 14.5621V14.6327C19.0648 14.7853 19.0377 14.9342 18.9866 15.0755C18.9475 15.1965 18.9866 15.3378 19.1159 15.3769L19.1865 15.428C19.3391 15.4867 19.4684 15.5964 19.5662 15.7257C19.6676 15.8783 19.7075 16.0467 19.7075 16.2271V16.5285C19.6879 16.63 19.6601 16.7089 19.6097 16.7788C19.5594 16.8488 19.5586 16.951 19.6097 17.0216L19.6684 17.1194L19.6849 17.1081ZM13.2714 11.9754H13.2518C13.209 11.9754 13.1894 12.0266 13.2007 12.0769L13.2398 12.2769C13.2789 12.4377 13.2984 12.5979 13.3217 12.7587C13.3413 12.9196 13.4195 13.0564 13.5412 13.1579H13.5803C13.6539 13.2158 13.7143 13.2887 13.7575 13.3718C13.8006 13.4549 13.8256 13.5462 13.8306 13.6397V14.1411C13.8111 14.2388 13.8306 14.3411 13.893 14.423L13.9404 14.4704C14.0327 14.5851 14.0861 14.7262 14.093 14.8733L14.12 15.425C14.12 15.5543 14.0419 15.6641 13.9201 15.6836L13.8224 15.7032C13.7517 15.7032 13.7209 15.7851 13.7209 15.8557C13.7209 15.9339 13.7525 16.0241 13.7795 16.1061V16.1256C13.8111 16.2233 13.8224 16.3256 13.8111 16.427L13.772 16.6969C13.7352 16.8929 13.6677 17.0819 13.572 17.2569L13.5014 17.378C13.4578 17.4656 13.3861 17.536 13.2977 17.5779C13.2502 17.5974 13.2076 17.6273 13.1731 17.6652C13.1385 17.7032 13.1128 17.7483 13.0977 17.7974L13.0195 18.1575C12.9627 18.3704 12.8743 18.5736 12.7572 18.7603H12.7377C12.618 18.9243 12.4645 19.0604 12.2874 19.1595L12.1664 19.2414L11.8649 19.3903C11.8169 19.4124 11.7753 19.4462 11.7437 19.4887C11.7122 19.5311 11.6919 19.5807 11.6845 19.6331L11.6372 19.9623C11.6056 20.1623 11.5357 20.3344 11.3944 20.4637L11.2651 20.6163L11.1125 20.7651L10.9636 20.926C10.8426 21.0673 10.6622 21.126 10.4622 21.0981L10.1022 21.0275L9.76917 20.9846H9.67896C9.63988 21.0275 9.63161 21.0861 9.65942 21.1455C9.73008 21.2665 9.83983 21.3492 9.96085 21.3492L10.1804 21.3883C10.2818 21.3883 10.4036 21.4394 10.5013 21.486C10.6028 21.5567 10.7013 21.607 10.8223 21.6386H10.8419C10.9749 21.6897 11.1117 21.6973 11.2448 21.6897L11.3936 21.6664C11.5657 21.6469 11.7266 21.6664 11.8634 21.7288L11.9844 21.7679C12.0356 21.7875 12.1137 21.7679 12.1649 21.7168C12.2222 21.6608 12.2902 21.6168 12.3648 21.5875L12.4467 21.568C12.576 21.5289 12.7053 21.5056 12.8459 21.5056H12.9278C13.0451 21.5056 13.1586 21.5289 13.2571 21.5875L13.2962 21.607C13.3668 21.6386 13.4488 21.607 13.4999 21.5484C13.5269 21.4778 13.5976 21.4071 13.6683 21.3485L13.9186 21.1763L14.0794 21.0748L14.1614 21.0275C14.2687 20.9586 14.394 20.9233 14.5215 20.926L14.8815 20.8944C14.9516 20.8855 15.0174 20.8563 15.071 20.8103C15.1246 20.7644 15.1635 20.7037 15.183 20.6358C15.222 20.4832 15.2807 20.3344 15.3829 20.2051C15.4844 20.0721 15.5829 19.9623 15.6843 19.8646C15.7971 19.7702 15.9368 19.7139 16.0835 19.7037H16.1654C16.2434 19.6881 16.3134 19.6453 16.3628 19.583C16.4122 19.5206 16.4379 19.4427 16.4353 19.3632V18.6897C16.4548 18.592 16.4939 18.4589 16.5526 18.3604L16.7563 18.059L16.8345 17.9575C16.8968 17.9064 16.9359 17.8403 17.0066 17.7576L17.1043 17.6283C17.1667 17.5268 17.1667 17.3975 17.0848 17.3073C16.9908 17.2012 16.932 17.0686 16.9164 16.9277V16.8848C16.8926 16.7175 16.9018 16.5472 16.9434 16.3834V16.3361C16.9946 16.203 17.0645 16.0737 17.1472 15.9527C17.1854 15.9059 17.2036 15.8459 17.1977 15.7857C17.1917 15.7256 17.1622 15.6702 17.1156 15.6317L16.9434 15.4829C16.8059 15.3582 16.7205 15.1861 16.7044 15.0011L16.6849 14.8011C16.6849 14.7387 16.6849 14.6718 16.6653 14.6012L16.6458 14.4486C16.633 14.3672 16.6029 14.2895 16.5577 14.2207C16.5125 14.1518 16.453 14.0934 16.3834 14.0494L16.3128 14.0299C16.2014 13.9601 16.1054 13.8682 16.0309 13.76C15.9527 13.6585 15.9136 13.5172 15.882 13.3766L15.8505 13.2082C15.8505 13.1458 15.8114 13.1068 15.7527 13.0789L15.2709 12.9264C15.1694 12.9068 15.0709 12.8286 15.001 12.758H14.9815C14.9191 12.676 14.8206 12.676 14.7582 12.7347L14.6605 12.8361C14.641 12.8677 14.6177 12.8752 14.5899 12.8677C14.5275 12.8677 14.4884 12.8166 14.5079 12.7662C14.5192 12.6878 14.5095 12.6078 14.48 12.5343C14.4504 12.4608 14.402 12.3963 14.3395 12.3475L14.2065 12.2461L13.9088 12.0461C13.8269 12.0145 13.7051 12.0461 13.666 12.1438L13.6269 12.2062C13.6269 12.2258 13.5954 12.2333 13.5878 12.2453C13.545 12.2453 13.4864 12.2453 13.4864 12.1942L13.4548 12.1431C13.4277 12.0844 13.3571 12.0454 13.2939 12.0258L13.2714 11.9754ZM12.0694 12.9775L12.0183 12.9264C11.9672 12.8873 11.9168 12.8948 11.8657 12.9459C11.7936 13.0651 11.7394 13.1943 11.7048 13.3293V13.3488C11.6777 13.4781 11.556 13.5683 11.4349 13.5488H11.3177C11.2503 13.5501 11.1862 13.5781 11.1393 13.6265C11.0924 13.675 11.0666 13.7399 11.0674 13.8074C11.0674 13.9878 11.005 14.1712 10.8952 14.3087L10.8366 14.3711C10.7313 14.4982 10.5913 14.592 10.4337 14.641L10.3555 14.6605C10.3044 14.6736 10.2582 14.7013 10.2226 14.7403C10.1871 14.7793 10.1638 14.8279 10.1555 14.88C10.1555 14.9815 10.0932 15.0837 10.0142 15.1619L9.91274 15.2401C9.79172 15.3732 9.61131 15.4438 9.4309 15.4634L8.92951 15.5145C8.76865 15.5145 8.63184 15.6122 8.53036 15.7648C8.42888 15.9136 8.28004 16.0151 8.1312 16.0347L7.90794 16.0542C7.74095 16.0768 7.57129 16.0702 7.40656 16.0347L7.30884 16.0151L7.03446 15.9445C6.99229 15.9292 6.94635 15.9279 6.90336 15.9406C6.86036 15.9533 6.82254 15.9794 6.79542 16.0151L6.69394 16.1444C6.6327 16.2157 6.55511 16.2711 6.4678 16.306C6.38049 16.3408 6.28606 16.3539 6.19255 16.3444L5.54233 16.2662C5.44085 16.2662 5.36192 16.2151 5.27246 16.1647C5.17098 16.1061 5.10032 16.0354 5.02966 15.9647L4.77935 15.6633C4.75228 15.6438 4.70117 15.6317 4.65005 15.6438L4.50873 15.7024L3.94871 15.8437C3.84723 15.8753 3.71794 15.8437 3.61946 15.7851C3.51798 15.7032 3.39621 15.6836 3.27518 15.6836H3.14589C3.11653 15.6911 3.08898 15.7044 3.06487 15.7227C3.04077 15.7411 3.02061 15.7641 3.0056 15.7904C2.99058 15.8167 2.98102 15.8458 2.97749 15.8759C2.97395 15.9059 2.97652 15.9364 2.98502 15.9655L3.02411 16.1655C3.05568 16.2669 3.04742 16.3849 2.99705 16.4864C2.94669 16.5879 2.95796 16.6864 3.02411 16.7879L3.0865 16.866C3.16468 16.9871 3.28646 17.0893 3.38794 17.187C3.48566 17.2885 3.58789 17.387 3.66607 17.52L3.81867 17.7899C3.85171 17.8568 3.9031 17.913 3.96685 17.9519C4.0306 17.9907 4.10408 18.0107 4.17873 18.0094C4.32757 18.0094 4.48017 18.0605 4.59743 18.1582L4.89887 18.4401C4.9808 18.5108 5.09882 18.522 5.18076 18.4597L5.23187 18.4401C5.29051 18.4401 5.32959 18.4792 5.32959 18.5416V18.5927C5.32959 18.722 5.43107 18.843 5.56037 18.8904L6.01064 18.9919C6.1715 19.043 6.33162 19.0933 6.48421 19.1918H6.56239C6.58264 19.1918 6.60265 19.1874 6.62108 19.179C6.63952 19.1707 6.65597 19.1585 6.66933 19.1433C6.6827 19.128 6.69267 19.1102 6.6986 19.0908C6.70453 19.0714 6.70627 19.051 6.70371 19.031V18.6822C6.70371 18.5807 6.7428 18.4785 6.82474 18.4394L6.87585 18.4198C6.92321 18.4394 6.97357 18.4784 6.95403 18.5213V18.6897C6.95403 18.819 6.99312 18.94 7.08332 19.0302C7.12599 19.0755 7.18092 19.1073 7.24139 19.1218C7.30186 19.1364 7.36526 19.133 7.42385 19.1121C7.54487 19.061 7.66665 19.0497 7.79594 19.061L8.16803 19.0806C8.34844 19.1001 8.51683 19.0806 8.66942 19.0099C8.84983 18.9513 8.99867 18.8686 9.13924 18.7596L9.19787 18.7205L9.49931 18.4506C9.59205 18.3552 9.71879 18.3003 9.85186 18.298H10.251C10.3525 18.2846 10.4469 18.2383 10.5196 18.1663C10.5924 18.0942 10.6395 18.0003 10.6539 17.8989L10.693 17.6989C10.693 17.5659 10.7516 17.4486 10.8419 17.3464C10.9433 17.2449 11.0418 17.1855 11.1433 17.1464L11.2643 17.0953C11.3492 17.0582 11.4253 17.0034 11.4874 16.9345C11.5494 16.8657 11.5962 16.7844 11.6244 16.6962L11.683 16.4534C11.7341 16.2534 11.8356 16.0542 11.9844 15.9249L12.004 15.9016C12.125 15.8039 12.1453 15.6039 12.0664 15.4634L12.0348 15.3927C11.9997 15.3365 11.9786 15.2727 11.9731 15.2067C11.9676 15.1407 11.9779 15.0743 12.0032 15.0131C12.0544 14.8718 12.1047 14.7507 12.1836 14.6297L12.2851 14.4884C12.3242 14.4102 12.3242 14.2884 12.2656 14.2185C12.202 14.1396 12.1663 14.0418 12.1641 13.9404L12.1446 13.7991V13.4586C12.1595 13.3466 12.1487 13.2327 12.113 13.1256L12.0739 13.0083L12.0694 12.9775ZM10.6366 12.2137V12.1867C10.6366 12.0852 10.5742 12.0258 10.4953 12.0258H10.233C10.14 12.0454 10.044 12.0454 9.95108 12.0258H9.50081C9.27004 12.0258 9.05054 11.983 8.83104 11.9243L8.58824 11.8657L8.38828 11.8033L7.93801 11.6545C7.82244 11.6215 7.71521 11.5642 7.62345 11.4866C7.53169 11.409 7.4575 11.3127 7.40581 11.2042L7.35469 11.1027C7.28403 10.9539 7.13519 10.8719 6.98635 10.9028C6.81421 10.9028 6.64583 10.9028 6.48497 10.8246L6.36394 10.7735C6.13317 10.672 5.96479 10.472 5.96479 10.2022L5.92194 9.93231C5.89488 9.79099 5.80467 9.66245 5.6829 9.61133C5.542 9.54653 5.40716 9.4693 5.27998 9.38056L5.23262 9.34898C5.07416 9.22776 4.95218 9.0652 4.88007 8.87917L4.86053 8.82053C4.80895 8.65822 4.8022 8.48498 4.84099 8.31915L4.86053 8.25676C4.89962 8.12746 4.91165 7.99817 4.91165 7.8576C4.91014 7.73234 4.85937 7.61271 4.77033 7.52459L4.629 7.3953C4.549 7.33067 4.48359 7.24983 4.43707 7.1581C4.39056 7.06637 4.364 6.96583 4.35914 6.86309C4.33621 6.64922 4.34278 6.43322 4.37869 6.22114V6.1625C4.37849 6.10953 4.35736 6.05879 4.3199 6.02133C4.28245 5.98388 4.2317 5.96275 4.17873 5.96255H4.14716C4.01787 5.96255 3.90812 6.04073 3.84573 6.1625C3.79586 6.29526 3.72139 6.41742 3.62623 6.52257L3.58714 6.57369L3.28571 6.87512C3.18423 6.97284 3.12484 7.12544 3.1053 7.27428C3.08653 7.42693 3.04577 7.57606 2.98427 7.71703L2.96473 7.76815C2.91634 7.88757 2.83661 7.99171 2.73395 8.06958C2.68468 8.10719 2.64412 8.15501 2.61506 8.20977C2.58599 8.26452 2.56911 8.32491 2.56557 8.3868L2.54603 8.8491C2.54603 9.04905 2.51446 9.25201 2.44455 9.45197L2.425 9.53014C2.39936 9.59067 2.39759 9.65866 2.42004 9.72044C2.44249 9.78222 2.48751 9.83321 2.54603 9.86315L2.96473 10.0436L3.00382 10.0631C3.03539 10.0631 3.04666 10.0826 3.05493 10.1142C3.0865 10.1533 3.05493 10.2119 3.02336 10.2119L2.92564 10.2631C2.86701 10.2826 2.82416 10.345 2.80461 10.4157L2.78507 10.5134V10.5329L2.68359 11.0967C2.66405 11.1749 2.66405 11.2651 2.66405 11.3553C2.66411 11.394 2.67564 11.4317 2.69718 11.4639C2.71873 11.496 2.74931 11.521 2.78507 11.5357L3.00457 11.6372C3.10605 11.6958 3.22782 11.7665 3.306 11.8371L3.40748 11.9191C3.4388 11.96 3.47887 11.9934 3.52475 12.0168L3.5676 12.0559C3.63663 12.117 3.68584 12.1974 3.70892 12.2866L3.80664 12.7369C3.80664 12.8579 3.90812 12.9602 4.00659 12.9872L4.16746 13.0384C4.16746 13.0384 4.19903 13.0384 4.21857 13.0579L4.41853 13.1203C4.57939 13.1714 4.71996 13.2616 4.84174 13.3789C4.96276 13.4804 5.08078 13.6097 5.18226 13.751L5.22135 13.7901C5.30328 13.8915 5.4213 13.9427 5.54233 13.9111C5.66335 13.8795 5.79264 13.872 5.92194 13.872H6.07453C6.17226 13.872 6.30531 13.8991 6.41506 13.9697C6.51278 14.0321 6.64583 14.0712 6.76385 14.1223H6.79542C6.85286 14.1453 6.91509 14.1538 6.9766 14.147C7.0381 14.1402 7.09696 14.1183 7.14797 14.0832C7.25041 14.0025 7.37764 13.9597 7.50804 13.9622L7.97785 13.9893C8.07933 13.9893 8.17781 13.9697 8.22817 13.8915H8.24772L8.41986 13.7307L8.47097 13.6796C8.51065 13.6341 8.55933 13.5974 8.61394 13.5718C8.66855 13.5462 8.72789 13.5322 8.78819 13.5307H9.24222C9.35949 13.5307 9.473 13.4292 9.52035 13.3308C9.54668 13.2784 9.58471 13.2327 9.63151 13.1974C9.67831 13.1621 9.73261 13.138 9.79022 13.1271L9.99393 13.088C10.0721 13.088 10.1428 13.0173 10.1743 12.9271C10.1983 12.8341 10.2503 12.7506 10.3232 12.6881L10.484 12.5272C10.5758 12.4425 10.6364 12.3295 10.6562 12.2062L10.6366 12.2137Z" fill="white"/>
</svg>
