<svg width="140" height="15" viewBox="0 0 140 15" fill="none" xmlns="http://www.w3.org/2000/svg">
<path d="M77.8078 7.05301C79.1808 6.33141 79.8673 5.24514 79.8673 3.79419C79.8801 3.33858 79.8013 2.88511 79.6356 2.46162C79.4699 2.03812 79.2209 1.65353 78.9039 1.33146C78.0557 0.467096 76.8039 0.0356838 75.1487 0.0372356H73.9405V2.31143H74.8146C75.6201 2.31143 76.2425 2.47669 76.6796 2.80258C76.8923 2.95666 77.0638 3.16236 77.1785 3.40098C77.2932 3.6396 77.3474 3.90358 77.3364 4.16895C77.353 4.46348 77.2948 4.75741 77.1673 5.02241C77.0399 5.28742 76.8475 5.51456 76.6087 5.68197C76.1236 6.02415 75.4645 6.19408 74.6293 6.19408H73.9428V8.36352H75.1853C77.1564 8.36352 78.1411 9.01761 78.1396 10.3258C78.1554 10.6215 78.0969 10.9165 77.9695 11.1828C77.8422 11.4492 77.6503 11.6781 77.4119 11.8481C76.9245 12.1973 76.2448 12.3695 75.3707 12.3695H73.9405V14.6461H75.3478C76.9756 14.6461 78.2677 14.2977 79.2242 13.6009C80.1808 12.9041 80.6598 11.9164 80.6613 10.6377C80.6613 8.90898 79.7101 7.71408 77.8078 7.05301Z" fill="white"/>
<path d="M91.1167 0.0907898H83.1808V2.48136H91.1167V0.0907898Z" fill="white"/>
<path d="M90.1213 6.09399H85.5927V8.50086H90.1213V6.09399Z" fill="white"/>
<path d="M91.1625 12.2834H83.1213V14.674H91.1625V12.2834Z" fill="white"/>
<path d="M104.634 6.10098H101.24V8.49156H104.634V6.10098Z" fill="white"/>
<path d="M104.634 11.5223C103.677 12.1236 102.57 12.4308 101.446 12.4068C99.9954 12.4068 98.8192 11.9312 97.9176 10.9799C97.016 10.0286 96.5644 8.81822 96.5629 7.34865C96.5368 6.02872 97.0189 4.75069 97.9062 3.78723C98.3218 3.3133 98.8328 2.93598 99.4046 2.68092C99.9764 2.42586 100.595 2.29905 101.22 2.30912C101.972 2.29005 102.72 2.41725 103.426 2.68389C103.851 2.86479 104.256 3.09189 104.634 3.36126V0.593587C104.556 0.560998 104.478 0.528412 104.405 0.500479C103.415 0.159208 102.373 -0.00231475 101.327 0.0232905C99.1914 0.0232905 97.4233 0.738679 96.0229 2.16946C95.3442 2.84157 94.8078 3.64769 94.4466 4.53833C94.0853 5.42896 93.9069 6.38531 93.9222 7.34865C93.9222 9.46688 94.6087 11.2166 95.9817 12.5977C97.3547 13.9788 99.1495 14.6701 101.366 14.6717C102.482 14.6784 103.589 14.4813 104.636 14.0898L104.634 11.5223Z" fill="white"/>
<path d="M121.966 12.2625H119.618V14.653H121.966V12.2625Z" fill="white"/>
<path d="M110.51 12.2625H108.158V14.653H110.51V12.2625Z" fill="white"/>
<path d="M119.622 9.87422H121.97V0.0512085H119.46L115.089 6.9599L110.721 0.0512085H108.162V9.87422H110.515V4.22482L115.007 11.0707H115.089L119.622 4.18525V9.87422Z" fill="white"/>
<path d="M131.023 6.10097L132.471 3.03536L133.934 6.10097H136.341L133.682 0.0256042H131.343L128.687 6.10097H131.023Z" fill="white"/>
<path d="M137.277 8.50317H134.954H130.009H127.748L125.025 14.7368H127.609L129.179 10.7378H135.762L137.334 14.7368H140L137.277 8.50317Z" fill="white"/>
<path d="M19.8238 6.23598L21.2655 3.09122L22.7186 6.23598H25.1144L22.4691 0H20.1419L17.4966 6.23598H19.8238Z" fill="white"/>
<path d="M26.0481 8.68243H23.7368H18.8146H16.5629L13.8513 14.6228H16.4256L17.9886 10.9659H24.5378L26.1053 14.6228H28.7597L26.0481 8.68243Z" fill="white"/>
<path d="M61.0114 14.6391V0.0884399H63.3913V12.3882H65.8398V14.6391H61.0114Z" fill="white"/>
<path d="M36.9245 3.67083L34.1991 0.0907898H31.9062V14.667H34.3387V4.32725L36.9245 7.71642V3.67083Z" fill="white"/>
<path d="M41.7414 0.0907898V10.0977L39.2632 6.80861V10.796L42.103 14.5623H44.1762V0.0907898H41.7414Z" fill="white"/>
<path d="M50.2609 4.89288H47.9382V14.5692H50.2609V4.89288Z" fill="white"/>
<path d="M50.2609 0.0814819H47.9382V2.48835H50.2609V0.0814819Z" fill="white"/>
<path d="M57.1053 0.0488892H54.7666V4.61356H57.1053V0.0488892Z" fill="white"/>
<path d="M57.1053 8.51483H54.7666V14.6205H57.1053V8.51483Z" fill="white"/>
<path d="M55.9016 7.79323C56.5474 7.79323 57.0709 7.25026 57.0709 6.58048C57.0709 5.9107 56.5474 5.36774 55.9016 5.36774C55.2558 5.36774 54.7322 5.9107 54.7322 6.58048C54.7322 7.25026 55.2558 7.79323 55.9016 7.79323Z" fill="white"/>
<path d="M10.2517 2.12753C8.86651 0.755727 7.08085 0.0698242 4.89474 0.0698242H0V3.93851H2.33867V2.39755H4.89474C6.34859 2.39755 7.52174 2.8631 8.41419 3.79419C9.30664 4.72528 9.75286 5.90621 9.75286 7.33699C9.75286 8.78794 9.30664 9.97198 8.41419 10.8891C7.52174 11.8062 6.34859 12.2656 4.89474 12.2671H2.33867V11.1032H0V14.5948H4.89474C7.06712 14.5948 8.84973 13.9043 10.2426 12.5232C11.6354 11.142 12.3318 9.41565 12.3318 7.34397C12.3318 5.24126 11.6384 3.50244 10.2517 2.12753Z" fill="white"/>
<path d="M2.34325 6.22433H0V8.65448H2.34325V6.22433Z" fill="white"/>
</svg>
