<svg width="20" height="24" viewBox="0 0 20 24" fill="none" xmlns="http://www.w3.org/2000/svg">
<path d="M13.3087 19.5326L13.9763 18.4702C13.9763 18.4702 12.4611 19.0476 9.93063 19.0476C7.39549 19.0476 5.9046 18.493 5.9046 18.493L6.65004 19.6514L6.91189 23.2964C6.91189 23.6948 8.28719 24 9.99118 24C11.6905 24 13.0713 23.6948 13.0713 23.2964L13.3079 19.548L13.3087 19.5326ZM13.9527 12.6389C13.1499 12.6851 12.7441 13.5215 12.3384 14.4034C12.1913 14.7255 11.6802 16.1048 11.3476 15.9324C11.0118 15.7644 11.7777 14.6331 11.9948 13.9603C11.7455 14.1283 10.8365 14.7901 10.6022 14.1708C10.2255 14.4768 9.41873 14.6411 9.50837 13.8458C9.30786 14.1862 8.85729 14.6521 8.31707 14.4496C7.60859 14.1972 8.7299 12.0879 9.00905 12.1921C9.28662 12.3102 8.95165 12.7798 8.86515 12.9676C8.66778 13.3807 8.44761 13.9074 8.59465 14.0065C8.84864 14.1972 9.54454 13.3227 9.56106 13.3029C9.68766 13.1422 10.0612 12.1033 10.36 12.2222C10.6588 12.352 9.61453 13.7314 10.0038 14.0065C10.0816 14.0681 10.4056 13.9801 10.6014 13.7739C10.724 13.6595 10.6832 13.3653 11.1015 12.4291C11.5269 11.4892 11.9035 10.3197 12.1906 10.407C12.4807 10.4951 12.244 11.096 12.1371 11.3285C11.6496 12.3828 10.8098 14.1107 11.2029 13.9808C11.5961 13.8465 11.8013 13.8465 12.1945 13.4232C12.5877 12.9984 12.5554 12.2955 12.8204 12.3109C13.0752 12.3256 13.0414 12.5597 12.9808 12.7196C13.2301 12.4555 14.1847 11.8715 14.4057 12.4408C14.6762 13.1129 13.0414 14.0989 13.4471 14.0373C13.8403 13.9955 14.4827 13.614 14.7705 13.2618L15.5246 6.90297C15.5246 6.90297 14.754 7.49212 9.90075 7.49212C5.05143 7.49212 4.35945 6.91911 4.35945 6.91911L5.00189 12.7203C5.35023 11.8142 6.16566 9.9683 7.43952 10.0409C8.02063 10.0725 8.80224 11.1268 8.12757 11.1532C7.84449 11.1686 7.81225 10.6257 7.48513 10.5538C7.23429 10.512 6.90324 10.688 6.68622 10.8942C6.26081 11.2875 5.31799 12.8539 5.44459 13.633C5.60107 14.6272 6.91897 13.2934 7.13993 12.8994C7.29641 12.6206 7.4065 11.7842 7.7344 11.8722C8.08275 11.9595 7.70531 12.8267 7.45132 13.5722C7.16902 14.424 7.02591 15.3146 6.68622 15.2119C6.33787 15.1085 6.90324 14.0116 6.871 13.8209C6.5431 14.1151 5.94549 14.8179 5.16309 14.4665L5.55232 18.085C5.55232 18.085 6.62095 18.8605 9.82369 18.8605C13.0264 18.8605 14.1399 18.085 14.1399 18.085L14.6439 13.8935C14.2342 14.2758 12.9478 14.9324 12.87 14.1877C12.8094 13.5868 14.2665 12.724 13.8898 12.7049L13.9527 12.6389ZM15.6072 1.1751L12.8181 3.91541L12.3054 5.77603C14.2799 5.89049 15.652 6.15461 15.652 6.45175C15.652 6.86482 13.1208 7.19351 9.99983 7.19351C6.87887 7.19351 4.34766 6.85821 4.34766 6.44882C4.34766 6.04016 6.87887 5.69973 9.99983 5.69973C10.4425 5.69973 10.8845 5.69973 11.3272 5.71514L11.9122 3.49061L14.8727 0.559544C14.9474 0.471502 15.1684 0.544137 15.3729 0.705547C15.5734 0.854485 15.6842 1.04084 15.6221 1.12888V1.15896L15.6072 1.1751ZM11.5851 6.84574C11.5851 6.84574 11.0354 6.84574 10.9458 6.76577C10.9221 6.74176 10.9089 6.71035 10.9088 6.67773C10.9088 6.61977 10.9497 6.58969 11.0032 6.57134L11.048 6.64398C11.0268 6.65205 11.0197 6.65865 11.0158 6.66672C11.0158 6.70854 11.3429 6.73642 11.5969 6.73202C11.8477 6.72835 12.1544 6.70854 12.1544 6.67039C12.1544 6.65865 12.1292 6.64765 12.0883 6.63591L12.1379 6.56768C12.2039 6.58602 12.2605 6.62417 12.2605 6.6858C12.2605 6.79218 12.1135 6.81199 12.0191 6.823C11.9083 6.83841 11.589 6.84648 11.589 6.84648L11.5851 6.84574Z" fill="url(#paint0_linear_17_120)"/>
<defs>
<linearGradient id="paint0_linear_17_120" x1="4.34766" y1="12.2609" x2="15.652" y2="12.2609" gradientUnits="userSpaceOnUse">
<stop stop-color="#1FA2FF"/>
<stop offset="0.5" stop-color="#12D8FA"/>
<stop offset="1" stop-color="#A6FFCB"/>
</linearGradient>
</defs>
</svg>
