<?xml version="1.0" encoding="UTF-8" standalone="no"?>
<svg
   xmlns:dc="http://purl.org/dc/elements/1.1/"
   xmlns:cc="http://creativecommons.org/ns#"
   xmlns:rdf="http://www.w3.org/1999/02/22-rdf-syntax-ns#"
   xmlns:svg="http://www.w3.org/2000/svg"
   xmlns="http://www.w3.org/2000/svg"
   xmlns:sodipodi="http://sodipodi.sourceforge.net/DTD/sodipodi-0.dtd"
   xmlns:inkscape="http://www.inkscape.org/namespaces/inkscape"
   id="Capa_1"
   enable-background="new 0 0 512 512"
   height="512"
   viewBox="0 0 512 512"
   width="512"
   version="1.1"
   sodipodi:docname="cloud-icon.svg"
   inkscape:version="0.92.4 (5da689c313, 2019-01-14)">
  <metadata
     id="metadata837">
    <rdf:RDF>
      <cc:Work
         rdf:about="">
        <dc:format>image/svg+xml</dc:format>
        <dc:type
           rdf:resource="http://purl.org/dc/dcmitype/StillImage" />
        <dc:title></dc:title>
      </cc:Work>
    </rdf:RDF>
  </metadata>
  <defs
     id="defs835" />
  <sodipodi:namedview
     pagecolor="#ffffff"
     bordercolor="#666666"
     borderopacity="1"
     objecttolerance="10"
     gridtolerance="10"
     guidetolerance="10"
     inkscape:pageopacity="0"
     inkscape:pageshadow="2"
     inkscape:window-width="1920"
     inkscape:window-height="1020"
     id="namedview833"
     showgrid="false"
     inkscape:zoom="1.6660156"
     inkscape:cx="256"
     inkscape:cy="256"
     inkscape:window-x="-8"
     inkscape:window-y="-8"
     inkscape:window-maximized="1"
     inkscape:current-layer="Capa_1" />
  <g
     id="Cloud_1_"
     style="fill:#ffffff;fill-opacity:1">
    <g
       id="g829"
       style="fill:#ffffff;fill-opacity:1">
      <path
         d="m421 406h-330c-24.05 0-46.794-9.327-64.042-26.264-17.384-17.069-26.958-39.705-26.958-63.736s9.574-46.667 26.958-63.736c13.614-13.368 30.652-21.995 49.054-25.038-.008-.406-.012-.815-.012-1.226 0-66.168 53.832-120 120-120 24.538 0 48.119 7.387 68.194 21.363 14.132 9.838 25.865 22.443 34.587 37.043 14.079-8.733 30.318-13.406 47.219-13.406 44.886 0 82.202 33.026 88.921 76.056 18.811 2.88 36.244 11.581 50.122 25.208 17.383 17.069 26.957 39.704 26.957 63.736s-9.574 46.667-26.957 63.736c-17.249 16.937-39.993 26.264-64.043 26.264zm-330-150c-33.636 0-61 26.916-61 60s27.364 60 61 60h330c33.636 0 61-26.916 61-60s-27.364-60-61-60h-15v-15c0-33.084-26.916-60-60-60-15.766 0-30.68 6.12-41.995 17.233l-16.146 15.858-8.315-21.049c-13.689-34.651-46.482-57.042-83.544-57.042-49.626 0-90 40.374-90 90 0 3.544.556 7.349 1.144 11.378l2.687 18.622z"
         id="path827"
         style="fill:#ffffff;fill-opacity:1" />
    </g>
  </g>
</svg>
