<?xml version="1.0" encoding="iso-8859-1"?>
<!-- Generator: Adobe Illustrator 19.0.0, SVG Export Plug-In . SVG Version: 6.00 Build 0)  -->
<svg version="1.1" id="Layer_1" xmlns="http://www.w3.org/2000/svg" xmlns:xlink="http://www.w3.org/1999/xlink" x="0px" y="0px"
	 viewBox="0 0 512 512" style="enable-background:new 0 0 512 512;" xml:space="preserve">
<path style="fill:#3A5D74;" d="M509.671,357.063c-2.543-2.825-6.575-3.767-10.106-2.361c-30.773,12.254-63.458,18.466-97.147,18.466
	c-27.953,0-55.472-4.352-81.798-12.938l-26.99-10.488c-45.469-20.629-84.048-53.639-111.572-95.468
	c-28.28-42.982-43.229-93.016-43.229-144.692c0-33.69,6.213-66.373,18.466-97.144c1.406-3.531,0.463-7.564-2.361-10.106
	c-2.825-2.542-6.934-3.054-10.299-1.286C55.421,47.988,0,139.897,0,240.905c0,149.48,121.612,271.092,271.092,271.092
	c101.01,0,192.92-55.421,239.863-144.636C512.725,363.998,512.212,359.888,509.671,357.063z"/>
<path style="opacity:0.1;fill:#231F20;enable-background:new    ;" d="M284.14,498.382c-149.48,0-271.092-121.612-271.092-271.092
	c0-67.947,25.079-131.776,68.654-180.571C30.126,96.924,0,166.44,0,240.905c0,149.48,121.612,271.092,271.092,271.092
	c78.445,0,151.394-33.43,202.064-90.15C423.403,470.261,356.082,498.382,284.14,498.382z"/>
<g>
</g>
<g>
</g>
<g>
</g>
<g>
</g>
<g>
</g>
<g>
</g>
<g>
</g>
<g>
</g>
<g>
</g>
<g>
</g>
<g>
</g>
<g>
</g>
<g>
</g>
<g>
</g>
<g>
</g>
</svg>
