<svg width="20" height="20" viewBox="0 0 20 20" fill="none" xmlns="http://www.w3.org/2000/svg">
<path d="M16.625 1.25H2.875C1.83984 1.25 1 2.08984 1 3.125V16.875C1 17.9102 1.83984 18.75 2.875 18.75H16.625C17.6602 18.75 18.5 17.9102 18.5 16.875V3.125C18.5 2.08984 17.6602 1.25 16.625 1.25ZM10.5234 14.8984C10.5234 16.6016 9.52344 17.3789 8.06641 17.3789C6.75 17.3789 5.98828 16.6992 5.59766 15.875L6.9375 15.0664C7.19531 15.5234 7.42969 15.9102 7.99609 15.9102C8.53516 15.9102 8.87891 15.6992 8.87891 14.875V9.28516H10.5234V14.8984ZM14.4141 17.3789C12.8867 17.3789 11.8984 16.6523 11.418 15.6992L12.7578 14.9258C13.1094 15.5 13.5703 15.9258 14.3789 15.9258C15.0586 15.9258 15.4961 15.5859 15.4961 15.1133C15.4961 14.5508 15.0508 14.3516 14.2969 14.0195L13.8867 13.8438C12.6992 13.3398 11.9141 12.7031 11.9141 11.3633C11.9141 10.1289 12.8555 9.19141 14.3203 9.19141C15.3672 9.19141 16.1172 9.55469 16.6562 10.5078L15.375 11.3281C15.0938 10.8242 14.7891 10.625 14.3164 10.625C13.8359 10.625 13.5312 10.9297 13.5312 11.3281C13.5312 11.8203 13.8359 12.0195 14.543 12.3281L14.9531 12.5039C16.3516 13.1016 17.1367 13.7148 17.1367 15.0898C17.1367 16.5664 15.9727 17.3789 14.4141 17.3789Z" fill="url(#paint0_linear_17_118)"/>
<defs>
<linearGradient id="paint0_linear_17_118" x1="1" y1="10" x2="18.5" y2="10" gradientUnits="userSpaceOnUse">
<stop stop-color="#1FA2FF"/>
<stop offset="0.5" stop-color="#12D8FA"/>
<stop offset="1" stop-color="#A6FFCB"/>
</linearGradient>
</defs>
</svg>
