<svg width="20" height="20" viewBox="0 0 20 20" fill="none" xmlns="http://www.w3.org/2000/svg">
<path d="M18.4629 15.4167L10.3679 20V16.4283L15.4079 13.65L18.4629 15.4167ZM19.0179 14.9208V5.32083L16.0613 7.04667V13.1975L19.0179 14.9042V14.9208ZM1.55793 15.4167L9.65293 20V16.4283L4.61293 13.65L1.55793 15.4167ZM1.00293 14.9208V5.32083L3.9596 7.04667V13.1975L1.00293 14.9208ZM1.34043 4.7025L9.65376 0V3.4525L4.29626 6.40917L1.34043 4.7025ZM18.6813 4.7025L10.3679 0V3.4525L15.7246 6.40917L18.6813 4.7025ZM9.65376 15.615L4.6771 12.8758V7.43917L9.6571 10.3158L9.65376 15.615ZM10.3679 15.615L15.3479 12.8767V7.44L10.3679 10.3167V15.615ZM5.01043 6.825L10.0104 4.06667L15.0104 6.825L10.0104 9.7025L5.01043 6.825Z" fill="url(#paint0_linear_17_121)"/>
<defs>
<linearGradient id="paint0_linear_17_121" x1="1.00293" y1="10" x2="19.0179" y2="10" gradientUnits="userSpaceOnUse">
<stop stop-color="#1FA2FF"/>
<stop offset="0.5" stop-color="#12D8FA"/>
<stop offset="1" stop-color="#A6FFCB"/>
</linearGradient>
</defs>
</svg>
