<svg width="20" height="20" viewBox="0 0 20 20" fill="none" xmlns="http://www.w3.org/2000/svg">
<g clip-path="url(#clip0_17_122)">
<path d="M10.0426 1.49756e-05C6.12492 -0.00680502 2.4375 2.31626 0.74522 5.9934L5.5036 6.00471V6.52512C4.03838 6.3488 4.1674 7.10967 4.37482 7.91725L7.49848 15.7458L9.79438 10.364L8.7404 7.84184C8.35756 7.1663 8.34948 6.41683 6.78324 6.48741L6.80524 6.00785L13.7841 6.02484V6.56221C12.9668 6.61015 11.983 6.35674 12.5045 8.0304L15.3271 15.4448L16.8701 11.1163C17.3753 9.30183 16.8998 7.55812 16.2994 5.84822C15.9654 4.70112 16.1212 3.74313 17.618 3.36311C15.3333 1.03101 12.6375 0.00453498 10.0427 1.49756e-05H10.0426ZM19.5342 6.84502L15.0096 18.6388C16.2591 17.5566 17.5403 17.1627 19.1081 14.1683C20.1512 11.6776 20.0438 9.37033 19.5342 6.845V6.84502ZM0.2663 7.03608C-0.17532 10.5178 -0.13492 11.5375 0.95828 14.3807C2.38328 17.1038 3.48832 17.6775 5.05672 18.7457L0.26628 7.03608H0.2663ZM10.2192 11.4538L6.86618 19.5438C9.2198 20.2156 11.3257 20.1315 13.2536 19.3842L10.2192 11.4538V11.4538Z" fill="url(#paint0_linear_17_122)"/>
</g>
<defs>
<linearGradient id="paint0_linear_17_122" x1="0.00292969" y1="10.0001" x2="19.9096" y2="10.0001" gradientUnits="userSpaceOnUse">
<stop stop-color="#1FA2FF"/>
<stop offset="0.5" stop-color="#12D8FA"/>
<stop offset="1" stop-color="#A6FFCB"/>
</linearGradient>
<clipPath id="clip0_17_122">
<rect width="20" height="20" fill="white"/>
</clipPath>
</defs>
</svg>
