<svg xmlns="http://www.w3.org/2000/svg" width="28" height="28" viewBox="0 0 28 28"><g><g><path fill="#fc9b28" d="M27.232 13.769c0 7.455-6.044 13.5-13.5 13.5s-13.5-6.045-13.5-13.5c0-7.456 6.044-13.5 13.5-13.5s13.5 6.044 13.5 13.5z"/></g><g><path fill="#fff" d="M20.62 13.456l-4.205-4.672a.465.465 0 0 0-.347-.155h-2.803a.466.466 0 0 0-.348.78l3.924 4.36-3.924 4.358a.467.467 0 0 0 .348.78h2.803a.467.467 0 0 0 .347-.154l4.205-4.672a.467.467 0 0 0 0-.625z"/></g><g><path fill="#fff" d="M14.547 13.456l-4.205-4.672a.465.465 0 0 0-.347-.155H7.192a.466.466 0 0 0-.348.78l3.924 4.36-3.924 4.358a.467.467 0 0 0 .348.78h2.803a.467.467 0 0 0 .347-.154l4.205-4.672a.467.467 0 0 0 0-.625z"/></g></g></svg>