<svg xmlns="http://www.w3.org/2000/svg" width="18" height="12" viewBox="0 0 18 12"><g><g><path fill="#fff" d="M11.366 12.122a1.685 1.685 0 0 1-1.192-2.878l3.211-3.21-3.21-3.211A1.685 1.685 0 1 1 12.557.439l4.403 4.403a1.686 1.686 0 0 1 0 2.384l-4.403 4.402a1.68 1.68 0 0 1-1.192.494z"/></g><g><path fill="#fff" d="M1.813 12.122c-.432 0-.862-.165-1.192-.494a1.683 1.683 0 0 1 0-2.384l3.21-3.21-3.21-3.211A1.685 1.685 0 1 1 3.005.439l4.403 4.403a1.686 1.686 0 0 1 0 2.384l-4.402 4.402a1.68 1.68 0 0 1-1.192.494z"/></g></g></svg>