<svg xmlns="http://www.w3.org/2000/svg" width="21" height="22" viewBox="0 0 21 22"><g><g><path fill="#fbb03b" d="M18.56 12.752c1.339.152 2.343 1.194 2.344 2.43v4.896c-.001.773-.684 1.4-1.528 1.4h-2.113c-.157 0-.313-.022-.463-.066l-4.297-1.253-.924.27c.068.212.12.43.158.651a.387.387 0 0 1 .003.048c0 .193-.171.35-.382.35H5.63c-.843 0-1.526-.628-1.527-1.4v-4.06a42.545 42.545 0 0 1-1.448-4.198l-.58-1.266-.003-.005c-.078-.18.017-.384.213-.455l.26-.096L-.02 6.876a.33.33 0 0 1-.063-.3L.9 3.186a.35.35 0 0 1 .039-.086.403.403 0 0 1 .522-.127L4.82 4.77a.35.35 0 0 1 .185.251l.624 3.846.275-.1a.395.395 0 0 1 .494.19l.584 1.275c.467.728.92 1.501 1.353 2.303l1.544-.179h.003a.535.535 0 0 1 .036-.006c.174-.035.297-.176.295-.338v-.755a4.12 4.12 0 0 1-1.305-1.822c-.342-.534-.553-.898-.721-1.334a1.548 1.548 0 0 1-.47-.24c-.652-.49-.747-1.37-.213-1.969-.18-.66-.338-1.424-.292-2.216C7.276 2.5 7.97 1.31 9.374 1.27L10.71.79c1.618-.58 3.45-.337 4.82.64.078.053.16.117.255.195a4.025 4.025 0 0 1 1.31 1.962 4.06 4.06 0 0 1 .073 2.027c.405.247.657.656.679 1.102.038.771-.614 1.425-1.456 1.461l-.081.257c-.08 1.087-.625 2.102-1.516 2.823v.755c-.001.174.14.323.33.345zm1.58 3.772l-1.85-.282-2.144.983 3.994.367zm0-1.342c0-.883-.718-1.626-1.673-1.736l-3.113-.358c-.258.366-.6.678-1.002.913-1.543.902-3.592.487-4.577-.928l-1.09.126c.505.983.97 1.995 1.386 3.015.062.154.127.312.19.471l2.243.206 3.328-.305 2.228-1.02a.408.408 0 0 1 .234-.033l1.846.281zm-9.164-3.17c0 .324-.166.631-.448.83.13.16.282.302.452.426 1.1.805 2.706.638 3.584-.372a1.03 1.03 0 0 1-.533-.885v-.285a3.5 3.5 0 0 1-1.424.302H12.4a3.503 3.503 0 0 1-1.424-.302zm2.046-6.285a.864.864 0 0 1 .703-.349h1.757c.026 0 .05.001.076.003v-.703H14.03c-.686 0-1.225-.452-1.747-.888-.531-.443-1.032-.862-1.657-.862h-.414v.488a4.2 4.2 0 0 1-.49 1.962h1.559c.284 0 .548.132.703.35zm-3.573.981c0 .038.034.07.077.07h1.756c.042 0 .076-.032.076-.07v-.56c0-.039-.034-.07-.076-.07H9.526c-.043 0-.077.031-.077.07zm4.2 0c0 .038.034.07.076.07h1.757c.042 0 .076-.032.076-.07v-.56c0-.039-.034-.07-.076-.07h-1.757c-.042 0-.076.031-.076.07zm2.673.77c.422 0 .764-.314.764-.7 0-.388-.342-.7-.764-.7zM7.975 3.71c-.036.603.067 1.204.2 1.747.165-.054.337-.08.51-.08h.17a3.564 3.564 0 0 0 .594-1.962v-.839c0-.193.17-.35.382-.35h.796c.92 0 1.586.556 2.172 1.046.433.363.842.704 1.232.704h1.909c.21 0 .382.158.382.35v1.051c.039 0 .078.001.117.004a3.378 3.378 0 0 0-1.372-3.398l-.004-.003c-1.16-.826-2.706-1.03-4.073-.54l-1.401.503a.417.417 0 0 1-.14.025c-1.018 0-1.43.938-1.474 1.742zm.71 2.366c-.421 0-.763.313-.763.7 0 .387.342.7.763.7zm.764 2.072c-.001 1.024.495 1.994 1.354 2.65a2.644 2.644 0 0 0 1.597.53h.207a2.649 2.649 0 0 0 1.598-.53c.802-.613 1.29-1.5 1.347-2.455V8.34c.005-.064.006-.866.006-.866-.025.002-1.833.003-1.833.003-.463 0-.84-.344-.84-.769v-.28h-.763v.28c-.001.425-.377.77-.84.77 0 0-1.808-.002-1.833-.004zm-.094 8.31a37.47 37.47 0 0 0-1.586-3.393 34.77 34.77 0 0 0-1.294-2.243l-2.998 1.101a41.592 41.592 0 0 0 1.36 3.895l.865-.132c-.192-.439-.38-.895-.561-1.36l.72-.235c.197.507.403 1.004.613 1.477l.24-.036a.405.405 0 0 1 .233.032l2.228 1.021.24.022a9.337 9.337 0 0 1-.06-.149zM5.839 9.544l-2.91 1.067.298.65 2.91-1.068zm-2.558.184L4.9 9.134 4.277 5.29 2.064 4.106l1.082 2.365c.274.03.51.192.618.424a.642.642 0 0 1 0 .537.74.74 0 0 1-.424.38c-.392.144-.837-.025-1.004-.38a.636.636 0 0 1 0-.536.688.688 0 0 1 .103-.16L1.35 4.357.703 6.591zm7.61 11.05a3.583 3.583 0 0 0-.04-.138l-.473.138zm.352-.987l-2.27-.66-2.54-.44-1.565.574v.813c0 .387.34.7.763.7h2.112a.924.924 0 0 0 .234-.033l3.017-.88zm8.897-1.496L9.029 17.276a.397.397 0 0 1-.132-.035l-2.18-.999-1.85.282v1.987l1.386-.508a.413.413 0 0 1 .212-.019l2.673.461c.015.003.03.006.045.011l7.849 2.29a.823.823 0 0 0 .232.032h2.112c.422 0 .764-.313.764-.7z"/></g></g></svg>