<svg xmlns="http://www.w3.org/2000/svg" width="19" height="18" viewBox="0 0 19 18"><g><g><path fill="#fbb03b" d="M.13-.022h3.983v5.007H.13zm1.055 3.681h1.874V1.305H1.185z"/></g><g><path fill="#fbb03b" d="M5.379-.022H18.13v5.007H5.379zm11.697 1.327H6.434v2.354h10.642z"/></g><g><path fill="#fbb03b" d="M.13 6.474h3.983v5.007H.13zm1.055 3.681h1.874V7.801H1.185z"/></g><g><path fill="#fbb03b" d="M5.379 6.474H18.13v5.007H5.379zm1.055 3.681h10.642V7.801H6.434z"/></g><g><path fill="#fbb03b" d="M.13 12.972h3.983v5.007H.13zm1.055 3.68h1.874v-2.354H1.185z"/></g><g><path fill="#fbb03b" d="M5.379 12.972H18.13v5.007H5.379zm1.055 3.68h10.642v-2.354H6.434z"/></g></g></svg>