<svg xmlns="http://www.w3.org/2000/svg" width="20" height="20" viewBox="0 0 20 20"><g><g><path fill="#fbb03b" d="M17.223-.022c1.515 0 2.749 1.34 2.749 2.988v9.646c0 1.648-1.234 2.99-2.75 2.99H8.5l-5.787 4.376v-4.377c-1.512-.006-2.74-1.344-2.74-2.989V2.966c0-1.648 1.234-2.988 2.75-2.988zM18.8 2.966c0-.945-.707-1.714-1.577-1.714H2.722c-.87 0-1.578.77-1.578 1.714v9.646c0 .946.708 1.715 1.578 1.715h1.162v3.213l4.248-3.213h9.09c.87 0 1.578-.769 1.578-1.715z"/></g><g><path fill="#fbb03b" d="M5.325 4.479h9.294v1.273H5.325z"/></g><g><path fill="#fbb03b" d="M5.325 7.196h9.294v1.273H5.325z"/></g><g><path fill="#fbb03b" d="M5.325 9.914h9.294v1.273H5.325z"/></g></g></svg>