<svg xmlns="http://www.w3.org/2000/svg" width="30" height="34" viewBox="0 0 30 34"><g><g><path fill="#fff" d="M2.582 34.058c-.505-.15-.984-.331-1.356-.74a2.276 2.276 0 0 1-.608-1.573c-.004-2.504-.021-5.008.004-7.511.018-1.688 1.558-2.74 3.136-2.148.81.305 1.432 1.075 1.428 2.226-.005 1.599 0 3.198 0 4.796 0 .369 0 .369.354.369h19.02c.354 0 .354-.001.354-.345 0-1.596.001-3.197-.002-4.795-.002-.814.278-1.498.946-1.981.697-.504 1.475-.58 2.249-.248.767.329 1.232.935 1.343 1.782.023.165.032.337.032.504.002 2.396 0 4.796.004 7.192.001.663-.162 1.257-.632 1.753-.316.332-.703.529-1.136.656-.068.018-.134.042-.201.063z"/></g><g><path fill="#fff" d="M15.37.702c.324.138.679.227.97.417.68.445.986 1.12 1.002 1.923.01.444.003.89.003 1.332v14.62c.23-.219.414-.388.59-.565.803-.8 1.594-1.612 2.408-2.405a2.29 2.29 0 0 1 2.823-.278 2.315 2.315 0 0 1 .91 2.714c-.184.506-.565.872-.936 1.243-1.241 1.24-2.482 2.483-3.727 3.72-.941.938-1.875 1.883-2.834 2.806-.85.818-2.278.826-3.255-.164-1.433-1.45-2.884-2.884-4.323-4.329-.873-.882-1.765-1.746-2.6-2.662-.581-.64-.65-1.439-.35-2.226.309-.812.935-1.302 1.803-1.438.925-.14 1.618.287 2.233.927.806.834 1.638 1.645 2.459 2.467.049.047.109.086.215.174v-.372L12.76 3.21c0-.623.137-1.195.547-1.684.325-.387.742-.624 1.224-.759.069-.017.132-.042.2-.065z"/></g></g></svg>