<svg xmlns="http://www.w3.org/2000/svg" width="76.242" height="76.241" viewBox="0 0 76.242 76.241">
  <g id="Group_77" data-name="Group 77" transform="translate(-1281.884 -1796.431)">
    <g id="Group_76" data-name="Group 76">
      <path id="Path_330" data-name="Path 330" d="M1352.773,1834.558a32.752,32.752,0,0,1-25.086,31.846,31.758,31.758,0,0,1-7.689.929c-.737,0-1.461-.027-2.185-.082a32.77,32.77,0,1,1,34.96-32.693Z" fill="#1e4fad"/>
      <path id="Path_331" data-name="Path 331" d="M1326.936,1797.059a39.109,39.109,0,0,0-6.938-.628,37.985,37.985,0,0,0-14.926,3.031.689.689,0,0,0-.355.9.668.668,0,0,0,.628.409.593.593,0,0,0,.26-.054,36.841,36.841,0,0,1,21.085-2.308.687.687,0,0,0,.805-.56A.68.68,0,0,0,1326.936,1797.059Zm21.658,12.29a38.18,38.18,0,0,0-6.787-6.063.682.682,0,0,0-.956.164.664.664,0,0,0,.178.942,37.617,37.617,0,0,1,6.541,5.859.706.706,0,0,0,.519.232.649.649,0,0,0,.45-.178A.661.661,0,0,0,1348.594,1809.349Zm-59.472,4.015a.669.669,0,0,0-.942.191,36.8,36.8,0,0,0-2.936,5.326.669.669,0,0,0,.327.9.715.715,0,0,0,.287.054.706.706,0,0,0,.628-.4,35.427,35.427,0,0,1,2.827-5.134A.681.681,0,0,0,1289.122,1813.364Zm65.945,6.227a36.677,36.677,0,0,0-2.827-5.38.694.694,0,0,0-.942-.219.685.685,0,0,0-.2.943,36.046,36.046,0,0,1,2.718,5.189.709.709,0,0,0,.628.423.9.9,0,0,0,.273-.054A.693.693,0,0,0,1355.067,1819.591Zm-71.039,4.534a.693.693,0,0,0-.847.478,39.358,39.358,0,0,0-1.3,9.013.7.7,0,0,0,.669.71h.014a.691.691,0,0,0,.683-.669,36.532,36.532,0,0,1,1.256-8.7A.689.689,0,0,0,1284.028,1824.125Zm73.415,9.751a.676.676,0,0,0-.683.682,36.6,36.6,0,0,1-6.118,20.307.68.68,0,0,0,.192.942.61.61,0,0,0,.368.109.645.645,0,0,0,.574-.3,37.927,37.927,0,0,0,6.35-21.058A.684.684,0,0,0,1357.443,1833.876Zm-57.724,31.34a36.754,36.754,0,0,1-13.574-16.3.679.679,0,0,0-.888-.369.7.7,0,0,0-.369.9,38.226,38.226,0,0,0,14.08,16.919.728.728,0,0,0,.382.11.653.653,0,0,0,.56-.314A.669.669,0,0,0,1299.719,1865.216Zm40.736.71a.67.67,0,0,0-.942-.218,36.631,36.631,0,0,1-7.934,3.742.684.684,0,0,0-.437.86.7.7,0,0,0,.655.478.553.553,0,0,0,.2-.041,38.257,38.257,0,0,0,8.248-3.878A.685.685,0,0,0,1340.455,1865.926Zm-14.571,4.917a36.172,36.172,0,0,1-5.845.464.685.685,0,0,0-.683.683.676.676,0,0,0,.683.682,39.048,39.048,0,0,0,6.064-.477.685.685,0,0,0-.219-1.352Z" fill="#1e4fad"/>
    </g>
    <path id="Path_332" data-name="Path 332" d="M1327.7,1828.509c-.054,2.035-.082,6.746-.082,6.746h9.368c-.423,3.25-.833,6.377-1.242,9.518h-8.057V1866.4a31.758,31.758,0,0,1-7.689.929c-.737,0-1.461-.027-2.185-.082v-22.505h-8.07v-9.491h8.125v-.71c0-1.912-.041-3.81,0-5.722a27.145,27.145,0,0,1,.3-3.646,10.647,10.647,0,0,1,4.261-7.088,12.322,12.322,0,0,1,7.1-2.185c1.68-.041,3.346.041,5.026.11.915.054,1.829.177,2.69.259v8.494h-.669c-1.639,0-3.264-.041-4.9.014C1329.435,1824.863,1327.782,1825.709,1327.7,1828.509Z" fill="#fff" fill-rule="evenodd"/>
  </g>
</svg>
