<svg xmlns="http://www.w3.org/2000/svg" width="24" height="24" viewBox="0 0 24 24"><g><g><path fill="#245a9b" d="M.564 12.193C.564 5.72 5.832.45 12.307.45c6.476 0 11.744 5.27 11.744 11.743 0 6.476-5.268 11.744-11.744 11.744C5.832 23.937.564 18.67.564 12.193zm1.262 0c0 5.781 4.7 10.483 10.48 10.483S22.79 17.974 22.79 12.193c0-5.779-4.702-10.48-10.482-10.48-5.78 0-10.481 4.701-10.481 10.48z"/></g><g><path fill="#245a9b" d="M10.465 12.25v6.806c0 .097.08.176.177.176h2.528a.176.176 0 0 0 .177-.176v-6.918h1.832a.177.177 0 0 0 .177-.162l.176-2.084a.177.177 0 0 0-.176-.193h-2.009V8.221c0-.347.281-.627.627-.627h1.413c.098 0 .177-.08.177-.178V5.332a.178.178 0 0 0-.177-.178H13a2.536 2.536 0 0 0-2.535 2.536V9.7H9.201a.178.178 0 0 0-.177.177v2.084c0 .098.08.177.177.177h1.264z"/></g></g></svg>