<svg xmlns="http://www.w3.org/2000/svg" width="24" height="24" viewBox="0 0 24 24"><g><g><path fill="#007bbc" d="M.627 12.194C.627 5.73 5.887.47 12.351.47s11.724 5.26 11.724 11.724c0 6.465-5.26 11.724-11.724 11.724S.627 18.658.627 12.194zm1.262 0c0 5.768 4.693 10.462 10.462 10.462 5.77 0 10.462-4.694 10.462-10.462 0-5.77-4.693-10.462-10.462-10.462S1.89 6.425 1.89 12.194z"/></g><g><path fill="#007bbc" d="M18.98 17.464a.195.195 0 0 1-.197.195h-2.26a.195.195 0 0 1-.196-.195v-4.072c0-1.07-.383-1.802-1.343-1.802-.732 0-1.167.492-1.36.97-.07.17-.088.407-.088.645v4.26a.195.195 0 0 1-.196.194h-2.258a.196.196 0 0 1-.197-.195c.006-1.084.03-6.345.005-7.58a.196.196 0 0 1 .196-.2h2.255c.108 0 .196.088.196.197v.933l-.018.027h.018v-.027c.352-.542.98-1.317 2.39-1.317 1.744 0 3.052 1.141 3.052 3.59zm-12.016.195a.195.195 0 0 1-.196-.195V9.881c0-.109.088-.197.196-.197h2.26c.107 0 .195.088.195.197v7.583a.195.195 0 0 1-.196.195z"/></g><g><path fill="#007bbc" d="M9.434 7.251a1.419 1.419 0 1 1-2.838.001 1.419 1.419 0 0 1 2.838 0z"/></g></g></svg>