<svg xmlns="http://www.w3.org/2000/svg" width="24" height="24" viewBox="0 0 24 24"><defs><linearGradient id="op5da" x1="2.9" x2="31.85" y1="20.22" y2="-4.43" gradientUnits="userSpaceOnUse"><stop offset="0" stop-color="#ffe185"/><stop offset="0" stop-color="#ffe185"/><stop offset=".21" stop-color="#ffbb36"/><stop offset=".38" stop-color="#ff5176"/><stop offset=".52" stop-color="#f63395"/><stop offset=".74" stop-color="#a436d2"/><stop offset="1" stop-color="#5f4eed"/></linearGradient></defs><g><g><path fill="url(#op5da)" d="M12.424 9.871a2.324 2.324 0 0 1 2.323 2.324 2.324 2.324 0 0 1-4.647 0 2.327 2.327 0 0 1 2.324-2.324zm0 5.949a3.63 3.63 0 0 0 3.628-3.625 3.63 3.63 0 0 0-3.628-3.628 3.63 3.63 0 0 0-3.625 3.628 3.629 3.629 0 0 0 3.625 3.625zm3.837-6.632a.863.863 0 1 0 .002-1.726.863.863 0 0 0-.002 1.726zm-9.819-.007a3.037 3.037 0 0 1 3.04-3.039h5.836a3.04 3.04 0 0 1 3.04 3.039v5.837a3.04 3.04 0 0 1-3.04 3.039H9.482a3.037 3.037 0 0 1-3.04-3.039zm3.04-4.423a4.424 4.424 0 0 0-4.424 4.423v5.837a4.424 4.424 0 0 0 4.424 4.423h5.836a4.424 4.424 0 0 0 4.424-4.423V9.181a4.424 4.424 0 0 0-4.424-4.423zm2.848-3.123c5.822 0 10.556 4.738 10.556 10.56S18.152 22.751 12.33 22.751c-5.822 0-10.56-4.734-10.56-10.556 0-5.822 4.738-10.56 10.56-10.56zm0 22.226c6.432 0 11.665-5.233 11.665-11.666C23.995 5.762 18.762.529 12.33.529 5.897.529.664 5.762.664 12.195c0 6.433 5.233 11.666 11.666 11.666z"/></g></g></svg>