<svg xmlns="http://www.w3.org/2000/svg" width="21" height="22" viewBox="0 0 21 22"><g><g><path fill="#fbb03b" d="M2.389 21.979c-1.148 0-2.083-1.027-2.083-2.292V6.854c0-1.265.935-2.292 2.083-2.292h5.833c.23 0 .417.205.417.458 0 .254-.187.459-.417.459H2.389c-.69 0-1.25.617-1.25 1.375v12.833c0 .758.56 1.375 1.25 1.375h13.16l3.923-4.314V6.854c0-.758-.561-1.375-1.25-1.375h-5.833c-.23 0-.417-.205-.417-.46 0-.252.187-.457.417-.457h5.833c1.148 0 2.084 1.027 2.084 2.292v10.083a.487.487 0 0 1-.122.324l-4.167 4.584a.401.401 0 0 1-.295.134z"/></g><g><path fill="#fbb03b" d="M15.722 21.979c-.23 0-.417-.205-.417-.458v-4.584c0-.253.187-.458.417-.458h4.167c.23 0 .416.205.416.458s-.186.459-.416.459h-3.75v4.125c0 .253-.187.458-.417.458z"/></g><g><path fill="#fbb03b" d="M10.305 8.229c-.23 0-.417-.205-.417-.458V3.187c0-.253.187-.458.417-.458.23 0 .417.205.417.458V7.77c0 .253-.187.458-.417.458z"/></g><g><path fill="#fbb03b" d="M8.638 1.812c0-1.011.748-1.833 1.667-1.833.92 0 1.667.822 1.667 1.833 0 1.01-.748 1.833-1.667 1.833S8.638 2.821 8.638 1.81zm.834 0c0 .506.374.917.833.917.46 0 .833-.411.833-.917s-.374-.917-.833-.917c-.459 0-.833.41-.833.917z"/></g><g><path fill="#fbb03b" d="M16.555 10.979h-12.5c-.23 0-.417-.205-.417-.458 0-.255.187-.46.417-.46h12.5c.23 0 .417.206.417.46 0 .252-.187.457-.417.457z"/></g><g><path fill="#fbb03b" d="M16.555 14.646h-12.5c-.23 0-.417-.207-.417-.46 0-.252.187-.457.417-.457h12.5c.23 0 .417.205.417.458s-.187.459-.417.459z"/></g><g><path fill="#fbb03b" d="M13.222 18.311H4.055c-.23 0-.416-.205-.416-.458s.187-.458.416-.458h9.167c.23 0 .417.206.417.459s-.187.458-.417.458z"/></g></g></svg>