<svg xmlns="http://www.w3.org/2000/svg" width="24" height="24" viewBox="0 0 24 24"><g><g><path fill="red" d="M.671 12.194C.671 5.73 5.931.47 12.396.47c6.463 0 11.723 5.26 11.723 11.724 0 6.465-5.26 11.724-11.723 11.724C5.93 23.918.67 18.658.67 12.194zm1.262 0c0 5.768 4.693 10.462 10.463 10.462 5.768 0 10.461-4.694 10.461-10.462 0-5.77-4.692-10.462-10.461-10.462-5.77 0-10.462 4.693-10.462 10.462z"/></g><g><path fill="red" d="M13.29 15.955c-.837-.064-1.19-.48-1.848-.88-.294 1.537-.639 3.024-1.457 4.037-.237.295-.717.147-.736-.232-.125-2.449.721-4.394 1.137-6.446-.788-1.329.096-4.002 1.76-3.343 2.05.81-1.774 4.94.792 5.456 2.68.54 3.774-4.65 2.112-6.337-2.4-2.437-6.989-.055-6.425 3.433.107.663.664.966.593 1.622a.583.583 0 0 1-.835.467c-1.063-.497-1.392-1.585-1.342-2.969.095-2.645 2.377-4.497 4.665-4.753 2.894-.325 5.61 1.062 5.985 3.785.422 3.072-1.307 6.4-4.4 6.16z"/></g></g></svg>