<svg xmlns="http://www.w3.org/2000/svg" width="21" height="26" viewBox="0 0 21 26"><g><g><path fill="#fff" d="M8.664 16.91c-.022.074-.042.137-.058.2-.945 3.703-1.05 4.526-2.022 6.246a19.215 19.215 0 0 1-1.562 2.334c-.066.083-.127.192-.257.165-.143-.03-.154-.158-.17-.272a19.93 19.93 0 0 1-.203-3.39c.049-1.48.232-1.989 2.14-10.013a.564.564 0 0 0-.044-.335c-.456-1.233-.547-2.483-.148-3.75.864-2.737 3.967-2.947 4.51-.689.334 1.398-.551 3.225-1.23 5.927-.561 2.23 2.063 3.814 4.306 2.186 2.068-1.5 2.87-5.096 2.718-7.645-.301-5.082-5.874-6.18-9.41-4.544C3.18 5.204 2.26 10.228 4.09 12.524c.232.292.41.471.334.767-.118.46-.222.923-.35 1.38-.094.341-.378.465-.722.324a4.146 4.146 0 0 1-1.693-1.268c-1.555-1.924-2-5.73.056-8.954C3.992 1.203 8.227-.24 12.093.196c4.617.526 7.537 3.681 8.083 7.261.249 1.63.07 5.651-2.22 8.493-2.632 3.266-6.901 3.482-8.87 1.478-.152-.154-.274-.334-.422-.518z"/></g></g></svg>