<svg xmlns="http://www.w3.org/2000/svg" width="15.314" height="16.197" viewBox="0 0 15.314 16.197">
                    <g id="Group_103" data-name="Group 103" transform="translate(-525.567 -136.154)">
                      <g id="Group_102" data-name="Group 102">
                        <path id="Path_234" data-name="Path 234"
                          d="M533.224,140.493a3.759,3.759,0,1,0,2.658,1.1A3.746,3.746,0,0,0,533.224,140.493Zm2.456,6.216a3.473,3.473,0,1,1,1.018-2.457A3.465,3.465,0,0,1,535.68,146.709Z"
                          fill="#333333" stroke="#333333" stroke-miterlimit="10" stroke-width="0.5"
                          fill-rule="evenodd" />
                        <path id="Path_235" data-name="Path 235"
                          d="M540.26,146.287l-1.317-.76a5.53,5.53,0,0,0,.1-.562,5.92,5.92,0,0,0,0-1.425,5.531,5.531,0,0,0-.1-.562l1.317-.76a.739.739,0,0,0,.27-1.007h0l-1.011-1.75a.207.207,0,0,0-.016-.029.737.737,0,0,0-.981-.266.136.136,0,0,0-.033.019l-1.3.752a5.889,5.889,0,0,0-2.2-1.276v-1.52a.739.739,0,0,0-.738-.737h-2.038a.737.737,0,0,0-.738.737v1.52a5.884,5.884,0,0,0-2.206,1.276l-1.3-.752a.168.168,0,0,0-.029-.017.737.737,0,0,0-.985.264.217.217,0,0,0-.017.029l-1.01,1.751a.736.736,0,0,0,.269,1.006h0l1.317.76q-.062.277-.1.562a5.79,5.79,0,0,0,0,1.425c.023.189.055.377.1.562l-1.306.754-.011.006a.736.736,0,0,0-.269,1.006l1.013,1.756.006.01a.739.739,0,0,0,.995.277l.012-.007,1.318-.761a5.849,5.849,0,0,0,2.2,1.275v1.52a.739.739,0,0,0,.738.738h2.038a.741.741,0,0,0,.738-.738v-1.52a5.869,5.869,0,0,0,2.2-1.275l1.317.761h0a.739.739,0,0,0,1.007-.27h0l1.014-1.755.006-.01a.739.739,0,0,0,.073-.56A.73.73,0,0,0,540.26,146.287Zm-.059.816-.006.011-1.013,1.755h0a.36.36,0,0,1-.487.131h0l-1.44-.832a.19.19,0,0,0-.231.032,5.533,5.533,0,0,1-1.062.8,5.455,5.455,0,0,1-1.223.52.19.19,0,0,0-.138.183v1.661a.358.358,0,0,1-.357.357h-2.038a.36.36,0,0,1-.252-.1.355.355,0,0,1-.1-.252V149.7a.191.191,0,0,0-.147-.186,5.475,5.475,0,0,1-2.28-1.32.191.191,0,0,0-.227-.028l-1.44.832-.008.005a.362.362,0,0,1-.48-.136l-.006-.01-1.013-1.755a.359.359,0,0,1,.13-.488l.011-.006,1.428-.825a.19.19,0,0,0,.09-.21h0a5.368,5.368,0,0,1-.12-.655,5.584,5.584,0,0,1,0-1.335,5.524,5.524,0,0,1,.12-.655.19.19,0,0,0-.1-.216l-1.429-.825h0a.361.361,0,0,1-.165-.217.355.355,0,0,1,.035-.271l1.019-1.765h0a.359.359,0,0,1,.488-.131l.01.006,1.431.825a.188.188,0,0,0,.225-.027h0a5.486,5.486,0,0,1,2.288-1.323.191.191,0,0,0,.139-.183v-1.662a.358.358,0,0,1,.357-.356h2.038a.358.358,0,0,1,.357.356V138.8a.189.189,0,0,0,.146.185,5.414,5.414,0,0,1,1.215.518,5.506,5.506,0,0,1,1.066.8.188.188,0,0,0,.236.021l1.431-.825a.357.357,0,0,1,.487.131l.007.01L540.2,141.4h0a.36.36,0,0,1-.13.488l-1.44.831a.19.19,0,0,0-.089.209h0a5.538,5.538,0,0,1,.121.655,5.489,5.489,0,0,1-.121,1.99.192.192,0,0,0,.1.216l1.429.825a.359.359,0,0,1,.13.487Z"
                          fill="#333333" stroke="#333333" stroke-miterlimit="10" stroke-width="0.5"
                          fill-rule="evenodd" />
                      </g>
                    </g>
                  </svg>