<svg xmlns="http://www.w3.org/2000/svg" width="15" height="14" viewBox="0 0 15 14"><g><g><path fill="#b3b3b3" d="M12.993 7.56a1.44 1.44 0 0 0 1.438-1.438V1.52A1.44 1.44 0 0 0 12.993.08h-1.726c-.324 0-.622.11-.863.293V7.56z"/></g><g><path fill="#b3b3b3" d="M.625 5.403c0 .346.137.668.374.905a1.43 1.43 0 0 0-.368 1.099c.067.73.726 1.304 1.5 1.304h3.554c-.176.535-.458 1.514-.458 2.3 0 1.249 1.06 2.302 1.726 2.302.598 0 1.025-.336 1.043-.35a.292.292 0 0 0 .108-.225v-1.951l1.657-3.59.068-.034V.997c-.468-.221-1.06-.34-1.437-.34H3.11c-.626 0-1.174.422-1.303 1.005-.067.3-.028.6.104.864a1.286 1.286 0 0 0-.576 1.727c-.425.213-.71.65-.71 1.15z"/></g></g></svg>