<svg xmlns="http://www.w3.org/2000/svg" width="15" height="14" viewBox="0 0 15 14"><g><g><path fill="#b3b3b3" d="M2.083 5.808c-.789 0-1.432.643-1.432 1.432v4.58c0 .79.643 1.432 1.432 1.432h1.718c.322 0 .619-.11.858-.29V5.808z"/></g><g><path fill="#b3b3b3" d="M14.395 7.955c0-.345-.137-.665-.373-.9a1.42 1.42 0 0 0 .366-1.095c-.066-.728-.722-1.298-1.493-1.298H9.358c.176-.532.456-1.507.456-2.29 0-1.243-1.056-2.29-1.718-2.29-.596 0-1.02.334-1.038.348a.284.284 0 0 0-.107.223v1.943L5.3 6.168l-.068.035v6.138c.466.22 1.056.338 1.432.338h5.255c.624 0 1.17-.42 1.298-1a1.29 1.29 0 0 0-.103-.86 1.282 1.282 0 0 0 .573-1.719c.423-.213.707-.649.707-1.145z"/></g></g></svg>