<svg xmlns="http://www.w3.org/2000/svg" width="27" height="23" viewBox="0 0 27 23"><g><g><path fill="#fff" d="M7.98 17.826c-2.926-.103-4.754-2.2-5.238-3.906a5.61 5.61 0 0 0 2.413-.073c.021-.004.041-.019.08-.037-1.583-.369-2.806-1.215-3.654-2.583-.563-.907-.833-1.9-.824-2.992a5.553 5.553 0 0 0 2.504.682C2.07 8.06 1.27 6.937.945 5.504.62 4.071.83 2.711 1.549 1.427c3.047 3.588 6.904 5.557 11.608 5.88-.033-.222-.068-.419-.091-.616-.156-1.323.107-2.558.823-3.679.895-1.405 2.174-2.277 3.816-2.544 1.893-.31 3.545.23 4.927 1.57.094.088.17.117.3.088A11.347 11.347 0 0 0 26.206.867.739.739 0 0 1 26.28.83c.005-.004.014-.003.037-.003-.445 1.31-1.256 2.317-2.41 3.062 1.09-.119 2.13-.409 3.135-.843a.3.3 0 0 0 .022.025c-.215.282-.423.57-.647.844a10.956 10.956 0 0 1-2.046 1.944c-.064.048-.095.095-.092.177a15.47 15.47 0 0 1-.106 2.5 16.539 16.539 0 0 1-1.45 5.011 16.172 16.172 0 0 1-3.042 4.436c-2.143 2.216-4.726 3.646-7.734 4.31a16.853 16.853 0 0 1-3.135.373c-3.245.096-6.245-.712-9.006-2.417-.035-.02-.07-.046-.132-.086 1.964.211 3.832-.04 5.63-.776a11.183 11.183 0 0 0 2.676-1.56z"/></g></g></svg>