<svg xmlns="http://www.w3.org/2000/svg" width="24" height="24" viewBox="0 0 24 24"><g><g><path fill="#0cf" d="M.542 12.193C.542 5.72 5.809.45 12.285.45c6.475 0 11.743 5.27 11.743 11.743 0 6.476-5.268 11.744-11.743 11.744C5.809 23.937.542 18.67.542 12.193zm1.26 0c0 5.781 4.703 10.483 10.483 10.483s10.482-4.702 10.482-10.483c0-5.779-4.702-10.48-10.482-10.48-5.78 0-10.482 4.701-10.482 10.48z"/></g><g><path fill="#0cf" d="M19.034 7.908c-.435.196-.914.315-1.383.395.223-.038.551-.44.682-.604.201-.249.368-.532.461-.839.012-.023.021-.054-.003-.07-.03-.014-.049-.007-.073.005a7.103 7.103 0 0 1-1.642.628.11.11 0 0 1-.114-.03c-.048-.054-.093-.105-.143-.147a2.913 2.913 0 0 0-.796-.487 2.751 2.751 0 0 0-1.22-.197c-.403.027-.8.14-1.158.327a2.998 2.998 0 0 0-.934.763c-.263.325-.458.71-.557 1.117-.097.393-.089.782-.03 1.18.01.065.003.074-.056.065-2.256-.335-4.126-1.143-5.644-2.873-.066-.075-.102-.075-.156.006-.664.996-.34 2.596.488 3.382.111.105.224.21.347.305-.045.01-.597-.05-1.089-.305-.066-.042-.099-.018-.105.057-.006.107.003.206.018.323.128 1.01.826 1.942 1.784 2.307.113.047.24.09.362.111-.219.048-.443.082-1.069.032-.077-.014-.107.025-.077.1.47 1.28 1.484 1.661 2.244 1.88.101.016.203.016.305.04-.006.01-.012.01-.018.018-.252.384-1.126.67-1.532.813a5.488 5.488 0 0 1-2.328.298c-.126-.019-.15-.018-.186 0-.034.021-.004.05.037.083.158.105.32.198.484.288a7.801 7.801 0 0 0 1.556.622c2.796.772 5.946.205 8.045-1.88 1.65-1.64 2.227-3.899 2.227-6.16 0-.089.105-.138.167-.185.43-.322.77-.708 1.09-1.139.072-.096.067-.182.067-.217v-.012c0-.036.005-.025-.05 0z"/></g></g></svg>