<svg xmlns="http://www.w3.org/2000/svg" width="17" height="17" viewBox="0 0 17 17"><g><g><path fill="#fc9b28" d="M15.535 1.84a4.005 4.005 0 0 1 0 5.657l-3.334 3.334a3.92 3.92 0 0 1-.833.622 3.953 3.953 0 0 1-2.36.517 3.943 3.943 0 0 1-2.465-1.139A3.886 3.886 0 0 1 5.52 9.024l-2.23 2.231c-.78.78-.78 2.05 0 2.83.755.755 2.073.755 2.83 0l1.556-1.558a.33.33 0 0 1 .33-.084c.34.102.648.163.94.191.176.015.353.03.523.013l.105-.007a.332.332 0 0 1 .32.2.333.333 0 0 1-.07.37l-2.29 2.29a3.988 3.988 0 0 1-2.83 1.17 3.988 3.988 0 0 1-2.829-1.17 4.005 4.005 0 0 1 0-5.659L5.21 6.507c.227-.227.491-.425.833-.622a4.002 4.002 0 0 1 2.361-.517 3.943 3.943 0 0 1 2.464 1.14 3.888 3.888 0 0 1 1.023 1.805l2.231-2.23c.78-.78.78-2.05 0-2.83-.756-.755-2.074-.755-2.83 0L9.734 4.81a.328.328 0 0 1-.33.084 4.753 4.753 0 0 0-.94-.19 2.887 2.887 0 0 0-.525-.014l-.102.008a.321.321 0 0 1-.32-.198.334.334 0 0 1 .07-.37l2.29-2.29a4.003 4.003 0 0 1 5.658 0zm-5.59 8.07a2 2 0 0 0-.492-1.989 1.983 1.983 0 0 0-1.988-.492 1.998 1.998 0 0 0 .492 1.988 1.984 1.984 0 0 0 1.988.493z"/></g></g></svg>