<svg xmlns="http://www.w3.org/2000/svg" width="24" height="24" viewBox="0 0 24 24"><g><g><path fill="red" d="M.63 12.193C.63 5.72 5.898.45 12.373.45c6.476 0 11.744 5.27 11.744 11.743 0 6.476-5.268 11.744-11.744 11.744C5.898 23.937.63 18.67.63 12.193zm1.262 0c0 5.781 4.701 10.483 10.481 10.483s10.482-4.702 10.482-10.483c0-5.779-4.702-10.48-10.482-10.48-5.78 0-10.481 4.701-10.481 10.48z"/></g><g><path fill="red" d="M19.405 14.078a3.016 3.016 0 0 1-3.016 3.017H8.567a3.016 3.016 0 0 1-3.015-3.017v-3.665a3.015 3.015 0 0 1 3.015-3.016h7.822a3.016 3.016 0 0 1 3.016 3.016zM14.47 12.43c.14-.076.164-.277.025-.356l-3.141-1.801c-.135-.077-.261.02-.261.177v3.51c0 .156.122.254.257.18z"/></g></g></svg>