<svg width="249" height="32" viewBox="0 0 249 32" fill="none" xmlns="http://www.w3.org/2000/svg">
<g clip-path="url(#clip0)">
<path fill-rule="evenodd" clip-rule="evenodd" d="M0 5.28711H3.15589H6.71127V7.99432H3.15589V15.6844H6.71127V18.3916H3.15589V25.5716H6.71127V28.2788H3.15589H0V25.5716V18.3523V15.6451V7.99432V5.28711ZM12.5037 15.6451H15.8993V7.99432H12.5037V15.6451ZM15.8594 18.3523H12.4638V28.2396H9.30789V18.3523V15.6451V7.99432V5.28711H12.4638H15.8594H17.5372H19.0153V28.2003H15.8594V18.3523ZM25.5268 25.5323H29.0822V28.2396H25.5268H22.3709V25.5323V7.99432V5.28711H25.5268H29.0822V7.99432H25.5268V25.5323Z" fill="white"/>
</g>
<g clip-path="url(#clip1)">
<path fill-rule="evenodd" clip-rule="evenodd" d="M238.397 11.5976C241.685 11.5976 244.941 11.5976 248.228 11.5976V14.7466H245.716V18.9662H240.909V14.7781H238.397V11.5976ZM219.077 23.4692C217.589 23.4692 216.379 22.2411 216.379 20.7296V12.6053C216.379 9.80271 218.612 7.56695 221.341 7.56695C224.101 7.56695 226.303 9.8342 226.303 12.6053C226.303 15.3764 224.07 17.6436 221.341 17.6436C220.907 17.6436 220.473 17.5806 220.07 17.4862V14.4946C220.411 14.7466 220.845 14.8725 221.31 14.8725C222.551 14.8725 223.543 13.8649 223.543 12.6053C223.543 11.3457 222.551 10.338 221.31 10.338C220.07 10.338 219.077 11.3457 219.077 12.6053V23.4692ZM243.142 5.04779C240.289 3.44182 235.327 1.26904 229.776 1.26904C221.062 1.26904 212.999 5.6146 212.999 15.4078C212.999 25.2326 220.535 29.4522 229.342 29.4522C235.575 29.4522 240.692 26.996 243.173 25.5475V19.9109C241.374 20.9815 238.087 22.6504 234.645 22.6504C224.876 22.6504 225.249 8.29121 234.335 8.25972C237.746 8.25972 241.095 9.61377 243.142 10.7159V5.04779Z" fill="white"/>
</g>
<path d="M88.823 0C89.4434 0.126872 90.0231 0.345091 90.4808 0.806905C91.0911 1.41589 91.3809 2.15175 91.2945 3.0094C91.1673 4.26797 90.4656 5.07487 89.2654 5.45549C88.3348 5.75491 87.0838 5.36414 86.4583 4.61306C85.7413 3.75541 85.5836 2.79626 85.9549 1.77113C86.2295 1.01497 86.7838 0.487188 87.5415 0.202995C87.7602 0.121797 87.989 0.0659733 88.2128 0C88.4162 0 88.6196 0 88.823 0Z" fill="white"/>
<path d="M75.3718 31.3832C75.2803 30.759 75.1837 30.1348 75.0972 29.5106C74.8124 27.5365 74.5277 25.5674 74.248 23.5933C74.0039 21.8628 73.7649 20.1322 73.5208 18.3966C73.4547 17.9348 73.3784 17.4781 73.3275 17.0163C73.3072 16.8234 73.2258 16.7727 73.0529 16.7879C72.9461 16.798 72.8342 16.7879 72.7224 16.7879C72.2901 16.7828 71.9901 16.4631 72.0003 16.0165C72.0053 15.5699 72.2901 15.2705 72.7173 15.2705C77.0754 15.2705 81.4285 15.2705 85.7866 15.2705C86.2087 15.2705 86.4884 15.575 86.4884 16.0267C86.4884 16.4631 86.2138 16.7676 85.8069 16.7879C85.5984 16.798 85.3289 16.7473 85.2018 16.8589C85.0848 16.9604 85.1306 17.2396 85.1051 17.4375C84.8407 19.234 84.5763 21.0305 84.3169 22.827C84.0881 24.4306 83.8643 26.0394 83.6406 27.643C83.4728 28.8306 83.2999 30.0181 83.1371 31.2056C83.1168 31.3477 83.0863 31.4035 82.9185 31.3832C81.4386 31.2107 79.9486 31.1143 78.4535 31.1853C77.4568 31.2361 76.4601 31.3223 75.4634 31.3934C75.4328 31.4035 75.4074 31.3934 75.3718 31.3832ZM74.4921 18.2139C75.0565 18.1632 75.5803 18.1124 76.1194 18.0617C76.0939 17.6861 76.0685 17.3512 76.0583 17.0163C76.0533 16.8386 75.9821 16.7828 75.8092 16.7879C75.4278 16.798 75.0464 16.793 74.665 16.7879C74.5429 16.7879 74.4209 16.7879 74.2734 16.7879C74.3497 17.2903 74.4158 17.7369 74.4921 18.2139ZM83.9813 18.2139C84.0525 17.7318 84.1237 17.2751 84.1949 16.793C83.6253 16.793 83.1015 16.7879 82.5777 16.798C82.5269 16.798 82.4353 16.8742 82.4303 16.9198C82.3947 17.2954 82.3743 17.6709 82.354 18.0668C82.9032 18.1175 83.4219 18.1632 83.9813 18.2139ZM78.7231 20.4114C78.7231 19.9039 78.7231 19.4319 78.7231 18.9752C78.1993 18.9752 77.7009 18.9752 77.1669 18.9752C77.2076 19.4877 77.2483 19.9597 77.289 20.4114C77.7823 20.4114 78.245 20.4114 78.7231 20.4114ZM81.3013 18.9701C80.7623 18.9701 80.2639 18.9701 79.7503 18.9701C79.7503 19.437 79.7503 19.9089 79.7503 20.4164C80.2334 20.4164 80.7013 20.4164 81.1894 20.4164C81.225 19.9495 81.2606 19.4827 81.3013 18.9701ZM75.3617 20.5991C75.5549 20.5839 75.8448 20.5687 76.1295 20.523C76.1956 20.5128 76.2923 20.4012 76.2923 20.3403C76.277 19.9698 76.2312 19.5994 76.2109 19.2289C76.2007 19.0817 76.1448 19.0411 76.0024 19.0564C75.6058 19.102 75.2142 19.1426 74.8175 19.1731C74.6548 19.1832 74.6192 19.2543 74.6497 19.4015C74.7006 19.6552 74.7412 19.914 74.7768 20.1728C74.8379 20.6194 74.8379 20.6245 75.3617 20.5991ZM83.8491 19.1985C83.3151 19.1477 82.8218 19.097 82.2879 19.0462C82.2574 19.5182 82.2218 19.9648 82.2014 20.4063C82.2014 20.4469 82.293 20.523 82.3489 20.5281C82.7354 20.5687 83.127 20.5991 83.5134 20.6194C83.5643 20.6245 83.6558 20.5687 83.6609 20.5331C83.7321 20.1018 83.783 19.6653 83.8491 19.1985ZM79.73 16.8031C79.73 17.1584 79.7249 17.4984 79.735 17.8435C79.735 17.8841 79.8164 17.95 79.8673 17.9551C80.3199 17.9805 80.7775 17.9957 81.2352 18.0059C81.281 18.0059 81.3674 17.9399 81.3725 17.8993C81.4081 17.5339 81.4285 17.1685 81.4488 16.8031C80.8589 16.8031 80.3148 16.8031 79.73 16.8031ZM77.0195 16.793C77.0449 17.1837 77.0652 17.5339 77.1008 17.8841C77.1059 17.9348 77.2127 18.0059 77.2737 18.0059C77.706 18.0008 78.1382 17.9856 78.5654 17.95C78.6315 17.945 78.7332 17.8384 78.7383 17.7724C78.7587 17.5035 78.7536 17.2294 78.7383 16.9604C78.7332 16.8995 78.6417 16.793 78.5908 16.793C78.0772 16.7879 77.5687 16.793 77.0195 16.793ZM74.9803 21.6192C75.0413 22.0861 75.087 22.5073 75.1532 22.9336C75.1582 22.9792 75.2396 23.0503 75.2854 23.0452C75.6769 23.0198 76.0685 22.9843 76.4753 22.9488C76.4397 22.4464 76.4041 21.9846 76.3685 21.4974C75.8956 21.538 75.4583 21.5735 74.9803 21.6192ZM78.7231 21.4263C78.301 21.4263 77.9043 21.4213 77.5077 21.4314C77.4517 21.4314 77.3551 21.538 77.3602 21.5938C77.3754 21.9744 77.4009 22.355 77.4416 22.7306C77.4466 22.7813 77.5433 22.8676 77.5992 22.8676C77.9704 22.8777 78.3417 22.8727 78.7281 22.8727C78.7231 22.355 78.7231 21.8932 78.7231 21.4263ZM81.1335 21.3959C80.686 21.3959 80.2792 21.3908 79.8723 21.401C79.8266 21.401 79.7401 21.4821 79.735 21.5329C79.7249 21.9592 79.73 22.3906 79.73 22.8777C80.1317 22.8777 80.5029 22.8828 80.8742 22.8727C80.9301 22.8727 81.0216 22.8016 81.0267 22.7559C81.0725 22.3297 81.0979 21.8983 81.1335 21.3959ZM82.0184 22.9437C82.3336 22.9792 82.6286 23.0097 82.9185 23.0401C83.3049 23.0757 83.31 23.0757 83.3609 22.7001C83.4117 22.3449 83.4473 21.9896 83.4931 21.6141C83.01 21.5735 82.5676 21.538 82.1099 21.4974C82.0794 21.9947 82.0489 22.4464 82.0184 22.9437ZM80.8589 25.2934C80.8894 24.8214 80.9199 24.3596 80.9504 23.8369C80.5639 23.8369 80.2131 23.8318 79.8622 23.842C79.8164 23.842 79.7401 23.9485 79.735 24.0044C79.7249 24.3748 79.7249 24.7453 79.735 25.1158C79.735 25.1767 79.8317 25.2782 79.8825 25.2832C80.1927 25.3035 80.508 25.2934 80.8589 25.2934ZM77.6195 25.2934C77.9552 25.2934 78.2654 25.3035 78.5756 25.2832C78.6315 25.2782 78.7281 25.1767 78.7332 25.1208C78.7485 24.7402 78.7434 24.3596 78.7332 23.979C78.7332 23.9282 78.6569 23.8369 78.6112 23.8369C78.2603 23.8267 77.9043 23.8318 77.528 23.8318C77.5585 24.3647 77.589 24.8316 77.6195 25.2934ZM76.5364 23.9333C76.1245 23.9638 75.738 23.9993 75.3108 24.0297C75.3769 24.5017 75.4379 24.9331 75.5091 25.3644C75.5142 25.4101 75.6159 25.471 75.6719 25.4659C75.9872 25.4456 76.3024 25.405 76.6432 25.3695C76.6076 24.8823 76.572 24.4256 76.5364 23.9333ZM81.8302 25.3644C82.1607 25.3999 82.4557 25.4456 82.7506 25.4608C82.8218 25.4659 82.9541 25.3898 82.9642 25.334C83.0354 24.9534 83.0863 24.5677 83.127 24.182C83.132 24.1312 83.0558 24.0247 83.01 24.0196C82.6591 23.979 82.3082 23.9638 81.9319 23.9333C81.8963 24.4256 81.8658 24.8823 81.8302 25.3644ZM79.7147 27.0087C79.73 27.7902 79.73 27.7902 80.4928 27.7648C80.6402 27.7598 80.6809 27.709 80.686 27.572C80.7013 27.2624 80.7267 26.9529 80.7623 26.6433C80.803 26.2931 80.808 26.2881 80.4572 26.2881C80.2232 26.2881 79.9029 26.217 79.7859 26.3337C79.6588 26.4606 79.73 26.7803 79.7147 27.0087ZM77.7314 26.2728C77.706 26.3287 77.7009 26.3388 77.7009 26.3439C77.7162 26.6281 77.7314 26.9123 77.7518 27.1965C77.7924 27.7598 77.7924 27.7547 78.3671 27.7496C78.4332 27.7496 78.5146 27.7699 78.5654 27.7395C78.6315 27.7039 78.7281 27.6329 78.7332 27.5771C78.7485 27.1914 78.7485 26.8006 78.7383 26.4149C78.7383 26.3642 78.6569 26.2779 78.6112 26.2728C78.3111 26.2678 78.0111 26.2728 77.7314 26.2728ZM82.5981 27.8917C82.6693 27.4553 82.7354 27.0391 82.7913 26.623C82.7964 26.5672 82.7456 26.4606 82.71 26.4555C82.4048 26.4149 82.0946 26.3946 81.7743 26.3692C81.7387 26.826 81.698 27.2523 81.6776 27.6786C81.6726 27.7344 81.7743 27.8308 81.8353 27.841C82.0743 27.8714 82.3235 27.8714 82.5981 27.8917ZM75.6515 26.4657C75.7278 26.9529 75.799 27.4147 75.8702 27.8917C76.1499 27.8765 76.4041 27.8663 76.6533 27.8359C76.7093 27.8308 76.8008 27.7344 76.8008 27.6887C76.7805 27.2523 76.7398 26.8209 76.7042 26.3642C76.3431 26.3946 76.0126 26.4301 75.6515 26.4657ZM79.73 28.7341C79.73 29.1858 79.7249 29.6121 79.735 30.0435C79.735 30.0891 79.791 30.1703 79.8215 30.1703C80.0249 30.1856 80.2283 30.1906 80.4266 30.1805C80.4622 30.1805 80.5182 30.0841 80.5233 30.0282C80.5538 29.6578 80.569 29.2873 80.5995 28.9168C80.6097 28.7849 80.5589 28.7291 80.4317 28.7341C80.208 28.7392 79.9893 28.7341 79.73 28.7341ZM77.8687 28.7443C77.8992 29.201 77.9196 29.6222 77.9653 30.0384C77.9704 30.0993 78.0976 30.1957 78.1586 30.1856C78.3518 30.1602 78.5807 30.2871 78.7383 30.079C78.7434 30.0739 78.7434 30.0638 78.7434 30.0536C78.7434 29.6172 78.7434 29.1858 78.7434 28.7443C78.4434 28.7443 78.1789 28.7443 77.8687 28.7443ZM81.4895 30.2515C81.7081 30.2718 81.9014 30.3073 82.0946 30.3023C82.1607 30.3023 82.2777 30.216 82.2879 30.15C82.3591 29.7846 82.4099 29.4192 82.4557 29.0488C82.4608 28.993 82.3896 28.8864 82.3438 28.8813C82.1557 28.8458 81.9573 28.8255 81.7641 28.8255C81.7081 28.8255 81.6014 28.9016 81.5963 28.9473C81.5454 29.3736 81.52 29.8049 81.4895 30.2515ZM76.0024 28.8965C76.0787 29.3939 76.1448 29.8557 76.2211 30.3276C76.4906 30.3023 76.7245 30.282 76.989 30.2566C76.9635 29.8506 76.933 29.4751 76.9229 29.0945C76.9178 28.8661 76.8211 28.7798 76.5923 28.8255C76.4041 28.861 76.2211 28.8712 76.0024 28.8965Z" fill="white"/>
<path d="M94.197 31.2205C93.2715 27.8406 92.3459 24.4607 91.4153 21.0809C91.3899 21.0758 91.3696 21.0707 91.3441 21.0656C89.3863 24.5825 87.4284 28.1045 85.4706 31.6214C85.4553 31.6163 85.4401 31.6112 85.4248 31.6011C85.496 31.0733 85.5672 30.5455 85.6333 30.0177C85.8316 28.5105 86.03 27.0033 86.2283 25.496C86.3961 24.2324 86.5792 22.9687 86.747 21.7051C86.9504 20.1978 87.1436 18.6906 87.3471 17.1834C87.4488 16.412 87.5606 15.6457 87.6573 14.8743C87.6776 14.6967 87.7641 14.6612 87.9268 14.6612C90.0372 14.6104 92.1425 14.5546 94.2529 14.5038C94.8174 14.4886 95.387 14.5038 95.9769 14.5038C95.4124 20.0608 94.8378 25.633 94.2631 31.2103C94.2428 31.2103 94.2224 31.2154 94.197 31.2205Z" fill="white"/>
<path d="M75.3555 6.04451C75.4673 6.04451 75.564 6.04451 75.6606 6.04451C77.237 6.02421 78.8135 6.00391 80.3849 5.97853C84.1887 5.91764 87.9925 5.85166 91.7913 5.78061C91.9642 5.77554 92.0404 5.82629 92.1116 5.98361C92.7015 7.2371 93.3067 8.48044 93.9017 9.72886C94.5526 11.0838 95.1984 12.4388 95.8443 13.7938C95.8544 13.8141 95.8544 13.8395 95.8646 13.8953C95.6002 13.9156 95.3408 13.9359 95.0866 13.9511C92.7626 14.0679 90.4335 14.1846 88.1095 14.3064C87.9061 14.3165 87.8196 14.2759 87.7688 14.0577C87.428 12.6215 87.067 11.1904 86.711 9.75423C86.6805 9.62736 86.6551 9.52079 86.4822 9.46497C84.0768 8.74434 81.6765 8.01356 79.2712 7.28785C77.9795 6.89709 76.6827 6.5114 75.386 6.12063C75.3911 6.11556 75.386 6.09526 75.3555 6.04451Z" fill="white"/>
<path d="M82.6127 10.2311C82.4245 11.2867 82.2415 12.3068 82.0533 13.342C81.3464 13.3928 80.6447 13.4385 79.948 13.4892C79.4649 13.5247 78.9818 13.5298 78.5037 13.6009C77.9291 13.6871 77.4257 13.4334 76.9019 13.3065C76.3527 13.1746 75.8136 12.9868 75.2644 12.8549C75.0661 12.8092 75.0254 12.728 75.0457 12.5453C75.1423 11.8094 75.2288 11.0685 75.3203 10.3326C75.3814 9.84546 75.4373 9.36335 75.4983 8.87616C75.5034 8.83048 75.5187 8.78481 75.5339 8.70361C75.9407 8.90661 76.3221 9.09438 76.7035 9.2923C77.2731 9.58157 77.8427 9.88606 78.4173 10.1702C78.519 10.221 78.6461 10.2261 78.7631 10.2261C79.9582 10.2311 81.1532 10.2311 82.3432 10.2311C82.4296 10.2311 82.511 10.2311 82.6127 10.2311Z" fill="white"/>
<path d="M154.561 1.13959C156.706 1.04928 158.735 1.62396 160.71 2.44083C163.479 3.58608 165.75 5.3758 167.401 7.8264C169.188 10.474 170.174 13.4254 170.071 16.6888C169.969 19.9439 168.979 22.8994 167.015 25.4773C165.044 28.0633 162.493 29.931 159.355 30.8628C154.097 32.4268 149.218 31.5976 144.823 28.2809C141.652 25.8796 139.672 22.686 139.154 18.7371C138.616 14.661 139.471 10.8845 141.951 7.50622C144.116 4.55073 146.975 2.64197 150.462 1.69785C151.785 1.34073 153.19 1.28326 154.553 1.09033C154.561 1.13959 154.553 1.09033 154.561 1.13959ZM154.537 2.54345C152.561 2.55166 150.651 2.83079 148.852 3.67639C143.594 6.15162 140.69 10.2729 140.362 16.0772C140.124 20.2969 141.771 23.8394 144.884 26.6184C147.176 28.6626 149.928 29.8366 153.033 30.1773C155.173 30.4113 157.24 30.1363 159.252 29.4795C161.758 28.6585 163.812 27.1726 165.533 25.1612C167.196 23.2196 168.186 21.0112 168.527 18.5072C169.061 14.6158 168.28 11.0282 165.783 7.93723C162.904 4.37011 159.129 2.57629 154.537 2.54345Z" fill="white"/>
<path d="M150.729 16.3604C151.086 16.0649 151.444 15.7734 151.797 15.4779C153.354 14.1725 154.914 12.8672 156.471 11.5619C156.841 11.2499 157.26 11.0898 157.736 11.217C158.204 11.3443 158.545 11.6481 158.669 12.1283C158.8 12.625 158.517 12.978 158.172 13.2654C156.812 14.3983 155.448 15.523 154.081 16.6437C153.961 16.7422 153.814 16.8079 153.682 16.89C153.707 16.9515 153.727 17.0131 153.752 17.0788C154.951 17.7602 156.155 18.4416 157.44 19.1723C157.44 18.3472 157.453 17.637 157.424 16.9269C157.42 16.8366 157.198 16.7134 157.058 16.6806C156.824 16.6231 156.545 16.6847 156.34 16.5821C156.147 16.4877 155.945 16.2701 155.892 16.069C155.855 15.9335 156.027 15.6626 156.175 15.5723C156.418 15.4286 156.718 15.3096 156.997 15.3055C158.155 15.2891 159.313 15.3137 160.468 15.3383C161.051 15.3506 161.384 15.6092 161.347 16.0197C161.302 16.541 160.878 16.619 160.472 16.6847C160.303 16.7134 160.127 16.6888 159.913 16.6888C159.913 18.9629 159.913 21.2042 159.913 23.5727C160.307 23.2648 160.636 23.0185 160.952 22.7558C161.577 22.2304 162.16 22.2427 162.665 22.805C163.158 23.351 163.109 23.9749 162.493 24.5045C158.677 27.7842 154.389 28.5765 149.776 26.5651C145.463 24.681 142.941 20.9907 143.081 16.2989C143.216 11.685 145.512 8.26155 149.69 6.2789C153.181 4.62054 156.713 4.66569 160.106 6.68528C160.915 7.16555 161.684 7.72792 162.427 8.31491C163.023 8.78697 163.092 9.44785 162.694 9.92812C162.234 10.4864 161.593 10.548 160.973 10.1005C160.788 9.96506 160.603 9.83371 160.427 9.69004C158.163 7.82643 155.617 7.12861 152.717 7.74023C149.677 8.37648 147.504 10.1334 146.252 12.9123C145.061 15.5518 145.093 18.2733 146.609 20.7855C147.899 22.9241 149.78 24.4388 152.265 25.0299C153.834 25.4034 155.424 25.4034 157.001 24.9642C157.35 24.8657 157.486 24.6974 157.477 24.3362C157.465 23.6548 157.523 22.9692 157.482 22.2878C157.465 22.058 157.293 21.7419 157.095 21.6311C155.407 20.6664 153.699 19.7346 151.982 18.8151C151.834 18.7371 151.554 18.7905 151.394 18.8808C150.778 19.2297 150.54 19.751 150.589 20.4899C150.638 21.2247 150.146 21.6762 149.476 21.668C148.733 21.6598 148.268 21.2001 148.264 20.4489C148.252 17.7848 148.244 15.1208 148.236 12.4567C148.231 11.8328 148.663 11.3648 149.287 11.3156C149.981 11.2622 150.552 11.6604 150.581 12.3295C150.626 13.4296 150.593 14.5338 150.597 15.638C150.597 15.8473 150.597 16.0526 150.597 16.2619C150.638 16.2947 150.684 16.3276 150.729 16.3604Z" fill="white"/>
<defs>
<clipPath id="clip0">
<rect width="29.0822" height="22.9132" fill="white" transform="translate(0 5.28711)"/>
</clipPath>
<clipPath id="clip1">
<rect width="35.2289" height="28.1831" fill="white" transform="translate(212.999 1.26904)"/>
</clipPath>
</defs>
</svg>
