<svg width="109" height="89" viewBox="0 0 109 89" fill="none" xmlns="http://www.w3.org/2000/svg">
<path d="M81.722 42.3016C81.722 64.6205 63.6289 82.7135 41.31 82.7135C18.9911 82.7135 0.898043 64.6205 0.898043 42.3016C0.898043 19.9828 18.9911 1.88974 41.31 1.88974C63.6289 1.88974 81.722 19.9828 81.722 42.3016Z" stroke="white" stroke-width="1.79609"/>
<path d="M34.9413 58.756C30.576 58.756 26.9286 57.2626 23.9992 54.2757C21.0698 51.2602 19.6051 47.5554 19.6051 43.1613C19.6051 38.796 21.0698 35.1055 23.9992 32.09C26.9286 29.0744 30.6478 27.5667 35.1567 27.5667C37.7702 27.5667 39.9816 27.9687 41.7909 28.7729C43.6289 29.577 45.3521 30.7402 46.9604 32.2623L43.5571 36.1825C40.8575 33.6839 38.043 32.4346 35.1136 32.4346C32.2417 32.4346 29.858 33.4685 27.9625 35.5363C26.0957 37.6041 25.1624 40.1458 25.1624 43.1613C25.1624 46.1481 26.1101 48.6898 28.0056 50.7863C29.9011 52.8541 32.2704 53.888 35.1136 53.888C36.8368 53.888 38.3589 53.5721 39.68 52.9403C41.0011 52.2797 42.3653 51.2889 43.7725 49.9678L47.1758 53.4142C45.4813 55.1948 43.6864 56.5302 41.7909 57.4205C39.8954 58.3108 37.6122 58.756 34.9413 58.756ZM52.4436 58.239V26.7912H57.6561V58.239H52.4436Z" fill="#FF6056"/>
</svg>
