<svg width="103" height="89" viewBox="0 0 103 89" fill="none" xmlns="http://www.w3.org/2000/svg">
<path d="M81.722 42.3016C81.722 64.6205 63.6289 82.7135 41.31 82.7135C18.9911 82.7135 0.898043 64.6205 0.898043 42.3016C0.898043 19.9828 18.9911 1.88974 41.31 1.88974C63.6289 1.88974 81.722 19.9828 81.722 42.3016Z" stroke="white" stroke-width="1.79609"/>
<path d="M14.6535 58.239V28.0836H19.5645L35.7192 48.9339V28.0836H40.9318V58.239H36.4946L19.8661 36.7856V58.239H14.6535ZM67.1686 58.239H61.9991V55.4389C60.1611 57.6215 57.7056 58.7129 54.6326 58.7129C52.3638 58.7129 50.4396 58.0954 48.86 56.8605C47.3092 55.5968 46.5337 53.8449 46.5337 51.6048C46.5337 49.1637 47.381 47.3113 49.0754 46.0476C50.7698 44.784 52.9956 44.1521 55.7527 44.1521C57.9641 44.1521 60.0606 44.468 62.0422 45.0999V44.6691C62.0422 43.0895 61.554 41.8833 60.5775 41.0504C59.6298 40.2176 58.2513 39.8011 56.4419 39.8011C54.3741 39.8011 52.2058 40.275 49.937 41.2228L48.5154 37.0441C51.3299 35.7804 54.2162 35.1486 57.1743 35.1486C60.477 35.1486 62.9612 35.9815 64.627 37.6472C66.3214 39.3129 67.1686 41.6823 67.1686 44.7552V58.239ZM62.1284 50.0109V48.7185C60.5775 48.1154 58.84 47.8139 56.9158 47.8139C55.2788 47.8139 54.0008 48.1298 53.0818 48.7616C52.1627 49.3934 51.7032 50.2837 51.7032 51.4325C51.7032 52.4664 52.1197 53.2849 52.9525 53.888C53.7854 54.4911 54.8336 54.7927 56.0973 54.7927C57.8492 54.7927 59.2852 54.3475 60.4052 53.4572C61.554 52.5669 62.1284 51.4182 62.1284 50.0109Z" fill="#FF6056"/>
</svg>
