<svg width="109" height="89" viewBox="0 0 109 89" fill="none" xmlns="http://www.w3.org/2000/svg">
<path d="M82.5921 42.3016C82.5921 64.6205 64.499 82.7135 42.1801 82.7135C19.8612 82.7135 1.76816 64.6205 1.76816 42.3016C1.76816 19.9828 19.8612 1.88974 42.1801 1.88974C64.499 1.88974 82.5921 19.9828 82.5921 42.3016Z" stroke="white" stroke-width="1.79609"/>
<path d="M20.9113 58.239V28.0836H34.4382C37.9132 28.0836 40.541 28.9739 42.3216 30.7545C43.6714 32.1043 44.3464 33.7988 44.3464 35.8379C44.3464 38.8247 42.9104 41.0648 40.0384 42.5582C44.0304 43.908 46.0264 46.3779 46.0264 49.9678C46.0264 52.61 45.0213 54.6491 43.0109 56.0851C41.0005 57.521 38.2866 58.239 34.8689 58.239H20.9113ZM26.1239 40.792H33.3612C35.1131 40.792 36.4916 40.4473 37.4968 39.7581C38.5307 39.0401 39.0476 37.9918 39.0476 36.6133C39.0476 35.4071 38.5881 34.4737 37.6691 33.8131C36.7501 33.1239 35.4433 32.7792 33.7489 32.7792H26.1239V40.792ZM26.1239 53.5434H34.912C36.7501 53.5434 38.1717 53.1844 39.1769 52.4664C40.2108 51.7484 40.7277 50.7002 40.7277 49.3216C40.7277 46.622 38.6599 45.2722 34.5243 45.2722H26.1239V53.5434ZM51.3975 58.239V35.4932H56.6101V40.6196C58.2184 36.7425 60.9037 34.8901 64.6659 35.0624V40.5766H64.3644C62.0094 40.5766 60.1282 41.352 58.721 42.9028C57.3137 44.425 56.6101 46.6507 56.6101 49.5801V58.239H51.3975Z" fill="#FF6056"/>
</svg>
