<svg width="15" height="21" viewBox="0 0 15 21" fill="none" xmlns="http://www.w3.org/2000/svg">
<path d="M13.3395 13.3255C13.3395 16.733 10.5772 19.4953 7.16975 19.4953C3.76229 19.4953 1 16.733 1 13.3255C1 12.5332 1.31659 11.3121 1.89157 9.85154C2.45439 8.42186 3.22221 6.86714 4.02948 5.4485C4.83905 4.02582 5.6695 2.77304 6.3483 1.93678C6.54226 1.69782 6.71245 1.50716 6.85625 1.36154C7.02781 1.59181 7.23923 1.87861 7.4799 2.21118C8.14459 3.1297 9.02907 4.39278 9.91181 5.77512C10.7968 7.16091 11.6682 8.64829 12.3149 10.0183C12.9793 11.4255 13.3395 12.5732 13.3395 13.3255Z" fill="#2892A1" stroke="#2892A2" stroke-width="2"/>
</svg>
