<svg width="15" height="21" viewBox="0 0 15 21" fill="none" xmlns="http://www.w3.org/2000/svg">
<path d="M13.3395 13.307C13.3395 16.7144 10.5772 19.4767 7.16975 19.4767C3.76229 19.4767 1 16.7144 1 13.307C1 12.5146 1.31659 11.2935 1.89157 9.83299C2.45439 8.40331 3.22221 6.84859 4.02948 5.42995C4.83905 4.00727 5.6695 2.7545 6.3483 1.91823C6.54226 1.67928 6.71245 1.48861 6.85625 1.34299C7.02781 1.57326 7.23923 1.86006 7.4799 2.19263C8.14459 3.11115 9.02907 4.37423 9.91181 5.75657C10.7968 7.14236 11.6682 8.62974 12.3149 9.99971C12.9793 11.407 13.3395 12.5547 13.3395 13.307Z" stroke="#2892A2" stroke-width="2"/>
</svg>
