<svg width="1083" height="565" viewBox="0 0 1083 565" fill="none" xmlns="http://www.w3.org/2000/svg">
<path fill-rule="evenodd" clip-rule="evenodd" d="M0 0H1083V565H0V0ZM273.873 182.392C276.466 183.596 279.544 184.198 283.027 184.198C288.94 184.198 294.124 182.166 298.417 178.328C302.629 174.414 304.735 169.898 304.735 165.007C304.735 160.792 302.872 154.696 299.146 146.267L254.838 43.5375L254.652 43.0849L254.651 43.0834C252.631 38.1745 250.99 34.1865 249.654 31.1197C248.196 27.733 246.414 24.5721 244.227 21.6369C241.797 18.4008 238.638 15.6914 234.831 13.6594C230.862 11.5522 226.002 10.4985 220.413 10.4985C214.904 10.4985 210.044 11.5522 206.156 13.6594C202.268 15.7667 199.109 18.476 196.76 21.7875C194.573 24.7979 192.548 28.5608 190.685 33.0012L189.713 35.4095C188.645 37.8611 187.723 40.0863 186.91 42.05L186.908 42.0547L186.908 42.055L186.907 42.0574L186.906 42.0587C186.672 42.6237 186.447 43.1671 186.23 43.688L142.813 147.095C140.95 151.385 139.654 154.621 138.844 157.104C137.953 159.814 137.467 162.523 137.467 165.157C137.467 170.124 139.654 174.64 143.947 178.478C148.159 182.241 153.181 184.198 158.771 184.198C165.494 184.198 170.516 182.166 173.675 178.177C176.186 175.016 179.021 169.372 182.423 160.943L189.389 143.482H251.679L258.564 160.566L258.645 160.642C259.698 163.125 260.994 166.06 262.533 169.296C264.234 172.909 265.854 175.543 267.393 177.424C269.094 179.532 271.281 181.187 273.873 182.392ZM238.8 110.218H201.944L220.17 62.4277L238.8 110.218ZM438.866 180.51C442.673 182.994 447.533 184.198 453.284 184.198C459.602 184.198 464.786 182.467 468.593 179.005C472.562 175.543 474.587 171.328 474.587 166.512C474.587 162.674 473.615 158.76 471.59 154.771C469.808 151.159 467.135 147.095 463.571 142.353L417.805 80.791L456.605 46.2469C462.761 40.7529 465.839 34.9579 465.839 29.0124C465.839 23.8947 463.814 19.4544 459.764 15.842C455.795 12.3047 450.692 10.4985 444.455 10.4985C439.676 10.4985 435.625 11.5522 432.628 13.7347C430.036 15.3904 427.12 17.9492 423.637 21.3359L364.587 79.1353V34.5816C364.587 26.9051 362.562 20.8843 358.512 16.8203C354.381 12.6058 348.954 10.4985 342.393 10.4985C335.67 10.4985 330.243 12.681 326.274 16.9708C322.467 21.0349 320.523 26.9804 320.523 34.5816V152.965C320.523 158.158 320.604 162.147 320.847 164.931C321.09 168.168 321.9 171.103 323.277 173.661L323.358 173.812C325.302 176.973 327.975 179.532 331.458 181.413C334.86 183.295 338.505 184.198 342.312 184.198C348.792 184.198 354.138 182.091 358.35 177.951C362.4 173.887 364.506 167.866 364.506 160.039V129.032L386.863 108.863L424.204 162.824C425.593 164.913 427.089 167.252 428.693 169.76L428.694 169.762L428.696 169.764L428.7 169.771L428.71 169.786L428.804 169.933C429.13 170.442 429.459 170.957 429.793 171.479C432.223 175.167 435.301 178.252 438.866 180.51ZM518.173 174.64C529.756 180.962 544.499 184.198 562.076 184.198C576.656 184.198 589.535 181.865 600.227 177.424C611.244 172.683 619.749 166.06 625.5 157.706C631.251 149.353 634.167 139.795 634.167 129.334C634.167 120.603 632.466 113.077 629.064 106.906C625.662 100.735 620.883 95.6172 614.808 91.5532C609.057 87.6397 602.009 84.3282 593.828 81.6942C585.971 79.1353 577.061 76.727 567.422 74.6198C559.889 72.8135 554.462 71.4588 551.222 70.5557C548.225 69.7279 545.228 68.5237 542.312 67.0185C539.719 65.6638 537.694 64.0834 536.236 62.2772C535.021 60.772 534.454 58.8905 534.454 56.708C534.454 53.0202 536.479 49.9346 540.611 47.15C545.228 44.0643 551.465 42.4839 559.241 42.4839C567.584 42.4839 573.578 43.8385 576.98 46.4726C580.787 49.4078 584.108 53.6223 586.862 59.041L586.943 59.1915C589.535 63.7824 592.046 67.169 594.476 69.3516C597.473 72.0609 601.604 73.4156 606.87 73.4156C612.54 73.4156 617.562 71.3083 621.369 67.2443C625.014 63.3308 626.877 58.8905 626.877 53.9233C626.877 49.0315 625.5 44.0643 622.908 39.0219C620.235 34.1301 616.185 29.3887 610.677 24.9484C605.25 20.5833 598.364 17.0461 590.183 14.412C582.083 11.7779 572.525 10.4985 561.59 10.4985C547.982 10.4985 535.912 12.4553 525.544 16.2935C515.095 20.2823 506.914 26.0773 501.325 33.6032C495.655 41.2045 492.82 49.9346 492.82 59.5678C492.82 69.7279 495.574 78.3827 501.001 85.3066C506.347 92.08 513.556 97.4987 522.466 101.412C530.971 105.1 541.583 108.411 554.057 111.121C562.967 113.002 570.095 114.884 575.36 116.539C580.058 118.045 583.865 120.152 586.781 122.936C589.373 125.345 590.588 128.506 590.588 132.645C590.588 137.913 588.077 142.128 582.974 145.74C577.547 149.578 570.176 151.535 561.104 151.535C554.462 151.535 549.197 150.632 545.39 148.751C541.583 146.869 538.586 144.536 536.56 141.751C534.292 138.59 532.105 134.602 530.08 129.936C528.055 124.968 525.544 121.205 522.466 118.571C519.064 115.636 514.852 114.131 509.992 114.131C504.16 114.131 499.219 116.013 495.412 119.7C491.686 123.313 489.742 127.753 489.742 132.871C489.742 140.397 492.415 148.224 497.68 156.051C502.945 163.727 509.83 169.974 518.173 174.64ZM777.857 182.392C780.449 183.596 783.528 184.198 787.011 184.198C793.005 184.198 798.108 182.166 802.482 178.328C806.694 174.414 808.8 169.898 808.8 165.007C808.8 160.792 806.937 154.696 803.211 146.267L758.903 43.5375L758.712 43.0723C756.694 38.1684 755.054 34.1842 753.719 31.1197C752.261 27.733 750.479 24.5721 748.292 21.6369C745.862 18.4008 742.703 15.6914 738.896 13.6594C734.927 11.5522 730.067 10.4985 724.478 10.4985C718.969 10.4985 714.19 11.5522 710.221 13.6594C706.333 15.7667 703.174 18.476 700.825 21.7875C698.638 24.7979 696.613 28.5608 694.75 33.0012C693.744 35.4484 692.795 37.7115 691.936 39.7594L691.934 39.766L691.919 39.7997L691.914 39.8133L691.911 39.8204C691.327 41.213 690.785 42.5055 690.295 43.688L646.878 147.095C645.015 151.385 643.719 154.621 642.909 157.104C642.018 159.814 641.532 162.523 641.532 165.157C641.532 170.124 643.719 174.64 648.012 178.478C652.224 182.241 657.247 184.198 662.836 184.198C669.559 184.198 674.581 182.166 677.74 178.177C680.251 175.016 683.167 169.372 686.488 160.943L693.454 143.482H755.663L762.548 160.566L762.629 160.642C763.682 163.125 764.978 166.06 766.517 169.296C768.218 172.909 769.838 175.543 771.377 177.424C773.078 179.532 775.265 181.187 777.857 182.392ZM742.784 110.218H705.928L724.154 62.4277L742.784 110.218ZM853.112 177.876C857.244 182.091 862.59 184.198 869.07 184.198C875.469 184.198 880.896 182.091 885.189 177.951C889.239 173.812 891.345 167.866 891.345 160.115V110.97L932.98 50.9882C936.706 45.7953 939.298 41.7313 940.837 38.7209C942.619 35.2589 943.51 31.7217 943.51 28.2598C943.51 23.5184 941.485 19.3792 937.678 15.842C933.79 12.38 929.011 10.5738 923.422 10.5738C919.858 10.5738 916.698 11.2511 914.106 12.5305C911.676 13.7347 909.408 15.4657 907.383 17.7234C905.601 19.6802 904.062 21.7875 902.604 23.97C901.227 26.002 899.607 28.4856 897.744 31.4207L869.88 73.4909L842.339 31.4207C837.236 23.5937 833.51 18.476 830.837 15.7667C827.435 12.2295 822.656 10.4985 816.5 10.4985C810.749 10.4985 805.808 12.3047 801.839 15.7667C797.789 19.3792 795.764 23.669 795.764 28.6361C795.764 31.5712 796.655 34.7321 798.437 38.4198C800.057 41.656 802.649 45.9458 806.456 51.6656L847.118 110.82V160.039C847.118 167.791 849.143 173.812 853.112 177.876ZM12.2256 451.831C12.2256 451.831 126.379 278.55 338.625 315.453C399.672 326.067 456.874 354.997 515.747 384.773C661.563 458.52 817.626 537.45 1067.72 356.099C1067.72 356.099 946.68 553.98 665.024 514.939C665.024 514.939 531.654 469.212 424.384 422.683C317.114 376.154 147.317 312.511 12.2256 451.831ZM756.81 389.259C756.81 389.259 928.327 390.329 919.149 244.324C919.149 244.324 885.305 341.661 756.81 389.259ZM712.637 422.954C712.637 422.954 987.409 478.04 1041.33 263.044C1041.33 263.044 911.574 412.953 712.637 422.954ZM467.118 475.897C270.36 391.931 181.446 405.836 181.446 405.836C359.847 441.134 420.079 484.454 420.079 484.454C667.891 605.858 731.564 553.98 731.564 553.98C617.41 565.212 467.118 475.897 467.118 475.897Z" fill="white"/>
<path d="M389.953 252.657L387.299 251.866L387.703 250.539L390.357 251.524L390.278 248.5H391.623L391.535 251.568L394.146 250.601L394.55 251.937L391.852 252.737L393.592 255.118L392.502 255.945L390.867 253.413L389.285 255.883L388.187 255.083L389.953 252.657ZM399.85 260.146C400.43 260.146 400.937 259.97 401.37 259.618C401.804 259.267 402.044 258.827 402.091 258.3H403.629C403.6 258.845 403.412 259.364 403.066 259.856C402.721 260.348 402.258 260.74 401.678 261.033C401.104 261.326 400.494 261.473 399.85 261.473C398.555 261.473 397.523 261.042 396.756 260.181C395.994 259.314 395.613 258.13 395.613 256.63V256.358C395.613 255.432 395.783 254.609 396.123 253.888C396.463 253.167 396.949 252.608 397.582 252.209C398.221 251.811 398.974 251.612 399.841 251.612C400.907 251.612 401.792 251.931 402.495 252.57C403.204 253.208 403.582 254.037 403.629 255.057H402.091C402.044 254.442 401.81 253.938 401.388 253.545C400.972 253.147 400.456 252.948 399.841 252.948C399.015 252.948 398.373 253.246 397.916 253.844C397.465 254.436 397.239 255.294 397.239 256.419V256.727C397.239 257.823 397.465 258.666 397.916 259.258C398.367 259.85 399.012 260.146 399.85 260.146ZM413.235 261.297H411.609V253.132H407.232V261.297H405.598V251.787H413.235V261.297ZM423.879 256.648C423.879 258.095 423.548 259.261 422.886 260.146C422.224 261.031 421.327 261.473 420.196 261.473C419.042 261.473 418.134 261.107 417.472 260.374V264.953H415.846V251.787H417.331L417.41 252.842C418.072 252.022 418.992 251.612 420.17 251.612C421.312 251.612 422.215 252.042 422.877 252.904C423.545 253.765 423.879 254.963 423.879 256.498V256.648ZM422.253 256.463C422.253 255.391 422.024 254.544 421.567 253.923C421.11 253.302 420.483 252.991 419.687 252.991C418.702 252.991 417.964 253.428 417.472 254.301V258.845C417.958 259.712 418.702 260.146 419.704 260.146C420.483 260.146 421.102 259.838 421.559 259.223C422.021 258.602 422.253 257.682 422.253 256.463ZM431.824 261.297C431.73 261.11 431.654 260.776 431.596 260.295C430.84 261.08 429.938 261.473 428.889 261.473C427.951 261.473 427.181 261.209 426.577 260.682C425.979 260.149 425.681 259.475 425.681 258.66C425.681 257.67 426.056 256.903 426.806 256.358C427.562 255.807 428.622 255.531 429.987 255.531H431.569V254.784C431.569 254.216 431.399 253.765 431.06 253.431C430.72 253.091 430.219 252.921 429.557 252.921C428.977 252.921 428.49 253.068 428.098 253.361C427.705 253.654 427.509 254.008 427.509 254.424H425.874C425.874 253.949 426.041 253.492 426.375 253.053C426.715 252.608 427.172 252.256 427.746 251.998C428.326 251.74 428.962 251.612 429.653 251.612C430.749 251.612 431.607 251.887 432.229 252.438C432.85 252.983 433.172 253.736 433.195 254.697V259.073C433.195 259.947 433.307 260.641 433.529 261.156V261.297H431.824ZM429.126 260.058C429.636 260.058 430.119 259.926 430.576 259.662C431.033 259.399 431.364 259.056 431.569 258.634V256.683H430.295C428.303 256.683 427.307 257.266 427.307 258.432C427.307 258.942 427.477 259.34 427.816 259.627C428.156 259.914 428.593 260.058 429.126 260.058ZM437.52 251.787V259.97H441V251.787H442.626V259.97H446.098V251.787H447.732V261.297H435.885V251.787H437.52ZM456.451 251.787H458.077V261.297H456.451V254.363L452.065 261.297H450.439V251.787H452.065V258.731L456.451 251.787ZM460.837 261.297V251.787H464.546C465.812 251.787 466.781 252.01 467.455 252.455C468.135 252.895 468.475 253.542 468.475 254.398C468.475 254.837 468.343 255.236 468.079 255.593C467.815 255.945 467.426 256.214 466.91 256.402C467.484 256.536 467.944 256.8 468.29 257.193C468.642 257.585 468.817 258.054 468.817 258.599C468.817 259.472 468.495 260.14 467.851 260.603C467.212 261.066 466.307 261.297 465.135 261.297H460.837ZM462.463 257.122V259.988H465.152C465.832 259.988 466.339 259.862 466.673 259.61C467.013 259.358 467.183 259.003 467.183 258.546C467.183 257.597 466.485 257.122 465.091 257.122H462.463ZM462.463 255.822H464.563C466.087 255.822 466.849 255.376 466.849 254.486C466.849 253.595 466.128 253.135 464.687 253.106H462.463V255.822ZM476.842 261.297C476.748 261.11 476.672 260.776 476.613 260.295C475.857 261.08 474.955 261.473 473.906 261.473C472.969 261.473 472.198 261.209 471.595 260.682C470.997 260.149 470.698 259.475 470.698 258.66C470.698 257.67 471.073 256.903 471.823 256.358C472.579 255.807 473.64 255.531 475.005 255.531H476.587V254.784C476.587 254.216 476.417 253.765 476.077 253.431C475.737 253.091 475.236 252.921 474.574 252.921C473.994 252.921 473.508 253.068 473.115 253.361C472.723 253.654 472.526 254.008 472.526 254.424H470.892C470.892 253.949 471.059 253.492 471.393 253.053C471.732 252.608 472.189 252.256 472.764 251.998C473.344 251.74 473.979 251.612 474.671 251.612C475.767 251.612 476.625 251.887 477.246 252.438C477.867 252.983 478.189 253.736 478.213 254.697V259.073C478.213 259.947 478.324 260.641 478.547 261.156V261.297H476.842ZM474.144 260.058C474.653 260.058 475.137 259.926 475.594 259.662C476.051 259.399 476.382 259.056 476.587 258.634V256.683H475.312C473.32 256.683 472.324 257.266 472.324 258.432C472.324 258.942 472.494 259.34 472.834 259.627C473.174 259.914 473.61 260.058 474.144 260.058ZM486.914 251.787H488.54V261.297H486.914V254.363L482.528 261.297H480.902V251.787H482.528V258.731L486.914 251.787ZM487.354 248.324C487.354 249.033 487.11 249.605 486.624 250.038C486.144 250.466 485.511 250.68 484.726 250.68C483.94 250.68 483.305 250.463 482.818 250.03C482.332 249.596 482.089 249.028 482.089 248.324H483.416C483.416 248.735 483.527 249.057 483.75 249.291C483.973 249.52 484.298 249.634 484.726 249.634C485.136 249.634 485.455 249.52 485.684 249.291C485.918 249.063 486.035 248.74 486.035 248.324H487.354ZM498.217 253.106H495.026V261.297H493.4V253.106H490.271V251.787H498.217V253.106ZM503.042 261.473C501.753 261.473 500.704 261.051 499.896 260.207C499.087 259.358 498.683 258.224 498.683 256.806V256.507C498.683 255.564 498.861 254.723 499.219 253.985C499.582 253.24 500.086 252.66 500.73 252.244C501.381 251.823 502.084 251.612 502.84 251.612C504.076 251.612 505.037 252.019 505.723 252.833C506.408 253.648 506.751 254.814 506.751 256.331V257.008H500.309C500.332 257.946 500.604 258.704 501.126 259.284C501.653 259.859 502.321 260.146 503.13 260.146C503.704 260.146 504.19 260.029 504.589 259.794C504.987 259.56 505.336 259.249 505.635 258.863L506.628 259.636C505.831 260.861 504.636 261.473 503.042 261.473ZM502.84 252.948C502.184 252.948 501.633 253.188 501.188 253.668C500.742 254.143 500.467 254.811 500.361 255.672H505.125V255.549C505.078 254.723 504.855 254.084 504.457 253.633C504.059 253.176 503.52 252.948 502.84 252.948ZM513.255 261.297V251.787H516.964C518.229 251.787 519.199 252.01 519.873 252.455C520.553 252.895 520.893 253.542 520.893 254.398C520.893 254.837 520.761 255.236 520.497 255.593C520.233 255.945 519.844 256.214 519.328 256.402C519.902 256.536 520.362 256.8 520.708 257.193C521.06 257.585 521.235 258.054 521.235 258.599C521.235 259.472 520.913 260.14 520.269 260.603C519.63 261.066 518.725 261.297 517.553 261.297H513.255ZM514.881 257.122V259.988H517.57C518.25 259.988 518.757 259.862 519.091 259.61C519.431 259.358 519.601 259.003 519.601 258.546C519.601 257.597 518.903 257.122 517.509 257.122H514.881ZM514.881 255.822H516.981C518.505 255.822 519.267 255.376 519.267 254.486C519.267 253.595 518.546 253.135 517.104 253.106H514.881V255.822ZM522.958 256.454C522.958 255.523 523.14 254.685 523.503 253.941C523.872 253.197 524.382 252.622 525.032 252.218C525.688 251.814 526.436 251.612 527.273 251.612C528.568 251.612 529.614 252.06 530.411 252.956C531.214 253.853 531.615 255.045 531.615 256.533V256.648C531.615 257.573 531.437 258.406 531.079 259.144C530.728 259.876 530.221 260.448 529.559 260.858C528.902 261.268 528.146 261.473 527.291 261.473C526.002 261.473 524.956 261.025 524.153 260.128C523.356 259.232 522.958 258.045 522.958 256.569V256.454ZM524.593 256.648C524.593 257.702 524.836 258.549 525.322 259.188C525.814 259.826 526.471 260.146 527.291 260.146C528.117 260.146 528.773 259.823 529.26 259.179C529.746 258.529 529.989 257.62 529.989 256.454C529.989 255.411 529.74 254.568 529.242 253.923C528.75 253.273 528.094 252.948 527.273 252.948C526.471 252.948 525.823 253.267 525.331 253.906C524.839 254.544 524.593 255.458 524.593 256.648ZM538.269 261.297V251.787H541.978C543.243 251.787 544.213 252.01 544.887 252.455C545.566 252.895 545.906 253.542 545.906 254.398C545.906 254.837 545.774 255.236 545.511 255.593C545.247 255.945 544.857 256.214 544.342 256.402C544.916 256.536 545.376 256.8 545.722 257.193C546.073 257.585 546.249 258.054 546.249 258.599C546.249 259.472 545.927 260.14 545.282 260.603C544.644 261.066 543.738 261.297 542.566 261.297H538.269ZM539.895 257.122V259.988H542.584C543.264 259.988 543.771 259.862 544.104 259.61C544.444 259.358 544.614 259.003 544.614 258.546C544.614 257.597 543.917 257.122 542.522 257.122H539.895ZM539.895 255.822H541.995C543.519 255.822 544.28 255.376 544.28 254.486C544.28 253.595 543.56 253.135 542.118 253.106H539.895V255.822ZM552.217 260.146C552.797 260.146 553.304 259.97 553.737 259.618C554.171 259.267 554.411 258.827 554.458 258.3H555.996C555.967 258.845 555.779 259.364 555.434 259.856C555.088 260.348 554.625 260.74 554.045 261.033C553.471 261.326 552.861 261.473 552.217 261.473C550.922 261.473 549.891 261.042 549.123 260.181C548.361 259.314 547.98 258.13 547.98 256.63V256.358C547.98 255.432 548.15 254.609 548.49 253.888C548.83 253.167 549.316 252.608 549.949 252.209C550.588 251.811 551.341 251.612 552.208 251.612C553.274 251.612 554.159 251.931 554.862 252.57C555.571 253.208 555.949 254.037 555.996 255.057H554.458C554.411 254.442 554.177 253.938 553.755 253.545C553.339 253.147 552.823 252.948 552.208 252.948C551.382 252.948 550.74 253.246 550.283 253.844C549.832 254.436 549.606 255.294 549.606 256.419V256.727C549.606 257.823 549.832 258.666 550.283 259.258C550.734 259.85 551.379 260.146 552.217 260.146ZM561.771 261.473C560.481 261.473 559.433 261.051 558.624 260.207C557.815 259.358 557.411 258.224 557.411 256.806V256.507C557.411 255.564 557.59 254.723 557.947 253.985C558.311 253.24 558.814 252.66 559.459 252.244C560.109 251.823 560.812 251.612 561.568 251.612C562.805 251.612 563.766 252.019 564.451 252.833C565.137 253.648 565.479 254.814 565.479 256.331V257.008H559.037C559.061 257.946 559.333 258.704 559.854 259.284C560.382 259.859 561.05 260.146 561.858 260.146C562.433 260.146 562.919 260.029 563.317 259.794C563.716 259.56 564.064 259.249 564.363 258.863L565.356 259.636C564.56 260.861 563.364 261.473 561.771 261.473ZM561.568 252.948C560.912 252.948 560.361 253.188 559.916 253.668C559.471 254.143 559.195 254.811 559.09 255.672H563.854V255.549C563.807 254.723 563.584 254.084 563.186 253.633C562.787 253.176 562.248 252.948 561.568 252.948ZM570.56 255.259L572.669 251.787H574.567L571.456 256.49L574.664 261.297H572.783L570.586 257.738L568.389 261.297H566.499L569.707 256.49L566.596 251.787H568.477L570.56 255.259ZM588.797 256.648C588.797 258.095 588.466 259.261 587.804 260.146C587.142 261.031 586.245 261.473 585.114 261.473C583.96 261.473 583.052 261.107 582.39 260.374V264.953H580.764V251.787H582.249L582.328 252.842C582.99 252.022 583.91 251.612 585.088 251.612C586.23 251.612 587.133 252.042 587.795 252.904C588.463 253.765 588.797 254.963 588.797 256.498V256.648ZM587.171 256.463C587.171 255.391 586.942 254.544 586.485 253.923C586.028 253.302 585.401 252.991 584.604 252.991C583.62 252.991 582.882 253.428 582.39 254.301V258.845C582.876 259.712 583.62 260.146 584.622 260.146C585.401 260.146 586.02 259.838 586.477 259.223C586.939 258.602 587.171 257.682 587.171 256.463ZM590.44 256.454C590.44 255.523 590.622 254.685 590.985 253.941C591.354 253.197 591.864 252.622 592.515 252.218C593.171 251.814 593.918 251.612 594.756 251.612C596.051 251.612 597.097 252.06 597.894 252.956C598.696 253.853 599.098 255.045 599.098 256.533V256.648C599.098 257.573 598.919 258.406 598.562 259.144C598.21 259.876 597.703 260.448 597.041 260.858C596.385 261.268 595.629 261.473 594.773 261.473C593.484 261.473 592.438 261.025 591.636 260.128C590.839 259.232 590.44 258.045 590.44 256.569V256.454ZM592.075 256.648C592.075 257.702 592.318 258.549 592.805 259.188C593.297 259.826 593.953 260.146 594.773 260.146C595.6 260.146 596.256 259.823 596.742 259.179C597.229 258.529 597.472 257.62 597.472 256.454C597.472 255.411 597.223 254.568 596.725 253.923C596.232 253.273 595.576 252.948 594.756 252.948C593.953 252.948 593.306 253.267 592.813 253.906C592.321 254.544 592.075 255.458 592.075 256.648ZM606.366 254.389C606.366 253.944 606.196 253.592 605.856 253.334C605.517 253.071 605.051 252.939 604.459 252.939C603.885 252.939 603.404 253.088 603.018 253.387C602.637 253.686 602.446 254.037 602.446 254.442H600.829C600.829 253.615 601.175 252.939 601.866 252.411C602.558 251.884 603.422 251.62 604.459 251.62C605.572 251.62 606.439 251.861 607.061 252.341C607.682 252.816 607.992 253.495 607.992 254.38C607.992 254.808 607.863 255.2 607.605 255.558C607.348 255.915 606.981 256.199 606.507 256.41C607.614 256.785 608.168 257.524 608.168 258.625C608.168 259.498 607.831 260.19 607.157 260.699C606.483 261.209 605.584 261.464 604.459 261.464C603.363 261.464 602.458 261.198 601.743 260.664C601.034 260.125 600.68 259.399 600.68 258.485H602.297C602.297 258.948 602.502 259.346 602.912 259.68C603.328 260.008 603.844 260.172 604.459 260.172C605.08 260.172 605.581 260.029 605.962 259.741C606.343 259.454 606.533 259.082 606.533 258.625C606.533 258.092 606.372 257.711 606.05 257.483C605.733 257.248 605.238 257.131 604.564 257.131H602.938V255.76H604.705C605.812 255.731 606.366 255.274 606.366 254.389ZM618.047 261.297H616.421V257.237H612.053V261.297H610.418V251.787H612.053V255.909H616.421V251.787H618.047V261.297ZM626.818 251.787H628.444V261.297H626.818V254.363L622.433 261.297H620.807V251.787H622.433V258.731L626.818 251.787ZM638.235 261.297H636.601V257.852C635.886 258.039 635.153 258.133 634.403 258.133C633.214 258.133 632.306 257.828 631.679 257.219C631.058 256.61 630.741 255.742 630.729 254.617V251.779H632.355V254.67C632.385 256.088 633.067 256.797 634.403 256.797C635.153 256.797 635.886 256.703 636.601 256.516V251.787H638.235V261.297ZM648.615 261.297H646.989V257.237H642.621V261.297H640.986V251.787H642.621V255.909H646.989V251.787H648.615V261.297ZM653.01 255.066H655.479C656.558 255.077 657.41 255.359 658.037 255.909C658.664 256.46 658.978 257.207 658.978 258.151C658.978 259.1 658.655 259.862 658.011 260.436C657.366 261.01 656.499 261.297 655.409 261.297H651.384V251.787H653.01V255.066ZM662.37 261.297H660.735V251.787H662.37V261.297ZM653.01 256.393V259.97H655.427C656.036 259.97 656.508 259.815 656.842 259.504C657.176 259.188 657.343 258.757 657.343 258.212C657.343 257.685 657.179 257.254 656.851 256.92C656.528 256.58 656.074 256.405 655.488 256.393H653.01ZM668.399 255.259L670.509 251.787H672.407L669.296 256.49L672.504 261.297H670.623L668.426 257.738L666.229 261.297H664.339L667.547 256.49L664.436 251.787H666.316L668.399 255.259ZM685.67 253.106H682.479V261.297H680.854V253.106H677.725V251.787H685.67V253.106ZM686.452 256.454C686.452 255.523 686.634 254.685 686.997 253.941C687.366 253.197 687.876 252.622 688.526 252.218C689.183 251.814 689.93 251.612 690.768 251.612C692.062 251.612 693.108 252.06 693.905 252.956C694.708 253.853 695.109 255.045 695.109 256.533V256.648C695.109 257.573 694.931 258.406 694.573 259.144C694.222 259.876 693.715 260.448 693.053 260.858C692.396 261.268 691.641 261.473 690.785 261.473C689.496 261.473 688.45 261.025 687.647 260.128C686.851 259.232 686.452 258.045 686.452 256.569V256.454ZM688.087 256.648C688.087 257.702 688.33 258.549 688.816 259.188C689.309 259.826 689.965 260.146 690.785 260.146C691.611 260.146 692.268 259.823 692.754 259.179C693.24 258.529 693.483 257.62 693.483 256.454C693.483 255.411 693.234 254.568 692.736 253.923C692.244 253.273 691.588 252.948 690.768 252.948C689.965 252.948 689.317 253.267 688.825 253.906C688.333 254.544 688.087 255.458 688.087 256.648ZM704.329 261.297H702.694V257.852C701.979 258.039 701.247 258.133 700.497 258.133C699.308 258.133 698.399 257.828 697.772 257.219C697.151 256.61 696.835 255.742 696.823 254.617V251.779H698.449V254.67C698.479 256.088 699.161 256.797 700.497 256.797C701.247 256.797 701.979 256.703 702.694 256.516V251.787H704.329V261.297ZM709.901 257.245H708.715V261.297H707.08V251.787H708.715V255.813H709.778L712.978 251.787H714.946L711.185 256.358L715.263 261.297H713.197L709.901 257.245ZM722.531 261.297C722.438 261.11 722.361 260.776 722.303 260.295C721.547 261.08 720.645 261.473 719.596 261.473C718.658 261.473 717.888 261.209 717.284 260.682C716.687 260.149 716.388 259.475 716.388 258.66C716.388 257.67 716.763 256.903 717.513 256.358C718.269 255.807 719.329 255.531 720.694 255.531H722.276V254.784C722.276 254.216 722.106 253.765 721.767 253.431C721.427 253.091 720.926 252.921 720.264 252.921C719.684 252.921 719.197 253.068 718.805 253.361C718.412 253.654 718.216 254.008 718.216 254.424H716.581C716.581 253.949 716.748 253.492 717.082 253.053C717.422 252.608 717.879 252.256 718.453 251.998C719.033 251.74 719.669 251.612 720.36 251.612C721.456 251.612 722.314 251.887 722.936 252.438C723.557 252.983 723.879 253.736 723.902 254.697V259.073C723.902 259.947 724.014 260.641 724.236 261.156V261.297H722.531ZM719.833 260.058C720.343 260.058 720.826 259.926 721.283 259.662C721.74 259.399 722.071 259.056 722.276 258.634V256.683H721.002C719.01 256.683 718.014 257.266 718.014 258.432C718.014 258.942 718.184 259.34 718.523 259.627C718.863 259.914 719.3 260.058 719.833 260.058ZM729.642 255.259L731.751 251.787H733.649L730.538 256.49L733.746 261.297H731.865L729.668 257.738L727.471 261.297H725.581L728.789 256.49L725.678 251.787H727.559L729.642 255.259ZM743.66 260.146C744.24 260.146 744.747 259.97 745.181 259.618C745.614 259.267 745.854 258.827 745.901 258.3H747.439C747.41 258.845 747.223 259.364 746.877 259.856C746.531 260.348 746.068 260.74 745.488 261.033C744.914 261.326 744.305 261.473 743.66 261.473C742.365 261.473 741.334 261.042 740.566 260.181C739.805 259.314 739.424 258.13 739.424 256.63V256.358C739.424 255.432 739.594 254.609 739.934 253.888C740.273 253.167 740.76 252.608 741.393 252.209C742.031 251.811 742.784 251.612 743.651 251.612C744.718 251.612 745.603 251.931 746.306 252.57C747.015 253.208 747.393 254.037 747.439 255.057H745.901C745.854 254.442 745.62 253.938 745.198 253.545C744.782 253.147 744.267 252.948 743.651 252.948C742.825 252.948 742.184 253.246 741.727 253.844C741.275 254.436 741.05 255.294 741.05 256.419V256.727C741.05 257.823 741.275 258.666 741.727 259.258C742.178 259.85 742.822 260.146 743.66 260.146ZM756.334 253.106H753.144V261.297H751.518V253.106H748.389V251.787H756.334V253.106ZM765.949 256.648C765.949 258.095 765.618 259.261 764.956 260.146C764.294 261.031 763.397 261.473 762.267 261.473C761.112 261.473 760.204 261.107 759.542 260.374V264.953H757.916V251.787H759.401L759.48 252.842C760.143 252.022 761.062 251.612 762.24 251.612C763.383 251.612 764.285 252.042 764.947 252.904C765.615 253.765 765.949 254.963 765.949 256.498V256.648ZM764.323 256.463C764.323 255.391 764.095 254.544 763.638 253.923C763.181 253.302 762.554 252.991 761.757 252.991C760.772 252.991 760.034 253.428 759.542 254.301V258.845C760.028 259.712 760.772 260.146 761.774 260.146C762.554 260.146 763.172 259.838 763.629 259.223C764.092 258.602 764.323 257.682 764.323 256.463ZM773.895 261.297C773.801 261.11 773.725 260.776 773.666 260.295C772.91 261.08 772.008 261.473 770.959 261.473C770.021 261.473 769.251 261.209 768.647 260.682C768.05 260.149 767.751 259.475 767.751 258.66C767.751 257.67 768.126 256.903 768.876 256.358C769.632 255.807 770.692 255.531 772.058 255.531H773.64V254.784C773.64 254.216 773.47 253.765 773.13 253.431C772.79 253.091 772.289 252.921 771.627 252.921C771.047 252.921 770.561 253.068 770.168 253.361C769.775 253.654 769.579 254.008 769.579 254.424H767.944C767.944 253.949 768.111 253.492 768.445 253.053C768.785 252.608 769.242 252.256 769.816 251.998C770.396 251.74 771.032 251.612 771.724 251.612C772.819 251.612 773.678 251.887 774.299 252.438C774.92 252.983 775.242 253.736 775.266 254.697V259.073C775.266 259.947 775.377 260.641 775.6 261.156V261.297H773.895ZM771.196 260.058C771.706 260.058 772.189 259.926 772.646 259.662C773.104 259.399 773.435 259.056 773.64 258.634V256.683H772.365C770.373 256.683 769.377 257.266 769.377 258.432C769.377 258.942 769.547 259.34 769.887 259.627C770.227 259.914 770.663 260.058 771.196 260.058ZM785.584 261.297H783.958V257.237H779.59V261.297H777.955V251.787H779.59V255.909H783.958V251.787H785.584V261.297ZM789.979 255.066H792.448C793.526 255.077 794.379 255.359 795.006 255.909C795.633 256.46 795.946 257.207 795.946 258.151C795.946 259.1 795.624 259.862 794.979 260.436C794.335 261.01 793.468 261.297 792.378 261.297H788.353V251.787H789.979V255.066ZM799.339 261.297H797.704V251.787H799.339V261.297ZM789.979 256.393V259.97H792.396C793.005 259.97 793.477 259.815 793.811 259.504C794.145 259.188 794.312 258.757 794.312 258.212C794.312 257.685 794.147 257.254 793.819 256.92C793.497 256.58 793.043 256.405 792.457 256.393H789.979Z" fill="#4F4F4F"/>
</svg>
