<svg width="1131" height="598" viewBox="0 0 1131 598" fill="none" xmlns="http://www.w3.org/2000/svg">
<path fill-rule="evenodd" clip-rule="evenodd" d="M0 0H1131V598H0V0ZM286.012 193.044C288.719 194.319 291.933 194.956 295.571 194.956C301.746 194.956 307.16 192.805 311.643 188.743C316.042 184.601 318.241 179.822 318.241 174.644C318.241 170.183 316.296 163.731 312.404 154.81L266.133 46.0802L265.938 45.6C263.828 40.4041 262.114 36.1832 260.719 32.9371C259.196 29.3526 257.335 26.0071 255.051 22.9005C252.514 19.4753 249.215 16.6077 245.239 14.457C241.094 12.2267 236.018 11.1115 230.181 11.1115C224.429 11.1115 219.354 12.2267 215.293 14.457C211.233 16.6874 207.934 19.555 205.481 23.0598C203.197 26.246 201.082 30.2288 199.136 34.9285L198.121 37.4774C197.005 40.0736 196.042 42.4299 195.192 44.5092L195.192 44.5102L195.19 44.5151L195.19 44.5153L195.182 44.5336L195.173 44.5568C194.935 45.1399 194.705 45.7011 194.484 46.2395L149.143 155.686C147.197 160.226 145.844 163.652 144.998 166.28C144.067 169.148 143.56 172.015 143.56 174.803C143.56 180.061 145.844 184.84 150.327 188.902C154.726 192.885 159.971 194.956 165.807 194.956C172.828 194.956 178.073 192.805 181.372 188.584C183.995 185.238 186.955 179.264 190.508 170.343L197.783 151.863H262.834L270.024 169.944L270.109 170.024C271.208 172.653 272.562 175.759 274.169 179.184C275.945 183.008 277.637 185.796 279.245 187.787C281.021 190.017 283.305 191.77 286.012 193.044ZM249.384 116.655H210.895L229.928 66.0737L249.384 116.655ZM458.316 191.053C462.292 193.682 467.367 194.956 473.373 194.956C479.972 194.956 485.385 193.124 489.361 189.46C493.506 185.796 495.621 181.335 495.621 176.237C495.621 172.175 494.606 168.033 492.491 163.811C490.63 159.987 487.839 155.686 484.117 150.668L436.322 85.5096L476.842 48.9478C483.271 43.133 486.485 36.9995 486.485 30.7067C486.485 25.2902 484.37 20.5905 480.141 16.767C475.996 13.0232 470.667 11.1115 464.153 11.1115C459.162 11.1115 454.933 12.2267 451.803 14.5367C449.096 16.2891 446.05 18.9974 442.413 22.5819L380.746 83.7572V36.6012C380.746 28.4764 378.631 22.1039 374.402 17.8026C370.087 13.3419 364.42 11.1115 357.568 11.1115C350.547 11.1115 344.879 13.4215 340.734 17.9619C336.758 22.2633 334.728 28.556 334.728 36.6012V161.899C334.728 167.395 334.813 171.617 335.067 174.564C335.32 177.99 336.166 181.096 337.604 183.804L337.689 183.964C339.719 187.309 342.511 190.017 346.148 192.009C349.701 194 353.507 194.956 357.483 194.956C364.251 194.956 369.834 192.726 374.232 188.345C378.462 184.043 380.661 177.671 380.661 169.387V136.569L404.009 115.221L443.005 172.334C444.457 174.547 446.021 177.026 447.698 179.683L447.728 179.73C448.094 180.31 448.465 180.898 448.842 181.494C451.38 185.397 454.594 188.663 458.316 191.053ZM541.139 184.84C553.235 191.531 568.631 194.956 586.987 194.956C602.214 194.956 615.664 192.487 626.83 187.787C638.334 182.769 647.216 175.759 653.222 166.917C659.228 158.076 662.274 147.959 662.274 136.887C662.274 127.647 660.497 119.682 656.944 113.15C653.391 106.618 648.401 101.202 642.056 96.9003C636.05 92.7583 628.691 89.2534 620.147 86.4655C611.942 83.7572 602.637 81.2082 592.57 78.9779C584.703 77.0661 579.036 75.6324 575.652 74.6765C572.522 73.8003 569.392 72.5258 566.347 70.9327C563.64 69.4989 561.525 67.8261 560.003 65.9144C558.734 64.3213 558.142 62.3299 558.142 60.0199C558.142 56.1168 560.256 52.8509 564.571 49.9037C569.392 46.6378 575.906 44.965 584.027 44.965C592.74 44.965 598.999 46.3988 602.552 49.1868C606.528 52.2933 609.996 56.754 612.872 62.4892L612.957 62.6485C615.664 67.5075 618.286 71.092 620.824 73.402C623.954 76.2696 628.268 77.7034 633.766 77.7034C639.688 77.7034 644.932 75.473 648.908 71.1717C652.715 67.0296 654.66 62.3299 654.66 57.0727C654.66 51.8951 653.222 46.6378 650.515 41.3009C647.724 36.1233 643.494 31.105 637.742 26.4053C632.074 21.7853 624.884 18.0415 616.341 15.2536C607.881 12.4656 597.9 11.1115 586.48 11.1115C572.268 11.1115 559.664 13.1825 548.837 17.245C537.924 21.4667 529.381 27.6002 523.544 35.5657C517.622 43.6109 514.662 52.8509 514.662 63.0468C514.662 73.8003 517.538 82.9606 523.205 90.2889C528.789 97.4579 536.317 103.193 545.622 107.335C554.504 111.238 565.586 114.743 578.613 117.611C587.918 119.602 595.362 121.593 600.86 123.346C605.767 124.939 609.742 127.169 612.788 130.117C615.495 132.666 616.763 136.011 616.763 140.392C616.763 145.968 614.141 150.429 608.812 154.252C603.144 158.315 595.446 160.386 585.972 160.386C579.036 160.386 573.537 159.43 569.562 157.438C565.586 155.447 562.456 152.978 560.341 150.03C557.972 146.685 555.689 142.463 553.574 137.525C551.459 132.267 548.837 128.285 545.622 125.497C542.069 122.39 537.671 120.797 532.595 120.797C526.505 120.797 521.344 122.788 517.369 126.691C513.477 130.515 511.447 135.215 511.447 140.631C511.447 148.597 514.239 156.881 519.737 165.165C525.236 173.29 532.426 179.901 541.139 184.84ZM812.333 193.044C815.04 194.319 818.254 194.956 821.892 194.956C828.151 194.956 833.481 192.805 838.049 188.743C842.447 184.601 844.647 179.822 844.647 174.644C844.647 170.183 842.701 163.731 838.81 154.81L792.538 46.0802L792.339 45.5893C790.231 40.3983 788.519 36.1809 787.124 32.9371C785.602 29.3526 783.741 26.0071 781.457 22.9005C778.919 19.4753 775.62 16.6077 771.644 14.457C767.499 12.2267 762.424 11.1115 756.587 11.1115C750.835 11.1115 745.844 12.2267 741.699 14.457C737.638 16.6874 734.339 19.555 731.886 23.0598C729.602 26.246 727.488 30.2288 725.542 34.9285C724.483 37.541 723.483 39.9552 722.58 42.1374C721.969 43.6146 721.402 44.9855 720.889 46.2395L675.548 155.686C673.603 160.226 672.249 163.652 671.403 166.28C670.473 169.148 669.965 172.015 669.965 174.803C669.965 180.061 672.249 184.84 676.733 188.902C681.131 192.885 686.376 194.956 692.213 194.956C699.234 194.956 704.479 192.805 707.778 188.584C710.4 185.238 713.445 179.264 716.914 170.343L724.188 151.863H789.155L796.345 169.944L796.43 170.024C797.529 172.653 798.883 175.759 800.49 179.184C802.266 183.008 803.958 185.796 805.565 187.787C807.342 190.017 809.626 191.77 812.333 193.044ZM775.705 116.655H737.216L756.249 66.0737L775.705 116.655ZM890.923 188.265C895.237 192.726 900.82 194.956 907.588 194.956C914.27 194.956 919.938 192.726 924.421 188.345C928.651 183.964 930.85 177.671 930.85 169.466V117.451L974.33 53.9661C978.221 48.4699 980.928 44.1685 982.536 40.9823C984.397 37.3181 985.327 33.5743 985.327 29.9102C985.327 24.8919 983.212 20.5108 979.236 16.767C975.176 13.1029 970.185 11.1912 964.348 11.1912C960.626 11.1912 957.327 11.9081 954.62 13.2622C952.083 14.5367 949.714 16.3688 947.599 18.7584C945.738 20.8295 944.131 23.0598 942.608 25.3698C941.17 27.5205 939.479 30.1491 937.533 33.2557L908.434 77.783L879.672 33.2557C874.343 24.9715 870.452 19.555 867.661 16.6874C864.108 12.9436 859.117 11.1115 852.688 11.1115C846.682 11.1115 841.522 13.0232 837.377 16.6874C833.147 20.5108 831.033 25.0512 831.033 30.3084C831.033 33.415 831.963 36.7605 833.824 40.6636C835.516 44.0888 838.223 48.6292 842.199 54.683L884.663 117.292V169.387C884.663 177.591 886.778 183.964 890.923 188.265ZM12.7676 478.22C12.7676 478.22 131.981 294.819 353.633 333.877C417.386 345.111 477.124 375.731 538.606 407.246C690.885 485.301 853.865 568.841 1115.04 376.897C1115.04 376.897 988.638 586.336 694.499 545.015C694.499 545.015 555.218 496.617 443.193 447.371C331.169 398.124 153.847 330.764 12.7676 478.22ZM790.353 411.994C790.353 411.994 969.472 413.126 959.887 258.594C959.887 258.594 924.543 361.616 790.353 411.994ZM744.222 447.657C744.222 447.657 1031.17 505.96 1087.48 278.407C1087.48 278.407 951.977 437.072 744.222 447.657ZM487.821 503.693C282.343 414.822 189.488 429.54 189.488 429.54C375.796 466.899 438.698 512.75 438.698 512.75C697.492 641.244 763.988 586.337 763.988 586.337C644.775 598.224 487.821 503.693 487.821 503.693Z" fill="white"/>
<path d="M416.28 266.926L413.626 266.135L414.03 264.808L416.684 265.792L416.605 262.769H417.95L417.862 265.836L420.472 264.869L420.877 266.205L418.178 267.005L419.919 269.387L418.829 270.213L417.194 267.682L415.612 270.152L414.513 269.352L416.28 266.926ZM426.176 274.414C426.757 274.414 427.263 274.239 427.697 273.887C428.131 273.535 428.371 273.096 428.418 272.569H429.956C429.926 273.114 429.739 273.632 429.393 274.124C429.048 274.616 428.585 275.009 428.005 275.302C427.43 275.595 426.821 275.741 426.176 275.741C424.882 275.741 423.85 275.311 423.083 274.449C422.321 273.582 421.94 272.399 421.94 270.899V270.626C421.94 269.7 422.11 268.877 422.45 268.156C422.79 267.436 423.276 266.876 423.909 266.478C424.548 266.079 425.3 265.88 426.168 265.88C427.234 265.88 428.119 266.199 428.822 266.838C429.531 267.477 429.909 268.306 429.956 269.325H428.418C428.371 268.71 428.136 268.206 427.715 267.814C427.299 267.415 426.783 267.216 426.168 267.216C425.342 267.216 424.7 267.515 424.243 268.113C423.792 268.704 423.566 269.563 423.566 270.688V270.995C423.566 272.091 423.792 272.935 424.243 273.527C424.694 274.118 425.339 274.414 426.176 274.414ZM439.562 275.566H437.936V267.401H433.559V275.566H431.925V266.056H439.562V275.566ZM450.206 270.916C450.206 272.364 449.875 273.53 449.213 274.414C448.55 275.299 447.654 275.741 446.523 275.741C445.369 275.741 444.461 275.375 443.799 274.643V279.222H442.173V266.056H443.658L443.737 267.111C444.399 266.29 445.319 265.88 446.497 265.88C447.639 265.88 448.542 266.311 449.204 267.172C449.872 268.033 450.206 269.232 450.206 270.767V270.916ZM448.58 270.732C448.58 269.659 448.351 268.813 447.894 268.192C447.437 267.571 446.81 267.26 446.013 267.26C445.029 267.26 444.291 267.697 443.799 268.57V273.114C444.285 273.981 445.029 274.414 446.031 274.414C446.81 274.414 447.428 274.107 447.885 273.491C448.348 272.87 448.58 271.95 448.58 270.732ZM458.151 275.566C458.057 275.378 457.981 275.044 457.923 274.564C457.167 275.349 456.264 275.741 455.216 275.741C454.278 275.741 453.508 275.478 452.904 274.95C452.306 274.417 452.008 273.743 452.008 272.929C452.008 271.939 452.383 271.171 453.133 270.626C453.888 270.075 454.949 269.8 456.314 269.8H457.896V269.053C457.896 268.485 457.726 268.033 457.386 267.699C457.047 267.36 456.546 267.19 455.883 267.19C455.303 267.19 454.817 267.336 454.425 267.629C454.032 267.922 453.836 268.277 453.836 268.693H452.201C452.201 268.218 452.368 267.761 452.702 267.322C453.042 266.876 453.499 266.525 454.073 266.267C454.653 266.009 455.289 265.88 455.98 265.88C457.076 265.88 457.934 266.156 458.555 266.706C459.176 267.251 459.499 268.004 459.522 268.965V273.342C459.522 274.215 459.633 274.909 459.856 275.425V275.566H458.151ZM455.453 274.326C455.963 274.326 456.446 274.195 456.903 273.931C457.36 273.667 457.691 273.324 457.896 272.903V270.951H456.622C454.63 270.951 453.633 271.534 453.633 272.7C453.633 273.21 453.803 273.609 454.143 273.896C454.483 274.183 454.92 274.326 455.453 274.326ZM463.846 266.056V274.239H467.327V266.056H468.953V274.239H472.425V266.056H474.059V275.566H462.212V266.056H463.846ZM482.778 266.056H484.404V275.566H482.778V268.631L478.392 275.566H476.766V266.056H478.392V272.999L482.778 266.056ZM487.164 275.566V266.056H490.873C492.138 266.056 493.108 266.279 493.782 266.724C494.462 267.163 494.801 267.811 494.801 268.666C494.801 269.106 494.67 269.504 494.406 269.862C494.142 270.213 493.753 270.483 493.237 270.67C493.811 270.805 494.271 271.069 494.617 271.461C494.968 271.854 495.144 272.323 495.144 272.867C495.144 273.74 494.822 274.408 494.177 274.871C493.539 275.334 492.633 275.566 491.462 275.566H487.164ZM488.79 271.391V274.256H491.479C492.159 274.256 492.666 274.13 493 273.878C493.34 273.626 493.509 273.272 493.509 272.815C493.509 271.865 492.812 271.391 491.418 271.391H488.79ZM488.79 270.09H490.89C492.414 270.09 493.175 269.645 493.175 268.754C493.175 267.864 492.455 267.404 491.013 267.374H488.79V270.09ZM503.169 275.566C503.075 275.378 502.999 275.044 502.94 274.564C502.184 275.349 501.282 275.741 500.233 275.741C499.296 275.741 498.525 275.478 497.922 274.95C497.324 274.417 497.025 273.743 497.025 272.929C497.025 271.939 497.4 271.171 498.15 270.626C498.906 270.075 499.967 269.8 501.332 269.8H502.914V269.053C502.914 268.485 502.744 268.033 502.404 267.699C502.064 267.36 501.563 267.19 500.901 267.19C500.321 267.19 499.835 267.336 499.442 267.629C499.05 267.922 498.853 268.277 498.853 268.693H497.218C497.218 268.218 497.385 267.761 497.719 267.322C498.059 266.876 498.516 266.525 499.091 266.267C499.671 266.009 500.306 265.88 500.998 265.88C502.093 265.88 502.952 266.156 503.573 266.706C504.194 267.251 504.516 268.004 504.54 268.965V273.342C504.54 274.215 504.651 274.909 504.874 275.425V275.566H503.169ZM500.47 274.326C500.98 274.326 501.464 274.195 501.921 273.931C502.378 273.667 502.709 273.324 502.914 272.903V270.951H501.639C499.647 270.951 498.651 271.534 498.651 272.7C498.651 273.21 498.821 273.609 499.161 273.896C499.501 274.183 499.937 274.326 500.47 274.326ZM513.241 266.056H514.867V275.566H513.241V268.631L508.855 275.566H507.229V266.056H508.855V272.999L513.241 266.056ZM513.68 262.593C513.68 263.302 513.437 263.873 512.951 264.307C512.47 264.735 511.838 264.948 511.052 264.948C510.267 264.948 509.632 264.732 509.145 264.298C508.659 263.865 508.416 263.296 508.416 262.593H509.743C509.743 263.003 509.854 263.325 510.077 263.56C510.3 263.788 510.625 263.903 511.052 263.903C511.463 263.903 511.782 263.788 512.01 263.56C512.245 263.331 512.362 263.009 512.362 262.593H513.68ZM524.544 267.374H521.353V275.566H519.727V267.374H516.598V266.056H524.544V267.374ZM529.369 275.741C528.08 275.741 527.031 275.32 526.222 274.476C525.414 273.626 525.009 272.492 525.009 271.074V270.776C525.009 269.832 525.188 268.991 525.546 268.253C525.909 267.509 526.413 266.929 527.057 266.513C527.708 266.091 528.411 265.88 529.167 265.88C530.403 265.88 531.364 266.287 532.05 267.102C532.735 267.916 533.078 269.082 533.078 270.6V271.277H526.635C526.659 272.214 526.931 272.973 527.453 273.553C527.98 274.127 528.648 274.414 529.457 274.414C530.031 274.414 530.517 274.297 530.916 274.063C531.314 273.828 531.663 273.518 531.962 273.131L532.955 273.905C532.158 275.129 530.963 275.741 529.369 275.741ZM529.167 267.216C528.51 267.216 527.96 267.456 527.514 267.937C527.069 268.411 526.794 269.079 526.688 269.941H531.452V269.818C531.405 268.991 531.182 268.353 530.784 267.902C530.385 267.445 529.846 267.216 529.167 267.216ZM539.582 275.566V266.056H543.291C544.556 266.056 545.526 266.279 546.2 266.724C546.88 267.163 547.219 267.811 547.219 268.666C547.219 269.106 547.088 269.504 546.824 269.862C546.56 270.213 546.171 270.483 545.655 270.67C546.229 270.805 546.689 271.069 547.035 271.461C547.386 271.854 547.562 272.323 547.562 272.867C547.562 273.74 547.24 274.408 546.595 274.871C545.957 275.334 545.051 275.566 543.88 275.566H539.582ZM541.208 271.391V274.256H543.897C544.577 274.256 545.084 274.13 545.418 273.878C545.758 273.626 545.927 273.272 545.927 272.815C545.927 271.865 545.23 271.391 543.836 271.391H541.208ZM541.208 270.09H543.308C544.832 270.09 545.593 269.645 545.593 268.754C545.593 267.864 544.873 267.404 543.431 267.374H541.208V270.09ZM549.285 270.723C549.285 269.791 549.467 268.953 549.83 268.209C550.199 267.465 550.709 266.891 551.359 266.487C552.015 266.082 552.762 265.88 553.6 265.88C554.895 265.88 555.941 266.328 556.738 267.225C557.541 268.121 557.942 269.314 557.942 270.802V270.916C557.942 271.842 557.763 272.674 557.406 273.412C557.054 274.145 556.548 274.716 555.885 275.126C555.229 275.536 554.473 275.741 553.618 275.741C552.329 275.741 551.283 275.293 550.48 274.397C549.683 273.5 549.285 272.314 549.285 270.837V270.723ZM550.92 270.916C550.92 271.971 551.163 272.818 551.649 273.456C552.141 274.095 552.798 274.414 553.618 274.414C554.444 274.414 555.1 274.092 555.587 273.448C556.073 272.797 556.316 271.889 556.316 270.723C556.316 269.68 556.067 268.836 555.569 268.192C555.077 267.541 554.421 267.216 553.6 267.216C552.798 267.216 552.15 267.535 551.658 268.174C551.166 268.813 550.92 269.727 550.92 270.916ZM564.595 275.566V266.056H568.304C569.57 266.056 570.54 266.279 571.214 266.724C571.893 267.163 572.233 267.811 572.233 268.666C572.233 269.106 572.101 269.504 571.838 269.862C571.574 270.213 571.184 270.483 570.669 270.67C571.243 270.805 571.703 271.069 572.049 271.461C572.4 271.854 572.576 272.323 572.576 272.867C572.576 273.74 572.254 274.408 571.609 274.871C570.97 275.334 570.065 275.566 568.893 275.566H564.595ZM566.221 271.391V274.256H568.911C569.591 274.256 570.097 274.13 570.431 273.878C570.771 273.626 570.941 273.272 570.941 272.815C570.941 271.865 570.244 271.391 568.849 271.391H566.221ZM566.221 270.09H568.322C569.845 270.09 570.607 269.645 570.607 268.754C570.607 267.864 569.886 267.404 568.445 267.374H566.221V270.09ZM578.544 274.414C579.124 274.414 579.631 274.239 580.064 273.887C580.498 273.535 580.738 273.096 580.785 272.569H582.323C582.294 273.114 582.106 273.632 581.76 274.124C581.415 274.616 580.952 275.009 580.372 275.302C579.798 275.595 579.188 275.741 578.544 275.741C577.249 275.741 576.217 275.311 575.45 274.449C574.688 273.582 574.307 272.399 574.307 270.899V270.626C574.307 269.7 574.477 268.877 574.817 268.156C575.157 267.436 575.643 266.876 576.276 266.478C576.915 266.079 577.668 265.88 578.535 265.88C579.601 265.88 580.486 266.199 581.189 266.838C581.898 267.477 582.276 268.306 582.323 269.325H580.785C580.738 268.71 580.504 268.206 580.082 267.814C579.666 267.415 579.15 267.216 578.535 267.216C577.709 267.216 577.067 267.515 576.61 268.113C576.159 268.704 575.933 269.563 575.933 270.688V270.995C575.933 272.091 576.159 272.935 576.61 273.527C577.061 274.118 577.706 274.414 578.544 274.414ZM588.097 275.741C586.808 275.741 585.759 275.32 584.951 274.476C584.142 273.626 583.738 272.492 583.738 271.074V270.776C583.738 269.832 583.917 268.991 584.274 268.253C584.637 267.509 585.141 266.929 585.786 266.513C586.436 266.091 587.139 265.88 587.895 265.88C589.132 265.88 590.092 266.287 590.778 267.102C591.464 267.916 591.806 269.082 591.806 270.6V271.277H585.364C585.387 272.214 585.66 272.973 586.181 273.553C586.709 274.127 587.377 274.414 588.185 274.414C588.759 274.414 589.246 274.297 589.644 274.063C590.043 273.828 590.391 273.518 590.69 273.131L591.683 273.905C590.886 275.129 589.691 275.741 588.097 275.741ZM587.895 267.216C587.239 267.216 586.688 267.456 586.243 267.937C585.798 268.411 585.522 269.079 585.417 269.941H590.18V269.818C590.133 268.991 589.911 268.353 589.512 267.902C589.114 267.445 588.575 267.216 587.895 267.216ZM596.886 269.528L598.996 266.056H600.894L597.783 270.758L600.991 275.566H599.11L596.913 272.006L594.716 275.566H592.826L596.034 270.758L592.923 266.056H594.803L596.886 269.528ZM615.124 270.916C615.124 272.364 614.793 273.53 614.131 274.414C613.468 275.299 612.572 275.741 611.441 275.741C610.287 275.741 609.379 275.375 608.717 274.643V279.222H607.091V266.056H608.576L608.655 267.111C609.317 266.29 610.237 265.88 611.415 265.88C612.557 265.88 613.46 266.311 614.122 267.172C614.79 268.033 615.124 269.232 615.124 270.767V270.916ZM613.498 270.732C613.498 269.659 613.269 268.813 612.812 268.192C612.355 267.571 611.728 267.26 610.931 267.26C609.947 267.26 609.209 267.697 608.717 268.57V273.114C609.203 273.981 609.947 274.414 610.949 274.414C611.728 274.414 612.346 274.107 612.803 273.491C613.266 272.87 613.498 271.95 613.498 270.732ZM616.767 270.723C616.767 269.791 616.949 268.953 617.312 268.209C617.681 267.465 618.191 266.891 618.842 266.487C619.498 266.082 620.245 265.88 621.083 265.88C622.378 265.88 623.424 266.328 624.22 267.225C625.023 268.121 625.425 269.314 625.425 270.802V270.916C625.425 271.842 625.246 272.674 624.888 273.412C624.537 274.145 624.03 274.716 623.368 275.126C622.712 275.536 621.956 275.741 621.1 275.741C619.811 275.741 618.765 275.293 617.963 274.397C617.166 273.5 616.767 272.314 616.767 270.837V270.723ZM618.402 270.916C618.402 271.971 618.645 272.818 619.132 273.456C619.624 274.095 620.28 274.414 621.1 274.414C621.926 274.414 622.583 274.092 623.069 273.448C623.555 272.797 623.799 271.889 623.799 270.723C623.799 269.68 623.55 268.836 623.051 268.192C622.559 267.541 621.903 267.216 621.083 267.216C620.28 267.216 619.633 267.535 619.14 268.174C618.648 268.813 618.402 269.727 618.402 270.916ZM632.693 268.657C632.693 268.212 632.523 267.861 632.183 267.603C631.843 267.339 631.378 267.207 630.786 267.207C630.212 267.207 629.731 267.357 629.344 267.656C628.964 267.954 628.773 268.306 628.773 268.71H627.156C627.156 267.884 627.502 267.207 628.193 266.68C628.884 266.153 629.749 265.889 630.786 265.889C631.899 265.889 632.766 266.129 633.387 266.61C634.008 267.084 634.319 267.764 634.319 268.649C634.319 269.076 634.19 269.469 633.932 269.826C633.675 270.184 633.308 270.468 632.834 270.679C633.941 271.054 634.495 271.792 634.495 272.894C634.495 273.767 634.158 274.458 633.484 274.968C632.81 275.478 631.911 275.733 630.786 275.733C629.69 275.733 628.785 275.466 628.07 274.933C627.361 274.394 627.007 273.667 627.007 272.753H628.624C628.624 273.216 628.829 273.615 629.239 273.948C629.655 274.277 630.171 274.441 630.786 274.441C631.407 274.441 631.908 274.297 632.289 274.01C632.67 273.723 632.86 273.351 632.86 272.894C632.86 272.361 632.699 271.98 632.377 271.751C632.06 271.517 631.565 271.4 630.891 271.4H629.265V270.029H631.032C632.139 269.999 632.693 269.542 632.693 268.657ZM644.374 275.566H642.748V271.505H638.38V275.566H636.745V266.056H638.38V270.178H642.748V266.056H644.374V275.566ZM653.145 266.056H654.771V275.566H653.145V268.631L648.759 275.566H647.133V266.056H648.759V272.999L653.145 266.056ZM664.562 275.566H662.927V272.12C662.213 272.308 661.48 272.402 660.73 272.402C659.541 272.402 658.633 272.097 658.006 271.488C657.384 270.878 657.068 270.011 657.056 268.886V266.047H658.682V268.939C658.712 270.357 659.394 271.066 660.73 271.066C661.48 271.066 662.213 270.972 662.927 270.784V266.056H664.562V275.566ZM674.942 275.566H673.316V271.505H668.948V275.566H667.313V266.056H668.948V270.178H673.316V266.056H674.942V275.566ZM679.337 269.334H681.806C682.884 269.346 683.737 269.627 684.364 270.178C684.991 270.729 685.304 271.476 685.304 272.419C685.304 273.368 684.982 274.13 684.338 274.704C683.693 275.279 682.826 275.566 681.736 275.566H677.711V266.056H679.337V269.334ZM688.697 275.566H687.062V266.056H688.697V275.566ZM679.337 270.661V274.239H681.754C682.363 274.239 682.835 274.083 683.169 273.773C683.503 273.456 683.67 273.026 683.67 272.481C683.67 271.953 683.506 271.523 683.177 271.189C682.855 270.849 682.401 270.673 681.815 270.661H679.337ZM694.726 269.528L696.836 266.056H698.734L695.623 270.758L698.831 275.566H696.95L694.753 272.006L692.555 275.566H690.666L693.874 270.758L690.762 266.056H692.643L694.726 269.528ZM711.997 267.374H708.806V275.566H707.18V267.374H704.051V266.056H711.997V267.374ZM712.779 270.723C712.779 269.791 712.961 268.953 713.324 268.209C713.693 267.465 714.203 266.891 714.853 266.487C715.509 266.082 716.257 265.88 717.094 265.88C718.389 265.88 719.435 266.328 720.232 267.225C721.035 268.121 721.436 269.314 721.436 270.802V270.916C721.436 271.842 721.258 272.674 720.9 273.412C720.549 274.145 720.042 274.716 719.38 275.126C718.723 275.536 717.967 275.741 717.112 275.741C715.823 275.741 714.777 275.293 713.974 274.397C713.177 273.5 712.779 272.314 712.779 270.837V270.723ZM714.414 270.916C714.414 271.971 714.657 272.818 715.143 273.456C715.635 274.095 716.292 274.414 717.112 274.414C717.938 274.414 718.594 274.092 719.081 273.448C719.567 272.797 719.81 271.889 719.81 270.723C719.81 269.68 719.561 268.836 719.063 268.192C718.571 267.541 717.915 267.216 717.094 267.216C716.292 267.216 715.644 267.535 715.152 268.174C714.66 268.813 714.414 269.727 714.414 270.916ZM730.656 275.566H729.021V272.12C728.306 272.308 727.574 272.402 726.824 272.402C725.634 272.402 724.726 272.097 724.099 271.488C723.478 270.878 723.162 270.011 723.15 268.886V266.047H724.776V268.939C724.805 270.357 725.488 271.066 726.824 271.066C727.574 271.066 728.306 270.972 729.021 270.784V266.056H730.656V275.566ZM736.228 271.514H735.042V275.566H733.407V266.056H735.042V270.081H736.105L739.304 266.056H741.273L737.511 270.626L741.59 275.566H739.524L736.228 271.514ZM748.858 275.566C748.764 275.378 748.688 275.044 748.63 274.564C747.874 275.349 746.971 275.741 745.923 275.741C744.985 275.741 744.215 275.478 743.611 274.95C743.013 274.417 742.715 273.743 742.715 272.929C742.715 271.939 743.09 271.171 743.84 270.626C744.595 270.075 745.656 269.8 747.021 269.8H748.603V269.053C748.603 268.485 748.433 268.033 748.093 267.699C747.754 267.36 747.253 267.19 746.591 267.19C746.01 267.19 745.524 267.336 745.132 267.629C744.739 267.922 744.543 268.277 744.543 268.693H742.908C742.908 268.218 743.075 267.761 743.409 267.322C743.749 266.876 744.206 266.525 744.78 266.267C745.36 266.009 745.996 265.88 746.687 265.88C747.783 265.88 748.641 266.156 749.262 266.706C749.883 267.251 750.206 268.004 750.229 268.965V273.342C750.229 274.215 750.341 274.909 750.563 275.425V275.566H748.858ZM746.16 274.326C746.67 274.326 747.153 274.195 747.61 273.931C748.067 273.667 748.398 273.324 748.603 272.903V270.951H747.329C745.337 270.951 744.341 271.534 744.341 272.7C744.341 273.21 744.51 273.609 744.85 273.896C745.19 274.183 745.627 274.326 746.16 274.326ZM755.968 269.528L758.078 266.056H759.976L756.865 270.758L760.073 275.566H758.192L755.995 272.006L753.798 275.566H751.908L755.116 270.758L752.005 266.056H753.885L755.968 269.528ZM769.987 274.414C770.567 274.414 771.074 274.239 771.508 273.887C771.941 273.535 772.181 273.096 772.228 272.569H773.766C773.737 273.114 773.549 273.632 773.204 274.124C772.858 274.616 772.395 275.009 771.815 275.302C771.241 275.595 770.632 275.741 769.987 275.741C768.692 275.741 767.661 275.311 766.893 274.449C766.132 273.582 765.751 272.399 765.751 270.899V270.626C765.751 269.7 765.921 268.877 766.26 268.156C766.6 267.436 767.087 266.876 767.719 266.478C768.358 266.079 769.111 265.88 769.978 265.88C771.045 265.88 771.929 266.199 772.633 266.838C773.341 267.477 773.719 268.306 773.766 269.325H772.228C772.181 268.71 771.947 268.206 771.525 267.814C771.109 267.415 770.593 267.216 769.978 267.216C769.152 267.216 768.51 267.515 768.053 268.113C767.602 268.704 767.377 269.563 767.377 270.688V270.995C767.377 272.091 767.602 272.935 768.053 273.527C768.505 274.118 769.149 274.414 769.987 274.414ZM782.661 267.374H779.47V275.566H777.844V267.374H774.716V266.056H782.661V267.374ZM792.276 270.916C792.276 272.364 791.945 273.53 791.283 274.414C790.621 275.299 789.724 275.741 788.593 275.741C787.439 275.741 786.531 275.375 785.869 274.643V279.222H784.243V266.056H785.728L785.807 267.111C786.469 266.29 787.389 265.88 788.567 265.88C789.71 265.88 790.612 266.311 791.274 267.172C791.942 268.033 792.276 269.232 792.276 270.767V270.916ZM790.65 270.732C790.65 269.659 790.422 268.813 789.965 268.192C789.508 267.571 788.881 267.26 788.084 267.26C787.099 267.26 786.361 267.697 785.869 268.57V273.114C786.355 273.981 787.099 274.414 788.101 274.414C788.881 274.414 789.499 274.107 789.956 273.491C790.419 272.87 790.65 271.95 790.65 270.732ZM800.221 275.566C800.128 275.378 800.051 275.044 799.993 274.564C799.237 275.349 798.335 275.741 797.286 275.741C796.348 275.741 795.578 275.478 794.974 274.95C794.377 274.417 794.078 273.743 794.078 272.929C794.078 271.939 794.453 271.171 795.203 270.626C795.959 270.075 797.019 269.8 798.384 269.8H799.966V269.053C799.966 268.485 799.797 268.033 799.457 267.699C799.117 267.36 798.616 267.19 797.954 267.19C797.374 267.19 796.887 267.336 796.495 267.629C796.102 267.922 795.906 268.277 795.906 268.693H794.271C794.271 268.218 794.438 267.761 794.772 267.322C795.112 266.876 795.569 266.525 796.143 266.267C796.723 266.009 797.359 265.88 798.05 265.88C799.146 265.88 800.005 266.156 800.626 266.706C801.247 267.251 801.569 268.004 801.592 268.965V273.342C801.592 274.215 801.704 274.909 801.926 275.425V275.566H800.221ZM797.523 274.326C798.033 274.326 798.516 274.195 798.973 273.931C799.43 273.667 799.761 273.324 799.966 272.903V270.951H798.692C796.7 270.951 795.704 271.534 795.704 272.7C795.704 273.21 795.874 273.609 796.214 273.896C796.553 274.183 796.99 274.326 797.523 274.326ZM811.911 275.566H810.285V271.505H805.917V275.566H804.282V266.056H805.917V270.178H810.285V266.056H811.911V275.566ZM816.305 269.334H818.775C819.853 269.346 820.706 269.627 821.333 270.178C821.96 270.729 822.273 271.476 822.273 272.419C822.273 273.368 821.951 274.13 821.306 274.704C820.662 275.279 819.795 275.566 818.705 275.566H814.679V266.056H816.305V269.334ZM825.666 275.566H824.031V266.056H825.666V275.566ZM816.305 270.661V274.239H818.722C819.332 274.239 819.803 274.083 820.137 273.773C820.471 273.456 820.638 273.026 820.638 272.481C820.638 271.953 820.474 271.523 820.146 271.189C819.824 270.849 819.37 270.673 818.784 270.661H816.305Z" fill="#4F4F4F"/>
</svg>
