<svg width="148" height="83" viewBox="0 0 148 83" fill="none" xmlns="http://www.w3.org/2000/svg">
<g clip-path="url(#clip0)">
<path d="M35.6045 22.215L34.4687 19.2185H24.8031L23.6673 22.2713C23.2243 23.4655 22.8495 24.2653 22.5315 24.6821C22.2135 25.0989 21.7024 25.3129 20.9868 25.3129C20.3848 25.3129 19.851 25.0876 19.3853 24.6483C18.9083 24.209 18.6812 23.7133 18.6812 23.15C18.6812 22.8233 18.7379 22.4854 18.8402 22.1474C18.9537 21.7982 19.1241 21.3138 19.374 20.7055L25.4618 5.21589C25.6322 4.77655 25.848 4.23582 26.0865 3.61623C26.325 2.99665 26.5863 2.47845 26.8702 2.06164C27.1428 1.64483 27.5063 1.31814 27.9606 1.05904C28.4149 0.799942 28.9601 0.676025 29.6188 0.676025C30.289 0.676025 30.8455 0.799942 31.2998 1.05904C31.7541 1.31814 32.1062 1.64483 32.3902 2.03911C32.6628 2.44466 32.9013 2.87273 33.083 3.3346C33.2761 3.79648 33.5146 4.41606 33.8099 5.18209L40.0227 20.559C40.5111 21.7306 40.7496 22.5755 40.7496 23.1162C40.7496 23.6682 40.5224 24.1752 40.0568 24.637C39.6024 25.0989 39.0459 25.3242 38.3985 25.3242C38.0237 25.3242 37.6943 25.2566 37.4217 25.1214C37.1491 24.9862 36.922 24.806 36.7403 24.5694C36.5585 24.3329 36.3541 23.9837 36.1496 23.4993C35.9452 23.0148 35.7635 22.5868 35.6045 22.215ZM26.0638 15.6024H33.1739L29.5848 5.76788L26.0638 15.6024Z" fill="#FF4236"/>
<path d="M38.398 26C37.9096 26 37.478 25.9099 37.1145 25.7296C36.7511 25.5494 36.4444 25.3016 36.2059 24.9861C35.9901 24.7045 35.7629 24.3102 35.5244 23.7695C35.3086 23.2851 35.1269 22.8458 34.9792 22.474L34.9679 22.4627L34.0025 19.9055H25.2682L24.2914 22.5191C23.8144 23.7808 23.4169 24.6257 23.0648 25.0988C22.6218 25.6958 21.9176 26 20.9749 26C20.1912 26 19.487 25.7071 18.8964 25.1438C18.2945 24.5693 17.9878 23.8934 17.9878 23.1499C17.9878 22.7556 18.0559 22.3501 18.1809 21.9445C18.2945 21.5728 18.4762 21.0884 18.7374 20.4463L24.8253 4.96794C24.9616 4.61872 25.1206 4.20191 25.3137 3.72877L25.4499 3.36828C25.7112 2.70364 25.9951 2.14038 26.3018 1.68977C26.6312 1.19411 27.0741 0.788562 27.6193 0.473137C28.1645 0.157712 28.846 0 29.6183 0C30.402 0 31.0835 0.157712 31.64 0.473137C32.1738 0.777296 32.6168 1.18284 32.9575 1.66724C33.2642 2.10659 33.5141 2.57972 33.7185 3.08666C33.9116 3.55979 34.1501 4.17938 34.4454 4.94541L40.6582 20.3224C41.1807 21.5841 41.4419 22.4965 41.4419 23.1274C41.4419 23.8596 41.1466 24.5355 40.556 25.1213C39.954 25.6958 39.2271 26 38.398 26ZM36.24 21.9783C36.3876 22.3388 36.5694 22.7556 36.7738 23.2288C37.0123 23.7582 37.1713 24.0286 37.2736 24.1525C37.3985 24.3102 37.5461 24.4229 37.7279 24.5243C37.8982 24.6144 38.1254 24.6594 38.398 24.6594C38.8637 24.6594 39.2385 24.5017 39.5792 24.1638C39.9086 23.8371 40.0676 23.4879 40.0676 23.1161C40.0676 22.812 39.954 22.1698 39.3861 20.818L33.162 5.41854C32.878 4.66378 32.6395 4.04419 32.4464 3.59359C32.2761 3.17678 32.0603 2.7825 31.8217 2.42201C31.6059 2.10659 31.322 1.84749 30.9585 1.64471C30.6178 1.45321 30.1635 1.35182 29.6183 1.35182C29.0845 1.35182 28.6415 1.45321 28.2894 1.64471C27.926 1.84749 27.6534 2.10659 27.4262 2.43328C27.1764 2.80503 26.9378 3.27816 26.7107 3.85269L26.5744 4.21317C26.3927 4.68631 26.2336 5.09185 26.086 5.45234L20.0095 20.9419C19.771 21.5503 19.5893 22.0121 19.487 22.3388C19.3962 22.6205 19.3507 22.8908 19.3507 23.1499C19.3507 23.5329 19.5098 23.8596 19.8391 24.175C20.1799 24.5017 20.5433 24.6482 20.9749 24.6482C21.7018 24.6482 21.9063 24.3778 21.9744 24.299C22.1562 24.0511 22.4969 23.4541 23.0194 22.0572L24.3142 18.5537H34.9338L36.24 21.9783ZM34.1388 16.2782H25.0979L29.5842 3.76257L34.1388 16.2782ZM27.0287 14.9263H32.1966L29.5842 7.77296L27.0287 14.9263Z" fill="#FF4236"/>
<path d="M49.1434 3.60497V11.9637L58.6045 2.07291C59.0589 1.59977 59.445 1.23928 59.7631 1.01398C60.0811 0.788677 60.5013 0.676025 61.0351 0.676025C61.728 0.676025 62.2845 0.878798 62.7161 1.28434C63.1477 1.68989 63.3522 2.18556 63.3522 2.77135C63.3522 3.48105 62.9887 4.17949 62.2618 4.86667L56.4011 10.4317L63.1477 20.1197C63.6248 20.7956 63.9768 21.3814 64.2154 21.8883C64.4539 22.3953 64.5675 22.8797 64.5675 23.3641C64.5675 23.8935 64.363 24.3554 63.9428 24.7497C63.5225 25.144 62.966 25.3355 62.2504 25.3355C61.5803 25.3355 61.0351 25.189 60.6149 24.9074C60.1947 24.6258 59.8312 24.2427 59.5473 23.7583C59.2519 23.2852 58.9907 22.8459 58.7636 22.4629L53.0732 13.6873L49.132 17.4724V22.3953C49.132 23.3979 48.9049 24.1301 48.4506 24.6145C47.9962 25.0989 47.417 25.3355 46.7014 25.3355C46.2926 25.3355 45.895 25.2228 45.5202 25.0088C45.1454 24.7947 44.8501 24.5018 44.6457 24.1301C44.498 23.8259 44.4071 23.4767 44.3731 23.0712C44.339 22.6656 44.3276 22.0911 44.3276 21.3363V3.60497C44.3276 2.6249 44.5434 1.89266 44.9637 1.40826C45.3953 0.923859 45.9745 0.676025 46.7128 0.676025C47.4397 0.676025 48.019 0.912594 48.4733 1.397C48.9162 1.8814 49.1434 2.61363 49.1434 3.60497Z" fill="#FF4236"/>
<path d="M62.2731 26C61.4667 26 60.7852 25.8198 60.2514 25.448C59.7517 25.1101 59.32 24.6482 58.9793 24.0962C58.6954 23.623 58.4341 23.1837 58.1956 22.8007L52.9596 14.7236L49.8248 17.7426V22.3839C49.8248 23.5555 49.5295 24.4567 48.9616 25.065C48.371 25.6846 47.6214 26 46.7128 26C46.1789 26 45.6678 25.8648 45.1908 25.5832C44.7024 25.3016 44.3276 24.9185 44.055 24.4454L44.0436 24.4229C43.8506 24.0399 43.737 23.6005 43.7029 23.1161C43.6688 22.6993 43.6575 22.1023 43.6575 21.325V3.60485C43.6575 2.46707 43.9301 1.57712 44.4639 0.968804C45.0204 0.32669 45.7814 0 46.7241 0C47.6441 0 48.4051 0.315425 48.9843 0.946274C49.5522 1.55459 49.8362 2.45581 49.8362 3.60485V10.2738L58.1161 1.62218C58.6045 1.11525 59.0134 0.732236 59.3768 0.484402C59.7971 0.157712 60.365 0 61.0351 0C61.9097 0 62.6252 0.270364 63.1817 0.799827C63.7496 1.34055 64.0336 2.0052 64.0336 2.77123C64.0336 3.66118 63.602 4.5286 62.7388 5.35095L57.2983 10.5217L63.7156 19.7366C64.2153 20.4463 64.5901 21.0546 64.84 21.5953C65.1239 22.1924 65.2602 22.7782 65.2602 23.3527C65.2602 24.0737 64.9763 24.7045 64.4198 25.2227C63.8859 25.7409 63.159 26 62.2731 26ZM53.2095 12.6057L59.3768 22.1023C59.604 22.4853 59.8652 22.9246 60.1492 23.3865C60.3877 23.7808 60.683 24.0962 61.0237 24.3215C61.3304 24.5243 61.7506 24.6369 62.2731 24.6369C62.8069 24.6369 63.2158 24.5017 63.4998 24.2314C63.7837 23.9723 63.9087 23.6906 63.9087 23.3414C63.9087 22.9697 63.8064 22.5641 63.6133 22.1586C63.3975 21.6967 63.0568 21.1334 62.6025 20.4913L55.5151 10.3189L61.7961 4.35962C62.3753 3.80763 62.6706 3.25563 62.6706 2.7487C62.6706 2.34315 62.5343 2.02773 62.239 1.7461C61.9437 1.46447 61.5462 1.32929 61.0351 1.32929C60.6489 1.32929 60.3536 1.39688 60.1605 1.54333C59.8766 1.7461 59.5245 2.07279 59.0929 2.51213L48.4505 13.6308V3.60485C48.4505 2.79376 48.2801 2.20797 47.9621 1.85875C47.6441 1.5208 47.2352 1.35182 46.7014 1.35182C46.1562 1.35182 45.77 1.50953 45.4747 1.84749C45.1567 2.20797 44.9977 2.79376 44.9977 3.59359V21.3137C44.9977 22.0459 45.0091 22.6205 45.0431 23.0035C45.0659 23.3076 45.134 23.578 45.2476 23.8033C45.3952 24.0624 45.5883 24.2539 45.8609 24.4116C46.1335 24.5693 46.4174 24.6482 46.7014 24.6482C47.2352 24.6482 47.6327 24.4905 47.9508 24.1412C48.2801 23.792 48.4505 23.195 48.4505 22.3839V17.1681L53.2095 12.6057Z" fill="#FF4236"/>
<path d="M86.965 17.7651C86.965 19.207 86.5902 20.5025 85.8519 21.6516C85.1137 22.8006 84.0233 23.7018 82.6036 24.3552C81.1725 25.0086 79.4801 25.3353 77.5266 25.3353C75.1755 25.3353 73.2446 24.8959 71.7113 24.006C70.6323 23.3639 69.7464 22.5077 69.0763 21.4488C68.3948 20.3786 68.0654 19.3422 68.0654 18.3396C68.0654 17.7538 68.2699 17.2581 68.6788 16.8301C69.0876 16.4133 69.5987 16.1992 70.2234 16.1992C70.7345 16.1992 71.1661 16.3569 71.5182 16.6836C71.8703 17.0103 72.1656 17.4947 72.4155 18.1256C72.7222 18.8803 73.0402 19.5224 73.3923 20.0294C73.7444 20.5363 74.2441 20.9644 74.8802 21.2911C75.5162 21.6178 76.3567 21.7867 77.3903 21.7867C78.8214 21.7867 79.9799 21.4488 80.8658 20.7841C81.7631 20.1195 82.206 19.2859 82.206 18.2833C82.206 17.4947 81.9675 16.8526 81.4791 16.3569C81.0021 15.8613 80.3774 15.4895 79.6164 15.2304C78.8555 14.9713 77.8332 14.6897 76.5612 14.3968C74.8461 13.9912 73.4264 13.5294 72.2679 12.9886C71.1207 12.4479 70.2007 11.7157 69.5306 10.7919C68.8491 9.86819 68.5197 8.71914 68.5197 7.33353C68.5197 6.02677 68.8718 4.85519 69.5874 3.84133C70.3029 2.82746 71.3365 2.0389 72.6881 1.48691C74.0397 0.934915 75.6298 0.664551 77.4584 0.664551C78.9236 0.664551 80.1843 0.844793 81.252 1.20528C82.3196 1.56576 83.2055 2.05017 83.9097 2.64722C84.6139 3.24427 85.125 3.87512 85.4544 4.53977C85.7838 5.20441 85.9428 5.84653 85.9428 6.47738C85.9428 7.0519 85.7384 7.5701 85.3295 8.03197C84.9206 8.49384 84.4208 8.71914 83.8075 8.71914C83.251 8.71914 82.8421 8.58396 82.5468 8.30233C82.2628 8.0207 81.9448 7.5701 81.6154 6.93925C81.1838 6.03803 80.6614 5.33959 80.0594 4.83266C79.4574 4.32573 78.4806 4.0779 77.1404 4.0779C75.891 4.0779 74.8915 4.34826 74.1306 4.90025C73.3696 5.45225 72.9834 6.10563 72.9834 6.87166C72.9834 7.34479 73.1083 7.76161 73.3696 8.11083C73.6308 8.46005 73.9829 8.75294 74.4372 9.00077C74.8915 9.24861 75.3459 9.44011 75.8115 9.58656C76.2772 9.73301 77.0495 9.93578 78.1172 10.2061C79.4574 10.5216 80.6727 10.8708 81.7631 11.2425C82.8534 11.6256 83.7734 12.0874 84.5344 12.6282C85.2954 13.1689 85.8974 13.8561 86.3176 14.6897C86.7606 15.5458 86.965 16.5597 86.965 17.7651Z" fill="#FF4236"/>
<path d="M77.5267 26C75.062 26 72.9948 25.5156 71.3707 24.5693C70.2008 23.8709 69.2354 22.9359 68.4971 21.7868C67.7588 20.6153 67.384 19.4437 67.384 18.3172C67.384 17.5511 67.6566 16.8865 68.1791 16.3458C68.7129 15.7938 69.4057 15.5121 70.2235 15.5121C70.905 15.5121 71.4956 15.7374 71.9726 16.1768C72.4042 16.5711 72.7563 17.1343 73.0403 17.8778C73.3242 18.5763 73.6309 19.1733 73.9489 19.6464C74.2329 20.0633 74.6531 20.4125 75.1869 20.6941C75.7207 20.9757 76.459 21.1109 77.3904 21.1109C78.6625 21.1109 79.696 20.818 80.457 20.2435C81.1726 19.7028 81.5246 19.0719 81.5246 18.2834C81.5246 17.6638 81.3543 17.1906 80.9908 16.8302C80.5819 16.4133 80.0481 16.0979 79.3894 15.8726C78.6511 15.6248 77.6516 15.3432 76.4022 15.0615C74.6531 14.656 73.1652 14.1603 71.9726 13.6083C70.7233 13.0225 69.7124 12.2114 68.9628 11.1976C68.2018 10.1612 67.8156 8.86568 67.8156 7.34489C67.8156 5.90295 68.2132 4.59619 69.0082 3.45841C69.7919 2.33189 70.9391 1.46447 72.4042 0.867418C73.858 0.292894 75.5504 0 77.4585 0C78.9918 0 80.3321 0.191508 81.4679 0.585789C82.615 0.980069 83.5804 1.50953 84.3414 2.16291C85.1137 2.82756 85.6816 3.53726 86.0565 4.2695C86.4199 5.02426 86.613 5.76776 86.613 6.5C86.613 7.2435 86.3518 7.90815 85.8407 8.49393C85.3068 9.10225 84.6026 9.41768 83.8076 9.41768C83.0693 9.41768 82.4901 9.2149 82.0698 8.80936C81.7291 8.48267 81.377 7.97574 81.0135 7.28856L81.0022 7.26603C80.616 6.45494 80.1503 5.82409 79.6165 5.38475C79.1395 4.99047 78.299 4.78769 77.1291 4.78769C76.0388 4.78769 75.1642 5.02426 74.5168 5.48614C73.9376 5.90295 73.6536 6.36482 73.6536 6.91681C73.6536 7.2435 73.7331 7.52513 73.9035 7.75043C74.1079 8.0208 74.3919 8.25737 74.7553 8.46014C75.1642 8.68544 75.5845 8.86568 76.0047 8.9896C76.459 9.12478 77.22 9.32756 78.2763 9.59792C79.6279 9.91334 80.8772 10.2738 81.979 10.6568C83.1261 11.0511 84.1143 11.5468 84.9207 12.1326C85.7725 12.7409 86.4426 13.5069 86.9197 14.4307C87.3967 15.3544 87.6352 16.4809 87.6352 17.7877C87.6352 19.3536 87.2263 20.7842 86.4199 22.0347C85.6135 23.2851 84.4209 24.2764 82.8762 24.9861C81.377 25.6508 79.5711 26 77.5267 26ZM70.2235 16.864C69.7806 16.864 69.4398 16.9991 69.1672 17.2808C68.8833 17.5737 68.747 17.9003 68.747 18.3172C68.747 19.1958 69.0536 20.1196 69.6556 21.0659C70.2689 22.0347 71.0867 22.8232 72.0635 23.409C73.4719 24.2314 75.3119 24.6482 77.5267 24.6482C79.378 24.6482 80.9908 24.344 82.3197 23.7357C83.6259 23.1386 84.614 22.3163 85.2841 21.2912C85.9542 20.2548 86.2836 19.0719 86.2836 17.7652C86.2836 16.6724 86.0905 15.7487 85.7157 15.0277C85.3409 14.2955 84.8071 13.6872 84.137 13.214C83.4328 12.7071 82.5582 12.279 81.536 11.9185C80.4797 11.5468 79.2758 11.2088 77.9583 10.8934H77.9469C76.8793 10.623 76.0842 10.409 75.6072 10.2626C75.0961 10.1049 74.585 9.89081 74.0966 9.62045C73.5627 9.32756 73.1198 8.95581 72.8131 8.53899C72.461 8.07712 72.2907 7.52513 72.2907 6.90555C72.2907 5.91421 72.7677 5.05806 73.7218 4.38215C74.5963 3.7513 75.7435 3.43588 77.1291 3.43588C78.6511 3.43588 79.7528 3.74003 80.4911 4.34835C81.1612 4.91161 81.7518 5.68891 82.2175 6.66898C82.5923 7.36742 82.8535 7.69411 83.0125 7.84055C83.1715 7.987 83.4328 8.06586 83.7962 8.06586C84.2051 8.06586 84.5231 7.91941 84.7957 7.60399C85.091 7.26603 85.2387 6.90555 85.2387 6.5C85.2387 5.9818 85.1024 5.42981 84.8184 4.86655C84.5345 4.29203 84.0688 3.72877 83.4441 3.18804C82.8081 2.64731 81.9903 2.19671 81.0135 1.87002C80.0254 1.53206 78.8215 1.36308 77.4472 1.36308C75.7208 1.36308 74.1988 1.62218 72.9381 2.12912C71.7114 2.62478 70.7801 3.33449 70.144 4.2357C69.508 5.14818 69.1899 6.16204 69.1899 7.34489C69.1899 8.57279 69.4852 9.59792 70.0759 10.409C70.6778 11.2426 71.5183 11.9073 72.5519 12.3917C73.6536 12.9099 75.062 13.3605 76.7089 13.7548C78.0037 14.0477 79.0486 14.3406 79.8323 14.5997C80.6955 14.8925 81.4111 15.3319 81.9676 15.8951C82.5696 16.5147 82.8762 17.3258 82.8762 18.2946C82.8762 19.5113 82.3311 20.5364 81.2634 21.325C80.2526 22.0797 78.9464 22.4627 77.3676 22.4627C76.2205 22.4627 75.2664 22.2712 74.5395 21.8882C73.8013 21.5052 73.222 21.0095 72.8131 20.4125C72.4383 19.8605 72.0749 19.1733 71.7568 18.3735C71.541 17.8328 71.3025 17.4272 71.0299 17.1681C70.8255 16.9653 70.5529 16.864 70.2235 16.864Z" fill="#FF4236"/>
<path d="M106.285 22.215L105.149 19.2185H95.4724L94.3366 22.2713C93.8936 23.4655 93.5188 24.2653 93.2008 24.6821C92.8828 25.0989 92.3717 25.3129 91.6561 25.3129C91.0541 25.3129 90.509 25.0876 90.0547 24.6483C89.589 24.209 89.3618 23.702 89.3618 23.1388C89.3618 22.8121 89.4186 22.4741 89.5208 22.1362C89.6344 21.7869 89.8048 21.3025 90.0547 20.6942L96.1425 5.21589C96.3129 4.77655 96.5287 4.23582 96.7672 3.61623C97.0057 2.99665 97.2669 2.47845 97.5509 2.06164C97.8235 1.64483 98.1869 1.31814 98.6412 1.05904C99.0956 0.799942 99.6407 0.676025 100.299 0.676025C100.97 0.676025 101.526 0.799942 101.98 1.05904C102.435 1.31814 102.787 1.64483 103.071 2.03911C103.343 2.44466 103.582 2.87273 103.764 3.3346C103.957 3.79648 104.195 4.41606 104.491 5.18209L110.703 20.559C111.192 21.7306 111.43 22.5755 111.43 23.1162C111.43 23.6682 111.203 24.1752 110.737 24.637C110.283 25.0989 109.727 25.3242 109.079 25.3242C108.704 25.3242 108.375 25.2566 108.102 25.1214C107.83 24.9862 107.603 24.806 107.421 24.5694C107.239 24.3329 107.035 23.9837 106.83 23.4993C106.615 23.0148 106.433 22.5868 106.285 22.215ZM96.7331 15.6024H103.843L100.254 5.76788L96.7331 15.6024Z" fill="#FF4236"/>
<path d="M109.068 26C108.579 26 108.148 25.9099 107.784 25.7296C107.421 25.5494 107.114 25.3016 106.876 24.9861C106.66 24.7045 106.433 24.3102 106.194 23.7695C105.978 23.2851 105.797 22.8458 105.649 22.474L105.638 22.4627L104.672 19.9055H95.9494L94.9726 22.5191C94.5069 23.7808 94.098 24.6257 93.7459 25.0988C93.303 25.6958 92.5988 26 91.6561 26C90.8724 26 90.1682 25.7071 89.5776 25.1438C88.9756 24.5693 88.6689 23.8934 88.6689 23.1499C88.6689 22.7556 88.7371 22.3501 88.862 21.9445C88.9756 21.5728 89.1573 21.0884 89.4186 20.4463L95.5064 4.96794C95.6768 4.5286 95.8926 3.98787 96.1311 3.36828C96.3923 2.70364 96.6763 2.14038 96.9829 1.68977C97.3123 1.19411 97.7553 0.788562 98.3005 0.473137C98.857 0.157712 99.5271 0 100.299 0C101.083 0 101.765 0.157712 102.321 0.473137C102.855 0.777296 103.298 1.18284 103.639 1.66724C103.945 2.10659 104.195 2.57972 104.4 3.08666C104.593 3.55979 104.831 4.17938 105.127 4.94541L111.339 20.3224C111.862 21.5841 112.123 22.4965 112.123 23.1274C112.123 23.8596 111.828 24.5355 111.237 25.1213C110.624 25.6958 109.908 26 109.068 26ZM106.91 21.9783C107.057 22.3388 107.239 22.7556 107.444 23.2288C107.682 23.7582 107.841 24.0286 107.943 24.1525C108.068 24.3102 108.216 24.4229 108.398 24.5243C108.568 24.6144 108.795 24.6594 109.068 24.6594C109.533 24.6594 109.908 24.5017 110.249 24.1638C110.578 23.8371 110.737 23.4879 110.737 23.1161C110.737 22.812 110.624 22.1698 110.056 20.818L103.843 5.41854C103.559 4.66378 103.321 4.04419 103.128 3.59359C102.957 3.17678 102.741 2.7825 102.503 2.42201C102.287 2.10659 102.003 1.84749 101.64 1.64471C101.299 1.45321 100.845 1.35182 100.299 1.35182C99.7656 1.35182 99.3227 1.45321 98.9706 1.64471C98.6071 1.84749 98.3345 2.10659 98.1074 2.43328C97.8575 2.80503 97.619 3.27816 97.3918 3.85269C97.1533 4.47227 96.9375 5.013 96.7671 5.45234L90.6907 20.9419C90.4521 21.5503 90.2704 22.0121 90.1682 22.3388C90.0773 22.6205 90.0319 22.8908 90.0319 23.1499C90.0319 23.5329 90.1909 23.8596 90.5203 24.175C90.861 24.5017 91.2245 24.6482 91.6561 24.6482C92.383 24.6482 92.5874 24.3778 92.6556 24.299C92.8487 24.0511 93.178 23.4541 93.7005 22.0572L94.9953 18.5537H105.615L106.91 21.9783ZM104.82 16.2782H95.779L100.265 3.76257L104.82 16.2782ZM97.6985 14.9263H102.866L100.254 7.77296L97.6985 14.9263Z" fill="#FF4236"/>
<path d="M118.177 22.384V14.8251L112.362 5.80168C111.851 4.99058 111.498 4.35973 111.283 3.89786C111.067 3.43599 110.965 3.04171 110.965 2.71502C110.965 2.16303 111.18 1.68989 111.601 1.28434C112.044 0.878798 112.566 0.676025 113.191 0.676025C113.85 0.676025 114.349 0.867533 114.69 1.23928C115.031 1.61103 115.542 2.35453 116.223 3.46979L120.676 10.7133L125.173 3.48105C125.446 3.04171 125.673 2.65869 125.855 2.35453C126.037 2.05038 126.241 1.76875 126.468 1.49838C126.695 1.22802 126.934 1.02525 127.206 0.890064C127.479 0.754882 127.808 0.676025 128.195 0.676025C128.797 0.676025 129.308 0.878798 129.717 1.27308C130.125 1.66736 130.33 2.12923 130.33 2.64743C130.33 3.07551 130.228 3.49232 130.023 3.92039C129.819 4.34847 129.467 4.92299 128.967 5.67776L123.015 14.8363V22.3953C123.015 23.3866 122.788 24.1188 122.334 24.6032C121.88 25.0876 121.3 25.3355 120.596 25.3355C119.881 25.3355 119.301 25.0989 118.858 24.6145C118.393 24.1188 118.177 23.3753 118.177 22.384Z" fill="#FF4236"/>
<path d="M120.573 26C119.665 26 118.915 25.6846 118.336 25.0537C117.779 24.4454 117.495 23.5442 117.495 22.3839V15.0165L111.794 6.16205C111.26 5.30589 110.896 4.66378 110.669 4.17938C110.419 3.62738 110.294 3.15425 110.294 2.7149C110.294 1.9714 110.578 1.32929 111.146 0.788562C111.703 0.270364 112.396 0 113.202 0C114.065 0 114.735 0.259099 115.212 0.788562C115.587 1.19411 116.11 1.96014 116.825 3.13172L120.687 9.42894L124.594 3.13172C124.855 2.69237 125.082 2.32062 125.276 2.01646C125.48 1.68977 125.696 1.37435 125.946 1.08146C126.23 0.743501 126.548 0.484402 126.888 0.304159C127.252 0.112652 127.695 0.0112652 128.195 0.0112652C128.978 0.0112652 129.648 0.281629 130.194 0.799827C130.727 1.32929 131.011 1.94887 131.011 2.65858C131.011 3.17678 130.886 3.70624 130.636 4.22444C130.421 4.67504 130.057 5.28336 129.535 6.06066L123.697 15.039V22.3951C123.697 23.5555 123.401 24.4454 122.834 25.065C122.232 25.6846 121.471 26 120.573 26ZM113.191 1.35182C112.736 1.35182 112.373 1.487 112.078 1.76863C111.782 2.03899 111.646 2.34315 111.646 2.70364C111.646 2.86135 111.691 3.15425 111.896 3.60485C112.089 4.03293 112.441 4.65251 112.929 5.42981L118.847 14.6109V22.3726C118.847 23.195 119.006 23.7808 119.335 24.1412C119.653 24.4792 120.04 24.6482 120.573 24.6482C121.084 24.6482 121.482 24.4792 121.811 24.13C122.141 23.7695 122.311 23.1837 122.311 22.3726V14.6109L128.376 5.29463C128.853 4.57366 129.194 4.0104 129.387 3.61612C129.546 3.27816 129.626 2.96274 129.626 2.63605C129.626 2.29809 129.501 2.01646 129.217 1.7461C128.933 1.47574 128.603 1.35182 128.172 1.35182C127.899 1.35182 127.672 1.39688 127.502 1.487C127.309 1.58839 127.138 1.73484 126.968 1.92634C126.763 2.16291 126.582 2.42201 126.423 2.69237C126.241 2.99653 126.014 3.36828 125.741 3.81889L120.676 11.9974L115.655 3.81889C114.838 2.47834 114.406 1.91508 114.202 1.68977C113.986 1.46447 113.656 1.35182 113.191 1.35182Z" fill="#FF4236"/>
</g>
<path d="M0 66.0606C0 66.0606 16.0065 40.1233 45.7674 45.647C75.5283 51.1707 98.7739 89.8365 148 51.7311C148 51.7311 131.028 81.3508 91.5348 75.5069C91.5348 75.5069 72.8337 68.6623 57.7924 61.6977C42.7511 54.7331 18.9424 45.2067 0 66.0606Z" fill="white"/>
<path d="M104.405 56.6945C104.405 56.6945 128.455 56.8546 127.168 35C127.168 35 122.422 49.5697 104.405 56.6945Z" fill="white"/>
<path d="M98.2109 61.738C98.2109 61.738 136.739 69.9835 144.3 37.802C144.3 37.802 126.106 60.241 98.2109 61.738Z" fill="white"/>
<path d="M23.7283 59.1762C23.7283 59.1762 36.1957 57.0948 63.7848 69.6632C63.7848 69.6632 84.8587 83.0321 100.865 81.351C100.865 81.351 91.937 89.1162 57.1891 70.9441C57.1891 70.9441 48.7435 64.4597 23.7283 59.1762Z" fill="white"/>
<path d="M0 66.0606C0 66.0606 16.0065 40.1233 45.7674 45.647C75.5283 51.1707 98.7739 89.8365 148 51.7311C148 51.7311 131.028 81.3508 91.5348 75.5069C91.5348 75.5069 72.8337 68.6623 57.7924 61.6977C42.7511 54.7331 18.9424 45.2067 0 66.0606Z" fill="white"/>
<path d="M104.405 56.6945C104.405 56.6945 128.455 56.8546 127.168 35C127.168 35 122.422 49.5697 104.405 56.6945Z" fill="white"/>
<path d="M98.2109 61.738C98.2109 61.738 136.739 69.9835 144.3 37.802C144.3 37.802 126.106 60.241 98.2109 61.738Z" fill="white"/>
<path d="M23.7283 59.1762C23.7283 59.1762 36.1957 57.0948 63.7848 69.6632C63.7848 69.6632 84.8587 83.0321 100.865 81.351C100.865 81.351 91.937 89.1162 57.1891 70.9441C57.1891 70.9441 48.7435 64.4597 23.7283 59.1762Z" fill="white"/>
<defs>
<clipPath id="clip0">
<rect width="113" height="26" fill="white" transform="translate(18)"/>
</clipPath>
</defs>
</svg>
