<svg width="111" height="63" viewBox="0 0 111 63" fill="none" xmlns="http://www.w3.org/2000/svg">
<g clip-path="url(#clip0)">
<path d="M26.7035 16.6613L25.8516 14.4139H18.6024L17.7506 16.7036C17.4184 17.5992 17.1373 18.199 16.8987 18.5116C16.6602 18.8242 16.2769 18.9848 15.7402 18.9848C15.2888 18.9848 14.8884 18.8158 14.5391 18.4863C14.1814 18.1568 14.011 17.785 14.011 17.3626C14.011 17.1176 14.0536 16.8641 14.1302 16.6106C14.2154 16.3487 14.3432 15.9854 14.5306 15.5292L19.0965 3.91198C19.2243 3.58247 19.3861 3.17692 19.565 2.71224C19.7439 2.24755 19.9398 1.8589 20.1528 1.54629C20.3572 1.23368 20.6298 0.988666 20.9706 0.794342C21.3113 0.600018 21.7202 0.50708 22.2142 0.50708C22.7168 0.50708 23.1342 0.600018 23.475 0.794342C23.8157 0.988666 24.0798 1.23368 24.2927 1.52939C24.4972 1.83355 24.6761 2.15461 24.8124 2.50101C24.9572 2.84742 25.1361 3.31211 25.3576 3.88663L30.0171 15.4193C30.3834 16.298 30.5623 16.9317 30.5623 17.3372C30.5623 17.7512 30.392 18.1314 30.0427 18.4778C29.702 18.8242 29.2846 18.9932 28.799 18.9932C28.5179 18.9932 28.2709 18.9425 28.0664 18.8411C27.862 18.7397 27.6916 18.6046 27.5553 18.4271C27.419 18.2497 27.2657 17.9878 27.1124 17.6245C26.959 17.2612 26.8227 16.9401 26.7035 16.6613ZM19.548 11.7018H24.8805L22.1887 4.32597L19.548 11.7018Z" fill="white"/>
<path d="M28.7993 19.5C28.4331 19.5 28.1093 19.4324 27.8368 19.2972C27.5642 19.162 27.3342 18.9762 27.1553 18.7396C26.9934 18.5284 26.8231 18.2327 26.6442 17.8271C26.4823 17.4638 26.346 17.1343 26.2353 16.8555L26.2268 16.8471L25.5027 14.9292H18.952L18.2194 16.8893C17.8617 17.8356 17.5635 18.4692 17.2994 18.8241C16.9672 19.2719 16.4391 19.5 15.732 19.5C15.1443 19.5 14.6161 19.2803 14.1732 18.8579C13.7217 18.427 13.4917 17.9201 13.4917 17.3624C13.4917 17.0667 13.5428 16.7626 13.6365 16.4584C13.7217 16.1796 13.858 15.8163 14.0539 15.3347L18.6198 3.72595C18.722 3.46404 18.8413 3.15143 18.9861 2.79658L19.0883 2.52621C19.2842 2.02773 19.4972 1.60529 19.7272 1.26733C19.9742 0.895581 20.3065 0.591421 20.7153 0.354853C21.1242 0.118284 21.6353 0 22.2146 0C22.8024 0 23.3135 0.118284 23.7309 0.354853C24.1312 0.582972 24.4635 0.887132 24.719 1.25043C24.949 1.57994 25.1364 1.93479 25.2897 2.31499C25.4346 2.66984 25.6134 3.13453 25.8349 3.70906L30.4945 15.2418C30.8864 16.188 31.0823 16.8724 31.0823 17.3455C31.0823 17.8947 30.8608 18.4016 30.4178 18.841C29.9664 19.2719 29.4212 19.5 28.7993 19.5ZM27.1808 16.4838C27.2916 16.7541 27.4279 17.0667 27.5812 17.4216C27.7601 17.8187 27.8793 18.0214 27.956 18.1144C28.0497 18.2327 28.1605 18.3172 28.2968 18.3932C28.4245 18.4608 28.5949 18.4946 28.7993 18.4946C29.1486 18.4946 29.4297 18.3763 29.6853 18.1228C29.9323 17.8778 30.0516 17.6159 30.0516 17.3371C30.0516 17.109 29.9664 16.6274 29.5404 15.6135L24.8723 4.06391C24.6594 3.49783 24.4805 3.03315 24.3357 2.69519C24.2079 2.38258 24.0461 2.08687 23.8672 1.81651C23.7053 1.57994 23.4924 1.38562 23.2198 1.23354C22.9642 1.0899 22.6235 1.01386 22.2146 1.01386C21.8142 1.01386 21.482 1.0899 21.2179 1.23354C20.9453 1.38562 20.7409 1.57994 20.5705 1.82496C20.3831 2.10377 20.2042 2.45862 20.0339 2.88951L19.9316 3.15988C19.7953 3.51473 19.6761 3.81889 19.5653 4.08925L15.008 15.7065C14.8291 16.1627 14.6928 16.5091 14.6161 16.7541C14.548 16.9653 14.5139 17.1681 14.5139 17.3624C14.5139 17.6497 14.6332 17.8947 14.8802 18.1313C15.1358 18.3763 15.4083 18.4861 15.732 18.4861C16.2772 18.4861 16.4306 18.2834 16.4817 18.2242C16.618 18.0383 16.8735 17.5906 17.2654 16.5429L18.2365 13.9153H26.2012L27.1808 16.4838ZM25.6049 12.2086H18.8242L22.189 2.82192L25.6049 12.2086ZM20.2724 11.1948H24.1483L22.189 5.82972L20.2724 11.1948Z" fill="white"/>
<path d="M36.8574 2.70379V8.97285L43.9533 1.55474C44.294 1.19989 44.5837 0.929524 44.8222 0.760546C45.0607 0.591569 45.3759 0.50708 45.7762 0.50708C46.2959 0.50708 46.7133 0.65916 47.037 0.963319C47.3607 1.26748 47.514 1.63923 47.514 2.07857C47.514 2.61085 47.2414 3.13468 46.6962 3.65006L42.3007 7.8238L47.3607 15.0898C47.7184 15.5968 47.9825 16.0361 48.1614 16.4163C48.3403 16.7965 48.4255 17.1598 48.4255 17.5231C48.4255 17.9202 48.2721 18.2666 47.957 18.5623C47.6418 18.858 47.2244 19.0017 46.6877 19.0017C46.1851 19.0017 45.7762 18.8918 45.4611 18.6806C45.1459 18.4694 44.8733 18.1821 44.6603 17.8188C44.4388 17.464 44.2429 17.1345 44.0725 16.8472L39.8048 10.2655L36.8489 13.1044V16.7965C36.8489 17.5485 36.6785 18.0976 36.3378 18.4609C35.9971 18.8242 35.5626 19.0017 35.026 19.0017C34.7193 19.0017 34.4212 18.9172 34.14 18.7566C33.8589 18.5961 33.6375 18.3764 33.4841 18.0976C33.3734 17.8695 33.3052 17.6076 33.2797 17.3034C33.2541 16.9993 33.2456 16.5684 33.2456 16.0023V2.70379C33.2456 1.96874 33.4075 1.41956 33.7226 1.05626C34.0463 0.692955 34.4808 0.50708 35.0345 0.50708C35.5797 0.50708 36.0141 0.684506 36.3548 1.04781C36.6871 1.41111 36.8574 1.96029 36.8574 2.70379Z" fill="white"/>
<path d="M46.7049 19.5C46.1001 19.5 45.589 19.3648 45.1886 19.086C44.8138 18.8325 44.4901 18.4861 44.2345 18.0721C44.0216 17.7173 43.8257 17.3878 43.6468 17.1005L39.7198 11.0427L37.3687 13.307V16.7879C37.3687 17.6666 37.1472 18.3425 36.7213 18.7987C36.2783 19.2634 35.7161 19.5 35.0346 19.5C34.6343 19.5 34.2509 19.3986 33.8932 19.1874C33.5269 18.9762 33.2458 18.6889 33.0413 18.3341L33.0328 18.3172C32.888 18.0299 32.8028 17.7004 32.7772 17.3371C32.7517 17.0245 32.7432 16.5767 32.7432 15.9937V2.70364C32.7432 1.8503 32.9476 1.18284 33.348 0.726603C33.7654 0.245017 34.3361 0 35.0431 0C35.7331 0 36.3039 0.236568 36.7383 0.709705C37.1642 1.16594 37.3772 1.84185 37.3772 2.70364V7.70537L43.5871 1.21664C43.9534 0.836438 44.2601 0.549177 44.5327 0.363302C44.8479 0.118284 45.2738 0 45.7764 0C46.4323 0 46.969 0.202773 47.3864 0.59987C47.8123 1.00542 48.0253 1.5039 48.0253 2.07842C48.0253 2.74588 47.7016 3.39645 47.0541 4.01322L42.9738 7.89125L47.7867 14.8024C48.1615 15.3347 48.4427 15.7909 48.6301 16.1965C48.843 16.6443 48.9452 17.0836 48.9452 17.5145C48.9452 18.0552 48.7323 18.5284 48.3149 18.917C47.9145 19.3057 47.3693 19.5 46.7049 19.5ZM39.9072 9.45429L44.5327 16.5767C44.7031 16.864 44.899 17.1935 45.1119 17.5399C45.2908 17.8356 45.5123 18.0721 45.7679 18.2411C45.9979 18.3932 46.313 18.4777 46.7049 18.4777C47.1053 18.4777 47.4119 18.3763 47.6249 18.1735C47.8378 17.9792 47.9316 17.768 47.9316 17.5061C47.9316 17.2273 47.8549 16.9231 47.7101 16.6189C47.5482 16.2725 47.2927 15.8501 46.9519 15.3685L41.6364 7.73917L46.3471 3.26971C46.7816 2.85572 47.003 2.44172 47.003 2.06153C47.003 1.75737 46.9008 1.5208 46.6793 1.30958C46.4579 1.09835 46.1597 0.996967 45.7764 0.996967C45.4868 0.996967 45.2653 1.04766 45.1205 1.1575C44.9075 1.30958 44.6434 1.55459 44.3197 1.8841L36.3379 10.2231V2.70364C36.3379 2.09532 36.2102 1.65598 35.9717 1.39406C35.7331 1.1406 35.4265 1.01386 35.0261 1.01386C34.6172 1.01386 34.3276 1.13215 34.1061 1.38562C33.8676 1.65598 33.7483 2.09532 33.7483 2.69519V15.9853C33.7483 16.5344 33.7569 16.9653 33.7824 17.2526C33.7995 17.4807 33.8506 17.6835 33.9357 17.8525C34.0465 18.0468 34.1913 18.1904 34.3957 18.3087C34.6002 18.427 34.8131 18.4861 35.0261 18.4861C35.4265 18.4861 35.7246 18.3679 35.9631 18.1059C36.2102 17.844 36.3379 17.3962 36.3379 16.7879V12.8761L39.9072 9.45429Z" fill="white"/>
<path d="M65.2238 13.3239C65.2238 14.4054 64.9427 15.377 64.389 16.2388C63.8353 17.1006 63.0175 17.7765 61.9527 18.2665C60.8794 18.7566 59.6101 19.0016 58.1449 19.0016C56.3816 19.0016 54.9335 18.6721 53.7835 18.0046C52.9742 17.523 52.3098 16.8809 51.8072 16.0867C51.2961 15.2841 51.0491 14.5068 51.0491 13.7548C51.0491 13.3155 51.2024 12.9437 51.5091 12.6227C51.8157 12.3101 52.1991 12.1495 52.6676 12.1495C53.0509 12.1495 53.3746 12.2678 53.6387 12.5128C53.9028 12.7579 54.1242 13.1212 54.3116 13.5943C54.5416 14.1604 54.7802 14.642 55.0442 15.0222C55.3083 15.4024 55.6831 15.7234 56.1601 15.9684C56.6372 16.2134 57.2675 16.3402 58.0427 16.3402C59.116 16.3402 59.9849 16.0867 60.6494 15.5882C61.3223 15.0897 61.6545 14.4645 61.6545 13.7126C61.6545 13.1212 61.4756 12.6396 61.1094 12.2678C60.7516 11.8961 60.2831 11.6173 59.7123 11.4229C59.1416 11.2286 58.3749 11.0174 57.4209 10.7977C56.1346 10.4936 55.0698 10.1472 54.2009 9.7416C53.3405 9.33606 52.6505 8.78688 52.148 8.09407C51.6368 7.40127 51.3898 6.53948 51.3898 5.50027C51.3898 4.5202 51.6539 3.64152 52.1905 2.88112C52.7272 2.12072 53.5024 1.5293 54.5161 1.1153C55.5298 0.701308 56.7224 0.498535 58.0938 0.498535C59.1927 0.498535 60.1383 0.633717 60.939 0.904081C61.7397 1.17445 62.4042 1.53775 62.9323 1.98554C63.4604 2.43333 63.8438 2.90646 64.0908 3.40495C64.3378 3.90343 64.4571 4.38502 64.4571 4.85815C64.4571 5.28905 64.3038 5.6777 63.9971 6.0241C63.6904 6.3705 63.3156 6.53948 62.8556 6.53948C62.4382 6.53948 62.1316 6.43809 61.9101 6.22687C61.6971 6.01565 61.4586 5.67769 61.2116 5.20456C60.8879 4.52865 60.496 4.00482 60.0445 3.62462C59.5931 3.24442 58.8605 3.05854 57.8553 3.05854C56.9183 3.05854 56.1687 3.26132 55.5979 3.67531C55.0272 4.08931 54.7376 4.57934 54.7376 5.15386C54.7376 5.50872 54.8313 5.82133 55.0272 6.08324C55.2231 6.34516 55.4872 6.56483 55.8279 6.7507C56.1687 6.93658 56.5094 7.08021 56.8586 7.19004C57.2079 7.29988 57.7872 7.45196 58.5879 7.65473C59.5931 7.8913 60.5045 8.15322 61.3223 8.43203C62.1401 8.71929 62.8301 9.06569 63.4008 9.47124C63.9715 9.87679 64.423 10.3922 64.7382 11.0174C65.0704 11.6595 65.2238 12.4199 65.2238 13.3239Z" fill="white"/>
<path d="M58.1451 19.5C56.2966 19.5 54.7462 19.1367 53.5281 18.427C52.6507 17.9032 51.9266 17.2019 51.3729 16.3401C50.8192 15.4614 50.5381 14.5828 50.5381 13.7379C50.5381 13.1633 50.7425 12.6649 51.1344 12.2593C51.5347 11.8453 52.0544 11.6341 52.6677 11.6341C53.1788 11.6341 53.6218 11.8031 53.9795 12.1326C54.3032 12.4283 54.5673 12.8507 54.7803 13.4084C54.9932 13.9322 55.2232 14.38 55.4617 14.7348C55.6747 15.0474 55.9899 15.3094 56.3903 15.5206C56.7906 15.7318 57.3443 15.8332 58.0428 15.8332C58.9969 15.8332 59.7721 15.6135 60.3428 15.1826C60.8795 14.7771 61.1435 14.3039 61.1435 13.7125C61.1435 13.2478 61.0158 12.893 60.7432 12.6226C60.4365 12.31 60.0361 12.0734 59.5421 11.9045C58.9884 11.7186 58.2388 11.5074 57.3017 11.2961C55.9899 10.992 54.874 10.6202 53.9795 10.2062C53.0425 9.7669 52.2844 9.15858 51.7222 8.39818C51.1514 7.62088 50.8618 6.64926 50.8618 5.50867C50.8618 4.42721 51.1599 3.44714 51.7562 2.5938C52.344 1.74892 53.2044 1.09835 54.3032 0.650563C55.3936 0.219671 56.6628 0 58.0939 0C59.2439 0 60.2491 0.143631 61.101 0.439341C61.9613 0.735052 62.6854 1.13215 63.2561 1.62218C63.8354 2.12067 64.2613 2.65295 64.5424 3.20212C64.815 3.7682 64.9598 4.32582 64.9598 4.875C64.9598 5.43263 64.7639 5.93111 64.3806 6.37045C63.9802 6.82669 63.452 7.06326 62.8558 7.06326C62.3021 7.06326 61.8676 6.91118 61.5524 6.60702C61.2969 6.362 61.0328 5.9818 60.7602 5.46642L60.7517 5.44952C60.4621 4.8412 60.1128 4.36807 59.7124 4.03856C59.3547 3.74285 58.7243 3.59077 57.8469 3.59077C57.0291 3.59077 56.3732 3.7682 55.8877 4.1146C55.4532 4.42721 55.2403 4.77361 55.2403 5.18761C55.2403 5.43263 55.2999 5.64385 55.4277 5.81283C55.581 6.0156 55.794 6.19302 56.0666 6.3451C56.3732 6.51408 56.6884 6.64926 57.0036 6.7422C57.3443 6.84359 57.9151 6.99567 58.7073 7.19844C59.721 7.43501 60.658 7.70537 61.4843 7.99263C62.3446 8.28834 63.0858 8.6601 63.6906 9.09944C64.3294 9.55568 64.832 10.1302 65.1898 10.823C65.5476 11.5158 65.7265 12.3607 65.7265 13.3408C65.7265 14.5152 65.4198 15.5882 64.815 16.526C64.2102 17.4638 63.3158 18.2073 62.1572 18.7396C61.0328 19.2381 59.6784 19.5 58.1451 19.5ZM52.6677 12.648C52.3355 12.648 52.0799 12.7493 51.8755 12.9606C51.6625 13.1802 51.5603 13.4253 51.5603 13.7379C51.5603 14.3969 51.7903 15.0897 52.2418 15.7994C52.7018 16.526 53.3151 17.1174 54.0477 17.5568C55.104 18.1735 56.484 18.4861 58.1451 18.4861C59.5336 18.4861 60.7432 18.258 61.7398 17.8018C62.7195 17.354 63.4606 16.7372 63.9632 15.9684C64.4657 15.1911 64.7128 14.3039 64.7128 13.3239C64.7128 12.5043 64.568 11.8115 64.2869 11.2708C64.0057 10.7216 63.6054 10.2654 63.1028 9.91053C62.5746 9.53033 61.9187 9.20927 61.1521 8.93891C60.3599 8.6601 59.4569 8.40663 58.4688 8.17006H58.4602C57.6595 7.96729 57.0632 7.80676 56.7054 7.69692C56.3221 7.57864 55.9388 7.41811 55.5725 7.21534C55.1721 6.99567 54.8399 6.71685 54.6099 6.40425C54.3458 6.05784 54.2181 5.64385 54.2181 5.17916C54.2181 4.43566 54.5758 3.79354 55.2914 3.28661C55.9473 2.81347 56.8077 2.57691 57.8469 2.57691C58.9884 2.57691 59.8147 2.80503 60.3684 3.26127C60.871 3.68371 61.3139 4.26668 61.6632 5.00173C61.9443 5.52556 62.1402 5.77058 62.2595 5.88042C62.3787 5.99025 62.5746 6.04939 62.8472 6.04939C63.1539 6.04939 63.3924 5.93956 63.5969 5.70299C63.8183 5.44952 63.9291 5.17916 63.9291 4.875C63.9291 4.48635 63.8269 4.07236 63.6139 3.64991C63.4009 3.21902 63.0517 2.79658 62.5832 2.39103C62.1061 1.98549 61.4928 1.64753 60.7602 1.40251C60.0191 1.14905 59.1162 1.02231 58.0854 1.02231C56.7906 1.02231 55.6492 1.21664 54.7036 1.59684C53.7836 1.96859 53.0851 2.50087 52.6081 3.17678C52.131 3.86114 51.8925 4.62153 51.8925 5.50867C51.8925 6.42959 52.114 7.19844 52.557 7.80676C53.0084 8.43198 53.6388 8.93046 54.414 9.29376C55.2403 9.68241 56.2966 10.0204 57.5317 10.3161C58.5028 10.5357 59.2865 10.7554 59.8743 10.9497C60.5217 11.1694 61.0584 11.4989 61.4758 11.9214C61.9272 12.386 62.1572 12.9944 62.1572 13.721C62.1572 14.6334 61.7484 15.4023 60.9476 15.9937C60.1895 16.5598 59.2099 16.8471 58.0258 16.8471C57.1654 16.8471 56.4499 16.7034 55.9047 16.4162C55.351 16.1289 54.9166 15.7571 54.6099 15.3094C54.3288 14.8954 54.0562 14.38 53.8177 13.7801C53.6558 13.3746 53.4769 13.0704 53.2725 12.8761C53.1192 12.724 52.9147 12.648 52.6677 12.648Z" fill="white"/>
<path d="M79.7137 16.6613L78.8619 14.4139H71.6042L70.7523 16.7036C70.4201 17.5992 70.139 18.199 69.9005 18.5116C69.662 18.8242 69.2786 18.9848 68.742 18.9848C68.2905 18.9848 67.8816 18.8158 67.5409 18.4863C67.1916 18.1568 67.0212 17.7766 67.0212 17.3541C67.0212 17.1091 67.0638 16.8556 67.1405 16.6022C67.2257 16.3403 67.3535 15.977 67.5409 15.5207L72.1068 3.91198C72.2345 3.58247 72.3964 3.17692 72.5753 2.71224C72.7542 2.24755 72.9501 1.8589 73.163 1.54629C73.3675 1.23368 73.6401 0.988666 73.9808 0.794342C74.3215 0.600018 74.7304 0.50708 75.2245 0.50708C75.7271 0.50708 76.1445 0.600018 76.4852 0.794342C76.826 0.988666 77.09 1.23368 77.303 1.52939C77.5074 1.83355 77.6863 2.15461 77.8226 2.50101C77.9674 2.84742 78.1463 3.31211 78.3678 3.88663L83.0274 15.4193C83.3937 16.298 83.5726 16.9317 83.5726 17.3372C83.5726 17.7512 83.4022 18.1314 83.053 18.4778C82.7122 18.8242 82.2948 18.9932 81.8093 18.9932C81.5282 18.9932 81.2811 18.9425 81.0767 18.8411C80.8722 18.7397 80.7019 18.6046 80.5656 18.4271C80.4293 18.2497 80.2759 17.9878 80.1226 17.6245C79.9608 17.2612 79.8245 16.9401 79.7137 16.6613ZM72.5497 11.7018H77.8823L75.1904 4.32597L72.5497 11.7018Z" fill="white"/>
<path d="M81.8008 19.5C81.4345 19.5 81.1108 19.4324 80.8382 19.2972C80.5656 19.162 80.3357 18.9762 80.1568 18.7396C79.9949 18.5284 79.8245 18.2327 79.6457 17.8271C79.4838 17.4638 79.3475 17.1343 79.2368 16.8555L79.2283 16.8471L78.5042 14.9292H71.962L71.2294 16.8893C70.8802 17.8356 70.5735 18.4692 70.3095 18.8241C69.9772 19.2719 69.4491 19.5 68.7421 19.5C68.1543 19.5 67.6261 19.2803 67.1832 18.8579C66.7317 18.427 66.5017 17.9201 66.5017 17.3624C66.5017 17.0667 66.5528 16.7626 66.6465 16.4584C66.7317 16.1796 66.868 15.8163 67.0639 15.3347L71.6298 3.72595C71.7576 3.39645 71.9194 2.9909 72.0983 2.52621C72.2942 2.02773 72.5072 1.60529 72.7372 1.26733C72.9842 0.895581 73.3165 0.591421 73.7253 0.354853C74.1427 0.118284 74.6453 0 75.2246 0C75.8124 0 76.3235 0.118284 76.7409 0.354853C77.1412 0.582972 77.4735 0.887132 77.729 1.25043C77.959 1.57994 78.1464 1.93479 78.2997 2.31499C78.4446 2.66984 78.6234 3.13453 78.8449 3.70906L83.5045 15.2418C83.8964 16.188 84.0923 16.8724 84.0923 17.3455C84.0923 17.8947 83.8708 18.4016 83.4278 18.841C82.9679 19.2719 82.4312 19.5 81.8008 19.5ZM80.1823 16.4838C80.2931 16.7541 80.4294 17.0667 80.5827 17.4216C80.7616 17.8187 80.8808 18.0214 80.9575 18.1144C81.0512 18.2327 81.1619 18.3172 81.2982 18.3932C81.426 18.4608 81.5964 18.4946 81.8008 18.4946C82.1501 18.4946 82.4312 18.3763 82.6867 18.1228C82.9338 17.8778 83.053 17.6159 83.053 17.3371C83.053 17.109 82.9678 16.6274 82.5419 15.6135L77.8823 4.06391C77.6694 3.49783 77.4905 3.03315 77.3457 2.69519C77.2179 2.38258 77.0561 2.08687 76.8772 1.81651C76.7153 1.57994 76.5024 1.38562 76.2298 1.23354C75.9742 1.0899 75.6335 1.01386 75.2246 1.01386C74.8242 1.01386 74.492 1.0899 74.2279 1.23354C73.9553 1.38562 73.7509 1.57994 73.5805 1.82496C73.3931 2.10377 73.2142 2.45862 73.0439 2.88951C72.865 3.3542 72.7031 3.75975 72.5754 4.08925L68.018 15.7065C67.8391 16.1627 67.7028 16.5091 67.6261 16.7541C67.558 16.9653 67.5239 17.1681 67.5239 17.3624C67.5239 17.6497 67.6432 17.8947 67.8902 18.1313C68.1458 18.3763 68.4184 18.4861 68.7421 18.4861C69.2872 18.4861 69.4406 18.2834 69.4917 18.2242C69.6365 18.0383 69.8835 17.5906 70.2754 16.5429L71.2465 13.9153H79.2112L80.1823 16.4838ZM78.6149 12.2086H71.8342L75.199 2.82192L78.6149 12.2086ZM73.2739 11.1948H77.1498L75.1905 5.82972L73.2739 11.1948Z" fill="white"/>
<path d="M88.6324 16.7881V11.1189L84.2709 4.35132C83.8876 3.743 83.6235 3.26986 83.4617 2.92346C83.2998 2.57705 83.2231 2.28134 83.2231 2.03633C83.2231 1.62233 83.385 1.26748 83.7002 0.963319C84.0324 0.65916 84.4242 0.50708 84.8928 0.50708C85.3868 0.50708 85.7616 0.650711 86.0172 0.929524C86.2727 1.20834 86.6561 1.76596 87.1672 2.6024L90.5064 8.03503L93.8797 2.61085C94.0842 2.28134 94.2545 1.99408 94.3908 1.76596C94.5271 1.53784 94.6805 1.32662 94.8508 1.12385C95.0212 0.921075 95.2001 0.768995 95.4045 0.667609C95.609 0.566222 95.856 0.50708 96.1456 0.50708C96.5971 0.50708 96.9804 0.65916 97.2871 0.95487C97.5938 1.25058 97.7471 1.59698 97.7471 1.98563C97.7471 2.30669 97.6704 2.6193 97.5171 2.94036C97.3638 3.26141 97.0997 3.69231 96.7249 4.25838L92.2612 11.1273V16.7965C92.2612 17.54 92.0908 18.0892 91.7501 18.4525C91.4094 18.8158 90.9749 19.0017 90.4468 19.0017C89.9101 19.0017 89.4757 18.8242 89.1435 18.4609C88.7942 18.0892 88.6324 17.5316 88.6324 16.7881Z" fill="white"/>
<path d="M90.4299 19.5C89.7484 19.5 89.1862 19.2634 88.7518 18.7903C88.3344 18.3341 88.1214 17.6581 88.1214 16.7879V11.2623L83.8451 4.62153C83.4448 3.97942 83.1722 3.49783 83.0018 3.13453C82.8144 2.72054 82.7207 2.36568 82.7207 2.03618C82.7207 1.47855 82.9337 0.996967 83.3596 0.591421C83.777 0.202773 84.2966 0 84.9014 0C85.5488 0 86.0514 0.194324 86.4092 0.591421C86.6903 0.895581 87.0821 1.4701 87.6188 2.34879L90.5151 7.07171L93.4454 2.34879C93.6413 2.01928 93.8117 1.74047 93.9565 1.51235C94.1099 1.26733 94.2717 1.03076 94.4591 0.811092C94.6721 0.557626 94.9106 0.363302 95.1661 0.22812C95.4387 0.0844887 95.7709 0.00844887 96.1458 0.00844887C96.7335 0.00844887 97.2361 0.211222 97.645 0.59987C98.0454 0.996967 98.2583 1.46166 98.2583 1.99393C98.2583 2.38258 98.1646 2.77968 97.9772 3.16833C97.8154 3.50628 97.5428 3.96252 97.1509 4.54549L92.7725 11.2792V16.7964C92.7725 17.6666 92.551 18.3341 92.1251 18.7987C91.6736 19.2634 91.1028 19.5 90.4299 19.5ZM84.8929 1.01386C84.5522 1.01386 84.2796 1.11525 84.0581 1.32647C83.8366 1.52925 83.7344 1.75737 83.7344 2.02773C83.7344 2.14601 83.7685 2.36568 83.9218 2.70364C84.0666 3.0247 84.3307 3.48938 84.697 4.07236L89.1351 10.9582V16.7795C89.1351 17.3962 89.2543 17.8356 89.5014 18.1059C89.7399 18.3594 90.0295 18.4861 90.4299 18.4861C90.8132 18.4861 91.1114 18.3594 91.3584 18.0975C91.6054 17.8271 91.7332 17.3878 91.7332 16.7795V10.9582L96.2821 3.97097C96.6398 3.43024 96.8954 3.0078 97.0402 2.71209C97.1595 2.45862 97.2191 2.22205 97.2191 1.97704C97.2191 1.72357 97.1254 1.51235 96.9124 1.30958C96.6995 1.1068 96.4524 1.01386 96.1287 1.01386C95.9243 1.01386 95.7539 1.04766 95.6261 1.11525C95.4813 1.19129 95.3535 1.30113 95.2258 1.44476C95.0724 1.62218 94.9361 1.81651 94.8169 2.01928C94.6806 2.2474 94.5102 2.52621 94.3058 2.86417L90.5066 8.99805L86.7414 2.86417C86.1281 1.85875 85.8044 1.43631 85.651 1.26733C85.4892 1.09835 85.2422 1.01386 84.8929 1.01386Z" fill="white"/>
</g>
<g clip-path="url(#clip1)">
<path d="M0 49.5455C0 49.5455 12.0049 30.0926 34.3255 34.2353C56.6462 38.3781 74.0804 67.3774 111 38.7984C111 38.7984 98.2712 61.0132 68.6511 56.6302C68.6511 56.6302 54.6253 51.4968 43.3443 46.2733C32.0633 41.0499 14.2068 33.9051 0 49.5455Z" fill="white"/>
<path d="M78.3032 42.5208C78.3032 42.5208 96.3407 42.6409 95.3755 26.25C95.3755 26.25 91.8163 37.1773 78.3032 42.5208Z" fill="white"/>
<path d="M73.6582 46.3035C73.6582 46.3035 102.554 52.4877 108.225 28.3516C108.225 28.3516 94.5793 45.1808 73.6582 46.3035Z" fill="white"/>
<path d="M17.7964 44.382C17.7964 44.382 27.1469 42.821 47.8388 52.2473C47.8388 52.2473 63.6442 62.274 75.6491 61.0131C75.6491 61.0131 68.9529 66.837 42.892 53.2079C42.892 53.2079 36.5578 48.3447 17.7964 44.382Z" fill="white"/>
</g>
<defs>
<clipPath id="clip0">
<rect width="84.75" height="19.5" fill="white" transform="translate(13.5)"/>
</clipPath>
<clipPath id="clip1">
<rect width="111" height="36" fill="white" transform="translate(0 26.25)"/>
</clipPath>
</defs>
</svg>
