<svg width="12" height="8" viewBox="0 0 12 8" fill="none" xmlns="http://www.w3.org/2000/svg">
<path d="M12 7V1C12 0.446667 11.5273 0 10.9418 0H1.0582C0.472663 0 0 0.446667 0 1V7C0 7.55333 0.472663 8 1.0582 8H10.9418C11.5273 8 12 7.55333 12 7ZM11.0758 0.926667C11.3086 1.14667 11.1817 1.37333 11.0547 1.48667L8.19048 3.96667L10.9418 6.67333C11.0265 6.76667 11.0829 6.91333 10.9841 7.01333C10.8924 7.12 10.6808 7.11333 10.5891 7.04667L7.50617 4.56L5.99647 5.86L4.49383 4.56L1.41093 7.04667C1.31922 7.11333 1.10758 7.12 1.01587 7.01333C0.917108 6.91333 0.973545 6.76667 1.0582 6.67333L3.80952 3.96667L0.945326 1.48667C0.818342 1.37333 0.691358 1.14667 0.924162 0.926667C1.15697 0.706667 1.39683 0.813333 1.59436 0.973333L5.99647 4.33333L10.4056 0.973333C10.6032 0.813333 10.843 0.706667 11.0758 0.926667Z" fill="white"/>
</svg>
