<svg width="11" height="11" viewBox="0 0 11 11" fill="none" xmlns="http://www.w3.org/2000/svg">
<path d="M0.512778 1.73811L1.93448 0.317719C2.03477 0.216988 2.15397 0.137065 2.28524 0.0825407C2.41651 0.0280166 2.55725 -3.40674e-05 2.6994 3.10503e-08C2.98908 3.10503e-08 3.2614 0.113471 3.46565 0.317719L4.99548 1.84757C5.09621 1.94786 5.17613 2.06707 5.23065 2.19834C5.28518 2.32961 5.31323 2.47036 5.31319 2.6125C5.31319 2.90218 5.19972 3.17451 4.99548 3.37876L3.87681 4.49745C4.13866 5.07463 4.50272 5.5997 4.95143 6.04733C5.399 6.49713 5.92402 6.86252 6.50128 7.12597L7.61995 6.00728C7.72024 5.90655 7.83944 5.82663 7.97071 5.7721C8.10198 5.71758 8.24273 5.68953 8.38487 5.68956C8.67455 5.68956 8.94687 5.80303 9.15112 6.00728L10.6823 7.5358C10.7831 7.63628 10.8631 7.7557 10.9177 7.88721C10.9722 8.01871 11.0002 8.1597 11 8.30206C11 8.59175 10.8865 8.86408 10.6823 9.06833L9.26325 10.4874C8.93753 10.8144 8.48766 11 8.02577 11C7.92832 11 7.83488 10.992 7.74277 10.976C5.94328 10.6796 4.15848 9.72245 2.71808 8.28337C1.27903 6.84563 0.323217 5.06214 0.0228586 3.25728C-0.0679169 2.70595 0.114968 2.13859 0.512778 1.73811Z" fill="white"/>
</svg>
