<svg width="72" height="55" viewBox="0 0 72 55" fill="none" xmlns="http://www.w3.org/2000/svg">
<path d="M29.711 41.4936C29.711 45.0762 28.4212 48.1572 25.8417 50.7367C23.4056 53.1729 20.3245 54.3909 16.5986 54.3909C11.4397 54.3909 7.42713 52.5996 4.56105 49.017C1.69496 45.2911 0.261914 40.992 0.261914 36.1196C0.261914 28.6678 2.48313 21.9325 6.92557 15.9137C11.368 9.75164 16.4553 4.59268 22.1875 0.436857L29.496 7.74537C27.633 9.60833 25.4118 11.9012 22.8324 14.624C20.2529 17.3468 18.9631 20.1412 18.9631 23.0073C18.9631 24.8703 19.823 26.5183 21.5426 27.9513C23.4056 29.3843 25.1969 31.104 26.9165 33.1103C28.7795 35.1165 29.711 37.9109 29.711 41.4936ZM71.6275 41.4936C71.6275 45.0762 70.3377 48.1572 67.7583 50.7367C65.3221 53.1729 62.2411 54.3909 58.5151 54.3909C53.3562 54.3909 49.3437 52.5996 46.4776 49.017C43.6115 45.2911 42.1784 40.992 42.1784 36.1196C42.1784 28.6678 44.3997 21.9325 48.8421 15.9137C53.2845 9.75164 58.3718 4.59268 64.104 0.436857L71.4125 7.74537C69.5496 9.60833 67.3284 11.9012 64.7489 14.624C62.1694 17.3468 60.8797 20.1412 60.8797 23.0073C60.8797 24.8703 61.7395 26.5183 63.4591 27.9513C65.3221 29.3843 67.1134 31.104 68.833 33.1103C70.696 35.1165 71.6275 37.9109 71.6275 41.4936Z" fill="#A7FFFA"/>
</svg>
