<svg width="72" height="55" viewBox="0 0 72 55" fill="none" xmlns="http://www.w3.org/2000/svg">
<path d="M42.2891 13.5064C42.2891 9.92383 43.5788 6.84279 46.1583 4.26331C48.5944 1.82713 51.6755 0.609048 55.4014 0.609049C60.5604 0.609049 64.5729 2.40035 67.439 5.98296C70.3051 9.70888 71.7381 14.008 71.7381 18.8804C71.7381 26.3322 69.5169 33.0675 65.0744 39.0863C60.632 45.2484 55.5447 50.4073 49.8125 54.5631L42.504 47.2546C44.367 45.3917 46.5882 43.0988 49.1677 40.376C51.7471 37.6532 53.0369 34.8588 53.0369 31.9927C53.0369 30.1297 52.1771 28.4817 50.4574 27.0487C48.5944 25.6157 46.8031 23.896 45.0835 21.8897C43.2205 19.8835 42.2891 17.0891 42.2891 13.5064ZM0.37253 13.5064C0.37253 9.92383 1.66227 6.84278 4.24175 4.2633C6.67792 1.82713 9.75897 0.609045 13.4849 0.609045C18.6438 0.609045 22.6564 2.40035 25.5224 5.98296C28.3885 9.70888 29.8216 14.008 29.8216 18.8804C29.8216 26.3322 27.6004 33.0675 23.1579 39.0863C18.7155 45.2484 13.6282 50.4073 7.896 54.5631L0.587487 47.2546C2.45044 45.3917 4.67166 43.0988 7.25114 40.376C9.83062 37.6532 11.1204 34.8588 11.1204 31.9927C11.1204 30.1297 10.2605 28.4817 8.54088 27.0487C6.67792 25.6157 4.88662 23.896 3.16697 21.8897C1.30401 19.8835 0.37253 17.089 0.37253 13.5064Z" fill="#A7FFFA"/>
</svg>
