<svg width="1083" height="609" viewBox="0 0 1083 609" fill="none" xmlns="http://www.w3.org/2000/svg">
<path fill-rule="evenodd" clip-rule="evenodd" d="M0 0H1083V609H0V0ZM273.874 196.595C276.466 197.893 279.544 198.542 283.027 198.542C288.94 198.542 294.124 196.352 298.417 192.215C302.629 187.997 304.735 183.129 304.735 177.856C304.735 173.314 302.872 166.743 299.146 157.657L254.838 46.9278L254.652 46.4402L254.651 46.4366C252.631 41.1462 250.99 36.8483 249.654 33.5429C248.196 29.8925 246.414 26.4854 244.227 23.3217C241.797 19.8335 238.638 16.9132 234.831 14.7229C230.862 12.4516 226.002 11.3159 220.413 11.3159C214.905 11.3159 210.045 12.4516 206.157 14.7229C202.269 16.9943 199.109 19.9147 196.76 23.484C194.573 26.7288 192.548 30.7848 190.685 35.5709L189.713 38.1668C188.644 40.8124 187.721 43.2134 186.907 45.3319L186.907 45.333L186.906 45.3337C186.672 45.9428 186.447 46.5286 186.23 47.0901L142.814 158.55C140.951 163.174 139.655 166.662 138.844 169.339C137.953 172.259 137.467 175.179 137.467 178.019C137.467 183.373 139.655 188.24 143.948 192.377C148.16 196.433 153.182 198.542 158.771 198.542C165.494 198.542 170.516 196.352 173.675 192.053C176.186 188.645 179.021 182.561 182.423 173.476L189.389 154.656H251.679L258.564 173.07L258.645 173.151C259.698 175.828 260.995 178.992 262.534 182.48C264.235 186.374 265.855 189.213 267.394 191.241C269.095 193.513 271.282 195.297 273.874 196.595ZM238.8 118.801H201.945L220.17 67.2891L238.8 118.801ZM438.866 194.567C442.673 197.244 447.533 198.542 453.284 198.542C459.602 198.542 464.786 196.676 468.593 192.945C472.562 189.213 474.587 184.671 474.587 179.479C474.587 175.342 473.615 171.123 471.59 166.824C469.808 162.93 467.135 158.55 463.571 153.439L417.805 87.0825L456.605 49.8482C462.761 43.9264 465.839 37.6801 465.839 31.2715C465.839 25.7553 463.814 20.9692 459.764 17.0754C455.795 13.2628 450.692 11.3159 444.455 11.3159C439.676 11.3159 435.626 12.4516 432.629 14.8041C430.037 16.5887 427.121 19.3468 423.638 22.9972L364.588 85.2979V37.2745C364.588 29.0002 362.563 22.5105 358.512 18.13C354.381 13.5873 348.954 11.3159 342.393 11.3159C335.67 11.3159 330.243 13.6684 326.274 18.2922C322.467 22.6728 320.523 29.0813 320.523 37.2745V164.877C320.523 170.474 320.604 174.774 320.847 177.775C321.09 181.264 321.9 184.427 323.277 187.185L323.358 187.348C325.302 190.755 327.975 193.513 331.458 195.541C334.86 197.569 338.505 198.542 342.312 198.542C348.792 198.542 354.138 196.271 358.35 191.809C362.401 187.429 364.507 180.939 364.507 172.502V139.081L386.863 117.34L424.205 175.504C425.595 177.759 427.094 180.284 428.701 182.993L428.73 183.042L429.171 183.785C429.377 184.131 429.584 184.481 429.794 184.833C432.224 188.808 435.302 192.134 438.866 194.567ZM518.173 188.24C529.757 195.054 544.499 198.542 562.076 198.542C576.656 198.542 589.536 196.027 600.228 191.241C611.244 186.131 619.749 178.992 625.5 169.988C631.251 160.983 634.167 150.681 634.167 139.405C634.167 129.995 632.466 121.883 629.064 115.231C625.662 108.579 620.883 103.063 614.808 98.6828C609.057 94.4645 602.01 90.8952 593.829 88.056C585.971 85.2979 577.061 82.702 567.422 80.4306C559.889 78.4837 554.462 77.0236 551.222 76.0501C548.225 75.1578 545.228 73.8599 542.312 72.2374C539.72 70.7773 537.695 69.0737 536.237 67.1268C535.022 65.5044 534.455 63.4764 534.455 61.1239C534.455 57.149 536.48 53.8231 540.611 50.8216C545.228 47.4957 551.465 45.7921 559.241 45.7921C567.584 45.7921 573.578 47.2523 576.98 50.0915C580.787 53.2552 584.108 57.798 586.862 63.6387L586.943 63.8009C589.536 68.7493 592.047 72.3997 594.477 74.7522C597.474 77.6725 601.605 79.1327 606.87 79.1327C612.54 79.1327 617.562 76.8613 621.369 72.4808C625.014 68.2625 626.877 63.4764 626.877 58.1225C626.877 52.8496 625.5 47.4957 622.908 42.0606C620.235 36.7877 616.185 31.6771 610.677 26.891C605.25 22.186 598.365 18.3734 590.184 15.5341C582.083 12.6949 572.525 11.3159 561.59 11.3159C547.982 11.3159 535.913 13.425 525.544 17.5622C515.095 21.8616 506.914 28.1078 501.325 36.2199C495.655 44.4131 492.82 53.8231 492.82 64.2065C492.82 75.1578 495.574 84.4867 501.001 91.9497C506.347 99.2506 513.556 105.091 522.466 109.31C530.972 113.284 541.583 116.854 554.057 119.774C562.967 121.802 570.095 123.83 575.36 125.615C580.058 127.237 583.865 129.509 586.781 132.51C589.373 135.106 590.589 138.513 590.589 142.975C590.589 148.653 588.078 153.196 582.974 157.09C577.547 161.227 570.176 163.336 561.104 163.336C554.462 163.336 549.197 162.362 545.39 160.334C541.583 158.306 538.586 155.792 536.561 152.79C534.293 149.383 532.106 145.084 530.081 140.054C528.056 134.7 525.545 130.644 522.466 127.805C519.064 124.641 514.852 123.019 509.992 123.019C504.16 123.019 499.219 125.047 495.412 129.022C491.686 132.916 489.742 137.702 489.742 143.218C489.742 151.33 492.415 159.767 497.68 168.203C502.945 176.477 509.83 183.21 518.173 188.24ZM777.858 196.595C780.45 197.893 783.528 198.542 787.011 198.542C793.005 198.542 798.108 196.352 802.482 192.215C806.694 187.997 808.8 183.129 808.8 177.856C808.8 173.314 806.937 166.743 803.211 157.657L758.903 46.9278L758.712 46.4265L758.711 46.4225L758.705 46.4072L758.704 46.405L758.704 46.4044L758.702 46.4001C756.688 41.1264 755.052 36.8407 753.719 33.5429C752.261 29.8925 750.479 26.4854 748.292 23.3217C745.862 19.8335 742.703 16.9132 738.896 14.7229C734.927 12.4516 730.067 11.3159 724.478 11.3159C718.97 11.3159 714.191 12.4516 710.222 14.7229C706.334 16.9943 703.174 19.9147 700.825 23.484C698.638 26.7288 696.613 30.7848 694.75 35.5709C693.742 38.2152 692.791 40.6599 691.931 42.8715L691.92 42.8982L691.914 42.9135L691.911 42.9207L691.909 42.9262L691.902 42.9457L691.888 42.9809L691.847 43.0848L691.833 43.1229C691.279 44.5472 690.763 45.8727 690.295 47.0901L646.879 158.55C645.016 163.174 643.72 166.662 642.91 169.339C642.018 172.259 641.533 175.179 641.533 178.019C641.533 183.373 643.72 188.24 648.013 192.377C652.225 196.433 657.247 198.542 662.836 198.542C669.559 198.542 674.581 196.352 677.74 192.053C680.251 188.645 683.167 182.561 686.488 173.476L693.454 154.656H755.663L762.548 173.07L762.629 173.151C763.682 175.828 764.978 178.992 766.518 182.48C768.219 186.374 769.839 189.213 771.378 191.241C773.079 193.513 775.266 195.297 777.858 196.595ZM742.784 118.801H705.929L724.154 67.2891L742.784 118.801ZM853.113 191.728C857.244 196.271 862.59 198.542 869.07 198.542C875.469 198.542 880.896 196.271 885.189 191.809C889.239 187.348 891.345 180.939 891.345 172.584V119.612L932.98 54.9588C936.706 49.3614 939.298 44.9809 940.837 41.7361C942.619 38.0046 943.51 34.1919 943.51 30.4603C943.51 25.3497 941.485 20.8881 937.678 17.0754C933.79 13.3439 929.011 11.397 923.422 11.397C919.858 11.397 916.699 12.1271 914.107 13.5061C911.677 14.8041 909.409 16.6698 907.384 19.1035C905.602 21.2126 904.062 23.484 902.604 25.8365C901.227 28.0267 899.607 30.7037 897.744 33.8674L869.88 79.2138L842.34 33.8674C837.236 25.4309 833.51 19.9147 830.837 16.9943C827.435 13.1817 822.656 11.3159 816.5 11.3159C810.749 11.3159 805.808 13.2628 801.839 16.9943C797.789 20.8881 795.764 25.512 795.764 30.8659C795.764 34.0296 796.655 37.4367 798.437 41.4116C800.057 44.8998 802.649 49.5237 806.456 55.6888L847.119 119.45V172.502C847.119 180.858 849.144 187.348 853.113 191.728ZM12.2258 487.017C12.2258 487.017 126.38 300.243 338.625 340.019C399.672 351.459 456.875 382.643 515.748 414.737C661.564 494.228 817.626 579.305 1067.72 383.83C1067.72 383.83 946.681 597.122 665.025 555.04C665.025 555.04 531.654 505.753 424.384 455.6C317.114 405.448 147.317 336.848 12.2258 487.017ZM756.81 419.573C756.81 419.573 928.328 420.726 919.149 263.351C919.149 263.351 885.305 368.268 756.81 419.573ZM712.637 455.892C712.637 455.892 987.409 515.268 1041.33 283.529C1041.33 283.529 911.575 445.112 712.637 455.892ZM467.118 512.958C270.36 422.453 181.447 437.441 181.447 437.441C359.848 475.488 420.08 522.182 420.08 522.182C667.891 653.04 731.565 597.122 731.565 597.122C617.411 609.228 467.118 512.958 467.118 512.958Z" fill="white"/>
</svg>
