<svg width="116" height="116" viewBox="0 0 116 116" fill="none" xmlns="http://www.w3.org/2000/svg">
<path d="M85.4 101.703C80.9742 101.703 77.353 98.0943 77.353 93.6839C77.353 89.8348 82.9859 81.5754 84.1125 79.9716C84.4343 79.5707 84.9172 79.2499 85.4 79.2499C85.9633 79.2499 86.4461 79.4905 86.6875 79.9716C87.8141 81.5754 93.4469 89.8348 93.4469 93.6839C93.4469 98.0943 89.8258 101.703 85.4 101.703ZM85.4 83.7405C83.0664 87.349 80.5718 91.8396 80.5718 93.6037C80.5718 96.2499 82.7445 98.415 85.4 98.415C88.0555 98.415 90.2281 96.2499 90.2281 93.6037C90.2281 91.8396 87.7336 87.349 85.4 83.7405Z" fill="#2C7B86"/>
<path d="M82.4229 96.8915C81.7791 95.9293 81.4573 94.8066 81.4573 93.6038C81.4573 92.8821 81.6987 91.9198 82.1815 90.717L85.1589 92C84.676 93.0425 84.676 93.5236 84.676 93.6038C84.676 94.1651 84.837 94.7264 85.1589 95.2076L82.4229 96.8915Z" fill="#2C7B86"/>
<path d="M52.3269 109C46.6136 109 42.0269 104.349 42.0269 98.7359C42.0269 93.6038 50.0738 81.8962 51.0394 80.6132C51.3613 80.2123 51.8441 79.8915 52.3269 79.8915C52.8902 79.8915 53.373 80.1321 53.6145 80.6132C54.4996 81.8962 62.627 93.6038 62.627 98.7359C62.7075 104.429 58.0403 109 52.3269 109ZM52.3269 84.3821C49.1886 89.1934 45.2456 96.0094 45.2456 98.7359C45.2456 102.665 48.4644 105.792 52.3269 105.792C56.2699 105.792 59.4083 102.585 59.4083 98.7359C59.4887 96.0094 55.5457 89.1132 52.3269 84.3821Z" fill="#2C7B86"/>
<path d="M47.8206 102.425C47.0159 101.222 46.6135 99.7783 46.6135 98.3349C46.6135 97.3727 46.9354 96.1699 47.5792 94.6463L50.5565 95.9293C49.9128 97.3727 49.8323 98.0944 49.8323 98.3349C49.8323 99.217 50.0737 100.019 50.5565 100.741L47.8206 102.425Z" fill="#2C7B86"/>
<path d="M24.082 89.033C19.7367 89.033 16.196 85.5047 16.196 81.1745C16.196 79.8113 16.9203 77.8066 18.2882 75.0802L21.1047 76.6038C19.4953 79.5708 19.3344 80.7736 19.3344 81.1745C19.3344 83.7406 21.4266 85.8255 24.0016 85.8255C26.5766 85.8255 28.6688 83.7406 28.6688 81.1745C28.6688 80.7736 28.5079 79.651 27.0594 76.7642L29.9563 75.3208C31.3243 77.8868 31.968 79.8113 31.968 81.1745C31.968 85.5047 28.4274 89.033 24.082 89.033Z" fill="#2C7B86"/>
<path d="M21.1049 84.1416C20.5416 83.1793 20.2197 82.0567 20.2197 80.934C20.2197 80.2123 20.4611 79.2501 20.944 78.1274L23.9213 79.4104C23.519 80.4529 23.4385 80.8538 23.4385 80.934C23.4385 81.4953 23.5994 81.9765 23.8409 82.4576L21.1049 84.1416Z" fill="#2C7B86"/>
<path d="M41.8659 42.4433C36.3136 42.4433 31.7268 37.9528 31.7268 32.3396C31.7268 27.2877 39.6128 15.9009 40.498 14.6179C40.8198 14.2169 41.3027 13.8962 41.7855 13.8962C42.3488 13.8962 42.8316 14.1367 43.073 14.6179C43.9582 15.9009 51.8442 27.2877 51.8442 32.3396C52.0051 37.8726 47.4183 42.4433 41.8659 42.4433ZM41.8659 18.3867C38.8081 23.0377 34.9456 29.6933 34.9456 32.3396C34.9456 36.1084 38.0034 39.2358 41.8659 39.2358C45.7285 39.2358 48.7863 36.1886 48.7863 32.3396C48.7863 29.6933 44.9238 23.0377 41.8659 18.3867Z" fill="#2C7B86"/>
<path d="M104.391 73.1557H11.6094C10.7242 73.1557 10 72.434 10 71.5519V59.9246C10 59.0425 10.7242 58.3208 11.6094 58.3208H104.391C105.276 58.3208 106 59.0425 106 59.9246V71.5519C106 72.434 105.276 73.1557 104.391 73.1557ZM13.2188 69.9482H102.781V61.5284H13.2188V69.9482Z" fill="#2C7B86"/>
<path d="M102.942 60.566L91.7567 35.8679H87.1699V32.6603H92.8028C93.4465 32.6603 94.0098 33.0613 94.2512 33.6226L105.839 59.283L102.942 60.566Z" fill="#2C7B86"/>
<path d="M78.1574 32.6603H53.6143V35.8679H78.1574V32.6603Z" fill="#2C7B86"/>
<path d="M13.0578 60.566L10.1609 59.283L21.7485 33.6226C21.9899 33.0613 22.5532 32.6603 23.1969 32.6603H29.7954V35.8679H24.1626L13.0578 60.566Z" fill="#2C7B86"/>
<path d="M42.1878 29.7735C42.1073 29.7735 41.9463 29.7735 41.8659 29.7735C41.7854 29.7735 41.6245 29.6933 41.544 29.6933C41.4635 29.6933 41.3831 29.6131 41.3026 29.533C41.2221 29.4528 41.1417 29.4528 41.0612 29.2924C40.9807 29.2122 40.9002 29.132 40.8198 29.0518C40.7393 28.9716 40.7393 28.8915 40.6588 28.8113C40.6588 28.7311 40.5784 28.6509 40.5784 28.4905C40.5784 28.4103 40.5784 28.2499 40.5784 28.1698C40.5784 28.0896 40.5784 27.9292 40.5784 27.849C40.5784 27.7688 40.6588 27.6084 40.6588 27.5282C40.6588 27.4481 40.7393 27.3679 40.8198 27.2877C40.9002 27.2075 40.9807 27.1273 41.0612 27.0471C41.6245 26.4858 42.751 26.4858 43.3143 27.0471C43.3948 27.1273 43.4753 27.2075 43.5557 27.2877C43.6362 27.3679 43.6362 27.4481 43.7167 27.5282C43.7971 27.6084 43.7971 27.7688 43.7971 27.849C43.7971 27.9292 43.7971 28.0896 43.7971 28.1698C43.7971 28.2499 43.7971 28.4103 43.7971 28.4905C43.7971 28.5707 43.7167 28.7311 43.7167 28.8113C43.7167 28.8915 43.6362 28.9716 43.5557 29.0518C43.4753 29.132 43.4753 29.2122 43.3143 29.2924C43.2339 29.3726 43.1534 29.4528 43.0729 29.533C42.9925 29.6131 42.912 29.6131 42.8315 29.6933C42.751 29.7735 42.5901 29.7735 42.5096 29.7735C42.4292 29.7735 42.2682 29.7735 42.1878 29.7735Z" fill="#2C7B86"/>
<path d="M45.5674 33.8632C45.1651 33.8632 44.7627 33.7028 44.4408 33.382C44.1189 33.0613 43.958 32.6603 43.958 32.2594C43.958 32.1792 43.958 32.0188 43.958 31.9386C43.958 31.8584 44.0385 31.6981 44.0385 31.6179C44.0385 31.5377 44.1189 31.4575 44.1994 31.3773C44.2799 31.2971 44.3604 31.2169 44.4408 31.1368C45.0041 30.5754 46.1307 30.4952 46.694 31.1368C46.7744 31.2169 46.8549 31.2971 46.9354 31.3773C47.0158 31.4575 47.0158 31.5377 47.0963 31.6179C47.0963 31.6981 47.1768 31.8584 47.1768 31.9386C47.1768 32.0188 47.1768 32.1792 47.1768 32.2594C47.1768 32.6603 47.0158 33.0613 46.694 33.382C46.4526 33.7028 46.0502 33.8632 45.5674 33.8632Z" fill="#2C7B86"/>
<path d="M38.4859 33.8633C38.0835 33.8633 37.6812 33.7029 37.3593 33.3821C37.2788 33.3019 37.1983 33.2218 37.1179 33.1416C37.0374 33.0614 37.0374 32.9812 36.9569 32.8208C36.9569 32.7406 36.8765 32.5802 36.8765 32.5001C36.8765 32.4199 36.8765 32.2595 36.8765 32.1793C36.8765 31.7784 37.0374 31.3774 37.3593 31.0567C37.4397 30.9765 37.5202 30.8963 37.6007 30.8161C37.6812 30.7359 37.7616 30.7359 37.8421 30.6557C37.9226 30.5755 38.0835 30.5755 38.164 30.5755C38.4054 30.5755 38.5663 30.5755 38.8077 30.5755C38.8882 30.5755 39.0491 30.6557 39.1296 30.6557C39.2101 30.6557 39.2905 30.7359 39.371 30.8161C39.4515 30.8963 39.5319 30.9765 39.6124 31.0567C39.9343 31.3774 40.0952 31.7784 40.0952 32.1793C40.0952 32.2595 40.0952 32.4199 40.0952 32.5001C40.0952 32.5802 40.0148 32.7406 40.0148 32.8208C39.9343 32.901 39.9343 32.9812 39.8538 33.1416C39.7734 33.2218 39.6929 33.3019 39.6124 33.3821C39.5319 33.4623 39.4515 33.5425 39.371 33.6227C39.2905 33.7029 39.2101 33.7029 39.1296 33.7831C39.0491 33.7831 38.8882 33.8633 38.8077 33.8633C38.7273 33.8633 38.5663 33.8633 38.4859 33.8633Z" fill="#2C7B86"/>
<path d="M41.4636 37.7123C41.3832 37.7123 41.2222 37.7123 41.1418 37.7123C41.0613 37.7123 40.9004 37.6322 40.8199 37.6322C40.7394 37.6322 40.6589 37.552 40.5785 37.4718C40.498 37.3916 40.4175 37.3114 40.3371 37.2312C40.2566 37.151 40.1761 37.0708 40.0957 36.9906C40.0152 36.9105 40.0152 36.8303 39.9347 36.6699C39.9347 36.5897 39.8542 36.5095 39.8542 36.3491C39.8542 36.2689 39.8542 36.1086 39.8542 36.0284C39.8542 35.9482 39.8542 35.7878 39.8542 35.7076C39.8542 35.6274 39.9347 35.4671 39.9347 35.3869C39.9347 35.3067 40.0152 35.2265 40.0957 35.1463C40.1761 35.0661 40.2566 34.9859 40.3371 34.9057C40.4175 34.8255 40.498 34.7454 40.5785 34.7454C40.6589 34.6652 40.7394 34.6652 40.8199 34.585C40.9004 34.5048 40.9808 34.5048 41.1418 34.5048C41.3832 34.5048 41.5441 34.5048 41.7855 34.5048C41.866 34.5048 42.0269 34.585 42.1074 34.585C42.1879 34.585 42.2683 34.6652 42.3488 34.7454C42.4293 34.8255 42.5097 34.8255 42.5902 34.9057C42.6707 34.9859 42.7511 35.0661 42.8316 35.1463C42.9121 35.2265 42.9121 35.3067 42.9926 35.3869C42.9926 35.4671 43.073 35.6274 43.073 35.7076C43.073 35.7878 43.073 35.9482 43.073 36.0284C43.073 36.1086 43.073 36.2689 43.073 36.3491C43.073 36.4293 42.9926 36.5897 42.9926 36.6699C42.9121 36.7501 42.9121 36.8303 42.8316 36.9906C42.7511 37.0708 42.6707 37.151 42.5902 37.2312C42.2683 37.552 41.866 37.7123 41.4636 37.7123Z" fill="#2C7B86"/>
<path d="M82.2615 56.9575C77.4333 56.9575 73.5708 53.0283 73.5708 48.2971C73.5708 44.1273 79.6865 35.1462 80.974 33.382C81.2959 32.9811 81.7787 32.6603 82.2615 32.6603C82.8248 32.6603 83.3076 32.9009 83.549 33.382C84.7561 35.1462 90.9522 44.1273 90.9522 48.2971C90.9522 53.1085 87.0897 56.9575 82.2615 56.9575ZM82.2615 37.1509C79.7669 41 76.7896 46.2122 76.7896 48.2971C76.7896 51.3443 79.2841 53.75 82.2615 53.75C85.3193 53.75 87.7334 51.2641 87.7334 48.2971C87.7334 46.2122 84.7561 41 82.2615 37.1509Z" fill="#2C7B86"/>
<path d="M82.5032 46.4529C82.4227 46.4529 82.2618 46.4529 82.1813 46.4529C82.1008 46.4529 81.9399 46.3727 81.8594 46.3727C81.779 46.3727 81.6985 46.2925 81.618 46.2123C81.5376 46.1321 81.4571 46.0519 81.3766 45.9717C81.0547 45.651 80.8938 45.25 80.8938 44.8491C80.8938 44.4481 81.0547 44.0472 81.3766 43.7264C81.4571 43.6462 81.5376 43.5661 81.618 43.4859C81.6985 43.4057 81.779 43.4057 81.8594 43.3255C81.9399 43.3255 82.0204 43.2453 82.1813 43.2453C82.4227 43.1651 82.5837 43.1651 82.8251 43.2453C82.9055 43.2453 83.0665 43.3255 83.1469 43.3255C83.2274 43.4057 83.3079 43.4057 83.3883 43.4859C83.4688 43.5661 83.5493 43.6462 83.6298 43.7264C83.9516 44.0472 84.1126 44.4481 84.1126 44.8491C84.1126 45.25 83.9516 45.651 83.6298 45.9717C83.5493 46.0519 83.4688 46.1321 83.3883 46.2123C83.3079 46.2123 83.2274 46.2925 83.1469 46.2925C83.0665 46.3727 82.9055 46.3727 82.8251 46.3727C82.7446 46.3727 82.6641 46.4529 82.5032 46.4529Z" fill="#2C7B86"/>
<path d="M85.3999 49.8206C85.3194 49.8206 85.1585 49.8206 85.078 49.8206C84.9976 49.8206 84.8366 49.7404 84.7562 49.7404C84.6757 49.7404 84.5952 49.6602 84.5148 49.5801C84.4343 49.4999 84.3538 49.4999 84.2733 49.3395C84.1929 49.2593 84.1124 49.1791 84.0319 49.0989C83.9515 49.0187 83.9515 48.9385 83.871 48.7782C83.871 48.698 83.7905 48.6178 83.7905 48.4574C83.7905 48.3772 83.7905 48.2168 83.7905 48.1367C83.7905 48.0565 83.7905 47.8961 83.7905 47.8159C83.7905 47.7357 83.871 47.5753 83.871 47.4951C83.9515 47.415 83.9515 47.3348 84.0319 47.2546C84.1124 47.1744 84.1929 47.0942 84.2733 47.014C84.3538 46.9338 84.4343 46.8536 84.5148 46.8536C84.5952 46.7735 84.6757 46.7735 84.7562 46.6933C84.8366 46.6131 84.9976 46.6131 85.078 46.6131C85.3195 46.5329 85.4804 46.5329 85.7218 46.6131C85.8023 46.6131 85.9632 46.6933 86.0437 46.6933C86.1241 46.6933 86.2046 46.7735 86.2851 46.8536C86.3656 46.9338 86.446 46.9338 86.5265 47.014C86.607 47.0942 86.6874 47.1744 86.7679 47.2546C86.8484 47.3348 86.8484 47.415 86.9288 47.4951C86.9288 47.5753 87.0093 47.7357 87.0093 47.8159C87.0093 47.8961 87.0093 48.0565 87.0093 48.1367C87.0093 48.2168 87.0093 48.3772 87.0093 48.4574C87.0093 48.5376 86.9288 48.698 86.9288 48.7782C86.9288 48.8584 86.8484 48.9385 86.7679 49.0989C86.6874 49.1791 86.607 49.2593 86.5265 49.3395C86.446 49.4197 86.3656 49.4999 86.2851 49.5801C86.2046 49.6602 86.1241 49.6602 86.0437 49.7404C85.9632 49.8206 85.8023 49.8206 85.7218 49.8206C85.5609 49.8206 85.4804 49.8206 85.3999 49.8206Z" fill="#2C7B86"/>
<path d="M79.4451 49.8206C79.3646 49.8206 79.2037 49.8206 79.1232 49.8206C79.0427 49.8206 78.8818 49.7404 78.8013 49.7404C78.7209 49.7404 78.6404 49.6602 78.5599 49.5801C78.4794 49.4999 78.399 49.4197 78.3185 49.3395C77.9966 49.0187 77.8357 48.6178 77.8357 48.2168C77.8357 47.8159 77.9966 47.415 78.3185 47.0942C78.399 47.014 78.4794 46.9338 78.5599 46.8536C78.6404 46.7735 78.7209 46.7735 78.8013 46.6933C78.8818 46.6131 79.0427 46.6131 79.1232 46.6131C79.3646 46.5329 79.5255 46.5329 79.767 46.6131C79.8474 46.6131 80.0084 46.6933 80.0888 46.6933C80.1693 46.6933 80.2498 46.7735 80.4107 46.8536C80.4912 46.9338 80.5716 46.9338 80.6521 47.0942C80.974 47.415 81.1349 47.8159 81.1349 48.2168C81.1349 48.297 81.1349 48.4574 81.1349 48.5376C81.1349 48.6178 81.0545 48.7782 81.0545 48.8584C81.0545 48.9385 80.974 49.0187 80.8935 49.1791C80.8131 49.2593 80.7326 49.3395 80.6521 49.4197C80.5716 49.4999 80.4912 49.5801 80.4107 49.6602C80.3302 49.7404 80.2498 49.7404 80.0888 49.8206C80.0084 49.9008 79.9279 49.9008 79.767 49.9008C79.6865 49.8206 79.5255 49.8206 79.4451 49.8206Z" fill="#2C7B86"/>
<path d="M81.9398 53.0283C81.8593 53.0283 81.6984 53.0283 81.6179 53.0283C81.5375 53.0283 81.3765 52.9481 81.2961 52.9481C81.2156 52.9481 81.1351 52.8679 81.0546 52.7878C80.9742 52.7076 80.8937 52.6274 80.8132 52.5472C80.7328 52.467 80.6523 52.3868 80.6523 52.3066C80.5718 52.2264 80.5718 52.1462 80.4914 52.0661C80.4914 51.9859 80.4109 51.8255 80.4109 51.7453C80.4109 51.6651 80.4109 51.5047 80.4109 51.4245C80.4109 51.0236 80.5718 50.6227 80.8937 50.3019C80.9742 50.2217 81.0546 50.1415 81.1351 50.0613C81.2156 49.9811 81.2961 49.9811 81.3765 49.901C81.457 49.8208 81.6179 49.8208 81.6984 49.8208C81.9398 49.8208 82.1008 49.8208 82.3422 49.8208C82.4226 49.8208 82.5836 49.901 82.664 49.901C82.7445 49.901 82.825 49.9811 82.9054 50.0613C82.9859 50.1415 83.0664 50.2217 83.1469 50.3019C83.4687 50.6227 83.6297 51.0236 83.6297 51.4245C83.6297 51.8255 83.4687 52.3066 83.1469 52.5472C83.0664 52.6274 82.9859 52.7076 82.9054 52.7878C82.825 52.8679 82.7445 52.8679 82.664 52.9481C82.5836 52.9481 82.5031 53.0283 82.3422 53.0283C82.1008 53.0283 82.0203 53.0283 81.9398 53.0283Z" fill="#2C7B86"/>
<path d="M70.6741 31.2972C65.8459 31.2972 61.9834 27.3679 61.9834 22.6368C61.9834 18.467 68.0991 9.48585 69.3866 7.7217C69.7085 7.32075 70.1913 7 70.6741 7C71.2374 7 71.7202 7.24057 71.9616 7.7217C73.1686 9.48585 79.3648 18.467 79.3648 22.6368C79.3648 27.4481 75.5023 31.2972 70.6741 31.2972ZM70.6741 11.4906C68.1795 15.3396 65.2022 20.5519 65.2022 22.6368C65.2022 25.684 67.6967 28.0896 70.6741 28.0896C73.7319 28.0896 76.146 25.6038 76.146 22.6368C76.146 20.5519 73.1686 15.3396 70.6741 11.4906Z" fill="#2C7B86"/>
<path d="M73.8123 24.1603C73.4099 24.1603 73.0076 24 72.6857 23.6792C72.3638 23.3584 72.2029 22.9575 72.2029 22.5566C72.2029 22.4764 72.2029 22.316 72.2029 22.2358C72.2029 22.1556 72.2833 21.9952 72.2833 21.9151C72.2833 21.8349 72.3638 21.7547 72.4443 21.6745C72.5248 21.5943 72.5248 21.5141 72.6857 21.4339C72.7662 21.3537 72.8466 21.2735 72.9271 21.2735C73.0076 21.1934 73.088 21.1934 73.1685 21.1132C73.249 21.033 73.4099 21.033 73.4904 21.033C74.0537 20.9528 74.5365 21.1132 74.9388 21.4339C75.0193 21.5141 75.0998 21.5943 75.1803 21.6745C75.2607 21.7547 75.2607 21.8349 75.3412 21.9151C75.3412 21.9952 75.4217 22.1556 75.4217 22.2358C75.4217 22.316 75.4217 22.4764 75.4217 22.5566C75.4217 22.9575 75.2607 23.3584 74.9388 23.6792C74.617 24 74.2146 24.1603 73.8123 24.1603Z" fill="#2C7B86"/>
<path d="M67.8572 24.1604C67.4548 24.1604 67.0525 24 66.7306 23.6793C66.6501 23.5991 66.5697 23.5189 66.4892 23.4387C66.4087 23.3585 66.4087 23.2783 66.3283 23.118C66.3283 23.0378 66.2478 22.9576 66.2478 22.7972C66.2478 22.717 66.2478 22.5566 66.2478 22.4764C66.2478 22.0755 66.4087 21.6746 66.7306 21.3538C67.133 20.9529 67.6963 20.7925 68.1791 20.9529C68.2595 20.9529 68.4205 21.033 68.5009 21.033C68.5814 21.033 68.6619 21.1132 68.7424 21.1934C68.8228 21.2736 68.9033 21.2736 68.9838 21.3538C69.3056 21.6746 69.4666 22.0755 69.4666 22.4764C69.4666 22.5566 69.4666 22.717 69.4666 22.7972C69.4666 22.8774 69.3861 23.0378 69.3861 23.118C69.3861 23.1981 69.3056 23.2783 69.2252 23.4387C69.1447 23.5189 69.0642 23.5991 68.9838 23.6793C68.9033 23.7595 68.8228 23.8397 68.7424 23.9198C68.6619 24 68.5814 24 68.5009 24.0802C68.4205 24.1604 68.2595 24.1604 68.1791 24.1604C68.0986 24.1604 68.0181 24.1604 67.8572 24.1604Z" fill="#2C7B86"/>
<path d="M70.3521 27.368C69.9497 27.368 69.5474 27.2076 69.2255 26.8868C69.145 26.8066 69.0646 26.7265 68.9841 26.6463C68.9036 26.5661 68.9036 26.4859 68.8231 26.4057C68.8231 26.3255 68.7427 26.2453 68.7427 26.0849C68.7427 26.0048 68.7427 25.8444 68.7427 25.7642C68.7427 25.684 68.7427 25.5236 68.7427 25.4434C68.7427 25.3632 68.8231 25.2029 68.8231 25.1227C68.8231 25.0425 68.9036 24.9623 68.9841 24.8019C69.0646 24.7217 69.145 24.6415 69.2255 24.5614C69.8692 24 70.9154 23.9198 71.4786 24.5614C71.8005 24.8821 71.9615 25.2831 71.9615 25.684C71.9615 25.7642 71.9615 25.9246 71.9615 26.0048C71.9615 26.0849 71.881 26.2453 71.881 26.3255C71.881 26.4057 71.8005 26.4859 71.72 26.5661C71.6396 26.6463 71.5591 26.7265 71.4786 26.8066C71.1568 27.2076 70.7544 27.368 70.3521 27.368Z" fill="#2C7B86"/>
<circle cx="58" cy="58" r="56.5" stroke="#2C7B86" stroke-width="3"/>
</svg>
