<svg width="116" height="116" viewBox="0 0 116 116" fill="none" xmlns="http://www.w3.org/2000/svg">
<g clip-path="url(#clip0)">
<path d="M15 21.1933H53.36V81.0361" stroke="#2C7B86" stroke-width="4" stroke-miterlimit="10"/>
<path d="M102 21.1933H63.6399V81.0361" stroke="#2C7B86" stroke-width="4" stroke-miterlimit="10"/>
<path d="M101.586 83.4227C98.4123 83.4227 96.7565 82.3488 95.3766 81.3942C94.0658 80.5589 93.0309 79.8429 90.8231 79.8429C88.6153 79.8429 87.5805 80.4992 86.2696 81.3942C84.8207 82.3488 83.2339 83.4227 80.0602 83.4227C76.8866 83.4227 75.2997 82.3488 73.8509 81.3942C72.54 80.5589 71.5051 79.8429 69.2973 79.8429C67.0896 79.8429 66.0547 80.4992 64.7438 81.3942C63.295 82.3488 61.7081 83.4227 58.5345 83.4227C55.3608 83.4227 53.7739 82.3488 52.3251 81.3942C51.0142 80.5589 49.9793 79.8429 47.7716 79.8429C45.5638 79.8429 44.5289 80.4992 43.218 81.3942C41.7692 82.3488 40.1824 83.4227 37.0087 83.4227C33.835 83.4227 32.2482 82.3488 30.7993 81.3942C29.4885 80.5589 28.4536 79.8429 26.2458 79.8429C24.038 79.8429 23.0031 80.4992 21.6923 81.3942C20.2434 82.3488 18.6566 83.4227 15.4829 83.4227V81.0362C17.6907 81.0362 18.7256 80.3799 20.0364 79.4849C21.4853 78.5303 23.0721 77.4563 26.2458 77.4563C29.4195 77.4563 31.0063 78.5303 32.4552 79.4849C33.766 80.3202 34.8009 81.0362 37.0087 81.0362C39.2165 81.0362 40.2513 80.3799 41.5622 79.4849C43.0111 78.5303 44.5979 77.4563 47.7716 77.4563C50.9452 77.4563 52.5321 78.5303 53.9809 79.4849C55.2918 80.3202 56.3267 81.0362 58.5345 81.0362C60.7422 81.0362 61.7771 80.3799 63.088 79.4849C64.5368 78.5303 66.1237 77.4563 69.2973 77.4563C72.471 77.4563 74.0578 78.5303 75.5067 79.4849C76.8176 80.3202 77.8525 81.0362 80.0602 81.0362C82.268 81.0362 83.3029 80.3799 84.6138 79.4849C86.0626 78.5303 87.6494 77.4563 90.8231 77.4563C93.9968 77.4563 95.6526 78.5303 97.0325 79.4849C98.3433 80.3202 99.3782 81.0362 101.586 81.0362V83.4227Z" fill="#2C7B86"/>
<path d="M101.586 90.9999C98.4123 90.9999 96.7565 89.926 95.3766 88.9714C94.0658 88.1361 93.0309 87.4201 90.8231 87.4201C88.6153 87.4201 87.5805 88.0764 86.2696 88.9714C84.8207 89.926 83.2339 90.9999 80.0602 90.9999C76.8866 90.9999 75.2997 89.926 73.8509 88.9714C72.54 88.1361 71.5051 87.4201 69.2973 87.4201C67.0896 87.4201 66.0547 88.0764 64.7438 88.9714C63.295 89.926 61.7081 90.9999 58.5345 90.9999C55.3608 90.9999 53.7739 89.926 52.3251 88.9714C51.0142 88.1361 49.9793 87.4201 47.7716 87.4201C45.5638 87.4201 44.5289 88.0764 43.218 88.9714C41.7692 89.926 40.1824 90.9999 37.0087 90.9999C33.835 90.9999 32.2482 89.926 30.7993 88.9714C29.4885 88.1361 28.4536 87.4201 26.2458 87.4201C24.038 87.4201 23.0031 88.0764 21.6923 88.9714C20.2434 89.926 18.6566 90.9999 15.4829 90.9999V88.6134C17.6907 88.6134 18.7256 87.9571 20.0364 87.0621C21.4853 86.1075 23.0721 85.0336 26.2458 85.0336C29.4195 85.0336 31.0063 86.1075 32.4552 87.0621C33.766 87.8974 34.8009 88.6134 37.0087 88.6134C39.2165 88.6134 40.2513 87.9571 41.5622 87.0621C43.0111 86.1075 44.5979 85.0336 47.7716 85.0336C50.9452 85.0336 52.5321 86.1075 53.9809 87.0621C55.2918 87.8974 56.3267 88.6134 58.5345 88.6134C60.7422 88.6134 61.7771 87.9571 63.088 87.0621C64.5368 86.1075 66.1237 85.0336 69.2973 85.0336C72.471 85.0336 74.0578 86.1075 75.5067 87.0621C76.8176 87.8974 77.8525 88.6134 80.0602 88.6134C82.268 88.6134 83.3029 87.9571 84.6138 87.0621C86.0626 86.1075 87.6494 85.0336 90.8231 85.0336C93.9968 85.0336 95.6526 86.1075 97.0325 87.0621C98.3433 87.8974 99.3782 88.6134 101.586 88.6134V90.9999Z" fill="#2C7B86"/>
</g>
<circle cx="58" cy="58" r="56.5" stroke="#2C7B86" stroke-width="3"/>
<defs>
<clipPath id="clip0">
<rect width="87" height="71" fill="white" transform="translate(15 20)"/>
</clipPath>
</defs>
</svg>
