<svg width="1057" height="709" viewBox="0 0 1057 709" fill="none" xmlns="http://www.w3.org/2000/svg">
<path d="M215.5 13H735.5M815.5 13H880.882C970.97 13 1044 86.0303 1044 176.118V176.118C1044 265.13 972.64 337.707 883.641 339.212L807.5 340.5M735.5 335.5L242 336.5M157 335.5V335.5C77.0336 336.053 12.5 401.035 12.5 481.003V549.992C12.5 630.043 76.9534 695.169 157 696V696M250 696H750.5" stroke="#6DC9D6" stroke-width="3"/>
<path d="M493.5 323L493.5 348.5L470 335.5L493.5 323Z" fill="#6DC9D6"/>
<path d="M470 25.5V0L493.5 13L470 25.5Z" fill="#6DC9D6"/>
<path d="M1031 176L1056.5 176L1043.5 199.5L1031 176Z" fill="#6DC9D6"/>
<path d="M0 504L25.5 504L12.5 527.5L0 504Z" fill="#6DC9D6"/>
<path d="M470 708.5V683L493.5 696L470 708.5Z" fill="#6DC9D6"/>
</svg>
