<svg width="116" height="116" viewBox="0 0 116 116" fill="none" xmlns="http://www.w3.org/2000/svg">
<g clip-path="url(#clip0)">
<path d="M61.7963 105.631H47.2289C43.9978 105.631 41.3691 103.22 41.3691 100.208V58.3573C41.3691 55.3993 48.1599 24.9976 51.391 24.9976H57.908C61.1391 24.9976 67.7109 55.3993 67.7109 58.3573V100.262C67.6561 103.166 65.0274 105.631 61.7963 105.631Z" stroke="#2C7B86" stroke-width="3" stroke-miterlimit="10"/>
<path d="M58.2914 24.9428H50.7339C48.9266 24.9428 47.448 23.4638 47.448 21.6561C47.448 19.8484 48.9266 18.3694 50.7339 18.3694H58.2914C60.0986 18.3694 61.5772 19.8484 61.5772 21.6561C61.5772 23.4638 60.0986 24.9428 58.2914 24.9428Z" stroke="#2C7B86" stroke-width="3" stroke-miterlimit="10"/>
<path d="M41.3691 60.9318H67.6561" stroke="#2C7B86" stroke-width="3" stroke-miterlimit="10"/>
<path d="M41.3691 84.1029H67.6561" stroke="#2C7B86" stroke-width="3" stroke-miterlimit="10"/>
<path d="M51.7745 33.9811C51.7745 33.9811 47.2838 51.8387 46.8457 54.3585" stroke="#2C7B86" stroke-width="3" stroke-miterlimit="10" stroke-linecap="round"/>
<path d="M81.2377 45.5392C76.4184 45.5392 72.4753 41.5952 72.4753 36.7748C72.4753 32.3377 79.54 22.0395 80.3614 20.8892C80.5805 20.6153 80.9091 20.3962 81.2377 20.3962C81.621 20.3962 81.9496 20.5605 82.1139 20.8892C82.9354 22.0395 90 32.283 90 36.7748C90 41.65 86.0569 45.5392 81.2377 45.5392ZM81.2377 23.5185C78.828 27.1886 74.6659 33.9811 74.6659 36.8295C74.6659 40.4449 77.6232 43.4029 81.2377 43.4029C84.8521 43.4029 87.8094 40.4449 87.8094 36.8295C87.8094 33.9811 83.6473 27.1339 81.2377 23.5185Z" fill="#2C7B86"/>
<path d="M76.8564 40.2806C76.1992 39.2398 75.8706 38.0347 75.8706 36.8296C75.8706 36.0079 76.1444 35.0219 76.6921 33.7072L78.7184 34.5837C78.1707 35.8983 78.0612 36.5557 78.0612 36.8296C78.0612 37.6512 78.2802 38.4181 78.7184 39.1302L76.8564 40.2806Z" fill="#2C7B86"/>
</g>
<circle cx="58" cy="58" r="56.5" stroke="#2C7B86" stroke-width="3"/>
<defs>
<clipPath id="clip0">
<rect width="50" height="90" fill="white" transform="translate(40 17)"/>
</clipPath>
</defs>
</svg>
