<svg width="116" height="116" viewBox="0 0 116 116" fill="none" xmlns="http://www.w3.org/2000/svg">
<path d="M60.0676 88.7218C48.7863 88.7218 39.6335 79.5158 39.6335 68.1689C39.6335 57.2502 58.1519 30.4887 58.9324 29.3469C59.2162 28.99 59.6419 28.7046 60.0676 28.7046C60.5643 28.7046 60.99 28.9187 61.2028 29.3469C61.2028 29.3469 63.5442 32.701 66.4532 37.3396L64.0409 38.8383C62.409 36.1978 60.99 34.0569 59.9967 32.6296C55.8815 38.7669 42.4007 59.5339 42.4007 68.0975C42.4716 77.9458 50.3472 85.8672 60.0676 85.8672C69.788 85.8672 77.6636 77.9458 77.6636 68.1689C77.6636 66.5275 77.096 64.2439 76.0317 61.3893L78.6569 60.3902C79.8631 63.6016 80.4307 66.1707 80.4307 68.1689C80.5017 79.5158 71.3489 88.7218 60.0676 88.7218Z" fill="#2C7B86"/>
<path d="M47.3671 75.3053C45.8771 72.9503 45.0967 70.1671 45.0967 67.3839C45.0967 65.5998 45.7352 63.1734 47.0124 60.1047L49.6376 61.2466C48.2186 64.6007 47.9347 66.4561 47.9347 67.3839C47.9347 69.6675 48.5733 71.8798 49.7795 73.8066L47.3671 75.3053Z" fill="#2C7B86"/>
<path d="M81.4951 58.5348H72.6262C71.8457 58.5348 71.2072 57.8925 71.2072 57.1075V51.5411H65.6729C64.8925 51.5411 64.2539 50.8988 64.2539 50.1138V41.1933C64.2539 40.4083 64.8925 39.766 65.6729 39.766H71.2072V34.1996C71.2072 33.4146 71.8457 32.7723 72.6262 32.7723H81.4951C82.2756 32.7723 82.9142 33.4146 82.9142 34.1996V39.766H88.4484C89.2289 39.766 89.8674 40.4083 89.8674 41.1933V50.1138C89.8674 50.8988 89.2289 51.5411 88.4484 51.5411H82.9142V57.1075C82.9142 57.8925 82.2756 58.5348 81.4951 58.5348ZM74.0452 55.6802H80.0761V50.1138C80.0761 49.3288 80.7147 48.6865 81.4951 48.6865H87.0294V42.6206H81.4951C80.7147 42.6206 80.0761 41.9783 80.0761 41.1933V35.6269H74.0452V41.1933C74.0452 41.9783 73.4067 42.6206 72.6262 42.6206H67.092V48.6865H72.6262C73.4067 48.6865 74.0452 49.3288 74.0452 50.1138V55.6802Z" fill="#2C7B86"/>
<path d="M95.6143 97H89.2287C88.4482 97 87.8096 96.3577 87.8096 95.5727V92.0045H84.262C83.4816 92.0045 82.843 91.3622 82.843 90.5772V84.1545C82.843 83.3694 83.4816 82.7272 84.262 82.7272H87.8096V79.159C87.8096 78.374 88.4482 77.7317 89.2287 77.7317H95.6143C96.3948 77.7317 97.0333 78.374 97.0333 79.159V82.7272H100.581C101.361 82.7272 102 83.3694 102 84.1545V90.5772C102 91.3622 101.361 92.0045 100.581 92.0045H97.0333V95.5727C97.0333 96.3577 96.3948 97 95.6143 97ZM90.6477 94.1454H94.1953V90.5772C94.1953 89.7922 94.8338 89.1499 95.6143 89.1499H99.1619V85.5817H95.6143C94.8338 85.5817 94.1953 84.9395 94.1953 84.1545V80.5863H90.6477V84.1545C90.6477 84.9395 90.0091 85.5817 89.2287 85.5817H85.6811V89.1499H89.2287C90.0091 89.1499 90.6477 89.7922 90.6477 90.5772V94.1454Z" fill="#2C7B86"/>
<path d="M33.7447 37.3397H27.359C26.5786 37.3397 25.94 36.6974 25.94 35.9124V32.3442H22.3924C21.612 32.3442 20.9734 31.7019 20.9734 30.9169V24.4228C20.9734 23.6378 21.612 22.9955 22.3924 22.9955H25.94V19.4273C25.94 18.6423 26.5786 18 27.359 18H33.7447C34.5251 18 35.1637 18.6423 35.1637 19.4273V22.9955H38.7113C39.4918 22.9955 40.1303 23.6378 40.1303 24.4228V30.8455C40.1303 31.6305 39.4918 32.2728 38.7113 32.2728H35.1637V35.841C35.1637 36.6974 34.5251 37.3397 33.7447 37.3397ZM28.7781 34.4851H32.3256V30.9169C32.3256 30.1319 32.9642 29.4896 33.7447 29.4896H37.2923V25.9214H33.7447C32.9642 25.9214 32.3256 25.2791 32.3256 24.4941V20.8546H28.7781V24.4228C28.7781 25.2078 28.1395 25.85 27.359 25.85H23.8115V29.4182H27.359C28.1395 29.4182 28.7781 30.0605 28.7781 30.8455V34.4851Z" fill="#2C7B86"/>
<path d="M32.1127 93.2891H24.4499C23.6694 93.2891 23.0309 92.6468 23.0309 91.8618V87.2231H18.419C17.6386 87.2231 17 86.5809 17 85.7959V78.1599C17 77.3749 17.6386 76.7326 18.419 76.7326H23.0309V72.094C23.0309 71.309 23.6694 70.6667 24.4499 70.6667H32.1127C32.8932 70.6667 33.5317 71.309 33.5317 72.094V76.7326H38.1436C38.924 76.7326 39.5626 77.3749 39.5626 78.1599V85.8672C39.5626 86.6522 38.924 87.2945 38.1436 87.2945H33.5317V91.9332C33.5317 92.6468 32.8932 93.2891 32.1127 93.2891ZM25.8689 90.4345H30.6937V85.7959C30.6937 85.0109 31.3322 84.3686 32.1127 84.3686H36.7245V79.5158H32.1127C31.3322 79.5158 30.6937 78.8735 30.6937 78.0885V73.4499H25.8689V78.0885C25.8689 78.8735 25.2304 79.5158 24.4499 79.5158H19.8381V84.3686H24.4499C25.2304 84.3686 25.8689 85.0109 25.8689 85.7959V90.4345Z" fill="#2C7B86"/>
<circle cx="58" cy="58" r="56.5" stroke="#2C7B86" stroke-width="3"/>
</svg>
