<svg width="116" height="116" viewBox="0 0 116 116" fill="none" xmlns="http://www.w3.org/2000/svg">
<g clip-path="url(#clip0)">
<path d="M88.4736 38.9899H31.842V53.1566H88.4736V38.9899Z" stroke="#2C7B86" stroke-width="3" stroke-miterlimit="10"/>
<path d="M88.4736 19.3276H80.6841H69.8947H31.842V30.7464H88.4736V19.3276Z" stroke="#2C7B86" stroke-width="3" stroke-miterlimit="10"/>
<path d="M88.4736 61.4613H31.842V74.7731H88.4736V61.4613Z" stroke="#2C7B86" stroke-width="3" stroke-miterlimit="10"/>
<path d="M88.4736 83.0776H31.842V95.5345H88.4736V83.0776Z" stroke="#2C7B86" stroke-width="3" stroke-miterlimit="10"/>
<path d="M91.1578 61.4613C93.1051 61.4613 94.7367 59.6294 94.7367 57.309C94.7367 54.9886 93.1578 53.1567 91.1578 53.1567H88.4736H31.842H28.8946C26.9473 53.1567 25.3157 54.9886 25.3157 57.309C25.3157 59.6294 26.8946 61.4613 28.8946 61.4613H31.8946H88.5262H91.1578Z" stroke="#2C7B86" stroke-width="3" stroke-miterlimit="10"/>
<path d="M91.1578 38.9899C93.1051 38.9899 94.7367 37.158 94.7367 34.8376C94.7367 32.5172 93.1578 30.6853 91.1578 30.6853H88.4736H31.842H28.8946C26.9473 30.6853 25.3157 32.5172 25.3157 34.8376C25.3157 37.158 26.8946 38.9899 28.8946 38.9899H31.8946H88.5262H91.1578Z" stroke="#2C7B86" stroke-width="3" stroke-miterlimit="10"/>
<path d="M28.8946 74.8341C26.9473 74.8341 25.3157 76.666 25.3157 78.9864C25.3157 81.3068 26.8946 83.1387 28.8946 83.1387H31.8946H88.5262H91.2104C93.1578 83.1387 94.7894 81.3068 94.7894 78.9864C94.7894 76.666 93.2104 74.8341 91.2104 74.8341H88.5262H31.842H28.8946Z" stroke="#2C7B86" stroke-width="3" stroke-miterlimit="10"/>
<path d="M82.5262 17.1904V15.6638C82.5262 14.5036 81.6841 13.5266 80.6841 13.5266H69.8946C68.8946 13.5266 68.0525 14.5036 68.0525 15.6638V17.1904C68.0525 18.3506 68.8946 19.3276 69.8946 19.3276H80.6841C81.7367 19.3276 82.5262 18.3506 82.5262 17.1904Z" stroke="#2C7B86" stroke-width="3" stroke-miterlimit="10"/>
</g>
<circle cx="58" cy="58" r="56.5" stroke="#2C7B86" stroke-width="3"/>
<defs>
<clipPath id="clip0">
<rect width="72" height="85" fill="white" transform="translate(24 12)"/>
</clipPath>
</defs>
</svg>
