<svg width="1690" height="967" viewBox="0 0 1690 967" fill="none" xmlns="http://www.w3.org/2000/svg">
<path d="M985.858 0H1679V967H693L985.858 0Z" fill="url(#paint0_linear)"/>
<path d="M2 0H991.5L693.353 967H2V0Z" fill="#D5B19B" fill-opacity="0.21"/>
<line x1="1689" y1="81" y2="81" stroke="white" stroke-width="2"/>
<line x1="1580" x2="1580" y2="80" stroke="white" stroke-width="2"/>
<path d="M1630.51 22.94C1630.49 22.976 1630.12 23.06 1629.41 23.192C1628.72 23.324 1628.24 23.414 1627.97 23.462V22.004C1629.44 21.656 1630.44 21.128 1630.98 20.42H1632.44V35H1630.51V22.94Z" fill="white"/>
<path d="M1630.51 49.94C1630.49 49.976 1630.12 50.06 1629.41 50.192C1628.72 50.324 1628.24 50.414 1627.97 50.462V49.004C1629.44 48.656 1630.44 48.128 1630.98 47.42H1632.44V62H1630.51V49.94Z" fill="white"/>
<line x1="1640" y1="40.5" x2="1621" y2="40.5" stroke="white"/>
<defs>
<linearGradient id="paint0_linear" x1="1318.83" y1="0" x2="1318.83" y2="967" gradientUnits="userSpaceOnUse">
<stop stop-color="#D5B19B" stop-opacity="0.64"/>
<stop offset="1" stop-color="#D5B19B"/>
</linearGradient>
</defs>
</svg>
