<svg width="18" height="18" viewBox="0 0 18 18" fill="none" xmlns="http://www.w3.org/2000/svg">
<g opacity="0.7">
<path d="M17.4023 16.9453H16.5234V15.3633C16.5234 15.072 16.2873 14.8359 15.9961 14.8359H15.6445V13.2539C15.6445 12.9627 15.4084 12.7266 15.1172 12.7266H14.7656V5.80078C14.7656 2.60223 12.1634 0 8.96484 0C5.76629 0 3.16406 2.60223 3.16406 5.80078V12.7266H2.8125C2.52127 12.7266 2.28516 12.9627 2.28516 13.2539V14.8359H1.93359C1.64236 14.8359 1.40625 15.072 1.40625 15.3633V16.9453H0.527344C0.236109 16.9453 0 17.1814 0 17.4727C0 17.7639 0.236109 18 0.527344 18H17.4023C17.6936 18 17.9297 17.7639 17.9297 17.4727C17.9297 17.1814 17.6936 16.9453 17.4023 16.9453ZM4.21875 8.64183L5.27344 8.99339V9.66797C5.27344 9.9592 5.50955 10.1953 5.80078 10.1953C6.09202 10.1953 6.32812 9.9592 6.32812 9.66797V8.61328C6.32812 8.38631 6.18286 8.1848 5.96753 8.11301L4.21875 7.53005V5.80078C4.21875 3.18378 6.34785 1.05469 8.96484 1.05469C11.4635 1.05469 13.5173 2.99563 13.6979 5.44897L12.2846 6.01429C12.0142 6.12243 11.8827 6.42934 11.9909 6.69976C12.0734 6.90592 12.2714 7.03139 12.4807 7.03139C12.5459 7.03139 12.6121 7.01923 12.6764 6.99353L13.7109 6.57967V12.7266H4.21875V8.64183ZM3.33984 13.7812H14.5898V14.8359H3.33984V13.7812ZM2.46094 15.8906H15.4688V16.9453H2.46094V15.8906Z" fill="white"/>
<path d="M11.0742 4.21875H9.49219V2.63672C9.49219 2.34548 9.25608 2.10938 8.96484 2.10938C8.67361 2.10938 8.4375 2.34548 8.4375 2.63672V4.21875H6.85547C6.56423 4.21875 6.32812 4.45486 6.32812 4.74609C6.32812 5.03733 6.56423 5.27344 6.85547 5.27344H8.4375V8.96484C8.4375 9.25608 8.67361 9.49219 8.96484 9.49219C9.25608 9.49219 9.49219 9.25608 9.49219 8.96484V5.27344H11.0742C11.3655 5.27344 11.6016 5.03733 11.6016 4.74609C11.6016 4.45486 11.3655 4.21875 11.0742 4.21875Z" fill="white"/>
</g>
</svg>
