<svg width="15" height="20" viewBox="0 0 15 20" fill="none" xmlns="http://www.w3.org/2000/svg">
<path d="M0.395759 5.47158C0.395759 5.47158 0.207247 5.69012 0.0821284 6.09717C-0.04299 6.50423 0.0120621 6.91962 0.0120621 6.91962C0.0120621 6.91962 0.640991 7.24826 1.69199 7.29497C2.5578 7.33334 3.01824 7.1782 3.6772 6.69607C4.33615 6.21395 5.45555 6.98968 5.96102 7.22491C6.4665 7.46013 10.9658 9.19844 10.9658 9.19844L14.2389 9.40197C14.2389 9.40197 14.364 9.04163 14.2389 8.18081C14.1137 7.32 13.3313 6.63101 12.7208 6.38078C12.1102 6.13054 11.7181 6.09884 11.7181 6.09884L7.72269 3.74995C7.72269 3.74995 6.62165 3.67321 5.49892 3.92178C4.65479 4.11029 2.86977 5.7385 1.83545 5.7068C0.801142 5.67511 0.395759 5.47158 0.395759 5.47158Z" fill="#D43330"/>
<path d="M7.71379 2.72391L7.28004 0.40338C7.28004 0.40338 7.48691 0.084745 7.9023 0.0146787C8.31769 -0.0553876 8.62965 0.148138 8.62965 0.148138L9.02169 2.83401H9.33532L9.63227 0.406716C9.63227 0.406716 9.8041 0.20319 10.3296 0.284934C10.8151 0.361674 10.8951 0.580214 10.8951 0.580214L10.6282 3.07591L7.82556 4.25869L6.58939 4.11022L5.03125 1.8314C5.03125 1.8314 5.07796 1.4477 5.46166 1.22916C5.84535 1.01062 6.11895 1.04899 6.11895 1.04899L7.60702 3.21771L7.74048 3.08425L7.71379 2.72391Z" fill="#F44236"/>
<path d="M10.414 6.30885C10.414 6.30885 10.7544 6.12868 11.1581 6.09031C11.5618 6.05194 11.7136 6.09865 11.7136 6.09865C11.7136 6.09865 12.2975 5.3346 11.7136 3.97331C11.1297 2.61202 9.2396 2.25835 8.20695 2.59867C7.17431 2.939 5.8931 3.74976 5.75297 5.39298C5.61283 7.03621 5.56445 7.88201 5.56445 7.88201L6.56206 8.39916L10.4808 7.78525L10.414 6.30885Z" fill="#F44236"/>
<path d="M9.30418 3.78496C9.30418 3.78496 9.60947 3.92509 10.1333 3.73825C10.7589 3.5147 11.9183 3.18606 12.3637 2.97419C12.8092 2.76232 13.1862 2.36361 13.4448 2.29355C13.7033 2.22348 14.3439 2.25851 14.6492 2.89245C14.9545 3.52638 14.4073 4.07857 14.4073 4.07857L11.5413 4.78257L10.4836 5.93366L10.225 7.08475V8.07068L14.9896 11.7125C14.9896 11.7125 15.063 12.9319 14.4057 14.8104C13.7484 16.6888 13.1628 17.935 12.9059 18.4055C12.649 18.8759 12.6607 19.4631 11.985 19.7434C11.3094 20.0253 9.94645 19.298 8.3733 18.6157C6.80014 17.935 4.80325 16.6671 4.02919 15.6562C3.25512 14.6452 2.59616 13.5892 2.40932 12.0161C2.22248 10.4429 2.92648 8.82139 3.70054 8.39933C4.47628 7.97726 6.30801 8.07068 6.30801 8.07068C6.30801 8.07068 6.41478 7.85881 7.14714 7.62526C7.8795 7.39171 8.3733 7.31997 8.3733 7.31997L8.18478 6.07546L8.31658 4.65578L9.30418 3.78496Z" fill="#D43330"/>
<path d="M11.3773 8.75138C11.3773 8.75138 11.9879 8.16415 12.8804 8.25758C13.7729 8.351 14.6321 9.29022 14.8423 10.0893C15.0542 10.8884 15.0491 11.9527 14.8423 12.7201C14.6621 13.3924 13.8263 15.069 12.7153 15.069C12.1981 15.069 12.043 14.6553 12.0079 14.4634C11.9729 14.2699 12.2765 15.773 11.5175 16.0783C10.7951 16.3686 10.8919 15.8898 10.8919 15.8898L11.2122 15.1391C11.2122 15.1391 9.84255 12.6534 9.20862 11.8777C8.57469 11.1019 6.60949 9.5488 6.67956 8.82144C6.74963 8.09409 6.93814 7.7888 7.64214 7.647C8.34614 7.50687 9.19194 7.647 9.19194 7.647L10.5365 8.32931L11.3773 8.75138Z" fill="#FE5F5F"/>
<path d="M6.42305 10.1525C6.42305 10.1525 6.016 10.8732 5.46715 10.1525C4.91996 9.43185 4.46453 8.75955 4.51124 7.20975C4.55795 5.65995 4.63636 4.87754 4.43284 4.06344C4.22931 3.24934 4.16425 2.78223 4.16425 2.78223L3.61873 3.29771L3.09991 3.42116L2.75625 3.23432C2.75625 3.23432 2.4593 3.28103 2.56941 3.40615C2.67951 3.53127 3.08489 4.06511 3.25672 4.4071C3.4836 4.86086 3.71049 6.39565 3.2367 7.33487C2.66616 8.46761 2.47265 9.40182 2.61111 10.3577C2.71454 11.0701 3.48194 11.9859 3.48194 11.9859L4.05248 12.393L5.33702 12.2829L6.33964 11.2336L6.42305 10.1525Z" fill="#FF6A65"/>
<path d="M4.01227 1.92484C3.50345 1.84977 2.78444 2.21512 2.57424 2.70058C2.37739 3.151 2.47915 3.63146 3.0547 3.53804C3.63024 3.44462 3.92218 3.13766 4.02895 3.04424C4.13572 2.95081 4.431 4.05519 4.4994 4.71248C4.56946 5.36977 4.50941 6.88787 4.4994 7.42505C4.48605 8.16074 4.69625 10.0976 5.36688 10.4879C5.83399 10.7599 6.196 10.3962 6.50129 10.3562L6.37617 9.32685L5.88237 7.78873C5.88237 7.78873 5.83066 7.722 5.7022 7.39669C5.57375 7.07138 5.56541 4.90767 5.33018 3.80662C5.18004 3.10429 4.6829 2.02494 4.01227 1.92484Z" fill="#FF8F8C"/>
<path d="M13.9144 2.7272C13.8193 2.87567 13.8326 3.4312 13.8326 3.4312C13.8326 3.4312 12.3646 3.87328 11.6722 4.25698C10.9799 4.64068 10.2109 5.2229 9.98732 6.15044C9.76377 7.07798 10.0691 7.71692 10.0691 7.71692C10.0691 7.71692 9.61363 7.50672 9.23994 7.3766C8.91964 7.26483 8.60935 7.19977 8.60935 7.19977C8.60935 7.19977 8.58265 6.47241 8.52427 6.24887C8.46588 6.02532 8.32408 5.76674 8.32408 5.48481C8.32408 5.20288 8.49257 4.6974 8.71611 4.38877C8.9163 4.11184 9.37007 3.80655 9.37007 3.80655C9.37007 3.80655 9.34671 3.77319 9.16654 3.76652C8.79452 3.74983 8.28904 4.15855 8.05549 4.76913C7.82027 5.37971 7.92703 6.30225 7.93871 6.70597C7.94705 6.97622 7.96207 7.24481 7.96207 7.24481C7.96207 7.24481 7.49162 7.30486 7.1463 7.39995C6.7993 7.49338 6.21208 7.91711 6.21208 7.91711C6.21208 7.91711 6.02357 7.78365 5.89511 7.58513C5.76999 7.39161 5.62652 6.88614 5.62652 6.88614C5.62652 6.88614 5.7066 7.89542 5.89511 8.39923C6.08362 8.90471 6.38891 10.1192 6.23543 10.7481C6.02357 11.6173 5.40631 12.0911 4.67729 12.1027C3.94827 12.1144 3.41109 11.6373 3.0958 11.0701C2.86057 10.6447 2.5753 9.61539 2.5753 9.61539C2.5753 9.61539 2.46353 10.0258 2.48021 10.3844C2.4969 10.7431 2.66872 11.5989 3.38107 12.1695C4.01166 12.6749 4.49712 12.6616 4.87248 12.6382C5.5648 12.5949 6.41894 11.9059 6.61746 11.0367C6.81598 10.1676 6.60912 9.37349 6.55073 9.11491C6.49234 8.85633 6.36222 8.39923 6.36222 8.39923C6.36222 8.39923 6.94944 7.77698 7.64176 7.64852C8.33409 7.52007 9.52021 7.9071 10.0374 8.23575C10.5545 8.56439 11.8074 9.62539 11.7356 10.4128C11.6639 11.2002 11.1634 11.7391 10.9649 11.9943C10.703 12.3313 10.3577 12.5665 10.4361 12.7333C10.5478 12.9719 10.8948 12.71 11.1518 12.5098C11.4103 12.3096 11.7507 11.8759 11.9158 11.6056C12.081 11.3353 12.2211 10.8816 12.2211 10.8816C12.2211 10.8816 12.6432 11.2486 12.785 11.8792C12.9251 12.5098 12.7149 13.3439 12.9852 13.2972C13.2554 13.2505 13.3472 12.4864 13.2904 11.7824C13.2337 11.0918 12.8083 10.6297 12.5748 10.3895C12.3412 10.1492 12.2228 9.92735 12.2228 9.92735C12.2228 9.92735 11.794 8.83631 11.2669 8.39923C10.5862 7.83537 10.4294 6.56917 10.7547 5.99196C11.1784 5.23958 11.774 4.82418 12.458 4.67738C13.4206 4.47052 13.8943 4.50054 14.3348 4.45884C14.7201 4.42214 14.902 3.98506 14.8436 3.50293C14.7852 3.02081 14.5616 2.66714 14.3097 2.55704C14.1062 2.46695 13.9728 2.63711 13.9144 2.7272Z" fill="#A62714"/>
<path d="M4.4907 12.4865C4.4907 12.4865 4.84938 13.6026 4.84938 14.083C4.84938 14.5635 4.80767 15.0756 4.4907 15.3392C4.17541 15.6011 4.89609 15.6328 5.11463 15.2542C5.40323 14.752 5.31982 14.4 5.31982 14.4L5.65681 14.7787C5.65681 14.7787 6.00714 15.763 6.50261 16.3485C7.04312 16.9858 7.45851 17.1042 8.07576 17.1042C8.72304 17.1042 8.79144 16.819 8.52952 16.7989C8.25093 16.7789 7.69707 16.7689 7.30837 16.522C6.92134 16.2751 6.73283 15.9965 6.47758 15.5778C6.36247 15.3893 6.14894 14.8654 6.14894 14.8654C6.14894 14.8654 6.67944 15.1007 6.87629 14.8654C7.04479 14.6653 6.32077 14.5468 6.11724 14.435C5.77358 14.2465 5.58507 13.9412 5.42492 13.6376C5.27812 13.3574 4.99118 12.4849 4.99118 12.4849H4.4907V12.4865Z" fill="#A62714"/>
<path d="M11.5576 11.7341C11.5576 11.7341 11.5959 12.7667 11.5342 13.4491C11.4708 14.1297 11.339 14.7953 11.0638 15.2341C10.8786 15.531 10.5483 15.7979 10.4615 15.9781C10.3681 16.1683 10.5633 16.2901 10.7668 16.1733C10.9704 16.0565 11.3224 15.7112 11.4875 15.3675C11.5743 15.1874 11.7778 14.6869 11.7778 14.6869C11.7778 14.6869 11.9896 15.5093 12.1214 15.7446C12.2549 15.9798 12.4584 16.4652 12.6686 16.3702C12.8788 16.2751 12.6503 15.898 12.5902 15.7362C12.5151 15.536 12.34 15.0622 12.2466 14.6635C12.1531 14.2648 12.0964 12.9035 12.0964 12.5432C12.0964 12.1829 12.0497 11.3671 11.9796 11.0701C11.9096 10.7732 11.5576 11.7341 11.5576 11.7341Z" fill="#A62714"/>
<path d="M2.8547 3.07593C2.94812 3.27445 3.26676 3.21773 3.65546 2.93413C4.06418 2.63551 4.13591 2.34357 3.9424 2.20844C3.76056 2.07999 3.41356 2.1951 3.17667 2.37694C2.91142 2.58046 2.7446 2.83737 2.8547 3.07593Z" fill="#F44236"/>
</svg>
