<svg width="25" height="26" viewBox="0 0 25 26" fill="none" xmlns="http://www.w3.org/2000/svg">
<path d="M12.4966 8.83742C10.2014 8.83742 8.32828 10.7106 8.32828 13.0059C8.32828 15.3012 10.2014 17.1743 12.4966 17.1743C14.7919 17.1743 16.665 15.3012 16.665 13.0059C16.665 10.7106 14.7919 8.83742 12.4966 8.83742ZM24.9986 13.0059C24.9986 11.2797 25.0142 9.56916 24.9173 7.84612C24.8204 5.84477 24.3638 4.06857 22.9004 2.60508C21.4338 1.13847 19.6607 0.685035 17.6594 0.588094C15.9333 0.491154 14.2228 0.50679 12.4998 0.50679C10.7736 0.50679 9.06313 0.491154 7.34013 0.588094C5.33881 0.685035 3.56265 1.14159 2.09918 2.60508C0.632595 4.0717 0.179172 5.84477 0.0822335 7.84612C-0.0147052 9.57229 0.000930124 11.2828 0.000930124 13.0059C0.000930124 14.7289 -0.0147052 16.4426 0.0822335 18.1656C0.179172 20.1669 0.635722 21.9431 2.09918 23.4066C3.56577 24.8733 5.33881 25.3267 7.34013 25.4236C9.06626 25.5206 10.7768 25.5049 12.4998 25.5049C14.2259 25.5049 15.9364 25.5206 17.6594 25.4236C19.6607 25.3267 21.4369 24.8701 22.9004 23.4066C24.3669 21.94 24.8204 20.1669 24.9173 18.1656C25.0174 16.4426 24.9986 14.732 24.9986 13.0059ZM12.4966 19.4196C8.94743 19.4196 6.08305 16.5551 6.08305 13.0059C6.08305 9.45659 8.94743 6.59215 12.4966 6.59215C16.0458 6.59215 18.9102 9.45659 18.9102 13.0059C18.9102 16.5551 16.0458 19.4196 12.4966 19.4196ZM19.1729 7.82736C18.3442 7.82736 17.675 7.15816 17.675 6.32947C17.675 5.50079 18.3442 4.83159 19.1729 4.83159C20.0016 4.83159 20.6708 5.50079 20.6708 6.32947C20.671 6.52625 20.6324 6.72114 20.5572 6.90298C20.4821 7.08483 20.3717 7.25005 20.2326 7.38919C20.0935 7.52833 19.9282 7.63866 19.7464 7.71384C19.5646 7.78903 19.3697 7.82761 19.1729 7.82736Z" fill="white"/>
</svg>
