<svg width="30" height="19" viewBox="0 0 30 19" fill="none" xmlns="http://www.w3.org/2000/svg">
<path d="M29.9578 1.82135C30.1973 2.53055 29.4164 4.15948 27.6149 6.70815C27.365 7.06275 27.0266 7.5337 26.5997 8.121C26.1832 8.68614 25.8968 9.08506 25.7406 9.31777C25.5844 9.55047 25.4256 9.82473 25.2642 10.1405C25.1028 10.4564 25.0404 10.6891 25.0768 10.8387C25.1133 10.9883 25.1809 11.1794 25.2799 11.4121C25.3788 11.6448 25.548 11.8831 25.7875 12.1268C26.027 12.3706 26.3237 12.6643 26.6778 13.0078C26.7194 13.03 26.7455 13.0521 26.7559 13.0743C28.2241 14.5259 29.2185 15.7504 29.7392 16.7477C29.7704 16.8031 29.8043 16.8724 29.8407 16.9555C29.8771 17.0386 29.9136 17.1854 29.95 17.3959C29.9865 17.6065 29.9839 17.7949 29.9422 17.9611C29.9006 18.1273 29.7704 18.2797 29.5517 18.4182C29.3331 18.5567 29.0259 18.626 28.6302 18.626L24.6317 18.6924C24.3817 18.7478 24.0902 18.7201 23.757 18.6093C23.4238 18.4985 23.153 18.3766 22.9448 18.2437L22.6324 18.0442C22.32 17.8115 21.9555 17.4569 21.539 16.9804C21.1225 16.5039 20.7659 16.0745 20.4691 15.6922C20.1723 15.3099 19.8547 14.9886 19.5163 14.7282C19.1779 14.4677 18.8837 14.3819 18.6338 14.4705C18.6026 14.4816 18.561 14.501 18.5089 14.5287C18.4568 14.5564 18.3683 14.6367 18.2434 14.7697C18.1184 14.9027 18.0065 15.0661 17.9075 15.26C17.8086 15.454 17.7201 15.7421 17.642 16.1244C17.5639 16.5067 17.5301 16.9361 17.5405 17.4126C17.5405 17.5788 17.5223 17.7311 17.4858 17.8697C17.4494 18.0082 17.4103 18.1107 17.3687 18.1772L17.3062 18.2603C17.1188 18.4708 16.8428 18.5927 16.4784 18.626H14.6822C13.9428 18.6703 13.1827 18.5789 12.4017 18.3517C11.6208 18.1245 10.9361 17.8309 10.3478 17.4707C9.75947 17.1106 9.2232 16.7449 8.73901 16.3737C8.25481 16.0025 7.88775 15.6839 7.63784 15.418L7.24736 15.019C7.14323 14.9082 7.00006 14.742 6.81783 14.5204C6.6356 14.2988 6.26334 13.7946 5.70105 13.0078C5.13875 12.221 4.58687 11.3844 4.0454 10.4979C3.50393 9.61142 2.86614 8.44236 2.13204 6.99072C1.39793 5.53909 0.718488 4.03205 0.0937159 2.4696C0.0312386 2.2923 0 2.14271 0 2.02081C0 1.89892 0.0156193 1.81027 0.0468579 1.75487L0.109335 1.65514C0.265528 1.44459 0.562295 1.33932 0.999636 1.33932L5.27933 1.30608C5.40428 1.32824 5.52403 1.36425 5.63857 1.41412C5.75311 1.46399 5.83642 1.51108 5.88848 1.55541L5.96658 1.60527C6.13318 1.72716 6.25814 1.90446 6.34144 2.13717C6.5497 2.69123 6.7892 3.26468 7.05993 3.85752C7.33066 4.45036 7.54413 4.90192 7.70032 5.21219L7.95023 5.69422C8.2522 6.35909 8.54376 6.93532 8.82491 7.42289C9.10606 7.91046 9.35857 8.28999 9.58245 8.56148C9.80633 8.83297 10.0224 9.04628 10.2306 9.20142C10.4389 9.35655 10.6159 9.43412 10.7617 9.43412C10.9075 9.43412 11.0481 9.40642 11.1834 9.35101C11.2043 9.33993 11.2303 9.31223 11.2615 9.2679C11.2928 9.22358 11.3552 9.10169 11.449 8.90222C11.5427 8.70276 11.613 8.44236 11.6598 8.121C11.7067 7.79965 11.7561 7.35086 11.8082 6.77464C11.8603 6.19842 11.8603 5.50584 11.8082 4.69692C11.7874 4.25367 11.7405 3.84921 11.6676 3.48353C11.5947 3.11785 11.5218 2.86298 11.449 2.71893L11.3552 2.51947C11.0949 2.14271 10.6524 1.90446 10.0276 1.80473C9.89223 1.78257 9.91826 1.64959 10.1057 1.40581C10.2723 1.19527 10.4701 1.02905 10.6992 0.907156C11.2511 0.619046 12.4955 0.486072 14.4322 0.508234C15.2861 0.519315 15.989 0.591343 16.5409 0.724317C16.7491 0.779723 16.9235 0.854521 17.0641 0.948711C17.2047 1.0429 17.3114 1.17587 17.3843 1.34763C17.4572 1.51939 17.5119 1.69669 17.5483 1.87953C17.5847 2.06237 17.603 2.31447 17.603 2.63582C17.603 2.95717 17.5978 3.26191 17.5873 3.55002C17.5769 3.83813 17.5639 4.22874 17.5483 4.72185C17.5327 5.21496 17.5249 5.67206 17.5249 6.09315C17.5249 6.21504 17.5197 6.44774 17.5093 6.79126C17.4988 7.13478 17.4962 7.40072 17.5014 7.5891C17.5066 7.77748 17.5249 8.00188 17.5561 8.26229C17.5873 8.52269 17.6472 8.73878 17.7357 8.91053C17.8242 9.08229 17.9414 9.21804 18.0872 9.31777C18.1705 9.33993 18.259 9.36209 18.3527 9.38426C18.4464 9.40642 18.5818 9.34547 18.7588 9.20142C18.9358 9.05736 19.1337 8.86621 19.3523 8.62796C19.571 8.38972 19.8417 8.0185 20.1645 7.51431C20.4873 7.01011 20.8414 6.4145 21.2266 5.72747C21.8514 4.57503 22.4085 3.32839 22.8979 1.98757C22.9396 1.87676 22.9916 1.7798 23.0541 1.69669C23.1166 1.61358 23.1739 1.55541 23.2259 1.52216L23.2884 1.4723L23.3665 1.43074L23.5695 1.38088L23.8819 1.37257L28.3803 1.33932C28.7864 1.28392 29.1196 1.29777 29.3799 1.38088C29.6403 1.46399 29.8016 1.55541 29.8641 1.65514L29.9578 1.82135Z" fill="white"/>
</svg>
