<svg width="32" height="22" viewBox="0 0 32 22" fill="none" xmlns="http://www.w3.org/2000/svg">
<path d="M31.3404 4.7464C31.3404 4.7464 31.0381 2.59019 30.1062 1.64404C28.9261 0.398792 27.6047 0.390972 27.0001 0.318642C22.6657 2.03908e-07 16.1553 0 16.1553 0H16.1437C16.1437 0 9.63519 2.03908e-07 5.29879 0.318642C4.69231 0.392927 3.37279 0.398792 2.19278 1.64404C1.26079 2.59019 0.964332 4.7464 0.964332 4.7464C0.964332 4.7464 0.65625 7.27599 0.65625 9.81144V12.1827C0.65625 14.7123 0.964332 17.2477 0.964332 17.2477C0.964332 17.2477 1.2666 19.4039 2.19278 20.3521C3.37279 21.5973 4.92289 21.5562 5.61462 21.6892C8.09671 21.9277 16.1572 22 16.1572 22C16.1572 22 22.6734 21.9883 27.0079 21.6755C27.6144 21.6032 28.9339 21.5953 30.1139 20.3501C31.0459 19.4039 31.3482 17.2458 31.3482 17.2458C31.3482 17.2458 31.6562 14.7162 31.6562 12.1807V9.80949C31.6504 7.2799 31.3424 4.74445 31.3424 4.74445L31.3404 4.7464ZM12.9446 15.0583V6.26728L21.319 10.6774L12.9446 15.0583Z" fill="white"/>
</svg>
