<?xml version="1.0" encoding="UTF-8" standalone="no"?>
<svg
   xmlns:dc="http://purl.org/dc/elements/1.1/"
   xmlns:cc="http://creativecommons.org/ns#"
   xmlns:rdf="http://www.w3.org/1999/02/22-rdf-syntax-ns#"
   xmlns:svg="http://www.w3.org/2000/svg"
   xmlns="http://www.w3.org/2000/svg"
   xmlns:sodipodi="http://sodipodi.sourceforge.net/DTD/sodipodi-0.dtd"
   xmlns:inkscape="http://www.inkscape.org/namespaces/inkscape"
   version="1.1"
   x="0px"
   y="0px"
   viewBox="0 0 50 47.5"
   enable-background="new 0 0 50 50"
   xml:space="preserve"
   id="svg5832"
   sodipodi:docname="1.svg"
   width="50"
   height="47.5"
   inkscape:version="0.92.4 (5da689c313, 2019-01-14)"><metadata
     id="metadata5838"><rdf:RDF><cc:Work
         rdf:about=""><dc:format>image/svg+xml</dc:format><dc:type
           rdf:resource="http://purl.org/dc/dcmitype/StillImage" /><dc:title></dc:title></cc:Work></rdf:RDF></metadata><defs
     id="defs5836" /><sodipodi:namedview
     pagecolor="#ffffff"
     bordercolor="#666666"
     borderopacity="1"
     objecttolerance="10"
     gridtolerance="10"
     guidetolerance="10"
     inkscape:pageopacity="0"
     inkscape:pageshadow="2"
     inkscape:window-width="1920"
     inkscape:window-height="1020"
     id="namedview5834"
     showgrid="false"
     inkscape:zoom="3.776"
     inkscape:cx="25"
     inkscape:cy="31.25"
     inkscape:window-x="-8"
     inkscape:window-y="-8"
     inkscape:window-maximized="1"
     inkscape:current-layer="svg5832" /><g
     id="g5830"
     transform="translate(0.26483051,-1.2288135)"
     style="fill:#ffffff;fill-opacity:1"><path
       d="m 28.426,8.83 c 1.387,-1.081 3.382,-1.19 4.93,-0.395 3.537,-2.576 7.221,-4.91 11.006,-7.102 L 44.79,2.07 c -5.035,2.916 -9.849,6.085 -14.407,9.708 0.035,0.195 0.087,0.411 0.157,0.64 4.615,-3.68 9.502,-6.839 14.604,-9.794 l 0.428,0.738 c -5.165,2.991 -10.048,6.188 -14.726,9.904 0.072,0.178 0.153,0.36 0.238,0.546 4.69,-3.737 9.609,-6.92 14.789,-9.925 l 0.428,0.737 c -5.209,3.022 -10.105,6.229 -14.831,9.971 0.094,0.177 0.191,0.355 0.292,0.534 4.718,-3.758 9.772,-7.02 15.003,-10.01 l 0.424,0.741 c -5.227,2.988 -10.274,6.247 -14.983,10.006 0.109,0.168 0.22,0.335 0.335,0.498 4.722,-3.756 9.725,-6.967 14.948,-9.972 l 0.424,0.738 c -5.194,2.989 -10.166,6.181 -14.861,9.918 0.125,0.157 0.254,0.308 0.385,0.459 4.649,-3.682 9.594,-6.863 14.731,-9.814 l 0.424,0.737 c -5.077,2.916 -9.966,6.061 -14.563,9.696 0.124,0.12 0.25,0.233 0.376,0.34 4.597,-3.591 9.455,-6.686 14.511,-9.581 l 0.424,0.741 c -4.95,2.834 -9.711,5.861 -14.22,9.365 0.213,0.132 0.423,0.237 0.625,0.311 4.367,-3.359 9.054,-6.38 13.831,-9.121 L 50,10.923 c -3.243,1.861 -6.418,3.843 -9.494,5.966 0.116,2.001 -0.228,3.565 -2.12,4.89 C 27.712,29.268 19.972,37.3 13.454,48.656 7.68,48.883 1.297,45.706 0,39.672 7.007,27.006 16.39,16.867 28.426,8.83"
       id="path5828"
       inkscape:connector-curvature="0"
       style="clip-rule:evenodd;fill-rule:evenodd;fill:#ffffff;fill-opacity:1" /></g></svg>