<?xml version="1.0" encoding="UTF-8" standalone="no"?>
<svg
   xmlns:dc="http://purl.org/dc/elements/1.1/"
   xmlns:cc="http://creativecommons.org/ns#"
   xmlns:rdf="http://www.w3.org/1999/02/22-rdf-syntax-ns#"
   xmlns:svg="http://www.w3.org/2000/svg"
   xmlns="http://www.w3.org/2000/svg"
   xmlns:sodipodi="http://sodipodi.sourceforge.net/DTD/sodipodi-0.dtd"
   xmlns:inkscape="http://www.inkscape.org/namespaces/inkscape"
   version="1.1"
   x="0px"
   y="0px"
   viewBox="0 0 59 87"
   enable-background="new 0 0 100 100"
   xml:space="preserve"
   id="svg6419"
   sodipodi:docname="2.svg"
   width="59"
   height="87"
   inkscape:version="0.92.4 (5da689c313, 2019-01-14)"><metadata
     id="metadata6425"><rdf:RDF><cc:Work
         rdf:about=""><dc:format>image/svg+xml</dc:format><dc:type
           rdf:resource="http://purl.org/dc/dcmitype/StillImage" /><dc:title></dc:title></cc:Work></rdf:RDF></metadata><defs
     id="defs6423" /><sodipodi:namedview
     pagecolor="#ffffff"
     bordercolor="#666666"
     borderopacity="1"
     objecttolerance="10"
     gridtolerance="10"
     guidetolerance="10"
     inkscape:pageopacity="0"
     inkscape:pageshadow="2"
     inkscape:window-width="1920"
     inkscape:window-height="1020"
     id="namedview6421"
     showgrid="false"
     inkscape:zoom="1.888"
     inkscape:cx="50"
     inkscape:cy="62.5"
     inkscape:window-x="-8"
     inkscape:window-y="-8"
     inkscape:window-maximized="1"
     inkscape:current-layer="svg6419" /><path
     d="m 598.322,623.412 c -13.824,0 -25.027,11.205 -25.027,25.027 0,13.822 11.203,25.027 25.027,25.027 13.822,0 25.025,-11.205 25.025,-25.027 0,-13.822 -11.202,-25.027 -25.025,-25.027 z m 0,44.488 c -10.748,0 -19.463,-8.711 -19.463,-19.461 0,-10.75 8.715,-19.461 19.463,-19.461 10.748,0 19.463,8.711 19.463,19.461 0,10.75 -8.715,19.461 -19.463,19.461 z m -2.552,-8.42 h 4.33 v -3.68 h -4.33 z m 2.546,-21.75 c -2.043,0 -3.699,0.5 -4.971,1.502 -1.271,1 -1.895,2.443 -1.863,4.328 l 0.029,0.09 h 4.184 c 0.01,-0.834 0.268,-1.467 0.771,-1.9 0.506,-0.432 1.123,-0.646 1.85,-0.646 0.883,0 1.562,0.254 2.039,0.764 0.475,0.516 0.715,1.221 0.715,2.123 0,0.812 -0.209,1.551 -0.627,2.207 -0.416,0.66 -0.975,1.273 -1.67,1.842 -1.189,0.914 -1.982,1.689 -2.381,2.326 -0.398,0.639 -0.602,1.646 -0.609,3.021 h 4.285 c 0,-0.816 0.094,-1.457 0.279,-1.924 0.188,-0.467 0.58,-0.928 1.18,-1.391 1.1,-0.717 2.014,-1.605 2.746,-2.668 0.73,-1.057 1.096,-2.213 1.096,-3.457 0,-1.916 -0.625,-3.432 -1.879,-4.545 -1.25,-1.115 -2.974,-1.672 -5.174,-1.672 z"
     id="path6405"
     inkscape:connector-curvature="0"
     style="fill:#000000" /><path
     d="m 44.660384,4.3432965 h -30 c -1.378,0 -2.5,1.122 -2.5,2.5 V 68.847297 c 0,1.379 1.122,2.5 2.5,2.5 h 19.779 v -5.354 c 0,-2.437 1.131,-5.846 3.228,-7.438 l 2.729,-2.601 h -7.428 c -3.855,0 -6.992,-3.137 -6.992,-6.992 v -1.015 c 0,-3.855 3.136,-6.992 6.991,-6.992 h 14.193 V 6.8432965 c 0,-1.378 -1.121,-2.5 -2.5,-2.5 z"
     id="path6407"
     inkscape:connector-curvature="0"
     style="fill:none" /><path
     d="m 44.660384,4.3432965 h -30 c -1.378,0 -2.5,1.122 -2.5,2.5 V 68.847297 c 0,1.379 1.122,2.5 2.5,2.5 h 19.779 v -5.354 c 0,-2.437 1.131,-5.846 3.228,-7.438 l 2.729,-2.601 h -7.428 c -3.855,0 -6.992,-3.137 -6.992,-6.992 v -1.015 c 0,-3.855 3.136,-6.992 6.991,-6.992 h 14.193 V 6.8432965 c 0,-1.378 -1.121,-2.5 -2.5,-2.5 z"
     id="path6409"
     inkscape:connector-curvature="0"
     style="fill:none" /><path
     d="m 44.660384,4.3432965 h -30 c -1.378,0 -2.5,1.122 -2.5,2.5 V 68.847297 c 0,1.379 1.122,2.5 2.5,2.5 h 19.779 v -5.354 c 0,-2.437 1.131,-5.846 3.228,-7.438 l 2.729,-2.601 h -7.428 c -3.855,0 -6.992,-3.137 -6.992,-6.992 v -1.015 c 0,-3.855 3.136,-6.992 6.991,-6.992 h 14.193 V 6.8432965 c 0,-1.378 -1.121,-2.5 -2.5,-2.5 z"
     id="path6411"
     inkscape:connector-curvature="0"
     style="fill:none" /><path
     d="m 20.978384,85.792293 v -5.894996 c 0,-0.294 -0.086,-0.581 -0.248,-0.825 l -3.119,-4.725 h 18.084 c 0.828,0 1.5,-0.672 1.5,-1.5 0,-0.018 -0.006,-0.035 -0.006,-0.053 0,-0.018 0.006,-0.035 0.006,-0.053 v -6.748 c 0,-1.9 0.971,-4.273 2.076,-5.078 l 5.666,-5.375 c 0.002,-0.004 0.004,-0.006 0.006,-0.01 0.138,-0.133 0.248,-0.289 0.328,-0.467 0.002,-0.007 0.006,-0.012 0.008,-0.018 0.07,-0.163 0.108,-0.342 0.117,-0.528 0,-0.015 0.004,-0.026 0.004,-0.039 0,-0.009 0.002,-0.017 0.002,-0.024 0,-0.176 -0.035,-0.342 -0.09,-0.498 -0.007,-0.016 -0.01,-0.031 -0.016,-0.047 -0.068,-0.176 -0.171,-0.334 -0.297,-0.472 -0.006,-0.006 -0.008,-0.013 -0.012,-0.019 -0.004,-0.004 -0.006,-0.004 -0.01,-0.006 -0.133,-0.139 -0.289,-0.25 -0.467,-0.328 -0.006,-0.002 -0.011,-0.006 -0.018,-0.01 -0.162,-0.069 -0.342,-0.107 -0.528,-0.115 -0.015,-0.002 -0.026,-0.004 -0.039,-0.004 -0.009,-0.002 -0.017,-0.004 -0.024,-0.004 h -11.179 c -2.2,0 -3.991,-1.791 -3.991,-3.992 v -1.012 c 0,-2.201 1.791,-3.99 3.991,-3.99 h 16.168 0.887 0.142 c 3.085,2.166 7.075,11.205 3.467,24.959 -10e-4,0.003 -10e-4,0.008 -0.002,0.01 0,0.002 -10e-4,0.004 -10e-4,0.004 -0.276,1.098 -0.839,1.459 -2.194,2.238 l 1.498,2.6 c 1.403,-0.809 2.992,-1.727 3.598,-4.078 0.002,-0.004 0.004,-0.008 0.006,-0.012 4.75,-16.274 -1.466,-27.364 -6.374,-29.132 v -0.386 -33.3170005 c 0,-3.033 -2.469,-5.5 -5.5,-5.5 h -30 c -3.033,0 -5.5000003,2.467 -5.5000003,5.5 V 18.415297 h -1.903 c -3.133,0 -5.6820003,2.549 -5.6820003,5.682 0,2.893 2.1740003,5.282 4.9730003,5.632 -2.799,0.351 -4.9730003,2.74 -4.9730003,5.633 0,3.132 2.5490003,5.681 5.6820003,5.681 -3.133,0 -5.6820003,2.549 -5.6820003,5.682 0,3.134 2.5490003,5.683 5.6820003,5.683 -3.133,0 -5.6820003,2.549 -5.6820003,5.682 0,3.133 2.5490003,5.682 5.6820003,5.682 h 1.903 v 5.075 c 0,2.893 2.2470003,5.268 5.0870003,5.479 l 3.974,6.021 v 5.444996 M 8.9163837,61.148297 h -1.903 c -1.687,0 -3.06,-1.373 -3.06,-3.06 0,-1.687 1.373,-3.06 3.06,-3.06 h 1.903 z m 0,-11.365 h -1.903 c -1.687,0 -3.06,-1.373 -3.06,-3.061 0,-1.688 1.373,-3.061 3.06,-3.061 h 1.903 z m 0,-11.366 h -1.903 c -1.687,0 -3.06,-1.373 -3.06,-3.059 0,-1.688 1.373,-3.06 3.06,-3.06 h 1.903 z m 0,-11.261 h -1.903 c -1.687,0 -3.06,-1.373 -3.06,-3.059 0,-1.686 1.373,-3.059 3.06,-3.059 h 1.903 z m 38.0000003,13.799 h -14.193 c -3.855,0 -6.991,3.136 -6.991,6.992 v 1.016 c 0,3.855 3.137,6.992 6.992,6.992 h 7.428 l -2.729,2.601 c -2.097,1.593 -3.228,5.002 -3.228,7.438 v 5.353 h -19.779 c -1.378,0 -2.5,-1.121 -2.5,-2.5 V 6.8432965 c 0,-1.378 1.122,-2.5 2.5,-2.5 h 30 c 1.379,0 2.5,1.122 2.5,2.5 z"
     id="path6413"
     inkscape:connector-curvature="0"
     style="fill:#ffffff;fill-opacity:1" /><path
     d="m 44.591384,10.947297 c 0,-2.096 -1.706,-3.802 -3.802,-3.802 h -22.744 c -2.096,0 -3.802,1.705 -3.802,3.802 v 53.345 c 0,2.097 1.706,3.804 3.802,3.804 h 12.709 l 10e-4,-2.074 h -12.71 c -0.954,0 -1.729,-0.776 -1.729,-1.729 v -53.346 c 0,-0.953 0.776,-1.728 1.729,-1.728 h 22.744 c 0.953,0 1.729,0.775 1.729,1.728 v 26.362 h 2.073 z"
     id="path6415"
     inkscape:connector-curvature="0"
     style="fill:#ffffff;fill-opacity:1" /><path
     d="m 29.404384,13.665297 c -4.695,0 -8.504,3.808 -8.504,8.504 0,4.694 3.809,8.502 8.504,8.502 4.695,0 8.504,-3.809 8.504,-8.502 0,-4.697 -3.809,-8.504 -8.504,-8.504 z m -0.742,12.141 -3.641,-3.639 1.512,-1.513 2.129,2.129 4.26,-4.26 1.512,1.512 z"
     id="path6417"
     inkscape:connector-curvature="0"
     style="fill:#ffffff;fill-opacity:1" /></svg>