<?xml version="1.0" encoding="UTF-8" standalone="no"?>
<svg
   xmlns:dc="http://purl.org/dc/elements/1.1/"
   xmlns:cc="http://creativecommons.org/ns#"
   xmlns:rdf="http://www.w3.org/1999/02/22-rdf-syntax-ns#"
   xmlns:svg="http://www.w3.org/2000/svg"
   xmlns="http://www.w3.org/2000/svg"
   xmlns:sodipodi="http://sodipodi.sourceforge.net/DTD/sodipodi-0.dtd"
   xmlns:inkscape="http://www.inkscape.org/namespaces/inkscape"
   version="1.1"
   x="0px"
   y="0px"
   viewBox="0 0 64 64"
   xml:space="preserve"
   id="svg5265"
   sodipodi:docname="3.svg"
   width="64"
   height="64"
   inkscape:version="0.92.4 (5da689c313, 2019-01-14)"><metadata
     id="metadata5271"><rdf:RDF><cc:Work
         rdf:about=""><dc:format>image/svg+xml</dc:format><dc:type
           rdf:resource="http://purl.org/dc/dcmitype/StillImage" /><dc:title></dc:title></cc:Work></rdf:RDF></metadata><defs
     id="defs5269" /><sodipodi:namedview
     pagecolor="#ffffff"
     bordercolor="#666666"
     borderopacity="1"
     objecttolerance="10"
     gridtolerance="10"
     guidetolerance="10"
     inkscape:pageopacity="0"
     inkscape:pageshadow="2"
     inkscape:window-width="1920"
     inkscape:window-height="1020"
     id="namedview5267"
     showgrid="false"
     inkscape:zoom="2.95"
     inkscape:cx="32"
     inkscape:cy="40"
     inkscape:window-x="-8"
     inkscape:window-y="-8"
     inkscape:window-maximized="1"
     inkscape:current-layer="svg5265" /><g
     id="g5263"
     style="fill:#ffffff;fill-opacity:1"
     transform="translate(0.33898305,-0.06779661)"><rect
       x="5"
       y="41"
       width="2"
       height="2"
       id="rect5215"
       style="fill:#ffffff;fill-opacity:1" /><rect
       x="9"
       y="41"
       width="2"
       height="2"
       id="rect5217"
       style="fill:#ffffff;fill-opacity:1" /><rect
       x="13"
       y="49"
       width="2"
       height="2"
       id="rect5219"
       style="fill:#ffffff;fill-opacity:1" /><rect
       x="9"
       y="49"
       width="2"
       height="2"
       id="rect5221"
       style="fill:#ffffff;fill-opacity:1" /><rect
       x="9"
       y="57"
       width="2"
       height="2"
       id="rect5223"
       style="fill:#ffffff;fill-opacity:1" /><rect
       x="13"
       y="57"
       width="2"
       height="2"
       id="rect5225"
       style="fill:#ffffff;fill-opacity:1" /><rect
       x="5"
       y="57"
       width="2"
       height="2"
       id="rect5227"
       style="fill:#ffffff;fill-opacity:1" /><rect
       x="27"
       y="41"
       width="2"
       height="2"
       id="rect5229"
       style="fill:#ffffff;fill-opacity:1" /><rect
       x="31"
       y="41"
       width="2"
       height="2"
       id="rect5231"
       style="fill:#ffffff;fill-opacity:1" /><rect
       x="35"
       y="49"
       width="2"
       height="2"
       id="rect5233"
       style="fill:#ffffff;fill-opacity:1" /><rect
       x="31"
       y="49"
       width="2"
       height="2"
       id="rect5235"
       style="fill:#ffffff;fill-opacity:1" /><rect
       x="31"
       y="57"
       width="2"
       height="2"
       id="rect5237"
       style="fill:#ffffff;fill-opacity:1" /><rect
       x="35"
       y="57"
       width="2"
       height="2"
       id="rect5239"
       style="fill:#ffffff;fill-opacity:1" /><rect
       x="27"
       y="57"
       width="2"
       height="2"
       id="rect5241"
       style="fill:#ffffff;fill-opacity:1" /><path
       d="M 60,37 H 55 V 31 H 33 v -4 h 16 c 4.411,0 8,-3.589 8,-8 0,-4.411 -3.589,-8 -8,-8 -0.449,0 -0.896,0.038 -1.337,0.113 C 46.334,5.276 41.072,1 35,1 30.795,1 26.917,3.001 24.471,6.394 23.672,6.132 22.845,6 22,6 18.738,6 15.789,8.026 14.582,11.011 10.364,11.229 7,14.729 7,19 c 0,4.411 3.589,8 8,8 h 16 v 4 H 9 v 6 H 4 c -1.654,0 -3,1.346 -3,3 v 20 c 0,1.654 1.346,3 3,3 h 12 c 1.654,0 3,-1.346 3,-3 V 40 c 0,-1.654 -1.346,-3 -3,-3 h -5 v -4 h 20 v 4 h -5 c -1.654,0 -3,1.346 -3,3 v 20 c 0,1.654 1.346,3 3,3 h 12 c 1.654,0 3,-1.346 3,-3 V 40 c 0,-1.654 -1.346,-3 -3,-3 h -5 v -4 h 20 v 4 h -5 c -1.654,0 -3,1.346 -3,3 v 20 c 0,1.654 1.346,3 3,3 h 12 c 1.654,0 3,-1.346 3,-3 V 40 c 0,-1.654 -1.346,-3 -3,-3 z M 9,19 c 0,-3.309 2.691,-6 6,-6 l 1.028,0.045 0.221,-0.748 C 16.997,9.768 19.361,8 22,8 c 0.844,0 1.666,0.177 2.445,0.525 l 0.791,0.354 0.463,-0.733 C 27.733,4.924 31.21,3 35,3 c 5.449,0 10.127,4.071 10.881,9.47 l 0.164,1.175 1.13,-0.361 C 47.768,13.096 48.381,13 49,13 c 3.309,0 6,2.691 6,6 0,3.309 -2.691,6 -6,6 H 15 C 11.691,25 9,22.309 9,19 Z M 3,47 h 14 v 6 H 3 Z M 16,61 H 4 C 3.448,61 3,60.552 3,60 v -5 h 14 v 5 c 0,0.552 -0.448,1 -1,1 z m 1,-21 v 5 H 3 v -5 c 0,-0.552 0.448,-1 1,-1 h 12 c 0.552,0 1,0.448 1,1 z m 8,7 h 14 v 6 H 25 Z M 38,61 H 26 c -0.552,0 -1,-0.448 -1,-1 v -5 h 14 v 5 c 0,0.552 -0.448,1 -1,1 z m 1,-21 v 5 H 25 v -5 c 0,-0.552 0.448,-1 1,-1 h 12 c 0.552,0 1,0.448 1,1 z m 9,-1 h 12 c 0.552,0 1,0.448 1,1 v 5 H 47 v -5 c 0,-0.552 0.448,-1 1,-1 z m 13,8 v 6 H 47 V 47 Z M 60,61 H 48 c -0.552,0 -1,-0.448 -1,-1 v -5 h 14 v 5 c 0,0.552 -0.448,1 -1,1 z"
       id="path5243"
       style="fill:#ffffff;fill-opacity:1"
       inkscape:connector-curvature="0" /><rect
       x="49"
       y="41"
       width="2"
       height="2"
       id="rect5245"
       style="fill:#ffffff;fill-opacity:1" /><rect
       x="53"
       y="41"
       width="2"
       height="2"
       id="rect5247"
       style="fill:#ffffff;fill-opacity:1" /><rect
       x="57"
       y="49"
       width="2"
       height="2"
       id="rect5249"
       style="fill:#ffffff;fill-opacity:1" /><rect
       x="53"
       y="49"
       width="2"
       height="2"
       id="rect5251"
       style="fill:#ffffff;fill-opacity:1" /><rect
       x="53"
       y="57"
       width="2"
       height="2"
       id="rect5253"
       style="fill:#ffffff;fill-opacity:1" /><rect
       x="57"
       y="57"
       width="2"
       height="2"
       id="rect5255"
       style="fill:#ffffff;fill-opacity:1" /><rect
       x="49"
       y="57"
       width="2"
       height="2"
       id="rect5257"
       style="fill:#ffffff;fill-opacity:1" /><path
       d="M 28.636,7.636 30.05,9.05 c 2.73,-2.729 7.17,-2.729 9.9,0 l 1.414,-1.414 c -3.51,-3.509 -9.218,-3.509 -12.728,0 z"
       id="path5259"
       style="fill:#ffffff;fill-opacity:1"
       inkscape:connector-curvature="0" /><path
       d="m 53,19 c 0,-2.206 -1.794,-4 -4,-4 v 2 c 1.103,0 2,0.897 2,2 0,1.103 -0.897,2 -2,2 v 2 c 2.206,0 4,-1.794 4,-4 z"
       id="path5261"
       style="fill:#ffffff;fill-opacity:1"
       inkscape:connector-curvature="0" /></g></svg>