<svg width="127" height="127" viewBox="0 0 127 127" fill="none" xmlns="http://www.w3.org/2000/svg">
<g filter="url(#filter0_d)">
<path d="M4.13962 62.7335C1.5473 94.5405 35.5242 117.236 66.8265 118.878C103.59 120.805 125.978 99.8417 122.679 62.7335C115.138 32.6132 95.8133 8.03509 63.0559 1.04718C20.1648 -6.4227 9.08858 27.3121 4.13962 62.7335Z" fill="white"/>
<path d="M19.7726 16.1018C11.1061 27.917 7.11066 45.0882 4.63679 62.7886C3.3634 78.4791 11.0994 91.9518 23.0886 101.73C35.0858 111.515 51.3029 117.563 66.8527 118.378C85.139 119.337 99.7733 114.6 109.425 105.088C119.066 95.5866 123.814 81.2441 122.185 62.8169C114.671 32.8526 95.4671 8.47632 62.9608 1.53815C52.3084 -0.315776 43.6701 0.394566 36.6262 3.02165C29.5834 5.64833 24.0984 10.2045 19.7726 16.1018Z" stroke="#303030"/>
</g>
<path d="M56.2775 53.6533L63.8439 46.0868L71.4104 53.6533" stroke="#303030" stroke-width="2"/>
<path d="M42.687 79.0869H40.5513V75.2461H36.8511V79.0869H34.7153V69.5771H36.8511V73.541H40.5513V69.5771H42.687V79.0869ZM50.6499 79.0869C50.5562 78.9053 50.4741 78.6094 50.4038 78.1992C49.7241 78.9082 48.8921 79.2627 47.9077 79.2627C46.9526 79.2627 46.1733 78.9902 45.5698 78.4453C44.9663 77.9004 44.6645 77.2266 44.6645 76.4238C44.6645 75.4102 45.0395 74.6338 45.7895 74.0947C46.5454 73.5498 47.6235 73.2773 49.0239 73.2773H50.3335V72.6533C50.3335 72.1611 50.1958 71.7686 49.9204 71.4756C49.645 71.1768 49.2261 71.0273 48.6636 71.0273C48.1772 71.0273 47.7788 71.1504 47.4683 71.3965C47.1577 71.6367 47.0024 71.9443 47.0024 72.3193H44.8667C44.8667 71.7979 45.0395 71.3115 45.3853 70.8604C45.731 70.4033 46.1997 70.0459 46.7915 69.7881C47.3892 69.5303 48.0542 69.4014 48.7866 69.4014C49.8999 69.4014 50.7876 69.6826 51.4497 70.2451C52.1118 70.8018 52.4517 71.5869 52.4692 72.6006V76.8896C52.4692 77.7451 52.5894 78.4277 52.8296 78.9375V79.0869H50.6499ZM48.3032 77.5488C48.7251 77.5488 49.1206 77.4463 49.4897 77.2412C49.8647 77.0361 50.146 76.7607 50.3335 76.415V74.6221H49.1821C48.3911 74.6221 47.7964 74.7598 47.3979 75.0352C46.9995 75.3105 46.8003 75.7002 46.8003 76.2041C46.8003 76.6143 46.9351 76.9424 47.2046 77.1885C47.48 77.4287 47.8462 77.5488 48.3032 77.5488ZM54.8687 79.0869V69.5771H58.727C60.0278 69.5771 61.0181 69.8057 61.6978 70.2627C62.3774 70.7139 62.7173 71.3643 62.7173 72.2139C62.7173 72.6533 62.5796 73.0488 62.3042 73.4004C62.0347 73.7461 61.6333 74.0127 61.1001 74.2002C61.7212 74.3291 62.2134 74.5898 62.5767 74.9824C62.9399 75.375 63.1216 75.8379 63.1216 76.3711C63.1216 77.2559 62.7935 77.9297 62.1372 78.3926C61.4868 78.8555 60.5493 79.0869 59.3247 79.0869H54.8687ZM57.0044 75.0352V77.3994H59.3423C60.438 77.3994 60.9858 77.0068 60.9858 76.2217C60.9858 75.4307 60.4292 75.0352 59.3159 75.0352H57.0044ZM57.0044 73.5059H58.7622C59.9751 73.5059 60.5815 73.1484 60.5815 72.4336C60.5815 71.6836 60.0073 71.2969 58.8589 71.2734H57.0044V73.5059ZM69.1597 79.2627C67.8062 79.2627 66.7075 78.8379 65.8638 77.9883C65.0259 77.1328 64.6069 75.9961 64.6069 74.5781V74.3145C64.6069 73.3652 64.7886 72.5186 65.1519 71.7744C65.521 71.0244 66.0366 70.4414 66.6987 70.0254C67.3608 69.6094 68.0991 69.4014 68.9136 69.4014C70.2085 69.4014 71.2075 69.8145 71.9106 70.6406C72.6196 71.4668 72.9741 72.6357 72.9741 74.1475V75.0088H66.7603C66.8247 75.7939 67.0854 76.415 67.5425 76.8721C68.0054 77.3291 68.5854 77.5576 69.2827 77.5576C70.2612 77.5576 71.0581 77.1621 71.6733 76.3711L72.8247 77.4697C72.4438 78.0381 71.9341 78.4805 71.2954 78.7969C70.6626 79.1074 69.9507 79.2627 69.1597 79.2627ZM68.9048 71.1152C68.3188 71.1152 67.8442 71.3203 67.481 71.7305C67.1235 72.1406 66.895 72.7119 66.7954 73.4443H70.8647V73.2861C70.8179 72.5713 70.6274 72.0322 70.2935 71.6689C69.9595 71.2998 69.4966 71.1152 68.9048 71.1152ZM82.9673 74.4287C82.9673 75.8994 82.6333 77.0742 81.9653 77.9531C81.2974 78.8262 80.4009 79.2627 79.2759 79.2627C78.2329 79.2627 77.3979 78.9199 76.771 78.2344V82.7432H74.6353V69.5771H76.604L76.6919 70.5439C77.3188 69.7822 78.1714 69.4014 79.2495 69.4014C80.4097 69.4014 81.3179 69.835 81.9741 70.7021C82.6362 71.5635 82.9673 72.7617 82.9673 74.2969V74.4287ZM80.8403 74.2441C80.8403 73.2949 80.6499 72.542 80.269 71.9854C79.894 71.4287 79.355 71.1504 78.6519 71.1504C77.7788 71.1504 77.1519 71.5107 76.771 72.2314V76.4502C77.1577 77.1885 77.7905 77.5576 78.6694 77.5576C79.3491 77.5576 79.8794 77.2852 80.2603 76.7402C80.647 76.1895 80.8403 75.3574 80.8403 74.2441ZM88.0562 72.7061L89.8667 69.5771H92.2397L89.3306 74.2617L92.3364 79.0869H89.981L88.0825 75.835L86.1929 79.0869H83.8198L86.8257 74.2617L83.9253 69.5771H86.2808L88.0562 72.7061Z" fill="#303030"/>
<defs>
<filter id="filter0_d" x="0" y="0" width="127" height="127" filterUnits="userSpaceOnUse" color-interpolation-filters="sRGB">
<feFlood flood-opacity="0" result="BackgroundImageFix"/>
<feColorMatrix in="SourceAlpha" type="matrix" values="0 0 0 0 0 0 0 0 0 0 0 0 0 0 0 0 0 0 127 0"/>
<feOffset dy="4"/>
<feGaussianBlur stdDeviation="2"/>
<feColorMatrix type="matrix" values="0 0 0 0 0 0 0 0 0 0 0 0 0 0 0 0 0 0 0.05 0"/>
<feBlend mode="normal" in2="BackgroundImageFix" result="effect1_dropShadow"/>
<feBlend mode="normal" in="SourceGraphic" in2="effect1_dropShadow" result="shape"/>
</filter>
</defs>
</svg>
