<?xml version="1.0" encoding="iso-8859-1"?>
<!-- Generator: Adobe Illustrator 19.0.0, SVG Export Plug-In . SVG Version: 6.00 Build 0)  -->
<svg version="1.1" id="Capa_1" xmlns="http://www.w3.org/2000/svg" xmlns:xlink="http://www.w3.org/1999/xlink" x="0px" y="0px"
	 viewBox="0 0 512 512" style="enable-background:new 0 0 512 512;" xml:space="preserve">
<path style="fill:#3B4145;" d="M300.222,256L509.867,46.354c2.843-2.843,2.843-7.453,0-10.296l-16.963-16.963L235.154,256
	l257.751,236.904l16.963-16.963c2.843-2.843,2.843-7.453,0-10.296L300.222,256z"/>
<path style="fill:#525A61;" d="M492.905,19.096L475.941,2.133c-2.843-2.843-7.453-2.843-10.296,0L256,211.778L46.354,2.133
	c-2.843-2.843-7.453-2.843-10.296,0L2.133,36.059c-2.843,2.843-2.843,7.453,0,10.296L211.778,256L2.133,465.645
	c-2.843,2.843-2.843,7.453,0,10.296l33.926,33.926c2.843,2.843,7.453,2.843,10.296,0L256,300.222l209.646,209.645
	c2.843,2.843,7.453,2.843,10.296,0l16.964-16.964L256,256L492.905,19.096z"/>
<g>
</g>
<g>
</g>
<g>
</g>
<g>
</g>
<g>
</g>
<g>
</g>
<g>
</g>
<g>
</g>
<g>
</g>
<g>
</g>
<g>
</g>
<g>
</g>
<g>
</g>
<g>
</g>
<g>
</g>
</svg>
