<svg xmlns="http://www.w3.org/2000/svg" viewBox="0 0 512 512"><path d="M300.222 256L509.867 46.354a7.28 7.28 0 000-10.296l-16.963-16.963L235.154 256l257.751 236.904 16.963-16.963a7.28 7.28 0 000-10.296L300.222 256z" fill="#3b4145"/><path d="M492.905 19.096L475.941 2.133a7.28 7.28 0 00-10.296 0L256 211.778 46.354 2.133a7.28 7.28 0 00-10.296 0L2.133 36.059a7.28 7.28 0 000 10.296L211.778 256 2.133 465.645a7.28 7.28 0 000 10.296l33.926 33.926a7.28 7.28 0 0010.296 0L256 300.222l209.646 209.645a7.28 7.28 0 0010.296 0l16.964-16.964L256 256 492.905 19.096z" fill="#525a61"/></svg>