<svg width="10" height="11" viewBox="0 0 10 11" fill="none" xmlns="http://www.w3.org/2000/svg">
<path opacity="0.3" d="M6.67188 5.75L9.40625 8.48438C9.57031 8.64844 9.65234 8.84896 9.65234 9.08594C9.65234 9.32292 9.57031 9.53255 9.40625 9.71484L8.80469 10.3164C8.6224 10.4805 8.41276 10.5625 8.17578 10.5625C7.9388 10.5625 7.73828 10.4805 7.57422 10.3164L4.83984 7.58203L2.10547 10.3164C1.94141 10.4805 1.74089 10.5625 1.50391 10.5625C1.26693 10.5625 1.05729 10.4805 0.875 10.3164L0.273438 9.71484C0.109375 9.53255 0.0273438 9.32292 0.0273438 9.08594C0.0273438 8.84896 0.109375 8.64844 0.273438 8.48438L3.00781 5.75L0.273438 3.01562C0.109375 2.85156 0.0273438 2.65104 0.0273438 2.41406C0.0273438 2.17708 0.109375 1.96745 0.273438 1.78516L0.875 1.18359C1.05729 1.01953 1.26693 0.9375 1.50391 0.9375C1.74089 0.9375 1.94141 1.01953 2.10547 1.18359L4.83984 3.91797L7.57422 1.18359C7.73828 1.01953 7.9388 0.9375 8.17578 0.9375C8.41276 0.9375 8.6224 1.01953 8.80469 1.18359L9.40625 1.78516C9.57031 1.96745 9.65234 2.17708 9.65234 2.41406C9.65234 2.65104 9.57031 2.85156 9.40625 3.01562L6.67188 5.75Z" fill="black"/>
</svg>
