<svg width="15" height="16" viewBox="0 0 15 16" fill="none" xmlns="http://www.w3.org/2000/svg">
<g clip-path="url(#clip0)">
<path d="M1.06249 7.37503V7.50002H0.9375C0.69676 7.50002 0.5 7.30327 0.5 7.06252V6.43753C0.5 6.03277 0.728099 5.67967 1.06249 5.50036V7.37503Z" fill="#6CB7B2" stroke="#6CB7B2"/>
<path d="M13.9375 7.37503V5.50036C14.2719 5.67967 14.5 6.03277 14.5 6.43753V7.06252C14.5 7.30327 14.3032 7.50002 14.0625 7.50002H13.9375V7.37503Z" fill="#6CB7B2" stroke="#6CB7B2"/>
<path d="M5.00002 14.4375H5.12504V14.5625C5.12504 14.8032 4.92828 15 4.68754 15H3.4375C3.19676 15 3 14.8032 3 14.5625V14.4375H3.12502H5.00002Z" fill="#6CB7B2" stroke="#6CB7B2"/>
<path d="M11.875 14.4375H12V14.5625C12 14.8032 11.8033 15 11.5625 15H10.3125C10.0718 15 9.875 14.8032 9.875 14.5625V14.4375H9.99999H11.875Z" fill="#6CB7B2" stroke="#6CB7B2"/>
<path d="M13 8.31251V7.81251H13V5.1875C13 4.4993 12.5146 3.92298 11.868 3.78264C12.1781 3.51883 12.375 3.12586 12.375 2.68751C12.375 1.89448 11.7305 1.25001 10.9375 1.25001H4.0625C3.26947 1.25001 2.625 1.89448 2.625 2.68751C2.625 3.12586 2.82191 3.51881 3.13197 3.78263C2.48535 3.92295 1.99998 4.49929 1.99998 5.1875V8.31251C1.99998 9.10554 2.64445 9.75001 3.43748 9.75001H11.5625C12.3555 9.75001 13 9.10554 13 8.31251ZM2.81249 1H12.1875C12.7731 1 13.25 1.47726 13.25 2.06249V12.6875C13.25 13.2727 12.7731 13.75 12.1875 13.75H2.81249C2.22691 13.75 1.75 13.2727 1.75 12.6875V2.06249C1.75 1.47726 2.22688 1 2.81249 1ZM2.625 11.4375C2.625 12.2305 3.26947 12.875 4.0625 12.875C4.85549 12.875 5.5 12.2305 5.5 11.4375C5.5 10.6445 4.85553 9.99999 4.0625 9.99999C3.26947 9.99999 2.625 10.6445 2.625 11.4375ZM9.49998 11.4375C9.49998 12.2305 10.1445 12.875 10.9375 12.875C11.7305 12.875 12.375 12.2305 12.375 11.4375C12.375 10.6445 11.7305 9.99999 10.9375 9.99999C10.1445 9.99999 9.49998 10.6445 9.49998 11.4375Z" fill="#6CB7B2" stroke="#6CB7B2"/>
</g>
<defs>
<clipPath id="clip0">
<rect width="15" height="15" fill="white" transform="translate(0 0.5)"/>
</clipPath>
</defs>
</svg>
