<svg width="15" height="16" viewBox="0 0 15 16" fill="none" xmlns="http://www.w3.org/2000/svg">
<g clip-path="url(#clip0)">
<path d="M10.3125 11.125C10.4851 11.125 10.625 10.9851 10.625 10.8125C10.625 10.6399 10.4851 10.5 10.3125 10.5C10.1399 10.5 10 10.6399 10 10.8125C10 10.9851 10.1399 11.125 10.3125 11.125Z" fill="#6CB7B2"/>
<path d="M11.9525 3.83375C11.8981 3.01563 11.2131 2.375 10.3931 2.375H4.60686C3.78687 2.375 3.10185 3.01563 3.04747 3.83375L2.5 12.0625C2.5 12.9831 5.13499 13.625 7.50001 13.625C9.86503 13.625 12.5 12.9831 12.4994 12.0419L11.9525 3.83375ZM4.25875 4.505C4.28937 4.01126 4.70063 3.62501 5.19438 3.62501H9.80561C10.3 3.62501 10.7106 4.01126 10.7412 4.505L10.9369 7.66874C10.9375 8.55749 8.30623 8.62499 7.49998 8.62499C6.69373 8.62499 4.06249 8.55749 4.06249 7.68749L4.25875 4.505ZM4.68748 11.75C4.1706 11.75 3.74998 11.3294 3.74998 10.8125C3.74998 10.2956 4.1706 9.875 4.68748 9.875C5.20437 9.875 5.62498 10.2956 5.62498 10.8125C5.62498 11.3294 5.20437 11.75 4.68748 11.75ZM8.43748 11.125H6.56248C6.38998 11.125 6.24997 10.985 6.24997 10.8125C6.24997 10.64 6.38998 10.5 6.56248 10.5H8.43748C8.60998 10.5 8.74999 10.64 8.74999 10.8125C8.74999 10.985 8.60998 11.125 8.43748 11.125ZM10.3125 11.75C9.7956 11.75 9.37498 11.3294 9.37498 10.8125C9.37498 10.2956 9.7956 9.875 10.3125 9.875C10.8294 9.875 11.25 10.2956 11.25 10.8125C11.25 11.3294 10.8294 11.75 10.3125 11.75Z" fill="#6CB7B2"/>
<path d="M4.68751 11.125C4.8601 11.125 5.00002 10.9851 5.00002 10.8125C5.00002 10.6399 4.8601 10.5 4.68751 10.5C4.51492 10.5 4.375 10.6399 4.375 10.8125C4.375 10.9851 4.51492 11.125 4.68751 11.125Z" fill="#6CB7B2"/>
<path d="M10.5444 1.2275C10.4769 1.15312 9.81755 0.5 7.50005 0.5C5.18255 0.5 4.52319 1.15312 4.45631 1.2275C4.34319 1.35251 4.35257 1.54124 4.47444 1.65875C4.5957 1.77626 4.79258 1.77251 4.91258 1.65438C4.9182 1.64876 5.47821 1.12502 7.50008 1.12502C9.51884 1.12502 10.0801 1.64753 10.0807 1.64753C10.1426 1.71564 10.2276 1.75004 10.3126 1.75004C10.3876 1.75004 10.4626 1.72317 10.5226 1.66941C10.6507 1.55313 10.6607 1.35562 10.5444 1.2275Z" fill="#6CB7B2"/>
<path d="M8.59827 0.856968C8.45015 0.767583 8.2589 0.815718 8.16952 0.963843L7.50015 2.08008L6.83016 0.963843C6.74142 0.816333 6.54953 0.767583 6.4014 0.856968C6.25389 0.945708 6.20579 1.1376 6.29453 1.28573L7.23202 2.84822C7.28889 2.94258 7.39014 3.00009 7.50015 3.00009C7.61016 3.00009 7.7114 2.94258 7.76765 2.84822L8.70515 1.28573C8.79389 1.1376 8.7464 0.945737 8.59827 0.856968Z" fill="#6CB7B2"/>
<path d="M4.26607 12.7629C4.13543 12.6504 3.93794 12.6654 3.82544 12.7967L1.95044 14.9842C1.83794 15.1155 1.85294 15.3123 1.98419 15.4248C2.04293 15.4755 2.11544 15.5005 2.18731 15.5005C2.27543 15.5005 2.36294 15.4636 2.42482 15.3911L4.29982 13.2036C4.41232 13.0723 4.39732 12.8754 4.26607 12.7629Z" fill="#6CB7B2"/>
<path d="M13.0498 14.9842L11.1748 12.7967C11.0623 12.6654 10.8654 12.6504 10.7342 12.7629C10.6029 12.8754 10.5879 13.0729 10.7004 13.2036L12.5754 15.3911C12.6367 15.4636 12.7242 15.5005 12.8123 15.5005C12.8842 15.5005 12.9567 15.4755 13.0161 15.4248C13.1473 15.3123 13.1623 15.1148 13.0498 14.9842Z" fill="#6CB7B2"/>
<path d="M12.1875 14.25H2.81251C2.64001 14.25 2.5 14.39 2.5 14.5625C2.5 14.735 2.64001 14.875 2.81251 14.875H12.1875C12.36 14.875 12.5 14.735 12.5 14.5625C12.5 14.39 12.36 14.25 12.1875 14.25Z" fill="#6CB7B2"/>
<path d="M10.9375 13H4.06251C3.89001 13 3.75 13.14 3.75 13.3125C3.75 13.485 3.89001 13.625 4.06251 13.625H10.9375C11.11 13.625 11.25 13.485 11.25 13.3125C11.25 13.14 11.11 13 10.9375 13Z" fill="#6CB7B2"/>
</g>
<defs>
<clipPath id="clip0">
<rect width="15" height="15" fill="white" transform="translate(0 0.5)"/>
</clipPath>
</defs>
</svg>
