<svg width="15" height="16" viewBox="0 0 15 16" fill="none" xmlns="http://www.w3.org/2000/svg">
<g clip-path="url(#clip0)">
<path d="M10.625 12.375C10.9702 12.375 11.25 12.0952 11.25 11.75C11.25 11.4048 10.9702 11.125 10.625 11.125C10.2798 11.125 10 11.4048 10 11.75C10 12.0952 10.2798 12.375 10.625 12.375Z" fill="#6CB7B2"/>
<path d="M4.37499 12.375C4.72016 12.375 4.99998 12.0952 4.99998 11.75C4.99998 11.4048 4.72016 11.125 4.37499 11.125C4.02982 11.125 3.75 11.4048 3.75 11.75C3.75 12.0952 4.02982 12.375 4.37499 12.375Z" fill="#6CB7B2"/>
<path d="M13.0477 12.5956L12.5696 4.47062C12.5208 3.64623 11.8358 3 11.0096 3H3.9921C3.16584 3 2.48085 3.64626 2.4321 4.47062L1.95398 12.5956C1.92834 13.03 2.07899 13.4431 2.37711 13.7594C2.67585 14.0756 3.07898 14.25 3.51398 14.25H11.4877C11.9227 14.25 12.3259 14.0756 12.6246 13.7594C12.9227 13.4431 13.0733 13.03 13.0477 12.5956ZM3.6471 5.1356C3.67458 4.63937 4.08585 4.24998 4.58334 4.24998H10.4183C10.9158 4.24998 11.3271 4.63937 11.3546 5.1356L11.5627 8.92061C11.5634 9.75311 9.01833 9.87498 7.50084 9.87498C5.98335 9.87498 3.43833 9.75311 3.43833 8.93748L3.6471 5.1356ZM8.75085 11.4375C8.75085 11.61 8.61084 11.75 8.43834 11.75H6.56334C6.39084 11.75 6.25083 11.61 6.25083 11.4375C6.25083 11.265 6.39084 11.125 6.56334 11.125H8.43834C8.61084 11.125 8.75085 11.265 8.75085 11.4375ZM4.37583 13C3.68645 13 3.12582 12.4394 3.12582 11.75C3.12582 11.0606 3.68645 10.5 4.37583 10.5C5.06522 10.5 5.62584 11.0606 5.62584 11.75C5.62584 12.4394 5.06522 13 4.37583 13ZM8.75085 13H6.25086C6.07836 13 5.93835 12.86 5.93835 12.6875C5.93835 12.515 6.07836 12.375 6.25086 12.375H8.75085C8.92335 12.375 9.06336 12.515 9.06336 12.6875C9.06334 12.86 8.92335 13 8.75085 13ZM10.6259 13C9.93647 13 9.37584 12.4394 9.37584 11.75C9.37584 11.0606 9.93647 10.5 10.6259 10.5C11.3152 10.5 11.8759 11.0606 11.8759 11.75C11.8758 12.4394 11.3152 13 10.6259 13Z" fill="#6CB7B2"/>
<path d="M11.1865 1.25C11.0928 1.12499 10.4734 0.5 7.49901 0.5C4.52465 0.5 3.90525 1.12499 3.8115 1.25C3.70776 1.38813 3.72839 1.59312 3.86649 1.69687C3.92523 1.74061 3.99338 1.76249 4.05962 1.76249C4.14962 1.76249 4.23713 1.72186 4.29713 1.64249C4.30214 1.63751 4.84401 1.12499 7.49901 1.12499C10.1221 1.12499 10.6828 1.625 10.6865 1.625C10.7896 1.76313 10.9859 1.79062 11.124 1.68749C11.2621 1.58375 11.2903 1.38813 11.1865 1.25Z" fill="#6CB7B2"/>
<path d="M8.56238 0.83788C8.40488 0.769765 8.21987 0.843505 8.15237 1.00226L7.50174 2.51914L6.85173 1.00288C6.78361 0.843505 6.59799 0.769765 6.44172 0.838495C6.28296 0.90661 6.20922 1.09036 6.27733 1.2485L7.21484 3.43601C7.26359 3.551 7.3767 3.62539 7.50171 3.62539C7.62672 3.62539 7.73984 3.551 7.7892 3.4354L8.72671 1.24789C8.79488 1.08975 8.72111 0.905995 8.56238 0.83788Z" fill="#6CB7B2"/>
<path d="M4.68752 13.625C4.51502 13.625 4.37501 13.765 4.37501 13.9375H3.75002C3.75002 13.765 3.61001 13.625 3.43751 13.625C3.26501 13.625 3.125 13.765 3.125 13.9375V14.5625C3.125 15.0794 3.54562 15.5 4.0625 15.5C4.57938 15.5 5 15.0794 5 14.5625V13.9375C5.00003 13.765 4.86002 13.625 4.68752 13.625Z" fill="#6CB7B2"/>
<path d="M11.5625 13.625C11.39 13.625 11.25 13.765 11.25 13.9375H10.625C10.625 13.765 10.485 13.625 10.3125 13.625C10.14 13.625 10 13.765 10 13.9375V14.5625C10 15.0794 10.4206 15.5 10.9375 15.5C11.4544 15.5 11.875 15.0794 11.875 14.5625V13.9375C11.875 13.765 11.735 13.625 11.5625 13.625Z" fill="#6CB7B2"/>
<path d="M12.5 4.875C12.3275 4.875 12.1875 5.01501 12.1875 5.18751C12.1875 5.36001 12.3275 5.50002 12.5 5.50002V7.37503C12.3275 7.37503 12.1875 7.51504 12.1875 7.68754C12.1875 7.86004 12.3275 8.00002 12.5 8.00002H12.8125C13.3294 8.00002 13.75 7.57941 13.75 7.06252V6.12502C13.75 5.43563 13.1894 4.875 12.5 4.875Z" fill="#6CB7B2"/>
<path d="M2.50001 7.37503V5.50002C2.67251 5.50002 2.81252 5.36001 2.81252 5.18751C2.81252 5.01501 2.67251 4.875 2.50001 4.875C1.81063 4.875 1.25 5.43563 1.25 6.12502V7.06252C1.25 7.57941 1.67062 8.00002 2.1875 8.00002H2.50001C2.67251 8.00002 2.81252 7.86001 2.81252 7.68751C2.81252 7.51501 2.67251 7.37503 2.50001 7.37503Z" fill="#6CB7B2"/>
</g>
<defs>
<clipPath id="clip0">
<rect width="15" height="15" fill="white" transform="translate(0 0.5)"/>
</clipPath>
</defs>
</svg>
