<svg width="26" height="26" viewBox="0 0 26 26" fill="none" xmlns="http://www.w3.org/2000/svg">
<path fill-rule="evenodd" clip-rule="evenodd" d="M25.3545 25.3481H0.644531V23.7401H11.5425L0.917531 11.2871H4.67153V0.6521H21.1445V11.2871H24.8995L14.2745 23.7401H25.3545V25.3481ZM21.4135 12.8951H19.5365V2.2601H6.27953V12.8951H4.40253L12.9085 22.8631L21.4135 12.8951ZM15.6125 8.0751C16.7315 8.0751 17.5745 8.8241 17.5745 10.1311C17.5745 11.4501 16.7315 12.1881 15.6125 12.1881C14.4955 12.1881 13.6515 11.4501 13.6515 10.1311C13.6515 8.8241 14.4955 8.0751 15.6125 8.0751ZM15.6135 11.0491C15.8455 11.0491 16.0775 10.8381 16.0775 10.1311C16.0775 9.4251 15.8455 9.2141 15.6135 9.2141C15.3815 9.2141 15.1495 9.4251 15.1495 10.1311C15.1495 10.8381 15.3815 11.0491 15.6135 11.0491ZM9.49553 12.0831L14.5375 4.7001H16.3195L11.2785 12.0831H9.49553ZM10.2025 8.7071C9.08453 8.7071 8.24053 7.9691 8.24053 6.6511C8.24053 5.3431 9.08453 4.5941 10.2025 4.5941C11.3205 4.5941 12.1645 5.3431 12.1645 6.6511C12.1645 7.9691 11.3205 8.7071 10.2025 8.7071ZM10.2025 5.7331C9.97053 5.7331 9.73853 5.9441 9.73853 6.6511C9.73853 7.3581 9.97053 7.5681 10.2025 7.5681C10.4345 7.5681 10.6665 7.3581 10.6665 6.6511C10.6665 5.9441 10.4345 5.7331 10.2025 5.7331Z" fill="#6BB7B2"/>
</svg>
