<svg width="25" height="25" viewBox="0 0 25 25" fill="none" xmlns="http://www.w3.org/2000/svg">
<path fill-rule="evenodd" clip-rule="evenodd" d="M18.1751 24.507C15.9841 24.507 14.0501 23.388 12.9131 21.693H1.19714C0.808141 21.693 0.494141 21.378 0.494141 20.989V2.65099C0.494141 2.26199 0.808141 1.94699 1.19714 1.94699H4.76214V1.19699C4.76214 0.808988 5.07614 0.493988 5.46514 0.493988C5.85414 0.493988 6.16914 0.808988 6.16914 1.19699V1.94699H8.98214V1.19699C8.98214 0.808988 9.29714 0.493988 9.68614 0.493988C10.0751 0.493988 10.3891 0.808988 10.3891 1.19699V1.94699H13.2031V1.19699C13.2031 0.808988 13.5181 0.493988 13.9071 0.493988C14.2961 0.493988 14.6111 0.808988 14.6111 1.19699V1.94699H17.4251V1.19699C17.4251 0.808988 17.7391 0.493988 18.1281 0.493988C18.5171 0.493988 18.8321 0.808988 18.8321 1.19699V1.94699H22.3961C22.7841 1.94699 23.0991 2.26199 23.0991 2.65099V14.2C23.9791 15.288 24.5061 16.671 24.5061 18.175C24.5061 21.666 21.6661 24.507 18.1751 24.507ZM21.6921 3.35499H18.8321V4.05799C18.8321 4.44599 18.5171 4.76099 18.1281 4.76099C17.7391 4.76099 17.4251 4.44599 17.4251 4.05799V3.35499H14.6111V4.05799C14.6111 4.44599 14.2961 4.76099 13.9071 4.76099C13.5181 4.76099 13.2031 4.44599 13.2031 4.05799V3.35499H10.3891V4.05799C10.3891 4.44599 10.0751 4.76099 9.68614 4.76099C9.29714 4.76099 8.98214 4.44599 8.98214 4.05799V3.35499H6.16914V4.05799C6.16914 4.44599 5.85414 4.76099 5.46514 4.76099C5.07614 4.76099 4.76214 4.44599 4.76214 4.05799V3.35499H1.90114V6.16899H21.6921V3.35499ZM21.6921 7.57499H1.90114V20.285H12.2061C12.0471 19.837 11.9371 19.366 11.8831 18.878H11.1401C10.7511 18.878 10.4361 18.564 10.4361 18.175C10.4361 17.786 10.7511 17.471 11.1401 17.471H11.8831C11.9371 16.984 12.0471 16.512 12.2061 16.064H11.1401C10.7511 16.064 10.4361 15.749 10.4361 15.361C10.4361 14.972 10.7511 14.657 11.1401 14.657H12.5471C12.6611 14.657 12.7681 14.685 12.8631 14.733C13.9931 12.995 15.9521 11.844 18.1751 11.844C19.4751 11.844 20.6861 12.238 21.6921 12.913V7.57499ZM18.1751 13.25C15.4591 13.25 13.2501 15.459 13.2501 18.175C13.2501 20.89 15.4591 23.099 18.1751 23.099C20.8901 23.099 23.0991 20.89 23.0991 18.175C23.0991 15.459 20.8901 13.25 18.1751 13.25ZM20.9891 18.878H18.1751C17.7861 18.878 17.4711 18.564 17.4711 18.175V15.361C17.4711 14.972 17.7861 14.657 18.1751 14.657C18.5631 14.657 18.8781 14.972 18.8781 15.361V17.471H20.9891C21.3771 17.471 21.6921 17.786 21.6921 18.175C21.6921 18.564 21.3771 18.878 20.9891 18.878ZM16.7681 10.436C16.3791 10.436 16.0641 10.121 16.0641 9.73299C16.0641 9.34399 16.3791 9.02899 16.7681 9.02899H18.1751C18.5631 9.02899 18.8781 9.34399 18.8781 9.73299C18.8781 10.121 18.5631 10.436 18.1751 10.436H16.7681ZM12.5471 13.25H11.1401C10.7511 13.25 10.4361 12.935 10.4361 12.547C10.4361 12.158 10.7511 11.844 11.1401 11.844H12.5471C12.9361 11.844 13.2501 12.158 13.2501 12.547C13.2501 12.935 12.9361 13.25 12.5471 13.25ZM12.5471 10.436H11.1401C10.7511 10.436 10.4361 10.121 10.4361 9.73299C10.4361 9.34399 10.7511 9.02899 11.1401 9.02899H12.5471C12.9361 9.02899 13.2501 9.34399 13.2501 9.73299C13.2501 10.121 12.9361 10.436 12.5471 10.436ZM6.87214 18.878H5.46514C5.07614 18.878 4.76214 18.564 4.76214 18.175C4.76214 17.786 5.07614 17.471 5.46514 17.471H6.87214C7.26114 17.471 7.57514 17.786 7.57514 18.175C7.57514 18.564 7.26114 18.878 6.87214 18.878ZM6.87214 16.064H5.46514C5.07614 16.064 4.76214 15.749 4.76214 15.361C4.76214 14.972 5.07614 14.657 5.46514 14.657H6.87214C7.26114 14.657 7.57514 14.972 7.57514 15.361C7.57514 15.749 7.26114 16.064 6.87214 16.064ZM6.87214 13.25H5.46514C5.07614 13.25 4.76214 12.935 4.76214 12.547C4.76214 12.158 5.07614 11.844 5.46514 11.844H6.87214C7.26114 11.844 7.57514 12.158 7.57514 12.547C7.57514 12.935 7.26114 13.25 6.87214 13.25ZM6.87214 10.436H5.46514C5.07614 10.436 4.76214 10.121 4.76214 9.73299C4.76214 9.34399 5.07614 9.02899 5.46514 9.02899H6.87214C7.26114 9.02899 7.57514 9.34399 7.57514 9.73299C7.57514 10.121 7.26114 10.436 6.87214 10.436Z" fill="#6CB4AF"/>
</svg>
