<svg width="27" height="25" viewBox="0 0 27 25" fill="none" xmlns="http://www.w3.org/2000/svg">
<g clip-path="url(#clip0)">
<path fill-rule="evenodd" clip-rule="evenodd" d="M26.675 18.91H25.319V23.883C25.319 24.133 25.116 24.335 24.867 24.335H0.452C0.203 24.335 0 24.133 0 23.883V18.458C0 18.208 0.203 18.006 0.452 18.006H1.809V14.841H1.357C0.607 14.841 0 14.234 0 13.484V4.44205C0 3.69305 0.607 3.08605 1.357 3.08605H2.713V1.72905C2.713 0.980047 3.32 0.373047 4.069 0.373047H19.441C20.19 0.373047 20.797 0.980047 20.797 1.72905V10.772C20.797 11.521 20.19 12.128 19.441 12.128H18.085V12.58H26.675C26.925 12.58 27.127 12.783 27.127 13.032V18.458C27.127 18.707 26.925 18.91 26.675 18.91ZM16.729 23.431H24.415V22.527H16.729V23.431ZM16.729 21.623H24.415V20.718H16.729V21.623ZM9.495 23.431H15.824V18.91H9.495V23.431ZM17.631 18.006V14.495C17.605 14.519 17.575 14.537 17.547 14.558C17.518 14.58 17.491 14.603 17.461 14.623C17.419 14.649 17.374 14.673 17.329 14.694C17.3 14.709 17.271 14.726 17.239 14.74C17.186 14.76 17.132 14.777 17.077 14.79C17.048 14.797 17.021 14.808 16.992 14.814C16.905 14.832 16.817 14.84 16.729 14.841H11.303V18.006H17.631ZM2.713 17.102V18.006H10.399V17.102H2.713ZM10.399 16.197V14.841H2.713V16.197H10.399ZM0.904 23.431H8.59V22.527H0.904V23.431ZM0.904 21.623H8.59V20.718H0.904V21.623ZM0.904 18.91V19.814H8.59V18.91H0.904ZM1.357 3.99005C1.107 3.99005 0.904 4.19205 0.904 4.44205V13.484C0.904 13.734 1.107 13.937 1.357 13.937H16.729C16.978 13.937 17.181 13.734 17.181 13.484V4.44205C17.181 4.19205 16.978 3.99005 16.729 3.99005H1.357ZM19.893 1.72905C19.893 1.48005 19.691 1.27705 19.441 1.27705H4.069C3.819 1.27705 3.617 1.48005 3.617 1.72905V3.08605H19.893V1.72905ZM19.893 3.99005H18.002C18.055 4.13505 18.083 4.28805 18.085 4.44205V5.79805H19.893V3.99005ZM19.441 11.224C19.691 11.224 19.893 11.021 19.893 10.772V6.70305H18.085V11.224H19.441ZM16.729 18.91V19.814H24.415V18.91H16.729ZM26.223 13.484H18.537V14.389H26.223V13.484ZM26.223 15.293H18.537V16.197H26.223V15.293ZM26.223 17.102H18.537V18.006H26.223V17.102ZM13.564 8.26505C13.289 8.42505 12.977 8.51005 12.659 8.51105C12.336 8.51305 12.019 8.42705 11.74 8.26405C10.877 7.76105 10.586 6.65305 11.09 5.79105C11.594 4.92805 12.701 4.63805 13.564 5.14105C14.127 4.81205 14.824 4.81205 15.387 5.14105C16.25 5.64505 16.541 6.75205 16.037 7.61505C15.534 8.47705 14.426 8.76805 13.564 8.26505ZM13.267 6.03505C13.101 5.88405 12.884 5.79905 12.659 5.79805C12.16 5.79805 11.755 6.20305 11.755 6.70305C11.755 7.20205 12.16 7.60705 12.659 7.60705C12.882 7.60705 13.096 7.52505 13.26 7.37505C13.286 7.35305 13.31 7.32905 13.333 7.30405C13.665 6.93505 13.635 6.36705 13.267 6.03505ZM14.468 5.79805C14.391 5.79805 14.314 5.80705 14.239 5.82705C14.257 5.85705 14.269 5.89005 14.284 5.92105C14.295 5.94205 14.306 5.96505 14.316 5.98805C14.359 6.08605 14.392 6.18905 14.416 6.29405C14.421 6.31505 14.424 6.33705 14.429 6.35805C14.477 6.58605 14.477 6.82105 14.429 7.04805C14.424 7.06905 14.421 7.09005 14.417 7.11005C14.392 7.21705 14.358 7.32105 14.315 7.42105C14.306 7.44105 14.296 7.46105 14.287 7.48105C14.273 7.51305 14.259 7.54705 14.242 7.57905C14.316 7.59705 14.392 7.60705 14.468 7.60705C14.967 7.60705 15.372 7.20205 15.372 6.70305C15.372 6.20305 14.967 5.79805 14.468 5.79805ZM4.521 12.128H9.947V13.032H4.521V12.128ZM1.809 10.32H9.947V11.224H1.809V10.32ZM6.782 8.51105H2.261C2.011 8.51105 1.809 8.30905 1.809 8.05905V5.34705C1.809 5.09705 2.011 4.89405 2.261 4.89405H6.782C7.032 4.89405 7.234 5.09705 7.234 5.34705V8.05905C7.234 8.30905 7.032 8.51105 6.782 8.51105ZM3.165 6.70305V5.79805H2.713V7.60705H4.521V7.15505H3.617C3.367 7.15505 3.165 6.95305 3.165 6.70305ZM6.33 5.79805H4.069V6.25105H6.33V5.79805ZM6.33 7.15505H5.426V7.60705H6.33V7.15505Z" fill="#6BB7B2"/>
</g>
<defs>
<clipPath id="clip0">
<rect width="27" height="25" fill="white"/>
</clipPath>
</defs>
</svg>
