<svg width="25" height="24" viewBox="0 0 25 24" fill="none" xmlns="http://www.w3.org/2000/svg">
<g clip-path="url(#clip0)">
<path fill-rule="evenodd" clip-rule="evenodd" d="M23.803 23.9999H18.177C17.788 23.9999 17.473 23.6849 17.473 23.2959V22.3119H24.507V23.2959C24.507 23.6849 24.192 23.9999 23.803 23.9999ZM17.473 19.2169H24.507V20.9049H17.473V19.2169ZM17.473 16.1229H24.507V17.8109H17.473V16.1229ZM17.473 13.0279H24.507V14.7159H17.473V13.0279ZM17.473 10.6369C17.473 10.2479 17.788 9.9339 18.177 9.9339H23.803C24.192 9.9339 24.507 10.2479 24.507 10.6369V11.6219H17.473V10.6369ZM20.943 4.2129C20.554 4.2129 20.24 3.8989 20.24 3.5099V2.3939L13.001 9.6339C12.726 9.9079 12.281 9.9079 12.006 9.6339L9.69 7.3179L4.561 12.4469C4.424 12.5849 4.244 12.6529 4.064 12.6529C3.884 12.6529 3.704 12.5849 3.566 12.4469C3.292 12.1719 3.292 11.7269 3.566 11.4519L9.193 5.8259C9.468 5.5509 9.913 5.5509 10.187 5.8259L12.503 8.1419L19.245 1.3999H18.13C17.741 1.3999 17.427 1.0859 17.427 0.696896C17.427 0.307896 17.741 -0.00610352 18.13 -0.00610352H20.943C20.966 -0.00610352 20.989 -0.00510352 21.012 -0.00310352C21.024 -0.00210352 21.035 -0.000103516 21.046 0.00189648C21.058 0.00389649 21.069 0.00489648 21.08 0.00689648C21.094 0.00989649 21.107 0.0128965 21.12 0.0168965C21.129 0.0188965 21.138 0.0208965 21.146 0.0228965C21.161 0.0278965 21.174 0.0328965 21.188 0.0378965C21.195 0.0408965 21.203 0.0428965 21.211 0.0458965C21.225 0.0518965 21.239 0.0588965 21.252 0.0658965C21.259 0.0688965 21.266 0.0718965 21.273 0.0758965C21.288 0.0838965 21.302 0.0918965 21.317 0.100896C21.322 0.103896 21.327 0.106896 21.332 0.110896C21.351 0.122896 21.369 0.135896 21.387 0.150896C21.424 0.180896 21.458 0.215896 21.489 0.252896C21.503 0.270896 21.517 0.288897 21.529 0.307896C21.533 0.312896 21.535 0.317897 21.539 0.322897C21.547 0.336897 21.556 0.351897 21.564 0.366897C21.568 0.373897 21.571 0.380896 21.574 0.386896C21.581 0.400896 21.588 0.414896 21.594 0.428896C21.597 0.435896 21.599 0.443897 21.602 0.451896C21.607 0.465896 21.612 0.478896 21.616 0.492896C21.619 0.501897 21.621 0.510896 21.623 0.519896C21.626 0.532896 21.63 0.545896 21.633 0.559896C21.635 0.570896 21.636 0.581896 21.638 0.593896C21.64 0.604896 21.642 0.615896 21.643 0.626896C21.645 0.649896 21.646 0.673896 21.646 0.696896V3.5099C21.646 3.8989 21.332 4.2129 20.943 4.2129ZM7.533 19.9209V20.9049H0.5V19.9209C0.5 19.5319 0.815 19.2169 1.203 19.2169H6.83C7.219 19.2169 7.533 19.5319 7.533 19.9209ZM7.533 23.2959C7.533 23.6849 7.219 23.9999 6.83 23.9999H1.203C0.815 23.9999 0.5 23.6849 0.5 23.2959V22.3119H7.533V23.2959ZM9.69 16.1229H15.317C15.705 16.1229 16.02 16.4369 16.02 16.8259V17.8109H8.987V16.8259C8.987 16.4369 9.301 16.1229 9.69 16.1229ZM16.02 20.9049H8.987V19.2169H16.02V20.9049ZM16.02 23.2959C16.02 23.6849 15.705 23.9999 15.317 23.9999H9.69C9.301 23.9999 8.987 23.6849 8.987 23.2959V22.3119H16.02V23.2959Z" fill="#6BB7B2"/>
</g>
<defs>
<clipPath id="clip0">
<rect width="25" height="24" fill="white"/>
</clipPath>
</defs>
</svg>
