<svg width="15" height="15" viewBox="0 0 15 15" fill="none" xmlns="http://www.w3.org/2000/svg">
<path d="M6.32812 3.51562H6.79688V3.98438C6.79688 4.04654 6.82157 4.10615 6.86552 4.1501C6.90948 4.19406 6.96909 4.21875 7.03125 4.21875H7.96875C8.03091 4.21875 8.09052 4.19406 8.13448 4.1501C8.17843 4.10615 8.20312 4.04654 8.20312 3.98438V3.51562H8.67188C8.73404 3.51562 8.79365 3.49093 8.8376 3.44698C8.88156 3.40302 8.90625 3.34341 8.90625 3.28125V2.34375C8.90625 2.28159 8.88156 2.22198 8.8376 2.17802C8.79365 2.13407 8.73404 2.10938 8.67188 2.10938H8.20312V1.64062C8.20312 1.57846 8.17843 1.51885 8.13448 1.4749C8.09052 1.43094 8.03091 1.40625 7.96875 1.40625H7.03125C6.96909 1.40625 6.90948 1.43094 6.86552 1.4749C6.82157 1.51885 6.79688 1.57846 6.79688 1.64062V2.10938H6.32812C6.26596 2.10938 6.20635 2.13407 6.1624 2.17802C6.11844 2.22198 6.09375 2.28159 6.09375 2.34375V3.28125C6.09375 3.34341 6.11844 3.40302 6.1624 3.44698C6.20635 3.49093 6.26596 3.51562 6.32812 3.51562ZM6.5625 2.57812H7.03125C7.09341 2.57812 7.15302 2.55343 7.19698 2.50948C7.24093 2.46552 7.26562 2.40591 7.26562 2.34375V1.875H7.73438V2.34375C7.73438 2.40591 7.75907 2.46552 7.80302 2.50948C7.84698 2.55343 7.90659 2.57812 7.96875 2.57812H8.4375V3.04688H7.96875C7.90659 3.04688 7.84698 3.07157 7.80302 3.11552C7.75907 3.15948 7.73438 3.21909 7.73438 3.28125V3.75H7.26562V3.28125C7.26562 3.21909 7.24093 3.15948 7.19698 3.11552C7.15302 3.07157 7.09341 3.04688 7.03125 3.04688H6.5625V2.57812Z" fill="#6CB7B2"/>
<path d="M14.2969 13.125H13.8281V6.5625H14.0625C14.1247 6.5625 14.1843 6.53781 14.2282 6.49385C14.2722 6.4499 14.2969 6.39029 14.2969 6.32812V5.39062C14.2969 5.32846 14.2722 5.26885 14.2282 5.2249C14.1843 5.18094 14.1247 5.15625 14.0625 5.15625H10.5469V4.6875H10.7812C10.8434 4.6875 10.903 4.66281 10.947 4.61885C10.9909 4.5749 11.0156 4.51529 11.0156 4.45312V3.51562C11.0156 3.45346 10.9909 3.39385 10.947 3.3499C10.903 3.30594 10.8434 3.28125 10.7812 3.28125H9.84375V0.703125C9.84375 0.640965 9.81906 0.581351 9.7751 0.537397C9.73115 0.493443 9.67154 0.46875 9.60938 0.46875H5.39062C5.32846 0.46875 5.26885 0.493443 5.2249 0.537397C5.18094 0.581351 5.15625 0.640965 5.15625 0.703125V3.28125H4.21875C4.15659 3.28125 4.09698 3.30594 4.05302 3.3499C4.00907 3.39385 3.98438 3.45346 3.98438 3.51562V4.45312C3.98438 4.51529 4.00907 4.5749 4.05302 4.61885C4.09698 4.66281 4.15659 4.6875 4.21875 4.6875H4.45312V5.15625H0.9375C0.87534 5.15625 0.815726 5.18094 0.771772 5.2249C0.727818 5.26885 0.703125 5.32846 0.703125 5.39062V6.32812C0.703125 6.39029 0.727818 6.4499 0.771772 6.49385C0.815726 6.53781 0.87534 6.5625 0.9375 6.5625H1.17188V13.125H0.703125C0.640965 13.125 0.581351 13.1497 0.537397 13.1936C0.493443 13.2376 0.46875 13.2972 0.46875 13.3594V14.2969C0.46875 14.359 0.493443 14.4186 0.537397 14.4626C0.581351 14.5066 0.640965 14.5312 0.703125 14.5312H14.2969C14.359 14.5312 14.4186 14.5066 14.4626 14.4626C14.5066 14.4186 14.5312 14.359 14.5312 14.2969V13.3594C14.5312 13.2972 14.5066 13.2376 14.4626 13.1936C14.4186 13.1497 14.359 13.125 14.2969 13.125ZM13.8281 5.625V6.09375H10.5469V5.625H13.8281ZM13.3594 6.5625V13.125H10.5469V6.5625H13.3594ZM9.84375 3.75H10.5469V4.21875H9.84375V3.75ZM5.625 0.9375H9.375V4.6875H5.625V0.9375ZM5.39062 5.15625H9.60938C9.67154 5.15625 9.73115 5.13156 9.7751 5.0876C9.81906 5.04365 9.84375 4.98404 9.84375 4.92188V4.6875H10.0781V13.125H8.90625V11.25H9.14062C9.20279 11.25 9.2624 11.2253 9.30635 11.1814C9.35031 11.1374 9.375 11.0778 9.375 11.0156C9.375 10.9535 9.35031 10.8939 9.30635 10.8499C9.2624 10.8059 9.20279 10.7812 9.14062 10.7812H5.85938C5.79721 10.7812 5.7376 10.8059 5.69365 10.8499C5.64969 10.8939 5.625 10.9535 5.625 11.0156C5.625 11.0778 5.64969 11.1374 5.69365 11.1814C5.7376 11.2253 5.79721 11.25 5.85938 11.25H6.09375V13.125H4.92188V4.6875H5.15625V4.92188C5.15625 4.98404 5.18094 5.04365 5.2249 5.0876C5.26885 5.13156 5.32846 5.15625 5.39062 5.15625ZM8.4375 11.25V13.125H7.73438V11.25H8.4375ZM7.26562 11.25V13.125H6.5625V11.25H7.26562ZM4.45312 3.75H5.15625V4.21875H4.45312V3.75ZM1.17188 5.625H4.45312V6.09375H1.17188V5.625ZM4.45312 6.5625V13.125H1.64062V6.5625H4.45312ZM14.0625 14.0625H0.9375V13.5938H14.0625V14.0625Z" fill="#6CB7B2"/>
<path d="M6.09375 10.3125H7.03125C7.09341 10.3125 7.15302 10.2878 7.19698 10.2439C7.24093 10.1999 7.26562 10.1403 7.26562 10.0781V9.14062C7.26562 9.07846 7.24093 9.01885 7.19698 8.9749C7.15302 8.93094 7.09341 8.90625 7.03125 8.90625H6.09375C6.03159 8.90625 5.97198 8.93094 5.92802 8.9749C5.88407 9.01885 5.85938 9.07846 5.85938 9.14062V10.0781C5.85938 10.1403 5.88407 10.1999 5.92802 10.2439C5.97198 10.2878 6.03159 10.3125 6.09375 10.3125ZM6.32812 9.375H6.79688V9.84375H6.32812V9.375Z" fill="#6CB7B2"/>
<path d="M7.96875 10.3125H8.90625C8.96841 10.3125 9.02802 10.2878 9.07198 10.2439C9.11593 10.1999 9.14062 10.1403 9.14062 10.0781V9.14062C9.14062 9.07846 9.11593 9.01885 9.07198 8.9749C9.02802 8.93094 8.96841 8.90625 8.90625 8.90625H7.96875C7.90659 8.90625 7.84698 8.93094 7.80302 8.9749C7.75907 9.01885 7.73438 9.07846 7.73438 9.14062V10.0781C7.73438 10.1403 7.75907 10.1999 7.80302 10.2439C7.84698 10.2878 7.90659 10.3125 7.96875 10.3125ZM8.20312 9.375H8.67188V9.84375H8.20312V9.375Z" fill="#6CB7B2"/>
<path d="M6.09375 8.67188H7.03125C7.09341 8.67188 7.15302 8.64718 7.19698 8.60323C7.24093 8.55927 7.26562 8.49966 7.26562 8.4375V7.5C7.26562 7.43784 7.24093 7.37823 7.19698 7.33427C7.15302 7.29032 7.09341 7.26562 7.03125 7.26562H6.09375C6.03159 7.26562 5.97198 7.29032 5.92802 7.33427C5.88407 7.37823 5.85938 7.43784 5.85938 7.5V8.4375C5.85938 8.49966 5.88407 8.55927 5.92802 8.60323C5.97198 8.64718 6.03159 8.67188 6.09375 8.67188ZM6.32812 7.73438H6.79688V8.20312H6.32812V7.73438Z" fill="#6CB7B2"/>
<path d="M7.96875 8.67188H8.90625C8.96841 8.67188 9.02802 8.64718 9.07198 8.60323C9.11593 8.55927 9.14062 8.49966 9.14062 8.4375V7.5C9.14062 7.43784 9.11593 7.37823 9.07198 7.33427C9.02802 7.29032 8.96841 7.26562 8.90625 7.26562H7.96875C7.90659 7.26562 7.84698 7.29032 7.80302 7.33427C7.75907 7.37823 7.73438 7.43784 7.73438 7.5V8.4375C7.73438 8.49966 7.75907 8.55927 7.80302 8.60323C7.84698 8.64718 7.90659 8.67188 7.96875 8.67188ZM8.20312 7.73438H8.67188V8.20312H8.20312V7.73438Z" fill="#6CB7B2"/>
<path d="M6.09375 7.03125H7.03125C7.09341 7.03125 7.15302 7.00656 7.19698 6.9626C7.24093 6.91865 7.26562 6.85904 7.26562 6.79688V5.85938C7.26562 5.79721 7.24093 5.7376 7.19698 5.69365C7.15302 5.64969 7.09341 5.625 7.03125 5.625H6.09375C6.03159 5.625 5.97198 5.64969 5.92802 5.69365C5.88407 5.7376 5.85938 5.79721 5.85938 5.85938V6.79688C5.85938 6.85904 5.88407 6.91865 5.92802 6.9626C5.97198 7.00656 6.03159 7.03125 6.09375 7.03125ZM6.32812 6.09375H6.79688V6.5625H6.32812V6.09375Z" fill="#6CB7B2"/>
<path d="M7.96875 7.03125H8.90625C8.96841 7.03125 9.02802 7.00656 9.07198 6.9626C9.11593 6.91865 9.14062 6.85904 9.14062 6.79688V5.85938C9.14062 5.79721 9.11593 5.7376 9.07198 5.69365C9.02802 5.64969 8.96841 5.625 8.90625 5.625H7.96875C7.90659 5.625 7.84698 5.64969 7.80302 5.69365C7.75907 5.7376 7.73438 5.79721 7.73438 5.85938V6.79688C7.73438 6.85904 7.75907 6.91865 7.80302 6.9626C7.84698 7.00656 7.90659 7.03125 7.96875 7.03125ZM8.20312 6.09375H8.67188V6.5625H8.20312V6.09375Z" fill="#6CB7B2"/>
<path d="M11.4844 10.0781H12.4219C12.484 10.0781 12.5436 10.0534 12.5876 10.0095C12.6316 9.96552 12.6562 9.90591 12.6562 9.84375V8.90625C12.6562 8.84409 12.6316 8.78448 12.5876 8.74052C12.5436 8.69657 12.484 8.67188 12.4219 8.67188H11.4844C11.4222 8.67188 11.3626 8.69657 11.3186 8.74052C11.2747 8.78448 11.25 8.84409 11.25 8.90625V9.84375C11.25 9.90591 11.2747 9.96552 11.3186 10.0095C11.3626 10.0534 11.4222 10.0781 11.4844 10.0781ZM11.7188 9.14062H12.1875V9.60938H11.7188V9.14062Z" fill="#6CB7B2"/>
<path d="M11.4844 11.7188H12.4219C12.484 11.7188 12.5436 11.6941 12.5876 11.6501C12.6316 11.6061 12.6562 11.5465 12.6562 11.4844V10.5469C12.6562 10.4847 12.6316 10.4251 12.5876 10.3811C12.5436 10.3372 12.484 10.3125 12.4219 10.3125H11.4844C11.4222 10.3125 11.3626 10.3372 11.3186 10.3811C11.2747 10.4251 11.25 10.4847 11.25 10.5469V11.4844C11.25 11.5465 11.2747 11.6061 11.3186 11.6501C11.3626 11.6941 11.4222 11.7188 11.4844 11.7188ZM11.7188 10.7812H12.1875V11.25H11.7188V10.7812Z" fill="#6CB7B2"/>
<path d="M11.4844 8.4375H12.4219C12.484 8.4375 12.5436 8.41281 12.5876 8.36885C12.6316 8.3249 12.6562 8.26529 12.6562 8.20312V7.26562C12.6562 7.20346 12.6316 7.14385 12.5876 7.0999C12.5436 7.05594 12.484 7.03125 12.4219 7.03125H11.4844C11.4222 7.03125 11.3626 7.05594 11.3186 7.0999C11.2747 7.14385 11.25 7.20346 11.25 7.26562V8.20312C11.25 8.26529 11.2747 8.3249 11.3186 8.36885C11.3626 8.41281 11.4222 8.4375 11.4844 8.4375ZM11.7188 7.5H12.1875V7.96875H11.7188V7.5Z" fill="#6CB7B2"/>
<path d="M2.57812 10.0781H3.51562C3.57779 10.0781 3.6374 10.0534 3.68135 10.0095C3.72531 9.96552 3.75 9.90591 3.75 9.84375V8.90625C3.75 8.84409 3.72531 8.78448 3.68135 8.74052C3.6374 8.69657 3.57779 8.67188 3.51562 8.67188H2.57812C2.51596 8.67188 2.45635 8.69657 2.4124 8.74052C2.36844 8.78448 2.34375 8.84409 2.34375 8.90625V9.84375C2.34375 9.90591 2.36844 9.96552 2.4124 10.0095C2.45635 10.0534 2.51596 10.0781 2.57812 10.0781ZM2.8125 9.14062H3.28125V9.60938H2.8125V9.14062Z" fill="#6CB7B2"/>
<path d="M2.57812 11.7188H3.51562C3.57779 11.7188 3.6374 11.6941 3.68135 11.6501C3.72531 11.6061 3.75 11.5465 3.75 11.4844V10.5469C3.75 10.4847 3.72531 10.4251 3.68135 10.3811C3.6374 10.3372 3.57779 10.3125 3.51562 10.3125H2.57812C2.51596 10.3125 2.45635 10.3372 2.4124 10.3811C2.36844 10.4251 2.34375 10.4847 2.34375 10.5469V11.4844C2.34375 11.5465 2.36844 11.6061 2.4124 11.6501C2.45635 11.6941 2.51596 11.7188 2.57812 11.7188ZM2.8125 10.7812H3.28125V11.25H2.8125V10.7812Z" fill="#6CB7B2"/>
<path d="M2.57812 8.4375H3.51562C3.57779 8.4375 3.6374 8.41281 3.68135 8.36885C3.72531 8.3249 3.75 8.26529 3.75 8.20312V7.26562C3.75 7.20346 3.72531 7.14385 3.68135 7.0999C3.6374 7.05594 3.57779 7.03125 3.51562 7.03125H2.57812C2.51596 7.03125 2.45635 7.05594 2.4124 7.0999C2.36844 7.14385 2.34375 7.20346 2.34375 7.26562V8.20312C2.34375 8.26529 2.36844 8.3249 2.4124 8.36885C2.45635 8.41281 2.51596 8.4375 2.57812 8.4375ZM2.8125 7.5H3.28125V7.96875H2.8125V7.5Z" fill="#6CB7B2"/>
<path d="M11.25 12.6562H12.6562C12.7184 12.6562 12.778 12.6316 12.822 12.5876C12.8659 12.5436 12.8906 12.484 12.8906 12.4219C12.8906 12.3597 12.8659 12.3001 12.822 12.2561C12.778 12.2122 12.7184 12.1875 12.6562 12.1875H11.25C11.1878 12.1875 11.1282 12.2122 11.0843 12.2561C11.0403 12.3001 11.0156 12.3597 11.0156 12.4219C11.0156 12.484 11.0403 12.5436 11.0843 12.5876C11.1282 12.6316 11.1878 12.6562 11.25 12.6562Z" fill="#6CB7B2"/>
<path d="M3.75 12.1875H2.34375C2.28159 12.1875 2.22198 12.2122 2.17802 12.2561C2.13407 12.3001 2.10938 12.3597 2.10938 12.4219C2.10938 12.484 2.13407 12.5436 2.17802 12.5876C2.22198 12.6316 2.28159 12.6562 2.34375 12.6562H3.75C3.81216 12.6562 3.87177 12.6316 3.91573 12.5876C3.95968 12.5436 3.98438 12.484 3.98438 12.4219C3.98438 12.3597 3.95968 12.3001 3.91573 12.2561C3.87177 12.2122 3.81216 12.1875 3.75 12.1875Z" fill="#6CB7B2"/>
</svg>
