<svg width="24" height="24" viewBox="0 0 24 24" fill="none" xmlns="http://www.w3.org/2000/svg">
<g clip-path="url(#clip0)">
<path d="M13.3348 2.70166H11.9869C11.7475 2.70166 11.5527 2.89643 11.5527 3.13586V4.75329C11.5527 4.99268 11.7475 5.18745 11.9869 5.18745H13.3348C13.5742 5.18745 13.769 4.99268 13.769 4.75324V3.13586C13.769 2.89647 13.5742 2.70166 13.3348 2.70166ZM13.0832 4.50171H12.2384V3.3874H13.0832V4.50171Z" fill="#6CB7B2"/>
<path d="M16.0145 2.70166H14.6666C14.4272 2.70166 14.2324 2.89643 14.2324 3.13586V4.75329C14.2324 4.99268 14.4271 5.18745 14.6666 5.18745H16.0145C16.2539 5.18745 16.4486 4.99268 16.4486 4.75324V3.13586C16.4486 2.89647 16.2539 2.70166 16.0145 2.70166ZM15.7628 4.50171H14.9181V3.3874H15.7628V4.50171Z" fill="#6CB7B2"/>
<path d="M18.6942 2.70166H17.3463C17.1069 2.70166 16.9121 2.89643 16.9121 3.13586V4.75329C16.9121 4.99268 17.1069 5.18745 17.3463 5.18745H18.6942C18.9335 5.18745 19.1284 4.99268 19.1284 4.75324V3.13586C19.1284 2.89647 18.9336 2.70166 18.6942 2.70166ZM18.4426 4.50171H17.5978V3.3874H18.4426V4.50171Z" fill="#6CB7B2"/>
<path d="M13.3348 6.71826H11.9869C11.7475 6.71826 11.5527 6.91303 11.5527 7.15246V8.76989C11.5527 9.00932 11.7475 9.20409 11.9869 9.20409H13.3348C13.5742 9.20409 13.769 9.00932 13.769 8.76989V7.15246C13.769 6.91307 13.5742 6.71826 13.3348 6.71826ZM13.0832 8.5184H12.2384V7.40409H13.0832V8.5184Z" fill="#6CB7B2"/>
<path d="M16.0145 6.71826H14.6666C14.4272 6.71826 14.2324 6.91303 14.2324 7.15246V8.76989C14.2324 9.00932 14.4271 9.20409 14.6666 9.20409H16.0145C16.2539 9.20409 16.4486 9.00932 16.4486 8.76989V7.15246C16.4486 6.91307 16.2539 6.71826 16.0145 6.71826ZM15.7628 8.5184H14.9181V7.40409H15.7628V8.5184Z" fill="#6CB7B2"/>
<path d="M18.6942 6.71826H17.3463C17.1069 6.71826 16.9121 6.91303 16.9121 7.15246V8.76989C16.9121 9.00932 17.1069 9.20409 17.3463 9.20409H18.6942C18.9335 9.20409 19.1284 9.00932 19.1284 8.76989V7.15246C19.1284 6.91307 18.9336 6.71826 18.6942 6.71826ZM18.4426 8.5184H17.5978V7.40409H18.4426V8.5184Z" fill="#6CB7B2"/>
<path d="M13.3348 10.7349H11.9869C11.7475 10.7349 11.5527 10.9296 11.5527 11.1691V12.7865C11.5527 13.0259 11.7475 13.2207 11.9869 13.2207H13.3348C13.5742 13.2207 13.769 13.0259 13.769 12.7865V11.1691C13.769 10.9297 13.5742 10.7349 13.3348 10.7349ZM13.0832 12.535H12.2384V11.4206H13.0832V12.535Z" fill="#6CB7B2"/>
<path d="M16.0145 10.7349H14.6666C14.4272 10.7349 14.2324 10.9296 14.2324 11.1691V12.7865C14.2324 13.0259 14.4271 13.2207 14.6666 13.2207H16.0145C16.2539 13.2207 16.4486 13.0259 16.4486 12.7865V11.1691C16.4486 10.9297 16.2539 10.7349 16.0145 10.7349ZM15.7628 12.535H14.9181V11.4206H15.7628V12.535Z" fill="#6CB7B2"/>
<path d="M18.6942 10.7349H17.3463C17.1069 10.7349 16.9121 10.9296 16.9121 11.1691V12.7865C16.9121 13.0259 17.1069 13.2207 17.3463 13.2207H18.6942C18.9335 13.2207 19.1284 13.0259 19.1284 12.7865V11.1691C19.1284 10.9297 18.9336 10.7349 18.6942 10.7349ZM18.4426 12.535H17.5978V11.4206H18.4426V12.535Z" fill="#6CB7B2"/>
<path d="M18.6942 14.7515H17.3463C17.1069 14.7515 16.9121 14.9462 16.9121 15.1856V16.803C16.9121 17.0424 17.1069 17.2372 17.3463 17.2372H18.6942C18.9335 17.2372 19.1284 17.0425 19.1284 16.803V15.1856C19.1284 14.9462 18.9336 14.7515 18.6942 14.7515ZM18.4426 16.5515H17.5978V15.4372H18.4426V16.5515Z" fill="#6CB7B2"/>
<path d="M23.184 16.2791C22.7447 15.6334 21.8598 15.4624 21.212 15.8978L20.2693 16.5286V1.77952H20.3377C20.5859 1.77952 20.7879 1.57758 20.7879 1.32933V0.450193C20.7879 0.201943 20.5859 5.23031e-06 20.3377 5.23031e-06H18.1482C17.9589 5.23031e-06 17.8054 0.153521 17.8054 0.342849C17.8054 0.532177 17.9589 0.685693 18.1482 0.685693H20.1021V1.09374H10.4754V0.685693L18.1973 0.685688C18.3867 0.685688 18.5401 0.532172 18.5401 0.342844C18.5401 0.153516 18.3866 0 18.1972 0L10.2399 5.23031e-06C9.99161 5.23031e-06 9.78967 0.201943 9.78967 0.450193V1.32933C9.78967 1.57758 9.99161 1.77952 10.2399 1.77952H10.414V6.18347H9.70994V5.33719C9.70994 5.04254 9.47022 4.80282 9.17561 4.80282H6.5868C6.29214 4.80282 6.05242 5.04254 6.05242 5.33719V6.18343H5.55977C5.25358 6.18343 5.00448 6.43252 5.00448 6.73871V14.6018C4.85936 14.5925 4.71381 14.5875 4.56794 14.5875H4.02756V14.4093C4.02756 13.7441 3.48639 13.203 2.82114 13.203H1.77869C1.11348 13.203 0.572266 13.7441 0.572266 14.4093V21.454C0.572266 21.6434 0.725781 21.7969 0.915109 21.7969C1.10444 21.7969 1.25795 21.6434 1.25795 21.454V14.4093C1.25795 14.1223 1.49153 13.8887 1.77864 13.8887H2.82109C3.1082 13.8887 3.34178 14.1223 3.34178 14.4093V22.1239C3.34178 22.4109 3.1082 22.6445 2.82109 22.6445H1.77869C1.49158 22.6445 1.258 22.4109 1.258 22.1239V21.4512C1.258 21.2618 1.10448 21.1083 0.915156 21.1083C0.725828 21.1083 0.572313 21.2618 0.572313 21.4512V22.1239C0.572313 22.7891 1.11348 23.3303 1.77873 23.3303H2.82119C3.48639 23.3303 4.02761 22.789 4.02761 22.1239V22.1043L8.77525 23.9022C8.78453 23.9057 8.79395 23.9088 8.80351 23.9115C9.01211 23.9704 9.22061 24 9.42723 24C9.53955 24 9.6513 23.9912 9.7622 23.9738C9.7623 23.9738 9.76253 23.9737 9.76286 23.9737L16.7707 22.9635C16.7725 22.9633 16.7741 22.963 16.7759 22.9627C17.3749 22.867 17.94 22.6139 18.4101 22.2305C18.4144 22.227 18.4186 22.2234 18.4227 22.2197L22.9521 18.1459C23.4859 17.6719 23.5856 16.8694 23.184 16.2791ZM11.0997 1.77952H19.5836V16.9876L16.7309 18.8968L15.7745 18.8431L15.7501 18.5982C15.7322 18.4184 15.6919 18.2453 15.6319 18.0821C15.6119 18.0277 15.5897 17.9743 15.5655 17.9221C15.5291 17.8439 15.488 17.7683 15.4426 17.6958C15.3352 17.5244 15.2035 17.3699 15.0521 17.237H16.0157C16.255 17.237 16.4498 17.0422 16.4498 16.8028V15.1853C16.4498 14.946 16.255 14.7512 16.0157 14.7512H14.6678C14.4284 14.7512 14.2336 14.946 14.2336 15.1853V16.7951C14.147 16.7712 14.0581 16.7525 13.9671 16.7396C13.9642 16.7392 13.9612 16.7388 13.9583 16.7385L13.7698 16.7168V15.1853C13.7698 14.9459 13.5751 14.7511 13.3356 14.7511H11.9877C11.7483 14.7511 11.5536 14.9459 11.5536 15.1853V16.4616L11.0997 16.4094V1.77952ZM14.9192 16.5512V15.437H15.764V16.5512H14.9192ZM13.084 15.4369V16.5512H12.3314L12.2393 16.5406V15.4369H13.084ZM6.73816 5.48855H9.0242V6.18343H6.73816V5.48855ZM5.69012 6.86916H10.414V7.94138H6.5418C6.32012 7.94138 6.1398 8.12171 6.1398 8.34338V9.37861C6.1398 9.60029 6.32012 9.78061 6.5418 9.78061H10.414V10.7452H6.5418C6.32012 10.7452 6.1398 10.9255 6.1398 11.1472V12.1824C6.1398 12.4041 6.32012 12.5844 6.5418 12.5844H10.414V13.549H6.5418C6.32012 13.549 6.1398 13.7293 6.1398 13.951V14.7696C6.08158 14.756 6.02312 14.7434 5.96444 14.7313C5.93678 14.7255 5.90912 14.7201 5.88137 14.7147C5.84894 14.7084 5.81636 14.7025 5.78378 14.6967C5.75256 14.6911 5.72144 14.6851 5.69012 14.6799V6.86916ZM10.414 8.62712V9.09488H6.82553V8.62712H10.414ZM10.414 11.4309V11.8987H6.82553V11.4309H10.414ZM6.82553 14.7025V14.2347H10.414V14.7025H6.82553ZM10.414 15.3882V16.3305L10.3083 16.3183C10.0868 16.2868 9.86856 16.2433 9.65373 16.1889C9.23725 16.0834 8.83403 15.9354 8.44755 15.7455C8.39617 15.7202 8.34522 15.694 8.29445 15.6673C8.21158 15.6236 8.12945 15.5783 8.04822 15.5308C7.98841 15.4958 7.92803 15.4621 7.86742 15.429C7.8543 15.4218 7.84117 15.4148 7.828 15.4077C7.81595 15.4013 7.80395 15.3946 7.79191 15.3882H10.414ZM22.4952 17.6346L17.9705 21.7041C17.5958 22.0078 17.1465 22.2086 16.6702 22.2851L9.66226 23.2953C9.66072 23.2955 9.65434 23.2965 9.65284 23.2967C9.44317 23.3299 9.22478 23.316 9.00353 23.2554L4.02756 21.3711V15.2733H4.56789C4.81652 15.2733 5.06416 15.2891 5.30973 15.3188C5.35961 15.3248 5.4093 15.3314 5.45889 15.3385C5.46611 15.3396 5.47328 15.3407 5.48045 15.3418C5.60575 15.3603 5.72992 15.3829 5.85306 15.4088C5.89136 15.4169 5.9297 15.425 5.96786 15.4338C5.98694 15.4382 6.00592 15.4429 6.02495 15.4474C6.07469 15.4594 6.12433 15.4719 6.17378 15.4852C6.18269 15.4875 6.19164 15.4898 6.20055 15.4923C6.58792 15.5979 6.96508 15.7411 7.3262 15.9202C7.33698 15.9255 7.34772 15.931 7.35845 15.9364C7.40439 15.9595 7.45 15.9833 7.49537 16.0076C7.5092 16.015 7.52308 16.0223 7.53686 16.0298C7.59147 16.0595 7.6458 16.0899 7.69956 16.1213C7.70036 16.1218 7.70116 16.1222 7.70195 16.1227C7.84769 16.2079 7.99581 16.2876 8.14623 16.3615C8.79798 16.6818 9.4923 16.8954 10.2166 16.9979C10.2195 16.9983 10.2224 16.9987 10.2254 16.999L10.7176 17.0557L11.1185 17.1019L12.043 17.2083L12.2724 17.2348H12.2725L13.875 17.4193C14.5136 17.5115 15.0038 18.0237 15.0677 18.6661L15.0796 18.7856L8.653 18.1593C8.46395 18.1409 8.29684 18.2788 8.27847 18.4673C8.26014 18.6558 8.398 18.8235 8.58648 18.8418L15.3994 19.5059C15.4137 19.5085 15.4282 19.5106 15.4431 19.5114L16.807 19.588C16.8134 19.5884 16.8198 19.5885 16.8262 19.5885C16.833 19.5885 16.8397 19.5874 16.8465 19.587C16.8542 19.5865 16.862 19.5863 16.8697 19.5853C16.8795 19.584 16.8892 19.5818 16.8989 19.5797C16.9065 19.5781 16.9141 19.5768 16.9215 19.5746C16.9318 19.5716 16.9418 19.5676 16.9518 19.5636C16.9581 19.5611 16.9646 19.5592 16.9707 19.5563C16.9867 19.5489 17.0021 19.5404 17.0169 19.5305L20.1172 17.4557L20.1172 17.4556L21.594 16.4673C21.9302 16.2414 22.3892 16.33 22.6171 16.665C22.8254 16.971 22.7737 17.3873 22.4952 17.6346Z" fill="#6CB7B2"/>
</g>
<defs>
<clipPath id="clip0">
<rect width="24" height="24" fill="white"/>
</clipPath>
</defs>
</svg>
