<svg width="15" height="15" viewBox="0 0 15 15" fill="none" xmlns="http://www.w3.org/2000/svg">
<g clip-path="url(#clip0)">
<path d="M6.91406 5.12744H5.74219C5.58041 5.12744 5.44922 5.25863 5.44922 5.42044V6.59243C5.44922 6.75424 5.58041 6.88543 5.74219 6.88543H6.91406C7.07584 6.88543 7.20703 6.75424 7.20703 6.59243V5.42044C7.20703 5.25863 7.07584 5.12744 6.91406 5.12744ZM6.62106 6.29943H6.03513V5.71344H6.62106V6.29943Z" fill="#6CB7B2"/>
<path d="M9.25781 5.12744H8.08594C7.92416 5.12744 7.79297 5.25863 7.79297 5.42044V6.59243C7.79297 6.75424 7.92416 6.88543 8.08594 6.88543H9.25781C9.41959 6.88543 9.55078 6.75424 9.55078 6.59243V5.42044C9.55078 5.25863 9.41959 5.12744 9.25781 5.12744ZM8.96484 6.29943H8.37891V5.71344H8.96484V6.29943Z" fill="#6CB7B2"/>
<path d="M6.91406 2.78369H5.74219C5.58041 2.78369 5.44922 2.91488 5.44922 3.07669V4.24868C5.44922 4.41048 5.58041 4.54167 5.74219 4.54167H6.91406C7.07584 4.54167 7.20703 4.41048 7.20703 4.24868V3.07669C7.20703 2.91488 7.07584 2.78369 6.91406 2.78369ZM6.62106 3.95565H6.03513V3.36966H6.62106V3.95565Z" fill="#6CB7B2"/>
<path d="M9.25781 2.78369H8.08594C7.92416 2.78369 7.79297 2.91488 7.79297 3.07669V4.24868C7.79297 4.41048 7.92416 4.54167 8.08594 4.54167H9.25781C9.41959 4.54167 9.55078 4.41048 9.55078 4.24868V3.07669C9.55078 2.91488 9.41959 2.78369 9.25781 2.78369ZM8.96484 3.95565H8.37891V3.36966H8.96484V3.95565Z" fill="#6CB7B2"/>
<path d="M3.39844 6.03564H2.22656C2.06479 6.03564 1.93359 6.16684 1.93359 6.32864V7.50065C1.93359 7.66246 2.06479 7.79365 2.22656 7.79365H3.39844C3.56021 7.79365 3.69141 7.66246 3.69141 7.50065V6.32864C3.69141 6.16684 3.56024 6.03564 3.39844 6.03564ZM3.10547 7.20765H2.51953V6.62165H3.10547V7.20765Z" fill="#6CB7B2"/>
<path d="M14.9219 4.95837L13.5742 3.49338C13.5187 3.43306 13.4406 3.39875 13.3586 3.39875H10.7219V2.19749C10.7219 2.19749 11.0138 2.19749 11.0149 2.19749C11.3144 2.19749 11.4134 1.76487 11.137 1.63813L7.62134 0.0266528C7.54382 -0.00888428 7.4547 -0.00888428 7.37718 0.0266528C7.37718 0.0266528 3.86953 1.63447 3.86156 1.63813C3.5898 1.7627 3.67028 2.19749 3.98364 2.19749H4.27661V3.39878H1.63989C1.55794 3.39878 1.47975 3.43309 1.42429 3.49341C1.42429 3.49341 0.0805902 4.95407 0.0766351 4.95837C-0.0919977 5.14168 0.0443207 5.44974 0.292231 5.44974H0.760981V8.64339C0.760981 8.8052 0.892172 8.93639 1.05395 8.93639H4.27661V9.52239C4.27661 9.68419 4.4078 9.81538 4.56957 9.81538H10.429C10.5908 9.81538 10.7219 9.68419 10.7219 9.52239V8.93642H13.9446C14.1064 8.93642 14.2376 8.80523 14.2376 8.64342V5.44977C14.2376 5.44977 14.7044 5.44977 14.7063 5.44977C14.9518 5.44974 15.0889 5.1399 14.9219 4.95837ZM4.27655 8.35042H1.34686V5.44974H4.27655V8.35042ZM4.27658 4.86377H0.959789L1.76841 3.98478H4.27658V4.86377ZM7.49923 0.615315L9.6725 1.6115H5.32596L7.49923 0.615315ZM7.7922 9.22942H7.08908V8.4084C7.08908 8.21487 7.24678 8.05742 7.44064 8.05742C7.6345 8.05742 7.7922 8.21487 7.7922 8.4084V9.22942ZM10.136 9.22942H8.37814V8.4084C8.37814 7.89175 7.95758 7.47143 7.44064 7.47143C6.9237 7.47143 6.50314 7.89175 6.50314 8.4084V9.22942H4.86251V2.19749H10.136V9.22942ZM13.6516 8.35042H10.7219V5.44974H13.6516V8.35042ZM10.7219 4.86377V3.98478H13.23L14.0386 4.86377H10.7219Z" fill="#6CB7B2"/>
<path d="M12.7734 6.03564H11.6016C11.4398 6.03564 11.3086 6.16684 11.3086 6.32864V7.50065C11.3086 7.66246 11.4398 7.79365 11.6016 7.79365H12.7734C12.9352 7.79365 13.0664 7.66246 13.0664 7.50065V6.32864C13.0664 6.16684 12.9352 6.03564 12.7734 6.03564ZM12.4805 7.20765H11.8945V6.62165H12.4805V7.20765Z" fill="#6CB7B2"/>
<path d="M7.80395 11.8226L7.41867 10.7158C7.36546 10.563 7.19856 10.4822 7.04566 10.5354L5.93894 10.9207C5.78613 10.974 5.70538 11.141 5.75859 11.2938L5.86001 11.5852L4.89222 11.996C4.85437 11.8781 4.74386 11.7926 4.61331 11.7926H3.44144C3.27966 11.7926 3.14847 11.9238 3.14847 12.0856V12.7364L1.75016 13.33L1.67648 13.1183C1.6233 12.9656 1.45637 12.8847 1.30347 12.938L0.196722 13.3233C0.0439097 13.3765 -0.0368324 13.5435 0.0163707 13.6964C0.0163707 13.6964 0.400511 14.7999 0.401654 14.8032C0.451019 14.945 0.624838 15.0358 0.774691 14.9836L1.88141 14.5982C2.03422 14.545 2.11496 14.378 2.06176 14.2252L1.94323 13.8847L3.14844 13.373V14.1366H3.01661C2.85483 14.1366 2.72364 14.2677 2.72364 14.4295C2.72364 14.5914 2.85483 14.7225 3.01661 14.7225H5.03809C5.19987 14.7225 5.33106 14.5914 5.33106 14.4295C5.33106 14.2677 5.19987 14.1366 5.03809 14.1366H4.90625V12.6267L6.05305 12.1398C6.05305 12.1398 6.14384 12.4006 6.14387 12.4006C6.18421 12.5164 6.29841 12.5973 6.42055 12.5973C6.45248 12.5974 7.6236 12.1957 7.6236 12.1957C7.77641 12.1424 7.85715 11.9754 7.80395 11.8226ZM0.858714 14.3338L0.666058 13.7804L1.21945 13.5877L1.4121 14.1411L0.858714 14.3338ZM4.32032 14.1366H3.73438V13.5506H4.32032V14.1366ZM4.32032 12.9646H3.73438V12.3786H4.32032V12.9646ZM6.6009 11.9313L6.40825 11.3779L6.96163 11.1851L7.15429 11.7386L6.6009 11.9313Z" fill="#6CB7B2"/>
<path d="M14.9957 14.6564L14.4141 11.3413C14.414 11.0043 14.4098 10.5917 14.2367 10.2458C14.0154 9.80374 13.5823 9.57959 12.9493 9.57959C12.3163 9.57959 11.8832 9.80374 11.6619 10.2458C11.5235 10.5223 11.4932 10.8415 11.4864 11.1307C10.4297 11.6321 9.85204 12.1165 9.13863 12.8296C8.33091 13.6377 7.73326 14.0227 7.37375 14.2035C7.16372 14.3092 6.91863 14.4142 6.67974 14.4142C6.52874 14.4142 6.39744 14.5373 6.38736 14.6878C6.37716 14.8403 6.49028 14.9779 6.64168 14.9975C6.65282 14.999 8.27293 15.0002 8.27293 15.0002C8.43462 15.0002 8.5659 14.8686 8.5659 14.7072C8.56593 14.4737 8.35751 14.4142 8.16746 14.4142C8.60135 14.1232 9.06746 13.7297 9.55288 13.2442C10.1149 12.682 10.7476 12.0821 11.4845 11.7576V14.7071C11.4845 14.8689 11.6156 15.0001 11.7774 15.0001C11.7774 15.0001 14.7022 15.0001 14.7071 15.0001C14.8861 15.0001 15.0266 14.8324 14.9957 14.6564ZM14.0807 12.8319L14.1835 13.4179H13.2423V12.8319H14.0807ZM13.9779 12.2459H13.2423V11.6599H13.8751L13.9779 12.2459ZM12.9493 10.1656C13.6697 10.1656 13.8011 10.5042 13.8238 11.0739H12.0749C12.0975 10.5042 12.2289 10.1656 12.9493 10.1656ZM12.6563 14.4141H12.0704V11.6599H12.6563V14.4141ZM13.2423 14.4141V14.0039H14.2863L14.3583 14.4141H13.2423Z" fill="#6CB7B2"/>
<path d="M9.44336 14.4141C9.28193 14.4141 9.15039 14.5453 9.15039 14.7071C9.15039 14.8685 9.28193 15.0001 9.44336 15.0001C9.60508 15.0001 9.73633 14.8685 9.73633 14.7071C9.73633 14.5453 9.60505 14.4141 9.44336 14.4141Z" fill="#6CB7B2"/>
</g>
<defs>
<clipPath id="clip0">
<rect width="15" height="15" fill="white"/>
</clipPath>
</defs>
</svg>
