<svg width="165" height="35" viewBox="0 0 165 35" fill="none" xmlns="http://www.w3.org/2000/svg">
<path d="M77.598 5.04575L73.2452 19H71.5508L68.016 8.3566C67.9836 8.25273 67.9511 8.14236 67.9186 8.02551C67.8927 7.90866 67.8635 7.78531 67.831 7.65547C67.7985 7.78531 67.7661 7.90866 67.7336 8.02551C67.7012 8.14236 67.6687 8.25273 67.6362 8.3566L64.0819 19H62.3876L58.0348 5.04575H59.6026C59.7714 5.04575 59.9109 5.08794 60.0213 5.17234C60.1381 5.25673 60.2128 5.36385 60.2453 5.49369L63.1276 15.1925C63.1731 15.3678 63.2153 15.5561 63.2542 15.7573C63.2997 15.9586 63.3419 16.1728 63.3808 16.4C63.4263 16.1728 63.4717 15.9586 63.5172 15.7573C63.5691 15.5496 63.6243 15.3613 63.6827 15.1925L66.9643 5.49369C67.0033 5.38332 67.0779 5.2827 67.1883 5.19181C67.3052 5.09444 67.4447 5.04575 67.607 5.04575H68.1523C68.3211 5.04575 68.4575 5.08794 68.5613 5.17234C68.6652 5.25673 68.7431 5.36385 68.795 5.49369L72.0669 15.1925C72.1254 15.3613 72.1773 15.5431 72.2227 15.7378C72.2747 15.9326 72.3234 16.1371 72.3688 16.3513C72.4013 16.1371 72.437 15.9326 72.4759 15.7378C72.5149 15.5431 72.5571 15.3613 72.6025 15.1925L75.4946 5.49369C75.5271 5.37683 75.5985 5.27296 75.7089 5.18208C75.8257 5.09119 75.9653 5.04575 76.1276 5.04575H77.598ZM83.5091 14.5596C82.7106 14.5855 82.029 14.6505 81.4642 14.7543C80.9059 14.8517 80.4482 14.9815 80.0912 15.1438C79.7406 15.3061 79.4842 15.4976 79.3219 15.7184C79.1661 15.9391 79.0882 16.1858 79.0882 16.4584C79.0882 16.7181 79.1304 16.9421 79.2148 17.1303C79.2992 17.3186 79.4128 17.4744 79.5556 17.5978C79.7049 17.7146 79.8769 17.8023 80.0717 17.8607C80.273 17.9126 80.4872 17.9386 80.7144 17.9386C81.0195 17.9386 81.2987 17.9094 81.5518 17.8509C81.805 17.786 82.042 17.6951 82.2627 17.5783C82.4899 17.4614 82.7042 17.3219 82.9054 17.1596C83.1131 16.9973 83.3144 16.8122 83.5091 16.6045V14.5596ZM77.9099 10.5281C78.4552 10.0023 79.0427 9.60952 79.6725 9.34985C80.3022 9.09018 81 8.96034 81.7661 8.96034C82.3179 8.96034 82.808 9.05123 83.2365 9.233C83.6649 9.41477 84.0252 9.66795 84.3174 9.99254C84.6095 10.3171 84.8302 10.7099 84.9795 11.1708C85.1289 11.6317 85.2035 12.1381 85.2035 12.6899V19H84.4342C84.2654 19 84.1356 18.974 84.0447 18.9221C83.9538 18.8637 83.8824 18.7533 83.8305 18.591L83.6357 17.6562C83.3761 17.8964 83.1229 18.1106 82.8762 18.2989C82.6295 18.4807 82.3698 18.6365 82.0972 18.7663C81.8245 18.8896 81.5324 18.9838 81.2208 19.0487C80.9156 19.1201 80.5748 19.1558 80.1983 19.1558C79.8153 19.1558 79.455 19.1039 79.1174 19C78.7798 18.8896 78.4844 18.7273 78.2313 18.5131C77.9846 18.2989 77.7866 18.0295 77.6373 17.7049C77.4944 17.3738 77.423 16.9843 77.423 16.5363C77.423 16.1468 77.5301 15.7735 77.7444 15.4165C77.9586 15.0529 78.3059 14.7316 78.7863 14.4525C79.2667 14.1733 79.8932 13.9461 80.6657 13.7708C81.4382 13.589 82.3861 13.4852 83.5091 13.4592V12.6899C83.5091 11.9239 83.3436 11.3461 83.0125 10.9566C82.6814 10.5606 82.1978 10.3626 81.5616 10.3626C81.1331 10.3626 80.7728 10.4178 80.4807 10.5281C80.195 10.632 79.9451 10.7521 79.7309 10.8884C79.5231 11.0183 79.3414 11.1384 79.1856 11.2487C79.0363 11.3526 78.8869 11.4045 78.7376 11.4045C78.6208 11.4045 78.5201 11.3753 78.4358 11.3169C78.3514 11.252 78.2799 11.1741 78.2215 11.0832L77.9099 10.5281ZM96.087 9.13562L92.0653 19H90.5073L86.4856 9.13562H87.8975C88.0404 9.13562 88.1572 9.17132 88.2481 9.24273C88.339 9.31415 88.4007 9.39854 88.4331 9.49592L90.9357 15.845C91.0136 16.0852 91.0818 16.3189 91.1402 16.5461C91.1986 16.7733 91.2538 17.0005 91.3058 17.2277C91.3577 17.0005 91.4129 16.7733 91.4713 16.5461C91.5297 16.3189 91.6011 16.0852 91.6855 15.845L94.2174 9.49592C94.2563 9.39205 94.3212 9.30765 94.4121 9.24273C94.503 9.17132 94.6101 9.13562 94.7335 9.13562H96.087ZM104.013 12.9918C104.013 12.5893 103.954 12.2225 103.837 11.8914C103.727 11.5538 103.561 11.2649 103.341 11.0248C103.127 10.7781 102.864 10.5898 102.552 10.46C102.24 10.3236 101.887 10.2555 101.491 10.2555C100.66 10.2555 100.001 10.4989 99.5138 10.9858C99.0334 11.4662 98.7348 12.1349 98.6179 12.9918H104.013ZM105.415 17.6172C105.201 17.8769 104.944 18.1041 104.646 18.2989C104.347 18.4871 104.026 18.6429 103.682 18.7663C103.344 18.8896 102.993 18.9805 102.63 19.039C102.266 19.1039 101.906 19.1363 101.549 19.1363C100.867 19.1363 100.238 19.0227 99.6599 18.7955C99.0886 18.5618 98.592 18.2242 98.17 17.7828C97.7545 17.3348 97.4299 16.783 97.1962 16.1274C96.9625 15.4717 96.8457 14.7186 96.8457 13.8682C96.8457 13.18 96.9495 12.5374 97.1573 11.9401C97.3715 11.3429 97.6766 10.8267 98.0726 10.3918C98.4686 9.95035 98.9523 9.60628 99.5235 9.35959C100.095 9.10641 100.738 8.97981 101.452 8.97981C102.042 8.97981 102.588 9.08044 103.088 9.28169C103.594 9.47644 104.029 9.76208 104.392 10.1386C104.762 10.5086 105.051 10.9696 105.259 11.5214C105.467 12.0667 105.571 12.6899 105.571 13.391C105.571 13.6637 105.541 13.8455 105.483 13.9363C105.425 14.0272 105.314 14.0727 105.152 14.0727H98.5595C98.579 14.6959 98.6634 15.238 98.8127 15.6989C98.9685 16.1598 99.1827 16.5461 99.4554 16.8577C99.728 17.1628 100.053 17.3933 100.429 17.5491C100.806 17.6984 101.228 17.773 101.695 17.773C102.13 17.773 102.503 17.7243 102.815 17.627C103.133 17.5231 103.406 17.4127 103.633 17.2959C103.86 17.179 104.048 17.0719 104.198 16.9745C104.353 16.8707 104.487 16.8187 104.597 16.8187C104.74 16.8187 104.85 16.8739 104.928 16.9843L105.415 17.6172ZM121.7 17.4614L121.69 19H113.092V5.04575H121.69V6.58432H114.981V11.2195H120.415V12.6997H114.981V17.4614H121.7ZM129.516 10.7618C129.438 10.9047 129.318 10.9761 129.156 10.9761C129.059 10.9761 128.948 10.9404 128.825 10.8689C128.702 10.7975 128.549 10.7196 128.367 10.6352C128.192 10.5444 127.981 10.4632 127.734 10.3918C127.488 10.3139 127.195 10.2749 126.858 10.2749C126.566 10.2749 126.303 10.3139 126.069 10.3918C125.835 10.4632 125.634 10.5638 125.465 10.6937C125.303 10.8235 125.176 10.9761 125.086 11.1513C125.001 11.3201 124.959 11.5051 124.959 11.7064C124.959 11.9596 125.03 12.1706 125.173 12.3394C125.323 12.5081 125.517 12.6542 125.757 12.7776C125.998 12.9009 126.27 13.0113 126.575 13.1086C126.881 13.1995 127.192 13.3001 127.51 13.4105C127.835 13.5144 128.15 13.6312 128.455 13.7611C128.76 13.8909 129.033 14.0532 129.273 14.248C129.513 14.4427 129.705 14.6829 129.847 14.9686C129.997 15.2477 130.071 15.5853 130.071 15.9813C130.071 16.4357 129.99 16.8577 129.828 17.2472C129.666 17.6302 129.425 17.9645 129.107 18.2502C128.789 18.5293 128.4 18.7501 127.939 18.9124C127.478 19.0747 126.945 19.1558 126.342 19.1558C125.654 19.1558 125.03 19.0454 124.472 18.8247C123.914 18.5975 123.44 18.3086 123.05 17.9581L123.459 17.2959C123.511 17.2115 123.573 17.1466 123.644 17.1011C123.716 17.0557 123.807 17.033 123.917 17.033C124.034 17.033 124.157 17.0784 124.287 17.1693C124.417 17.2602 124.573 17.3608 124.754 17.4712C124.943 17.5815 125.17 17.6822 125.436 17.773C125.702 17.8639 126.033 17.9094 126.429 17.9094C126.767 17.9094 127.062 17.8672 127.316 17.7828C127.569 17.6919 127.78 17.5718 127.948 17.4225C128.117 17.2732 128.241 17.1011 128.318 16.9064C128.403 16.7116 128.445 16.5039 128.445 16.2832C128.445 16.0105 128.37 15.7865 128.221 15.6112C128.078 15.4295 127.887 15.2769 127.647 15.1536C127.406 15.0237 127.13 14.9134 126.819 14.8225C126.514 14.7251 126.199 14.6245 125.874 14.5206C125.556 14.4167 125.241 14.2999 124.93 14.1701C124.625 14.0337 124.352 13.8649 124.112 13.6637C123.872 13.4624 123.677 13.2158 123.528 12.9236C123.385 12.625 123.313 12.2647 123.313 11.8427C123.313 11.4662 123.391 11.1059 123.547 10.7618C123.703 10.4113 123.93 10.1062 124.229 9.84648C124.527 9.58031 124.894 9.36933 125.329 9.21352C125.764 9.05772 126.261 8.97981 126.819 8.97981C127.468 8.97981 128.049 9.08368 128.562 9.29142C129.081 9.49267 129.529 9.77182 129.906 10.1289L129.516 10.7618ZM135.225 19.1558C134.446 19.1558 133.845 18.9383 133.423 18.5034C133.008 18.0684 132.8 17.442 132.8 16.624V10.5865H131.612C131.508 10.5865 131.421 10.5573 131.349 10.4989C131.278 10.434 131.242 10.3366 131.242 10.2068V9.51539L132.859 9.3109L133.258 6.26297C133.277 6.16559 133.32 6.08769 133.384 6.02926C133.456 5.96435 133.547 5.93189 133.657 5.93189H134.533V9.33038H137.387V10.5865H134.533V16.5071C134.533 16.9226 134.634 17.231 134.835 17.4322C135.037 17.6335 135.296 17.7341 135.614 17.7341C135.796 17.7341 135.952 17.7114 136.082 17.6659C136.218 17.614 136.335 17.5588 136.432 17.5004C136.53 17.442 136.611 17.39 136.676 17.3446C136.747 17.2926 136.809 17.2667 136.861 17.2667C136.952 17.2667 137.033 17.3219 137.104 17.4322L137.611 18.2599C137.312 18.5391 136.952 18.7598 136.53 18.9221C136.108 19.0779 135.673 19.1558 135.225 19.1558ZM144.522 14.5596C143.724 14.5855 143.042 14.6505 142.478 14.7543C141.919 14.8517 141.462 14.9815 141.105 15.1438C140.754 15.3061 140.498 15.4976 140.335 15.7184C140.179 15.9391 140.102 16.1858 140.102 16.4584C140.102 16.7181 140.144 16.9421 140.228 17.1303C140.313 17.3186 140.426 17.4744 140.569 17.5978C140.718 17.7146 140.89 17.8023 141.085 17.8607C141.286 17.9126 141.501 17.9386 141.728 17.9386C142.033 17.9386 142.312 17.9094 142.565 17.8509C142.818 17.786 143.055 17.6951 143.276 17.5783C143.503 17.4614 143.717 17.3219 143.919 17.1596C144.126 16.9973 144.328 16.8122 144.522 16.6045V14.5596ZM138.923 10.5281C139.469 10.0023 140.056 9.60952 140.686 9.34985C141.316 9.09018 142.013 8.96034 142.779 8.96034C143.331 8.96034 143.821 9.05123 144.25 9.233C144.678 9.41477 145.039 9.66795 145.331 9.99254C145.623 10.3171 145.844 10.7099 145.993 11.1708C146.142 11.6317 146.217 12.1381 146.217 12.6899V19H145.448C145.279 19 145.149 18.974 145.058 18.9221C144.967 18.8637 144.896 18.7533 144.844 18.591L144.649 17.6562C144.389 17.8964 144.136 18.1106 143.89 18.2989C143.643 18.4807 143.383 18.6365 143.111 18.7663C142.838 18.8896 142.546 18.9838 142.234 19.0487C141.929 19.1201 141.588 19.1558 141.212 19.1558C140.829 19.1558 140.468 19.1039 140.131 19C139.793 18.8896 139.498 18.7273 139.245 18.5131C138.998 18.2989 138.8 18.0295 138.651 17.7049C138.508 17.3738 138.436 16.9843 138.436 16.5363C138.436 16.1468 138.543 15.7735 138.758 15.4165C138.972 15.0529 139.319 14.7316 139.8 14.4525C140.28 14.1733 140.907 13.9461 141.679 13.7708C142.452 13.589 143.399 13.4852 144.522 13.4592V12.6899C144.522 11.9239 144.357 11.3461 144.026 10.9566C143.695 10.5606 143.211 10.3626 142.575 10.3626C142.146 10.3626 141.786 10.4178 141.494 10.5281C141.208 10.632 140.958 10.7521 140.744 10.8884C140.536 11.0183 140.355 11.1384 140.199 11.2487C140.05 11.3526 139.9 11.4045 139.751 11.4045C139.634 11.4045 139.533 11.3753 139.449 11.3169C139.365 11.252 139.293 11.1741 139.235 11.0832L138.923 10.5281ZM151.752 19.1558C150.973 19.1558 150.373 18.9383 149.951 18.5034C149.536 18.0684 149.328 17.442 149.328 16.624V10.5865H148.14C148.036 10.5865 147.948 10.5573 147.877 10.4989C147.805 10.434 147.77 10.3366 147.77 10.2068V9.51539L149.386 9.3109L149.785 6.26297C149.805 6.16559 149.847 6.08769 149.912 6.02926C149.983 5.96435 150.074 5.93189 150.185 5.93189H151.061V9.33038H153.914V10.5865H151.061V16.5071C151.061 16.9226 151.162 17.231 151.363 17.4322C151.564 17.6335 151.824 17.7341 152.142 17.7341C152.324 17.7341 152.48 17.7114 152.609 17.6659C152.746 17.614 152.863 17.5588 152.96 17.5004C153.057 17.442 153.138 17.39 153.203 17.3446C153.275 17.2926 153.336 17.2667 153.388 17.2667C153.479 17.2667 153.56 17.3219 153.632 17.4322L154.138 18.2599C153.84 18.5391 153.479 18.7598 153.057 18.9221C152.635 19.0779 152.2 19.1558 151.752 19.1558ZM162.249 12.9918C162.249 12.5893 162.191 12.2225 162.074 11.8914C161.964 11.5538 161.798 11.2649 161.577 11.0248C161.363 10.7781 161.1 10.5898 160.789 10.46C160.477 10.3236 160.123 10.2555 159.727 10.2555C158.896 10.2555 158.237 10.4989 157.75 10.9858C157.27 11.4662 156.971 12.1349 156.854 12.9918H162.249ZM163.651 17.6172C163.437 17.8769 163.181 18.1041 162.882 18.2989C162.584 18.4871 162.262 18.6429 161.918 18.7663C161.581 18.8896 161.23 18.9805 160.866 19.039C160.503 19.1039 160.143 19.1363 159.786 19.1363C159.104 19.1363 158.474 19.0227 157.896 18.7955C157.325 18.5618 156.829 18.2242 156.407 17.7828C155.991 17.3348 155.666 16.783 155.433 16.1274C155.199 15.4717 155.082 14.7186 155.082 13.8682C155.082 13.18 155.186 12.5374 155.394 11.9401C155.608 11.3429 155.913 10.8267 156.309 10.3918C156.705 9.95035 157.189 9.60628 157.76 9.35959C158.331 9.10641 158.974 8.97981 159.688 8.97981C160.279 8.97981 160.824 9.08044 161.324 9.28169C161.83 9.47644 162.265 9.76208 162.629 10.1386C162.999 10.5086 163.288 10.9696 163.496 11.5214C163.703 12.0667 163.807 12.6899 163.807 13.391C163.807 13.6637 163.778 13.8455 163.72 13.9363C163.661 14.0272 163.551 14.0727 163.389 14.0727H156.796C156.816 14.6959 156.9 15.238 157.049 15.6989C157.205 16.1598 157.419 16.5461 157.692 16.8577C157.965 17.1628 158.289 17.3933 158.666 17.5491C159.042 17.6984 159.464 17.773 159.932 17.773C160.367 17.773 160.74 17.7243 161.051 17.627C161.37 17.5231 161.642 17.4127 161.869 17.2959C162.097 17.179 162.285 17.0719 162.434 16.9745C162.59 16.8707 162.723 16.8187 162.833 16.8187C162.976 16.8187 163.087 16.8739 163.165 16.9843L163.651 17.6172Z" fill="white"/>
<path d="M64.5704 30.4289L63.1348 26.8648C63.085 26.7485 63.0368 26.609 62.9903 26.4461C62.9703 26.5259 62.9487 26.6023 62.9255 26.6754C62.9022 26.7452 62.8773 26.81 62.8507 26.8698L61.4151 30.4289H64.5704ZM66.1306 32.991H65.7368C65.6903 32.991 65.6521 32.9793 65.6222 32.9561C65.5923 32.9295 65.569 32.8963 65.5524 32.8564L64.7249 30.8077H61.2606L60.4332 32.8564C60.4199 32.8929 60.3966 32.9245 60.3634 32.9511C60.3301 32.9777 60.2903 32.991 60.2437 32.991H59.8549L62.741 25.9377H63.2445L66.1306 32.991ZM67.4901 28.8986C67.7194 28.6128 67.9836 28.3835 68.2826 28.2107C68.585 28.0379 68.9207 27.9515 69.2895 27.9515C69.562 27.9515 69.8013 27.9947 70.0073 28.0811C70.2167 28.1675 70.3895 28.2921 70.5257 28.4549C70.662 28.6178 70.765 28.8138 70.8348 29.0431C70.9046 29.2724 70.9395 29.5316 70.9395 29.8207V32.991H70.4609V29.8207C70.4609 29.3555 70.3546 28.9916 70.1419 28.7291C69.9292 28.4633 69.6052 28.3303 69.1699 28.3303C68.8476 28.3303 68.5452 28.4134 68.2627 28.5796C67.9836 28.7424 67.7343 28.97 67.515 29.2625V32.991H67.0365V28.0313H67.3007C67.3837 28.0313 67.4319 28.0728 67.4452 28.1559L67.4901 28.8986ZM75.2941 30.5934C74.8222 30.61 74.4151 30.6482 74.0728 30.708C73.7339 30.7645 73.4531 30.8426 73.2304 30.9423C73.0111 31.042 72.8483 31.1616 72.7419 31.3012C72.6356 31.4374 72.5824 31.5936 72.5824 31.7697C72.5824 31.9359 72.609 32.0804 72.6622 32.2034C72.7187 32.323 72.7918 32.4227 72.8815 32.5025C72.9746 32.5789 73.0809 32.6354 73.2005 32.6719C73.3202 32.7085 73.4448 32.7268 73.5744 32.7268C73.7671 32.7268 73.9432 32.7068 74.1028 32.667C74.2656 32.6238 74.4151 32.5656 74.5514 32.4925C74.6909 32.4161 74.8205 32.3263 74.9402 32.2233C75.0598 32.1203 75.1778 32.009 75.2941 31.8894V30.5934ZM72.3781 28.7341C72.6373 28.4749 72.9098 28.2788 73.1955 28.1459C73.4813 28.013 73.8053 27.9465 74.1676 27.9465C74.4334 27.9465 74.666 27.9897 74.8654 28.0761C75.0648 28.1592 75.2293 28.2805 75.3589 28.44C75.4918 28.5962 75.5915 28.7873 75.658 29.0132C75.7244 29.2359 75.7577 29.4851 75.7577 29.7609V32.991H75.5682C75.4685 32.991 75.4071 32.9444 75.3838 32.8514L75.314 32.2134C75.1778 32.3463 75.0415 32.4659 74.9053 32.5723C74.7724 32.6786 74.6328 32.7683 74.4866 32.8414C74.3404 32.9145 74.1825 32.971 74.013 33.0109C73.8436 33.0508 73.6575 33.0707 73.4547 33.0707C73.2853 33.0707 73.1208 33.0458 72.9613 32.996C72.8018 32.9461 72.6589 32.8697 72.5326 32.7667C72.4096 32.6636 72.3099 32.5324 72.2335 32.3729C72.1604 32.21 72.1239 32.0156 72.1239 31.7897C72.1239 31.5803 72.1837 31.3859 72.3033 31.2065C72.4229 31.027 72.6107 30.8708 72.8666 30.7379C73.1224 30.605 73.4498 30.4986 73.8485 30.4189C74.2506 30.3391 74.7325 30.2926 75.2941 30.2793V29.7609C75.2941 29.3023 75.1944 28.9501 74.995 28.7042C74.7989 28.4549 74.5065 28.3303 74.1177 28.3303C73.8784 28.3303 73.6741 28.3636 73.5046 28.43C73.3384 28.4965 73.1972 28.5696 73.0809 28.6493C72.9646 28.7291 72.8699 28.8022 72.7968 28.8687C72.7237 28.9351 72.6622 28.9684 72.6123 28.9684C72.5758 28.9684 72.5459 28.9601 72.5226 28.9434C72.4994 28.9268 72.4794 28.9052 72.4628 28.8786L72.3781 28.7341ZM77.8699 25.7383V32.991H77.3914V25.7383H77.8699ZM83.5544 28.0313L80.7032 34.5861C80.6833 34.6326 80.6567 34.6708 80.6234 34.7007C80.5935 34.7306 80.5487 34.7456 80.4889 34.7456H80.1499L81.0222 32.8065L78.9237 28.0313H79.3175C79.3673 28.0313 79.4072 28.0445 79.4371 28.0711C79.467 28.0944 79.4869 28.121 79.4969 28.1509L81.1668 32.009C81.1867 32.0588 81.2033 32.1103 81.2166 32.1635C81.2332 32.2134 81.2482 32.2649 81.2615 32.318C81.2781 32.2649 81.2947 32.2134 81.3113 32.1635C81.3313 32.1103 81.3512 32.0588 81.3711 32.009L83.021 28.1509C83.0377 28.1143 83.0609 28.0861 83.0908 28.0661C83.1207 28.0429 83.154 28.0313 83.1905 28.0313H83.5544ZM85.9067 33.0707C85.5711 33.0707 85.3085 32.9777 85.1191 32.7916C84.933 32.6055 84.84 32.318 84.84 31.9292V28.5397H84.1272C84.0906 28.5397 84.0607 28.5297 84.0374 28.5098C84.0142 28.4898 84.0026 28.4616 84.0026 28.425V28.2406L84.8499 28.1808L84.9696 26.4063C84.9762 26.3764 84.9895 26.3498 85.0095 26.3265C85.0294 26.3032 85.0576 26.2916 85.0942 26.2916H85.3185V28.1858H86.8837V28.5397H85.3185V31.9043C85.3185 32.0406 85.3351 32.1585 85.3683 32.2582C85.4049 32.3546 85.4531 32.4343 85.5129 32.4975C85.576 32.5606 85.6491 32.6071 85.7322 32.6371C85.8153 32.667 85.905 32.6819 86.0014 32.6819C86.121 32.6819 86.224 32.6653 86.3104 32.6321C86.3968 32.5955 86.4716 32.5573 86.5348 32.5174C86.5979 32.4742 86.6494 32.436 86.6893 32.4028C86.7292 32.3662 86.7607 32.3479 86.784 32.3479C86.8106 32.3479 86.8372 32.3646 86.8637 32.3978L86.9933 32.6071C86.8671 32.7467 86.7059 32.8597 86.5098 32.9461C86.3171 33.0292 86.116 33.0707 85.9067 33.0707ZM91.2833 28.6942C91.2667 28.7108 91.2501 28.7258 91.2335 28.7391C91.2202 28.749 91.2002 28.754 91.1737 28.754C91.1404 28.754 91.0956 28.7324 91.0391 28.6892C90.9826 28.6427 90.9061 28.5929 90.8098 28.5397C90.7134 28.4865 90.5921 28.4383 90.4459 28.3951C90.303 28.3486 90.1285 28.3253 89.9225 28.3253C89.6367 28.3253 89.3825 28.3769 89.1599 28.4799C88.9405 28.5796 88.7544 28.7241 88.6016 28.9135C88.4487 29.1029 88.3324 29.3322 88.2527 29.6014C88.1762 29.8706 88.138 30.173 88.138 30.5086C88.138 30.8575 88.1779 31.1666 88.2576 31.4358C88.3407 31.7049 88.457 31.9326 88.6066 32.1187C88.7561 32.3014 88.9372 32.441 89.1499 32.5374C89.3626 32.6337 89.5985 32.6819 89.8577 32.6819C90.097 32.6819 90.2964 32.6537 90.4559 32.5972C90.6187 32.5407 90.7516 32.4792 90.8546 32.4127C90.961 32.3463 91.0441 32.2848 91.1039 32.2283C91.1637 32.1718 91.2135 32.1436 91.2534 32.1436C91.2933 32.1436 91.3265 32.1602 91.3531 32.1934L91.4777 32.3529C91.4013 32.4526 91.3049 32.5457 91.1886 32.6321C91.0723 32.7185 90.941 32.7932 90.7948 32.8564C90.6486 32.9195 90.4891 32.9677 90.3163 33.0009C90.1468 33.0375 89.969 33.0558 89.7829 33.0558C89.4673 33.0558 89.1781 32.9993 88.9156 32.8863C88.6564 32.77 88.4321 32.6038 88.2427 32.3878C88.0566 32.1685 87.9104 31.901 87.804 31.5853C87.701 31.2696 87.6495 30.9107 87.6495 30.5086C87.6495 30.1298 87.6994 29.7842 87.7991 29.4718C87.8988 29.1594 88.045 28.8903 88.2377 28.6643C88.4304 28.4383 88.6647 28.2639 88.9405 28.1409C89.2197 28.0146 89.5387 27.9515 89.8976 27.9515C90.2199 27.9515 90.5057 28.003 90.7549 28.106C91.0042 28.209 91.2218 28.3486 91.4079 28.5247L91.2833 28.6942ZM101.713 26.7951C101.683 26.8516 101.64 26.8798 101.583 26.8798C101.54 26.8798 101.483 26.8499 101.414 26.7901C101.347 26.7269 101.256 26.6588 101.139 26.5857C101.023 26.5093 100.877 26.4395 100.701 26.3764C100.528 26.3132 100.314 26.2816 100.058 26.2816C99.8019 26.2816 99.5759 26.3182 99.3799 26.3913C99.1871 26.4644 99.0243 26.5641 98.8914 26.6904C98.7618 26.8167 98.6621 26.9629 98.5923 27.129C98.5258 27.2952 98.4926 27.4696 98.4926 27.6524C98.4926 27.8917 98.5424 28.0894 98.6421 28.2456C98.7451 28.4018 98.8797 28.5347 99.0459 28.6444C99.212 28.754 99.3998 28.8471 99.6091 28.9235C99.8218 28.9966 100.039 29.0697 100.262 29.1428C100.485 29.2159 100.701 29.2973 100.91 29.3871C101.123 29.4735 101.312 29.5831 101.478 29.7161C101.645 29.849 101.777 30.0135 101.877 30.2095C101.98 30.4023 102.032 30.6432 102.032 30.9323C102.032 31.2281 101.98 31.5072 101.877 31.7697C101.777 32.0289 101.631 32.2549 101.439 32.4476C101.246 32.6404 101.01 32.7932 100.731 32.9062C100.452 33.0159 100.133 33.0707 99.7736 33.0707C99.3084 33.0707 98.908 32.9893 98.5723 32.8265C98.2367 32.6603 97.9426 32.4343 97.6901 32.1486L97.8296 31.9292C97.8695 31.8794 97.916 31.8545 97.9692 31.8545C97.9991 31.8545 98.0373 31.8744 98.0838 31.9143C98.1304 31.9542 98.1869 32.004 98.2533 32.0638C98.3198 32.1203 98.3995 32.1835 98.4926 32.2532C98.5856 32.3197 98.6936 32.3828 98.8166 32.4427C98.9395 32.4991 99.0808 32.5473 99.2403 32.5872C99.3998 32.6271 99.5809 32.647 99.7836 32.647C100.063 32.647 100.312 32.6055 100.531 32.5224C100.751 32.436 100.935 32.3197 101.085 32.1735C101.237 32.0273 101.354 31.8545 101.434 31.6551C101.513 31.4524 101.553 31.2364 101.553 31.0071C101.553 30.7578 101.502 30.5535 101.399 30.394C101.299 30.2311 101.166 30.0966 101 29.9902C100.834 29.8806 100.644 29.7892 100.432 29.7161C100.222 29.643 100.006 29.5715 99.7836 29.5017C99.561 29.4319 99.3433 29.3538 99.1306 29.2674C98.9213 29.181 98.7335 29.0714 98.5674 28.9385C98.4012 28.8022 98.2666 28.6344 98.1636 28.435C98.0639 28.2323 98.0141 27.9797 98.0141 27.6773C98.0141 27.4414 98.0589 27.2138 98.1486 26.9944C98.2384 26.7751 98.3696 26.5824 98.5424 26.4162C98.7152 26.2468 98.9279 26.1122 99.1805 26.0125C99.4363 25.9095 99.7271 25.8579 100.053 25.8579C100.418 25.8579 100.746 25.9161 101.035 26.0324C101.327 26.1487 101.593 26.3265 101.832 26.5658L101.713 26.7951ZM106.83 30.0102C106.83 29.7443 106.791 29.5067 106.715 29.2973C106.642 29.0847 106.537 28.9052 106.401 28.759C106.265 28.6128 106.102 28.5015 105.912 28.425C105.726 28.3453 105.52 28.3054 105.294 28.3054C105.038 28.3054 104.809 28.3453 104.606 28.425C104.404 28.5048 104.228 28.6194 104.078 28.769C103.932 28.9185 103.814 29.098 103.724 29.3073C103.634 29.5167 103.575 29.751 103.545 30.0102H106.83ZM103.52 30.3142V30.4089C103.52 30.7811 103.563 31.1084 103.649 31.3909C103.736 31.6734 103.859 31.911 104.018 32.1037C104.178 32.2931 104.371 32.436 104.597 32.5324C104.822 32.6287 105.075 32.6769 105.354 32.6769C105.603 32.6769 105.819 32.6503 106.002 32.5972C106.185 32.5407 106.338 32.4792 106.461 32.4127C106.587 32.343 106.687 32.2815 106.76 32.2283C106.833 32.1718 106.886 32.1436 106.919 32.1436C106.963 32.1436 106.996 32.1602 107.019 32.1934L107.149 32.3529C107.069 32.4526 106.963 32.5457 106.83 32.6321C106.7 32.7185 106.554 32.7932 106.391 32.8564C106.231 32.9162 106.059 32.9644 105.873 33.0009C105.69 33.0375 105.505 33.0558 105.319 33.0558C104.98 33.0558 104.671 32.9976 104.392 32.8813C104.113 32.7617 103.874 32.5889 103.674 32.3629C103.475 32.1369 103.32 31.8611 103.211 31.5355C103.104 31.2065 103.051 30.831 103.051 30.4089C103.051 30.0534 103.101 29.726 103.201 29.427C103.304 29.1245 103.45 28.8653 103.639 28.6493C103.832 28.43 104.066 28.2589 104.342 28.1359C104.621 28.013 104.937 27.9515 105.289 27.9515C105.569 27.9515 105.828 27.9997 106.067 28.0961C106.306 28.1924 106.514 28.3337 106.69 28.5197C106.866 28.7025 107.004 28.9285 107.104 29.1977C107.207 29.4668 107.258 29.7759 107.258 30.1248C107.258 30.1979 107.248 30.2478 107.228 30.2743C107.208 30.3009 107.175 30.3142 107.129 30.3142H103.52ZM109.003 29.2276C109.079 29.0249 109.166 28.8454 109.262 28.6892C109.362 28.5297 109.475 28.3951 109.601 28.2855C109.731 28.1758 109.873 28.0927 110.03 28.0362C110.189 27.9764 110.365 27.9465 110.558 27.9465C110.661 27.9465 110.762 27.9565 110.862 27.9764C110.962 27.993 111.05 28.0246 111.126 28.0711L111.086 28.4001C111.07 28.4533 111.038 28.4799 110.992 28.4799C110.952 28.4799 110.89 28.4682 110.807 28.445C110.727 28.4217 110.621 28.4101 110.488 28.4101C110.295 28.4101 110.124 28.44 109.975 28.4998C109.829 28.5563 109.696 28.6427 109.576 28.759C109.46 28.8753 109.357 29.0199 109.267 29.1927C109.181 29.3622 109.101 29.5582 109.028 29.7809V32.991H108.549V28.0313H108.803C108.86 28.0313 108.9 28.0429 108.923 28.0661C108.946 28.0894 108.961 28.1293 108.968 28.1858L109.003 29.2276ZM116.056 28.0313L113.963 32.991H113.544L111.45 28.0313H111.824C111.871 28.0313 111.909 28.0445 111.939 28.0711C111.969 28.0944 111.989 28.121 111.999 28.1509L113.639 32.0638C113.688 32.21 113.728 32.3546 113.758 32.4975C113.788 32.3546 113.83 32.21 113.883 32.0638L115.528 28.1509C115.544 28.1143 115.566 28.0861 115.593 28.0661C115.623 28.0429 115.657 28.0313 115.697 28.0313H116.056ZM117.606 28.0313V32.991H117.132V28.0313H117.606ZM117.81 26.3215C117.81 26.3813 117.797 26.4378 117.77 26.491C117.747 26.5408 117.716 26.5857 117.676 26.6256C117.636 26.6655 117.589 26.697 117.536 26.7203C117.483 26.7436 117.427 26.7552 117.367 26.7552C117.307 26.7552 117.25 26.7436 117.197 26.7203C117.144 26.697 117.098 26.6655 117.058 26.6256C117.018 26.5857 116.986 26.5408 116.963 26.491C116.94 26.4378 116.928 26.3813 116.928 26.3215C116.928 26.2617 116.94 26.2052 116.963 26.152C116.986 26.0956 117.018 26.0474 117.058 26.0075C117.098 25.9676 117.144 25.936 117.197 25.9128C117.25 25.8895 117.307 25.8779 117.367 25.8779C117.427 25.8779 117.483 25.8895 117.536 25.9128C117.589 25.936 117.636 25.9676 117.676 26.0075C117.716 26.0474 117.747 26.0956 117.77 26.152C117.797 26.2052 117.81 26.2617 117.81 26.3215ZM122.632 28.6942C122.615 28.7108 122.599 28.7258 122.582 28.7391C122.569 28.749 122.549 28.754 122.522 28.754C122.489 28.754 122.444 28.7324 122.388 28.6892C122.331 28.6427 122.255 28.5929 122.158 28.5397C122.062 28.4865 121.941 28.4383 121.795 28.3951C121.652 28.3486 121.477 28.3253 121.271 28.3253C120.985 28.3253 120.731 28.3769 120.509 28.4799C120.289 28.5796 120.103 28.7241 119.95 28.9135C119.797 29.1029 119.681 29.3322 119.601 29.6014C119.525 29.8706 119.487 30.173 119.487 30.5086C119.487 30.8575 119.527 31.1666 119.606 31.4358C119.689 31.7049 119.806 31.9326 119.955 32.1187C120.105 32.3014 120.286 32.441 120.499 32.5374C120.711 32.6337 120.947 32.6819 121.206 32.6819C121.446 32.6819 121.645 32.6537 121.805 32.5972C121.967 32.5407 122.1 32.4792 122.203 32.4127C122.31 32.3463 122.393 32.2848 122.453 32.2283C122.512 32.1718 122.562 32.1436 122.602 32.1436C122.642 32.1436 122.675 32.1602 122.702 32.1934L122.826 32.3529C122.75 32.4526 122.654 32.5457 122.537 32.6321C122.421 32.7185 122.29 32.7932 122.144 32.8564C121.997 32.9195 121.838 32.9677 121.665 33.0009C121.496 33.0375 121.318 33.0558 121.132 33.0558C120.816 33.0558 120.527 32.9993 120.264 32.8863C120.005 32.77 119.781 32.6038 119.591 32.3878C119.405 32.1685 119.259 31.901 119.153 31.5853C119.05 31.2696 118.998 30.9107 118.998 30.5086C118.998 30.1298 119.048 29.7842 119.148 29.4718C119.247 29.1594 119.394 28.8903 119.586 28.6643C119.779 28.4383 120.013 28.2639 120.289 28.1409C120.568 28.0146 120.887 27.9515 121.246 27.9515C121.569 27.9515 121.854 28.003 122.104 28.106C122.353 28.209 122.571 28.3486 122.757 28.5247L122.632 28.6942ZM127.382 30.0102C127.382 29.7443 127.343 29.5067 127.267 29.2973C127.194 29.0847 127.089 28.9052 126.953 28.759C126.817 28.6128 126.654 28.5015 126.464 28.425C126.278 28.3453 126.072 28.3054 125.846 28.3054C125.59 28.3054 125.361 28.3453 125.158 28.425C124.956 28.5048 124.78 28.6194 124.63 28.769C124.484 28.9185 124.366 29.098 124.276 29.3073C124.186 29.5167 124.127 29.751 124.097 30.0102H127.382ZM124.072 30.3142V30.4089C124.072 30.7811 124.115 31.1084 124.201 31.3909C124.288 31.6734 124.411 31.911 124.57 32.1037C124.73 32.2931 124.922 32.436 125.148 32.5324C125.374 32.6287 125.627 32.6769 125.906 32.6769C126.155 32.6769 126.371 32.6503 126.554 32.5972C126.737 32.5407 126.89 32.4792 127.013 32.4127C127.139 32.343 127.239 32.2815 127.312 32.2283C127.385 32.1718 127.438 32.1436 127.471 32.1436C127.514 32.1436 127.548 32.1602 127.571 32.1934L127.701 32.3529C127.621 32.4526 127.514 32.5457 127.382 32.6321C127.252 32.7185 127.106 32.7932 126.943 32.8564C126.783 32.9162 126.611 32.9644 126.424 33.0009C126.242 33.0375 126.057 33.0558 125.871 33.0558C125.532 33.0558 125.223 32.9976 124.944 32.8813C124.665 32.7617 124.426 32.5889 124.226 32.3629C124.027 32.1369 123.872 31.8611 123.763 31.5355C123.656 31.2065 123.603 30.831 123.603 30.4089C123.603 30.0534 123.653 29.726 123.753 29.427C123.856 29.1245 124.002 28.8653 124.191 28.6493C124.384 28.43 124.618 28.2589 124.894 28.1359C125.173 28.013 125.489 27.9515 125.841 27.9515C126.12 27.9515 126.38 27.9997 126.619 28.0961C126.858 28.1924 127.066 28.3337 127.242 28.5197C127.418 28.7025 127.556 28.9285 127.656 29.1977C127.759 29.4668 127.81 29.7759 127.81 30.1248C127.81 30.1979 127.8 30.2478 127.78 30.2743C127.76 30.3009 127.727 30.3142 127.681 30.3142H124.072Z" fill="white"/>
<path d="M42.8529 6.74361L32.0294 16.6854L21.4188 6.07475L10.8082 16.6854L0 6.91083V5.25387L10.8082 15.0132L21.4188 4.40259L32.0294 15.0132L42.8529 5.08665V6.74361Z" fill="url(#paint0_linear)"/>
<path d="M42.8529 13.9643L32.0294 21.261L21.4188 13.4475L10.8082 21.3522L0 13.9643V12.3074L10.8082 19.6801L21.4188 11.7905L32.0294 19.6041L42.8529 12.3074V13.9643Z" fill="url(#paint1_linear)"/>
<path d="M42.8529 22.3708L32.0294 25.0766L21.4188 20.6682L10.8082 25.1678L0 20.9266V19.2545L10.8082 23.5109L21.4188 19.0112L32.0294 23.4197L42.8529 20.6986V22.3708Z" fill="url(#paint2_linear)"/>
<path d="M42.8529 27.8129L32.0294 29.0898L21.4188 26.7184L10.8082 29.0898L0 27.0528V25.5479L10.8082 27.5849L21.4188 25.1982L32.0294 27.5849L42.8529 26.3079V27.8129Z" fill="url(#paint3_linear)"/>
<path d="M42.8529 32.6469H32.0294H21.4188H10.8082H0V31.4004H10.8082H21.4188H32.0294H42.8529V32.6469Z" fill="url(#paint4_linear)"/>
<defs>
<linearGradient id="paint0_linear" x1="21.4264" y1="32.5709" x2="21.4264" y2="4.57807" gradientUnits="userSpaceOnUse">
<stop stop-color="#00A199"/>
<stop offset="1" stop-color="#B0CCC0"/>
</linearGradient>
<linearGradient id="paint1_linear" x1="21.4264" y1="32.571" x2="21.4264" y2="4.57811" gradientUnits="userSpaceOnUse">
<stop stop-color="#00A199"/>
<stop offset="1" stop-color="#B0CCC0"/>
</linearGradient>
<linearGradient id="paint2_linear" x1="21.4264" y1="32.571" x2="21.4264" y2="4.57812" gradientUnits="userSpaceOnUse">
<stop stop-color="#00A199"/>
<stop offset="1" stop-color="#B0CCC0"/>
</linearGradient>
<linearGradient id="paint3_linear" x1="21.4264" y1="32.2937" x2="21.4264" y2="5.35431" gradientUnits="userSpaceOnUse">
<stop stop-color="#00A199"/>
<stop offset="1" stop-color="#B0CCC0"/>
</linearGradient>
<linearGradient id="paint4_linear" x1="21.4264" y1="32.5709" x2="21.4264" y2="4.57806" gradientUnits="userSpaceOnUse">
<stop stop-color="#00A199"/>
<stop offset="1" stop-color="#B0CCC0"/>
</linearGradient>
</defs>
</svg>
