<svg width="15" height="15" viewBox="0 0 15 15" fill="none" xmlns="http://www.w3.org/2000/svg">
<path d="M14.0483 9.56532C13.9268 9.56532 13.8285 9.66374 13.8285 9.78505L13.8114 13.7186H9.28226V9.56017C9.28226 9.27739 9.05223 9.04736 8.76956 9.04736H6.23126C5.94859 9.04736 5.71857 9.2775 5.71857 9.56017V13.7186H1.18945V9.36597C1.18945 9.24466 1.09115 9.14624 0.969727 9.14624C0.848305 9.14624 0.75 9.24466 0.75 9.36597V13.8212C0.75 14.0069 0.901176 14.1581 1.08691 14.1581H13.9139C14.0996 14.1581 14.2508 14.0069 14.2508 13.8212L14.268 9.78505C14.268 9.66374 14.1697 9.56532 14.0483 9.56532ZM6.15802 13.7186V9.56017C6.15802 9.51978 6.19086 9.48682 6.23126 9.48682H8.76956C8.80996 9.48682 8.8428 9.51978 8.8428 9.56017V13.7186H6.15802Z" fill="#6CB7B2"/>
<path d="M12.9878 12.8504C13.2458 12.8504 13.4557 12.6405 13.4557 12.3826V9.98481C13.4557 9.72686 13.2458 9.51709 12.9878 9.51709H10.2686C10.0107 9.51709 9.80078 9.72686 9.80078 9.98481V12.3826C9.80078 12.6405 10.0107 12.8504 10.2686 12.8504H12.9878ZM10.2402 12.3826V9.98481C10.2402 9.96925 10.2529 9.95654 10.2686 9.95654H12.9878C13.0035 9.95654 13.0162 9.96925 13.0162 9.98481V12.3826C13.0162 12.3983 13.0035 12.411 12.9878 12.411H10.2686C10.2529 12.411 10.2402 12.3983 10.2402 12.3826Z" fill="#6CB7B2"/>
<path d="M4.73199 12.8504C4.98994 12.8504 5.19982 12.6405 5.19982 12.3826V9.98481C5.19982 9.72686 4.98994 9.51709 4.73199 9.51709H2.01276C1.75481 9.51709 1.54492 9.72686 1.54492 9.98481V12.3826C1.54492 12.6405 1.75481 12.8504 2.01276 12.8504H4.73199ZM1.98437 12.3826V9.98481C1.98437 9.96925 1.99708 9.95654 2.01276 9.95654H4.73199C4.74766 9.95654 4.76037 9.96925 4.76037 9.98481V12.3826C4.76037 12.3983 4.74766 12.411 4.73199 12.411H2.01276C1.99708 12.411 1.98437 12.3983 1.98437 12.3826Z" fill="#6CB7B2"/>
<path d="M14.3543 4.08897C14.3543 3.85426 14.5453 3.66337 14.7803 3.66337C14.9017 3.66337 15 3.56495 15 3.44364V2.906C15 2.78469 14.9017 2.68627 14.7803 2.68627H10.3621C10.2406 2.68627 10.1423 2.78469 10.1423 2.906C10.1423 3.02742 10.2406 3.12572 10.3621 3.12572H14.5605V3.25218C14.2597 3.33115 14.0222 3.5685 13.9431 3.86925H10.4865V1.91872C10.4865 1.32923 10.0068 0.849609 9.41734 0.849609H5.58277C4.99317 0.849609 4.51366 1.32923 4.51366 1.91872V2.68627H0.219727C0.0983048 2.68627 0 2.78469 0 2.906V3.44364C0 3.56495 0.0983048 3.66337 0.219727 3.66337C0.454674 3.66337 0.645676 3.85426 0.645676 4.08897C0.645676 4.16828 0.687675 4.23775 0.750618 4.27643V5.77721H0.355225C0.169373 5.77721 0.0181961 5.92838 0.0181961 6.11412V7.3106C0.0181961 7.49634 0.169373 7.64751 0.355225 7.64751H0.750618V9.33838C0.750618 9.45969 0.848923 9.55811 0.970345 9.55811C1.09177 9.55811 1.19007 9.45969 1.19007 9.33838V7.64751H13.8281V9.74888C13.8281 9.87019 13.9264 9.96861 14.0479 9.96861C14.1692 9.96861 14.2676 9.87019 14.2676 9.74888V7.64751H14.663C14.8488 7.64751 15 7.49634 15 7.3106V6.11412C15 5.92838 14.8488 5.77721 14.663 5.77721H14.2676V4.26395C14.3202 4.22379 14.3543 4.16039 14.3543 4.08897ZM4.953 1.91872C4.953 1.5715 5.23556 1.28906 5.58266 1.28906H9.41723C9.76444 1.28906 10.0469 1.5715 10.0469 1.91872V4.31614C10.0469 4.66335 9.76444 4.94579 9.41723 4.94579H5.58277C5.23556 4.94579 4.95312 4.66335 4.95312 4.31614V1.91872H4.953ZM14.5605 7.20806H0.457649V6.21666H14.5605V7.20806ZM1.19007 5.77721V4.3087H4.52843C4.64985 4.3087 4.74815 4.2104 4.74815 4.08897C4.74815 3.96767 4.64985 3.86925 4.52843 3.86925H1.05686C0.977783 3.5685 0.740318 3.33115 0.439453 3.25218V3.12572H4.51355V4.31625C4.51355 4.90574 4.99317 5.38536 5.58266 5.38536H9.41723C10.0068 5.38536 10.4863 4.90574 10.4863 4.31625V4.30882H13.828V5.77721H1.19007Z" fill="#6CB7B2"/>
<path d="M6.64941 11.3833H6.47363C6.35221 11.3833 6.25391 11.4817 6.25391 11.603C6.25391 11.7243 6.35221 11.8228 6.47363 11.8228H6.64941C6.77084 11.8228 6.86914 11.7243 6.86914 11.603C6.86914 11.4817 6.77084 11.3833 6.64941 11.3833Z" fill="#6CB7B2"/>
<path d="M5.92664 2.16602H6.19592L6.47218 3.48666C6.52574 3.74255 6.75439 3.92841 7.01589 3.92841H8.32063C8.55032 3.92841 8.75917 3.78398 8.84031 3.56918L9.27118 2.42854C9.31215 2.31994 9.29727 2.19817 9.23135 2.10284C9.16544 2.0074 9.05672 1.95041 8.94079 1.95041H7.09543C6.97412 1.95041 6.8757 2.04871 6.8757 2.17014C6.8757 2.29144 6.97412 2.38986 7.09543 2.38986H8.81605L8.42924 3.41388C8.4123 3.45874 8.3687 3.48895 8.32075 3.48895H7.01589C6.9613 3.48895 6.91358 3.45004 6.90237 3.39671L6.62496 2.07092C6.58319 1.87133 6.40501 1.72656 6.20107 1.72656H5.92676C5.80534 1.72656 5.70703 1.82487 5.70703 1.94629C5.70703 2.0676 5.80534 2.16602 5.92664 2.16602Z" fill="#6CB7B2"/>
<path d="M7.05566 4.11279H6.99707C6.87565 4.11279 6.77734 4.2111 6.77734 4.33252C6.77734 4.45383 6.87565 4.55225 6.99707 4.55225H7.05566C7.17709 4.55225 7.27539 4.45383 7.27539 4.33252C7.27539 4.2111 7.17709 4.11279 7.05566 4.11279Z" fill="#6CB7B2"/>
<path d="M8.00488 4.11279H7.94629C7.82487 4.11279 7.72656 4.2111 7.72656 4.33252C7.72656 4.45383 7.82487 4.55225 7.94629 4.55225H8.00488C8.1263 4.55225 8.22461 4.45383 8.22461 4.33252C8.22461 4.2111 8.1263 4.11279 8.00488 4.11279Z" fill="#6CB7B2"/>
</svg>
