<svg width="15" height="15" viewBox="0 0 15 15" fill="none" xmlns="http://www.w3.org/2000/svg">
<path d="M13.5683 14.311H13.3339V2.35791C13.3339 2.29575 13.3092 2.23614 13.2652 2.19218C13.2213 2.14823 13.1617 2.12354 13.0995 2.12354H11.6933V0.95166C11.6933 0.8895 11.6686 0.829886 11.6246 0.785932C11.5807 0.741978 11.521 0.717285 11.4589 0.717285H6.30263C6.24047 0.717285 6.18085 0.741978 6.1369 0.785932C6.09295 0.829886 6.06825 0.8895 6.06825 0.95166V2.12354H4.662C4.59984 2.12354 4.54023 2.14823 4.49627 2.19218C4.45232 2.23614 4.42763 2.29575 4.42763 2.35791V14.311H2.787V12.6534C3.10465 12.6075 3.40187 12.4695 3.64186 12.2564C3.88185 12.0433 4.05406 11.7645 4.13718 11.4545C4.22029 11.1445 4.21066 10.8169 4.10947 10.5123C4.00828 10.2078 3.81998 9.93956 3.56788 9.74093C3.67059 9.56277 3.7246 9.36072 3.7245 9.15508C3.7244 8.94944 3.67019 8.74744 3.56731 8.56938C3.46443 8.39132 3.31651 8.24347 3.1384 8.14068C2.96029 8.03789 2.75827 7.98378 2.55263 7.98378C2.34699 7.98378 2.14496 8.03789 1.96685 8.14068C1.78875 8.24347 1.64082 8.39132 1.53794 8.56938C1.43507 8.74744 1.38085 8.94944 1.38075 9.15508C1.38065 9.36072 1.43467 9.56277 1.53737 9.74093C1.28528 9.93956 1.09698 10.2078 0.995787 10.5123C0.894597 10.8169 0.884964 11.1445 0.968079 11.4545C1.05119 11.7645 1.22341 12.0433 1.46339 12.2564C1.70338 12.4695 2.0006 12.6075 2.31825 12.6534V13.8106L2.79784 13.5084C2.77608 13.4867 2.75024 13.4694 2.72181 13.4576C2.69337 13.4458 2.66289 13.4398 2.63211 13.4398C2.60133 13.4398 2.57085 13.4458 2.54242 13.4576C2.51398 13.4694 2.48814 13.4867 2.46638 13.5084C2.44461 13.5302 2.42735 13.556 2.41557 13.5845C2.40379 13.6129 2.39773 13.6434 2.39773 13.6741C2.39773 13.7049 2.40379 13.7354 2.41557 13.7638C2.42735 13.7923 2.44461 13.8181 2.46638 13.8399L2.47733 13.239C2.47733 13.239 2.30053 13.8005 2.31825 13.8106V14.311H2.20412C2.14196 14.311 2.08235 14.3357 2.03839 14.3797C1.99444 14.4236 1.96975 14.4833 1.96975 14.5454C1.96975 14.6076 1.99444 14.6672 2.03839 14.7111C2.08235 14.7551 2.14196 14.7798 2.20412 14.7798H13.5683C13.6304 14.7798 13.69 14.7551 13.734 14.7111C13.7779 14.6672 13.8026 14.6076 13.8026 14.5454C13.8026 14.4833 13.7779 14.4236 13.734 14.3797C13.69 14.3357 13.6304 14.311 13.5683 14.311ZM2.55263 10.561C2.49047 10.561 2.43085 10.5857 2.3869 10.6297C2.34295 10.6736 2.31825 10.7333 2.31825 10.7954V12.1782C2.08345 12.1303 1.86899 12.0115 1.70377 11.8379C1.53854 11.6643 1.4305 11.4443 1.39419 11.2074C1.35789 10.9705 1.39507 10.7282 1.50072 10.5131C1.60637 10.298 1.77542 10.1205 1.98509 10.0044C2.01638 9.98707 2.04329 9.96282 2.06377 9.93349C2.08424 9.90415 2.09772 9.87053 2.10319 9.83518C2.10866 9.79983 2.10597 9.7637 2.09532 9.72956C2.08467 9.69541 2.06634 9.66416 2.04175 9.63818C1.94735 9.53836 1.88427 9.41306 1.86029 9.27778C1.83632 9.14249 1.8525 9.00315 1.90685 8.87696C1.96119 8.75077 2.05132 8.64327 2.16609 8.56774C2.28085 8.49221 2.41524 8.45196 2.55263 8.45196C2.69002 8.45196 2.8244 8.49221 2.93917 8.56774C3.05394 8.64327 3.14406 8.75077 3.19841 8.87696C3.25275 9.00315 3.26894 9.14249 3.24497 9.27778C3.22099 9.41306 3.15791 9.53836 3.06351 9.63818C3.03891 9.66416 3.02059 9.69541 3.00994 9.72956C2.99929 9.7637 2.99659 9.79983 3.00206 9.83518C3.00753 9.87053 3.02102 9.90415 3.04149 9.93349C3.06196 9.96282 3.08887 9.98707 3.12017 10.0044C3.32983 10.1205 3.49888 10.298 3.60453 10.5131C3.71019 10.7282 3.74737 10.9705 3.71106 11.2074C3.67476 11.4443 3.56671 11.6643 3.40149 11.8379C3.23627 12.0115 3.0218 12.1303 2.787 12.1782V10.7954C2.787 10.7333 2.76231 10.6736 2.71836 10.6297C2.6744 10.5857 2.61479 10.561 2.55263 10.561ZM6.537 1.18604H11.2245V2.12354H6.537V1.18604ZM8.64638 14.311H7.94325V11.4985H8.64638V14.311ZM9.81825 14.311H9.11513V11.4985H9.81825V14.311ZM12.8651 14.311H10.287V11.2642C10.287 11.202 10.2623 11.1424 10.2184 11.0984C10.1744 11.0545 10.1148 11.0298 10.0526 11.0298H7.70888C7.64672 11.0298 7.5871 11.0545 7.54315 11.0984C7.4992 11.1424 7.4745 11.202 7.4745 11.2642V14.311H4.89638V2.59229H12.8651V14.311Z" fill="#6CB7B2"/>
<path d="M9.84375 8.20312H7.96875C7.90659 8.20312 7.84698 8.22782 7.80302 8.27177C7.75907 8.31573 7.73438 8.37534 7.73438 8.4375V10.3125C7.73438 10.3747 7.75907 10.4343 7.80302 10.4782C7.84698 10.5222 7.90659 10.5469 7.96875 10.5469H9.84375C9.90591 10.5469 9.96552 10.5222 10.0095 10.4782C10.0534 10.4343 10.0781 10.3747 10.0781 10.3125V8.4375C10.0781 8.37534 10.0534 8.31573 10.0095 8.27177C9.96552 8.22782 9.90591 8.20312 9.84375 8.20312ZM9.60938 10.0781H8.20312V8.67188H9.60938V10.0781Z" fill="#6CB7B2"/>
<path d="M7.26562 8.20312H5.39062C5.32846 8.20312 5.26885 8.22782 5.2249 8.27177C5.18094 8.31573 5.15625 8.37534 5.15625 8.4375V10.3125C5.15625 10.3747 5.18094 10.4343 5.2249 10.4782C5.26885 10.5222 5.32846 10.5469 5.39062 10.5469H7.26562C7.32779 10.5469 7.3874 10.5222 7.43135 10.4782C7.47531 10.4343 7.5 10.3747 7.5 10.3125V8.4375C7.5 8.37534 7.47531 8.31573 7.43135 8.27177C7.3874 8.22782 7.32779 8.20312 7.26562 8.20312ZM7.03125 10.0781H5.625V8.67188H7.03125V10.0781Z" fill="#6CB7B2"/>
<path d="M12.4219 8.20312H10.5469C10.4847 8.20312 10.4251 8.22782 10.3811 8.27177C10.3372 8.31573 10.3125 8.37534 10.3125 8.4375V10.3125C10.3125 10.3747 10.3372 10.4343 10.3811 10.4782C10.4251 10.5222 10.4847 10.5469 10.5469 10.5469H12.4219C12.484 10.5469 12.5436 10.5222 12.5876 10.4782C12.6316 10.4343 12.6562 10.3747 12.6562 10.3125V8.4375C12.6562 8.37534 12.6316 8.31573 12.5876 8.27177C12.5436 8.22782 12.484 8.20312 12.4219 8.20312ZM12.1875 10.0781H10.7812V8.67188H12.1875V10.0781Z" fill="#6CB7B2"/>
<path d="M9.84375 5.625H7.96875C7.90659 5.625 7.84698 5.64969 7.80302 5.69365C7.75907 5.7376 7.73438 5.79721 7.73438 5.85938V7.73438C7.73438 7.79654 7.75907 7.85615 7.80302 7.9001C7.84698 7.94406 7.90659 7.96875 7.96875 7.96875H9.84375C9.90591 7.96875 9.96552 7.94406 10.0095 7.9001C10.0534 7.85615 10.0781 7.79654 10.0781 7.73438V5.85938C10.0781 5.79721 10.0534 5.7376 10.0095 5.69365C9.96552 5.64969 9.90591 5.625 9.84375 5.625ZM9.60938 7.5H8.20312V6.09375H9.60938V7.5Z" fill="#6CB7B2"/>
<path d="M7.26562 5.625H5.39062C5.32846 5.625 5.26885 5.64969 5.2249 5.69365C5.18094 5.7376 5.15625 5.79721 5.15625 5.85938V7.73438C5.15625 7.79654 5.18094 7.85615 5.2249 7.9001C5.26885 7.94406 5.32846 7.96875 5.39062 7.96875H7.26562C7.32779 7.96875 7.3874 7.94406 7.43135 7.9001C7.47531 7.85615 7.5 7.79654 7.5 7.73438V5.85938C7.5 5.79721 7.47531 5.7376 7.43135 5.69365C7.3874 5.64969 7.32779 5.625 7.26562 5.625ZM7.03125 7.5H5.625V6.09375H7.03125V7.5Z" fill="#6CB7B2"/>
<path d="M12.4219 5.625H10.5469C10.4847 5.625 10.4251 5.64969 10.3811 5.69365C10.3372 5.7376 10.3125 5.79721 10.3125 5.85938V7.73438C10.3125 7.79654 10.3372 7.85615 10.3811 7.9001C10.4251 7.94406 10.4847 7.96875 10.5469 7.96875H12.4219C12.484 7.96875 12.5436 7.94406 12.5876 7.9001C12.6316 7.85615 12.6562 7.79654 12.6562 7.73438V5.85938C12.6562 5.79721 12.6316 5.7376 12.5876 5.69365C12.5436 5.64969 12.484 5.625 12.4219 5.625ZM12.1875 7.5H10.7812V6.09375H12.1875V7.5Z" fill="#6CB7B2"/>
<path d="M9.84375 3.04688H7.96875C7.90659 3.04688 7.84698 3.07157 7.80302 3.11552C7.75907 3.15948 7.73438 3.21909 7.73438 3.28125V5.15625C7.73438 5.21841 7.75907 5.27802 7.80302 5.32198C7.84698 5.36593 7.90659 5.39062 7.96875 5.39062H9.84375C9.90591 5.39062 9.96552 5.36593 10.0095 5.32198C10.0534 5.27802 10.0781 5.21841 10.0781 5.15625V3.28125C10.0781 3.21909 10.0534 3.15948 10.0095 3.11552C9.96552 3.07157 9.90591 3.04688 9.84375 3.04688ZM9.60938 4.92188H8.20312V3.51562H9.60938V4.92188Z" fill="#6CB7B2"/>
<path d="M7.26562 3.04688H5.39062C5.32846 3.04688 5.26885 3.07157 5.2249 3.11552C5.18094 3.15948 5.15625 3.21909 5.15625 3.28125V5.15625C5.15625 5.21841 5.18094 5.27802 5.2249 5.32198C5.26885 5.36593 5.32846 5.39062 5.39062 5.39062H7.26562C7.32779 5.39062 7.3874 5.36593 7.43135 5.32198C7.47531 5.27802 7.5 5.21841 7.5 5.15625V3.28125C7.5 3.21909 7.47531 3.15948 7.43135 3.11552C7.3874 3.07157 7.32779 3.04688 7.26562 3.04688ZM7.03125 4.92188H5.625V3.51562H7.03125V4.92188Z" fill="#6CB7B2"/>
<path d="M10.3125 3.28125V5.15625C10.3125 5.21841 10.3372 5.27802 10.3811 5.32198C10.4251 5.36593 10.4847 5.39062 10.5469 5.39062H12.4219C12.484 5.39062 12.5436 5.36593 12.5876 5.32198C12.6316 5.27802 12.6562 5.21841 12.6562 5.15625V3.28125C12.6562 3.21909 12.6316 3.15948 12.5876 3.11552C12.5436 3.07157 12.484 3.04688 12.4219 3.04688H10.5469C10.4847 3.04688 10.4251 3.07157 10.3811 3.11552C10.3372 3.15948 10.3125 3.21909 10.3125 3.28125ZM10.7812 3.51562H12.1875V4.92188H10.7812V3.51562Z" fill="#6CB7B2"/>
<path d="M2.8125 9.84375C2.8125 9.78159 2.78781 9.72198 2.74385 9.67802C2.6999 9.63407 2.64029 9.60938 2.57812 9.60938C2.51596 9.60938 2.45635 9.63407 2.4124 9.67802C2.36844 9.72198 2.34375 9.78159 2.34375 9.84375V10.0781C2.34375 10.1403 2.36844 10.1999 2.4124 10.2439C2.45635 10.2878 2.51596 10.3125 2.57812 10.3125C2.64029 10.3125 2.6999 10.2878 2.74385 10.2439C2.78781 10.1999 2.8125 10.1403 2.8125 10.0781V9.84375Z" fill="#6CB7B2"/>
</svg>
