<svg width="15" height="15" viewBox="0 0 15 15" fill="none" xmlns="http://www.w3.org/2000/svg">
<path d="M14.75 4.5H14.5V1.75C14.5 1.61194 14.3881 1.5 14.25 1.5H10V0.25C10 0.111938 9.88806 0 9.75 0H5.25C5.11194 0 5 0.111938 5 0.25V1.5H0.75C0.611938 1.5 0.5 1.61194 0.5 1.75V4.5H0.25C0.111938 4.5 0 4.61194 0 4.75V5.75C0 5.88806 0.111938 6 0.25 6H0.5V14.75C0.5 14.8881 0.611938 15 0.75 15H14.25C14.3881 15 14.5 14.8881 14.5 14.75V6H14.75C14.8881 6 15 5.88806 15 5.75V4.75C15 4.61194 14.8881 4.5 14.75 4.5ZM10 2H14V4.5H10V2ZM5.5 0.5H9.5V4.5H5.5V0.5ZM1 2H5V4.5H1V2ZM12.25 14.5H9V12.5H12.25V14.5ZM12.25 12H9V9.5H12.25V12ZM12.25 9H9V7.75H12.25V9ZM14 14.5H12.75V7.5C12.75 7.36194 12.6381 7.25 12.5 7.25H8.75C8.61194 7.25 8.5 7.36194 8.5 7.5V14.5H1V6H14V14.5ZM14.5 5.5H0.5V5H14.5V5.5Z" fill="#6CB7B2"/>
<path d="M2.5 12.75H7C7.13806 12.75 7.25 12.6381 7.25 12.5V11.25C7.25 11.1119 7.13806 11 7 11H6.75V7.5C6.75 7.36194 6.63806 7.25 6.5 7.25H3C2.86194 7.25 2.75 7.36194 2.75 7.5V11H2.5C2.36194 11 2.25 11.1119 2.25 11.25V12.5C2.25 12.6381 2.36194 12.75 2.5 12.75ZM3.25 7.75H6.25V11H3.25V7.75ZM2.75 11.5H6.75V12.25H2.75V11.5Z" fill="#6CB7B2"/>
<path d="M11.5 11C11.6381 11 11.75 10.8881 11.75 10.75V10.5C11.75 10.3619 11.6381 10.25 11.5 10.25C11.3619 10.25 11.25 10.3619 11.25 10.5V10.75C11.25 10.8881 11.3619 11 11.5 11Z" fill="#6CB7B2"/>
<path d="M8.75 1.75H8.25V1.25C8.25 1.11194 8.13806 1 8 1H7C6.86194 1 6.75 1.11194 6.75 1.25V1.75H6.25C6.11194 1.75 6 1.86194 6 2V3C6 3.13806 6.11194 3.25 6.25 3.25H6.75V3.75C6.75 3.88806 6.86194 4 7 4H8C8.13806 4 8.25 3.88806 8.25 3.75V3.25H8.75C8.88806 3.25 9 3.13806 9 3V2C9 1.86194 8.88806 1.75 8.75 1.75ZM8.5 2.75H8C7.86194 2.75 7.75 2.86194 7.75 3V3.5H7.25V3C7.25 2.86194 7.13806 2.75 7 2.75H6.5V2.25H7C7.13806 2.25 7.25 2.13806 7.25 2V1.5H7.75V2C7.75 2.13806 7.86194 2.25 8 2.25H8.5V2.75Z" fill="#6CB7B2"/>
<path d="M4.17591 9.4271L4.92591 8.6771C5.02064 8.57896 5.01929 8.42307 4.92286 8.32664C4.82642 8.2302 4.67054 8.22886 4.57239 8.32359L3.82239 9.07359C3.75745 9.13633 3.73133 9.22935 3.75428 9.31675C3.77711 9.40415 3.84534 9.47239 3.93275 9.49522C4.02015 9.51817 4.11317 9.49204 4.17591 9.4271Z" fill="#6CB7B2"/>
<path d="M5.32239 8.82359L4.07239 10.0736C4.00745 10.1363 3.98133 10.2293 4.00428 10.3168C4.02711 10.4042 4.09534 10.4724 4.18275 10.4952C4.27015 10.5182 4.36317 10.492 4.42591 10.4271L5.67591 9.1771C5.77064 9.07896 5.76929 8.92307 5.67286 8.82664C5.57642 8.7302 5.42054 8.72886 5.32239 8.82359Z" fill="#6CB7B2"/>
</svg>
