<svg width="22" height="22" viewBox="0 0 22 22" fill="none" xmlns="http://www.w3.org/2000/svg">
<path d="M20.9993 0.000976562H1.00028C0.447012 0.000976562 0 0.448925 0 1.00079V13.2424C0.279441 13.093 0.593987 13.0008 0.932406 13.0008H1.99962V12.5009H4.99951C5.27614 12.5009 5.49941 12.2767 5.49941 12.001C5.49941 11.7253 5.27567 11.5011 4.99951 11.5011H1.99962V6.00123H5.49988V9.00113C5.49988 9.27729 5.72362 9.50103 5.99979 9.50103H8.49978C8.77641 9.50103 8.99968 9.27729 8.99968 9.00113C8.99968 8.72496 8.77594 8.50122 8.49978 8.50122H6.50016V5.50086C6.50016 5.2247 6.27595 5.00096 6.00026 5.00096H1.99962V2.00106H8.49978V6.50067C8.49978 6.77683 8.72352 7.00057 8.99968 7.00057C9.27584 7.00057 9.49959 6.77636 9.49959 6.50067V2.00106H14.2487V5.00096H12.499C12.2228 5.00096 12 5.22516 12 5.50086C12 5.77656 12.2233 6.00076 12.499 6.00076H16.9986C17.2753 6.00076 17.4985 5.77656 17.4985 5.50086C17.4985 5.22516 17.2743 5.00096 16.9986 5.00096H15.249V2.00106H19.999V5.62303C20.0509 5.65064 20.1043 5.67826 20.1534 5.71149L21.9995 6.94253V1.00079C21.9995 0.448925 21.5511 0.000976562 20.9993 0.000976562Z" fill="#6CB7B2"/>
<path d="M20.0004 11.3781V13.5004H16.4996V11.5008C16.4996 11.2246 16.2754 11.0013 15.9997 11.0013C15.724 11.0013 15.4998 11.2255 15.4998 11.5008V17.5005C15.4998 17.7767 15.724 18.0004 15.9997 18.0004C16.2768 18.0004 16.4996 17.7762 16.4996 17.5005V14.5011H20.0004V20.001H12V16.0013H13.4998C13.7764 16.0013 13.9997 15.7771 13.9997 15.5014C13.9997 15.2257 13.7759 15.0015 13.4998 15.0015H11.5001C11.2235 15.0015 11.0002 15.2257 11.0002 15.5014V17.5005H6.50063C6.224 17.5005 6.00072 17.7248 6.00072 18.0004C6.00072 18.2761 6.22446 18.5003 6.50063 18.5003H10.9998V19.9996H1.99962V17.0002H0.932406C0.593519 17.0002 0.278973 16.9075 0 16.7577V20.9994C0 21.5522 0.447012 21.9997 1.00028 21.9997H20.9993C21.5516 21.9997 22 21.5517 22 20.9999V10.0591L20.1539 11.2906C20.1038 11.3229 20.0514 11.3505 20.0004 11.3781Z" fill="#6CB7B2"/>
<path d="M21.6653 7.87605L19.6657 6.54203C19.4354 6.38804 19.1401 6.37353 18.8953 6.50459C18.6523 6.63518 18.4997 6.88935 18.4997 7.16598V7.50018H12.5669C12.0146 7.50018 11.5661 7.94813 11.5661 8.49999V11.4999H8.56624C8.01438 11.4999 7.56644 11.9478 7.56644 12.4997V13.9999H1.00028C0.447012 13.9999 0 14.4478 0 14.9997C0 15.552 0.447012 16 1.00028 16H8.56624C9.11904 16 9.56652 15.552 9.56652 14.9997V13.4995H12.5669C13.1192 13.4995 13.5662 13.0516 13.5662 12.4997V9.4998H18.5002V9.83354C18.5002 10.1102 18.6528 10.3643 18.8957 10.4949C19.0067 10.5544 19.1284 10.5834 19.2505 10.5834C19.3966 10.5834 19.5403 10.5413 19.6671 10.4575L21.6663 9.12347C21.8736 8.98445 22.0005 8.75041 22.0005 8.49952C22 8.24864 21.8732 8.01507 21.6653 7.87605Z" fill="#6CB7B2"/>
</svg>
