<svg width="24" height="24" viewBox="0 0 24 24" fill="none" xmlns="http://www.w3.org/2000/svg">
<path d="M21.7895 3.91887C20.4249 4.09973 19.3685 5.2709 19.3685 6.68412V7.05254H5.26318V6.68412C5.26318 5.2709 4.20676 4.09973 2.84214 3.91887V7.05254H0V15.4209H5.42107V20.5262H10.4211V11.6315H13.8948V23.9998H18.7895C19.2546 23.9998 19.6316 23.6228 19.6316 23.1577V12.842C19.6316 12.3769 20.0086 11.9999 20.4737 11.9999H23.1579C23.623 11.9999 24 11.6229 24 11.1578V7.05254H21.7895V3.91887Z" fill="#6CB7B2"/>
<path d="M21.8947 0H13.8948V6.31575H18.6507C18.8355 4.54382 20.3378 3.15788 22.1579 3.15788H22.5264V6.31575H24V2.10525C24 0.942552 23.0574 0 21.8947 0Z" fill="#6CB7B2"/>
<path d="M13.1579 0H2.10527C0.942572 0 0 0.942552 0 2.10525V6.31575H2.10529V3.15788H2.47371C4.29376 3.15788 5.79617 4.54382 5.9809 6.31575H13.1579V0Z" fill="#6CB7B2"/>
<path d="M13.1579 12.3685H11.1579V21.2632H4.68423V16.158H0V21.8947C0 23.0575 0.942572 24 2.10527 24H13.1579V12.3685Z" fill="#6CB7B2"/>
</svg>
