<svg width="24" height="24" viewBox="0 0 24 24" fill="none" xmlns="http://www.w3.org/2000/svg">
<g clip-path="url(#clip0)">
<path d="M23.1707 0H10.2903C9.86998 0 9.5293 0.340685 9.5293 0.760994V2.10763H18.9666C20.2696 2.10763 21.3297 3.16774 21.3297 4.47072V20.2823H23.1707C23.591 20.2823 23.9317 19.9417 23.9317 19.5213V0.760994C23.9317 0.340685 23.591 0 23.1707 0Z" fill="#6CB7B2"/>
<path d="M18.9676 3.70947H6.08717C5.66686 3.70947 5.32617 4.05016 5.32617 4.47047V7.3769C6.08476 7.17656 6.88116 7.06938 7.70272 7.06938C12.8302 7.06938 16.9868 11.226 16.9868 16.3535C16.9868 19.5203 15.4009 22.3162 12.9804 23.9918H18.9675C19.3878 23.9918 19.7285 23.6511 19.7285 23.2308V4.47047C19.7286 4.05016 19.3879 3.70947 18.9676 3.70947Z" fill="#6CB7B2"/>
<path d="M15.3979 17.7215C15.4236 17.5769 15.3839 17.4284 15.2896 17.3158C15.1953 17.2032 15.056 17.1377 14.9091 17.1377H11.2416C11.0336 17.1377 10.8474 17.2675 10.7756 17.4628C10.4511 18.3453 9.75055 19.0458 8.86803 19.3703C8.67266 19.4422 8.54297 19.6282 8.54297 19.8363V23.5039C8.54297 23.6509 8.60809 23.7902 8.7208 23.8845C8.83351 23.9788 8.98218 24.0183 9.12685 23.9926C12.3157 23.4254 14.8308 20.9104 15.3979 17.7215Z" fill="#6CB7B2"/>
<path d="M6.79676 8.82392C6.6843 8.72956 6.53554 8.68943 6.39095 8.71514C5.17104 8.93206 4.04981 9.43408 3.09841 10.1498C2.98346 10.2363 2.91161 10.3684 2.90159 10.512C2.89158 10.6555 2.94445 10.7963 3.04618 10.898L5.60857 13.4604C5.76526 13.6171 6.00701 13.6511 6.20062 13.5434C6.34385 13.4638 6.49373 13.3948 6.64929 13.3376C6.84451 13.2656 6.9742 13.0796 6.9742 12.8716V9.2045C6.97436 9.05759 6.90931 8.91836 6.79676 8.82392Z" fill="#6CB7B2"/>
<path d="M6.64998 19.3701C5.42181 18.9184 4.54562 17.7386 4.54562 16.3537C4.54562 15.9575 4.61756 15.5782 4.74885 15.2278C4.8171 15.0456 4.77248 14.8401 4.63486 14.7024L2.00366 12.0712C1.8976 11.9651 1.74925 11.9127 1.60009 11.9286C1.45094 11.9444 1.31652 12.0267 1.23522 12.1527C0.453793 13.3635 0 14.8055 0 16.3537C0 20.1722 2.75841 23.3463 6.39124 23.9923C6.53583 24.0181 6.68434 23.9784 6.79697 23.8841C6.9096 23.7899 6.97512 23.6505 6.97512 23.5036V19.836C6.9752 19.6278 6.84535 19.4419 6.64998 19.3701Z" fill="#6CB7B2"/>
<path d="M8.86803 13.3375C9.75055 13.662 10.4511 14.3625 10.7756 15.245C10.8474 15.4404 11.0334 15.5701 11.2416 15.5701H14.9091C15.0561 15.5701 15.1955 15.5049 15.2898 15.3922C15.3841 15.2795 15.4236 15.1308 15.3979 14.9862C14.8307 11.7973 12.3157 9.28233 9.12685 8.71519C8.98226 8.68948 8.83375 8.72913 8.72112 8.82341C8.60849 8.91769 8.54297 9.057 8.54297 9.20391V12.8714C8.54297 13.0794 8.67274 13.2657 8.86803 13.3375Z" fill="#6CB7B2"/>
</g>
<defs>
<clipPath id="clip0">
<rect width="24" height="24" fill="white"/>
</clipPath>
</defs>
</svg>
