<svg width="15" height="15" viewBox="0 0 15 15" fill="none" xmlns="http://www.w3.org/2000/svg">
<path d="M14.707 14.4141H14.4141V5.56641C14.4141 5.40459 14.2829 5.27344 14.1211 5.27344C13.9593 5.27344 13.8281 5.40459 13.8281 5.56641V5.85938H10.7227V5.13725L10.8531 5.22423C10.9872 5.31361 11.1693 5.27813 11.2594 5.14297C11.3491 5.00828 11.3127 4.82643 11.1781 4.73671L7.79297 2.47993V1.75781H9.25781C9.41963 1.75781 9.55078 1.62666 9.55078 1.46484V0.292969C9.55078 0.131149 9.41963 0 9.25781 0H7.5C7.33818 0 7.20703 0.131149 7.20703 0.292969V2.47993L3.82187 4.73671C3.68729 4.82643 3.65089 5.00828 3.74062 5.14297C3.83034 5.27756 4.0123 5.31395 4.14688 5.22423L4.27734 5.13725V5.85938H1.17188V5.56641C1.17188 5.40459 1.04073 5.27344 0.878906 5.27344C0.717087 5.27344 0.585938 5.40459 0.585938 5.56641V14.4141H0.292969C0.131149 14.4141 0 14.5452 0 14.707C0 14.8689 0.131149 15 0.292969 15H6.18164C6.34346 15 6.47461 14.8689 6.47461 14.707C6.47461 14.5452 6.34346 14.4141 6.18164 14.4141H6.03516V12.8906H8.96484V14.4141H8.81836C8.65654 14.4141 8.52539 14.5452 8.52539 14.707C8.52539 14.8689 8.65654 15 8.81836 15H14.707C14.8689 15 15 14.8689 15 14.707C15 14.5452 14.8689 14.4141 14.707 14.4141ZM13.8281 6.44531V14.4141H10.7227V6.44531H13.8281ZM7.79297 0.585938H8.96484V1.17188H7.79297V0.585938ZM1.17188 6.44531H4.27734V14.4141H1.17188V6.44531ZM9.25781 12.3047H5.74219C5.58037 12.3047 5.44922 12.4358 5.44922 12.5977V14.4141H4.86328V4.74667L7.5 2.98885L10.1367 4.74667V14.4141H9.55078V12.5977C9.55078 12.4358 9.41963 12.3047 9.25781 12.3047Z" fill="#6CB7B2"/>
<path d="M7.79297 14.707C7.79297 14.8689 7.66182 15 7.5 15C7.33818 15 7.20703 14.8689 7.20703 14.707C7.20703 14.5452 7.33818 14.4141 7.5 14.4141C7.66182 14.4141 7.79297 14.5452 7.79297 14.707Z" fill="#6CB7B2"/>
<path d="M9.55078 9.66797C9.55078 9.50615 9.41963 9.375 9.25781 9.375H8.08594C7.92412 9.375 7.79297 9.50615 7.79297 9.66797V11.4258C7.79297 11.5876 7.92412 11.7188 8.08594 11.7188H9.25781C9.41963 11.7188 9.55078 11.5876 9.55078 11.4258V9.66797ZM8.96484 11.1328H8.37891V9.96094H8.96484V11.1328Z" fill="#6CB7B2"/>
<path d="M11.6895 12.3047H12.8613C13.0231 12.3047 13.1543 12.1735 13.1543 12.0117V10.2539C13.1543 10.0921 13.0231 9.96094 12.8613 9.96094H11.6895C11.5276 9.96094 11.3965 10.0921 11.3965 10.2539V12.0117C11.3965 12.1735 11.5276 12.3047 11.6895 12.3047ZM11.9824 10.5469H12.5684V11.7188H11.9824V10.5469Z" fill="#6CB7B2"/>
<path d="M11.6895 9.375H12.8613C13.0231 9.375 13.1543 9.24385 13.1543 9.08203V7.32422C13.1543 7.1624 13.0231 7.03125 12.8613 7.03125H11.6895C11.5276 7.03125 11.3965 7.1624 11.3965 7.32422V9.08203C11.3965 9.24385 11.5276 9.375 11.6895 9.375ZM11.9824 7.61719H12.5684V8.78906H11.9824V7.61719Z" fill="#6CB7B2"/>
<path d="M3.31055 9.96094H2.13867C1.97685 9.96094 1.8457 10.0921 1.8457 10.2539V12.0117C1.8457 12.1735 1.97685 12.3047 2.13867 12.3047H3.31055C3.47237 12.3047 3.60352 12.1735 3.60352 12.0117V10.2539C3.60352 10.0921 3.47237 9.96094 3.31055 9.96094ZM3.01758 11.7188H2.43164V10.5469H3.01758V11.7188Z" fill="#6CB7B2"/>
<path d="M3.31055 7.03125H2.13867C1.97685 7.03125 1.8457 7.1624 1.8457 7.32422V9.08203C1.8457 9.24385 1.97685 9.375 2.13867 9.375H3.31055C3.47237 9.375 3.60352 9.24385 3.60352 9.08203V7.32422C3.60352 7.1624 3.47237 7.03125 3.31055 7.03125ZM3.01758 8.78906H2.43164V7.61719H3.01758V8.78906Z" fill="#6CB7B2"/>
<path d="M6.91406 9.375H5.74219C5.58037 9.375 5.44922 9.50615 5.44922 9.66797V11.4258C5.44922 11.5876 5.58037 11.7188 5.74219 11.7188H6.91406C7.07588 11.7188 7.20703 11.5876 7.20703 11.4258V9.66797C7.20703 9.50615 7.07588 9.375 6.91406 9.375ZM6.62109 11.1328H6.03516V9.96094H6.62109V11.1328Z" fill="#6CB7B2"/>
<path d="M7.79297 6.73828V8.49609C7.79297 8.65791 7.92412 8.78906 8.08594 8.78906H9.25781C9.41963 8.78906 9.55078 8.65791 9.55078 8.49609V6.73828C9.55078 6.57646 9.41963 6.44531 9.25781 6.44531H8.08594C7.92412 6.44531 7.79297 6.57646 7.79297 6.73828ZM8.37891 7.03125H8.96484V8.20312H8.37891V7.03125Z" fill="#6CB7B2"/>
<path d="M6.91406 6.44531H5.74219C5.58037 6.44531 5.44922 6.57646 5.44922 6.73828V8.49609C5.44922 8.65791 5.58037 8.78906 5.74219 8.78906H6.91406C7.07588 8.78906 7.20703 8.65791 7.20703 8.49609V6.73828C7.20703 6.57646 7.07588 6.44531 6.91406 6.44531ZM6.62109 8.20312H6.03516V7.03125H6.62109V8.20312Z" fill="#6CB7B2"/>
<path d="M8.37891 4.98047C8.37891 4.49581 7.98466 4.10156 7.5 4.10156C7.01534 4.10156 6.62109 4.49581 6.62109 4.98047C6.62109 5.46513 7.01534 5.85938 7.5 5.85938C7.98466 5.85938 8.37891 5.46513 8.37891 4.98047ZM7.5 5.27344C7.33841 5.27344 7.20703 5.14206 7.20703 4.98047C7.20703 4.81888 7.33841 4.6875 7.5 4.6875C7.66159 4.6875 7.79297 4.81888 7.79297 4.98047C7.79297 5.14206 7.66159 5.27344 7.5 5.27344Z" fill="#6CB7B2"/>
</svg>
