<svg width="22" height="22" viewBox="0 0 22 22" fill="none" xmlns="http://www.w3.org/2000/svg">
<path d="M5.9175 7.455H0V17.9999H5.9175V7.455ZM1.91041 15.4016C1.91041 15.0974 1.91041 14.7929 1.91041 14.4837C1.91041 13.6807 2.56401 13.441 3.18175 13.441C3.419 13.441 3.85325 13.3963 3.85325 12.9921C3.85325 12.613 3.54432 12.4335 3.1414 12.4335C2.83259 12.4335 2.51476 12.608 2.51024 12.9223H1.92383C1.92823 12.184 2.55499 11.8648 3.1325 11.8648C3.75914 11.8648 4.43966 12.1491 4.43966 12.977C4.43966 13.865 3.83972 14.0348 3.18175 14.0348C2.92206 14.0348 2.50122 14.1094 2.50122 14.4888V14.7879H4.44856V15.4016H1.91041Z" fill="#6CB7B2"/>
<path d="M16.0591 9.17867V18H22V9.17867H16.0591ZM19.1097 15.4517C18.5144 15.4517 17.834 15.1721 17.8295 14.3791H18.4248C18.4248 14.7382 18.8591 14.8628 19.1142 14.8628C19.4141 14.8628 19.8126 14.7232 19.8126 14.3492C19.8126 14.1397 19.7097 13.8802 19.1456 13.8802H18.6577V13.3413H19.1097C19.4277 13.3413 19.7633 13.2467 19.7678 12.9223C19.7678 12.7229 19.6246 12.4584 19.1232 12.4584C18.8456 12.4584 18.4697 12.5682 18.4697 12.8874H17.8787C17.8787 12.1341 18.5503 11.8598 19.1276 11.8598C19.7186 11.8598 20.3542 12.1791 20.3587 12.9223C20.3587 13.1967 20.1976 13.5159 19.9245 13.6106C20.2244 13.7204 20.4348 14.0497 20.4348 14.3441C20.4348 15.1972 19.7142 15.4517 19.1097 15.4517Z" fill="#6CB7B2"/>
<path d="M14.8438 3H7.13282V17.9999H14.8438V3ZM10.2571 9.9626V9.32325H10.795V6.65217H10.2367V5.96708H11.4659V9.32325H11.9627V9.9626H10.2571Z" fill="#6CB7B2"/>
</svg>
