<svg width="9" height="12" viewBox="0 0 9 12" fill="none" xmlns="http://www.w3.org/2000/svg">
<path d="M0.533333 11.3333C0.391885 11.3333 0.256229 11.2771 0.15621 11.1771C0.0561904 11.0771 0 10.9415 0 10.8V1.20001C0 1.05856 0.0561904 0.922901 0.15621 0.822881C0.256229 0.722862 0.391885 0.666672 0.533333 0.666672H8C8.14145 0.666672 8.2771 0.722862 8.37712 0.822881C8.47714 0.922901 8.53333 1.05856 8.53333 1.20001V10.8C8.53333 10.9415 8.47714 11.0771 8.37712 11.1771C8.2771 11.2771 8.14145 11.3333 8 11.3333H0.533333ZM5.86667 8.13334L8.53333 6L5.86667 3.86667V5.46667H2.66667V6.53334H5.86667V8.13334Z" fill="#979797"/>
</svg>
