<svg width="12" height="11" viewBox="0 0 12 11" fill="none" xmlns="http://www.w3.org/2000/svg">
<path d="M6.09374 3.32314L6.88558 4.11498C7.24937 4.47873 7.53795 4.91058 7.73484 5.38587C7.93172 5.86116 8.03306 6.37057 8.03306 6.88502C8.03306 7.39948 7.93172 7.90889 7.73484 8.38418C7.53795 8.85946 7.24937 9.29131 6.88558 9.65507L6.68748 9.85261C5.95282 10.5873 4.95641 11 3.91744 11C2.87847 11 1.88205 10.5873 1.14739 9.85261C0.412729 9.11795 7.74092e-09 8.12153 0 7.08256C-7.74092e-09 6.04359 0.412729 5.04718 1.14739 4.31252L1.93923 5.10436C1.67754 5.36376 1.46967 5.6723 1.32754 6.01226C1.18542 6.35222 1.11184 6.71691 1.11103 7.08538C1.11023 7.45385 1.18221 7.81886 1.32284 8.15944C1.46348 8.50001 1.67 8.80946 1.93055 9.07001C2.1911 9.33056 2.50055 9.53708 2.84112 9.67772C3.1817 9.81835 3.54671 9.89033 3.91518 9.88953C4.28365 9.88872 4.64833 9.81514 4.98829 9.67302C5.32825 9.53089 5.63679 9.32302 5.8962 9.06133L6.0943 8.86323C6.61885 8.33852 6.91352 7.62696 6.91352 6.88502C6.91352 6.14309 6.61885 5.43152 6.0943 4.90682L5.30246 4.11498L6.0943 3.3237L6.09374 3.32314ZM9.85317 6.68692L9.06189 5.89564C9.32358 5.63623 9.53145 5.32769 9.67358 4.98773C9.8157 4.64777 9.88928 4.28309 9.89009 3.91462C9.89089 3.54615 9.81891 3.18114 9.67828 2.84056C9.53764 2.49999 9.33112 2.19054 9.07057 1.92999C8.81002 1.66944 8.50057 1.46292 8.15999 1.32228C7.81942 1.18165 7.45441 1.10967 7.08594 1.11047C6.71747 1.11128 6.35278 1.18486 6.01282 1.32698C5.67286 1.46911 5.36432 1.67698 5.10492 1.93867L4.90682 2.13677C4.38227 2.66148 4.08759 3.37304 4.08759 4.11498C4.08759 4.85691 4.38227 5.56847 4.90682 6.09318L5.69866 6.88502L4.90682 7.6763L4.11554 6.88502C3.75174 6.52127 3.46317 6.08942 3.26628 5.61413C3.0694 5.13884 2.96806 4.62943 2.96806 4.11498C2.96806 3.60052 3.0694 3.09111 3.26628 2.61582C3.46317 2.14054 3.75174 1.70869 4.11554 1.34493L4.31364 1.14739C5.0483 0.412729 6.04471 0 7.08368 0C8.12265 0 9.11907 0.412729 9.85373 1.14739C10.5884 1.88205 11.0011 2.87847 11.0011 3.91744C11.0011 4.9564 10.5884 5.95282 9.85373 6.68748L9.85317 6.68692Z" fill="#323441"/>
</svg>
