<svg width="141" height="14" viewBox="0 0 141 14" fill="none" xmlns="http://www.w3.org/2000/svg">
<path fill-rule="evenodd" clip-rule="evenodd" d="M18.3573 5.57704C18.3539 7.87558 16.9903 9.8703 12.3078 9.8703H6.44323V13.5H0.780273V5.26912L6.44323 5.36832V6.37506H11.182C12.1379 6.37506 12.4846 5.98453 12.5082 5.47457L18.3573 5.57704ZM18.3563 5.08693L12.4842 5.13821C12.3899 4.71403 12.0201 4.42579 11.182 4.42579H6.44323V5.19097L0.780273 5.24043V0.997768H12.3078C16.9542 0.997768 18.3139 2.80375 18.3563 5.08693ZM19.0581 5.58931V6.87918C19.0581 9.33257 20.0327 13.7016 27.897 13.7016H28.67C36.4334 13.7016 37.4921 9.31577 37.4921 6.87918V5.91224L31.7955 5.81245V6.34145C31.7955 7.7866 31.1234 9.43339 28.2835 9.43339H28.2667C25.3764 9.43339 24.7546 7.7866 24.7546 6.34145V5.68911L19.0581 5.58931ZM24.7546 5.03104L19.0581 5.0808V0.997768H24.7546V5.03104ZM31.7955 4.96955L37.4921 4.9198V0.997768H31.7955V4.96955ZM38.5311 5.93045C39.0107 7.37064 40.5681 8.50383 44.536 8.61L47.023 8.67721C49.3924 8.76123 49.6276 9.16453 49.6276 9.68545V9.71906C49.6276 10.24 49.2243 10.7273 47.2078 10.7273H47.1406C44.9393 10.7273 44.6872 9.78628 44.6368 9.19814H38.1505V9.34937C38.1505 10.9626 38.873 13.7352 46.1492 13.7352H48.048C54.9041 13.7352 56.2316 11.6011 56.2316 9.43339V9.19814C56.2316 7.79436 55.6936 6.82202 54.4083 6.20859L38.5311 5.93045ZM44.8282 4.85573L38.3556 4.91226C38.3533 4.85114 38.3521 4.78979 38.3521 4.72826V4.57703C38.3521 2.3757 40.0157 0.779316 45.9475 0.779316H47.796C54.2823 0.779316 55.7779 2.64456 55.7779 4.71146V4.7601L49.3909 4.81588C49.3372 4.36182 49.0863 3.66961 46.9894 3.66961H46.9054C44.9561 3.66961 44.6872 4.00569 44.6872 4.4594V4.4762C44.6872 4.6177 44.7241 4.74503 44.8282 4.85573ZM57.0672 6.25516V13.5H62.7302V8.91247H69.9055V13.5H75.5853V6.57957L57.0672 6.25516ZM75.5853 4.58711V0.997768H69.9055V4.63671L75.5853 4.58711ZM62.7302 4.69938L57.0672 4.74884V0.997768H62.7302V4.69938ZM76.6727 9.8871H82.134V13.5H76.6727V9.8871ZM97.2835 12.0044C96.8466 12.4413 95.3174 13.7352 91.4357 13.7352H91.0156C84.0755 13.7352 82.4623 10.2064 82.4623 7.45052V6.9464C82.4623 3.98889 84.1763 0.762512 91.7381 0.762512H92.3263C100.627 0.762512 101.602 3.87126 101.602 5.65249V5.66929H95.7711C95.6871 5.35001 95.2502 4.30816 92.1582 4.30816C89.268 4.30816 88.3101 5.55166 88.3101 7.11444V7.26567C88.3101 8.82845 89.3352 10.24 92.1078 10.24C94.9645 10.24 95.7543 9.28216 95.7543 8.92927H91.9398V6.42547H101.686V13.5H97.9724C97.8884 13.1135 97.5691 12.3741 97.2835 12.0044ZM111.573 13.7016C103.708 13.7016 102.734 9.33257 102.734 6.87918V0.997768H108.43V6.34145C108.43 7.7866 109.052 9.43339 111.942 9.43339H111.959C114.799 9.43339 115.471 7.7866 115.471 6.34145V0.997768H121.168V6.87918C121.168 9.31577 120.109 13.7016 112.346 13.7016H111.573ZM122.347 13.5V0.997768H128.716L135.219 7.31608V0.997768H140.865V13.5H135.135L127.993 6.66073V13.5H122.347Z" fill="white"/>
</svg>
