<svg width="12" height="10" viewBox="0 0 12 10" fill="none" xmlns="http://www.w3.org/2000/svg">
<path d="M0.666504 3.53334H10.7998C10.9413 3.53334 11.0769 3.58953 11.177 3.68955C11.277 3.78957 11.3332 3.92523 11.3332 4.06668V9.40001C11.3332 9.54146 11.277 9.67712 11.177 9.77713C11.0769 9.87715 10.9413 9.93334 10.7998 9.93334H1.19984C1.05839 9.93334 0.922733 9.87715 0.822714 9.77713C0.722694 9.67712 0.666504 9.54146 0.666504 9.40001V3.53334ZM1.19984 0.333344H9.19984V2.46668H0.666504V0.866677C0.666504 0.725228 0.722694 0.589573 0.822714 0.489553C0.922733 0.389534 1.05839 0.333344 1.19984 0.333344ZM7.59984 6.20001V7.26668H9.19984V6.20001H7.59984Z" fill="#979797"/>
</svg>
