<svg width="16" height="16" viewBox="0 0 16 16" fill="none" xmlns="http://www.w3.org/2000/svg">
<path d="M13.2296 14.0536C11.7779 15.3115 9.92081 16.0027 8 16C3.5816 16 0 12.4184 0 8C0 3.5816 3.5816 0 8 0C12.4184 0 16 3.5816 16 8C16 9.70879 15.464 11.2928 14.552 12.592L12 8H14.4C14.3999 6.52496 13.8902 5.09525 12.9573 3.95271C12.0244 2.81017 10.7255 2.02495 9.28026 1.72989C7.83504 1.43482 6.33226 1.64801 5.02614 2.33341C3.72002 3.01881 2.69074 4.13433 2.11242 5.49126C1.5341 6.8482 1.44224 8.36324 1.85239 9.78011C2.26254 11.197 3.14951 12.4287 4.36326 13.2668C5.57701 14.105 7.04303 14.4982 8.51331 14.3799C9.98359 14.2616 11.3679 13.6391 12.432 12.6176L13.2296 14.0536Z" fill="white"/>
</svg>
