<?xml version="1.0" encoding="UTF-8" standalone="no"?>
<svg
   xmlns:dc="http://purl.org/dc/elements/1.1/"
   xmlns:cc="http://creativecommons.org/ns#"
   xmlns:rdf="http://www.w3.org/1999/02/22-rdf-syntax-ns#"
   xmlns:svg="http://www.w3.org/2000/svg"
   xmlns="http://www.w3.org/2000/svg"
   xmlns:sodipodi="http://sodipodi.sourceforge.net/DTD/sodipodi-0.dtd"
   xmlns:inkscape="http://www.inkscape.org/namespaces/inkscape"
   width="16"
   height="16"
   viewBox="0 0 16 16"
   fill="none"
   version="1.1"
   id="svg837"
   sodipodi:docname="removeRed.svg"
   inkscape:version="0.92.4 (5da689c313, 2019-01-14)">
  <metadata
     id="metadata843">
    <rdf:RDF>
      <cc:Work
         rdf:about="">
        <dc:format>image/svg+xml</dc:format>
        <dc:type
           rdf:resource="http://purl.org/dc/dcmitype/StillImage" />
      </cc:Work>
    </rdf:RDF>
  </metadata>
  <defs
     id="defs841" />
  <sodipodi:namedview
     pagecolor="#ffffff"
     bordercolor="#666666"
     borderopacity="1"
     objecttolerance="10"
     gridtolerance="10"
     guidetolerance="10"
     inkscape:pageopacity="0"
     inkscape:pageshadow="2"
     inkscape:window-width="1920"
     inkscape:window-height="1020"
     id="namedview839"
     showgrid="false"
     inkscape:zoom="53.3125"
     inkscape:cx="8"
     inkscape:cy="8"
     inkscape:window-x="-8"
     inkscape:window-y="-8"
     inkscape:window-maximized="1"
     inkscape:current-layer="svg837" />
  <path
     d="M8 16C3.5816 16 0 12.4184 0 8C0 3.5816 3.5816 0 8 0C12.4184 0 16 3.5816 16 8C16 12.4184 12.4184 16 8 16ZM8 14.4C9.69739 14.4 11.3253 13.7257 12.5255 12.5255C13.7257 11.3253 14.4 9.69739 14.4 8C14.4 6.30261 13.7257 4.67475 12.5255 3.47452C11.3253 2.27428 9.69739 1.6 8 1.6C6.30261 1.6 4.67475 2.27428 3.47452 3.47452C2.27428 4.67475 1.6 6.30261 1.6 8C1.6 9.69739 2.27428 11.3253 3.47452 12.5255C4.67475 13.7257 6.30261 14.4 8 14.4ZM8 6.8688L10.2624 4.6056L11.3944 5.7376L9.1312 8L11.3944 10.2624L10.2624 11.3944L8 9.1312L5.7376 11.3944L4.6056 10.2624L6.8688 8L4.6056 5.7376L5.7376 4.6056L8 6.8688Z"
     fill="#323441"
     id="path835"
     style="fill:#f33657;fill-opacity:1" />
</svg>
