<svg width="15" height="16" viewBox="0 0 15 16" fill="none" xmlns="http://www.w3.org/2000/svg">
<path d="M0 8.75081H4.50539V7.24901H0V0.375293C1.117e-05 0.310051 0.0170231 0.245938 0.0493591 0.189273C0.0816951 0.132608 0.128239 0.0853477 0.184403 0.0521495C0.240567 0.0189513 0.304413 0.000961522 0.369647 -4.6708e-05C0.434881 -0.00105494 0.499252 0.0149532 0.556415 0.0463999L14.4195 7.67102C14.4784 7.70343 14.5274 7.75104 14.5616 7.80889C14.5958 7.86674 14.6139 7.93271 14.6139 7.99991C14.6139 8.06711 14.5958 8.13307 14.5616 8.19092C14.5274 8.24878 14.4784 8.29639 14.4195 8.3288L0.556415 15.9534C0.499252 15.9849 0.434881 16.0009 0.369647 15.9999C0.304413 15.9989 0.240567 15.9809 0.184403 15.9477C0.128239 15.9145 0.0816951 15.8672 0.0493591 15.8105C0.0170231 15.7539 1.117e-05 15.6898 0 15.6245V8.75081Z" fill="white"/>
</svg>
