<svg width="12" height="12" viewBox="0 0 12 12" fill="none" xmlns="http://www.w3.org/2000/svg">
<path d="M4.37828 2.08566L5.6539 0.810041C5.74566 0.71831 5.87009 0.666779 5.99984 0.666779C6.12958 0.666779 6.25402 0.71831 6.34578 0.810041L7.6214 2.08566H9.42498C9.55475 2.08566 9.67921 2.13721 9.77097 2.22898C9.86273 2.32074 9.91429 2.4452 9.91429 2.57497V4.37855L11.1899 5.65417C11.2816 5.74593 11.3332 5.87037 11.3332 6.00011C11.3332 6.12986 11.2816 6.25429 11.1899 6.34605L9.91429 7.62167V9.42525C9.91429 9.55503 9.86273 9.67948 9.77097 9.77125C9.67921 9.86301 9.55475 9.91456 9.42498 9.91456H7.6214L6.34578 11.1902C6.25402 11.2819 6.12958 11.3334 5.99984 11.3334C5.87009 11.3334 5.74566 11.2819 5.6539 11.1902L4.37828 9.91456H2.57469C2.44492 9.91456 2.32046 9.86301 2.2287 9.77125C2.13694 9.67948 2.08539 9.55503 2.08539 9.42525V7.62167L0.809766 6.34605C0.718035 6.25429 0.666504 6.12986 0.666504 6.00011C0.666504 5.87037 0.718035 5.74593 0.809766 5.65417L2.08539 4.37855V2.57497C2.08539 2.4452 2.13694 2.32074 2.2287 2.22898C2.32046 2.13721 2.44492 2.08566 2.57469 2.08566H4.37828ZM5.99984 7.46803C6.38915 7.46803 6.76252 7.31337 7.03781 7.03809C7.3131 6.7628 7.46776 6.38943 7.46776 6.00011C7.46776 5.6108 7.3131 5.23742 7.03781 4.96214C6.76252 4.68685 6.38915 4.53219 5.99984 4.53219C5.61052 4.53219 5.23715 4.68685 4.96186 4.96214C4.68657 5.23742 4.53192 5.6108 4.53192 6.00011C4.53192 6.38943 4.68657 6.7628 4.96186 7.03809C5.23715 7.31337 5.61052 7.46803 5.99984 7.46803Z" fill="#979797"/>
</svg>
