<svg width="16" height="16" viewBox="0 0 16 16" fill="none" xmlns="http://www.w3.org/2000/svg">
<path d="M5.56766 2.12845L7.48109 0.215015C7.61873 0.0774193 7.80538 0.00012207 8 0.00012207C8.19462 0.00012207 8.38127 0.0774193 8.51891 0.215015L10.4323 2.12845H13.1377C13.3324 2.12845 13.5191 2.20578 13.6567 2.34342C13.7943 2.48106 13.8717 2.66775 13.8717 2.86241V5.56778L15.7851 7.48121C15.9227 7.61885 16 7.8055 16 8.00012C16 8.19474 15.9227 8.38139 15.7851 8.51903L13.8717 10.4325V13.1378C13.8717 13.3325 13.7943 13.5192 13.6567 13.6568C13.5191 13.7945 13.3324 13.8718 13.1377 13.8718H10.4323L8.51891 15.7852C8.38127 15.9228 8.19462 16.0001 8 16.0001C7.80538 16.0001 7.61873 15.9228 7.48109 15.7852L5.56766 13.8718H2.86228C2.66763 13.8718 2.48094 13.7945 2.3433 13.6568C2.20565 13.5192 2.12833 13.3325 2.12833 13.1378V10.4325L0.214893 8.51903C0.0772972 8.38139 0 8.19474 0 8.00012C0 7.8055 0.0772972 7.61885 0.214893 7.48121L2.12833 5.56778V2.86241C2.12833 2.66775 2.20565 2.48106 2.3433 2.34342C2.48094 2.20578 2.66763 2.12845 2.86228 2.12845H5.56766ZM8 10.202C8.58397 10.202 9.14403 9.97002 9.55696 9.55709C9.9699 9.14415 10.2019 8.5841 10.2019 8.00012C10.2019 7.41615 9.9699 6.85609 9.55696 6.44316C9.14403 6.03023 8.58397 5.79824 8 5.79824C7.41603 5.79824 6.85597 6.03023 6.44304 6.44316C6.0301 6.85609 5.79812 7.41615 5.79812 8.00012C5.79812 8.5841 6.0301 9.14415 6.44304 9.55709C6.85597 9.97002 7.41603 10.202 8 10.202Z" fill="#323441"/>
</svg>
