<svg width="17" height="16" viewBox="0 0 17 16" fill="none" xmlns="http://www.w3.org/2000/svg">
<path d="M0 8.8096H4.43482C4.57337 11.3738 5.39073 13.8553 6.80324 15.9999C5.03395 15.722 3.40664 14.8656 2.17572 13.5646C0.944808 12.2637 0.179691 10.5915 0 8.8096ZM0 7.19016C0.179691 5.40822 0.944808 3.73605 2.17572 2.43511C3.40664 1.13417 5.03395 0.277791 6.80324 -0.00012207C5.39073 2.1445 4.57337 4.62591 4.43482 7.19016H0ZM16.1134 7.19016H11.6785C11.54 4.62591 10.7226 2.1445 9.31012 -0.00012207C11.0794 0.277791 12.7067 1.13417 13.9376 2.43511C15.1686 3.73605 15.9337 5.40822 16.1134 7.19016ZM16.1134 8.8096C15.9337 10.5915 15.1686 12.2637 13.9376 13.5646C12.7067 14.8656 11.0794 15.722 9.31012 15.9999C10.7226 13.8553 11.54 11.3738 11.6785 8.8096H16.1142H16.1134ZM6.05668 8.8096H10.0567C9.92341 10.9954 9.23506 13.1112 8.05668 14.957C6.8783 13.1112 6.18996 10.9954 6.05668 8.8096ZM6.05668 7.19016C6.18996 5.00434 6.8783 2.88859 8.05668 1.04279C9.23506 2.88859 9.92341 5.00434 10.0567 7.19016H6.05668Z" fill="#F2F2F2"/>
</svg>
