<svg width="13" height="12" viewBox="0 0 13 12" fill="none" xmlns="http://www.w3.org/2000/svg">
<path d="M0 6.60738H3.32611C3.43003 8.53057 4.04305 10.3916 5.10243 12.0001C3.77547 11.7917 2.55498 11.1494 1.63179 10.1737C0.708606 9.19796 0.134768 7.94384 0 6.60738ZM0 5.3928C0.134768 4.05635 0.708606 2.80222 1.63179 1.82652C2.55498 0.850809 3.77547 0.208527 5.10243 9.15527e-05C4.04305 1.60856 3.43003 3.46961 3.32611 5.3928H0ZM12.085 5.3928H8.75891C8.65499 3.46961 8.04198 1.60856 6.98259 9.15527e-05C8.30956 0.208527 9.53004 0.850809 10.4532 1.82652C11.3764 2.80222 11.9503 4.05635 12.085 5.3928ZM12.085 6.60738C11.9503 7.94384 11.3764 9.19796 10.4532 10.1737C9.53004 11.1494 8.30956 11.7917 6.98259 12.0001C8.04198 10.3916 8.65499 8.53057 8.75891 6.60738H12.0856H12.085ZM4.54251 6.60738H7.54251C7.44255 8.24674 6.9263 9.83356 6.04251 11.2179C5.15872 9.83356 4.64247 8.24674 4.54251 6.60738ZM4.54251 5.3928C4.64247 3.75344 5.15872 2.16663 6.04251 0.782278C6.9263 2.16663 7.44255 3.75344 7.54251 5.3928H4.54251Z" fill="#323441"/>
</svg>
