<svg width="10" height="12" viewBox="0 0 10 12" fill="none" xmlns="http://www.w3.org/2000/svg">
<path d="M0.713133 1.55199L4.69713 0.666656L8.68113 1.55199C8.7888 1.57592 8.88509 1.63585 8.95411 1.72188C9.02313 1.80791 9.06075 1.91491 9.06077 2.0252V6.86738C9.06074 7.34629 8.94247 7.81777 8.71647 8.23999C8.49048 8.66222 8.16374 9.02212 7.76525 9.28775L4.69713 11.3333L1.62901 9.28775C1.2306 9.02216 0.903901 8.66234 0.677907 8.24021C0.451913 7.81808 0.333611 7.34669 0.333496 6.86787V2.0252C0.333515 1.91491 0.371139 1.80791 0.440158 1.72188C0.509177 1.63585 0.605466 1.57592 0.713133 1.55199Z" fill="#979797"/>
</svg>
