<svg width="16" height="14" viewBox="0 0 16 14" fill="none" xmlns="http://www.w3.org/2000/svg">
<path d="M15.2381 2.28571H9.90476C8.69234 2.28571 7.52958 2.76735 6.67227 3.62466C5.81496 4.48196 5.33333 5.64472 5.33333 6.85714C5.33333 8.06956 5.81496 9.23232 6.67227 10.0896C7.52958 10.9469 8.69234 11.4286 9.90476 11.4286H15.2381V12.9524C15.2381 13.1545 15.1578 13.3482 15.0149 13.4911C14.8721 13.634 14.6783 13.7143 14.4762 13.7143H0.761905C0.559835 13.7143 0.366042 13.634 0.223157 13.4911C0.0802718 13.3482 0 13.1545 0 12.9524V0.761905C0 0.559835 0.0802718 0.366042 0.223157 0.223157C0.366042 0.0802718 0.559835 0 0.761905 0H14.4762C14.6783 0 14.8721 0.0802718 15.0149 0.223157C15.1578 0.366042 15.2381 0.559835 15.2381 0.761905V2.28571ZM9.90476 3.80952H16V9.90476H9.90476C9.09648 9.90476 8.32131 9.58367 7.74977 9.01214C7.17823 8.4406 6.85714 7.66542 6.85714 6.85714C6.85714 6.04886 7.17823 5.27369 7.74977 4.70215C8.32131 4.13061 9.09648 3.80952 9.90476 3.80952ZM9.90476 6.09524V7.61905H12.1905V6.09524H9.90476Z" fill="white"/>
</svg>
