<svg width="1920" height="1798" viewBox="0 0 1920 1798" fill="none" xmlns="http://www.w3.org/2000/svg">
<path d="M7.99989 7.99973C-113.861 -1.27267 -299.521 58.8297 -363.191 94.7249L-371.12 1446.62L2215.99 1497.94L2241.56 208.921C2128.63 223.71 2130.98 182.959 2074.91 196.24C1586.22 311.996 1473.15 150.452 1144.17 203.559C483.103 310.276 402.5 38.0172 7.99989 7.99973Z" fill="url(#paint0_linear)"/>
<path d="M-275 541.181C-340.388 592.366 -478.99 290.283 -537.663 326.648L-628 1797.96L1797.5 1609.46L2088.5 347.48C1983.53 364.145 1666 409.761 1482 347.48C1076.15 210.105 921.596 332.678 656.5 347.48C391.404 362.282 91 254.681 -275 541.181Z" fill="white"/>
<defs>
<linearGradient id="paint0_linear" x1="940.593" y1="80.8473" x2="874.5" y2="640" gradientUnits="userSpaceOnUse">
<stop stop-color="#E0FBFF"/>
<stop offset="1" stop-color="#E0FBFF" stop-opacity="0"/>
</linearGradient>
</defs>
</svg>
