<svg xmlns="http://www.w3.org/2000/svg" viewBox="0 0 1920 745" width="1920" height="745">
	<defs>
		<linearGradient id="grd1" gradientUnits="userSpaceOnUse"  x1="555.629" y1="-21.763" x2="598.003" y2="631.46">
			<stop offset="0" stop-color="#e2fafe"  />
			<stop offset="1" stop-color="#e2fafe" stop-opacity="0" />
		</linearGradient>
	</defs>
	<style>
		tspan { white-space:pre }
		.shp0 { fill: url(#grd1) } 
	</style>
	<path fill-rule="evenodd" class="shp0" d="M-1094.85 108.1L-1184.89 170.27L-940.98 328.02L-862.43 325.03L-794.78 322.46L-792.2 634.22L1900.44 546.97L1962.36 217.49L2230.71 207.27L2309.25 204.28L2312.6 39.81L2233.91 49.65C2157.96 59.39 2003.39 78.96 1848.78 98.54L1848.6 98.56C1691.23 118.25 1382.28 143.25 1228.59 114.87C1088.59 89.01 1012.84 65.98 901.14 32.02C890.21 28.7 878.94 25.28 867.24 21.73C757.59 -2.8 690.19 -6.25 535.24 27.04C380.3 60.33 146.34 94.89 -7.91 93.92C-92.64 93.38 -184.52 82.94 -275.72 72.57C-350.55 64.06 -424.92 55.61 -494.53 52.72C-661.28 48.83 -827.19 73.66 -945.68 91.39C-1014.34 101.66 -1067.08 109.55 -1094.85 108.1Z" />
</svg>