<svg width="54" height="54" viewBox="0 0 54 54" fill="none" xmlns="http://www.w3.org/2000/svg">
<circle cx="27" cy="27" r="27" fill="#FFCCCC"/>
<path d="M25.1376 9.07649C26.9878 9.07649 28.4852 10.5451 28.4852 12.3598V31.9442C30.6803 33.1129 32.1777 35.3966 32.1777 38.0186C32.1777 41.8325 29.0261 44.9235 25.1376 44.9235C21.2491 44.9235 18.0976 41.8325 18.0976 38.0186C18.0976 35.3966 19.5871 33.1129 21.7901 31.9442V12.3598C21.7901 10.5451 23.2875 9.07649 25.1376 9.07649ZM25.1376 8C22.6838 8 20.6925 9.95306 20.6925 12.3598V31.329C18.3955 32.7977 17 35.3043 17 38.0186C17 42.4168 20.6533 46 25.1376 46C29.622 46 33.2753 42.4168 33.2753 38.0186C33.2753 35.3043 31.8798 32.8053 29.5828 31.3367V12.3598C29.5828 9.95306 27.5915 8 25.1376 8Z" fill="white"/>
<path d="M25.1376 34.7507C26.9015 34.7507 28.3362 36.1578 28.3362 37.8879C28.3362 39.6179 26.9015 41.0251 25.1376 41.0251C23.3737 41.0251 21.939 39.6179 21.939 37.8879C21.939 36.1578 23.3737 34.7507 25.1376 34.7507ZM25.1376 33.6742C22.77 33.6742 20.8414 35.5657 20.8414 37.8879C20.8414 40.21 22.77 42.1016 25.1376 42.1016C27.5052 42.1016 29.4338 40.21 29.4338 37.8879C29.4338 35.5657 27.5052 33.6742 25.1376 33.6742Z" fill="white"/>
<path d="M25.1376 34.8276C24.8319 34.8276 24.5889 34.5893 24.5889 34.2894V12.1291C24.5889 11.8292 24.8319 11.5909 25.1376 11.5909C25.4434 11.5909 25.6864 11.8292 25.6864 12.1291V34.2894C25.6864 34.5893 25.4356 34.8276 25.1376 34.8276Z" fill="white"/>
<path d="M29.0105 22.4249H26.8154C26.5096 22.4249 26.2666 22.1866 26.2666 21.8867C26.2666 21.5868 26.5096 21.3484 26.8154 21.3484H29.0105C29.3163 21.3484 29.5593 21.5868 29.5593 21.8867C29.5593 22.1866 29.3163 22.4249 29.0105 22.4249Z" fill="white"/>
<path d="M29.0105 17.9114H26.8154C26.5096 17.9114 26.2666 17.673 26.2666 17.3731C26.2666 17.0733 26.5096 16.8349 26.8154 16.8349H29.0105C29.3163 16.8349 29.5593 17.0733 29.5593 17.3731C29.5593 17.673 29.3163 17.9114 29.0105 17.9114Z" fill="white"/>
<path d="M35.7056 16.4197C35.5958 16.4197 35.4782 16.3889 35.3841 16.3197C35.1411 16.1429 35.0862 15.8122 35.2587 15.5662L37.446 12.6058C37.6263 12.3675 37.9634 12.3136 38.2143 12.4828C38.4573 12.6596 38.5122 12.9903 38.3397 13.2363L36.1524 16.1967C36.0427 16.3428 35.8702 16.4197 35.7056 16.4197Z" fill="white"/>
<path d="M38.2692 32.2133C38.1046 32.2133 37.9478 32.1441 37.838 32.0133L35.5096 29.1606C35.3215 28.93 35.3607 28.5916 35.5958 28.4071C35.831 28.2226 36.176 28.261 36.3641 28.4917L38.6925 31.3444C38.8807 31.5751 38.8415 31.9134 38.6063 32.0979C38.5122 32.1748 38.3946 32.2133 38.2692 32.2133Z" fill="white"/>
<path d="M43.4512 22.8863H43.4434L39.7195 22.8171C39.4138 22.8094 39.1786 22.5633 39.1786 22.2712C39.1864 21.9713 39.4295 21.7329 39.7352 21.7406L43.4591 21.8098C43.7648 21.8175 44 22.0635 44 22.3557C44 22.6556 43.757 22.8863 43.4512 22.8863Z" fill="white"/>
<path d="M42.0401 28.0688C41.9617 28.0688 41.8755 28.0534 41.7971 28.0149L38.4417 26.4156C38.1673 26.2849 38.0576 25.9619 38.1908 25.6928C38.3241 25.4237 38.6534 25.316 38.9278 25.4468L42.2832 27.0461C42.5575 27.1768 42.6673 27.4998 42.534 27.7689C42.44 27.9534 42.244 28.0688 42.0401 28.0688Z" fill="white"/>
<path d="M38.8022 18.4112C38.5905 18.4112 38.3867 18.2881 38.3004 18.0805C38.1828 17.8037 38.3161 17.4885 38.5905 17.3731L42.0243 15.9429C42.3065 15.8276 42.628 15.9583 42.7456 16.2274C42.8632 16.4966 42.7299 16.8195 42.4555 16.9348L39.0217 18.365C38.9511 18.3958 38.8806 18.4112 38.8022 18.4112Z" fill="white"/>
<path d="M29.0105 26.3849H26.8154C26.5096 26.3849 26.2666 26.1465 26.2666 25.8467C26.2666 25.5468 26.5096 25.3084 26.8154 25.3084H29.0105C29.3163 25.3084 29.5593 25.5468 29.5593 25.8467C29.5593 26.1465 29.3163 26.3849 29.0105 26.3849Z" fill="white"/>
<path d="M31.7622 28.2456C31.6525 28.2456 31.5505 28.2456 31.4408 28.238C31.135 28.2226 30.9077 27.9688 30.9234 27.6766C30.9391 27.3768 31.1978 27.1538 31.4957 27.1692C31.5819 27.1768 31.676 27.1768 31.7622 27.1768C34.6237 27.1768 36.9521 24.8932 36.9521 22.0866C36.9521 19.28 34.6237 16.9963 31.7622 16.9963C31.7152 16.9963 31.676 16.9963 31.6289 16.9963C31.331 17.004 31.0723 16.7657 31.0645 16.4735C31.0566 16.1736 31.2997 15.9276 31.5976 15.9199C31.6525 15.9199 31.6995 15.9199 31.7544 15.9199C35.2195 15.9199 38.0418 18.688 38.0418 22.0866C38.0418 25.4852 35.2352 28.2456 31.7622 28.2456Z" fill="white"/>
</svg>
