<svg width="54" height="54" viewBox="0 0 54 54" fill="none" xmlns="http://www.w3.org/2000/svg">
<circle cx="27" cy="27" r="27" fill="#FFCCCC"/>
<path d="M33.613 26.6154C33.5963 26.6154 33.5796 26.6154 33.5629 26.6154C31.0163 26.3234 30.34 24.1883 30.34 23.104C30.34 22.8538 30.5487 22.6453 30.7992 22.6453C31.0497 22.6453 31.2584 22.8538 31.2584 23.104C31.2584 23.2041 31.3085 25.431 33.6631 25.7062C33.9136 25.7313 34.0973 25.9648 34.0639 26.215C34.0472 26.4485 33.8468 26.6154 33.613 26.6154Z" fill="white"/>
<path d="M21.4699 40.8748C13.5628 40.8748 7.12524 34.4443 7.12524 26.5458C7.12524 22.9427 8.46953 19.5064 10.8993 16.8541C13.3207 14.2185 16.6104 12.5921 20.159 12.2752L21.3864 12.1667L20.4345 12.9424C17.5456 15.2861 15.8923 18.8308 15.8923 22.6675C15.8923 29.44 21.1276 34.9531 27.5651 34.9531C29.569 34.9531 31.5395 34.4109 33.2762 33.385L34.5537 32.6344L33.7939 33.9022C32.5415 35.9956 30.763 37.7388 28.6589 38.9649C26.488 40.2076 23.9998 40.8748 21.4699 40.8748ZM19.0401 13.176C12.5942 14.3269 7.87671 19.8734 7.87671 26.5458C7.87671 34.0356 13.9719 40.1242 21.4699 40.1242C25.7449 40.1242 29.7945 38.0724 32.3411 34.6945C30.8298 35.3534 29.2016 35.6954 27.5568 35.6954C20.7017 35.6954 15.1325 29.8487 15.1325 22.6591C15.1409 19.031 16.552 15.6364 19.0401 13.176Z" fill="white"/>
<path d="M33.7382 30.6521C29.2127 30.6521 25.1464 28.6254 22.5414 26.9239C19.7192 25.089 17.9908 23.2708 17.924 23.1957L17.6819 22.9372L17.924 22.6786C17.9992 22.6035 19.7275 20.7936 22.5414 18.9504C25.1548 17.2489 29.2127 15.2222 33.7382 15.2222C38.2637 15.2222 42.33 17.2489 44.935 18.9504C47.7572 20.7853 49.4856 22.6035 49.5524 22.6786L49.6526 22.787V22.9372C49.6526 23.0456 49.6526 23.3792 48.3083 24.5969C47.3564 25.456 46.1541 26.3568 44.9267 27.1324C42.3717 28.7422 38.3555 30.6521 33.7382 30.6521ZM18.7172 22.9372C19.3017 23.5043 20.8213 24.9139 22.9588 26.3067C25.4804 27.9498 29.3964 29.9015 33.7298 29.9015C38.0549 29.9015 41.854 28.1333 44.2838 26.6487C46.7719 25.1307 48.3918 23.5543 48.8176 23.0039C48.2999 22.4868 46.7302 21.0188 44.5092 19.5676C41.9876 17.9245 38.0716 15.9728 33.7382 15.9728C29.4047 15.9728 25.4888 17.9328 22.9672 19.5676C20.8213 20.9688 19.3017 22.37 18.7172 22.9372Z" fill="white"/>
<path d="M33.7382 28.9839C30.3983 28.9839 27.6847 26.2732 27.6847 22.937C27.6847 19.6008 30.3983 16.8901 33.7382 16.8901C37.078 16.8901 39.7916 19.6008 39.7916 22.937C39.7916 26.2732 37.0697 28.9839 33.7382 28.9839ZM33.7382 17.6408C30.8158 17.6408 28.4362 20.0178 28.4362 22.937C28.4362 25.8562 30.8158 28.2333 33.7382 28.2333C36.6605 28.2333 39.0402 25.8562 39.0402 22.937C39.0402 20.0178 36.6605 17.6408 33.7382 17.6408Z" fill="white"/>
</svg>
