<svg width="54" height="54" viewBox="0 0 54 54" fill="none" xmlns="http://www.w3.org/2000/svg">
<circle cx="27" cy="27" r="27" fill="#FFCCCC"/>
<g clip-path="url(#clip0)">
<path d="M17.7605 41.2624C16.9124 41.2624 16.048 41.1081 15.2243 40.7994C13.5607 40.182 12.2478 39.0123 11.6198 37.5988C10.3069 34.6419 11.3018 30.0035 12.4353 27.6559C15.2977 21.7096 19.3018 20.3124 19.4731 20.2556L20.0928 20.0525L20.0684 20.7024C19.9053 24.4634 21.3161 27.6722 22.5556 30.4991C24.3579 34.6095 25.9236 38.1593 20.574 40.6532C19.7014 41.0594 18.7391 41.2624 17.7605 41.2624ZM19.155 21.3847C17.9725 22.0102 15.2814 23.8055 13.2427 28.0458C12.2233 30.1741 11.261 34.5688 12.4435 37.2414C12.9736 38.4355 14.1071 39.4347 15.5424 39.9708C17.0918 40.5476 18.788 40.507 20.1988 39.849C24.7493 37.7288 23.5505 34.9994 21.7401 30.8646C20.5332 28.1189 19.1795 25.0321 19.155 21.3847Z" fill="white"/>
<path d="M30.0907 22.5463C29.3894 22.5463 28.6718 22.4164 27.9867 22.1645C26.6086 21.6528 25.5158 20.678 24.9939 19.5001C23.9093 17.055 24.7329 13.237 25.6626 11.2956C28.0194 6.40533 31.3303 5.25182 31.4689 5.20308L32.0887 5L32.0642 5.64986C31.9337 8.71235 33.0836 11.3199 34.0948 13.627C35.5872 17.0306 36.8838 19.9713 32.4312 22.0346C31.7054 22.3758 30.9062 22.5463 30.0907 22.5463ZM31.159 6.34035C30.1478 6.89273 28.0764 8.37117 26.4781 11.6855C25.6463 13.4157 24.8634 16.9819 25.8175 19.1427C26.2416 20.1012 27.1468 20.8973 28.3048 21.3278C29.5525 21.7909 30.9144 21.7584 32.0479 21.2304C34.2497 20.2068 34.5596 19.1102 34.5841 18.2735C34.6249 17.0794 33.9888 15.6415 33.263 13.9844C32.3496 11.8804 31.2161 9.29723 31.159 6.34035Z" fill="white"/>
<path d="M36.5087 44C35.6606 44 34.7961 43.8457 33.9725 43.537C32.3089 42.9196 30.9959 41.7498 30.368 40.3364C29.0551 37.3795 30.05 32.7411 31.1835 30.3935C34.0459 24.4472 38.05 23.05 38.2212 22.9931L38.841 22.79L38.8165 23.4399C38.6534 27.201 40.0642 30.4097 41.3038 33.2366C43.106 37.347 44.6718 40.8969 39.3221 43.3907C38.4496 43.7969 37.4873 44 36.5087 44ZM37.9113 24.1223C36.7289 24.7478 34.0377 26.543 31.999 30.7834C30.9715 32.9117 30.0092 37.3064 31.1917 39.979C31.7217 41.1731 32.8553 42.1723 34.2905 42.7084C35.84 43.2851 37.5362 43.2445 38.947 42.5865C43.4975 40.4664 42.2987 37.7369 40.4883 33.6022C39.2814 30.8565 37.9276 27.7777 37.9113 24.1223Z" fill="white"/>
<path d="M35.995 41.5305C35.9787 41.5305 35.9623 41.5305 35.946 41.5305C33.4588 41.2462 32.7982 39.1666 32.7982 38.1106C32.7982 37.8669 33.0021 37.6638 33.2467 37.6638C33.4914 37.6638 33.6953 37.8669 33.6953 38.1106C33.6953 38.2081 33.7442 40.377 36.0439 40.6451C36.2885 40.6694 36.4679 40.8969 36.4353 41.1406C36.4109 41.3599 36.2151 41.5305 35.995 41.5305Z" fill="white"/>
<path d="M30.262 19.3702C30.2457 19.3702 30.2294 19.3702 30.2131 19.3702C28.1172 19.1346 27.5627 17.3881 27.5627 16.4945C27.5627 16.2508 27.7666 16.0477 28.0112 16.0477C28.2559 16.0477 28.4598 16.2508 28.4598 16.4945C28.4598 16.6813 28.5331 18.2816 30.3109 18.4847C30.5556 18.5091 30.735 18.7365 30.7024 18.9802C30.6779 19.1996 30.4822 19.3702 30.262 19.3702ZM17.1815 37.6557C17.1652 37.6557 17.1488 37.6557 17.1325 37.6557C15.0367 37.4202 14.4822 35.6736 14.4822 34.7801C14.4822 34.5364 14.6861 34.3333 14.9307 34.3333C15.1753 34.3333 15.3792 34.5364 15.3792 34.7801C15.3792 34.9669 15.4526 36.5672 17.2304 36.7703C17.475 36.7947 17.6545 37.0221 17.6218 37.2658C17.5974 37.4933 17.4016 37.6557 17.1815 37.6557Z" fill="white"/>
</g>
<defs>
<clipPath id="clip0">
<rect width="32" height="39" fill="white" transform="translate(11 5)"/>
</clipPath>
</defs>
</svg>
