<svg width="54" height="54" viewBox="0 0 54 54" fill="none" xmlns="http://www.w3.org/2000/svg">
<circle cx="27" cy="27" r="27" fill="#FFCCCC"/>
<g clip-path="url(#clip0)">
<path d="M19.0632 43.9996C19.0248 43.9996 18.9786 43.9917 18.9401 43.9838C18.817 43.9444 18.717 43.8418 18.6708 43.7156L15.0314 33.5381C14.9698 33.3724 15.016 33.1831 15.1468 33.0647C15.2776 32.9464 15.4699 32.9227 15.6238 33.0095L19.2017 34.9503L23.4875 26.398L15.5161 28.1574C15.3699 28.189 15.216 28.1416 15.1083 28.0233C15.0083 27.9049 14.9775 27.7472 15.0237 27.5973L21.3716 8.29153C21.4331 8.11007 21.6024 7.98384 21.7948 7.99962L30.8434 8.48088C30.9973 8.48877 31.1358 8.58345 31.205 8.72546C31.2743 8.86747 31.2589 9.03315 31.1666 9.16727L23.1028 20.7491L32.7978 20.8359C32.9517 20.8359 33.0979 20.9306 33.1671 21.0726C33.2364 21.2146 33.2287 21.3882 33.144 21.5223L22.7796 37.0332H27.4886C27.6733 37.0332 27.8349 37.1594 27.8887 37.333C27.9426 37.5144 27.8811 37.7117 27.7272 37.8221L19.3095 43.9207C19.2402 43.9681 19.1479 43.9996 19.0632 43.9996ZM16.2009 34.3034L19.271 42.8872L26.1575 37.901H21.9794C21.8255 37.901 21.6793 37.8142 21.6024 37.6722C21.5255 37.5302 21.5408 37.3566 21.6255 37.2225L31.9976 21.6959L22.2872 21.6091C22.1256 21.6091 21.9871 21.5144 21.9102 21.3724C21.8409 21.2304 21.8486 21.0568 21.941 20.9227L30.0201 9.30929L22.0641 8.88325L16.0624 27.1476L24.18 25.3566C24.3416 25.3251 24.5032 25.3803 24.6032 25.5144C24.7033 25.6485 24.7186 25.83 24.6417 25.9799L19.7557 35.7314C19.7019 35.8339 19.6172 35.9128 19.5095 35.9444C19.4018 35.976 19.2864 35.9681 19.1864 35.9128L16.2009 34.3034Z" fill="white"/>
<path d="M35.1902 30.0592C35.1209 30.0592 35.0517 30.0434 34.9901 30.0039C34.7824 29.8856 34.7131 29.6252 34.8208 29.4122L41.8612 16.213H34.6439C34.4977 16.213 34.3592 16.1341 34.2822 16.0079C34.2053 15.8816 34.1976 15.7238 34.2668 15.5897C34.2745 15.5739 35.1671 13.7357 36.0981 11.9211C38.091 8.03154 38.2833 8.02365 38.5834 7.99998C38.8142 7.9842 39.022 8.16566 39.0374 8.40235C39.0528 8.58381 38.9527 8.7416 38.8065 8.82049C38.4218 9.24653 36.8137 12.3313 35.3287 15.3451H42.5768C42.723 15.3451 42.8615 15.424 42.9384 15.5582C43.0154 15.6923 43.0154 15.8501 42.9461 15.9842L35.5595 29.8225C35.4825 29.9724 35.3364 30.0592 35.1902 30.0592Z" fill="white"/>
</g>
<defs>
<clipPath id="clip0">
<rect width="28" height="36" fill="white" transform="translate(15 8)"/>
</clipPath>
</defs>
</svg>
