<svg width="162" height="38" viewBox="0 0 162 38" fill="none" xmlns="http://www.w3.org/2000/svg">
<path d="M116.546 19.3925C116.546 8.57133 110.406 1.61133 100.595 1.61133H90.0786V7.69019L92.1917 13.5512V3.54191H100.343C108.947 3.54191 114.33 9.6876 114.33 19.3925C114.33 29.1964 108.947 35.2951 100.343 35.2951H100.029L100.705 37.1712C110.45 37.1192 116.546 30.2236 116.546 19.3925Z" fill="#FEFEFE"/>
<path d="M73.142 1.61133L66.1409 19.2861L67.2048 22.2364L74.2991 3.99733L82.5014 25.0828H68.2294L68.9256 27.0134H83.2564L87.2301 37.1737H89.5467L75.4561 1.61133H73.142Z" fill="#FEFEFE"/>
<path d="M44.412 21.3206L54.3254 37.1737H56.7915L46.6256 21.0186C51.7073 19.7489 54.676 16.5486 54.676 11.5687C54.676 5.32151 50.0453 1.61133 42.1469 1.61133H32.084V8.11591L34.1971 13.977V3.53944H41.9459C48.8882 3.53944 52.5629 6.53927 52.5629 11.5662C52.5629 16.4941 48.8882 19.5435 41.9459 19.5435H36.2023L36.8985 21.4741H40.8869C42.1469 21.4765 43.3064 21.4246 44.412 21.3206Z" fill="#FEFEFE"/>
<path d="M127.323 27.3447L124.771 20.6099H124.729C124.778 21.1445 124.8 21.7782 124.8 22.5108V27.3447H123.991V19.7461H125.31L127.693 26.0131H127.735L130.137 19.7461H131.444V27.3447H130.568V22.4489C130.568 21.8871 130.593 21.2782 130.639 20.6198H130.598L128.024 27.3447H127.323Z" fill="#FEFEFE"/>
<path d="M138.494 27.3447H134.3V19.7461H138.494V20.5307H135.175V22.9786H138.293V23.7582H135.175V26.5551H138.494V27.3447Z" fill="#FEFEFE"/>
<path d="M146.958 23.4736C146.958 24.7285 146.62 25.6864 145.946 26.3497C145.272 27.013 144.301 27.3447 143.036 27.3447H140.953V19.7461H143.259C144.429 19.7461 145.338 20.0728 145.988 20.7287C146.635 21.3846 146.958 22.2979 146.958 23.4736ZM146.032 23.5033C146.032 22.5133 145.787 21.7658 145.294 21.2633C144.801 20.7609 144.071 20.5109 143.097 20.5109H141.825V26.5799H142.892C143.933 26.5799 144.718 26.32 145.242 25.8027C145.769 25.2854 146.032 24.5181 146.032 23.5033Z" fill="#FEFEFE"/>
<path d="M149.427 27.3447V19.7461H150.302V27.3447H149.427Z" fill="#FEFEFE"/>
<path d="M157.887 27.3451L156.95 24.9294H153.935L153.008 27.3451H152.123L155.099 19.7168H155.835L158.794 27.3451H157.887ZM156.678 24.1324L155.803 21.7786C155.69 21.4815 155.573 21.1152 155.452 20.6821C155.376 21.0138 155.269 21.3801 155.129 21.7786L154.244 24.1324H156.678Z" fill="#FEFEFE"/>
<path d="M127.301 33.5219H129.86V37.2172C129.463 37.3459 129.056 37.4425 128.644 37.5093C128.232 37.5761 127.754 37.6083 127.212 37.6083C126.073 37.6083 125.188 37.2667 124.553 36.5811C123.918 35.8955 123.602 34.9377 123.602 33.7051C123.602 32.9155 123.758 32.2225 124.072 31.6285C124.386 31.0344 124.84 30.5815 125.428 30.2671C126.019 29.9528 126.71 29.7969 127.502 29.7969C128.306 29.7969 129.053 29.9454 129.745 30.2424L129.406 31.0221C128.727 30.73 128.073 30.5864 127.445 30.5864C126.529 30.5864 125.813 30.8612 125.298 31.4131C124.783 31.9651 124.526 32.7274 124.526 33.7051C124.526 34.7298 124.773 35.5094 125.269 36.0391C125.764 36.5688 126.492 36.8336 127.453 36.8336C127.975 36.8336 128.485 36.7742 128.982 36.6529V34.3139H127.298V33.5219H127.301Z" fill="#FEFEFE"/>
<path d="M133.331 34.3441V37.5048H132.456V29.9062H134.52C135.444 29.9062 136.126 30.0845 136.567 30.4409C137.008 30.7973 137.229 31.3344 137.229 32.0522C137.229 33.0571 136.724 33.7352 135.716 34.0892L137.758 37.5024H136.724L134.902 34.3416H133.331V34.3441ZM133.331 33.5843H134.53C135.148 33.5843 135.601 33.4605 135.888 33.213C136.175 32.9655 136.319 32.5942 136.319 32.0992C136.319 31.5967 136.172 31.2354 135.881 31.0126C135.586 30.7899 135.116 30.681 134.469 30.681H133.331V33.5843Z" fill="#FEFEFE"/>
<path d="M146.294 33.6939C146.294 34.9091 145.99 35.867 145.38 36.5625C144.769 37.258 143.924 37.607 142.84 37.607C141.732 37.607 140.876 37.2655 140.273 36.5798C139.67 35.8967 139.371 34.9289 139.371 33.6815C139.371 32.4439 139.673 31.4861 140.278 30.8054C140.881 30.1248 141.739 29.7832 142.852 29.7832C143.933 29.7832 144.777 30.1297 145.385 30.8227C145.99 31.5183 146.294 32.4761 146.294 33.6939ZM140.298 33.6939C140.298 34.7235 140.514 35.5032 140.95 36.0353C141.384 36.5675 142.014 36.8323 142.843 36.8323C143.676 36.8323 144.306 36.5675 144.733 36.0378C145.159 35.5081 145.37 34.726 145.37 33.6939C145.37 32.6717 145.159 31.8969 144.735 31.3673C144.311 30.8401 143.683 30.5752 142.855 30.5752C142.021 30.5752 141.386 30.8425 140.952 31.3722C140.519 31.9019 140.298 32.6791 140.298 33.6939Z" fill="#FEFEFE"/>
<path d="M154.445 29.9062V34.8218C154.445 35.6881 154.185 36.3688 153.668 36.8638C153.15 37.3588 152.437 37.6063 151.532 37.6063C150.628 37.6063 149.927 37.3563 149.429 36.8588C148.934 36.3589 148.686 35.6732 148.686 34.802V29.9062H149.562V34.8639C149.562 35.4975 149.733 35.9851 150.076 36.3242C150.42 36.6633 150.925 36.8341 151.589 36.8341C152.224 36.8341 152.712 36.6633 153.055 36.3217C153.398 35.9802 153.57 35.4901 153.57 34.854V29.9062H154.445Z" fill="#FEFEFE"/>
<path d="M162 32.1195C162 32.8893 161.74 33.4808 161.221 33.8942C160.701 34.3075 159.956 34.5154 158.99 34.5154H158.105V37.5029H157.23V29.9043H159.181C161.059 29.9068 162 30.6444 162 32.1195ZM158.102 33.7556H158.889C159.664 33.7556 160.225 33.6293 160.573 33.3769C160.919 33.1244 161.093 32.7185 161.093 32.1616C161.093 31.6591 160.929 31.2854 160.605 31.0379C160.279 30.7929 159.772 30.6691 159.083 30.6691H158.105V33.7556H158.102Z" fill="#FEFEFE"/>
<path d="M11.4553 1.93058C16.488 1.93058 20.2117 3.91067 23.1288 8.28171L24.8889 7.16296C21.9718 2.54194 17.3411 0 11.4063 0C6.68493 0 2.75046 1.94543 0 5.22743L0.83102 7.53175C3.25299 3.99482 6.984 1.93058 11.4553 1.93058Z" fill="white"/>
<path d="M24.7885 31.1419V18.1377H12.4115V20.0683H22.6754V30.3301C20.4103 33.174 16.0346 34.8496 12.1075 34.8496C11.6123 34.8496 11.1269 34.8249 10.6538 34.7828L11.3672 36.7629C11.5951 36.7703 11.8231 36.7802 12.056 36.7802C16.7382 36.7827 21.8199 34.9041 24.7885 31.1419Z" fill="white"/>
</svg>
