<svg width="94" height="94" viewBox="0 0 94 94" fill="none" xmlns="http://www.w3.org/2000/svg">
<path d="M84.8203 8.07812H76.0629V5.50781C76.0629 2.47852 73.5844 0 70.5551 0C67.5258 0 65.0473 2.47852 65.0473 5.50781V8.07812H34.2035V5.50781C34.2035 2.47852 31.725 0 28.6957 0C25.6664 0 23.1879 2.47852 23.1879 5.50781V8.15156C23.041 8.11484 22.8758 8.07812 22.6922 8.07812H15.3852C10.318 8.07812 6.20547 12.1906 6.20547 17.2578V48.5238C6.20547 49.5336 7.03164 50.3598 8.04141 50.3598C9.05117 50.3598 9.87734 49.5336 9.87734 48.5238V26.9883H76.0629C77.0727 26.9883 77.8988 26.1621 77.8988 25.1523C77.8988 24.1426 77.0727 23.3164 76.0629 23.3164H9.87734V17.2578C9.87734 14.2285 12.3559 11.75 15.3852 11.75H22.6922C22.8574 11.75 23.0227 11.7316 23.1879 11.6766V14.0449C23.1879 17.0742 25.6664 19.5527 28.6957 19.5527C31.725 19.5527 34.2035 17.0742 34.2035 14.0449V11.75H65.0473V14.0449C65.0473 17.0742 67.5258 19.5527 70.5551 19.5527C73.5844 19.5527 76.0629 17.0742 76.0629 14.0449V11.75H84.8203C87.8496 11.75 90.3281 14.2285 90.3281 17.2578V87.0234C90.3281 88.841 88.841 90.3281 87.0234 90.3281C85.2059 90.3281 83.7188 88.841 83.7188 87.0234V82.2684C83.7188 81.2586 82.8926 80.4324 81.8828 80.4324H60.5309C59.5211 80.4324 58.6949 81.2586 58.6949 82.2684C58.6949 83.2781 59.5211 84.1043 60.5309 84.1043H80.0469V87.0234C80.0469 88.2168 80.3406 89.3367 80.873 90.3281H6.97656C5.15898 90.3281 3.67188 88.841 3.67188 87.0234V84.1043H44.7602C45.7699 84.1043 46.5961 83.2781 46.5961 82.2684C46.5961 81.2586 45.7699 80.4324 44.7602 80.4324H26.4191C29.632 77.6785 31.6699 73.5844 31.6699 69.0312C31.6699 60.7328 24.9137 53.9766 16.6152 53.9766C8.3168 53.9766 1.56055 60.7328 1.56055 69.0312C1.56055 73.5844 3.59844 77.6785 6.81133 80.4324H1.83594C0.826172 80.4324 0 81.2586 0 82.2684V87.0234C0 90.8789 3.12109 94 6.97656 94H87.0234C90.8789 94 94 90.8789 94 87.0234V17.2578C94 12.1906 89.8875 8.07812 84.8203 8.07812ZM30.5316 14.0449C30.5316 15.0547 29.7055 15.8809 28.6957 15.8809C27.6859 15.8809 26.8598 15.0547 26.8598 14.0449V5.50781C26.8598 4.49805 27.6859 3.67188 28.6957 3.67188C29.7055 3.67188 30.5316 4.49805 30.5316 5.50781V14.0449ZM72.391 14.0449C72.391 15.0547 71.5648 15.8809 70.5551 15.8809C69.5453 15.8809 68.7191 15.0547 68.7191 14.0449V5.50781C68.7191 4.49805 69.5453 3.67188 70.5551 3.67188C71.5648 3.67188 72.391 4.49805 72.391 5.50781V14.0449ZM5.23242 69.0312C5.23242 62.7523 10.3363 57.6484 16.6152 57.6484C22.8941 57.6484 27.998 62.7523 27.998 69.0312C27.998 75.3102 22.8941 80.4141 16.6152 80.4141C10.3363 80.4141 5.23242 75.3102 5.23242 69.0312Z" fill="#FFBEBE"/>
<path d="M85.977 23.8488C85.6281 23.5 85.1692 23.3164 84.6735 23.3164C84.1961 23.3164 83.7188 23.5184 83.3699 23.8488C83.0211 24.1977 82.8375 24.6566 82.8375 25.1523C82.8375 25.648 83.0395 26.107 83.3699 26.4559C83.7004 26.8047 84.1778 26.9883 84.6735 26.9883C85.1508 26.9883 85.6281 26.7863 85.977 26.4559C86.3258 26.107 86.5094 25.648 86.5094 25.1523C86.5094 24.6566 86.3258 24.1977 85.977 23.8488Z" fill="#FFBEBE"/>
<path d="M54.8211 80.9648C54.4723 80.616 54.0133 80.4324 53.5176 80.4324C53.0219 80.4324 52.5629 80.6343 52.2141 80.9648C51.8652 81.3136 51.6816 81.7726 51.6816 82.2683C51.6816 82.7457 51.8836 83.223 52.2141 83.5718C52.5629 83.9207 53.0219 84.1042 53.5176 84.1042C54.0133 84.1042 54.4723 83.9023 54.8211 83.5718C55.1699 83.223 55.3535 82.7457 55.3535 82.2683C55.3719 81.791 55.1699 81.3136 54.8211 80.9648Z" fill="#FFBEBE"/>
<path d="M41.5289 55.8125C37.6735 55.8125 34.5524 58.9336 34.5524 62.7891C34.5524 66.6445 37.6735 69.7656 41.5289 69.7656C45.3844 69.7656 48.5055 66.6445 48.5055 62.7891C48.5055 58.9336 45.3844 55.8125 41.5289 55.8125ZM41.5289 66.0938C39.7114 66.0938 38.2242 64.6066 38.2242 62.7891C38.2242 60.9715 39.7114 59.4844 41.5289 59.4844C43.3465 59.4844 44.8336 60.9715 44.8336 62.7891C44.8336 64.6066 43.3649 66.0938 41.5289 66.0938Z" fill="#FFBEBE"/>
<path d="M58.6765 55.8125C54.821 55.8125 51.7 58.9336 51.7 62.7891C51.7 66.6445 54.821 69.7656 58.6765 69.7656C62.532 69.7656 65.6531 66.6445 65.6531 62.7891C65.6531 58.9336 62.5136 55.8125 58.6765 55.8125ZM58.6765 66.0938C56.8589 66.0938 55.3718 64.6066 55.3718 62.7891C55.3718 60.9715 56.8589 59.4844 58.6765 59.4844C60.4941 59.4844 61.9812 60.9715 61.9812 62.7891C61.9812 64.6066 60.4941 66.0938 58.6765 66.0938Z" fill="#FFBEBE"/>
<path d="M75.8059 55.8125C71.9504 55.8125 68.8293 58.9336 68.8293 62.7891C68.8293 66.6445 71.9504 69.7656 75.8059 69.7656C79.6614 69.7656 82.7825 66.6445 82.7825 62.7891C82.7825 58.9336 79.6614 55.8125 75.8059 55.8125ZM75.8059 66.0938C73.9883 66.0938 72.5012 64.6066 72.5012 62.7891C72.5012 60.9715 73.9883 59.4844 75.8059 59.4844C77.6235 59.4844 79.1106 60.9715 79.1106 62.7891C79.1106 64.6066 77.6235 66.0938 75.8059 66.0938Z" fill="#FFBEBE"/>
<path d="M24.3997 36.7188C20.5442 36.7188 17.4231 39.8398 17.4231 43.6953C17.4231 47.5508 20.5442 50.6719 24.3997 50.6719C28.2551 50.6719 31.3762 47.5508 31.3762 43.6953C31.3762 39.8398 28.2551 36.7188 24.3997 36.7188ZM24.3997 47C22.5821 47 21.095 45.5129 21.095 43.6953C21.095 41.8777 22.5821 40.3906 24.3997 40.3906C26.2172 40.3906 27.7043 41.8777 27.7043 43.6953C27.7043 45.5129 26.2172 47 24.3997 47Z" fill="#FFBEBE"/>
<path d="M58.6765 36.7188C54.821 36.7188 51.7 39.8398 51.7 43.6953C51.7 47.5508 54.821 50.6719 58.6765 50.6719C62.532 50.6719 65.6531 47.5508 65.6531 43.6953C65.6531 39.8398 62.5136 36.7188 58.6765 36.7188ZM58.6765 47C56.8589 47 55.3718 45.5129 55.3718 43.6953C55.3718 41.8777 56.8589 40.3906 58.6765 40.3906C60.4941 40.3906 61.9812 41.8777 61.9812 43.6953C61.9812 45.5129 60.4941 47 58.6765 47Z" fill="#FFBEBE"/>
<path d="M75.8059 36.7188C71.9504 36.7188 68.8293 39.8398 68.8293 43.6953C68.8293 47.5508 71.9504 50.6719 75.8059 50.6719C79.6614 50.6719 82.7825 47.5508 82.7825 43.6953C82.7825 39.8398 79.6614 36.7188 75.8059 36.7188ZM75.8059 47C73.9883 47 72.5012 45.5129 72.5012 43.6953C72.5012 41.8777 73.9883 40.3906 75.8059 40.3906C77.6235 40.3906 79.1106 41.8777 79.1106 43.6953C79.1106 45.5129 77.6235 47 75.8059 47Z" fill="#FFBEBE"/>
<path d="M41.5289 36.7188C37.6735 36.7188 34.5524 39.8398 34.5524 43.6953C34.5524 47.5508 37.6735 50.6719 41.5289 50.6719C45.3844 50.6719 48.5055 47.5508 48.5055 43.6953C48.5055 39.8398 45.3844 36.7188 41.5289 36.7188ZM41.5289 47C39.7114 47 38.2242 45.5129 38.2242 43.6953C38.2242 41.8777 39.7114 40.3906 41.5289 40.3906C43.3465 40.3906 44.8336 41.8777 44.8336 43.6953C44.8336 45.5129 43.3649 47 41.5289 47Z" fill="#FFBEBE"/>
<path d="M23.1512 64.5514C22.4352 63.8354 21.2786 63.8354 20.5626 64.5514L14.5774 70.5366L12.5395 68.4987C11.8235 67.7827 10.6668 67.7827 9.95083 68.4987C9.23481 69.2147 9.23481 70.3713 9.95083 71.0874L13.2922 74.4288C13.6411 74.7776 14.1 74.9612 14.5958 74.9612C15.0915 74.9612 15.5504 74.7592 15.8993 74.4288L23.1696 67.1584C23.8672 66.4424 23.8672 65.2674 23.1512 64.5514Z" fill="#FFBEBE"/>
</svg>
