<svg width="112" height="101" viewBox="0 0 112 101" fill="none" xmlns="http://www.w3.org/2000/svg">
<path d="M66.096 78.952C66.096 84.0527 63.1263 88.8801 57.8999 92.5158C52.6807 96.1466 45.3627 98.456 37.184 98.456C29.0052 98.456 21.6872 96.1466 16.468 92.5158C11.2417 88.8801 8.27197 84.0527 8.27197 78.952C8.27197 73.8513 11.2417 69.0239 16.468 65.3882C21.6872 61.7574 29.0052 59.448 37.184 59.448C45.3627 59.448 52.6807 61.7574 57.8999 65.3882C63.1263 69.0239 66.096 73.8513 66.096 78.952Z" fill="white" stroke="#FFBEBE" stroke-width="4"/>
<path d="M66.096 69.992C66.096 75.0928 63.1263 79.9201 57.8999 83.5559C52.6807 87.1866 45.3627 89.496 37.184 89.496C29.0052 89.496 21.6872 87.1866 16.468 83.5559C11.2417 79.9201 8.27197 75.0928 8.27197 69.992C8.27197 64.8913 11.2417 60.064 16.468 56.4282C21.6872 52.7975 29.0052 50.488 37.184 50.488C45.3627 50.488 52.6807 52.7975 57.8999 56.4282C63.1263 60.064 66.096 64.8913 66.096 69.992Z" fill="white" stroke="#FFBEBE" stroke-width="4"/>
<path d="M42.1121 48.488L37.1841 68.424L32.2561 88.36" stroke="#FFBEBE" stroke-width="4"/>
<path d="M110 40.6188C110 44.4286 107.782 48.0872 103.772 50.877C99.769 53.6618 94.131 55.448 87.808 55.448C81.4849 55.448 75.8469 53.6618 71.8438 50.877C67.8335 48.0872 65.616 44.4286 65.616 40.6188C65.616 36.8089 67.8335 33.1503 71.8438 30.3605C75.8469 27.5757 81.4849 25.7896 87.808 25.7896C94.131 25.7896 99.769 27.5757 103.772 30.3605C107.782 33.1503 110 36.8089 110 40.6188Z" fill="white" stroke="#FFBEBE" stroke-width="4"/>
<path d="M110 33.6066C110 37.4164 107.782 41.075 103.772 43.8648C99.769 46.6496 94.131 48.4358 87.808 48.4358C81.4849 48.4358 75.8469 46.6496 71.8438 43.8648C67.8335 41.075 65.616 37.4164 65.616 33.6066C65.616 29.7967 67.8335 26.1381 71.8438 23.3483C75.8469 20.5635 81.4849 18.7773 87.808 18.7773C94.131 18.7773 99.769 20.5635 103.772 23.3483C107.782 26.1381 110 29.7967 110 33.6066Z" fill="white" stroke="#FFBEBE" stroke-width="4"/>
<path d="M91.6648 16.7773L87.8081 32.3794L83.9514 47.9815" stroke="#FFBEBE" stroke-width="4"/>
<path d="M46.384 24.8414C46.384 28.6513 44.1665 32.3099 40.1562 35.0997C36.1531 37.8844 30.5151 39.6706 24.192 39.6706C17.8689 39.6706 12.2309 37.8844 8.2278 35.0997C4.21752 32.3099 2 28.6513 2 24.8414C2 21.0316 4.21752 17.3729 8.2278 14.5832C12.2309 11.7984 17.8689 10.0122 24.192 10.0122C30.5151 10.0122 36.1531 11.7984 40.1562 14.5832C44.1665 17.3729 46.384 21.0316 46.384 24.8414Z" fill="white" stroke="#FFBEBE" stroke-width="4"/>
<path d="M46.384 17.8292C46.384 21.6391 44.1665 25.2977 40.1562 28.0875C36.1531 30.8722 30.5151 32.6584 24.192 32.6584C17.8689 32.6584 12.2309 30.8722 8.2278 28.0875C4.21752 25.2977 2 21.6391 2 17.8292C2 14.0194 4.21752 10.3607 8.2278 7.57097C12.2309 4.78619 17.8689 3 24.192 3C30.5151 3 36.1531 4.78619 40.1562 7.57097C44.1665 10.3607 46.384 14.0194 46.384 17.8292Z" fill="white" stroke="#FFBEBE" stroke-width="4"/>
<path d="M28.0488 1L24.1921 16.6021L20.3354 32.2042" stroke="#FFBEBE" stroke-width="4"/>
</svg>
