<svg width="100" height="112" viewBox="0 0 100 112" fill="none" xmlns="http://www.w3.org/2000/svg">
<path d="M77.039 37.2531C75.8363 37.2531 74.8523 36.2687 74.8523 35.0656V20.125C74.8523 18.9219 75.8363 17.9375 77.039 17.9375C78.2418 17.9375 79.2258 18.9219 79.2258 20.125V35.0875C79.2258 36.2906 78.2418 37.2531 77.039 37.2531Z" fill="#FFBEBE"/>
<path d="M77.039 15.2688C78.2468 15.2688 79.2258 14.2894 79.2258 13.0813C79.2258 11.8732 78.2468 10.8938 77.039 10.8938C75.8313 10.8938 74.8523 11.8732 74.8523 13.0813C74.8523 14.2894 75.8313 15.2688 77.039 15.2688Z" fill="#FFBEBE"/>
<path d="M100 22.9906C100 10.3031 89.7004 0 77.0391 0C71.7909 0 66.9582 1.77188 63.0877 4.725H7.95976C3.5644 4.725 0 8.3125 0 12.6875V92.2687C0 96.6656 3.5644 100.231 7.95976 100.231H14.8918V104.037C14.8918 108.434 18.4562 112 22.8515 112H80.035C84.4304 112 87.9948 108.434 87.9948 104.037V73.6969C87.9948 72.4938 87.0107 71.5094 85.808 71.5094C84.6053 71.5094 83.6213 72.4938 83.6213 73.6969V104.037C83.6213 106.006 82.0031 107.625 80.035 107.625H22.8515C20.8834 107.625 19.2653 106.006 19.2653 104.037V100.231H65.1214C69.5167 100.231 73.0811 96.6656 73.0811 92.2687V45.6313C74.3713 45.85 75.6834 45.9594 77.0173 45.9594C79.3134 45.9594 81.522 45.6312 83.5994 44.9969V53.9219C83.5994 55.125 84.5834 56.1094 85.7861 56.1094C86.9888 56.1094 87.9729 55.125 87.9729 53.9219V43.1812C95.1454 39.2656 100 31.675 100 22.9906ZM68.7076 92.2687C68.7076 94.2375 67.0894 95.8563 65.1214 95.8563H7.95976C5.99169 95.8563 4.3735 94.2375 4.3735 92.2687V12.6875C4.3735 10.7188 5.99169 9.1 7.95976 9.1H58.7361C55.9808 12.7094 54.297 17.1719 54.1002 22.0063H16.838C15.6353 22.0063 14.6512 22.9906 14.6512 24.1938V33.425C14.6512 34.6281 15.6353 35.6125 16.838 35.6125H56.2432C56.7461 35.6125 57.2053 35.4375 57.5552 35.175C60.1575 39.3312 64.0717 42.5906 68.7076 44.4062V92.2687ZM54.0564 26.3813V31.2375H19.0247V26.3813H54.0564ZM77.0391 41.5844C66.7833 41.5844 58.4518 33.2281 58.4518 22.9688C58.4518 12.7094 66.7833 4.35313 77.0391 4.35313C87.295 4.35313 95.6265 12.7094 95.6265 22.9688C95.6265 33.2281 87.2731 41.5844 77.0391 41.5844Z" fill="#FFBEBE"/>
<path d="M85.8081 65.9532C84.9115 65.9532 84.0805 65.3844 83.7744 64.5313C83.4464 63.6782 83.7088 62.6501 84.4304 62.0595C85.152 61.4688 86.1798 61.4032 86.9671 61.8845C87.7543 62.3657 88.1479 63.3282 87.9511 64.247C87.7106 65.2532 86.814 65.9532 85.8081 65.9532Z" fill="#FFBEBE"/>
<path d="M56.2431 47.6001H16.8379C15.6352 47.6001 14.6511 46.6157 14.6511 45.4126C14.6511 44.2095 15.6352 43.2251 16.8379 43.2251H56.2431C57.4458 43.2251 58.4298 44.2095 58.4298 45.4126C58.4298 46.6157 57.4458 47.6001 56.2431 47.6001Z" fill="#FFBEBE"/>
<path d="M56.2431 57.9907H16.8379C15.6352 57.9907 14.6511 57.0063 14.6511 55.8032C14.6511 54.6001 15.6352 53.6157 16.8379 53.6157H56.2431C57.4458 53.6157 58.4298 54.6001 58.4298 55.8032C58.4298 57.0063 57.4458 57.9907 56.2431 57.9907Z" fill="#FFBEBE"/>
<path d="M56.2431 68.3594H16.8379C15.6352 68.3594 14.6511 67.375 14.6511 66.1719C14.6511 64.9688 15.6352 63.9844 16.8379 63.9844H56.2431C57.4458 63.9844 58.4298 64.9688 58.4298 66.1719C58.4298 67.375 57.4458 68.3594 56.2431 68.3594Z" fill="#FFBEBE"/>
<path d="M56.2431 78.7283H16.8379C15.6352 78.7283 14.6511 77.7439 14.6511 76.5408C14.6511 75.3376 15.6352 74.3533 16.8379 74.3533H56.2431C57.4458 74.3533 58.4298 75.3376 58.4298 76.5408C58.4298 77.7439 57.4458 78.7283 56.2431 78.7283Z" fill="#FFBEBE"/>
</svg>
