<svg width="133" height="134" viewBox="0 0 133 134" fill="none" xmlns="http://www.w3.org/2000/svg">
<g clip-path="url(#clip0)">
<path d="M63.9998 126.07C64.7617 127.298 65.476 128.478 66.1427 129.658L64.3808 130.649C63.9998 129.988 63.5713 129.28 63.1427 128.619C47.8093 128.336 35.8093 125.362 26.7141 119.651C26.1903 119.935 25.7141 120.218 25.3331 120.501L24.0951 118.896C24.3331 118.707 24.5712 118.566 24.857 118.377C23.9046 117.716 22.9998 117.008 22.1427 116.3C18.9046 113.61 16.1427 110.447 13.857 106.86C13.3808 107.049 12.9522 107.238 12.476 107.427L11.6665 105.586C12.0474 105.444 12.4284 105.255 12.8093 105.114C10.3808 100.866 8.52362 96.0043 7.28553 90.5291C6.7141 90.6707 6.09505 90.8123 5.52362 90.9539L4.99981 89.0187C5.61886 88.8299 6.28553 88.6883 6.90457 88.5467C6.04743 84.0155 5.52362 79.1067 5.42838 73.7732C5.42838 73.3956 5.42838 73.018 5.38076 72.6876C5.38076 72.5932 5.38076 72.546 5.38076 72.4516C4.90457 72.2156 4.476 71.9796 3.99981 71.7436L4.95219 69.95C6.19029 70.6108 7.42838 71.2716 8.66648 71.9796C13.6189 72.4516 18.2855 73.2068 22.6189 74.3396C22.2379 74.0092 21.9046 73.7732 21.6189 73.5372L22.8093 71.9324C23.9046 72.7348 25.2379 73.962 26.5712 75.4724C32.2379 77.266 37.3808 79.6731 41.857 82.6467C41.7617 82.4107 41.6189 82.1747 41.5236 81.9387L43.3331 81.0419C43.5236 81.3723 43.6665 81.7499 43.857 82.0803V78.3988H45.2379C35.5236 71.838 23.2855 67.8732 8.76171 66.5988C7.90457 66.5044 7.19029 66.4572 6.57124 66.3628C4.28552 66.1268 2.66648 65.938 1.28552 67.1652C-0.0954283 68.4396 -0.0478092 70.0916 -0.000190103 72.782C-0.000190103 73.1124 -0.000190103 73.4428 0.047429 73.8204C0.523619 94.7299 6.76171 110.353 18.7141 120.312C29.4284 129.28 44.4284 133.717 64.4284 133.906H64.9522C65.1427 133.906 65.2855 133.906 65.476 133.906C66.6189 133.906 67.6665 133.811 68.5236 132.914C69.5236 131.923 69.476 130.649 69.4284 129.658C69.4284 129.327 69.3808 128.95 69.3808 128.478C69.4284 120.548 68.4284 113.61 66.2379 107.002H60.5236C62.7141 112.996 63.8093 119.085 63.9998 126.07Z" fill="white"/>
<path d="M58.9999 119.038L58.0951 118.991L57.6666 119.982C57.5713 119.935 57.4761 119.887 57.3809 119.887C59.5237 122.861 61.4761 125.787 63.1904 128.572C63.4761 128.572 63.7618 128.572 64.0475 128.572C64.0475 128.525 64.0475 128.525 64.0475 128.478C64.0475 127.628 64.0475 126.826 63.9999 126.023C62.5237 123.663 60.8094 121.162 58.9999 118.66C58.9999 118.849 58.9999 118.943 58.9999 119.038Z" fill="white"/>
<path d="M46.9999 103.934C43.4285 99.969 39.5713 96.0514 35.5713 92.2754L34.5237 93.9746C34.4761 93.9274 34.4285 93.9274 34.3809 93.8802C37.9523 97.2314 41.3809 100.724 44.5713 104.217C45.3809 104.5 46.1904 104.783 46.9999 105.114C47.0475 104.736 47.0475 104.311 46.9999 103.934Z" fill="white"/>
<path d="M35.5712 92.2283C35.3331 91.9923 35.095 91.8035 34.8569 91.5675C34.8569 91.6619 34.9046 91.7563 34.9046 91.8507C35.1427 91.9923 35.3331 92.1339 35.5712 92.2283Z" fill="white"/>
<path d="M32.6187 90.7178C32.5235 90.1987 32.3806 89.6795 32.2377 89.2075C24.7616 82.5523 16.8092 76.6051 8.71394 71.9796C8.57108 71.9796 8.47584 71.9324 8.33298 71.9324C7.42822 71.838 6.66632 71.7908 5.99965 71.6964C5.80918 71.6964 5.6187 71.6492 5.42822 71.6492C5.42822 71.9324 5.42822 72.2156 5.42822 72.4516C13.7139 76.8883 21.9044 82.8355 29.6187 89.5379C30.6663 89.9155 31.6663 90.2931 32.6187 90.7178Z" fill="white"/>
<path d="M57.0949 116.111C54.6187 112.855 51.952 109.551 49.0949 106.247C49.0949 106.388 49.0949 106.53 49.0949 106.671H48.2377L47.8092 107.663C47.7139 107.615 47.6187 107.568 47.5234 107.568C50.2853 110.731 52.9044 113.94 55.2853 117.055C55.9044 117.244 56.4758 117.433 57.0949 117.669C57.0472 117.103 57.0949 116.631 57.0949 116.111Z" fill="white"/>
<path d="M64.0476 128.619C63.7619 128.619 63.4761 128.619 63.1904 128.619C63.619 129.327 64 129.988 64.4285 130.649L66.1904 129.658C65.5238 128.478 64.8095 127.298 64.0476 126.07C64.0476 126.873 64.0952 127.675 64.0952 128.525C64.0476 128.572 64.0476 128.572 64.0476 128.619Z" fill="white"/>
<path d="M5.99974 71.6963C6.66641 71.7907 7.42832 71.8379 8.33308 71.9323C8.47593 71.9323 8.57117 71.9795 8.71403 71.9795C7.47593 71.2715 6.23784 70.6107 4.99974 69.95L4.04736 71.7435C4.52355 71.9795 4.95212 72.2155 5.42832 72.4515C5.42832 72.1683 5.42832 71.8851 5.42832 71.6491C5.61879 71.6491 5.80927 71.6491 5.99974 71.6963Z" fill="white"/>
<path d="M34.381 93.8802C32.8095 92.4171 31.2381 90.9539 29.5715 89.5379C23.5238 87.5083 15.5715 86.6115 6.90479 88.5467C7.04764 89.2075 7.1905 89.8683 7.33336 90.5291C18.6667 87.9803 28.6191 90.4819 34.381 93.8802Z" fill="white"/>
<path d="M5.04736 89.0186L5.57117 90.9538C6.1426 90.8122 6.76165 90.6706 7.33308 90.529C7.19022 89.8682 7.04736 89.2074 6.90451 88.5466C6.33308 88.6882 5.66641 88.8298 5.04736 89.0186Z" fill="white"/>
<path d="M35.5713 92.2755C35.5713 92.2755 35.5713 92.2283 35.5713 92.2755C35.3332 92.1339 35.1427 91.9923 34.9046 91.8979C34.9046 91.8979 34.9046 91.8979 34.9046 91.9451L32.9046 92.2283C32.8094 91.7563 32.7618 91.2371 32.6189 90.7651C31.6665 90.3403 30.6665 89.9627 29.5713 89.5851C31.1903 91.0011 32.8094 92.4643 34.3808 93.9275C34.4284 93.9747 34.4761 93.9747 34.5237 94.0219L35.5713 92.2755Z" fill="white"/>
<path d="M47.5238 107.521C46.5715 106.435 45.6191 105.35 44.6191 104.264C33.7619 100.488 23.8095 100.819 12.9048 105.161C13.2381 105.775 13.6191 106.341 13.9524 106.907C25.5238 102.329 35.6667 102.518 47.5238 107.521Z" fill="white"/>
<path d="M11.7617 105.586L12.5712 107.427C13.0474 107.238 13.476 107.049 13.9522 106.86C13.5712 106.294 13.2379 105.727 12.9046 105.114C12.476 105.255 12.0951 105.397 11.7617 105.586Z" fill="white"/>
<path d="M48.1901 106.671H47.0472C47.0472 106.152 47.0472 105.68 47.0472 105.161C46.2377 104.831 45.4282 104.547 44.6187 104.264C45.6187 105.35 46.571 106.435 47.5234 107.521C47.6187 107.568 47.7139 107.615 47.8091 107.615L48.1901 106.671Z" fill="white"/>
<path d="M57.3807 119.887C56.7141 118.943 55.9998 117.999 55.2855 117.008C45.1902 113.987 31.0474 114.506 24.9521 118.33C25.5712 118.754 26.1902 119.179 26.8093 119.557C33.3807 116.206 48.3331 116.206 57.3807 119.887Z" fill="white"/>
<path d="M24.1426 118.849L25.3807 120.454C25.8092 120.123 26.2378 119.84 26.7616 119.604C26.1426 119.179 25.5235 118.802 24.9045 118.377C24.6188 118.519 24.3807 118.707 24.1426 118.849Z" fill="white"/>
<path d="M57.0473 117.622C56.4759 117.433 55.8568 117.197 55.2378 117.008C55.9521 117.952 56.6664 118.943 57.333 119.887C57.4283 119.934 57.5235 119.982 57.6187 119.982L58.0473 118.99L56.9521 118.943C56.9997 118.518 57.0473 118.046 57.0473 117.622Z" fill="white"/>
<path d="M32.2379 89.2075C33.0951 90.0099 33.9998 90.7651 34.857 91.5675C33.8094 85.1483 30.0951 79.2955 26.6665 75.4252C25.3808 75.0004 24.0475 74.6228 22.6665 74.2924C25.6189 76.8883 30.2855 82.5051 32.2379 89.2075Z" fill="white"/>
<path d="M22.9043 71.8853L21.7139 73.49C21.9996 73.726 22.3329 73.962 22.7139 74.2924C24.0948 74.6228 25.4282 75.0004 26.7139 75.4252C25.2853 73.9148 23.9996 72.6876 22.9043 71.8853Z" fill="white"/>
<path d="M34.8568 91.5675C33.9997 90.7651 33.1426 89.9627 32.2378 89.2075C32.3807 89.7267 32.5235 90.2459 32.6187 90.7179C33.4283 91.0955 34.1902 91.4731 34.9045 91.8507C34.9045 91.7563 34.8568 91.6619 34.8568 91.5675Z" fill="white"/>
<path d="M34.9044 91.8979C34.1901 91.4731 33.4282 91.0955 32.6187 90.7179C32.7139 91.1899 32.8091 91.6619 32.9044 92.1811L34.9044 91.8979Z" fill="white"/>
<path d="M47.9998 94.3523H45.9521C46.5712 97.4203 46.9521 100.583 47.0474 103.887C47.7617 104.642 48.4283 105.444 49.095 106.199C49.095 102.046 48.7617 98.1755 47.9998 94.3523Z" fill="white"/>
<path d="M43.9045 84.0155C43.2855 83.5435 42.6188 83.0715 41.9521 82.6467C42.6664 84.1571 43.3331 85.7147 43.9045 87.2723V84.0155Z" fill="white"/>
<path d="M43.9046 82.0331C43.7141 81.7027 43.5713 81.3251 43.3808 80.9948L41.5713 81.8915C41.6665 82.1275 41.8094 82.3635 41.9046 82.5995C42.5713 83.0243 43.238 83.4963 43.857 83.9683V82.0331H43.9046Z" fill="white"/>
<path d="M48.5714 105.775L48.1905 106.624H49.0476C49.0476 106.483 49.0476 106.341 49.0476 106.199C48.381 105.444 47.6667 104.642 47 103.887C47 104.311 47 104.689 47.0476 105.114C47.5714 105.35 48.0476 105.586 48.5714 105.775Z" fill="white"/>
<path d="M47.0474 105.161C47.0474 105.633 47.0474 106.152 47.0474 106.671H48.1902L48.5712 105.822C48.0474 105.586 47.5712 105.35 47.0474 105.161Z" fill="white"/>
<path d="M56.7143 95.8155C56.5714 95.2963 56.381 94.8243 56.1905 94.3523H54C56.1429 99.0723 57.1429 108.465 57.0476 116.064C57.7143 116.961 58.381 117.811 59 118.707C59.1905 115.215 59.0952 111.061 58.7143 107.049H56.7143V95.8155Z" fill="white"/>
<path d="M57.0474 117.622C57.5236 117.811 57.9997 117.952 58.4759 118.188L58.095 119.038L58.9997 119.085C58.9997 118.991 58.9997 118.896 58.9997 118.755C58.3807 117.858 57.714 117.008 57.0474 116.111C57.095 116.631 57.0474 117.103 57.0474 117.622Z" fill="white"/>
<path d="M57.0476 117.622C57.0476 118.094 57 118.518 57 118.943L58.0952 118.99L58.4762 118.141C58 117.952 57.5238 117.811 57.0476 117.622Z" fill="white"/>
<path d="M132.714 60.51L132.666 59.566C132.476 57.1588 132.381 55.554 130.952 54.4684C129.524 53.3828 127.952 53.7132 125.952 54.138C125.428 54.2324 124.762 54.374 124.047 54.5156C105.809 57.8668 89.9045 66.7403 81.3807 78.3987H85.6664V81.6555C87.8568 78.6819 90.4759 75.9915 93.3807 73.6315C93.714 72.5459 94.0949 71.5075 94.4759 70.4691L96.3807 71.1771C96.333 71.2715 96.333 71.3659 96.2854 71.4603C100.047 68.8171 104.19 66.5987 108.381 64.8052C109.619 63.0116 110.904 61.5484 111.952 60.6044L113.333 62.0676C113 62.398 112.571 62.8228 112.143 63.2948C116.143 61.8316 120.095 60.746 123.809 59.9908C125.095 59.0468 126.428 58.15 127.714 57.3476L128.809 59.0468C128.333 59.3772 127.809 59.7076 127.333 60.038L127.381 60.8876C127.714 65.5603 127.714 69.9027 127.285 73.9619C127.952 74.0563 128.666 74.1507 129.333 74.2451L129 76.2275C128.333 76.1331 127.714 76.0387 127.047 75.9443C126.428 80.8059 125.19 85.1482 123.476 89.0658C123.904 89.2074 124.381 89.349 124.857 89.4906L124.238 91.4258C123.714 91.237 123.143 91.0954 122.619 90.9538C121 94.1162 119 96.9482 116.619 99.4026C115.809 100.252 114.952 101.055 114.047 101.81C114.381 101.951 114.714 102.14 115.047 102.329L113.952 104.028C113.476 103.745 112.904 103.462 112.285 103.226C104.857 108.89 94.714 112.43 81.4759 113.94C81.0949 114.695 80.714 115.498 80.3807 116.253L78.5235 115.403C79.1426 114.082 79.8092 112.713 80.5235 111.297C80.333 106.105 80.714 97.9394 81.5711 94.3522H76.0473C75.1426 99.5913 74.8092 109.173 75.2854 113.987L75.333 114.648C75.5235 116.63 75.6188 117.952 76.9045 118.943C77.6188 119.462 78.333 119.651 79.0473 119.651C79.5711 119.651 80.0949 119.557 80.5711 119.462C80.9997 119.415 81.4283 119.321 81.9997 119.274C99.333 117.291 111.952 111.958 120.524 103.037C129.952 93.2194 134.095 78.8707 132.714 60.51Z" fill="white"/>
<path d="M105.381 76.4635C105.286 76.9827 105.19 77.5019 105.095 78.0211C106 77.5019 106.952 77.0299 108 76.6051C114.048 70.2803 120.571 64.5692 127.238 60.0852V59.9908C127.238 59.802 127.19 59.6132 127.19 59.3772C127.143 59.3772 127.048 59.4244 127 59.4244C126.429 59.566 125.762 59.7076 124.952 59.8492C124.524 59.9436 124.143 59.9908 123.714 60.0852C117.333 64.6164 111.143 70.2803 105.381 76.4635Z" fill="white"/>
<path d="M95.9046 90.8594C98.3808 87.6026 101 84.3459 103.809 81.1835C103.762 81.2307 103.714 81.2307 103.667 81.2779L102.476 79.6731C99.2856 83.2603 96.2856 86.989 93.4761 90.765C93.5237 91.1898 93.5237 91.5674 93.5713 91.9922C94.3332 91.6146 95.1427 91.237 95.9046 90.8594Z" fill="white"/>
<path d="M87.476 103.131C89.2856 100.252 91.238 97.3259 93.3332 94.3523C93.238 94.3995 93.1427 94.4467 93.0951 94.4939L92.5713 93.5499L91.7141 93.6443C91.7141 93.5027 91.6665 93.3611 91.6665 93.2195C89.4761 96.2875 87.4284 99.3554 85.5713 102.329C85.6189 102.848 85.7142 103.32 85.7618 103.792C86.2856 103.603 86.857 103.367 87.476 103.131Z" fill="white"/>
<path d="M85.3806 106.294L84.8568 105.35L83.952 105.491C83.952 105.397 83.9044 105.303 83.9044 105.161C82.6663 107.238 81.5234 109.315 80.5234 111.297C80.5711 112.099 80.6187 112.855 80.6663 113.515L80.7139 114.035C80.952 113.987 81.1425 113.987 81.4282 113.94C81.4758 113.94 81.4758 113.94 81.4758 113.94C82.7139 111.439 84.0949 108.843 85.6663 106.152C85.5234 106.199 85.4282 106.247 85.3806 106.294Z" fill="white"/>
<path d="M103 79.0596C102.809 79.2484 102.619 79.4844 102.476 79.6732C102.667 79.5316 102.809 79.4372 103 79.2956C103 79.2484 103 79.154 103 79.0596Z" fill="white"/>
<path d="M80.6665 114.082L80.6189 113.563C80.5713 112.902 80.5237 112.194 80.4761 111.344C79.7618 112.76 79.0951 114.129 78.4761 115.45L80.3332 116.3C80.6665 115.545 81.0475 114.79 81.4284 113.987C81.3808 113.987 81.3808 113.987 81.3808 113.987C81.0951 113.987 80.857 114.035 80.6665 114.082Z" fill="white"/>
<path d="M127.047 59.3772C127.095 59.3772 127.19 59.33 127.238 59.33C127.238 59.5188 127.286 59.7548 127.286 59.9436V60.038C127.762 59.7076 128.286 59.3772 128.762 59.0468L127.666 57.3477C126.333 58.1973 125.047 59.094 123.762 59.9908C124.19 59.8964 124.571 59.8492 125 59.7548C125.809 59.6132 126.476 59.4716 127.047 59.3772Z" fill="white"/>
<path d="M108.048 76.558C106.619 78.0683 105.191 79.6259 103.81 81.1835C108.571 77.7379 117 74.7172 127.048 75.8972C127.143 75.2364 127.191 74.5756 127.286 73.9148C119.762 73.0652 113.095 74.3868 108.048 76.558Z" fill="white"/>
<path d="M128.952 76.2275L129.286 74.2451C128.619 74.1035 127.905 74.0091 127.238 73.9619C127.19 74.6227 127.095 75.2835 127 75.9443C127.667 76.0387 128.333 76.1331 128.952 76.2275Z" fill="white"/>
<path d="M103.809 81.2307C105.19 79.6731 106.619 78.1155 108.048 76.6051C107 77.0299 106.048 77.5491 105.143 78.0211C105.095 78.5403 105.048 79.0123 105 79.5315L103 79.4371C103 79.3899 103 79.3899 103 79.3427C102.809 79.4843 102.667 79.5787 102.476 79.7203L103.667 81.3251C103.714 81.2779 103.762 81.2307 103.809 81.2307Z" fill="white"/>
<path d="M95.9044 90.8595C94.9997 92.0395 94.1425 93.2195 93.333 94.3523C103.238 89.0187 112.095 87.9803 122.571 90.9067C122.857 90.2931 123.19 89.6795 123.428 89.0659C113.666 86.2811 104.952 86.8475 95.9044 90.8595Z" fill="white"/>
<path d="M124.19 91.4259L124.809 89.4907C124.333 89.3491 123.905 89.2075 123.428 89.0659C123.143 89.6795 122.857 90.2931 122.571 90.9067C123.095 91.0955 123.667 91.2371 124.19 91.4259Z" fill="white"/>
<path d="M93.7141 93.4554L92.5713 93.597L93.0951 94.541C93.1903 94.4938 93.2856 94.4466 93.3332 94.3994C94.1903 93.2194 95.0475 92.0394 95.9046 90.9066C95.1427 91.237 94.3332 91.6146 93.5713 92.0394C93.5713 92.4642 93.6189 92.9834 93.7141 93.4554Z" fill="white"/>
<path d="M87.476 103.131C86.857 104.17 86.2379 105.161 85.6665 106.152C93.1903 102.235 106 100.96 112.238 103.226C112.857 102.754 113.428 102.282 114 101.81C108.19 99.1194 95.9998 99.7802 87.476 103.131Z" fill="white"/>
<path d="M113.904 104.028L115 102.329C114.714 102.14 114.381 101.951 114 101.81C113.428 102.282 112.857 102.801 112.238 103.226C112.857 103.462 113.428 103.745 113.904 104.028Z" fill="white"/>
<path d="M85.9048 105.208L84.8096 105.35L85.3334 106.294C85.4286 106.247 85.5239 106.199 85.6191 106.152C86.1905 105.161 86.8096 104.123 87.4286 103.131C86.8572 103.367 86.2858 103.603 85.7143 103.887C85.8096 104.311 85.8572 104.783 85.9048 105.208Z" fill="white"/>
<path d="M105.381 76.4636C106.524 70.894 109.762 65.938 112.095 63.342C110.857 63.814 109.619 64.286 108.381 64.8052C105.81 68.4868 103.381 73.6788 103 79.1067C103.762 78.2099 104.571 77.3132 105.381 76.4636Z" fill="white"/>
<path d="M113.333 62.0677L111.952 60.6045C110.905 61.5485 109.619 63.0117 108.381 64.8053C109.619 64.2861 110.857 63.7669 112.095 63.3421C112.571 62.8229 112.952 62.3981 113.333 62.0677Z" fill="white"/>
<path d="M105.143 77.974C105.19 77.4548 105.285 76.9356 105.428 76.4164C104.619 77.266 103.809 78.1628 103.047 79.0596C103.047 79.154 103.047 79.2012 103.047 79.2956C103.619 78.8708 104.381 78.3988 105.143 77.974Z" fill="white"/>
<path d="M102.952 79.3899L104.952 79.4843C105 78.9651 105.047 78.4459 105.095 77.9739C104.333 78.3987 103.619 78.8707 102.952 79.2955C102.952 79.3427 102.952 79.3899 102.952 79.3899Z" fill="white"/>
<path d="M91.6189 93.2666C92.238 92.417 92.8094 91.6146 93.4284 90.765C92.9999 83.7795 93.9523 77.4547 96.238 71.4603C95.238 72.1683 94.2856 72.8763 93.3332 73.6315C91.4761 79.7203 90.9046 86.1866 91.6189 93.2666Z" fill="white"/>
<path d="M96.3808 71.1772L94.4761 70.4692C94.0475 71.5076 93.7142 72.5932 93.3809 73.6316C94.3332 72.8764 95.2856 72.1684 96.2856 71.4604C96.3332 71.366 96.3808 71.2716 96.3808 71.1772Z" fill="white"/>
<path d="M92.5713 93.5971L92.0951 92.7475C92.5713 92.4643 93.0951 92.2283 93.5713 91.9923C93.5236 91.5675 93.5236 91.1899 93.476 90.7651C92.857 91.6147 92.2379 92.4171 91.6665 93.2667C91.6665 93.4083 91.7141 93.5499 91.7141 93.6915L92.5713 93.5971Z" fill="white"/>
<path d="M93.5714 91.9922C93.0952 92.2282 92.619 92.5114 92.0952 92.7474L92.5714 93.597L93.7143 93.4554C93.619 92.9834 93.5714 92.4642 93.5714 91.9922Z" fill="white"/>
<path d="M85.5238 102.423C85.1905 99.733 85 96.9954 84.9048 94.3994H82.9048C83.0476 98.1282 83.381 101.951 83.8572 105.208C84.4286 104.264 84.9524 103.32 85.5238 102.423Z" fill="white"/>
<path d="M83.9045 105.491L84.8093 105.35L84.3807 104.547C84.8093 104.311 85.2855 104.075 85.7141 103.887C85.6665 103.415 85.5712 102.895 85.5236 102.423C84.9522 103.367 84.3807 104.264 83.8569 105.208C83.9046 105.303 83.9045 105.397 83.9045 105.491Z" fill="white"/>
<path d="M85.7142 103.887C85.238 104.123 84.8094 104.311 84.3809 104.547L84.8094 105.35L85.9046 105.208C85.857 104.783 85.8094 104.311 85.7142 103.887Z" fill="white"/>
<path d="M69.9996 71.366L71.1901 71.1772C88.4758 68.1564 101 53.2885 101 35.8718C101 16.0951 84.7615 0 64.8091 0C44.8567 0 28.6187 16.0951 28.6187 35.8718C28.6187 53.2885 41.1425 68.1092 58.4282 71.1772L59.6186 71.366V81.2779H46.8091V91.5675H59.6186V104.264H69.9996V91.5675H82.8091V81.2779H69.9996V71.366ZM64.8091 61.1236C50.7615 61.1236 39.3329 49.7957 39.3329 35.8718C39.3329 21.9479 50.7615 10.6199 64.8091 10.6199C78.8567 10.6199 90.2853 21.9479 90.2853 35.8718C90.2853 49.7957 78.8567 61.1236 64.8091 61.1236Z" fill="white"/>
</g>
<defs>
<clipPath id="clip0">
<rect width="133" height="134" fill="white"/>
</clipPath>
</defs>
</svg>
