<svg width="1920" height="1594" viewBox="0 0 1920 1594" fill="none" xmlns="http://www.w3.org/2000/svg">
<path fill-rule="evenodd" clip-rule="evenodd" d="M-320.506 33.9821L-416 117.96L-178.785 376.738L-98.8527 379.876L-93.6318 380.081V1509.48L2328.39 1593.48L2295.4 473.872L2657.45 488.086L3048.84 503.452L3128.77 506.59L3143 261.712L3062.47 268.777C2984.72 275.949 2826.46 290.184 2668.2 304.42L2668.12 304.428C2507.07 318.558 2191.79 325.961 2037.65 268.777C1897.23 216.687 1821.85 175.03 1710.69 113.6C1699.82 107.593 1688.61 101.396 1676.96 94.9825C1567.27 47.8091 1499.07 36.1417 1339.59 70.7867C1180.11 105.432 940.332 134.331 783.816 117.96C697.836 108.967 605.259 84.5123 513.355 60.2358C437.959 40.3196 363.016 20.5233 292.542 9.48197C123.524 -12.4441 -46.5225 8.52104 -167.978 23.4953C-238.351 32.1716 -292.411 38.8367 -320.506 33.9821Z" fill="url(#paint0_linear)" fill-opacity="0.85"/>
<defs>
<linearGradient id="paint0_linear" x1="1069" y1="67" x2="935.5" y2="682.5" gradientUnits="userSpaceOnUse">
<stop stop-color="#FFE7E7"/>
<stop offset="1" stop-color="#FFE7E7" stop-opacity="0"/>
</linearGradient>
</defs>
</svg>
