<svg xmlns="http://www.w3.org/2000/svg" viewBox="0 0 1920 600" width="1920" height="600">
	<defs>
		<linearGradient id="grd1" gradientUnits="userSpaceOnUse"  x1="528.629" y1="-12.763" x2="589" y2="1036.5">
			<stop offset="0" stop-color="#ffbebe"  />
			<stop offset="1" stop-color="#e2fafe" stop-opacity="0" />
		</linearGradient>
	</defs>
	<style>
		tspan { white-space:pre }
		.shp0 { opacity: 0.502;fill: url(#grd1) } 
	</style>
	<path fill-rule="evenodd" class="shp0" d="M-1121.85 117.1L-1211.89 179.27L-967.98 337.02L-889.43 334.03L-822.74 331.49L-822.73 598.5L2088 598.5L1981.49 224.73L2203.71 216.27L2282.25 213.28L2285.6 48.81L2206.91 58.65C2130.96 68.39 1976.39 87.96 1821.78 107.54L1821.6 107.56C1664.23 127.25 1355.28 152.25 1201.59 123.87C1061.59 98.01 985.84 74.98 874.14 41.02C863.21 37.7 851.94 34.28 840.24 30.73C730.59 6.2 663.19 2.75 508.24 36.04C353.3 69.33 119.34 103.89 -34.91 102.92C-119.64 102.38 -211.52 91.94 -302.72 81.57C-377.55 73.06 -451.92 64.61 -521.53 61.72C-688.28 57.83 -854.19 82.66 -972.68 100.39C-1041.34 110.66 -1094.08 118.55 -1121.85 117.1Z" />
</svg>