<svg xmlns="http://www.w3.org/2000/svg" viewBox="0 0 1920 810" width="1920" height="810">
	<defs>
		<linearGradient id="grd1" gradientUnits="userSpaceOnUse"  x1="477.629" y1="-12.763" x2="476.5" y2="501">
			<stop offset="0" stop-color="#ffbebe"  />
			<stop offset="1" stop-color="#e2fafe" stop-opacity="0" />
		</linearGradient>
	</defs>
	<style>
		tspan { white-space:pre }
		.shp0 { opacity: 0.502;fill: url(#grd1) } 
	</style>
	<path fill-rule="evenodd" class="shp0" d="M-1172.85 117.1L-1262.89 179.27L-1018.98 337.02L-940.43 334.03L-873.74 331.49L-873.73 598.5L2037 598.5L1930.49 224.73L2152.71 216.27L2231.25 213.28L2234.6 48.81L2155.91 58.65C2079.96 68.39 1925.39 87.96 1770.78 107.54L1770.6 107.56C1613.23 127.25 1304.28 152.25 1150.59 123.87C1010.59 98.01 934.84 74.98 823.14 41.02C812.21 37.7 800.94 34.28 789.24 30.73C679.59 6.2 612.19 2.75 457.24 36.04C302.3 69.33 68.34 103.89 -85.91 102.92C-170.64 102.38 -262.52 91.94 -353.72 81.57C-428.55 73.06 -502.92 64.61 -572.53 61.72C-739.28 57.83 -905.19 82.66 -1023.68 100.39C-1092.34 110.66 -1145.08 118.55 -1172.85 117.1Z" />
</svg>