<svg width="1920" height="2063" viewBox="0 0 1920 2063" fill="none" xmlns="http://www.w3.org/2000/svg">
<path fill-rule="evenodd" clip-rule="evenodd" d="M-320.506 33.9821L-416 117.96L-178.785 376.738L-98.8527 379.876L-93.6318 380.081V1509.48L2328.39 1593.48L2295.4 473.872L2657.45 488.086L3048.84 503.452L3128.77 506.59L3143 261.712L3062.47 268.777C2984.72 275.949 2826.46 290.184 2668.2 304.42L2668.12 304.428C2507.07 318.558 2191.79 325.961 2037.65 268.777C1897.23 216.687 1821.85 175.03 1710.69 113.6C1699.82 107.593 1688.61 101.396 1676.96 94.9825C1567.27 47.8091 1499.07 36.1417 1339.59 70.7867C1180.11 105.432 940.332 134.331 783.816 117.96C697.836 108.967 605.259 84.5123 513.355 60.2358C437.959 40.3196 363.016 20.5233 292.542 9.48197C123.524 -12.4441 -46.5225 8.52104 -167.978 23.4953C-238.351 32.1716 -292.411 38.8367 -320.506 33.9821Z" fill="url(#paint0_linear)" fill-opacity="0.85"/>
<path fill-rule="evenodd" clip-rule="evenodd" d="M-513.87 417.445L-601.608 515.074L-466.07 659.264L-754.463 667.336L-669.882 1971.21L2026.36 1888.27L2026.36 731.756L2439.51 723.006L2824.55 714.852L2903.18 713.186L2899.82 445.317L2821.32 458.143C2745.56 470.909 2591.35 496.494 2437.12 522.082L2436.99 522.104C2280.01 547.757 1971.26 575.891 1816 523.358C1674.58 475.504 1597.69 434.887 1484.3 374.99C1473.21 369.132 1461.77 363.091 1449.89 356.84C1338.95 312.392 1271.23 304.012 1117.23 351.93C963.239 399.848 730.065 446.613 575.371 438.725C490.391 434.391 397.847 413.622 305.976 393.004C230.606 376.09 155.69 359.277 85.776 351.724C-81.5748 338.576 -246.902 372.253 -364.987 396.307C-433.407 410.243 -485.967 420.95 -513.87 417.445Z" fill="white" fill-opacity="0.79"/>
<defs>
<linearGradient id="paint0_linear" x1="1069" y1="67" x2="935.5" y2="682.5" gradientUnits="userSpaceOnUse">
<stop stop-color="#FFE7E7"/>
<stop offset="1" stop-color="#FFE7E7" stop-opacity="0"/>
</linearGradient>
</defs>
</svg>
