<svg width="146" height="126" viewBox="0 0 146 126" fill="none" xmlns="http://www.w3.org/2000/svg">
<g clip-path="url(#clip0)">
<path d="M18.7808 32.6749C15.0597 43.4483 15.4537 56.3497 21.4513 66.0148L21.2762 66.1478C22.1955 67.6995 23.2024 69.1626 24.2968 70.5369C32.6585 85.7882 33.9718 103.966 27.8866 120.281" stroke="#FFBEBE" stroke-width="4" stroke-miterlimit="10"/>
<path d="M120.828 0.0436401C120.565 13.0338 122.491 25.9796 126.519 38.3047C127.394 40.8318 127.832 43.4919 127.832 46.152C127.788 51.7826 125.862 57.1914 122.36 61.5806L122.141 61.9353C117.544 67.6545 110.627 70.9796 103.316 70.9796C89.7889 70.9796 75.9112 59.8515 75.9112 46.152H72.015C72.015 59.8515 53.8033 70.9796 40.2759 70.9796C33.1838 71.0239 26.442 67.8762 21.8015 62.4673L21.7577 62.3786L21.2324 61.5806C17.7301 57.2358 15.7601 51.7826 15.7601 46.152C15.7601 43.4919 16.1979 40.8762 17.0735 38.3491C21.101 25.9796 23.0273 13.0338 22.7646 0.0436401" stroke="#FFBEBE" stroke-width="4" stroke-miterlimit="10"/>
<path d="M118.113 125.335C110.014 107.778 110.671 87.3843 119.864 70.404C120.083 70.0936 120.346 69.8276 120.565 69.5173L120.39 69.3843C124.067 59.0542 131.115 51.7389 126.913 39.5468" stroke="#FFBEBE" stroke-width="4" stroke-miterlimit="10"/>
<path d="M41.5892 51.4286C44.3213 51.4286 46.5361 49.1856 46.5361 46.4187C46.5361 43.6519 44.3213 41.4089 41.5892 41.4089C38.8571 41.4089 36.6423 43.6519 36.6423 46.4187C36.6423 49.1856 38.8571 51.4286 41.5892 51.4286Z" stroke="#FFBEBE" stroke-width="4" stroke-miterlimit="10"/>
<path d="M107.519 51.4286C110.251 51.4286 112.466 49.1856 112.466 46.4187C112.466 43.6519 110.251 41.4089 107.519 41.4089C104.787 41.4089 102.572 43.6519 102.572 46.4187C102.572 49.1856 104.787 51.4286 107.519 51.4286Z" stroke="#FFBEBE" stroke-width="4" stroke-miterlimit="10"/>
<path d="M144.687 10.6848C143.636 11.4828 112.466 20.3941 112.466 20.3941L121.616 28.7734L92.5469 46.4187L140.528 34.6256L135.099 25.4483L144.687 10.6848Z" fill="white" stroke="#FFBEBE" stroke-width="4" stroke-miterlimit="10" stroke-linejoin="round"/>
<path d="M1.31334 10.6848C2.36401 11.4828 33.534 20.3941 33.534 20.3941L24.3844 28.7734L53.4531 46.4187L5.47226 34.6256L10.9007 25.4483L1.31334 10.6848Z" fill="white" stroke="#FFBEBE" stroke-width="4" stroke-miterlimit="10" stroke-linejoin="round"/>
</g>
<defs>
<clipPath id="clip0">
<rect width="146" height="126" fill="white"/>
</clipPath>
</defs>
</svg>
