<svg width="121" height="126" viewBox="0 0 121 126" fill="none" xmlns="http://www.w3.org/2000/svg">
<g clip-path="url(#clip0)">
<path d="M60.5 77.4211C59.149 77.4211 58.0436 78.5285 58.0436 79.882V83.8441C58.0436 85.1976 59.149 86.305 60.5 86.305C61.851 86.305 62.9563 85.1976 62.9563 83.8441V79.882C62.9563 78.5285 61.851 77.4211 60.5 77.4211Z" fill="#FFBEBE"/>
<path d="M120.41 24.3632C119.698 23.5265 118.519 23.2804 117.512 23.7234L105.378 29.3097C106.851 21.0902 108.08 12.4523 106.778 2.14097C106.63 0.910498 105.574 -0.0246582 104.346 -0.0246582H60.5C59.149 -0.0246582 58.0437 1.08276 58.0437 2.43628C58.0437 3.78979 59.149 4.89722 60.5 4.89722H102.16C103.069 14.864 101.497 23.3789 99.9736 31.623L99.9491 31.7953L92.1378 35.4375L70.5956 29.2605C70.5465 29.2359 70.4974 29.2359 70.4482 29.2359C64.1354 27.8332 56.8892 27.8332 50.5763 29.2359C50.5272 29.2359 50.4781 29.2605 50.429 29.2605L28.8622 35.4375L21.051 31.8445L21.0018 31.5738C19.5035 23.3296 17.9314 14.8394 18.8402 4.92183H37.1892C38.5402 4.92183 39.6456 3.8144 39.6456 2.46089C39.6456 1.10737 38.5402 -4.88274e-05 37.1892 -4.88274e-05H16.6541C15.4259 -4.88274e-05 14.3697 0.935108 14.2223 2.16558C12.9204 12.4523 14.1486 21.0902 15.6224 29.3343L3.48802 23.7234C2.48092 23.2558 1.30187 23.5265 0.589527 24.3632C-0.122816 25.2 -0.196507 26.4058 0.393018 27.3164L12.4046 45.5027L9.30958 54.1652C8.94113 55.2234 9.33415 56.4292 10.2676 57.0445L17.7349 61.991C17.0962 65.8546 16.0646 69.6937 14.6153 73.6558C12.5274 79.3898 10.7588 85.0253 9.35871 90.5871C9.35871 90.6363 9.33415 90.6609 9.33415 90.7101C6.43565 102.104 4.96184 113.105 4.96184 123.539C4.96184 124.893 6.0672 126 7.41819 126H113.582C114.933 126 116.038 124.893 116.038 123.539C116.038 107.961 112.796 91.2023 106.385 73.6558C104.935 69.6691 103.904 65.83 103.265 61.991L110.732 57.0445C111.666 56.4292 112.059 55.2234 111.69 54.1652L108.595 45.5027L120.607 27.3164C121.197 26.4058 121.123 25.1753 120.41 24.3632ZM17.1945 43.8046L9.26046 31.7953L17.8331 35.7574L26.0374 39.5472L24.9566 50.5968C24.9074 51.1382 25.0303 51.6796 25.325 52.1226L34.7574 67.3558L21.7387 58.7179C21.7142 58.6933 21.6896 58.6933 21.665 58.6687L14.5907 53.9683L17.4401 45.9949C17.7103 45.2812 17.6121 44.4691 17.1945 43.8046ZM9.89911 121.078C10.0956 112.637 11.2747 103.827 13.3871 94.7214C27.5849 100.972 43.7968 104.27 60.5 104.27C77.1786 104.27 93.4152 100.972 107.613 94.7214C109.75 103.827 110.929 112.637 111.101 121.078H9.89911ZM101.767 75.3539C103.56 80.2511 105.107 85.0992 106.385 89.8734C92.6291 96.075 76.8102 99.348 60.5 99.348C44.1898 99.348 28.3709 96.075 14.6153 89.8734C15.8926 85.0992 17.4401 80.2757 19.2333 75.3539C20.5351 71.8101 21.4931 68.3894 22.2054 64.9441L41.4387 77.6917C41.8563 77.9625 42.323 78.1101 42.7897 78.1101C43.4038 78.1101 44.0179 77.864 44.5091 77.4211C45.3443 76.6089 45.4917 75.3293 44.8776 74.3695L29.9675 50.3015L30.9746 39.9902L51.7063 34.0593C57.3067 32.8289 63.7178 32.8289 69.3183 34.0593L90.0745 39.9902L91.0816 50.3015L76.147 74.3449C75.5329 75.3293 75.7048 76.6089 76.5154 77.3964C76.9821 77.864 77.5962 78.0855 78.2349 78.0855C78.7016 78.0855 79.1683 77.9625 79.5859 77.6671L98.8191 64.9195C99.5069 68.3894 100.489 71.8101 101.767 75.3539ZM103.806 43.8046C103.388 44.4445 103.29 45.2566 103.535 45.9949L106.385 53.9929L86.218 67.3558L95.6504 52.1226C95.9452 51.655 96.068 51.1136 96.0189 50.5968L94.9381 39.5472L111.715 31.7953L103.806 43.8046Z" fill="#FFBEBE"/>
<path d="M48.2182 4.92188C49.5938 4.92188 50.6746 3.81445 50.6746 2.46094C50.6746 1.10742 49.5692 0 48.2182 0C46.8672 0 45.7619 1.10742 45.7619 2.46094C45.7619 3.81445 46.8672 4.92188 48.2182 4.92188Z" fill="#FFBEBE"/>
</g>
<defs>
<clipPath id="clip0">
<rect width="121" height="126" fill="white"/>
</clipPath>
</defs>
</svg>
