<svg width="210" height="171" viewBox="0 0 210 171" fill="none" xmlns="http://www.w3.org/2000/svg">
<g clip-path="url(#clip0)">
<path d="M115.536 122.505C113.304 111.217 102.706 109.279 102.673 109.279C102.573 109.246 103.639 109.513 76.9134 102.867V101.965H96.608C100.674 101.965 103.973 98.6588 103.973 94.5842V56.9775C104.306 55.5748 104.306 54.1387 103.973 52.7359V39.0092C103.973 37.6398 102.84 36.5043 101.473 36.5043C100.107 36.5043 98.9741 37.6398 98.9741 39.0092V46.1898C97.6411 45.3883 96.1415 44.8205 94.5086 44.5533C93.9088 41.9482 91.7427 39.8775 89.0101 39.5101C86.1442 39.1428 83.9781 37.4728 82.5785 34.5338C81.912 33.1644 80.6124 32.2627 79.1128 32.1291C77.6132 31.9955 76.1802 32.6301 75.2805 33.8658C70.9817 39.7105 59.0516 52.8695 38.4238 52.8695C36.8576 52.8695 35.7912 52.8027 35.4246 52.7693C31.6257 52.5355 28.4265 55.5748 28.4265 59.3822V65.1267C28.4265 74.3113 32.2255 83.2621 38.8903 89.6078C41.0898 91.7119 43.5224 93.482 46.1217 94.8847V96.9554H26.4937C25.1941 96.9554 24.1277 95.8867 24.1277 94.5842V38.3078C24.1277 20.0389 38.957 5.00956 56.9188 5.00956C56.9854 5.00956 57.0188 5.00956 57.0854 5.00956C63.517 5.04295 70.915 6.87987 75.9803 9.65194C79.1794 11.4221 81.1789 10.0193 84.3114 10.0193C92.0426 10.0193 98.2076 17.9681 98.9741 25.1488C98.9741 25.249 98.9741 25.6832 99.0074 27.2863C99.0074 29.691 101.74 29.8914 101.507 29.7912C102.873 29.7912 104.006 28.6556 104.006 27.2863C104.006 26.8521 104.006 25.082 103.973 24.6812C102.973 14.7285 94.4753 5.00956 84.3447 5.00956C80.3791 5.00956 79.7793 6.01151 78.413 5.27674C72.6479 2.10389 64.3168 0.033189 57.1187 -0.000209483C36.3577 -0.133803 19.129 17.2 19.129 38.3078V94.6175C19.129 98.6922 22.4281 101.999 26.4937 101.999H46.0884V102.9L20.4287 109.279C20.3954 109.279 20.362 109.313 20.3287 109.313L18.4626 109.881C18.3959 109.881 18.3626 109.914 18.2959 109.947C14.9635 111.183 9.09842 114.49 7.49886 122.572C-0.165733 160.813 0.16751 159.177 0.16751 159.31C-0.76557 165.823 2.50021 171 10.2981 171H37.3241C38.6904 171 39.8234 169.864 39.8234 168.495C39.8234 167.126 38.6904 165.99 37.3241 165.99H27.9267V142.344C27.9267 140.975 26.7936 139.839 25.4273 139.839C24.061 139.839 22.928 140.975 22.928 142.344V165.99H10.2981C6.96567 165.99 5.03286 164.921 5.03286 161.414C5.03286 159.711 4.96621 161.381 12.3975 123.474C13.5306 117.863 17.5961 115.492 19.9621 114.59L21.695 114.089L36.4244 110.415C52.8199 129.786 51.8535 128.751 52.7866 129.686C58.2518 135.03 66.083 134.662 71.2149 128.617L86.6441 110.448L101.34 114.089C101.773 114.289 109.071 115.558 110.638 123.474C118.002 161.047 118.002 159.711 118.002 161.414C117.969 164.854 116.136 165.99 112.737 165.99H100.207V142.344C100.207 140.975 99.074 139.839 97.7077 139.839C96.3414 139.839 95.2084 140.975 95.2084 142.344V165.99H48.9876C47.6213 165.99 46.4883 167.126 46.4883 168.495C46.4883 169.864 47.6213 171 48.9876 171H112.737C118.902 171 122.968 167.593 123.001 161.448C123.034 158.609 122.868 159.978 115.536 122.505ZM94.6752 49.6967C96.7747 50.3312 98.3742 51.7006 98.9741 53.4039V56.2762C98.3742 57.9795 96.7747 59.3488 94.6752 59.9834V49.6967ZM94.6752 65.5609V65.1267C96.2415 64.8262 97.6744 64.2918 98.9741 63.5236V94.6175C98.9741 95.9201 97.9077 96.9888 96.608 96.9888H76.9134V95.0517C87.5105 89.4742 94.6752 78.3525 94.6752 65.5609ZM42.3228 86.0008C36.6576 80.5902 33.4252 72.9754 33.4252 65.1601C33.5585 59.7162 33.0586 59.0482 33.925 58.2133C34.2249 57.9127 34.6582 57.7457 35.1247 57.7791C53.0532 58.8478 68.449 50.9658 78.6462 37.74C81.3788 42.5828 85.4111 44.0857 88.4103 44.4531C89.1434 44.5533 89.7099 45.1879 89.7099 45.9226C89.7099 52.8695 89.7099 58.6808 89.7099 65.5609C89.6766 90.5096 59.918 102.834 42.3228 86.0008ZM67.4159 125.378C63.9169 129.486 59.0516 129.452 55.5858 125.344L50.3539 119.165H72.6479L67.4159 125.378ZM76.9134 114.189H46.1217L41.8229 109.112L49.1876 107.276C50.2873 107.008 51.087 105.973 51.087 104.804V97.0556C57.9519 99.3601 65.2165 99.3267 71.9481 97.1224C71.9814 105.138 71.8481 104.938 72.0814 105.639C72.3479 106.407 73.0144 107.042 73.8475 107.242L81.2455 109.079L76.9134 114.189Z" fill="#FFBEBE"/>
</g>
<circle cx="163.5" cy="99.5" r="30.5" stroke="#FFBEBE" stroke-width="4"/>
<path d="M184 77.7895L205.639 58.0175M205.639 58.0175L208 79M205.639 58.0175L185.18 56" stroke="#FFBEBE" stroke-width="4" stroke-linejoin="round"/>
<defs>
<clipPath id="clip0">
<rect width="123" height="171" fill="white"/>
</clipPath>
</defs>
</svg>
