<svg width="164" height="170" viewBox="0 0 164 170" fill="none" xmlns="http://www.w3.org/2000/svg">
<path d="M98.7438 145.448V113.133H109.308C112.815 113.133 115.449 113.858 117.21 115.308C118.985 116.758 119.873 118.904 119.873 121.744C119.873 123.254 119.444 124.593 118.586 125.762C117.727 126.916 116.559 127.811 115.079 128.447C116.825 128.935 118.201 129.868 119.207 131.244C120.228 132.605 120.739 134.233 120.739 136.126C120.739 139.027 119.799 141.305 117.92 142.962C116.041 144.62 113.385 145.448 109.952 145.448H98.7438ZM103.005 130.334V141.964H110.041C112.023 141.964 113.584 141.453 114.724 140.432C115.878 139.396 116.455 137.976 116.455 136.171C116.455 132.279 114.339 130.334 110.107 130.334H103.005ZM103.005 126.916H109.442C111.306 126.916 112.793 126.45 113.903 125.518C115.027 124.585 115.589 123.32 115.589 121.722C115.589 119.947 115.072 118.659 114.036 117.86C113 117.047 111.424 116.64 109.308 116.64H103.005V126.916Z" fill="#FFBEBE"/>
<path d="M142.112 113.111V116.595H141.357C138.161 116.655 135.616 117.602 133.722 119.436C131.828 121.271 130.733 123.853 130.437 127.182C132.139 125.229 134.462 124.252 137.407 124.252C140.218 124.252 142.46 125.244 144.132 127.227C145.818 129.209 146.662 131.769 146.662 134.906C146.662 138.235 145.752 140.898 143.932 142.896C142.127 144.893 139.7 145.892 136.652 145.892C133.559 145.892 131.052 144.708 129.128 142.341C127.204 139.959 126.243 136.896 126.243 133.152V131.577C126.243 125.629 127.508 121.086 130.038 117.949C132.583 114.798 136.363 113.185 141.379 113.111H142.112ZM136.719 127.67C135.313 127.67 134.018 128.092 132.834 128.935C131.651 129.779 130.83 130.837 130.371 132.109V133.619C130.371 136.282 130.97 138.427 132.169 140.055C133.367 141.682 134.862 142.496 136.652 142.496C138.501 142.496 139.951 141.816 141.002 140.454C142.067 139.093 142.6 137.31 142.6 135.106C142.6 132.886 142.06 131.096 140.98 129.734C139.915 128.358 138.494 127.67 136.719 127.67Z" fill="#FFBEBE"/>
<path d="M17.3774 65.9035V33.5884H27.942C31.4487 33.5884 34.0825 34.3134 35.8432 35.7635C37.6188 37.2135 38.5066 39.359 38.5066 42.1999C38.5066 43.7091 38.0775 45.0482 37.2193 46.2171C36.3611 47.3712 35.1922 48.2664 33.7126 48.9026C35.4585 49.3909 36.8346 50.323 37.8407 51.6991C38.8617 53.0604 39.3721 54.6879 39.3721 56.5819C39.3721 59.4819 38.4326 61.7606 36.5534 63.4178C34.6743 65.0749 32.0184 65.9035 28.5856 65.9035H17.3774ZM21.6388 50.7891V62.419H28.6744C30.6571 62.419 32.2181 61.9085 33.3574 60.8876C34.5116 59.8519 35.0886 58.4314 35.0886 56.6263C35.0886 52.7348 32.9727 50.7891 28.741 50.7891H21.6388ZM21.6388 47.3712H28.0752C29.9395 47.3712 31.4265 46.9051 32.5362 45.9729C33.6608 45.0408 34.223 43.7757 34.223 42.1777C34.223 40.4021 33.7052 39.1148 32.6694 38.3158C31.6337 37.502 30.0579 37.0951 27.942 37.0951H21.6388V47.3712Z" fill="#FFBEBE"/>
<path d="M58.1265 65.9035H53.9983V38.5378L45.7198 41.5784V37.8498L57.4828 33.4331H58.1265V65.9035Z" fill="#FFBEBE"/>
<path d="M91.3293 65.9035H70.1558V62.9517L81.3418 50.5228C82.999 48.6437 84.1383 47.1196 84.7598 45.9507C85.396 44.767 85.7141 43.5463 85.7141 42.2886C85.7141 40.6019 85.2037 39.2184 84.1827 38.1383C83.1618 37.0582 81.8005 36.5181 80.0989 36.5181C78.057 36.5181 76.4665 37.1025 75.3271 38.2714C74.2026 39.4256 73.6404 41.0384 73.6404 43.1098H69.5344C69.5344 40.1358 70.4888 37.7314 72.3975 35.8966C74.321 34.0619 76.8881 33.1445 80.0989 33.1445C83.1026 33.1445 85.4774 33.9361 87.2234 35.5193C88.9693 37.0877 89.8423 39.1814 89.8423 41.8004C89.8423 44.9816 87.8152 48.7694 83.761 53.1639L75.1052 62.5522H91.3293V65.9035Z" fill="#FFBEBE"/>
<circle cx="50.5749" cy="50.6823" r="48.5749" stroke="#FFBEBE" stroke-width="4"/>
<circle cx="123.246" cy="129.245" r="38.7545" stroke="#FFBEBE" stroke-width="4"/>
</svg>
