<svg width="134" height="134" viewBox="0 0 134 134" fill="none" xmlns="http://www.w3.org/2000/svg">
<rect width="134" height="134" fill="white"/>
<path d="M39.12 21.433L37.421 25.0228L41.3282 26.872L43.0272 23.2822L39.12 21.433Z" fill="#FFBEBE"/>
<path d="M35.6343 28.7992L11.752 79.1843C9.7258 83.4799 8.64516 88.2617 8.64516 93.0165H12.9677C12.9677 88.9101 13.9133 84.7496 15.6693 81.0214L39.5246 30.6363L35.6343 28.7992Z" fill="#FFBEBE"/>
<path d="M88.6129 43.2258C80.3189 43.2258 72.5383 45.4952 65.8383 49.4125L43.0097 1.24274C42.6585 0.48629 41.902 0 41.0645 0C40.227 0 39.4706 0.48629 39.1194 1.24274L3.94435 75.4831C1.35081 80.9133 0 86.9919 0 93.0165C0 115.629 18.371 134 41.1456 134C49.4395 134 57.4363 131.515 64.2444 126.841C71.2956 131.352 79.6435 134 88.5859 134C113.603 134 133.973 113.63 133.973 88.6129C133.973 63.596 113.63 43.2258 88.6129 43.2258ZM40.9835 129.677C20.7754 129.677 4.32258 113.225 4.32258 93.0165C4.32258 87.6133 5.53831 82.1831 7.86169 77.3202L41.0645 7.21331L62.1911 51.7899C50.7363 60.0298 43.2258 73.4569 43.2258 88.6129C43.2258 103.013 49.9798 115.845 60.4621 124.166C54.6806 127.759 48.0347 129.677 40.9835 129.677ZM88.6129 129.677C65.9734 129.677 47.5484 111.252 47.5484 88.6129C47.5484 65.9734 65.9734 47.5484 88.6129 47.5484C111.252 47.5484 129.677 65.9734 129.677 88.6129C129.677 111.252 111.252 129.677 88.6129 129.677Z" fill="#FFBEBE"/>
<path d="M88.6129 54.0323C77.8875 54.0323 69.1613 60.8133 69.1613 69.1613C69.1613 77.5093 77.8875 84.2903 88.6129 84.2903C99.3383 84.2903 108.065 77.5093 108.065 69.1613C108.065 60.8133 99.3383 54.0323 88.6129 54.0323ZM88.6129 79.9677C80.2649 79.9677 73.4839 75.1319 73.4839 69.1613C73.4839 63.1907 80.2649 58.3548 88.6129 58.3548C96.9609 58.3548 103.742 63.1907 103.742 69.1613C103.742 75.1319 96.9609 79.9677 88.6129 79.9677Z" fill="#FFBEBE"/>
<path d="M94.3943 63.8931C90.7202 65.1359 86.4786 65.1359 82.8044 63.8931L81.4266 67.9996C83.723 68.7831 86.1274 69.1613 88.6129 69.1613C91.0984 69.1613 93.5028 68.756 95.7992 67.9996L94.3943 63.8931Z" fill="#FFBEBE"/>
<path d="M109.199 93.854C108.173 95.502 106.876 96.9879 105.309 98.2577C103.769 99.5274 102.04 100.527 100.23 101.202L101.743 105.255C104.012 104.417 106.119 103.175 108.037 101.608C109.956 100.041 111.577 98.2036 112.846 96.1504L109.199 93.854Z" fill="#FFBEBE"/>
<path d="M122.653 89.0992C120.573 86.4246 117.412 84.7226 113.765 84.3714C108.713 83.8581 103.229 85.8302 98.7169 89.7476C90.7472 96.6367 88.3968 107.551 93.4758 114.089C95.5561 116.764 98.7169 118.466 102.364 118.817C102.877 118.871 103.391 118.898 103.931 118.898C108.524 118.898 113.36 116.953 117.412 113.441C125.355 106.525 127.732 95.6101 122.653 89.0992ZM114.575 110.172C111.009 113.252 106.606 114.873 102.796 114.494C100.311 114.251 98.2577 113.198 96.9069 111.415C93.2327 106.687 95.3129 98.4198 101.581 92.9895C104.796 90.1798 108.713 88.6129 112.252 88.6129C112.63 88.6129 113.008 88.6399 113.36 88.6669C115.845 88.9101 117.898 89.9637 119.249 91.7468C122.923 96.4746 120.816 104.742 114.575 110.172Z" fill="#FFBEBE"/>
<path d="M71.8899 98.2306C70.35 96.9609 69.0262 95.475 67.9996 93.827L64.3254 96.1234C65.5952 98.1766 67.2161 100.014 69.1343 101.581C71.0524 103.148 73.1597 104.39 75.4291 105.228L76.9419 101.175C75.1589 100.5 73.4569 99.5004 71.8899 98.2306Z" fill="#FFBEBE"/>
<path d="M78.5089 89.7476C73.9972 85.8302 68.5129 83.8581 63.4609 84.3714C59.8137 84.7226 56.6528 86.3976 54.5726 89.0992C49.5206 95.6101 51.871 106.525 59.8137 113.441C63.8661 116.953 68.702 118.898 73.2948 118.898C73.8081 118.898 74.3484 118.871 74.8617 118.817C78.5089 118.466 81.6698 116.791 83.75 114.089C88.829 107.551 86.4516 96.6367 78.5089 89.7476ZM80.346 111.415C78.9682 113.171 76.9419 114.251 74.4565 114.494C70.6202 114.873 66.2436 113.252 62.6774 110.172C56.4367 104.769 54.3294 96.5016 58.0036 91.7468C59.3815 89.9907 61.4077 88.9101 63.8932 88.6669C64.2444 88.6399 64.6226 88.6129 65.0008 88.6129C68.5399 88.6129 72.4573 90.2069 75.6722 92.9895C81.9129 98.4198 84.0202 106.687 80.346 111.415Z" fill="#FFBEBE"/>
</svg>
