<svg width="154" height="135" viewBox="0 0 154 135" fill="none" xmlns="http://www.w3.org/2000/svg">
<path d="M112.131 135H41.8687C39.4625 135 37.2066 133.708 36.0035 131.636L0.902344 70.8945C-0.300781 68.8218 -0.300781 66.2083 0.902344 64.1355L36.0336 3.36449C37.2367 1.29172 39.4926 0 41.8988 0H112.131C114.537 0 116.793 1.29172 117.996 3.36449L132.945 29.2891C133.577 30.3705 133.186 31.7523 132.133 32.3531C131.05 32.984 129.667 32.5935 129.065 31.5421L114.086 5.64753C113.695 4.95661 112.943 4.53605 112.131 4.53605H41.8687C41.0566 4.53605 40.3047 4.95661 39.9137 5.64753L4.8125 66.3885C4.42148 67.0794 4.42148 67.9506 4.8125 68.6415L39.9437 129.383C40.3348 130.073 41.0867 130.494 41.8988 130.494H112.131C112.943 130.494 113.695 130.073 114.086 129.383L149.187 68.6415C149.579 67.9506 149.579 67.0794 149.187 66.3885L133.697 39.5627C133.066 38.4813 133.457 37.0995 134.509 36.4987C135.592 35.8678 136.976 36.2583 137.577 37.3097L153.068 64.1355C154.271 66.2083 154.271 68.8218 153.068 70.8945L117.966 131.636C116.763 133.708 114.537 135 112.131 135ZM95.9793 111.959C94.6559 111.959 93.573 110.878 93.573 109.556C93.573 108.234 94.6559 107.153 95.9793 107.153C97.3027 107.153 98.3855 108.234 98.3855 109.556C98.3855 110.878 97.3027 111.959 95.9793 111.959ZM77 107.844C75.8269 107.844 74.6539 107.543 73.6312 106.943L44.5156 90.1502C42.4402 88.9486 41.1469 86.6956 41.1469 84.2924V50.7076C41.1469 48.3044 42.4402 46.0514 44.5156 44.8498L73.6312 28.0574C75.7066 26.8558 78.3234 26.8558 80.3988 28.0574L109.514 44.8498C111.59 46.0514 112.883 48.3044 112.883 50.7076V84.2924C112.883 86.6956 111.59 88.9486 109.514 90.1502L99.5285 95.9179C98.4457 96.5487 97.0621 96.1582 96.4605 95.1068C95.8289 94.0254 96.2199 92.6435 97.2726 92.0427L107.259 86.275C107.95 85.8845 108.371 85.1335 108.371 84.3224V52.0294L79.2559 68.8218V102.407L90.1742 96.0981C91.257 95.4673 92.6406 95.8578 93.2422 96.9092C93.8738 97.9907 93.4828 99.3725 92.4301 99.9733L80.3988 106.913C79.3461 107.543 78.173 107.844 77 107.844ZM45.6285 52.0294V84.2924C45.6285 85.1035 46.0496 85.8545 46.7414 86.245L74.7141 102.376V68.8218L64.1266 62.7236C63.0437 62.0928 62.6828 60.7109 63.3144 59.6595C63.9461 58.5781 65.3297 58.2176 66.3824 58.8485L76.9699 64.9466L106.086 48.1542L78.1129 32.0227C77.4211 31.6322 76.5488 31.6322 75.857 32.0227L47.8844 48.1542L58.9832 54.5527C60.066 55.1836 60.4269 56.5654 59.7953 57.6168C59.1637 58.6983 57.7801 59.0587 56.7273 58.4279L45.6285 52.0294ZM52.0652 107.003C50.7418 107.003 49.659 105.921 49.659 104.599C49.659 103.278 50.7418 102.196 52.0652 102.196C53.3887 102.196 54.4715 103.278 54.4715 104.599C54.4715 105.921 53.3887 107.003 52.0652 107.003ZM105.003 106.552C103.679 106.552 102.596 105.471 102.596 104.149C102.596 102.827 103.679 101.746 105.003 101.746C106.326 101.746 107.409 102.827 107.409 104.149C107.409 105.471 106.326 106.552 105.003 106.552Z" fill="#FFBEBE"/>
</svg>
