<svg width="112" height="145" viewBox="0 0 112 145" fill="none" xmlns="http://www.w3.org/2000/svg">
<path d="M104.388 74.1371C98.6708 63.496 95.6667 51.5101 95.6667 39.4365C95.6667 29.1169 97.7958 19.119 101.967 9.70564L106.254 0H5.74583L10.0333 9.67641C14.2042 19.1189 16.3333 29.1169 16.3333 39.4073C16.3333 51.4808 13.3 63.496 7.6125 74.1079C2.625 83.375 0 93.8407 0 104.365V105.271C0 110.095 0.554167 114.918 1.63333 119.596L7.46667 145H104.504L110.338 119.596C111.417 114.889 111.971 110.066 111.971 105.271V104.365C112 93.8407 109.375 83.375 104.388 74.1371ZM58.3333 140.118C57.575 140.235 56.7875 140.323 56 140.323C55.2125 140.323 54.425 140.235 53.6667 140.118V119.274C53.6667 117.988 54.7167 116.935 56 116.935C57.2833 116.935 58.3333 117.988 58.3333 119.274V140.118ZM63 138.422V119.274C63 116.234 61.0458 113.661 58.3333 112.697V88.871H53.6667V112.697C50.9542 113.661 49 116.234 49 119.274V138.422C44.8292 135.996 42 131.465 42 126.29C42 122.11 43.8375 118.193 47.0458 115.532L49.4083 113.544L46.8417 111.79C42.35 108.721 39.6667 103.663 39.6667 98.2258C39.6667 89.1925 46.9875 81.8548 56 81.8548C65.0125 81.8548 72.3333 89.1925 72.3333 98.2258C72.3333 103.663 69.65 108.721 65.1583 111.79L62.5917 113.544L64.9542 115.532C68.1625 118.222 70 122.139 70 126.29C70 131.465 67.1708 135.996 63 138.422ZM107.333 105.271C107.333 109.744 106.838 114.217 105.817 118.543L100.8 140.323H68.3083C72.1875 136.902 74.6667 131.874 74.6667 126.29C74.6667 121.701 73.0042 117.316 70 113.924C74.4333 109.949 77 104.277 77 98.2258C77 92.5544 74.7542 87.4385 71.1083 83.6381L71.3708 83.3165L71.575 83.0242C73.6458 79.4284 77.525 77.1774 81.6667 77.1774C88.1125 77.1774 93.3333 82.4103 93.3333 88.871C93.3333 91.9113 92.1375 94.8054 90.0667 96.9688C88.9875 96.2964 87.7042 95.8871 86.3333 95.8871C82.4833 95.8871 79.3333 99.0443 79.3333 102.903C79.3333 106.762 82.4833 109.919 86.3333 109.919C90.1833 109.919 93.3333 106.762 93.3333 102.903C93.3333 102.114 93.1875 101.383 92.9542 100.681C96.1625 97.6119 98 93.3438 98 88.871C98 79.8377 90.6792 72.5 81.6667 72.5C75.9208 72.5 70.5542 75.5695 67.6083 80.5101L67.5208 80.627C64.1958 78.4345 60.2583 77.1482 56 77.1482C51.7417 77.1482 47.8042 78.4345 44.4792 80.627L44.3917 80.5101C41.4458 75.5695 36.0792 72.5 30.3333 72.5C21.3208 72.5 14 79.8377 14 88.871C14 93.3438 15.8375 97.6119 19.0458 100.681C18.8125 101.383 18.6667 102.114 18.6667 102.903C18.6667 106.762 21.8167 109.919 25.6667 109.919C29.5167 109.919 32.6667 106.762 32.6667 102.903C32.6667 99.0443 29.5167 95.8871 25.6667 95.8871C24.2958 95.8871 23.0417 96.2964 21.9625 96.9688C19.8625 94.8054 18.6667 91.9113 18.6667 88.871C18.6667 82.4103 23.8875 77.1774 30.3333 77.1774C34.475 77.1774 38.3542 79.4284 40.425 83.0242L40.8917 83.6089C37.2458 87.4093 34.9708 92.5544 34.9708 98.2258C34.9708 104.277 37.5375 109.949 41.9708 113.924C38.9667 117.316 37.3042 121.701 37.3042 126.29C37.3042 131.874 39.7833 136.902 43.6625 140.323H11.2L6.18333 118.543C5.19167 114.187 4.66667 109.715 4.66667 105.271V104.365C4.66667 94.63 7.11667 84.9244 11.725 76.3589C17.7917 65.0454 21 52.2702 21 39.4073C21 28.4446 18.7542 17.8034 14.2917 7.77621L12.9208 4.67742H99.0792L97.7083 7.77621C93.275 17.8034 91 28.4446 91 39.4073C91 52.2409 94.2083 65.0161 100.275 76.3296C104.883 84.8952 107.333 94.6008 107.333 104.336V105.271ZM88.6667 102.903C88.6667 104.19 87.6167 105.242 86.3333 105.242C85.05 105.242 84 104.19 84 102.903C84 101.617 85.05 100.565 86.3333 100.565C87.6167 100.565 88.6667 101.617 88.6667 102.903ZM23.3333 102.903C23.3333 101.617 24.3833 100.565 25.6667 100.565C26.95 100.565 28 101.617 28 102.903C28 104.19 26.95 105.242 25.6667 105.242C24.3833 105.242 23.3333 104.19 23.3333 102.903Z" fill="#FFBEBE"/>
<path d="M58.3334 42.0967H53.6667V46.7741H58.3334V42.0967Z" fill="#FFBEBE"/>
</svg>
