<svg width="147" height="147" viewBox="0 0 147 147" fill="none" xmlns="http://www.w3.org/2000/svg">
<rect width="147" height="147" fill="white"/>
<mask id="path-1-inside-1" fill="white">
<path d="M133.11 0H83.1071C81.8339 0 80.7921 1.04173 80.7921 2.31496V25.8697C80.7921 26.8246 81.3998 27.6927 82.2969 28.04C83.1939 28.3872 84.2356 28.1268 84.8433 27.4033C86.6085 25.3778 89.1839 24.2782 91.9039 24.4518C96.2156 24.7122 99.7169 28.1557 100.006 32.4673C100.18 34.898 99.3697 37.213 97.6913 39.0071C96.0419 40.7722 93.7849 41.7561 91.3541 41.7561C88.8656 41.7561 86.4927 40.6854 84.8433 38.7756C84.2067 38.0522 83.1939 37.7917 82.2969 38.139C81.3998 38.4862 80.7921 39.3543 80.7921 40.3093V42.1902L79.8661 41.5246C77.8116 40.0488 75.4388 39.2096 72.9213 39.065C70.8667 38.9492 68.8411 39.2675 66.9602 40.0778L66.15 40.425V21.5581C66.15 20.2848 65.1083 19.2431 63.835 19.2431H13.8898C6.22146 19.2431 0 25.4646 0 33.1329V133.11C0 140.779 6.22146 147 13.8898 147H113.867C121.535 147 127.757 140.779 127.757 133.11V126.918C127.757 125.644 126.715 124.603 125.442 124.603C124.169 124.603 123.127 125.644 123.127 126.918V133.11C123.127 138.203 118.96 142.37 113.867 142.37H66.2079V121.13C66.2079 120.175 65.6002 119.307 64.7032 118.96C63.8061 118.613 62.7644 118.873 62.1567 119.597C60.5073 121.478 58.1345 122.577 55.6459 122.577C53.2152 122.577 50.9581 121.593 49.3087 119.828C47.6593 118.063 46.849 115.748 46.9937 113.288C47.2831 108.977 50.7844 105.533 55.0961 105.273C57.7872 105.128 60.3626 106.199 62.1567 108.224C62.7933 108.948 63.8061 109.208 64.7032 108.861C65.6002 108.514 66.2079 107.646 66.2079 106.691V85.451H82.7598L82.4126 86.2612C81.7181 87.9106 81.3709 89.6179 81.3709 91.412C81.3709 95.087 82.9045 98.6173 85.5957 101.135C88.3158 103.681 91.875 104.926 95.6079 104.665C102.234 104.202 107.53 98.8488 107.935 92.2223C108.051 90.1388 107.732 88.1421 106.922 86.2612L106.575 85.451H123.127V100.903C123.127 102.177 124.169 103.218 125.442 103.218C126.715 103.218 127.757 102.177 127.757 100.903V83.136C127.757 81.8628 126.715 80.8211 125.442 80.8211H124.024L124.69 79.8951C126.31 77.638 127.178 74.889 127.178 72.14C127.178 70.3748 126.831 68.6386 126.136 66.9892L125.789 66.1789H144.685C145.958 66.1789 147 65.1372 147 63.864V13.8898C147 6.22146 140.779 0 133.11 0ZM61.578 101.974L60.7677 101.627C58.8868 100.845 56.8902 100.498 54.8067 100.614C48.1801 101.019 42.8268 106.315 42.3638 112.941C42.1033 116.674 43.3476 120.233 45.8941 122.953C48.4116 125.644 51.9419 127.178 55.6169 127.178C57.3821 127.178 59.1183 126.831 60.7677 126.136L61.578 125.789V142.37H13.8898C8.79685 142.37 4.62992 138.203 4.62992 133.11V85.4221H25.8697C26.8246 85.4221 27.6927 84.8144 28.04 83.9173C28.3872 83.0203 28.1268 81.9785 27.4033 81.3709C25.3778 79.6057 24.2782 77.0303 24.4518 74.3102C24.7122 69.9986 28.1557 66.4972 32.4673 66.2079C34.898 66.0343 37.213 66.8445 39.0071 68.5228C40.7722 70.1722 41.7561 72.4293 41.7561 74.86C41.7561 77.3486 40.6854 79.7215 38.7756 81.3709C38.0522 82.0075 37.7917 83.0203 38.139 83.9173C38.4862 84.8144 39.3543 85.4221 40.3093 85.4221H61.549V101.974H61.578ZM65.6291 58.0187C64.9925 57.2953 63.9797 57.0348 63.0827 57.3821C62.1856 57.7293 61.578 58.5974 61.578 59.5524V80.7921H45.026L45.3732 79.9819C46.0677 78.3325 46.415 76.6252 46.415 74.8311C46.415 71.1561 44.8813 67.6258 42.1902 65.1083C39.4701 62.5618 35.9108 61.3175 32.178 61.578C25.5514 62.041 20.2559 67.3943 19.8508 74.0209C19.735 76.0754 20.0533 78.101 20.8636 79.9819L21.2108 80.7921H4.62992V33.1329C4.62992 28.04 8.79685 23.873 13.8898 23.873H61.578V45.1128C61.578 46.0677 62.1856 46.9358 63.0827 47.2831C63.9797 47.6303 65.0215 47.3699 65.6291 46.6465C67.3943 44.6209 69.9697 43.5502 72.6898 43.6949C77.0014 43.9553 80.5028 47.3988 80.7921 51.7104C80.9658 54.1411 80.1555 56.4561 78.4772 58.2502C76.8278 60.0154 74.5707 60.9992 72.14 60.9992C69.6514 60.9992 67.2785 59.9285 65.6291 58.0187ZM100.354 84.8722C102.379 86.6374 103.479 89.2128 103.305 91.9329C103.045 96.2445 99.6012 99.7459 95.2896 100.035C95.087 100.035 94.8845 100.064 94.653 100.064C92.4538 100.064 90.3703 99.2539 88.7498 97.7492C86.9846 96.0998 86.0008 93.8427 86.0008 91.412C86.0008 88.9234 87.0715 86.5506 88.9813 84.9012C89.7047 84.2646 89.9652 83.2518 89.6179 82.3547C89.2707 81.4577 88.4026 80.85 87.4476 80.85H66.2079V64.2402L67.0181 64.5874C68.6675 65.2819 70.3748 65.6291 72.1689 65.6291C74.9179 65.6291 77.6669 64.7321 79.924 63.1406L80.85 62.475V63.8929C80.85 65.1661 81.8917 66.2079 83.165 66.2079H102.032L101.685 67.0181C100.903 68.899 100.556 70.8957 100.672 72.9791C100.817 75.4677 101.685 77.8695 103.132 79.924L103.797 80.85H101.916C100.961 80.85 100.093 81.4577 99.7459 82.3547C99.3697 83.1939 99.6301 84.2356 100.354 84.8722ZM142.37 61.578H121.13C120.175 61.578 119.307 62.1856 118.96 63.0827C118.613 63.9797 118.873 65.0215 119.597 65.6291C121.478 67.2785 122.577 69.6514 122.577 72.14C122.577 74.5707 121.593 76.8278 119.828 78.4772C118.208 79.9819 116.124 80.7921 113.925 80.7921C113.722 80.7921 113.52 80.7921 113.288 80.7632C108.977 80.4738 105.533 76.9724 105.273 72.6608C105.099 69.9697 106.199 67.3943 108.224 65.6002C108.948 64.9636 109.208 63.9508 108.861 63.0537C108.514 62.1567 107.646 61.549 106.691 61.549H85.451V44.997L86.2612 45.3443C87.9106 46.0388 89.6179 46.386 91.412 46.386C95.087 46.386 98.6173 44.8524 101.135 42.1612C103.681 39.4411 104.926 35.8819 104.665 32.149C104.202 25.5224 98.8488 20.227 92.2223 19.8219C90.1677 19.7061 88.1421 20.0244 86.2612 20.8346L85.451 21.1819V4.62992H133.11C138.203 4.62992 142.37 8.79685 142.37 13.8898V61.578Z"/>
</mask>
<path d="M133.11 0H83.1071C81.8339 0 80.7921 1.04173 80.7921 2.31496V25.8697C80.7921 26.8246 81.3998 27.6927 82.2969 28.04C83.1939 28.3872 84.2356 28.1268 84.8433 27.4033C86.6085 25.3778 89.1839 24.2782 91.9039 24.4518C96.2156 24.7122 99.7169 28.1557 100.006 32.4673C100.18 34.898 99.3697 37.213 97.6913 39.0071C96.0419 40.7722 93.7849 41.7561 91.3541 41.7561C88.8656 41.7561 86.4927 40.6854 84.8433 38.7756C84.2067 38.0522 83.1939 37.7917 82.2969 38.139C81.3998 38.4862 80.7921 39.3543 80.7921 40.3093V42.1902L79.8661 41.5246C77.8116 40.0488 75.4388 39.2096 72.9213 39.065C70.8667 38.9492 68.8411 39.2675 66.9602 40.0778L66.15 40.425V21.5581C66.15 20.2848 65.1083 19.2431 63.835 19.2431H13.8898C6.22146 19.2431 0 25.4646 0 33.1329V133.11C0 140.779 6.22146 147 13.8898 147H113.867C121.535 147 127.757 140.779 127.757 133.11V126.918C127.757 125.644 126.715 124.603 125.442 124.603C124.169 124.603 123.127 125.644 123.127 126.918V133.11C123.127 138.203 118.96 142.37 113.867 142.37H66.2079V121.13C66.2079 120.175 65.6002 119.307 64.7032 118.96C63.8061 118.613 62.7644 118.873 62.1567 119.597C60.5073 121.478 58.1345 122.577 55.6459 122.577C53.2152 122.577 50.9581 121.593 49.3087 119.828C47.6593 118.063 46.849 115.748 46.9937 113.288C47.2831 108.977 50.7844 105.533 55.0961 105.273C57.7872 105.128 60.3626 106.199 62.1567 108.224C62.7933 108.948 63.8061 109.208 64.7032 108.861C65.6002 108.514 66.2079 107.646 66.2079 106.691V85.451H82.7598L82.4126 86.2612C81.7181 87.9106 81.3709 89.6179 81.3709 91.412C81.3709 95.087 82.9045 98.6173 85.5957 101.135C88.3158 103.681 91.875 104.926 95.6079 104.665C102.234 104.202 107.53 98.8488 107.935 92.2223C108.051 90.1388 107.732 88.1421 106.922 86.2612L106.575 85.451H123.127V100.903C123.127 102.177 124.169 103.218 125.442 103.218C126.715 103.218 127.757 102.177 127.757 100.903V83.136C127.757 81.8628 126.715 80.8211 125.442 80.8211H124.024L124.69 79.8951C126.31 77.638 127.178 74.889 127.178 72.14C127.178 70.3748 126.831 68.6386 126.136 66.9892L125.789 66.1789H144.685C145.958 66.1789 147 65.1372 147 63.864V13.8898C147 6.22146 140.779 0 133.11 0ZM61.578 101.974L60.7677 101.627C58.8868 100.845 56.8902 100.498 54.8067 100.614C48.1801 101.019 42.8268 106.315 42.3638 112.941C42.1033 116.674 43.3476 120.233 45.8941 122.953C48.4116 125.644 51.9419 127.178 55.6169 127.178C57.3821 127.178 59.1183 126.831 60.7677 126.136L61.578 125.789V142.37H13.8898C8.79685 142.37 4.62992 138.203 4.62992 133.11V85.4221H25.8697C26.8246 85.4221 27.6927 84.8144 28.04 83.9173C28.3872 83.0203 28.1268 81.9785 27.4033 81.3709C25.3778 79.6057 24.2782 77.0303 24.4518 74.3102C24.7122 69.9986 28.1557 66.4972 32.4673 66.2079C34.898 66.0343 37.213 66.8445 39.0071 68.5228C40.7722 70.1722 41.7561 72.4293 41.7561 74.86C41.7561 77.3486 40.6854 79.7215 38.7756 81.3709C38.0522 82.0075 37.7917 83.0203 38.139 83.9173C38.4862 84.8144 39.3543 85.4221 40.3093 85.4221H61.549V101.974H61.578ZM65.6291 58.0187C64.9925 57.2953 63.9797 57.0348 63.0827 57.3821C62.1856 57.7293 61.578 58.5974 61.578 59.5524V80.7921H45.026L45.3732 79.9819C46.0677 78.3325 46.415 76.6252 46.415 74.8311C46.415 71.1561 44.8813 67.6258 42.1902 65.1083C39.4701 62.5618 35.9108 61.3175 32.178 61.578C25.5514 62.041 20.2559 67.3943 19.8508 74.0209C19.735 76.0754 20.0533 78.101 20.8636 79.9819L21.2108 80.7921H4.62992V33.1329C4.62992 28.04 8.79685 23.873 13.8898 23.873H61.578V45.1128C61.578 46.0677 62.1856 46.9358 63.0827 47.2831C63.9797 47.6303 65.0215 47.3699 65.6291 46.6465C67.3943 44.6209 69.9697 43.5502 72.6898 43.6949C77.0014 43.9553 80.5028 47.3988 80.7921 51.7104C80.9658 54.1411 80.1555 56.4561 78.4772 58.2502C76.8278 60.0154 74.5707 60.9992 72.14 60.9992C69.6514 60.9992 67.2785 59.9285 65.6291 58.0187ZM100.354 84.8722C102.379 86.6374 103.479 89.2128 103.305 91.9329C103.045 96.2445 99.6012 99.7459 95.2896 100.035C95.087 100.035 94.8845 100.064 94.653 100.064C92.4538 100.064 90.3703 99.2539 88.7498 97.7492C86.9846 96.0998 86.0008 93.8427 86.0008 91.412C86.0008 88.9234 87.0715 86.5506 88.9813 84.9012C89.7047 84.2646 89.9652 83.2518 89.6179 82.3547C89.2707 81.4577 88.4026 80.85 87.4476 80.85H66.2079V64.2402L67.0181 64.5874C68.6675 65.2819 70.3748 65.6291 72.1689 65.6291C74.9179 65.6291 77.6669 64.7321 79.924 63.1406L80.85 62.475V63.8929C80.85 65.1661 81.8917 66.2079 83.165 66.2079H102.032L101.685 67.0181C100.903 68.899 100.556 70.8957 100.672 72.9791C100.817 75.4677 101.685 77.8695 103.132 79.924L103.797 80.85H101.916C100.961 80.85 100.093 81.4577 99.7459 82.3547C99.3697 83.1939 99.6301 84.2356 100.354 84.8722ZM142.37 61.578H121.13C120.175 61.578 119.307 62.1856 118.96 63.0827C118.613 63.9797 118.873 65.0215 119.597 65.6291C121.478 67.2785 122.577 69.6514 122.577 72.14C122.577 74.5707 121.593 76.8278 119.828 78.4772C118.208 79.9819 116.124 80.7921 113.925 80.7921C113.722 80.7921 113.52 80.7921 113.288 80.7632C108.977 80.4738 105.533 76.9724 105.273 72.6608C105.099 69.9697 106.199 67.3943 108.224 65.6002C108.948 64.9636 109.208 63.9508 108.861 63.0537C108.514 62.1567 107.646 61.549 106.691 61.549H85.451V44.997L86.2612 45.3443C87.9106 46.0388 89.6179 46.386 91.412 46.386C95.087 46.386 98.6173 44.8524 101.135 42.1612C103.681 39.4411 104.926 35.8819 104.665 32.149C104.202 25.5224 98.8488 20.227 92.2223 19.8219C90.1677 19.7061 88.1421 20.0244 86.2612 20.8346L85.451 21.1819V4.62992H133.11C138.203 4.62992 142.37 8.79685 142.37 13.8898V61.578Z" fill="#FFBEBE" stroke="white" stroke-width="2" mask="url(#path-1-inside-1)"/>
</svg>
