<svg width="182" height="112" viewBox="0 0 182 112" fill="none" xmlns="http://www.w3.org/2000/svg">
<path d="M119.372 46.868C119.307 46.868 119.243 46.868 119.178 46.868C109.316 45.7406 106.698 37.4944 106.698 33.3069C106.698 32.3405 107.506 31.5352 108.476 31.5352C109.446 31.5352 110.254 32.3405 110.254 33.3069C110.254 33.6934 110.448 42.2939 119.566 43.3569C120.536 43.4535 121.247 44.3555 121.118 45.3218C121.053 46.2238 120.277 46.868 119.372 46.868Z" fill="#FFBEBE"/>
<path d="M56.0323 111.517C25.4134 111.517 0.484985 86.6816 0.484985 56.1772C0.484985 42.2617 5.69053 28.9905 15.0993 18.7472C24.4757 8.5683 37.2148 2.28702 50.9561 1.06298L55.709 0.644226L52.0231 3.63991C40.836 12.6914 34.4342 26.3814 34.4342 41.1987C34.4342 67.3546 54.7067 88.6465 79.6351 88.6465C87.3949 88.6465 95.0254 86.5528 101.751 82.5907L106.697 79.6917L103.755 84.5879C98.9053 92.673 92.0185 99.4052 83.8707 104.14C75.4642 108.94 65.8291 111.517 56.0323 111.517ZM46.6236 4.54184C21.6628 8.98705 3.39492 30.4078 3.39492 56.1772C3.39492 85.1032 26.9977 108.618 56.0323 108.618C72.5866 108.618 88.2679 100.694 98.1293 87.648C92.2771 90.1927 85.9723 91.5134 79.6028 91.5134C53.0577 91.5134 31.4919 68.933 31.4919 41.1665C31.5242 27.1544 36.9884 14.0443 46.6236 4.54184Z" fill="#FFBEBE"/>
<path d="M119.857 62.4584C102.333 62.4584 86.5866 54.631 76.4988 48.0598C65.5704 40.9732 58.8776 33.9511 58.6189 33.6612L57.6813 32.6626L58.6189 31.6641C58.9099 31.3742 65.6028 24.3842 76.4988 17.2654C86.6189 10.6943 102.333 2.86682 119.857 2.86682C137.381 2.86682 153.127 10.6943 163.215 17.2654C174.143 24.352 180.836 31.3742 181.095 31.6641L181.483 32.0828V32.6626C181.483 33.0814 181.483 34.3698 176.277 39.0727C172.591 42.3905 167.935 45.8694 163.182 48.8651C153.289 55.0819 137.737 62.4584 119.857 62.4584ZM61.6905 32.6626C63.9538 34.853 69.8383 40.2968 78.1155 45.6761C87.8799 52.0218 103.044 59.5594 119.824 59.5594C136.573 59.5594 151.284 52.7305 160.693 46.9968C170.328 41.1343 176.6 35.0463 178.249 32.9203C176.245 30.9232 170.166 25.2539 161.566 19.6491C151.801 13.3034 136.637 5.76587 119.857 5.76587C103.076 5.76587 87.9122 13.3356 78.1478 19.6491C69.8383 25.0607 63.9538 30.4722 61.6905 32.6626Z" fill="#FFBEBE"/>
<path d="M119.857 56.0161C106.924 56.0161 96.4158 45.5473 96.4158 32.6626C96.4158 19.7779 106.924 9.30914 119.857 9.30914C132.79 9.30914 143.298 19.7779 143.298 32.6626C143.298 45.5473 132.758 56.0161 119.857 56.0161ZM119.857 12.2082C108.54 12.2082 99.3257 21.3885 99.3257 32.6626C99.3257 43.9367 108.54 53.117 119.857 53.117C131.173 53.117 140.388 43.9367 140.388 32.6626C140.388 21.3885 131.173 12.2082 119.857 12.2082Z" fill="#FFBEBE"/>
</svg>
