<svg width="113" height="142" viewBox="0 0 113 142" fill="none" xmlns="http://www.w3.org/2000/svg">
<g clip-path="url(#clip0)">
<path d="M16.396 142C16.2408 142 16.0545 141.969 15.8992 141.938C15.4024 141.782 14.9987 141.377 14.8124 140.879L0.124541 100.735C-0.123879 100.081 0.0624361 99.3344 0.590328 98.8676C1.11822 98.4008 1.89453 98.3074 2.51558 98.6498L16.955 106.305L34.2512 72.5713L2.08085 79.511C1.49085 79.6355 0.869801 79.4488 0.435066 78.982C0.0313837 78.5152 -0.0928263 77.8928 0.0934886 77.3015L25.7118 1.15119C25.9602 0.435432 26.6434 -0.062486 27.4197 -0.000246274L63.9374 1.89807C64.5584 1.92919 65.1174 2.30262 65.3969 2.86278C65.6763 3.42294 65.6142 4.07646 65.2416 4.6055L32.6986 50.2895L71.8247 50.6318C72.4458 50.6318 73.0358 51.0052 73.3153 51.5654C73.5947 52.1255 73.5637 52.8102 73.2221 53.3392L31.3944 114.521H50.3985C51.1438 114.521 51.7959 115.019 52.0132 115.703C52.2306 116.419 51.9822 117.197 51.3611 117.633L17.3897 141.689C17.1103 141.875 16.7376 142 16.396 142ZM4.84452 103.753L17.2345 137.612L45.0264 117.944H28.1649C27.5439 117.944 26.9539 117.602 26.6434 117.042C26.3328 116.481 26.3949 115.797 26.7365 115.268L68.5953 54.0239L29.407 53.6815C28.7549 53.6815 28.196 53.3081 27.8855 52.7479C27.606 52.1878 27.637 51.5032 28.0097 50.9741L60.6148 5.16565L28.5065 3.48518L4.28557 75.5277L37.0459 68.4635C37.698 68.339 38.3502 68.5568 38.7538 69.0859C39.1575 69.6149 39.2196 70.3307 38.9091 70.922L19.1908 109.386C18.9734 109.791 18.6318 110.102 18.1971 110.226C17.7624 110.351 17.2966 110.32 16.8929 110.102L4.84452 103.753Z" fill="#FFBEBE"/>
<path d="M81.4818 87.0112C81.2024 87.0112 80.9229 86.9489 80.6745 86.7933C79.836 86.3265 79.5566 85.2996 79.9913 84.4594L108.404 32.3958H79.2771C78.6871 32.3958 78.1282 32.0846 77.8176 31.5867C77.5071 31.0888 77.4761 30.4664 77.7555 29.9373C77.7866 29.8751 81.3887 22.6242 85.146 15.4666C93.1886 0.124483 93.9649 0.0933618 95.176 2.11247e-06C96.1075 -0.0622377 96.946 0.65352 97.0081 1.58712C97.0702 2.30287 96.6665 2.92527 96.0765 3.23647C94.5239 4.91694 88.0339 17.0848 82.0408 28.9726H111.292C111.882 28.9726 112.441 29.2838 112.752 29.8128C113.062 30.3419 113.062 30.9643 112.783 31.4933L82.9724 86.0776C82.6618 86.6689 82.0718 87.0112 81.4818 87.0112Z" fill="#FFBEBE"/>
</g>
<defs>
<clipPath id="clip0">
<rect width="113" height="142" fill="white"/>
</clipPath>
</defs>
</svg>
