<svg width="119" height="146" viewBox="0 0 119 146" fill="none" xmlns="http://www.w3.org/2000/svg">
<g clip-path="url(#clip0)">
<path d="M25.1404 135.752C21.9865 135.752 18.7719 135.174 15.709 134.018C9.52246 131.707 4.63994 127.328 2.30482 122.037C-2.5777 110.967 1.1221 93.603 5.33744 84.8144C15.9819 62.554 30.8721 57.3235 31.509 57.1106L33.8137 56.3503L33.7228 58.7832C33.1162 72.8631 38.3627 84.8752 42.9723 95.458C49.6743 110.846 55.497 124.135 35.603 133.471C32.3581 134.991 28.7796 135.752 25.1404 135.752ZM30.3262 61.3376C25.9289 63.6792 15.9213 70.3999 8.33974 86.2741C4.54896 94.2416 0.970469 110.694 5.36777 120.699C7.33897 125.169 11.5543 128.909 16.8917 130.916C22.6537 133.076 28.9616 132.924 34.208 130.46C51.13 122.523 46.6721 112.305 39.9396 96.8265C35.4514 86.5478 30.4172 74.9919 30.3262 61.3376Z" fill="#FFBEBE"/>
<path d="M70.9937 65.6863C68.3856 65.6863 65.7169 65.1998 63.1695 64.257C58.0444 62.3412 53.9807 58.6919 52.0398 54.2824C48.0064 45.1289 51.0694 30.8361 54.5266 23.568C63.2908 5.26099 75.6033 0.94272 76.1188 0.760258L78.4236 0L78.3326 2.43283C77.8474 13.8975 82.1234 23.6592 85.8839 32.2958C91.4335 45.0377 96.2554 56.0462 79.6973 63.7705C76.9983 65.0477 74.0263 65.6863 70.9937 65.6863ZM74.9664 5.0177C71.206 7.08561 63.5031 12.6203 57.5592 25.0277C54.4659 31.5051 51.5546 44.8552 55.1027 52.9444C56.6797 56.5328 60.0459 59.513 64.3522 61.1248C68.9921 62.8582 74.0566 62.7365 78.272 60.7598C86.46 56.9281 87.6124 52.8227 87.7034 49.6905C87.8551 45.2202 85.4896 39.8375 82.7906 33.6338C79.394 25.7576 75.1787 16.0871 74.9664 5.0177Z" fill="#FFBEBE"/>
<path d="M94.8604 146C91.7065 146 88.4919 145.422 85.429 144.267C79.2424 141.955 74.3599 137.576 72.0248 132.285C67.1423 121.216 70.8421 103.851 75.0574 95.0627C85.7019 72.8023 100.592 67.5718 101.229 67.3589L103.534 66.5986L103.443 69.0315C102.836 83.1114 108.083 95.1235 112.692 105.706C119.394 121.094 125.217 134.383 105.323 143.719C102.078 145.24 98.4995 146 94.8604 146ZM100.077 71.5859C95.6792 73.9275 85.6716 80.6482 78.09 96.5224C74.2689 104.49 70.6904 120.942 75.0877 130.947C77.0589 135.417 81.2743 139.158 86.6117 141.165C92.3737 143.324 98.6815 143.172 103.928 140.709C120.85 132.772 116.392 122.554 109.66 107.075C105.171 96.7961 100.137 85.2706 100.077 71.5859Z" fill="#FFBEBE"/>
<path d="M92.9497 136.755C92.889 136.755 92.8283 136.755 92.7677 136.755C83.5182 135.691 81.0618 127.906 81.0618 123.953C81.0618 123.04 81.8199 122.28 82.7297 122.28C83.6395 122.28 84.3977 123.04 84.3977 123.953C84.3977 124.317 84.5796 132.437 93.1316 133.441C94.0414 133.532 94.7086 134.383 94.5873 135.296C94.4963 136.117 93.7685 136.755 92.9497 136.755Z" fill="#FFBEBE"/>
<path d="M71.6304 53.7959C71.5698 53.7959 71.5091 53.7959 71.4485 53.7959C63.6546 52.914 61.5924 46.3757 61.5924 43.0306C61.5924 42.1183 62.3506 41.358 63.2604 41.358C64.1702 41.358 64.9283 42.1183 64.9283 43.0306C64.9283 43.73 65.2013 49.7209 71.8124 50.4811C72.7222 50.5724 73.3893 51.4239 73.268 52.3362C73.177 53.1572 72.4492 53.7959 71.6304 53.7959ZM22.9872 122.25C22.9265 122.25 22.8659 122.25 22.8052 122.25C15.0114 121.368 12.9492 114.829 12.9492 111.484C12.9492 110.572 13.7074 109.812 14.6172 109.812C15.5269 109.812 16.2851 110.572 16.2851 111.484C16.2851 112.184 16.558 118.175 23.1691 118.935C24.0789 119.026 24.7461 119.878 24.6248 120.79C24.5338 121.641 23.806 122.25 22.9872 122.25Z" fill="#FFBEBE"/>
</g>
<defs>
<clipPath id="clip0">
<rect width="119" height="146" fill="white"/>
</clipPath>
</defs>
</svg>
