<svg width="100" height="143" viewBox="0 0 100 143" fill="none" xmlns="http://www.w3.org/2000/svg">
<path d="M30.1394 4.05099C36.9919 4.05099 42.5377 9.5777 42.5377 16.4065V90.1056C50.6678 94.5038 56.2137 103.098 56.2137 112.965C56.2137 127.317 44.5412 138.949 30.1394 138.949C15.7375 138.949 4.06504 127.317 4.06504 112.965C4.06504 103.098 9.58188 94.5038 17.741 90.1056V16.4065C17.741 9.5777 23.2869 4.05099 30.1394 4.05099ZM30.1394 0C21.0511 0 13.676 7.34966 13.676 16.4065V87.7908C5.16841 93.3175 0 102.751 0 112.965C0 129.516 13.5308 143 30.1394 143C46.748 143 60.2787 129.516 60.2787 112.965C60.2787 102.751 55.1103 93.3464 46.6028 87.8197V16.4065C46.6028 7.34966 39.2276 0 30.1394 0Z" fill="#FFBEBE"/>
<path d="M30.1393 100.667C36.6724 100.667 41.986 105.962 41.986 112.473C41.986 118.983 36.6724 124.279 30.1393 124.279C23.6062 124.279 18.2926 118.983 18.2926 112.473C18.2926 105.962 23.6062 100.667 30.1393 100.667ZM30.1393 96.6161C21.3704 96.6161 14.2275 103.734 14.2275 112.473C14.2275 121.211 21.3704 128.33 30.1393 128.33C38.9081 128.33 46.051 121.211 46.051 112.473C46.051 103.734 38.9081 96.6161 30.1393 96.6161Z" fill="#FFBEBE"/>
<path d="M30.1395 100.956C29.007 100.956 28.1069 100.059 28.1069 98.931V15.5384C28.1069 14.4099 29.007 13.5129 30.1395 13.5129C31.2719 13.5129 32.172 14.4099 32.172 15.5384V98.931C32.172 100.059 31.2428 100.956 30.1395 100.956Z" fill="#FFBEBE"/>
<path d="M44.4832 54.2833H36.3531C35.2207 54.2833 34.3206 53.3863 34.3206 52.2578C34.3206 51.1293 35.2207 50.2323 36.3531 50.2323H44.4832C45.6156 50.2323 46.5157 51.1293 46.5157 52.2578C46.5157 53.3863 45.6156 54.2833 44.4832 54.2833Z" fill="#FFBEBE"/>
<path d="M44.4832 37.2981H36.3531C35.2207 37.2981 34.3206 36.4011 34.3206 35.2726C34.3206 34.1441 35.2207 33.2471 36.3531 33.2471H44.4832C45.6156 33.2471 46.5157 34.1441 46.5157 35.2726C46.5157 36.4011 45.6156 37.2981 44.4832 37.2981Z" fill="#FFBEBE"/>
<path d="M69.28 31.6845C68.8735 31.6845 68.438 31.5688 68.0895 31.3084C67.1894 30.6428 66.9862 29.3986 67.625 28.4727L75.726 17.3324C76.3938 16.4354 77.6424 16.2329 78.5715 16.8695C79.4716 17.535 79.6749 18.7792 79.0361 19.7052L70.9351 30.8454C70.5286 31.3952 69.8898 31.6845 69.28 31.6845Z" fill="#FFBEBE"/>
<path d="M78.7746 91.1184C78.1648 91.1184 77.5841 90.858 77.1776 90.366L68.5539 79.6309C67.8571 78.7628 68.0022 77.4897 68.8733 76.7952C69.7444 76.1007 71.022 76.2454 71.7189 77.1135L80.3425 87.8486C81.0394 88.7167 80.8942 89.9899 80.0231 90.6843C79.6747 90.9737 79.2392 91.1184 78.7746 91.1184Z" fill="#FFBEBE"/>
<path d="M97.9674 56.0194H97.9384L84.1463 55.759C83.0139 55.7301 82.1428 54.8041 82.1428 53.7046C82.1719 52.5761 83.072 51.6791 84.2044 51.708L97.9965 51.9684C99.1289 51.9974 100 52.9233 100 54.0229C100 55.1514 99.0999 56.0194 97.9674 56.0194Z" fill="#FFBEBE"/>
<path d="M92.741 75.5221C92.4507 75.5221 92.1313 75.4642 91.8409 75.3195L79.4135 69.3009C78.3972 68.809 77.9907 67.5937 78.4843 66.5809C78.978 65.5682 80.1975 65.1631 81.2137 65.655L93.6411 71.6736C94.6574 72.1655 95.0639 73.3808 94.5703 74.3936C94.2219 75.088 93.4959 75.5221 92.741 75.5221Z" fill="#FFBEBE"/>
<path d="M80.749 39.1789C79.9651 39.1789 79.2101 38.7159 78.8907 37.9347C78.4552 36.893 78.9488 35.7066 79.9651 35.2726L92.6828 29.8906C93.7281 29.4565 94.9186 29.9484 95.3541 30.9612C95.7897 31.9739 95.2961 33.1892 94.2798 33.6232L81.562 39.0053C81.3007 39.121 81.0394 39.1789 80.749 39.1789Z" fill="#FFBEBE"/>
<path d="M44.4832 69.1851H36.3531C35.2207 69.1851 34.3206 68.2881 34.3206 67.1596C34.3206 66.0312 35.2207 65.1342 36.3531 65.1342H44.4832C45.6156 65.1342 46.5157 66.0312 46.5157 67.1596C46.5157 68.2881 45.6156 69.1851 44.4832 69.1851Z" fill="#FFBEBE"/>
<path d="M54.6749 76.1876C54.2684 76.1876 53.8909 76.1876 53.4844 76.1586C52.352 76.1008 51.5099 75.1459 51.568 74.0463C51.6261 72.9178 52.5843 72.0787 53.6876 72.1366C54.007 72.1655 54.3555 72.1655 54.6749 72.1655C65.273 72.1655 73.8967 63.5716 73.8967 53.0101C73.8967 42.4486 65.273 33.8547 54.6749 33.8547C54.5007 33.8547 54.3555 33.8547 54.1813 33.8547C53.0779 33.8836 52.1197 32.9866 52.0907 31.8871C52.0616 30.7586 52.9617 29.8326 54.0651 29.8037C54.2684 29.8037 54.4426 29.8037 54.6458 29.8037C67.4797 29.8037 77.9327 40.2205 77.9327 53.0101C77.9327 65.7997 67.5378 76.1876 54.6749 76.1876Z" fill="#FFBEBE"/>
</svg>
