<svg width="145" height="182" viewBox="0 0 145 182" fill="none" xmlns="http://www.w3.org/2000/svg">
<mask id="path-1-inside-1" fill="white">
<path d="M55.8169 35.8599C65.329 35.8599 72.7064 39.0314 77.3839 41.4178L69.1589 58.9082C68.6253 60.0072 68.7508 61.3261 69.4415 62.3309C70.1007 63.2729 71.1681 63.8381 72.2982 63.8381C72.3924 63.8381 72.4552 63.8381 72.5494 63.8381L87.5239 62.7391L78.7024 78.314L72.361 74.9541C71.8587 74.6715 71.2937 74.5459 70.7286 74.5459C69.9124 74.5459 69.0961 74.8285 68.4683 75.3937C67.4009 76.3357 66.9928 77.843 67.4951 79.1932L76.0654 102.556C76.4421 103.56 77.2583 104.345 78.2943 104.659C78.6396 104.754 78.985 104.816 79.3303 104.816C80.0209 104.816 80.743 104.597 81.3081 104.188L101.148 90.1836C102.373 89.3043 102.906 87.7657 102.436 86.3212C101.965 84.8768 100.646 83.9034 99.1393 83.9034H92.7037L114.459 52.1256C114.867 51.529 115.056 50.8381 115.056 50.1473C119.608 52.2826 123.5 55.3599 126.608 59.3478C133.891 68.6425 132.228 82.6787 130.627 96.2753C129.026 109.998 127.362 124.065 135.21 133.171C129.81 133.737 122.433 134.302 115.244 134.302C98.794 134.302 94.5245 131.319 93.4572 130.063C84.9496 119.983 61.7188 101.299 60.7456 100.514C60.1177 100.012 59.3643 99.7608 58.5795 99.7608C57.8574 99.7608 57.104 99.9806 56.5075 100.452C56.382 100.546 43.5736 110.06 30.671 110.06C28.5363 110.06 26.4958 109.809 24.6122 109.275C24.0471 109.118 23.482 109.056 22.8228 109.056C20.1857 109.056 16.8581 110.343 12.9653 111.819C9.76324 113.043 6.18443 114.394 3.82995 114.645C4.61478 109.213 6.71812 96.3695 10.6423 82.7729C17.2662 59.756 25.9935 45.1546 35.8509 40.57C42.4748 37.4613 49.2243 35.8599 55.8169 35.8599ZM55.8169 32.4058C49.4755 32.4058 42.2551 33.7246 34.344 37.3985C7.97384 49.7077 0 116.969 0 116.969C0.690648 117.816 1.7894 118.13 3.13931 118.13C8.66449 118.13 18.5533 112.51 22.7914 112.51C23.1053 112.51 23.4192 112.541 23.6704 112.604C25.9935 113.232 28.3479 113.514 30.671 113.514C44.9549 113.514 58.6109 103.215 58.6109 103.215C58.6109 103.215 82.4696 122.338 90.8515 132.292C94.4304 136.563 104.727 137.756 115.307 137.756C129.402 137.756 144.031 135.589 144.031 135.589C118.509 122.715 146.951 79.6328 129.371 57.2125C120.549 45.971 107.961 43.1449 97.6011 43.1449C95.4663 43.1449 94.3836 43.8116 92.5 44L94 46.5L111.665 50.1787L86.2054 87.3575H99.1707L79.3303 101.362L70.76 78L80.0523 82.9299L93.7083 58.814L72.2982 60.384L81.9359 39.8792C77.7606 37.7439 68.5625 32.4058 55.8169 32.4058Z"/>
</mask>
<path d="M55.8169 35.8599C65.329 35.8599 72.7064 39.0314 77.3839 41.4178L69.1589 58.9082C68.6253 60.0072 68.7508 61.3261 69.4415 62.3309C70.1007 63.2729 71.1681 63.8381 72.2982 63.8381C72.3924 63.8381 72.4552 63.8381 72.5494 63.8381L87.5239 62.7391L78.7024 78.314L72.361 74.9541C71.8587 74.6715 71.2937 74.5459 70.7286 74.5459C69.9124 74.5459 69.0961 74.8285 68.4683 75.3937C67.4009 76.3357 66.9928 77.843 67.4951 79.1932L76.0654 102.556C76.4421 103.56 77.2583 104.345 78.2943 104.659C78.6396 104.754 78.985 104.816 79.3303 104.816C80.0209 104.816 80.743 104.597 81.3081 104.188L101.148 90.1836C102.373 89.3043 102.906 87.7657 102.436 86.3212C101.965 84.8768 100.646 83.9034 99.1393 83.9034H92.7037L114.459 52.1256C114.867 51.529 115.056 50.8381 115.056 50.1473C119.608 52.2826 123.5 55.3599 126.608 59.3478C133.891 68.6425 132.228 82.6787 130.627 96.2753C129.026 109.998 127.362 124.065 135.21 133.171C129.81 133.737 122.433 134.302 115.244 134.302C98.794 134.302 94.5245 131.319 93.4572 130.063C84.9496 119.983 61.7188 101.299 60.7456 100.514C60.1177 100.012 59.3643 99.7608 58.5795 99.7608C57.8574 99.7608 57.104 99.9806 56.5075 100.452C56.382 100.546 43.5736 110.06 30.671 110.06C28.5363 110.06 26.4958 109.809 24.6122 109.275C24.0471 109.118 23.482 109.056 22.8228 109.056C20.1857 109.056 16.8581 110.343 12.9653 111.819C9.76324 113.043 6.18443 114.394 3.82995 114.645C4.61478 109.213 6.71812 96.3695 10.6423 82.7729C17.2662 59.756 25.9935 45.1546 35.8509 40.57C42.4748 37.4613 49.2243 35.8599 55.8169 35.8599ZM55.8169 32.4058C49.4755 32.4058 42.2551 33.7246 34.344 37.3985C7.97384 49.7077 0 116.969 0 116.969C0.690648 117.816 1.7894 118.13 3.13931 118.13C8.66449 118.13 18.5533 112.51 22.7914 112.51C23.1053 112.51 23.4192 112.541 23.6704 112.604C25.9935 113.232 28.3479 113.514 30.671 113.514C44.9549 113.514 58.6109 103.215 58.6109 103.215C58.6109 103.215 82.4696 122.338 90.8515 132.292C94.4304 136.563 104.727 137.756 115.307 137.756C129.402 137.756 144.031 135.589 144.031 135.589C118.509 122.715 146.951 79.6328 129.371 57.2125C120.549 45.971 107.961 43.1449 97.6011 43.1449C95.4663 43.1449 94.3836 43.8116 92.5 44L94 46.5L111.665 50.1787L86.2054 87.3575H99.1707L79.3303 101.362L70.76 78L80.0523 82.9299L93.7083 58.814L72.2982 60.384L81.9359 39.8792C77.7606 37.7439 68.5625 32.4058 55.8169 32.4058Z" fill="#FFBEBE"/>
<path d="M77.3839 41.4178L85.5283 45.2478L89.2369 37.3615L81.4741 33.401L77.3839 41.4178ZM69.1589 58.9082L77.2549 62.8395L77.2794 62.789L77.3033 62.7382L69.1589 58.9082ZM69.4415 62.3309L62.0245 67.4288L62.046 67.4601L62.0678 67.4912L69.4415 62.3309ZM72.5494 63.8381V72.8381H72.8792L73.2082 72.814L72.5494 63.8381ZM87.5239 62.7391L95.355 67.1746L103.649 52.5314L86.8651 53.7632L87.5239 62.7391ZM78.7024 78.314L74.4888 86.2667L82.221 90.3635L86.5336 82.7495L78.7024 78.314ZM72.361 74.9541L67.9478 82.7978L68.0469 82.8535L68.1474 82.9068L72.361 74.9541ZM68.4683 75.3937L74.4237 82.1415L74.4569 82.1122L74.4898 82.0826L68.4683 75.3937ZM67.4951 79.1932L75.9445 76.0936L75.9375 76.0744L75.9304 76.0553L67.4951 79.1932ZM76.0654 102.556L67.616 105.655L67.627 105.685L67.6382 105.715L76.0654 102.556ZM78.2943 104.659L75.6836 113.272L75.8042 113.309L75.9257 113.342L78.2943 104.659ZM81.3081 104.188L76.118 96.8356L76.0777 96.864L76.0378 96.8929L81.3081 104.188ZM101.148 90.1836L106.339 97.5363L106.368 97.5152L106.398 97.4938L101.148 90.1836ZM92.7037 83.9034L85.2773 78.8192L75.6352 92.9034H92.7037V83.9034ZM114.459 52.1256L121.886 57.2097L121.887 57.2069L114.459 52.1256ZM115.056 50.1473L118.878 41.9992L106.056 35.9846V50.1473H115.056ZM126.608 59.3478L119.509 64.8801L119.517 64.8895L119.524 64.8989L126.608 59.3478ZM130.627 96.2753L121.688 95.2228L121.687 95.2323L130.627 96.2753ZM135.21 133.171L136.147 142.123L153.262 140.331L142.027 127.296L135.21 133.171ZM93.4572 130.063L86.5795 135.868L86.5892 135.879L86.599 135.891L93.4572 130.063ZM60.7456 100.514L66.3962 93.5094L66.3825 93.4984L66.3687 93.4873L60.7456 100.514ZM56.5075 100.452L61.9084 107.651L61.9976 107.584L62.0852 107.515L56.5075 100.452ZM24.6122 109.275L27.0662 100.616L27.0439 100.61L27.0215 100.604L24.6122 109.275ZM12.9653 111.819L9.77479 103.403L9.76259 103.408L9.75039 103.413L12.9653 111.819ZM3.82995 114.645L-5.07757 113.358L-6.73395 124.823L4.78478 123.594L3.82995 114.645ZM10.6423 82.7729L19.2893 85.2686L19.2912 85.262L10.6423 82.7729ZM35.8509 40.57L39.6463 48.7306L39.6604 48.724L39.6745 48.7174L35.8509 40.57ZM34.344 37.3985L30.5532 29.2358L30.5452 29.2395L30.5373 29.2432L34.344 37.3985ZM0 116.969L-8.93741 115.909L-9.38637 119.696L-6.97782 122.653L0 116.969ZM23.6704 112.604L26.0191 103.916L25.9366 103.893L25.8537 103.873L23.6704 112.604ZM58.6109 103.215L64.2396 96.1923L58.7789 91.8155L53.1915 96.0295L58.6109 103.215ZM90.8515 132.292L97.7496 126.512L97.7428 126.503L97.7359 126.495L90.8515 132.292ZM144.031 135.589L145.35 144.492L173.422 140.335L148.085 127.554L144.031 135.589ZM129.371 57.2125L136.453 51.6591L136.451 51.6565L129.371 57.2125ZM92.5 44L91.6042 35.0447L77.4788 36.4576L84.7826 48.6305L92.5 44ZM94 46.5L86.2826 51.1305L88.3091 54.508L92.1651 55.311L94 46.5ZM111.665 50.1787L119.091 55.2638L126.721 44.121L113.5 41.3677L111.665 50.1787ZM86.2054 87.3575L78.7796 82.2724L69.1342 96.3575H86.2054V87.3575ZM99.1707 87.3575L104.361 94.7102L127.527 78.3575H99.1707V87.3575ZM79.3303 101.362L70.8809 104.462L74.9256 115.488L84.5204 108.715L79.3303 101.362ZM70.76 78L74.978 70.0496L54.2162 59.0347L62.3106 81.0996L70.76 78ZM80.0523 82.9299L75.8343 90.8803L83.5693 94.984L87.8839 87.3647L80.0523 82.9299ZM93.7083 58.814L101.54 63.2487L109.831 48.6075L93.0501 49.8381L93.7083 58.814ZM72.2982 60.384L64.1531 56.5556L57.6057 70.4856L72.9565 69.3599L72.2982 60.384ZM81.9359 39.8792L90.0811 43.7076L93.7838 35.8297L86.0338 31.8662L81.9359 39.8792ZM55.8169 44.8599C63.287 44.8599 69.1817 47.3368 73.2937 49.4347L81.4741 33.401C76.231 30.7259 67.3709 26.8599 55.8169 26.8599V44.8599ZM69.2395 37.5879L61.0145 55.0782L77.3033 62.7382L85.5283 45.2478L69.2395 37.5879ZM61.063 54.9768C59.05 59.1223 59.5855 63.8802 62.0245 67.4288L76.8584 57.233C77.9162 58.7719 78.2005 60.8922 77.2549 62.8395L61.063 54.9768ZM62.0678 67.4912C64.3658 70.7749 68.1528 72.8381 72.2982 72.8381V54.8381C74.1834 54.8381 75.8356 55.7709 76.8152 57.1706L62.0678 67.4912ZM72.2982 72.8381C72.2984 72.8381 72.2986 72.8381 72.2988 72.8381C72.299 72.8381 72.2992 72.8381 72.2993 72.8381C72.2995 72.8381 72.2997 72.8381 72.2999 72.8381C72.3001 72.8381 72.3003 72.8381 72.3004 72.8381C72.3006 72.8381 72.3008 72.8381 72.301 72.8381C72.3012 72.8381 72.3014 72.8381 72.3015 72.8381C72.3017 72.8381 72.3019 72.8381 72.3021 72.8381C72.3023 72.8381 72.3025 72.8381 72.3026 72.8381C72.3028 72.8381 72.303 72.8381 72.3032 72.8381C72.3034 72.8381 72.3035 72.8381 72.3037 72.8381C72.3039 72.8381 72.3041 72.8381 72.3043 72.8381C72.3045 72.8381 72.3046 72.8381 72.3048 72.8381C72.305 72.8381 72.3052 72.8381 72.3054 72.8381C72.3055 72.8381 72.3057 72.8381 72.3059 72.8381C72.3061 72.8381 72.3063 72.8381 72.3064 72.8381C72.3066 72.8381 72.3068 72.8381 72.307 72.8381C72.3072 72.8381 72.3073 72.8381 72.3075 72.8381C72.3077 72.8381 72.3079 72.8381 72.3081 72.8381C72.3082 72.8381 72.3084 72.8381 72.3086 72.8381C72.3088 72.8381 72.309 72.8381 72.3091 72.8381C72.3093 72.8381 72.3095 72.8381 72.3097 72.8381C72.3099 72.8381 72.31 72.8381 72.3102 72.8381C72.3104 72.8381 72.3106 72.8381 72.3107 72.8381C72.3109 72.8381 72.3111 72.8381 72.3113 72.8381C72.3115 72.8381 72.3116 72.8381 72.3118 72.8381C72.312 72.8381 72.3122 72.8381 72.3124 72.8381C72.3125 72.8381 72.3127 72.8381 72.3129 72.8381C72.3131 72.8381 72.3132 72.8381 72.3134 72.8381C72.3136 72.8381 72.3138 72.8381 72.3139 72.8381C72.3141 72.8381 72.3143 72.8381 72.3145 72.8381C72.3147 72.8381 72.3148 72.8381 72.315 72.8381C72.3152 72.8381 72.3154 72.8381 72.3155 72.8381C72.3157 72.8381 72.3159 72.8381 72.3161 72.8381C72.3163 72.8381 72.3164 72.8381 72.3166 72.8381C72.3168 72.8381 72.317 72.8381 72.3171 72.8381C72.3173 72.8381 72.3175 72.8381 72.3177 72.8381C72.3178 72.8381 72.318 72.8381 72.3182 72.8381C72.3184 72.8381 72.3185 72.8381 72.3187 72.8381C72.3189 72.8381 72.3191 72.8381 72.3192 72.8381C72.3194 72.8381 72.3196 72.8381 72.3198 72.8381C72.3199 72.8381 72.3201 72.8381 72.3203 72.8381C72.3205 72.8381 72.3206 72.8381 72.3208 72.8381C72.321 72.8381 72.3212 72.8381 72.3213 72.8381C72.3215 72.8381 72.3217 72.8381 72.3219 72.8381C72.322 72.8381 72.3222 72.8381 72.3224 72.8381C72.3226 72.8381 72.3227 72.8381 72.3229 72.8381C72.3231 72.8381 72.3233 72.8381 72.3234 72.8381C72.3236 72.8381 72.3238 72.8381 72.324 72.8381C72.3241 72.8381 72.3243 72.8381 72.3245 72.8381C72.3246 72.8381 72.3248 72.8381 72.325 72.8381C72.3252 72.8381 72.3253 72.8381 72.3255 72.8381C72.3257 72.8381 72.3259 72.8381 72.326 72.8381C72.3262 72.8381 72.3264 72.8381 72.3265 72.8381C72.3267 72.8381 72.3269 72.8381 72.3271 72.8381C72.3272 72.8381 72.3274 72.8381 72.3276 72.8381C72.3278 72.8381 72.3279 72.8381 72.3281 72.8381C72.3283 72.8381 72.3284 72.8381 72.3286 72.8381C72.3288 72.8381 72.329 72.8381 72.3291 72.8381C72.3293 72.8381 72.3295 72.8381 72.3296 72.8381C72.3298 72.8381 72.33 72.8381 72.3302 72.8381C72.3303 72.8381 72.3305 72.8381 72.3307 72.8381C72.3308 72.8381 72.331 72.8381 72.3312 72.8381C72.3314 72.8381 72.3315 72.8381 72.3317 72.8381C72.3319 72.8381 72.332 72.8381 72.3322 72.8381C72.3324 72.8381 72.3326 72.8381 72.3327 72.8381C72.3329 72.8381 72.3331 72.8381 72.3332 72.8381C72.3334 72.8381 72.3336 72.8381 72.3337 72.8381C72.3339 72.8381 72.3341 72.8381 72.3343 72.8381C72.3344 72.8381 72.3346 72.8381 72.3348 72.8381C72.3349 72.8381 72.3351 72.8381 72.3353 72.8381C72.3354 72.8381 72.3356 72.8381 72.3358 72.8381C72.3359 72.8381 72.3361 72.8381 72.3363 72.8381C72.3365 72.8381 72.3366 72.8381 72.3368 72.8381C72.337 72.8381 72.3371 72.8381 72.3373 72.8381C72.3375 72.8381 72.3376 72.8381 72.3378 72.8381C72.338 72.8381 72.3381 72.8381 72.3383 72.8381C72.3385 72.8381 72.3386 72.8381 72.3388 72.8381C72.339 72.8381 72.3391 72.8381 72.3393 72.8381C72.3395 72.8381 72.3397 72.8381 72.3398 72.8381C72.34 72.8381 72.3402 72.8381 72.3403 72.8381C72.3405 72.8381 72.3407 72.8381 72.3408 72.8381C72.341 72.8381 72.3412 72.8381 72.3413 72.8381C72.3415 72.8381 72.3417 72.8381 72.3418 72.8381C72.342 72.8381 72.3422 72.8381 72.3423 72.8381C72.3425 72.8381 72.3427 72.8381 72.3428 72.8381C72.343 72.8381 72.3432 72.8381 72.3433 72.8381C72.3435 72.8381 72.3437 72.8381 72.3438 72.8381C72.344 72.8381 72.3442 72.8381 72.3443 72.8381C72.3445 72.8381 72.3447 72.8381 72.3448 72.8381C72.345 72.8381 72.3452 72.8381 72.3453 72.8381C72.3455 72.8381 72.3457 72.8381 72.3458 72.8381C72.346 72.8381 72.3462 72.8381 72.3463 72.8381C72.3465 72.8381 72.3467 72.8381 72.3468 72.8381C72.347 72.8381 72.3472 72.8381 72.3473 72.8381C72.3475 72.8381 72.3477 72.8381 72.3478 72.8381C72.348 72.8381 72.3482 72.8381 72.3483 72.8381C72.3485 72.8381 72.3486 72.8381 72.3488 72.8381C72.349 72.8381 72.3491 72.8381 72.3493 72.8381C72.3495 72.8381 72.3496 72.8381 72.3498 72.8381C72.35 72.8381 72.3501 72.8381 72.3503 72.8381C72.3505 72.8381 72.3506 72.8381 72.3508 72.8381C72.351 72.8381 72.3511 72.8381 72.3513 72.8381C72.3514 72.8381 72.3516 72.8381 72.3518 72.8381C72.3519 72.8381 72.3521 72.8381 72.3523 72.8381C72.3524 72.8381 72.3526 72.8381 72.3528 72.8381C72.3529 72.8381 72.3531 72.8381 72.3533 72.8381C72.3534 72.8381 72.3536 72.8381 72.3537 72.8381C72.3539 72.8381 72.3541 72.8381 72.3542 72.8381C72.3544 72.8381 72.3546 72.8381 72.3547 72.8381C72.3549 72.8381 72.3551 72.8381 72.3552 72.8381C72.3554 72.8381 72.3555 72.8381 72.3557 72.8381C72.3559 72.8381 72.356 72.8381 72.3562 72.8381C72.3564 72.8381 72.3565 72.8381 72.3567 72.8381C72.3568 72.8381 72.357 72.8381 72.3572 72.8381C72.3573 72.8381 72.3575 72.8381 72.3577 72.8381C72.3578 72.8381 72.358 72.8381 72.3581 72.8381C72.3583 72.8381 72.3585 72.8381 72.3586 72.8381C72.3588 72.8381 72.359 72.8381 72.3591 72.8381C72.3593 72.8381 72.3594 72.8381 72.3596 72.8381C72.3598 72.8381 72.3599 72.8381 72.3601 72.8381C72.3603 72.8381 72.3604 72.8381 72.3606 72.8381C72.3607 72.8381 72.3609 72.8381 72.3611 72.8381C72.3612 72.8381 72.3614 72.8381 72.3615 72.8381C72.3617 72.8381 72.3619 72.8381 72.362 72.8381C72.3622 72.8381 72.3624 72.8381 72.3625 72.8381C72.3627 72.8381 72.3628 72.8381 72.363 72.8381C72.3632 72.8381 72.3633 72.8381 72.3635 72.8381C72.3636 72.8381 72.3638 72.8381 72.364 72.8381C72.3641 72.8381 72.3643 72.8381 72.3645 72.8381C72.3646 72.8381 72.3648 72.8381 72.3649 72.8381C72.3651 72.8381 72.3653 72.8381 72.3654 72.8381C72.3656 72.8381 72.3657 72.8381 72.3659 72.8381C72.3661 72.8381 72.3662 72.8381 72.3664 72.8381C72.3665 72.8381 72.3667 72.8381 72.3669 72.8381C72.367 72.8381 72.3672 72.8381 72.3673 72.8381C72.3675 72.8381 72.3677 72.8381 72.3678 72.8381C72.368 72.8381 72.3681 72.8381 72.3683 72.8381C72.3685 72.8381 72.3686 72.8381 72.3688 72.8381C72.3689 72.8381 72.3691 72.8381 72.3693 72.8381C72.3694 72.8381 72.3696 72.8381 72.3697 72.8381C72.3699 72.8381 72.3701 72.8381 72.3702 72.8381C72.3704 72.8381 72.3705 72.8381 72.3707 72.8381C72.3709 72.8381 72.371 72.8381 72.3712 72.8381C72.3713 72.8381 72.3715 72.8381 72.3717 72.8381C72.3718 72.8381 72.372 72.8381 72.3721 72.8381C72.3723 72.8381 72.3724 72.8381 72.3726 72.8381C72.3728 72.8381 72.3729 72.8381 72.3731 72.8381C72.3732 72.8381 72.3734 72.8381 72.3736 72.8381C72.3737 72.8381 72.3739 72.8381 72.374 72.8381C72.3742 72.8381 72.3744 72.8381 72.3745 72.8381C72.3747 72.8381 72.3748 72.8381 72.375 72.8381C72.3751 72.8381 72.3753 72.8381 72.3755 72.8381C72.3756 72.8381 72.3758 72.8381 72.3759 72.8381C72.3761 72.8381 72.3763 72.8381 72.3764 72.8381C72.3766 72.8381 72.3767 72.8381 72.3769 72.8381C72.377 72.8381 72.3772 72.8381 72.3774 72.8381C72.3775 72.8381 72.3777 72.8381 72.3778 72.8381C72.378 72.8381 72.3782 72.8381 72.3783 72.8381C72.3785 72.8381 72.3786 72.8381 72.3788 72.8381C72.3789 72.8381 72.3791 72.8381 72.3792 72.8381C72.3794 72.8381 72.3796 72.8381 72.3797 72.8381C72.3799 72.8381 72.38 72.8381 72.3802 72.8381C72.3804 72.8381 72.3805 72.8381 72.3807 72.8381C72.3808 72.8381 72.381 72.8381 72.3811 72.8381C72.3813 72.8381 72.3815 72.8381 72.3816 72.8381C72.3818 72.8381 72.3819 72.8381 72.3821 72.8381C72.3822 72.8381 72.3824 72.8381 72.3826 72.8381C72.3827 72.8381 72.3829 72.8381 72.383 72.8381C72.3832 72.8381 72.3833 72.8381 72.3835 72.8381C72.3837 72.8381 72.3838 72.8381 72.384 72.8381C72.3841 72.8381 72.3843 72.8381 72.3844 72.8381C72.3846 72.8381 72.3848 72.8381 72.3849 72.8381C72.3851 72.8381 72.3852 72.8381 72.3854 72.8381C72.3855 72.8381 72.3857 72.8381 72.3858 72.8381C72.386 72.8381 72.3862 72.8381 72.3863 72.8381C72.3865 72.8381 72.3866 72.8381 72.3868 72.8381C72.3869 72.8381 72.3871 72.8381 72.3873 72.8381C72.3874 72.8381 72.3876 72.8381 72.3877 72.8381C72.3879 72.8381 72.388 72.8381 72.3882 72.8381C72.3883 72.8381 72.3885 72.8381 72.3887 72.8381C72.3888 72.8381 72.389 72.8381 72.3891 72.8381C72.3893 72.8381 72.3894 72.8381 72.3896 72.8381C72.3897 72.8381 72.3899 72.8381 72.3901 72.8381C72.3902 72.8381 72.3904 72.8381 72.3905 72.8381C72.3907 72.8381 72.3908 72.8381 72.391 72.8381C72.3912 72.8381 72.3913 72.8381 72.3915 72.8381C72.3916 72.8381 72.3918 72.8381 72.3919 72.8381C72.3921 72.8381 72.3922 72.8381 72.3924 72.8381C72.3925 72.8381 72.3927 72.8381 72.3929 72.8381C72.393 72.8381 72.3932 72.8381 72.3933 72.8381C72.3935 72.8381 72.3936 72.8381 72.3938 72.8381C72.394 72.8381 72.3941 72.8381 72.3943 72.8381C72.3944 72.8381 72.3946 72.8381 72.3947 72.8381C72.3949 72.8381 72.395 72.8381 72.3952 72.8381C72.3953 72.8381 72.3955 72.8381 72.3957 72.8381C72.3958 72.8381 72.396 72.8381 72.3961 72.8381C72.3963 72.8381 72.3964 72.8381 72.3966 72.8381C72.3967 72.8381 72.3969 72.8381 72.397 72.8381C72.3972 72.8381 72.3974 72.8381 72.3975 72.8381C72.3977 72.8381 72.3978 72.8381 72.398 72.8381C72.3981 72.8381 72.3983 72.8381 72.3984 72.8381C72.3986 72.8381 72.3988 72.8381 72.3989 72.8381C72.3991 72.8381 72.3992 72.8381 72.3994 72.8381C72.3995 72.8381 72.3997 72.8381 72.3998 72.8381C72.4 72.8381 72.4001 72.8381 72.4003 72.8381C72.4005 72.8381 72.4006 72.8381 72.4008 72.8381C72.4009 72.8381 72.4011 72.8381 72.4012 72.8381C72.4014 72.8381 72.4015 72.8381 72.4017 72.8381C72.4018 72.8381 72.402 72.8381 72.4022 72.8381C72.4023 72.8381 72.4025 72.8381 72.4026 72.8381C72.4028 72.8381 72.4029 72.8381 72.4031 72.8381C72.4032 72.8381 72.4034 72.8381 72.4035 72.8381C72.4037 72.8381 72.4038 72.8381 72.404 72.8381C72.4042 72.8381 72.4043 72.8381 72.4045 72.8381C72.4046 72.8381 72.4048 72.8381 72.4049 72.8381C72.4051 72.8381 72.4052 72.8381 72.4054 72.8381C72.4055 72.8381 72.4057 72.8381 72.4059 72.8381C72.406 72.8381 72.4062 72.8381 72.4063 72.8381C72.4065 72.8381 72.4066 72.8381 72.4068 72.8381C72.4069 72.8381 72.4071 72.8381 72.4072 72.8381C72.4074 72.8381 72.4075 72.8381 72.4077 72.8381C72.4079 72.8381 72.408 72.8381 72.4082 72.8381C72.4083 72.8381 72.4085 72.8381 72.4086 72.8381C72.4088 72.8381 72.4089 72.8381 72.4091 72.8381C72.4092 72.8381 72.4094 72.8381 72.4095 72.8381C72.4097 72.8381 72.4099 72.8381 72.41 72.8381C72.4102 72.8381 72.4103 72.8381 72.4105 72.8381C72.4106 72.8381 72.4108 72.8381 72.4109 72.8381C72.4111 72.8381 72.4112 72.8381 72.4114 72.8381C72.4115 72.8381 72.4117 72.8381 72.4118 72.8381C72.412 72.8381 72.4122 72.8381 72.4123 72.8381C72.4125 72.8381 72.4126 72.8381 72.4128 72.8381C72.4129 72.8381 72.4131 72.8381 72.4132 72.8381C72.4134 72.8381 72.4135 72.8381 72.4137 72.8381C72.4138 72.8381 72.414 72.8381 72.4142 72.8381C72.4143 72.8381 72.4145 72.8381 72.4146 72.8381C72.4148 72.8381 72.4149 72.8381 72.4151 72.8381C72.4152 72.8381 72.4154 72.8381 72.4155 72.8381C72.4157 72.8381 72.4158 72.8381 72.416 72.8381C72.4161 72.8381 72.4163 72.8381 72.4165 72.8381C72.4166 72.8381 72.4168 72.8381 72.4169 72.8381C72.4171 72.8381 72.4172 72.8381 72.4174 72.8381C72.4175 72.8381 72.4177 72.8381 72.4178 72.8381C72.418 72.8381 72.4181 72.8381 72.4183 72.8381C72.4184 72.8381 72.4186 72.8381 72.4188 72.8381C72.4189 72.8381 72.4191 72.8381 72.4192 72.8381C72.4194 72.8381 72.4195 72.8381 72.4197 72.8381C72.4198 72.8381 72.42 72.8381 72.4201 72.8381C72.4203 72.8381 72.4204 72.8381 72.4206 72.8381C72.4207 72.8381 72.4209 72.8381 72.4211 72.8381C72.4212 72.8381 72.4214 72.8381 72.4215 72.8381C72.4217 72.8381 72.4218 72.8381 72.422 72.8381C72.4221 72.8381 72.4223 72.8381 72.4224 72.8381C72.4226 72.8381 72.4227 72.8381 72.4229 72.8381C72.423 72.8381 72.4232 72.8381 72.4234 72.8381C72.4235 72.8381 72.4237 72.8381 72.4238 72.8381C72.424 72.8381 72.4241 72.8381 72.4243 72.8381C72.4244 72.8381 72.4246 72.8381 72.4247 72.8381C72.4249 72.8381 72.425 72.8381 72.4252 72.8381C72.4253 72.8381 72.4255 72.8381 72.4257 72.8381C72.4258 72.8381 72.426 72.8381 72.4261 72.8381C72.4263 72.8381 72.4264 72.8381 72.4266 72.8381C72.4267 72.8381 72.4269 72.8381 72.427 72.8381C72.4272 72.8381 72.4273 72.8381 72.4275 72.8381C72.4276 72.8381 72.4278 72.8381 72.428 72.8381C72.4281 72.8381 72.4283 72.8381 72.4284 72.8381C72.4286 72.8381 72.4287 72.8381 72.4289 72.8381C72.429 72.8381 72.4292 72.8381 72.4293 72.8381C72.4295 72.8381 72.4296 72.8381 72.4298 72.8381C72.4299 72.8381 72.4301 72.8381 72.4303 72.8381C72.4304 72.8381 72.4306 72.8381 72.4307 72.8381C72.4309 72.8381 72.431 72.8381 72.4312 72.8381C72.4313 72.8381 72.4315 72.8381 72.4316 72.8381C72.4318 72.8381 72.4319 72.8381 72.4321 72.8381C72.4322 72.8381 72.4324 72.8381 72.4326 72.8381C72.4327 72.8381 72.4329 72.8381 72.433 72.8381C72.4332 72.8381 72.4333 72.8381 72.4335 72.8381C72.4336 72.8381 72.4338 72.8381 72.4339 72.8381C72.4341 72.8381 72.4342 72.8381 72.4344 72.8381C72.4345 72.8381 72.4347 72.8381 72.4349 72.8381C72.435 72.8381 72.4352 72.8381 72.4353 72.8381C72.4355 72.8381 72.4356 72.8381 72.4358 72.8381C72.4359 72.8381 72.4361 72.8381 72.4362 72.8381C72.4364 72.8381 72.4365 72.8381 72.4367 72.8381C72.4369 72.8381 72.437 72.8381 72.4372 72.8381C72.4373 72.8381 72.4375 72.8381 72.4376 72.8381C72.4378 72.8381 72.4379 72.8381 72.4381 72.8381C72.4382 72.8381 72.4384 72.8381 72.4385 72.8381C72.4387 72.8381 72.4389 72.8381 72.439 72.8381C72.4392 72.8381 72.4393 72.8381 72.4395 72.8381C72.4396 72.8381 72.4398 72.8381 72.4399 72.8381C72.4401 72.8381 72.4402 72.8381 72.4404 72.8381C72.4405 72.8381 72.4407 72.8381 72.4408 72.8381C72.441 72.8381 72.4412 72.8381 72.4413 72.8381C72.4415 72.8381 72.4416 72.8381 72.4418 72.8381C72.4419 72.8381 72.4421 72.8381 72.4422 72.8381C72.4424 72.8381 72.4425 72.8381 72.4427 72.8381C72.4429 72.8381 72.443 72.8381 72.4432 72.8381C72.4433 72.8381 72.4435 72.8381 72.4436 72.8381C72.4438 72.8381 72.4439 72.8381 72.4441 72.8381C72.4442 72.8381 72.4444 72.8381 72.4445 72.8381C72.4447 72.8381 72.4449 72.8381 72.445 72.8381C72.4452 72.8381 72.4453 72.8381 72.4455 72.8381C72.4456 72.8381 72.4458 72.8381 72.4459 72.8381C72.4461 72.8381 72.4462 72.8381 72.4464 72.8381C72.4466 72.8381 72.4467 72.8381 72.4469 72.8381C72.447 72.8381 72.4472 72.8381 72.4473 72.8381C72.4475 72.8381 72.4476 72.8381 72.4478 72.8381C72.4479 72.8381 72.4481 72.8381 72.4483 72.8381C72.4484 72.8381 72.4486 72.8381 72.4487 72.8381C72.4489 72.8381 72.449 72.8381 72.4492 72.8381C72.4493 72.8381 72.4495 72.8381 72.4496 72.8381C72.4498 72.8381 72.45 72.8381 72.4501 72.8381C72.4503 72.8381 72.4504 72.8381 72.4506 72.8381C72.4507 72.8381 72.4509 72.8381 72.451 72.8381C72.4512 72.8381 72.4513 72.8381 72.4515 72.8381C72.4517 72.8381 72.4518 72.8381 72.452 72.8381C72.4521 72.8381 72.4523 72.8381 72.4524 72.8381C72.4526 72.8381 72.4527 72.8381 72.4529 72.8381C72.4531 72.8381 72.4532 72.8381 72.4534 72.8381C72.4535 72.8381 72.4537 72.8381 72.4538 72.8381C72.454 72.8381 72.4541 72.8381 72.4543 72.8381C72.4545 72.8381 72.4546 72.8381 72.4548 72.8381C72.4549 72.8381 72.4551 72.8381 72.4552 72.8381C72.4554 72.8381 72.4555 72.8381 72.4557 72.8381C72.4558 72.8381 72.456 72.8381 72.4562 72.8381C72.4563 72.8381 72.4565 72.8381 72.4566 72.8381C72.4568 72.8381 72.4569 72.8381 72.4571 72.8381C72.4573 72.8381 72.4574 72.8381 72.4576 72.8381C72.4577 72.8381 72.4579 72.8381 72.458 72.8381C72.4582 72.8381 72.4583 72.8381 72.4585 72.8381C72.4587 72.8381 72.4588 72.8381 72.459 72.8381C72.4591 72.8381 72.4593 72.8381 72.4594 72.8381C72.4596 72.8381 72.4597 72.8381 72.4599 72.8381C72.4601 72.8381 72.4602 72.8381 72.4604 72.8381C72.4605 72.8381 72.4607 72.8381 72.4608 72.8381C72.461 72.8381 72.4612 72.8381 72.4613 72.8381C72.4615 72.8381 72.4616 72.8381 72.4618 72.8381C72.4619 72.8381 72.4621 72.8381 72.4622 72.8381C72.4624 72.8381 72.4626 72.8381 72.4627 72.8381C72.4629 72.8381 72.463 72.8381 72.4632 72.8381C72.4633 72.8381 72.4635 72.8381 72.4637 72.8381C72.4638 72.8381 72.464 72.8381 72.4641 72.8381C72.4643 72.8381 72.4644 72.8381 72.4646 72.8381C72.4648 72.8381 72.4649 72.8381 72.4651 72.8381C72.4652 72.8381 72.4654 72.8381 72.4655 72.8381C72.4657 72.8381 72.4659 72.8381 72.466 72.8381C72.4662 72.8381 72.4663 72.8381 72.4665 72.8381C72.4666 72.8381 72.4668 72.8381 72.467 72.8381C72.4671 72.8381 72.4673 72.8381 72.4674 72.8381C72.4676 72.8381 72.4677 72.8381 72.4679 72.8381C72.4681 72.8381 72.4682 72.8381 72.4684 72.8381C72.4685 72.8381 72.4687 72.8381 72.4688 72.8381C72.469 72.8381 72.4692 72.8381 72.4693 72.8381C72.4695 72.8381 72.4696 72.8381 72.4698 72.8381C72.4699 72.8381 72.4701 72.8381 72.4703 72.8381C72.4704 72.8381 72.4706 72.8381 72.4707 72.8381C72.4709 72.8381 72.4711 72.8381 72.4712 72.8381C72.4714 72.8381 72.4715 72.8381 72.4717 72.8381C72.4718 72.8381 72.472 72.8381 72.4722 72.8381C72.4723 72.8381 72.4725 72.8381 72.4726 72.8381C72.4728 72.8381 72.473 72.8381 72.4731 72.8381C72.4733 72.8381 72.4734 72.8381 72.4736 72.8381C72.4737 72.8381 72.4739 72.8381 72.4741 72.8381C72.4742 72.8381 72.4744 72.8381 72.4745 72.8381C72.4747 72.8381 72.4749 72.8381 72.475 72.8381C72.4752 72.8381 72.4753 72.8381 72.4755 72.8381C72.4757 72.8381 72.4758 72.8381 72.476 72.8381C72.4761 72.8381 72.4763 72.8381 72.4765 72.8381C72.4766 72.8381 72.4768 72.8381 72.4769 72.8381C72.4771 72.8381 72.4772 72.8381 72.4774 72.8381C72.4776 72.8381 72.4777 72.8381 72.4779 72.8381C72.478 72.8381 72.4782 72.8381 72.4784 72.8381C72.4785 72.8381 72.4787 72.8381 72.4788 72.8381C72.479 72.8381 72.4792 72.8381 72.4793 72.8381C72.4795 72.8381 72.4796 72.8381 72.4798 72.8381C72.48 72.8381 72.4801 72.8381 72.4803 72.8381C72.4804 72.8381 72.4806 72.8381 72.4808 72.8381C72.4809 72.8381 72.4811 72.8381 72.4812 72.8381C72.4814 72.8381 72.4816 72.8381 72.4817 72.8381C72.4819 72.8381 72.482 72.8381 72.4822 72.8381C72.4824 72.8381 72.4825 72.8381 72.4827 72.8381C72.4828 72.8381 72.483 72.8381 72.4832 72.8381C72.4833 72.8381 72.4835 72.8381 72.4837 72.8381C72.4838 72.8381 72.484 72.8381 72.4841 72.8381C72.4843 72.8381 72.4845 72.8381 72.4846 72.8381C72.4848 72.8381 72.4849 72.8381 72.4851 72.8381C72.4853 72.8381 72.4854 72.8381 72.4856 72.8381C72.4857 72.8381 72.4859 72.8381 72.4861 72.8381C72.4862 72.8381 72.4864 72.8381 72.4866 72.8381C72.4867 72.8381 72.4869 72.8381 72.487 72.8381C72.4872 72.8381 72.4874 72.8381 72.4875 72.8381C72.4877 72.8381 72.4879 72.8381 72.488 72.8381C72.4882 72.8381 72.4883 72.8381 72.4885 72.8381C72.4887 72.8381 72.4888 72.8381 72.489 72.8381C72.4892 72.8381 72.4893 72.8381 72.4895 72.8381C72.4896 72.8381 72.4898 72.8381 72.49 72.8381C72.4901 72.8381 72.4903 72.8381 72.4905 72.8381C72.4906 72.8381 72.4908 72.8381 72.4909 72.8381C72.4911 72.8381 72.4913 72.8381 72.4914 72.8381C72.4916 72.8381 72.4918 72.8381 72.4919 72.8381C72.4921 72.8381 72.4922 72.8381 72.4924 72.8381C72.4926 72.8381 72.4927 72.8381 72.4929 72.8381C72.4931 72.8381 72.4932 72.8381 72.4934 72.8381C72.4936 72.8381 72.4937 72.8381 72.4939 72.8381C72.494 72.8381 72.4942 72.8381 72.4944 72.8381C72.4945 72.8381 72.4947 72.8381 72.4949 72.8381C72.495 72.8381 72.4952 72.8381 72.4954 72.8381C72.4955 72.8381 72.4957 72.8381 72.4958 72.8381C72.496 72.8381 72.4962 72.8381 72.4963 72.8381C72.4965 72.8381 72.4967 72.8381 72.4968 72.8381C72.497 72.8381 72.4972 72.8381 72.4973 72.8381C72.4975 72.8381 72.4977 72.8381 72.4978 72.8381C72.498 72.8381 72.4982 72.8381 72.4983 72.8381C72.4985 72.8381 72.4986 72.8381 72.4988 72.8381C72.499 72.8381 72.4991 72.8381 72.4993 72.8381C72.4995 72.8381 72.4996 72.8381 72.4998 72.8381C72.5 72.8381 72.5001 72.8381 72.5003 72.8381C72.5005 72.8381 72.5006 72.8381 72.5008 72.8381C72.501 72.8381 72.5011 72.8381 72.5013 72.8381C72.5015 72.8381 72.5016 72.8381 72.5018 72.8381C72.502 72.8381 72.5021 72.8381 72.5023 72.8381C72.5025 72.8381 72.5026 72.8381 72.5028 72.8381C72.503 72.8381 72.5031 72.8381 72.5033 72.8381C72.5035 72.8381 72.5036 72.8381 72.5038 72.8381C72.504 72.8381 72.5041 72.8381 72.5043 72.8381C72.5045 72.8381 72.5046 72.8381 72.5048 72.8381C72.505 72.8381 72.5051 72.8381 72.5053 72.8381C72.5055 72.8381 72.5056 72.8381 72.5058 72.8381C72.506 72.8381 72.5061 72.8381 72.5063 72.8381C72.5065 72.8381 72.5066 72.8381 72.5068 72.8381C72.507 72.8381 72.5071 72.8381 72.5073 72.8381C72.5075 72.8381 72.5076 72.8381 72.5078 72.8381C72.508 72.8381 72.5081 72.8381 72.5083 72.8381C72.5085 72.8381 72.5086 72.8381 72.5088 72.8381C72.509 72.8381 72.5091 72.8381 72.5093 72.8381C72.5095 72.8381 72.5097 72.8381 72.5098 72.8381C72.51 72.8381 72.5102 72.8381 72.5103 72.8381C72.5105 72.8381 72.5107 72.8381 72.5108 72.8381C72.511 72.8381 72.5112 72.8381 72.5113 72.8381C72.5115 72.8381 72.5117 72.8381 72.5118 72.8381C72.512 72.8381 72.5122 72.8381 72.5124 72.8381C72.5125 72.8381 72.5127 72.8381 72.5129 72.8381C72.513 72.8381 72.5132 72.8381 72.5134 72.8381C72.5135 72.8381 72.5137 72.8381 72.5139 72.8381C72.5141 72.8381 72.5142 72.8381 72.5144 72.8381C72.5146 72.8381 72.5147 72.8381 72.5149 72.8381C72.5151 72.8381 72.5152 72.8381 72.5154 72.8381C72.5156 72.8381 72.5158 72.8381 72.5159 72.8381C72.5161 72.8381 72.5163 72.8381 72.5164 72.8381C72.5166 72.8381 72.5168 72.8381 72.517 72.8381C72.5171 72.8381 72.5173 72.8381 72.5175 72.8381C72.5176 72.8381 72.5178 72.8381 72.518 72.8381C72.5182 72.8381 72.5183 72.8381 72.5185 72.8381C72.5187 72.8381 72.5188 72.8381 72.519 72.8381C72.5192 72.8381 72.5194 72.8381 72.5195 72.8381C72.5197 72.8381 72.5199 72.8381 72.52 72.8381C72.5202 72.8381 72.5204 72.8381 72.5206 72.8381C72.5207 72.8381 72.5209 72.8381 72.5211 72.8381C72.5212 72.8381 72.5214 72.8381 72.5216 72.8381C72.5218 72.8381 72.5219 72.8381 72.5221 72.8381C72.5223 72.8381 72.5225 72.8381 72.5226 72.8381C72.5228 72.8381 72.523 72.8381 72.5232 72.8381C72.5233 72.8381 72.5235 72.8381 72.5237 72.8381C72.5238 72.8381 72.524 72.8381 72.5242 72.8381C72.5244 72.8381 72.5245 72.8381 72.5247 72.8381C72.5249 72.8381 72.5251 72.8381 72.5252 72.8381C72.5254 72.8381 72.5256 72.8381 72.5258 72.8381C72.5259 72.8381 72.5261 72.8381 72.5263 72.8381C72.5265 72.8381 72.5266 72.8381 72.5268 72.8381C72.527 72.8381 72.5272 72.8381 72.5273 72.8381C72.5275 72.8381 72.5277 72.8381 72.5279 72.8381C72.528 72.8381 72.5282 72.8381 72.5284 72.8381C72.5286 72.8381 72.5287 72.8381 72.5289 72.8381C72.5291 72.8381 72.5293 72.8381 72.5294 72.8381C72.5296 72.8381 72.5298 72.8381 72.53 72.8381C72.5301 72.8381 72.5303 72.8381 72.5305 72.8381C72.5307 72.8381 72.5308 72.8381 72.531 72.8381C72.5312 72.8381 72.5314 72.8381 72.5315 72.8381C72.5317 72.8381 72.5319 72.8381 72.5321 72.8381C72.5323 72.8381 72.5324 72.8381 72.5326 72.8381C72.5328 72.8381 72.533 72.8381 72.5331 72.8381C72.5333 72.8381 72.5335 72.8381 72.5337 72.8381C72.5339 72.8381 72.534 72.8381 72.5342 72.8381C72.5344 72.8381 72.5346 72.8381 72.5347 72.8381C72.5349 72.8381 72.5351 72.8381 72.5353 72.8381C72.5355 72.8381 72.5356 72.8381 72.5358 72.8381C72.536 72.8381 72.5362 72.8381 72.5363 72.8381C72.5365 72.8381 72.5367 72.8381 72.5369 72.8381C72.5371 72.8381 72.5372 72.8381 72.5374 72.8381C72.5376 72.8381 72.5378 72.8381 72.5379 72.8381C72.5381 72.8381 72.5383 72.8381 72.5385 72.8381C72.5387 72.8381 72.5388 72.8381 72.539 72.8381C72.5392 72.8381 72.5394 72.8381 72.5396 72.8381C72.5397 72.8381 72.5399 72.8381 72.5401 72.8381C72.5403 72.8381 72.5405 72.8381 72.5406 72.8381C72.5408 72.8381 72.541 72.8381 72.5412 72.8381C72.5414 72.8381 72.5415 72.8381 72.5417 72.8381C72.5419 72.8381 72.5421 72.8381 72.5423 72.8381C72.5424 72.8381 72.5426 72.8381 72.5428 72.8381C72.543 72.8381 72.5432 72.8381 72.5434 72.8381C72.5435 72.8381 72.5437 72.8381 72.5439 72.8381C72.5441 72.8381 72.5443 72.8381 72.5444 72.8381C72.5446 72.8381 72.5448 72.8381 72.545 72.8381C72.5452 72.8381 72.5454 72.8381 72.5455 72.8381C72.5457 72.8381 72.5459 72.8381 72.5461 72.8381C72.5463 72.8381 72.5465 72.8381 72.5466 72.8381C72.5468 72.8381 72.547 72.8381 72.5472 72.8381C72.5474 72.8381 72.5475 72.8381 72.5477 72.8381C72.5479 72.8381 72.5481 72.8381 72.5483 72.8381C72.5485 72.8381 72.5487 72.8381 72.5488 72.8381C72.549 72.8381 72.5492 72.8381 72.5494 72.8381V54.8381C72.5492 54.8381 72.549 54.8381 72.5488 54.8381C72.5487 54.8381 72.5485 54.8381 72.5483 54.8381C72.5481 54.8381 72.5479 54.8381 72.5477 54.8381C72.5475 54.8381 72.5474 54.8381 72.5472 54.8381C72.547 54.8381 72.5468 54.8381 72.5466 54.8381C72.5465 54.8381 72.5463 54.8381 72.5461 54.8381C72.5459 54.8381 72.5457 54.8381 72.5455 54.8381C72.5454 54.8381 72.5452 54.8381 72.545 54.8381C72.5448 54.8381 72.5446 54.8381 72.5444 54.8381C72.5443 54.8381 72.5441 54.8381 72.5439 54.8381C72.5437 54.8381 72.5435 54.8381 72.5434 54.8381C72.5432 54.8381 72.543 54.8381 72.5428 54.8381C72.5426 54.8381 72.5424 54.8381 72.5423 54.8381C72.5421 54.8381 72.5419 54.8381 72.5417 54.8381C72.5415 54.8381 72.5414 54.8381 72.5412 54.8381C72.541 54.8381 72.5408 54.8381 72.5406 54.8381C72.5405 54.8381 72.5403 54.8381 72.5401 54.8381C72.5399 54.8381 72.5397 54.8381 72.5396 54.8381C72.5394 54.8381 72.5392 54.8381 72.539 54.8381C72.5388 54.8381 72.5387 54.8381 72.5385 54.8381C72.5383 54.8381 72.5381 54.8381 72.5379 54.8381C72.5378 54.8381 72.5376 54.8381 72.5374 54.8381C72.5372 54.8381 72.5371 54.8381 72.5369 54.8381C72.5367 54.8381 72.5365 54.8381 72.5363 54.8381C72.5362 54.8381 72.536 54.8381 72.5358 54.8381C72.5356 54.8381 72.5355 54.8381 72.5353 54.8381C72.5351 54.8381 72.5349 54.8381 72.5347 54.8381C72.5346 54.8381 72.5344 54.8381 72.5342 54.8381C72.534 54.8381 72.5339 54.8381 72.5337 54.8381C72.5335 54.8381 72.5333 54.8381 72.5331 54.8381C72.533 54.8381 72.5328 54.8381 72.5326 54.8381C72.5324 54.8381 72.5323 54.8381 72.5321 54.8381C72.5319 54.8381 72.5317 54.8381 72.5315 54.8381C72.5314 54.8381 72.5312 54.8381 72.531 54.8381C72.5308 54.8381 72.5307 54.8381 72.5305 54.8381C72.5303 54.8381 72.5301 54.8381 72.53 54.8381C72.5298 54.8381 72.5296 54.8381 72.5294 54.8381C72.5293 54.8381 72.5291 54.8381 72.5289 54.8381C72.5287 54.8381 72.5286 54.8381 72.5284 54.8381C72.5282 54.8381 72.528 54.8381 72.5279 54.8381C72.5277 54.8381 72.5275 54.8381 72.5273 54.8381C72.5272 54.8381 72.527 54.8381 72.5268 54.8381C72.5266 54.8381 72.5265 54.8381 72.5263 54.8381C72.5261 54.8381 72.5259 54.8381 72.5258 54.8381C72.5256 54.8381 72.5254 54.8381 72.5252 54.8381C72.5251 54.8381 72.5249 54.8381 72.5247 54.8381C72.5245 54.8381 72.5244 54.8381 72.5242 54.8381C72.524 54.8381 72.5238 54.8381 72.5237 54.8381C72.5235 54.8381 72.5233 54.8381 72.5232 54.8381C72.523 54.8381 72.5228 54.8381 72.5226 54.8381C72.5225 54.8381 72.5223 54.8381 72.5221 54.8381C72.5219 54.8381 72.5218 54.8381 72.5216 54.8381C72.5214 54.8381 72.5212 54.8381 72.5211 54.8381C72.5209 54.8381 72.5207 54.8381 72.5206 54.8381C72.5204 54.8381 72.5202 54.8381 72.52 54.8381C72.5199 54.8381 72.5197 54.8381 72.5195 54.8381C72.5194 54.8381 72.5192 54.8381 72.519 54.8381C72.5188 54.8381 72.5187 54.8381 72.5185 54.8381C72.5183 54.8381 72.5182 54.8381 72.518 54.8381C72.5178 54.8381 72.5176 54.8381 72.5175 54.8381C72.5173 54.8381 72.5171 54.8381 72.517 54.8381C72.5168 54.8381 72.5166 54.8381 72.5164 54.8381C72.5163 54.8381 72.5161 54.8381 72.5159 54.8381C72.5158 54.8381 72.5156 54.8381 72.5154 54.8381C72.5152 54.8381 72.5151 54.8381 72.5149 54.8381C72.5147 54.8381 72.5146 54.8381 72.5144 54.8381C72.5142 54.8381 72.5141 54.8381 72.5139 54.8381C72.5137 54.8381 72.5135 54.8381 72.5134 54.8381C72.5132 54.8381 72.513 54.8381 72.5129 54.8381C72.5127 54.8381 72.5125 54.8381 72.5124 54.8381C72.5122 54.8381 72.512 54.8381 72.5118 54.8381C72.5117 54.8381 72.5115 54.8381 72.5113 54.8381C72.5112 54.8381 72.511 54.8381 72.5108 54.8381C72.5107 54.8381 72.5105 54.8381 72.5103 54.8381C72.5102 54.8381 72.51 54.8381 72.5098 54.8381C72.5097 54.8381 72.5095 54.8381 72.5093 54.8381C72.5091 54.8381 72.509 54.8381 72.5088 54.8381C72.5086 54.8381 72.5085 54.8381 72.5083 54.8381C72.5081 54.8381 72.508 54.8381 72.5078 54.8381C72.5076 54.8381 72.5075 54.8381 72.5073 54.8381C72.5071 54.8381 72.507 54.8381 72.5068 54.8381C72.5066 54.8381 72.5065 54.8381 72.5063 54.8381C72.5061 54.8381 72.506 54.8381 72.5058 54.8381C72.5056 54.8381 72.5055 54.8381 72.5053 54.8381C72.5051 54.8381 72.505 54.8381 72.5048 54.8381C72.5046 54.8381 72.5045 54.8381 72.5043 54.8381C72.5041 54.8381 72.504 54.8381 72.5038 54.8381C72.5036 54.8381 72.5035 54.8381 72.5033 54.8381C72.5031 54.8381 72.503 54.8381 72.5028 54.8381C72.5026 54.8381 72.5025 54.8381 72.5023 54.8381C72.5021 54.8381 72.502 54.8381 72.5018 54.8381C72.5016 54.8381 72.5015 54.8381 72.5013 54.8381C72.5011 54.8381 72.501 54.8381 72.5008 54.8381C72.5006 54.8381 72.5005 54.8381 72.5003 54.8381C72.5001 54.8381 72.5 54.8381 72.4998 54.8381C72.4996 54.8381 72.4995 54.8381 72.4993 54.8381C72.4991 54.8381 72.499 54.8381 72.4988 54.8381C72.4986 54.8381 72.4985 54.8381 72.4983 54.8381C72.4982 54.8381 72.498 54.8381 72.4978 54.8381C72.4977 54.8381 72.4975 54.8381 72.4973 54.8381C72.4972 54.8381 72.497 54.8381 72.4968 54.8381C72.4967 54.8381 72.4965 54.8381 72.4963 54.8381C72.4962 54.8381 72.496 54.8381 72.4958 54.8381C72.4957 54.8381 72.4955 54.8381 72.4954 54.8381C72.4952 54.8381 72.495 54.8381 72.4949 54.8381C72.4947 54.8381 72.4945 54.8381 72.4944 54.8381C72.4942 54.8381 72.494 54.8381 72.4939 54.8381C72.4937 54.8381 72.4936 54.8381 72.4934 54.8381C72.4932 54.8381 72.4931 54.8381 72.4929 54.8381C72.4927 54.8381 72.4926 54.8381 72.4924 54.8381C72.4922 54.8381 72.4921 54.8381 72.4919 54.8381C72.4918 54.8381 72.4916 54.8381 72.4914 54.8381C72.4913 54.8381 72.4911 54.8381 72.4909 54.8381C72.4908 54.8381 72.4906 54.8381 72.4905 54.8381C72.4903 54.8381 72.4901 54.8381 72.49 54.8381C72.4898 54.8381 72.4896 54.8381 72.4895 54.8381C72.4893 54.8381 72.4892 54.8381 72.489 54.8381C72.4888 54.8381 72.4887 54.8381 72.4885 54.8381C72.4883 54.8381 72.4882 54.8381 72.488 54.8381C72.4879 54.8381 72.4877 54.8381 72.4875 54.8381C72.4874 54.8381 72.4872 54.8381 72.487 54.8381C72.4869 54.8381 72.4867 54.8381 72.4866 54.8381C72.4864 54.8381 72.4862 54.8381 72.4861 54.8381C72.4859 54.8381 72.4857 54.8381 72.4856 54.8381C72.4854 54.8381 72.4853 54.8381 72.4851 54.8381C72.4849 54.8381 72.4848 54.8381 72.4846 54.8381C72.4845 54.8381 72.4843 54.8381 72.4841 54.8381C72.484 54.8381 72.4838 54.8381 72.4837 54.8381C72.4835 54.8381 72.4833 54.8381 72.4832 54.8381C72.483 54.8381 72.4828 54.8381 72.4827 54.8381C72.4825 54.8381 72.4824 54.8381 72.4822 54.8381C72.482 54.8381 72.4819 54.8381 72.4817 54.8381C72.4816 54.8381 72.4814 54.8381 72.4812 54.8381C72.4811 54.8381 72.4809 54.8381 72.4808 54.8381C72.4806 54.8381 72.4804 54.8381 72.4803 54.8381C72.4801 54.8381 72.48 54.8381 72.4798 54.8381C72.4796 54.8381 72.4795 54.8381 72.4793 54.8381C72.4792 54.8381 72.479 54.8381 72.4788 54.8381C72.4787 54.8381 72.4785 54.8381 72.4784 54.8381C72.4782 54.8381 72.478 54.8381 72.4779 54.8381C72.4777 54.8381 72.4776 54.8381 72.4774 54.8381C72.4772 54.8381 72.4771 54.8381 72.4769 54.8381C72.4768 54.8381 72.4766 54.8381 72.4765 54.8381C72.4763 54.8381 72.4761 54.8381 72.476 54.8381C72.4758 54.8381 72.4757 54.8381 72.4755 54.8381C72.4753 54.8381 72.4752 54.8381 72.475 54.8381C72.4749 54.8381 72.4747 54.8381 72.4745 54.8381C72.4744 54.8381 72.4742 54.8381 72.4741 54.8381C72.4739 54.8381 72.4737 54.8381 72.4736 54.8381C72.4734 54.8381 72.4733 54.8381 72.4731 54.8381C72.473 54.8381 72.4728 54.8381 72.4726 54.8381C72.4725 54.8381 72.4723 54.8381 72.4722 54.8381C72.472 54.8381 72.4718 54.8381 72.4717 54.8381C72.4715 54.8381 72.4714 54.8381 72.4712 54.8381C72.4711 54.8381 72.4709 54.8381 72.4707 54.8381C72.4706 54.8381 72.4704 54.8381 72.4703 54.8381C72.4701 54.8381 72.4699 54.8381 72.4698 54.8381C72.4696 54.8381 72.4695 54.8381 72.4693 54.8381C72.4692 54.8381 72.469 54.8381 72.4688 54.8381C72.4687 54.8381 72.4685 54.8381 72.4684 54.8381C72.4682 54.8381 72.4681 54.8381 72.4679 54.8381C72.4677 54.8381 72.4676 54.8381 72.4674 54.8381C72.4673 54.8381 72.4671 54.8381 72.467 54.8381C72.4668 54.8381 72.4666 54.8381 72.4665 54.8381C72.4663 54.8381 72.4662 54.8381 72.466 54.8381C72.4659 54.8381 72.4657 54.8381 72.4655 54.8381C72.4654 54.8381 72.4652 54.8381 72.4651 54.8381C72.4649 54.8381 72.4648 54.8381 72.4646 54.8381C72.4644 54.8381 72.4643 54.8381 72.4641 54.8381C72.464 54.8381 72.4638 54.8381 72.4637 54.8381C72.4635 54.8381 72.4633 54.8381 72.4632 54.8381C72.463 54.8381 72.4629 54.8381 72.4627 54.8381C72.4626 54.8381 72.4624 54.8381 72.4622 54.8381C72.4621 54.8381 72.4619 54.8381 72.4618 54.8381C72.4616 54.8381 72.4615 54.8381 72.4613 54.8381C72.4612 54.8381 72.461 54.8381 72.4608 54.8381C72.4607 54.8381 72.4605 54.8381 72.4604 54.8381C72.4602 54.8381 72.4601 54.8381 72.4599 54.8381C72.4597 54.8381 72.4596 54.8381 72.4594 54.8381C72.4593 54.8381 72.4591 54.8381 72.459 54.8381C72.4588 54.8381 72.4587 54.8381 72.4585 54.8381C72.4583 54.8381 72.4582 54.8381 72.458 54.8381C72.4579 54.8381 72.4577 54.8381 72.4576 54.8381C72.4574 54.8381 72.4573 54.8381 72.4571 54.8381C72.4569 54.8381 72.4568 54.8381 72.4566 54.8381C72.4565 54.8381 72.4563 54.8381 72.4562 54.8381C72.456 54.8381 72.4558 54.8381 72.4557 54.8381C72.4555 54.8381 72.4554 54.8381 72.4552 54.8381C72.4551 54.8381 72.4549 54.8381 72.4548 54.8381C72.4546 54.8381 72.4545 54.8381 72.4543 54.8381C72.4541 54.8381 72.454 54.8381 72.4538 54.8381C72.4537 54.8381 72.4535 54.8381 72.4534 54.8381C72.4532 54.8381 72.4531 54.8381 72.4529 54.8381C72.4527 54.8381 72.4526 54.8381 72.4524 54.8381C72.4523 54.8381 72.4521 54.8381 72.452 54.8381C72.4518 54.8381 72.4517 54.8381 72.4515 54.8381C72.4513 54.8381 72.4512 54.8381 72.451 54.8381C72.4509 54.8381 72.4507 54.8381 72.4506 54.8381C72.4504 54.8381 72.4503 54.8381 72.4501 54.8381C72.45 54.8381 72.4498 54.8381 72.4496 54.8381C72.4495 54.8381 72.4493 54.8381 72.4492 54.8381C72.449 54.8381 72.4489 54.8381 72.4487 54.8381C72.4486 54.8381 72.4484 54.8381 72.4483 54.8381C72.4481 54.8381 72.4479 54.8381 72.4478 54.8381C72.4476 54.8381 72.4475 54.8381 72.4473 54.8381C72.4472 54.8381 72.447 54.8381 72.4469 54.8381C72.4467 54.8381 72.4466 54.8381 72.4464 54.8381C72.4462 54.8381 72.4461 54.8381 72.4459 54.8381C72.4458 54.8381 72.4456 54.8381 72.4455 54.8381C72.4453 54.8381 72.4452 54.8381 72.445 54.8381C72.4449 54.8381 72.4447 54.8381 72.4445 54.8381C72.4444 54.8381 72.4442 54.8381 72.4441 54.8381C72.4439 54.8381 72.4438 54.8381 72.4436 54.8381C72.4435 54.8381 72.4433 54.8381 72.4432 54.8381C72.443 54.8381 72.4429 54.8381 72.4427 54.8381C72.4425 54.8381 72.4424 54.8381 72.4422 54.8381C72.4421 54.8381 72.4419 54.8381 72.4418 54.8381C72.4416 54.8381 72.4415 54.8381 72.4413 54.8381C72.4412 54.8381 72.441 54.8381 72.4408 54.8381C72.4407 54.8381 72.4405 54.8381 72.4404 54.8381C72.4402 54.8381 72.4401 54.8381 72.4399 54.8381C72.4398 54.8381 72.4396 54.8381 72.4395 54.8381C72.4393 54.8381 72.4392 54.8381 72.439 54.8381C72.4389 54.8381 72.4387 54.8381 72.4385 54.8381C72.4384 54.8381 72.4382 54.8381 72.4381 54.8381C72.4379 54.8381 72.4378 54.8381 72.4376 54.8381C72.4375 54.8381 72.4373 54.8381 72.4372 54.8381C72.437 54.8381 72.4369 54.8381 72.4367 54.8381C72.4365 54.8381 72.4364 54.8381 72.4362 54.8381C72.4361 54.8381 72.4359 54.8381 72.4358 54.8381C72.4356 54.8381 72.4355 54.8381 72.4353 54.8381C72.4352 54.8381 72.435 54.8381 72.4349 54.8381C72.4347 54.8381 72.4345 54.8381 72.4344 54.8381C72.4342 54.8381 72.4341 54.8381 72.4339 54.8381C72.4338 54.8381 72.4336 54.8381 72.4335 54.8381C72.4333 54.8381 72.4332 54.8381 72.433 54.8381C72.4329 54.8381 72.4327 54.8381 72.4326 54.8381C72.4324 54.8381 72.4322 54.8381 72.4321 54.8381C72.4319 54.8381 72.4318 54.8381 72.4316 54.8381C72.4315 54.8381 72.4313 54.8381 72.4312 54.8381C72.431 54.8381 72.4309 54.8381 72.4307 54.8381C72.4306 54.8381 72.4304 54.8381 72.4303 54.8381C72.4301 54.8381 72.4299 54.8381 72.4298 54.8381C72.4296 54.8381 72.4295 54.8381 72.4293 54.8381C72.4292 54.8381 72.429 54.8381 72.4289 54.8381C72.4287 54.8381 72.4286 54.8381 72.4284 54.8381C72.4283 54.8381 72.4281 54.8381 72.428 54.8381C72.4278 54.8381 72.4276 54.8381 72.4275 54.8381C72.4273 54.8381 72.4272 54.8381 72.427 54.8381C72.4269 54.8381 72.4267 54.8381 72.4266 54.8381C72.4264 54.8381 72.4263 54.8381 72.4261 54.8381C72.426 54.8381 72.4258 54.8381 72.4257 54.8381C72.4255 54.8381 72.4253 54.8381 72.4252 54.8381C72.425 54.8381 72.4249 54.8381 72.4247 54.8381C72.4246 54.8381 72.4244 54.8381 72.4243 54.8381C72.4241 54.8381 72.424 54.8381 72.4238 54.8381C72.4237 54.8381 72.4235 54.8381 72.4234 54.8381C72.4232 54.8381 72.423 54.8381 72.4229 54.8381C72.4227 54.8381 72.4226 54.8381 72.4224 54.8381C72.4223 54.8381 72.4221 54.8381 72.422 54.8381C72.4218 54.8381 72.4217 54.8381 72.4215 54.8381C72.4214 54.8381 72.4212 54.8381 72.4211 54.8381C72.4209 54.8381 72.4207 54.8381 72.4206 54.8381C72.4204 54.8381 72.4203 54.8381 72.4201 54.8381C72.42 54.8381 72.4198 54.8381 72.4197 54.8381C72.4195 54.8381 72.4194 54.8381 72.4192 54.8381C72.4191 54.8381 72.4189 54.8381 72.4188 54.8381C72.4186 54.8381 72.4184 54.8381 72.4183 54.8381C72.4181 54.8381 72.418 54.8381 72.4178 54.8381C72.4177 54.8381 72.4175 54.8381 72.4174 54.8381C72.4172 54.8381 72.4171 54.8381 72.4169 54.8381C72.4168 54.8381 72.4166 54.8381 72.4165 54.8381C72.4163 54.8381 72.4161 54.8381 72.416 54.8381C72.4158 54.8381 72.4157 54.8381 72.4155 54.8381C72.4154 54.8381 72.4152 54.8381 72.4151 54.8381C72.4149 54.8381 72.4148 54.8381 72.4146 54.8381C72.4145 54.8381 72.4143 54.8381 72.4142 54.8381C72.414 54.8381 72.4138 54.8381 72.4137 54.8381C72.4135 54.8381 72.4134 54.8381 72.4132 54.8381C72.4131 54.8381 72.4129 54.8381 72.4128 54.8381C72.4126 54.8381 72.4125 54.8381 72.4123 54.8381C72.4122 54.8381 72.412 54.8381 72.4118 54.8381C72.4117 54.8381 72.4115 54.8381 72.4114 54.8381C72.4112 54.8381 72.4111 54.8381 72.4109 54.8381C72.4108 54.8381 72.4106 54.8381 72.4105 54.8381C72.4103 54.8381 72.4102 54.8381 72.41 54.8381C72.4099 54.8381 72.4097 54.8381 72.4095 54.8381C72.4094 54.8381 72.4092 54.8381 72.4091 54.8381C72.4089 54.8381 72.4088 54.8381 72.4086 54.8381C72.4085 54.8381 72.4083 54.8381 72.4082 54.8381C72.408 54.8381 72.4079 54.8381 72.4077 54.8381C72.4075 54.8381 72.4074 54.8381 72.4072 54.8381C72.4071 54.8381 72.4069 54.8381 72.4068 54.8381C72.4066 54.8381 72.4065 54.8381 72.4063 54.8381C72.4062 54.8381 72.406 54.8381 72.4059 54.8381C72.4057 54.8381 72.4055 54.8381 72.4054 54.8381C72.4052 54.8381 72.4051 54.8381 72.4049 54.8381C72.4048 54.8381 72.4046 54.8381 72.4045 54.8381C72.4043 54.8381 72.4042 54.8381 72.404 54.8381C72.4038 54.8381 72.4037 54.8381 72.4035 54.8381C72.4034 54.8381 72.4032 54.8381 72.4031 54.8381C72.4029 54.8381 72.4028 54.8381 72.4026 54.8381C72.4025 54.8381 72.4023 54.8381 72.4022 54.8381C72.402 54.8381 72.4018 54.8381 72.4017 54.8381C72.4015 54.8381 72.4014 54.8381 72.4012 54.8381C72.4011 54.8381 72.4009 54.8381 72.4008 54.8381C72.4006 54.8381 72.4005 54.8381 72.4003 54.8381C72.4001 54.8381 72.4 54.8381 72.3998 54.8381C72.3997 54.8381 72.3995 54.8381 72.3994 54.8381C72.3992 54.8381 72.3991 54.8381 72.3989 54.8381C72.3988 54.8381 72.3986 54.8381 72.3984 54.8381C72.3983 54.8381 72.3981 54.8381 72.398 54.8381C72.3978 54.8381 72.3977 54.8381 72.3975 54.8381C72.3974 54.8381 72.3972 54.8381 72.397 54.8381C72.3969 54.8381 72.3967 54.8381 72.3966 54.8381C72.3964 54.8381 72.3963 54.8381 72.3961 54.8381C72.396 54.8381 72.3958 54.8381 72.3957 54.8381C72.3955 54.8381 72.3953 54.8381 72.3952 54.8381C72.395 54.8381 72.3949 54.8381 72.3947 54.8381C72.3946 54.8381 72.3944 54.8381 72.3943 54.8381C72.3941 54.8381 72.394 54.8381 72.3938 54.8381C72.3936 54.8381 72.3935 54.8381 72.3933 54.8381C72.3932 54.8381 72.393 54.8381 72.3929 54.8381C72.3927 54.8381 72.3925 54.8381 72.3924 54.8381C72.3922 54.8381 72.3921 54.8381 72.3919 54.8381C72.3918 54.8381 72.3916 54.8381 72.3915 54.8381C72.3913 54.8381 72.3912 54.8381 72.391 54.8381C72.3908 54.8381 72.3907 54.8381 72.3905 54.8381C72.3904 54.8381 72.3902 54.8381 72.3901 54.8381C72.3899 54.8381 72.3897 54.8381 72.3896 54.8381C72.3894 54.8381 72.3893 54.8381 72.3891 54.8381C72.389 54.8381 72.3888 54.8381 72.3887 54.8381C72.3885 54.8381 72.3883 54.8381 72.3882 54.8381C72.388 54.8381 72.3879 54.8381 72.3877 54.8381C72.3876 54.8381 72.3874 54.8381 72.3873 54.8381C72.3871 54.8381 72.3869 54.8381 72.3868 54.8381C72.3866 54.8381 72.3865 54.8381 72.3863 54.8381C72.3862 54.8381 72.386 54.8381 72.3858 54.8381C72.3857 54.8381 72.3855 54.8381 72.3854 54.8381C72.3852 54.8381 72.3851 54.8381 72.3849 54.8381C72.3848 54.8381 72.3846 54.8381 72.3844 54.8381C72.3843 54.8381 72.3841 54.8381 72.384 54.8381C72.3838 54.8381 72.3837 54.8381 72.3835 54.8381C72.3833 54.8381 72.3832 54.8381 72.383 54.8381C72.3829 54.8381 72.3827 54.8381 72.3826 54.8381C72.3824 54.8381 72.3822 54.8381 72.3821 54.8381C72.3819 54.8381 72.3818 54.8381 72.3816 54.8381C72.3815 54.8381 72.3813 54.8381 72.3811 54.8381C72.381 54.8381 72.3808 54.8381 72.3807 54.8381C72.3805 54.8381 72.3804 54.8381 72.3802 54.8381C72.38 54.8381 72.3799 54.8381 72.3797 54.8381C72.3796 54.8381 72.3794 54.8381 72.3792 54.8381C72.3791 54.8381 72.3789 54.8381 72.3788 54.8381C72.3786 54.8381 72.3785 54.8381 72.3783 54.8381C72.3782 54.8381 72.378 54.8381 72.3778 54.8381C72.3777 54.8381 72.3775 54.8381 72.3774 54.8381C72.3772 54.8381 72.377 54.8381 72.3769 54.8381C72.3767 54.8381 72.3766 54.8381 72.3764 54.8381C72.3763 54.8381 72.3761 54.8381 72.3759 54.8381C72.3758 54.8381 72.3756 54.8381 72.3755 54.8381C72.3753 54.8381 72.3751 54.8381 72.375 54.8381C72.3748 54.8381 72.3747 54.8381 72.3745 54.8381C72.3744 54.8381 72.3742 54.8381 72.374 54.8381C72.3739 54.8381 72.3737 54.8381 72.3736 54.8381C72.3734 54.8381 72.3732 54.8381 72.3731 54.8381C72.3729 54.8381 72.3728 54.8381 72.3726 54.8381C72.3724 54.8381 72.3723 54.8381 72.3721 54.8381C72.372 54.8381 72.3718 54.8381 72.3717 54.8381C72.3715 54.8381 72.3713 54.8381 72.3712 54.8381C72.371 54.8381 72.3709 54.8381 72.3707 54.8381C72.3705 54.8381 72.3704 54.8381 72.3702 54.8381C72.3701 54.8381 72.3699 54.8381 72.3697 54.8381C72.3696 54.8381 72.3694 54.8381 72.3693 54.8381C72.3691 54.8381 72.3689 54.8381 72.3688 54.8381C72.3686 54.8381 72.3685 54.8381 72.3683 54.8381C72.3681 54.8381 72.368 54.8381 72.3678 54.8381C72.3677 54.8381 72.3675 54.8381 72.3673 54.8381C72.3672 54.8381 72.367 54.8381 72.3669 54.8381C72.3667 54.8381 72.3665 54.8381 72.3664 54.8381C72.3662 54.8381 72.3661 54.8381 72.3659 54.8381C72.3657 54.8381 72.3656 54.8381 72.3654 54.8381C72.3653 54.8381 72.3651 54.8381 72.3649 54.8381C72.3648 54.8381 72.3646 54.8381 72.3645 54.8381C72.3643 54.8381 72.3641 54.8381 72.364 54.8381C72.3638 54.8381 72.3636 54.8381 72.3635 54.8381C72.3633 54.8381 72.3632 54.8381 72.363 54.8381C72.3628 54.8381 72.3627 54.8381 72.3625 54.8381C72.3624 54.8381 72.3622 54.8381 72.362 54.8381C72.3619 54.8381 72.3617 54.8381 72.3615 54.8381C72.3614 54.8381 72.3612 54.8381 72.3611 54.8381C72.3609 54.8381 72.3607 54.8381 72.3606 54.8381C72.3604 54.8381 72.3603 54.8381 72.3601 54.8381C72.3599 54.8381 72.3598 54.8381 72.3596 54.8381C72.3594 54.8381 72.3593 54.8381 72.3591 54.8381C72.359 54.8381 72.3588 54.8381 72.3586 54.8381C72.3585 54.8381 72.3583 54.8381 72.3581 54.8381C72.358 54.8381 72.3578 54.8381 72.3577 54.8381C72.3575 54.8381 72.3573 54.8381 72.3572 54.8381C72.357 54.8381 72.3568 54.8381 72.3567 54.8381C72.3565 54.8381 72.3564 54.8381 72.3562 54.8381C72.356 54.8381 72.3559 54.8381 72.3557 54.8381C72.3555 54.8381 72.3554 54.8381 72.3552 54.8381C72.3551 54.8381 72.3549 54.8381 72.3547 54.8381C72.3546 54.8381 72.3544 54.8381 72.3542 54.8381C72.3541 54.8381 72.3539 54.8381 72.3537 54.8381C72.3536 54.8381 72.3534 54.8381 72.3533 54.8381C72.3531 54.8381 72.3529 54.8381 72.3528 54.8381C72.3526 54.8381 72.3524 54.8381 72.3523 54.8381C72.3521 54.8381 72.3519 54.8381 72.3518 54.8381C72.3516 54.8381 72.3514 54.8381 72.3513 54.8381C72.3511 54.8381 72.351 54.8381 72.3508 54.8381C72.3506 54.8381 72.3505 54.8381 72.3503 54.8381C72.3501 54.8381 72.35 54.8381 72.3498 54.8381C72.3496 54.8381 72.3495 54.8381 72.3493 54.8381C72.3491 54.8381 72.349 54.8381 72.3488 54.8381C72.3486 54.8381 72.3485 54.8381 72.3483 54.8381C72.3482 54.8381 72.348 54.8381 72.3478 54.8381C72.3477 54.8381 72.3475 54.8381 72.3473 54.8381C72.3472 54.8381 72.347 54.8381 72.3468 54.8381C72.3467 54.8381 72.3465 54.8381 72.3463 54.8381C72.3462 54.8381 72.346 54.8381 72.3458 54.8381C72.3457 54.8381 72.3455 54.8381 72.3453 54.8381C72.3452 54.8381 72.345 54.8381 72.3448 54.8381C72.3447 54.8381 72.3445 54.8381 72.3443 54.8381C72.3442 54.8381 72.344 54.8381 72.3438 54.8381C72.3437 54.8381 72.3435 54.8381 72.3433 54.8381C72.3432 54.8381 72.343 54.8381 72.3428 54.8381C72.3427 54.8381 72.3425 54.8381 72.3423 54.8381C72.3422 54.8381 72.342 54.8381 72.3418 54.8381C72.3417 54.8381 72.3415 54.8381 72.3413 54.8381C72.3412 54.8381 72.341 54.8381 72.3408 54.8381C72.3407 54.8381 72.3405 54.8381 72.3403 54.8381C72.3402 54.8381 72.34 54.8381 72.3398 54.8381C72.3397 54.8381 72.3395 54.8381 72.3393 54.8381C72.3391 54.8381 72.339 54.8381 72.3388 54.8381C72.3386 54.8381 72.3385 54.8381 72.3383 54.8381C72.3381 54.8381 72.338 54.8381 72.3378 54.8381C72.3376 54.8381 72.3375 54.8381 72.3373 54.8381C72.3371 54.8381 72.337 54.8381 72.3368 54.8381C72.3366 54.8381 72.3365 54.8381 72.3363 54.8381C72.3361 54.8381 72.3359 54.8381 72.3358 54.8381C72.3356 54.8381 72.3354 54.8381 72.3353 54.8381C72.3351 54.8381 72.3349 54.8381 72.3348 54.8381C72.3346 54.8381 72.3344 54.8381 72.3343 54.8381C72.3341 54.8381 72.3339 54.8381 72.3337 54.8381C72.3336 54.8381 72.3334 54.8381 72.3332 54.8381C72.3331 54.8381 72.3329 54.8381 72.3327 54.8381C72.3326 54.8381 72.3324 54.8381 72.3322 54.8381C72.332 54.8381 72.3319 54.8381 72.3317 54.8381C72.3315 54.8381 72.3314 54.8381 72.3312 54.8381C72.331 54.8381 72.3308 54.8381 72.3307 54.8381C72.3305 54.8381 72.3303 54.8381 72.3302 54.8381C72.33 54.8381 72.3298 54.8381 72.3296 54.8381C72.3295 54.8381 72.3293 54.8381 72.3291 54.8381C72.329 54.8381 72.3288 54.8381 72.3286 54.8381C72.3284 54.8381 72.3283 54.8381 72.3281 54.8381C72.3279 54.8381 72.3278 54.8381 72.3276 54.8381C72.3274 54.8381 72.3272 54.8381 72.3271 54.8381C72.3269 54.8381 72.3267 54.8381 72.3265 54.8381C72.3264 54.8381 72.3262 54.8381 72.326 54.8381C72.3259 54.8381 72.3257 54.8381 72.3255 54.8381C72.3253 54.8381 72.3252 54.8381 72.325 54.8381C72.3248 54.8381 72.3246 54.8381 72.3245 54.8381C72.3243 54.8381 72.3241 54.8381 72.324 54.8381C72.3238 54.8381 72.3236 54.8381 72.3234 54.8381C72.3233 54.8381 72.3231 54.8381 72.3229 54.8381C72.3227 54.8381 72.3226 54.8381 72.3224 54.8381C72.3222 54.8381 72.322 54.8381 72.3219 54.8381C72.3217 54.8381 72.3215 54.8381 72.3213 54.8381C72.3212 54.8381 72.321 54.8381 72.3208 54.8381C72.3206 54.8381 72.3205 54.8381 72.3203 54.8381C72.3201 54.8381 72.3199 54.8381 72.3198 54.8381C72.3196 54.8381 72.3194 54.8381 72.3192 54.8381C72.3191 54.8381 72.3189 54.8381 72.3187 54.8381C72.3185 54.8381 72.3184 54.8381 72.3182 54.8381C72.318 54.8381 72.3178 54.8381 72.3177 54.8381C72.3175 54.8381 72.3173 54.8381 72.3171 54.8381C72.317 54.8381 72.3168 54.8381 72.3166 54.8381C72.3164 54.8381 72.3163 54.8381 72.3161 54.8381C72.3159 54.8381 72.3157 54.8381 72.3155 54.8381C72.3154 54.8381 72.3152 54.8381 72.315 54.8381C72.3148 54.8381 72.3147 54.8381 72.3145 54.8381C72.3143 54.8381 72.3141 54.8381 72.3139 54.8381C72.3138 54.8381 72.3136 54.8381 72.3134 54.8381C72.3132 54.8381 72.3131 54.8381 72.3129 54.8381C72.3127 54.8381 72.3125 54.8381 72.3124 54.8381C72.3122 54.8381 72.312 54.8381 72.3118 54.8381C72.3116 54.8381 72.3115 54.8381 72.3113 54.8381C72.3111 54.8381 72.3109 54.8381 72.3107 54.8381C72.3106 54.8381 72.3104 54.8381 72.3102 54.8381C72.31 54.8381 72.3099 54.8381 72.3097 54.8381C72.3095 54.8381 72.3093 54.8381 72.3091 54.8381C72.309 54.8381 72.3088 54.8381 72.3086 54.8381C72.3084 54.8381 72.3082 54.8381 72.3081 54.8381C72.3079 54.8381 72.3077 54.8381 72.3075 54.8381C72.3073 54.8381 72.3072 54.8381 72.307 54.8381C72.3068 54.8381 72.3066 54.8381 72.3064 54.8381C72.3063 54.8381 72.3061 54.8381 72.3059 54.8381C72.3057 54.8381 72.3055 54.8381 72.3054 54.8381C72.3052 54.8381 72.305 54.8381 72.3048 54.8381C72.3046 54.8381 72.3045 54.8381 72.3043 54.8381C72.3041 54.8381 72.3039 54.8381 72.3037 54.8381C72.3035 54.8381 72.3034 54.8381 72.3032 54.8381C72.303 54.8381 72.3028 54.8381 72.3026 54.8381C72.3025 54.8381 72.3023 54.8381 72.3021 54.8381C72.3019 54.8381 72.3017 54.8381 72.3015 54.8381C72.3014 54.8381 72.3012 54.8381 72.301 54.8381C72.3008 54.8381 72.3006 54.8381 72.3004 54.8381C72.3003 54.8381 72.3001 54.8381 72.2999 54.8381C72.2997 54.8381 72.2995 54.8381 72.2993 54.8381C72.2992 54.8381 72.299 54.8381 72.2988 54.8381C72.2986 54.8381 72.2984 54.8381 72.2982 54.8381V72.8381ZM73.2082 72.814L88.1826 71.715L86.8651 53.7632L71.8906 54.8623L73.2082 72.814ZM79.6927 58.3036L70.8713 73.8785L86.5336 82.7495L95.355 67.1746L79.6927 58.3036ZM82.9161 70.3613L76.5747 67.0014L68.1474 82.9068L74.4888 86.2667L82.9161 70.3613ZM76.7742 67.1104C74.7372 65.9643 72.6094 65.5459 70.7286 65.5459V83.5459C69.9779 83.5459 68.9802 83.3787 67.9478 82.7978L76.7742 67.1104ZM70.7286 65.5459C67.8764 65.5459 64.8618 66.5307 62.4468 68.7048L74.4898 82.0826C73.3305 83.1262 71.9484 83.5459 70.7286 83.5459V65.5459ZM62.5128 68.6459C58.7503 71.9667 57.2143 77.3698 59.0598 82.3311L75.9304 76.0553C76.7714 78.3161 76.0516 80.7048 74.4237 82.1415L62.5128 68.6459ZM59.0457 82.2928L67.616 105.655L84.5148 99.4559L75.9445 76.0936L59.0457 82.2928ZM67.6382 105.715C68.9711 109.27 71.8907 112.123 75.6836 113.272L80.905 96.0464C82.626 96.568 83.9132 97.8505 84.4926 99.3961L67.6382 105.715ZM75.9257 113.342C76.7287 113.561 77.914 113.816 79.3303 113.816V95.8164C80.0559 95.8164 80.5506 95.946 80.6629 95.9767L75.9257 113.342ZM79.3303 113.816C81.8042 113.816 84.3933 113.062 86.5783 111.484L76.0378 96.8929C77.0926 96.1309 78.2376 95.8164 79.3303 95.8164V113.816ZM86.4982 111.541L106.339 97.5363L95.9584 82.8308L76.118 96.8356L86.4982 111.541ZM106.398 97.4938C110.701 94.4038 112.718 88.8262 110.992 83.5317L93.8788 89.1108C93.0946 86.7051 94.0445 84.2049 95.8987 82.8733L106.398 97.4938ZM110.992 83.5317C109.341 78.4671 104.629 74.9034 99.1393 74.9034V92.9034C96.6629 92.9034 94.5881 91.2864 93.8788 89.1108L110.992 83.5317ZM99.1393 74.9034H92.7037V92.9034H99.1393V74.9034ZM100.13 88.9875L121.886 57.2097L107.033 47.0414L85.2773 78.8192L100.13 88.9875ZM121.887 57.2069C123.416 54.9718 124.056 52.4719 124.056 50.1473H106.056C106.056 49.2043 106.318 48.0861 107.031 47.0443L121.887 57.2069ZM111.233 58.2954C114.526 59.8397 117.288 62.0299 119.509 64.8801L133.707 53.8155C129.712 48.6898 124.689 44.7254 118.878 41.9992L111.233 58.2954ZM119.524 64.8989C121.55 67.4848 122.708 71.1905 122.959 76.6137C123.212 82.1099 122.509 88.2522 121.688 95.2228L139.565 97.3278C140.345 90.7018 141.274 83.0278 140.939 75.783C140.601 68.4652 138.949 60.5055 133.692 53.7967L119.524 64.8989ZM121.687 95.2323C120.909 101.903 119.971 109.669 120.389 116.969C120.814 124.379 122.674 132.412 128.393 139.047L142.027 127.296C139.898 124.825 138.665 121.27 138.36 115.94C138.048 110.499 138.743 104.37 139.566 97.3183L121.687 95.2323ZM134.273 124.22C129.057 124.766 122.013 125.302 115.244 125.302V143.302C122.852 143.302 130.564 142.707 136.147 142.123L134.273 124.22ZM115.244 125.302C107.486 125.302 103.186 124.59 100.986 123.98C98.7546 123.362 99.2822 123.019 100.315 124.235L86.599 135.891C88.6995 138.363 91.8955 140.139 96.1781 141.326C100.493 142.522 106.552 143.302 115.244 143.302V125.302ZM100.335 124.258C95.5548 118.594 87.0906 110.968 80.1529 104.987C73.0452 98.8588 66.9015 93.917 66.3962 93.5094L55.095 107.519C55.5629 107.897 61.5212 112.689 68.3992 118.619C75.4471 124.696 82.852 131.451 86.5795 135.868L100.335 124.258ZM66.3687 93.4873C64.0862 91.6609 61.3319 90.7608 58.5795 90.7608V108.761C57.3967 108.761 56.1493 108.363 55.1225 107.542L66.3687 93.4873ZM58.5795 90.7608C56.1273 90.7608 53.3312 91.4922 50.9299 93.3884L62.0852 107.515C60.8768 108.469 59.5875 108.761 58.5795 108.761V90.7608ZM51.1067 93.2523C51.319 93.093 48.5669 95.1575 44.389 97.2249C40.0778 99.3583 35.1106 101.06 30.671 101.06V119.06C39.134 119.06 47.0223 116.005 52.3723 113.358C57.8556 110.644 61.5705 107.905 61.9084 107.651L51.1067 93.2523ZM30.671 101.06C29.2297 101.06 28.03 100.89 27.0662 100.616L22.1582 117.934C24.9615 118.729 27.8428 119.06 30.671 119.06V101.06ZM27.0215 100.604C25.4957 100.18 24.0906 100.056 22.8228 100.056V118.056C22.867 118.056 22.8077 118.058 22.6802 118.042C22.5441 118.026 22.3787 117.996 22.2028 117.947L27.0215 100.604ZM22.8228 100.056C20.1708 100.056 17.6722 100.681 15.7219 101.281C13.7343 101.891 11.6203 102.704 9.77479 103.403L16.1559 120.234C18.2031 119.458 19.6993 118.889 21.008 118.487C22.3539 118.073 22.8377 118.056 22.8228 118.056V100.056ZM9.75039 103.413C8.12704 104.033 6.62537 104.602 5.27113 105.046C4.60512 105.265 4.04798 105.43 3.59594 105.544C3.37367 105.6 3.19885 105.638 3.06754 105.664C2.93375 105.689 2.87299 105.696 2.87513 105.696L4.78478 123.594C8.58622 123.189 13.4613 121.265 16.1803 120.225L9.75039 103.413ZM12.7375 115.932C13.4928 110.704 15.5253 98.3105 19.2893 85.2686L1.99518 80.2773C-2.08905 94.4286 -4.26323 107.721 -5.07757 113.358L12.7375 115.932ZM19.2912 85.262C22.4717 74.2104 26.0455 65.5932 29.7602 59.3751C33.5436 53.0422 37.0198 49.9521 39.6463 48.7306L32.0555 32.4094C24.8246 35.7724 19.0084 42.2754 14.3078 50.1435C9.53859 58.1266 5.43674 68.3185 1.99328 80.2839L19.2912 85.262ZM39.6745 48.7174C45.2462 46.1025 50.6966 44.8599 55.8169 44.8599V26.8599C47.7521 26.8599 39.7035 28.8201 32.0272 32.4226L39.6745 48.7174ZM55.8169 23.4058C48.1767 23.4058 39.6615 25.0059 30.5532 29.2358L38.1348 45.5612C44.8486 42.4433 50.7743 41.4058 55.8169 41.4058V23.4058ZM30.5373 29.2432C21.4011 33.5079 14.7898 41.9882 9.9817 50.6602C5.0682 59.5223 1.37594 69.7974 -1.3648 79.3071C-4.12167 88.8726 -6.00672 97.9871 -7.20209 104.686C-7.80144 108.044 -8.23139 110.818 -8.51315 112.766C-8.6541 113.74 -8.75817 114.509 -8.82797 115.043C-8.86288 115.31 -8.88923 115.518 -8.90736 115.663C-8.91643 115.736 -8.92344 115.793 -8.92843 115.834C-8.93093 115.855 -8.93292 115.871 -8.93442 115.884C-8.93517 115.89 -8.93579 115.895 -8.93629 115.9C-8.93654 115.902 -8.93682 115.904 -8.93694 115.905C-8.93719 115.907 -8.93741 115.909 0 116.969C8.93741 118.028 8.93726 118.029 8.93713 118.031C8.93712 118.031 8.93703 118.031 8.93702 118.031C8.93701 118.032 8.93712 118.031 8.93735 118.029C8.93781 118.025 8.93876 118.017 8.94019 118.005C8.94306 117.982 8.94789 117.942 8.95472 117.887C8.96838 117.778 8.99002 117.606 9.01995 117.378C9.07983 116.92 9.17282 116.232 9.30141 115.343C9.55873 113.564 9.95775 110.987 10.518 107.848C11.6418 101.55 13.3983 93.0802 15.9312 84.2919C18.4802 75.4477 21.7258 66.5996 25.724 59.3883C29.8276 51.9869 34.1019 47.4438 38.1508 45.5538L30.5373 29.2432ZM-6.97782 122.653C-3.77321 126.587 0.68636 127.13 3.13931 127.13V109.13C3.14391 109.13 3.24798 109.13 3.42938 109.156C3.61121 109.181 3.90873 109.238 4.28225 109.368C5.08957 109.649 6.12231 110.234 6.97782 111.284L-6.97782 122.653ZM3.13931 127.13C5.83812 127.13 8.4889 126.48 10.5125 125.878C12.6412 125.245 14.8129 124.43 16.649 123.732C18.6184 122.982 20.1589 122.384 21.5103 121.941C23.0694 121.431 23.2893 121.51 22.7914 121.51V103.51C20.1744 103.51 17.5689 104.291 15.9093 104.835C14.0419 105.446 11.9702 106.253 10.2471 106.908C8.39049 107.615 6.78916 108.206 5.37726 108.626C4.68799 108.831 4.1386 108.967 3.71336 109.048C3.27263 109.132 3.10159 109.13 3.13931 109.13V127.13ZM22.7914 121.51C22.6561 121.51 22.4976 121.503 22.3119 121.484C22.1373 121.465 21.8522 121.426 21.487 121.335L25.8537 103.873C24.6968 103.583 23.6132 103.51 22.7914 103.51V121.51ZM21.3216 121.292C24.4695 122.143 27.6183 122.514 30.671 122.514V104.514C29.0776 104.514 27.5174 104.321 26.0191 103.916L21.3216 121.292ZM30.671 122.514C39.8025 122.514 48.2377 119.279 53.9914 116.43C56.9489 114.965 59.395 113.503 61.1175 112.397C61.9821 111.842 62.6737 111.37 63.1661 111.024C63.4126 110.851 63.6099 110.71 63.7548 110.604C63.8273 110.551 63.8868 110.507 63.9328 110.473C63.9558 110.456 63.9754 110.441 63.9917 110.429C63.9998 110.423 64.0071 110.418 64.0135 110.413C64.0167 110.411 64.0197 110.408 64.0225 110.406C64.0239 110.405 64.0258 110.404 64.0265 110.403C64.0284 110.402 64.0302 110.4 58.6109 103.215C53.1915 96.0295 53.1932 96.0282 53.1949 96.027C53.1954 96.0266 53.197 96.0254 53.198 96.0246C53.1999 96.0232 53.2017 96.0219 53.2032 96.0207C53.2063 96.0184 53.2086 96.0166 53.2101 96.0155C53.2131 96.0133 53.213 96.0134 53.2097 96.0158C53.2032 96.0206 53.1842 96.0347 53.1532 96.0573C53.0911 96.1025 52.9811 96.1819 52.8262 96.2906C52.516 96.5083 52.0291 96.8413 51.3904 97.2515C50.106 98.0764 48.2454 99.1892 46.0033 100.299C41.3581 102.6 35.8234 104.514 30.671 104.514V122.514ZM58.6109 103.215C52.9821 110.238 52.9819 110.237 52.9818 110.237C52.9819 110.237 52.9819 110.237 52.9821 110.238C52.9824 110.238 52.9831 110.238 52.9842 110.239C52.9863 110.241 52.9899 110.244 52.9949 110.248C53.0048 110.256 53.0204 110.268 53.0415 110.285C53.0838 110.319 53.148 110.371 53.2331 110.439C53.4032 110.577 53.6565 110.781 53.9835 111.046C54.6376 111.577 55.5857 112.349 56.7511 113.308C59.0844 115.228 62.2776 117.887 65.7228 120.847C72.8062 126.933 80.3158 133.753 83.9672 138.089L97.7359 126.495C93.0054 120.877 84.3946 113.159 77.4532 107.194C73.8859 104.129 70.5906 101.386 68.1884 99.4089C66.9861 98.4196 66.0047 97.62 65.3213 97.0658C64.9795 96.7887 64.7121 96.5727 64.5286 96.4248C64.4369 96.3509 64.3662 96.294 64.3176 96.2549C64.2933 96.2354 64.2746 96.2204 64.2615 96.2099C64.255 96.2047 64.2499 96.2006 64.2462 96.1976C64.2444 96.1962 64.2429 96.195 64.2418 96.1941C64.2413 96.1937 64.2407 96.1932 64.2404 96.193C64.24 96.1926 64.2396 96.1923 58.6109 103.215ZM83.9535 138.073C87.8887 142.769 94.1336 144.579 98.7607 145.465C103.907 146.451 109.768 146.756 115.307 146.756V128.756C110.266 128.756 105.689 128.465 102.147 127.786C98.0862 127.008 97.3931 126.086 97.7496 126.512L83.9535 138.073ZM115.307 146.756C122.768 146.756 130.275 146.185 135.85 145.628C138.654 145.348 141.006 145.067 142.665 144.855C143.495 144.75 144.153 144.661 144.611 144.597C144.839 144.566 145.018 144.54 145.142 144.522C145.204 144.513 145.253 144.506 145.288 144.501C145.305 144.499 145.319 144.497 145.33 144.495C145.335 144.494 145.339 144.494 145.342 144.493C145.344 144.493 145.346 144.493 145.347 144.493C145.348 144.493 145.348 144.492 145.349 144.492C145.349 144.492 145.35 144.492 144.031 135.589C142.713 126.686 142.713 126.686 142.714 126.686C142.714 126.686 142.714 126.686 142.715 126.686C142.715 126.686 142.715 126.686 142.715 126.686C142.715 126.686 142.714 126.686 142.712 126.687C142.708 126.687 142.701 126.688 142.69 126.69C142.669 126.693 142.634 126.698 142.585 126.705C142.489 126.719 142.339 126.74 142.14 126.768C141.742 126.823 141.148 126.903 140.386 127C138.862 127.195 136.675 127.456 134.06 127.717C128.797 128.243 121.941 128.756 115.307 128.756V146.756ZM148.085 127.554C144.667 125.83 143.061 123.389 142.282 119.358C141.383 114.699 141.789 108.721 142.665 100.995C143.481 93.8055 144.713 85.0625 144.486 76.8581C144.254 68.4939 142.517 59.3926 136.453 51.6591L122.288 62.7659C125.015 66.2426 126.315 70.9342 126.492 77.3559C126.675 83.9374 125.687 90.9734 124.78 98.966C123.934 106.423 123.114 115.03 124.609 122.771C126.225 131.139 130.634 138.912 139.978 143.625L148.085 127.554ZM136.451 51.6565C125.259 37.3945 109.432 34.1449 97.6011 34.1449V52.1449C106.489 52.1449 115.839 54.5475 122.291 62.7686L136.451 51.6565ZM97.6011 34.1449C95.4912 34.1449 93.8867 34.4965 92.8056 34.7625C91.684 35.0386 91.741 35.031 91.6042 35.0447L93.3958 52.9553C95.1426 52.7806 96.6827 52.3455 97.107 52.241C97.5719 52.1266 97.5762 52.1449 97.6011 52.1449V34.1449ZM84.7826 48.6305L86.2826 51.1305L101.717 41.8695L100.217 39.3695L84.7826 48.6305ZM92.1651 55.311L109.83 58.9897L113.5 41.3677L95.8349 37.689L92.1651 55.311ZM104.239 45.0936L78.7796 82.2724L93.6311 92.4426L119.091 55.2638L104.239 45.0936ZM86.2054 96.3575H99.1707V78.3575H86.2054V96.3575ZM93.9806 80.0047L74.1402 94.0095L84.5204 108.715L104.361 94.7102L93.9806 80.0047ZM87.7797 98.2627L79.2094 74.9004L62.3106 81.0996L70.8809 104.462L87.7797 98.2627ZM66.542 85.9504L75.8343 90.8803L84.2703 74.9795L74.978 70.0496L66.542 85.9504ZM87.8839 87.3647L101.54 63.2487L85.8768 54.3793L72.2208 78.4952L87.8839 87.3647ZM93.0501 49.8381L71.64 51.4081L72.9565 69.3599L94.3665 67.7899L93.0501 49.8381ZM80.4434 64.2124L90.0811 43.7076L73.7908 36.0508L64.1531 56.5556L80.4434 64.2124ZM86.0338 31.8662C82.0981 29.8535 71.0434 23.4058 55.8169 23.4058V41.4058C66.0816 41.4058 73.4231 45.6343 77.838 47.8921L86.0338 31.8662Z" fill="#FFBEBE" mask="url(#path-1-inside-1)"/>
<mask id="path-3-inside-2" fill="white">
<path d="M53.8006 182C47.4278 182 42.7189 179.833 40.0818 175.657C28.2153 156.879 24.1656 118.633 24.0086 117C23.9144 116.058 24.6051 115.21 25.5469 115.116C26.4886 115.022 27.3363 115.713 27.4304 116.655C27.4618 117.031 31.5743 155.717 43.0014 173.804C45.2617 177.384 49.5626 178.923 55.8412 178.452C76.8745 176.85 109.523 153.99 115.739 139.671C116.116 138.792 117.152 138.384 117.999 138.792C118.878 139.169 119.287 140.205 118.878 141.053C115.519 148.715 105.788 158.386 92.8536 166.896C79.7313 175.531 65.9811 181.121 56.0609 181.874C55.3389 181.969 54.5541 182 53.8006 182Z"/>
</mask>
<path d="M53.8006 182C47.4278 182 42.7189 179.833 40.0818 175.657C28.2153 156.879 24.1656 118.633 24.0086 117C23.9144 116.058 24.6051 115.21 25.5469 115.116C26.4886 115.022 27.3363 115.713 27.4304 116.655C27.4618 117.031 31.5743 155.717 43.0014 173.804C45.2617 177.384 49.5626 178.923 55.8412 178.452C76.8745 176.85 109.523 153.99 115.739 139.671C116.116 138.792 117.152 138.384 117.999 138.792C118.878 139.169 119.287 140.205 118.878 141.053C115.519 148.715 105.788 158.386 92.8536 166.896C79.7313 175.531 65.9811 181.121 56.0609 181.874C55.3389 181.969 54.5541 182 53.8006 182Z" fill="#FFBEBE"/>
<path d="M40.0818 175.657L47.6918 170.852L47.69 170.849L40.0818 175.657ZM24.0086 117L32.9673 116.139L32.9657 116.122L32.964 116.105L24.0086 117ZM27.4304 116.655L36.3994 115.907L36.3932 115.833L36.3858 115.759L27.4304 116.655ZM43.0014 173.804L50.6113 168.999L50.6101 168.997L43.0014 173.804ZM55.8412 178.452L56.5144 187.426L56.5244 187.426L55.8412 178.452ZM115.739 139.671L123.995 143.255L124.003 143.236L124.012 143.216L115.739 139.671ZM117.999 138.792L114.094 146.901L114.272 146.986L114.453 147.064L117.999 138.792ZM118.878 141.053L110.769 137.15L110.7 137.293L110.636 137.439L118.878 141.053ZM92.8536 166.896L87.9069 159.377L87.9062 159.378L92.8536 166.896ZM56.0609 181.874L55.3792 172.9L55.1372 172.919L54.8966 172.95L56.0609 181.874ZM53.8006 173C49.4786 173 48.1932 171.646 47.6918 170.852L32.4719 180.462C37.2445 188.021 45.377 191 53.8006 191V173ZM47.69 170.849C42.6896 162.936 38.9593 150.075 36.4661 138.069C34.036 126.367 33.0248 116.737 32.9673 116.139L15.0499 117.861C15.1493 118.895 16.2415 129.205 18.8421 141.729C21.3796 153.949 25.6075 169.6 32.4737 180.465L47.69 170.849ZM32.964 116.105C33.3619 120.085 30.4697 123.668 26.4426 124.071L24.6511 106.161C18.7404 106.752 14.4669 112.031 15.0532 117.895L32.964 116.105ZM26.4426 124.071C22.4575 124.47 18.8773 121.573 18.4751 117.55L36.3858 115.759C35.7952 109.852 30.5198 105.574 24.6511 106.161L26.4426 124.071ZM18.4615 117.402C18.5066 117.943 19.5932 128.064 22.1266 140.399C24.5978 152.431 28.7276 168.062 35.3927 178.611L50.6101 168.997C45.8481 161.46 42.2081 148.704 39.7585 136.777C37.371 125.153 36.3856 115.743 36.3994 115.907L18.4615 117.402ZM35.3915 178.609C40.2346 186.28 48.7547 188.009 56.5144 187.426L55.1679 169.477C52.8342 169.652 51.551 169.391 50.9696 169.181C50.8351 169.133 50.7474 169.091 50.6961 169.063C50.6456 169.035 50.6238 169.018 50.6207 169.016C50.6182 169.014 50.6222 169.017 50.6271 169.023C50.632 169.028 50.6263 169.023 50.6113 168.999L35.3915 178.609ZM56.5244 187.426C69.3209 186.451 84.2901 179.344 96.3358 171.321C102.513 167.207 108.289 162.609 113.018 157.972C117.61 153.467 121.764 148.393 123.995 143.255L107.483 136.088C106.606 138.109 104.348 141.262 100.414 145.121C96.6147 148.847 91.7492 152.749 86.3577 156.34C75.2667 163.727 63.3948 168.85 55.1579 169.478L56.5244 187.426ZM124.012 143.216C122.464 146.827 118.079 148.82 114.094 146.901L121.905 130.684C116.225 127.948 109.767 130.757 107.467 136.127L124.012 143.216ZM114.453 147.064C110.84 145.515 108.853 141.13 110.769 137.15L126.988 144.957C129.72 139.28 126.916 132.823 121.545 130.52L114.453 147.064ZM110.636 137.439C108.35 142.653 100.44 151.131 87.9069 159.377L97.8003 174.415C111.135 165.642 122.689 154.777 127.121 144.667L110.636 137.439ZM87.9062 159.378C75.3975 167.609 63.1453 172.31 55.3792 172.9L56.7427 190.848C68.817 189.931 84.0651 183.453 97.801 174.414L87.9062 159.378ZM54.8966 172.95C54.7035 172.975 54.3419 173 53.8006 173V191C54.7662 191 55.9742 190.962 57.2253 190.799L54.8966 172.95Z" fill="#FFBEBE" mask="url(#path-3-inside-2)"/>
<mask id="path-5-inside-3" fill="white">
<path d="M40.8954 159.122C40.3552 159.04 39.8341 158.832 39.422 158.513C38.4321 157.753 38.4141 156.659 39.3837 156.036C39.6919 155.826 47.2713 151.103 62.4633 156.299C63.7307 156.748 64.3981 157.812 63.8998 158.667C63.4015 159.523 61.9652 159.882 60.6978 159.433C48.5262 155.274 42.9857 158.701 42.9312 158.757C42.4143 159.128 41.6607 159.238 40.8954 159.122Z"/>
</mask>
<path d="M40.8954 159.122C40.3552 159.04 39.8341 158.832 39.422 158.513C38.4321 157.753 38.4141 156.659 39.3837 156.036C39.6919 155.826 47.2713 151.103 62.4633 156.299C63.7307 156.748 64.3981 157.812 63.8998 158.667C63.4015 159.523 61.9652 159.882 60.6978 159.433C48.5262 155.274 42.9857 158.701 42.9312 158.757C42.4143 159.128 41.6607 159.238 40.8954 159.122Z" fill="#FFBEBE"/>
<path d="M39.422 158.513L44.9352 151.399L44.9194 151.387L44.9036 151.375L39.422 158.513ZM39.3837 156.036L44.249 163.607L44.3508 163.542L44.4508 163.474L39.3837 156.036ZM62.4633 156.299L65.4702 147.816L65.423 147.799L65.3757 147.783L62.4633 156.299ZM60.6978 159.433L63.7047 150.95L63.6565 150.933L63.6081 150.917L60.6978 159.433ZM42.9312 158.757L48.178 166.069L48.8208 165.608L49.3733 165.042L42.9312 158.757ZM42.2467 150.224C43.0146 150.341 43.9782 150.658 44.9352 151.399L33.9088 165.627C35.6899 167.007 37.6958 167.739 39.5442 168.02L42.2467 150.224ZM44.9036 151.375C45.9734 152.196 47.6197 154.09 47.6669 157.081C47.7176 160.29 45.8923 162.551 44.249 163.607L34.5185 148.464C31.9055 150.143 29.6044 153.263 29.6692 157.365C29.7305 161.249 31.8807 164.069 33.9405 165.651L44.9036 151.375ZM44.4508 163.474C42.5314 164.781 47.1682 160.58 59.5509 164.815L65.3757 147.783C47.3743 141.627 36.8524 146.87 34.3166 148.598L44.4508 163.474ZM59.4565 164.782C58.5627 164.465 57.1935 163.704 56.1701 162.034C55.0274 160.169 54.4132 157.071 56.1237 154.136L71.6759 163.199C73.8846 159.408 73.1859 155.351 71.5173 152.628C69.9678 150.1 67.6313 148.582 65.4702 147.816L59.4565 164.782ZM56.1237 154.136C57.4794 151.81 59.4945 151.029 60.4655 150.793C61.5703 150.525 62.6769 150.586 63.7047 150.95L57.691 167.916C59.9861 168.729 62.4446 168.835 64.7089 168.286C66.8395 167.769 69.8219 166.38 71.6759 163.199L56.1237 154.136ZM63.6081 150.917C56.3832 148.448 50.5999 148.059 46.2154 148.576C44.0413 148.833 42.274 149.306 40.9079 149.809C40.2283 150.059 39.6464 150.318 39.1611 150.562C38.9208 150.683 38.6895 150.808 38.4703 150.936C38.3647 150.998 38.2338 151.077 38.0892 151.169C38.022 151.213 37.9083 151.287 37.7719 151.382C37.7067 151.428 37.5893 151.511 37.4469 151.621C37.4074 151.651 36.9687 151.981 36.4891 152.472L49.3733 165.042C48.8945 165.533 48.4574 165.861 48.42 165.889C48.2798 165.997 48.1653 166.079 48.1036 166.122C47.9743 166.212 47.8704 166.28 47.8156 166.315C47.696 166.392 47.6007 166.449 47.5417 166.483C47.4156 166.557 47.3208 166.607 47.261 166.637C47.1367 166.699 47.0916 166.713 47.1294 166.699C47.1978 166.674 47.5865 166.54 48.3258 166.452C49.7681 166.282 52.8408 166.259 57.7876 167.949L63.6081 150.917ZM37.6844 151.445C38.7561 150.676 39.7909 150.37 40.4953 150.25C41.211 150.128 41.8057 150.157 42.2467 150.224L39.5442 168.02C41.7013 168.348 45.105 168.274 48.178 166.069L37.6844 151.445Z" fill="#FFBEBE" mask="url(#path-5-inside-3)"/>
<mask id="path-7-inside-4" fill="white">
<path d="M94.6089 46.1557C94.2636 46.1557 93.8868 46.0615 93.6043 45.8103C92.8195 45.2451 91.4349 44.285 92 43.5L118.091 9.2596L97.7168 3.76444L81.2982 41.3514C80.9215 42.2306 79.8855 42.6388 79.0379 42.2306C78.1589 41.8538 77.7508 40.8176 78.1589 39.9697L95.174 1.03255C95.5193 0.247527 96.3669 -0.160685 97.2145 0.0591217L121.387 6.59052C121.921 6.74753 122.392 7.15574 122.58 7.68956C122.768 8.22337 122.674 8.81999 122.36 9.29101L96.0216 45.4335C95.6448 45.9045 95.1426 46.1557 94.6089 46.1557Z"/>
</mask>
<path d="M94.6089 46.1557C94.2636 46.1557 93.8868 46.0615 93.6043 45.8103C92.8195 45.2451 91.4349 44.285 92 43.5L118.091 9.2596L97.7168 3.76444L81.2982 41.3514C80.9215 42.2306 79.8855 42.6388 79.0379 42.2306C78.1589 41.8538 77.7508 40.8176 78.1589 39.9697L95.174 1.03255C95.5193 0.247527 96.3669 -0.160685 97.2145 0.0591217L121.387 6.59052C121.921 6.74753 122.392 7.15574 122.58 7.68956C122.768 8.22337 122.674 8.81999 122.36 9.29101L96.0216 45.4335C95.6448 45.9045 95.1426 46.1557 94.6089 46.1557Z" fill="#FFBEBE"/>
<path d="M93.6043 45.8103L99.5844 39.0844L99.239 38.7773L98.8639 38.5071L93.6043 45.8103ZM92 43.5L84.8414 38.0452L84.7671 38.1427L84.6956 38.2421L92 43.5ZM118.091 9.2596L125.249 14.7144L133.369 4.05871L120.435 0.570115L118.091 9.2596ZM97.7168 3.76444L100.06 -4.92505L92.5734 -6.94441L89.4693 0.161805L97.7168 3.76444ZM81.2982 41.3514L73.0507 37.7488L73.0381 37.7778L73.0256 37.8069L81.2982 41.3514ZM79.0379 42.2306L82.9431 34.122L82.7653 34.0364L82.584 33.9586L79.0379 42.2306ZM78.1589 39.9697L86.2683 43.8733L86.3398 43.7247L86.4059 43.5736L78.1589 39.9697ZM95.174 1.03255L86.9358 -2.59133L86.9314 -2.5813L86.927 -2.57126L95.174 1.03255ZM97.2145 0.0591217L99.5621 -8.62931L99.518 -8.64123L99.4737 -8.65271L97.2145 0.0591217ZM121.387 6.59052L123.927 -2.04359L123.831 -2.07182L123.735 -2.09791L121.387 6.59052ZM122.36 9.29101L129.634 14.5916L129.745 14.4393L129.849 14.2824L122.36 9.29101ZM96.0216 45.4335L103.05 51.0549L103.176 50.8972L103.295 50.7341L96.0216 45.4335ZM94.6089 37.1557C95.7076 37.1557 97.728 37.4338 99.5844 39.0844L87.6242 52.5363C90.0457 54.6892 92.8195 55.1557 94.6089 55.1557V37.1557ZM98.8639 38.5071C98.1965 38.0265 98.5445 38.2339 98.9394 38.666C99.1378 38.8831 100.023 39.8588 100.524 41.533C100.803 42.4631 100.983 43.6848 100.783 45.0783C100.579 46.5028 100.027 47.7539 99.3044 48.7579L84.6956 38.2421C82.738 40.9616 82.5117 44.126 83.2796 46.6924C83.9057 48.7851 85.0804 50.1833 85.6524 50.8091C86.7946 52.0589 88.2273 53.0289 88.3447 53.1135L98.8639 38.5071ZM99.1586 48.9548L125.249 14.7144L110.932 3.80482L84.8414 38.0452L99.1586 48.9548ZM120.435 0.570115L100.06 -4.92505L95.3731 12.4539L115.747 17.9491L120.435 0.570115ZM89.4693 0.161805L73.0507 37.7488L89.5457 44.954L105.964 7.36707L89.4693 0.161805ZM73.0256 37.8069C74.5729 34.1955 78.9585 32.203 82.9431 34.122L75.1328 50.3392C80.8126 53.0747 87.2701 50.2657 89.5709 44.8959L73.0256 37.8069ZM82.584 33.9586C86.1969 35.5074 88.1845 39.8925 86.2683 43.8733L70.0495 36.0662C67.3171 41.7427 70.1209 48.2002 75.4919 50.5026L82.584 33.9586ZM86.4059 43.5736L103.421 4.63637L86.927 -2.57126L69.9119 36.3659L86.4059 43.5736ZM103.412 4.65643C101.947 7.9861 98.3028 9.63904 94.9553 8.77096L99.4737 -8.65271C94.431 -9.96041 89.0911 -7.49105 86.9358 -2.59133L103.412 4.65643ZM94.8669 8.74755L119.04 15.279L123.735 -2.09791L99.5621 -8.62931L94.8669 8.74755ZM118.847 15.2246C116.909 14.6545 114.966 13.1593 114.093 10.6843L131.067 4.69485C129.817 1.15213 126.933 -1.15944 123.927 -2.04359L118.847 15.2246ZM114.093 10.6843C113.262 8.32943 113.747 5.98619 114.871 4.29957L129.849 14.2824C131.601 11.6538 132.275 8.11731 131.067 4.69485L114.093 10.6843ZM115.087 3.99045L88.748 40.133L103.295 50.7341L129.634 14.5916L115.087 3.99045ZM88.9931 39.8121C90.1354 38.3838 92.1194 37.1557 94.6089 37.1557V55.1557C98.1657 55.1557 101.154 53.4253 103.05 51.0549L88.9931 39.8121Z" fill="#FFBEBE" mask="url(#path-7-inside-4)"/>
<circle cx="63" cy="129" r="5" fill="#FFBEBE"/>
<circle cx="36" cy="129" r="5" fill="#FFBEBE"/>
</svg>
