<svg width="154" height="156" viewBox="0 0 154 156" fill="none" xmlns="http://www.w3.org/2000/svg">
<rect x="0.914062" y="0.399414" width="152.632" height="155.391" rx="76.316" fill="#161616"/>
<path d="M55.24 49.9151C51.045 60.7586 33.7904 100.333 32.6032 101.996C31.7325 103.104 29.9121 104.37 28.4082 104.845C26.9044 105.32 25.638 106.349 25.4797 107.061C25.2422 108.169 26.4295 108.328 35.9274 108.328C44.7131 108.328 46.6918 108.09 46.6918 107.219C46.6918 106.111 46.0586 105.795 41.7845 104.845C35.3734 103.42 41.7054 92.7351 52.1531 87.4321C56.5855 85.1367 65.9252 82.6039 67.5082 83.2371C68.0622 83.4746 70.1201 87.1155 71.9405 91.3895C73.8401 95.7428 76.2146 100.413 77.3227 101.758C82.784 109.119 96.9518 111.81 107.795 107.615C111.357 106.27 116.027 101.442 118.006 97.0092C119.668 93.21 119.826 91.5478 120.222 73.0268C120.776 51.0232 120.697 51.1024 125.921 49.7568C127.741 49.2819 129.007 48.4113 129.007 47.7781C129.007 46.7491 127.108 46.5908 117.531 46.5908C107.954 46.5908 106.054 46.7491 106.054 47.7781C106.054 48.4113 107.004 49.1236 108.27 49.3611C116.343 51.0232 116.581 51.8147 116.106 73.8975C115.948 84.1869 115.394 91.7061 114.761 93.6849C112.149 102.075 102.176 106.349 92.282 103.42C86.1083 101.521 84.367 98.8296 72.4154 71.6813C61.4136 46.7491 61.3345 46.67 58.96 46.5908C56.823 46.5908 56.3481 46.9866 55.24 49.9151ZM62.0468 69.1485L66.3209 78.6464L60.7013 79.992C57.5353 80.7835 52.628 82.6039 49.6203 84.1078C46.6918 85.6116 44.4756 86.5614 44.6339 86.324C44.7922 86.0074 47.4833 79.5962 50.6493 72.077C53.8944 64.5578 56.7438 58.7007 57.0604 59.0173C57.4562 59.4131 59.6723 63.9246 62.0468 69.1485Z" fill="white"/>
<path d="M66.005 47.8574C66.2424 48.5697 66.4799 49.2821 66.4799 49.4404C66.4799 49.5987 67.1131 49.757 67.9046 49.757C70.5956 49.757 72.0203 52.2898 72.0203 56.9596C72.0203 60.363 72.8118 63.0541 76.1361 70.6525L80.3311 80.0713L80.5685 66.2993C80.7268 54.9809 80.9643 52.3689 82.0723 51.1817C82.7847 50.3902 83.9719 49.757 84.7634 49.757C86.9796 49.757 88.6418 48.8863 88.6418 47.6991C88.6418 46.8284 86.4256 46.591 77.0859 46.591C66.8756 46.591 65.6092 46.7493 66.005 47.8574Z" fill="white"/>
</svg>
