<svg width="12" height="24" viewBox="0 0 12 24" fill="none" xmlns="http://www.w3.org/2000/svg">
<path d="M9.30873 19.5326L9.97632 18.4702C9.97632 18.4702 8.46106 19.0476 5.93063 19.0476C3.39549 19.0476 1.9046 18.493 1.9046 18.493L2.65004 19.6514L2.91189 23.2964C2.91189 23.6948 4.28719 24 5.99118 24C7.69045 24 9.07125 23.6948 9.07125 23.2964L9.30794 19.548L9.30873 19.5326ZM9.95273 12.6389C9.14989 12.6851 8.74414 13.5215 8.33839 14.4034C8.19135 14.7255 7.68023 16.1048 7.34761 15.9324C7.01184 15.7644 7.77773 14.6331 7.99476 13.9603C7.74549 14.1283 6.83649 14.7901 6.60216 14.1708C6.22551 14.4768 5.41873 14.6411 5.50837 13.8458C5.30786 14.1862 4.85729 14.6521 4.31707 14.4496C3.60859 14.1972 4.7299 12.0879 5.00905 12.1921C5.28662 12.3102 4.95165 12.7798 4.86515 12.9676C4.66778 13.3807 4.44761 13.9074 4.59465 14.0065C4.84864 14.1972 5.54454 13.3227 5.56106 13.3029C5.68766 13.1422 6.06116 12.1033 6.35997 12.2222C6.65878 12.352 5.61453 13.7314 6.00376 14.0065C6.08161 14.0681 6.40558 13.9801 6.60138 13.7739C6.72404 13.6595 6.68315 13.3653 7.10148 12.4291C7.52689 11.4892 7.90355 10.3197 8.19056 10.407C8.48072 10.4951 8.24403 11.096 8.13709 11.3285C7.64956 12.3828 6.80976 14.1107 7.20292 13.9808C7.59609 13.8465 7.80132 13.8465 8.19449 13.4232C8.58766 12.9984 8.55542 12.2955 8.82041 12.3109C9.07519 12.3256 9.04137 12.5597 8.98083 12.7196C9.23009 12.4555 10.1847 11.8715 10.4057 12.4408C10.6762 13.1129 9.04137 14.0989 9.44712 14.0373C9.84029 13.9955 10.4827 13.614 10.7705 13.2618L11.5246 6.90297C11.5246 6.90297 10.754 7.49212 5.90075 7.49212C1.05143 7.49212 0.359451 6.91911 0.359451 6.91911L1.00189 12.7203C1.35023 11.8142 2.16566 9.9683 3.43952 10.0409C4.02063 10.0725 4.80224 11.1268 4.12757 11.1532C3.84449 11.1686 3.81225 10.6257 3.48513 10.5538C3.23429 10.512 2.90324 10.688 2.68622 10.8942C2.26081 11.2875 1.31799 12.8539 1.44459 13.633C1.60107 14.6272 2.91897 13.2934 3.13993 12.8994C3.29641 12.6206 3.4065 11.7842 3.7344 11.8722C4.08275 11.9595 3.70531 12.8267 3.45132 13.5722C3.16902 14.424 3.02591 15.3146 2.68622 15.2119C2.33787 15.1085 2.90324 14.0116 2.871 13.8209C2.5431 14.1151 1.94549 14.8179 1.16309 14.4665L1.55232 18.085C1.55232 18.085 2.62095 18.8605 5.82369 18.8605C9.02643 18.8605 10.1399 18.085 10.1399 18.085L10.6439 13.8935C10.2342 14.2758 8.9478 14.9324 8.86995 14.1877C8.8094 13.5868 10.2665 12.724 9.88983 12.7049L9.95273 12.6389ZM11.6072 1.1751L8.81805 3.91541L8.30536 5.77603C10.2799 5.89049 11.652 6.15461 11.652 6.45175C11.652 6.86482 9.12079 7.19351 5.99983 7.19351C2.87887 7.19351 0.347656 6.85821 0.347656 6.44882C0.347656 6.04016 2.87887 5.69973 5.99983 5.69973C6.44254 5.69973 6.88446 5.69973 7.32716 5.71514L7.9122 3.49061L10.8727 0.559544C10.9474 0.471502 11.1684 0.544137 11.3729 0.705547C11.5734 0.854485 11.6842 1.04084 11.6221 1.12888V1.15896L11.6072 1.1751ZM7.58508 6.84574C7.58508 6.84574 7.03543 6.84574 6.94579 6.76577C6.92212 6.74176 6.90893 6.71035 6.90883 6.67773C6.90883 6.61977 6.94972 6.58969 7.00319 6.57134L7.04801 6.64398C7.02678 6.65205 7.01971 6.65865 7.01577 6.66672C7.01577 6.70854 7.34289 6.73642 7.59688 6.73202C7.84772 6.72835 8.15439 6.70854 8.15439 6.67039C8.15439 6.65865 8.12922 6.64765 8.08834 6.63591L8.13787 6.56768C8.20393 6.58602 8.26054 6.62417 8.26054 6.6858C8.26054 6.79218 8.1135 6.81199 8.01914 6.823C7.90827 6.83841 7.58901 6.84648 7.58901 6.84648L7.58508 6.84574Z" fill="url(#paint0_linear_17_110)"/>
<defs>
<linearGradient id="paint0_linear_17_110" x1="0.347656" y1="12.2609" x2="11.652" y2="12.2609" gradientUnits="userSpaceOnUse">
<stop stop-color="#1FA2FF"/>
<stop offset="0.5" stop-color="#12D8FA"/>
<stop offset="1" stop-color="#A6FFCB"/>
</linearGradient>
</defs>
</svg>
