<svg width="18" height="18" viewBox="0 0 18 18" fill="none" xmlns="http://www.w3.org/2000/svg">
<path d="M15.625 0.25H1.875C0.839844 0.25 0 1.08984 0 2.125V15.875C0 16.9102 0.839844 17.75 1.875 17.75H15.625C16.6602 17.75 17.5 16.9102 17.5 15.875V2.125C17.5 1.08984 16.6602 0.25 15.625 0.25ZM9.52344 13.8984C9.52344 15.6016 8.52344 16.3789 7.06641 16.3789C5.75 16.3789 4.98828 15.6992 4.59766 14.875L5.9375 14.0664C6.19531 14.5234 6.42969 14.9102 6.99609 14.9102C7.53516 14.9102 7.87891 14.6992 7.87891 13.875V8.28516H9.52344V13.8984ZM13.4141 16.3789C11.8867 16.3789 10.8984 15.6523 10.418 14.6992L11.7578 13.9258C12.1094 14.5 12.5703 14.9258 13.3789 14.9258C14.0586 14.9258 14.4961 14.5859 14.4961 14.1133C14.4961 13.5508 14.0508 13.3516 13.2969 13.0195L12.8867 12.8438C11.6992 12.3398 10.9141 11.7031 10.9141 10.3633C10.9141 9.12891 11.8555 8.19141 13.3203 8.19141C14.3672 8.19141 15.1172 8.55469 15.6562 9.50781L14.375 10.3281C14.0938 9.82422 13.7891 9.625 13.3164 9.625C12.8359 9.625 12.5312 9.92969 12.5312 10.3281C12.5312 10.8203 12.8359 11.0195 13.543 11.3281L13.9531 11.5039C15.3516 12.1016 16.1367 12.7148 16.1367 14.0898C16.1367 15.5664 14.9727 16.3789 13.4141 16.3789Z" fill="url(#paint0_linear_17_104)"/>
<defs>
<linearGradient id="paint0_linear_17_104" x1="0" y1="9" x2="17.5" y2="9" gradientUnits="userSpaceOnUse">
<stop stop-color="#1FA2FF"/>
<stop offset="0.5" stop-color="#12D8FA"/>
<stop offset="1" stop-color="#A6FFCB"/>
</linearGradient>
</defs>
</svg>
