<svg width="16" height="16" viewBox="0 0 16 16" fill="none" xmlns="http://www.w3.org/2000/svg">
<path d="M3.13702 0.0039978C1.41355 0.0039978 0.00299072 1.41453 0.00299072 3.13803V12.8635C0.00299072 14.587 1.41352 15.997 3.13702 15.997H12.8625C14.586 15.997 15.996 14.587 15.996 12.8635V3.13803C15.996 1.41456 14.586 0.0039978 12.8625 0.0039978H3.13702ZM3.92528 2.64317C4.75165 2.64317 5.26065 3.18566 5.27637 3.89877C5.27637 4.59613 4.75162 5.15387 3.90929 5.15387H3.89379C3.08315 5.15387 2.5592 4.59616 2.5592 3.89877C2.5592 3.18568 3.09901 2.64317 3.92526 2.64317H3.92528ZM11.0466 5.97613C12.6358 5.97613 13.8272 7.01488 13.8272 9.2471V13.4143H11.412V9.52649C11.412 8.54953 11.0624 7.88301 10.1883 7.88301C9.52107 7.88301 9.12334 8.33225 8.94872 8.76624C8.88493 8.9215 8.86925 9.13835 8.86925 9.35555V13.4143H6.454C6.454 13.4143 6.48569 6.82848 6.454 6.14656H8.86974V7.17574C9.1907 6.68054 9.76481 5.97611 11.0466 5.97611V5.97613ZM2.70166 6.14709H5.11691V13.4143H2.70166V6.14709Z" fill="white"/>
</svg>
