<svg width="96" height="58" viewBox="0 0 96 58" fill="none" xmlns="http://www.w3.org/2000/svg">
<path fill-rule="evenodd" clip-rule="evenodd" d="M77.6507 43.4627C78.7666 43.0872 79.8316 42.6013 80.8254 42.1038C83.8807 40.5739 86.7369 38.3362 88.6122 35.9044C94.422 28.3698 91.2478 23.545 91.6968 21.8752C92.0163 20.6884 92.4274 19.6298 92.6837 18.3317C93.6697 13.3389 92.9224 7.62514 87.417 5.92134C85.6101 5.36199 81.2914 5.17444 79.5613 5.95433C80.6842 6.57392 82.6752 5.72928 84.8309 7.72931C89.2525 11.8323 86.6557 19.1216 84.4798 23.5095C82.8933 26.7085 80.9685 29.6298 78.9972 32.0107L75.7787 35.6781C74.5223 37.1162 72.9502 38.6741 71.369 39.9375C69.0725 41.7724 67.283 43.4943 64.3629 45.1342C59.1929 48.0372 48.4056 53.3863 44.2899 46.2708C42.2767 42.7898 43.8101 38.3792 44.789 35.0997C42.917 37.7164 40.339 44.9372 40.5959 49.2194C40.9388 54.9398 44.4155 57.8349 50.3656 57.7185C59.8794 57.5321 70.0489 49.5221 74.8878 45.4163C76.1537 44.3422 75.6705 44.1288 77.6507 43.4628V43.4627Z" fill="#CF2D21"/>
<path fill-rule="evenodd" clip-rule="evenodd" d="M61.8564 11.6204L65.603 9.17998C72.2776 5.16936 82.2724 0.851822 89.9982 4.3406C91.3879 4.96826 92.809 5.99593 93.5549 7.08151C95.3363 9.67444 94.8531 11.0386 95.2755 11.7407C95.9836 10.4679 96.1865 7.10574 95.825 5.59688C95.3201 3.49007 94.2229 2.2691 92.7122 1.42897C86.2983 -2.13852 75.9801 1.6721 70.1267 5.23288C68.6223 6.14816 67.1714 7.20896 65.8359 8.22418L61.8564 11.6203V11.6204Z" fill="#CF2D21"/>
<path fill-rule="evenodd" clip-rule="evenodd" d="M0 44.6789L9.58298 44.7289L18.1554 25.0758C19.9797 28.8229 23.2933 41.7483 25.1937 43.8948C26.5366 45.4115 29.8697 45.6564 32.1182 44.6113C34.4116 43.5456 38.1402 37.5485 39.7456 35.1044L46.956 25.1085L48.6333 44.654C49.7678 44.8509 58.223 44.7698 60.4193 44.7396C61.8474 44.72 62.2555 44.2105 63.2408 43.6272C65.609 42.2255 68.04 40.332 70.0695 38.6313L72.1311 36.5513L57.5853 36.5706C57.3191 35.7662 55.6577 21.5928 55.9289 21.3639C56.2742 21.0729 68.8197 21.2574 70.2579 21.2574C75.4259 21.2574 79.5514 21.325 81.4378 25.0461C82.8129 24.0948 84.9924 17.862 85.5636 15.602C83.0582 13.6879 78.0727 13.0384 74.3947 13.036C70.179 13.0333 64.4611 12.7127 60.4268 13.0813C60.2375 13.3406 55.9085 18.1218 55.4283 18.2127C55.209 16.1078 54.8792 14.6708 53.6839 13.6543C51.1965 11.5391 47.0777 12.5811 44.9078 15.4669L32.6328 32.3298C32.1796 32.9491 31.7032 33.6475 31.178 34.1982C30.6496 33.3422 26.1485 20.9831 25.3665 18.9232C24.3439 16.2301 23.6685 13.4905 20.9372 12.7138C14.3501 10.8409 11.9539 19.3825 10.2029 22.9156C9.02607 25.2902 7.9665 27.7241 6.78856 30.1203C5.6324 32.4712 4.54009 34.8825 3.39353 37.3566L0.000137001 44.6788L0 44.6789Z" fill="#262626"/>
<path d="M3.15924 55.2497H0.166992V49.4391H0.806104V54.6646H3.15924V55.2497ZM4.25374 52.4137C4.25374 51.4814 4.50802 50.736 5.01479 50.1779C5.52293 49.6198 6.20807 49.3419 7.0731 49.3419C7.87483 49.3419 8.52024 49.6146 9.01044 50.1589C9.50063 50.7043 9.74558 51.4071 9.74558 52.2677C9.74558 53.1947 9.49802 53.9411 9.00263 54.5032C8.50874 55.0653 7.83236 55.3472 6.97514 55.3472C6.15519 55.3472 5.49703 55.0731 4.99917 54.5262C4.50268 53.9782 4.25347 53.2741 4.25347 52.4137H4.25374ZM4.92615 52.3534C4.92615 53.0511 5.11233 53.6286 5.48333 54.0845C5.85392 54.5416 6.35069 54.7696 6.97172 54.7696C7.63645 54.7696 8.15226 54.5543 8.52175 54.1228C8.89261 53.6913 9.07729 53.105 9.07729 52.3648C9.07729 51.5993 8.89768 51.0024 8.54079 50.5721C8.18418 50.142 7.67851 49.927 7.02405 49.927C6.38795 49.927 5.87844 50.1561 5.49868 50.6145C5.1174 51.074 4.92615 51.6529 4.92615 52.3534ZM16.0935 54.8515C15.5121 55.1818 14.8657 55.3472 14.1536 55.3472C13.3283 55.3472 12.6611 55.0782 12.1517 54.5391C11.6422 54.0001 11.387 53.2946 11.387 52.4215C11.387 51.5264 11.6706 50.7887 12.2376 50.2101C12.8063 49.6311 13.5248 49.342 14.3946 49.342C15.0363 49.342 15.5662 49.4456 15.9844 49.653V50.3765C15.5186 50.0795 14.9618 49.9308 14.315 49.9308C13.6556 49.9308 13.1154 50.1563 12.693 50.6069C12.2709 51.0588 12.059 51.648 12.059 52.3726C12.059 53.1128 12.2542 53.6966 12.6418 54.1243C13.0306 54.5518 13.5644 54.7657 14.2429 54.7657C14.7127 54.7657 15.1143 54.6722 15.4505 54.4839V52.8219H14.1687V52.2368H16.0933V54.8515H16.0935ZM18.9639 55.2497H18.325V49.4391H18.9639V55.2497ZM21.1083 54.2445C21.2712 54.3919 21.5059 54.5149 21.8128 54.6134C22.1193 54.7132 22.4029 54.762 22.6648 54.762C23.5115 54.762 23.935 54.4546 23.935 53.8387C23.935 53.6672 23.8914 53.5135 23.8028 53.3777C23.7158 53.2431 23.5975 53.1254 23.4472 53.0268C23.2986 52.9283 23.0047 52.7669 22.5659 52.5414C21.9345 52.2187 21.5354 51.9371 21.3674 51.6977C21.1992 51.4569 21.1159 51.1856 21.1159 50.8833C21.1159 50.4161 21.3058 50.042 21.6869 49.7616C22.068 49.4812 22.5466 49.3417 23.1227 49.3417C23.7041 49.3417 24.1159 49.4096 24.3595 49.5478V50.2866C24.0183 50.0511 23.5782 49.9346 23.0408 49.9346C22.671 49.9346 22.371 50.0128 22.1374 50.169C21.9049 50.3252 21.7884 50.544 21.7884 50.8272C21.7884 51.0024 21.8294 51.1535 21.9101 51.2829C21.9924 51.411 22.1024 51.5237 22.2426 51.6184C22.3838 51.7133 22.6571 51.8618 23.0625 52.0653C23.6336 52.347 24.0336 52.6237 24.2624 52.8924C24.4894 53.1614 24.6037 53.4621 24.6037 53.794C24.6037 54.2894 24.4241 54.6723 24.0622 54.9424C23.7016 55.2125 23.1972 55.3472 22.5481 55.3472C22.3492 55.3472 22.0923 55.3152 21.7754 55.2497C21.4588 55.1844 21.2352 55.1063 21.1083 55.0128V54.2444V54.2445ZM30.0454 50.0243H28.3657V55.2499H27.723V50.0243H26.0457V49.4392H30.0452V50.0243H30.0454ZM32.4758 55.2499H31.8367V49.4392H32.4758V55.2499ZM38.838 55.0028C38.4092 55.2319 37.874 55.3473 37.2326 55.3473C36.4152 55.3473 35.7571 55.0783 35.2566 54.5406C34.7574 54.0029 34.5072 53.3075 34.5072 52.4547C34.5072 51.5597 34.7818 50.8169 35.3299 50.2266C35.879 49.6363 36.5924 49.342 37.4688 49.342C38.0205 49.342 38.4774 49.4213 38.838 49.5814V50.2714C38.4194 50.0422 37.9576 49.9271 37.4545 49.9271C36.7631 49.9271 36.21 50.1589 35.7979 50.6247C35.3861 51.0896 35.1795 51.6876 35.1795 52.4174C35.1795 53.1102 35.3733 53.6749 35.7582 54.1127C36.1444 54.5507 36.6616 54.7696 37.311 54.7696C37.8973 54.7696 38.4066 54.639 38.838 54.3791V55.0026V55.0028Z" fill="white"/>
</svg>
