<svg width="18" height="20" viewBox="0 0 18 20" fill="none" xmlns="http://www.w3.org/2000/svg">
<path fill-rule="evenodd" clip-rule="evenodd" d="M17.6668 5.61733L9.00016 0.559998L0.333496 5.61733V14.3827L1.67483 15.1653L4.4175 14.056C4.78658 13.9065 5.10264 13.6503 5.32522 13.3201C5.54779 12.99 5.66674 12.6009 5.66683 12.2027V5.33333H7.00016V12.2027C7.00007 12.8664 6.8018 13.5151 6.43075 14.0655C6.05971 14.6159 5.53278 15.0429 4.9175 15.292L3.13083 16.0147L9.00016 19.44L17.6668 14.384V5.61733ZM8.3335 8C8.3335 7.29275 8.61445 6.61448 9.11454 6.11438C9.61464 5.61428 10.2929 5.33333 11.0002 5.33333H12.5562C13.9055 5.33333 15.0002 6.42666 15.0002 7.77733V8H13.6668V7.77733C13.6668 7.63148 13.6381 7.48705 13.5823 7.3523C13.5265 7.21754 13.4447 7.09511 13.3415 6.99197C13.2384 6.88884 13.1159 6.80702 12.9812 6.75121C12.8464 6.69539 12.702 6.66666 12.5562 6.66666H11.0002C10.6465 6.66666 10.3074 6.80714 10.0574 7.05719C9.80731 7.30724 9.66683 7.64638 9.66683 8C9.66683 8.35362 9.80731 8.69276 10.0574 8.94281C10.3074 9.19285 10.6465 9.33333 11.0002 9.33333H12.3335C13.0407 9.33333 13.719 9.61428 14.2191 10.1144C14.7192 10.6145 15.0002 11.2928 15.0002 12C15.0002 12.7072 14.7192 13.3855 14.2191 13.8856C13.719 14.3857 13.0407 14.6667 12.3335 14.6667H11.0002C10.2929 14.6667 9.61464 14.3857 9.11454 13.8856C8.61445 13.3855 8.3335 12.7072 8.3335 12H9.66683C9.66683 12.3536 9.80731 12.6928 10.0574 12.9428C10.3074 13.1929 10.6465 13.3333 11.0002 13.3333H12.3335C12.6871 13.3333 13.0263 13.1929 13.2763 12.9428C13.5264 12.6928 13.6668 12.3536 13.6668 12C13.6668 11.6464 13.5264 11.3072 13.2763 11.0572C13.0263 10.8071 12.6871 10.6667 12.3335 10.6667H11.0002C10.2929 10.6667 9.61464 10.3857 9.11454 9.88562C8.61445 9.38552 8.3335 8.70724 8.3335 8Z" fill="url(#paint0_linear_302_195)"/>
<defs>
<linearGradient id="paint0_linear_302_195" x1="0.333496" y1="10" x2="17.6668" y2="10" gradientUnits="userSpaceOnUse">
<stop stop-color="#1FA2FF"/>
<stop offset="0.5" stop-color="#12D8FA"/>
<stop offset="1" stop-color="#A6FFCB"/>
</linearGradient>
</defs>
</svg>
