<svg width="20" height="14" viewBox="0 0 20 14" fill="none" xmlns="http://www.w3.org/2000/svg">
<path d="M7.56518 0.304169C7.07518 0.304169 6.58435 0.545002 6.30352 1.02667L0.196849 11.5275C-0.363151 12.4908 0.338515 13.695 1.45852 13.695H6.22518C5.97791 13.4815 5.81331 13.188 5.76002 12.8657C5.70673 12.5434 5.76812 12.2126 5.93352 11.9308L10.556 4.00334L8.82601 1.02667C8.69839 0.805611 8.51449 0.622303 8.29303 0.495395C8.07156 0.368486 7.82043 0.302507 7.56518 0.304169ZM13.7377 2.73917C13.3318 2.73917 12.9268 2.93584 12.6943 3.33L7.64185 11.9217C7.17768 12.7092 7.75685 13.6967 8.68435 13.6967H18.7927C19.721 13.6967 20.301 12.7092 19.8368 11.9217L14.781 3.33C14.6745 3.14835 14.5219 2.99801 14.3388 2.89413C14.1556 2.79025 13.9483 2.73651 13.7377 2.73834V2.73917Z" fill="url(#paint0_linear_302_181)"/>
<defs>
<linearGradient id="paint0_linear_302_181" x1="0" y1="7.0004" x2="20.0002" y2="7.0004" gradientUnits="userSpaceOnUse">
<stop stop-color="#1FA2FF"/>
<stop offset="0.5" stop-color="#12D8FA"/>
<stop offset="1" stop-color="#A6FFCB"/>
</linearGradient>
</defs>
</svg>
