<svg xmlns:xlink="http://www.w3.org/1999/xlink" xmlns="http://www.w3.org/2000/svg" width="533" height="957" viewBox="0 0 533 957" fill="none"><path d="M447.307 1.22666C458.547 -0.866678 469.973 0.453322 481.267 1.22666C467.92 3.51999 454.387 5.41332 441.693 10.36C415.92 20.3733 392.12 35.08 370.88 52.7067C337.84 79.3733 314.027 116.147 298.893 155.547C288.293 181.227 281.013 209 283.293 236.987C285.333 263.613 293.493 290.92 311.987 310.853C321.947 321.173 332.907 331.733 347.093 335.667C357.307 338.667 368.587 335.84 376.88 329.373C389.747 319.44 398.16 303.827 399.053 287.56C400.187 270.453 401.267 253.28 401.04 236.16C402.893 237.413 402.453 241.253 403.307 243.44C413.853 288.787 416 335.96 409.973 382.107C450.947 396.6 487.04 425.067 509.867 462.147C523.587 484.16 531.747 509.733 532.613 535.707C533.2 564.373 528.533 593.28 518.107 620.04C515.053 628.067 511.227 635.76 507.92 643.68C510.547 629.933 514.12 616.32 515.093 602.293C516.96 576.533 517.187 549.187 505.053 525.627C499.92 514 492.427 502.32 480.067 497.507C480.027 560.413 480.04 623.333 480.053 686.24C490.253 677.507 498.773 666.973 505.067 655.107C502.773 676.96 494.387 698.44 479.627 714.907C466.28 730.373 448.267 740.467 431.96 752.373C418.28 762.16 404.88 772.373 392.507 783.787C377.947 797.053 361.453 807.947 345.027 818.733C308.88 842.24 271.347 863.64 232.613 882.587C159.4 918.707 80.3733 942.32 0 956.013C44.3067 937.387 89.2533 919.867 131.8 897.347C146.587 889.427 160.933 880.653 174.627 870.947C174.627 769.2 174.6 667.453 174.64 565.72C143.173 603.413 119.853 648.04 108 695.747C101.32 722.307 97.5733 749.587 96.4133 776.933C95.7067 807.4 101.2 837.987 112.427 866.333C115.64 874.547 119.547 882.467 123.12 890.533C109.68 874.32 97.44 856.8 89.92 837C79.08 808.853 75.7333 778.613 72.08 748.893C69.9467 729.387 68.2 709.813 67.64 690.2C68.3067 644.613 69.5734 599.027 70.1467 553.44C92.08 551.84 112.667 539.333 124.267 520.68C138.187 498.547 143.24 472.013 144.987 446.267C145.6 413 137.507 379.907 123.973 349.64C132.8 359.987 140.613 371.173 149.493 381.453C156.053 387.333 166.147 391.96 174.627 387.347C174.6 340.453 174.653 293.547 174.6 246.653C165.467 242.667 154.64 242.373 145.72 247.08C125.653 257.187 112.64 276.547 102.4 295.84C90.8533 318.4 79.4533 341.507 74.6133 366.587C69.9733 388.92 71.68 411.867 73.4667 434.413C74.6933 448.787 77.12 463.013 79.4667 477.24C68.3467 452.227 60.4 425.733 57.0667 398.52C53.0667 368.347 54.8934 337.547 61.1467 307.8C70.0667 265.8 98.3066 228.547 135.893 207.96C146.8 201.92 158.88 198.053 169.053 190.733C183.307 180.507 194.2 166.053 201.36 150.12C223.6 142.533 244.027 129.76 260.533 113.027C269.533 104.227 277.48 94.4133 286.547 85.6533C303.467 68.7067 323.627 55.5467 343.693 42.6667C374.987 22.1867 410.093 6.58666 447.307 1.22666ZM211.627 241.333C224.453 270.867 229.507 303.907 225.093 335.853C222.053 356.813 211.827 376.253 197.787 391.947C219.24 384.52 237.947 369.04 248.813 349.08C258.267 331.653 259.147 310.253 252 291.853C244.027 271.507 229.96 253.373 211.627 241.333ZM190.387 353.827C196.12 336.413 198.84 317.947 197.693 299.627C197.307 286.293 197.053 272.227 190.453 260.24C190.28 291.427 190.427 322.627 190.387 353.827ZM241.467 468.547C239.307 492.2 237.707 515.893 236.773 539.613C235.267 565.773 236.933 592.16 232.92 618.147C229.24 642.28 220.64 665.667 207.907 686.493C220.453 637.8 218.107 585.4 200.627 538.227C196.96 541.267 193.813 544.867 190.373 548.147C190.36 651.8 190.4 755.467 190.36 859.133C200.013 851.413 209.44 843.387 218.16 834.613C235.653 816.813 250.52 796.693 265.627 776.893C275.387 763.467 285.613 748.773 286.28 731.587C287.187 712.253 276.853 694.227 263.32 681.133C297.333 624.16 318.627 559.8 326.093 493.893C310.307 511.173 296.587 530.667 287.587 552.36C281.12 567.2 273.44 581.453 266.187 595.907C272.093 565.4 280.52 535.413 290.547 506.013C274.907 527.613 263.04 551.893 255.453 577.44C255.36 569.747 256.16 562.08 256.173 554.4C256.493 525.2 251.427 495.987 241.467 468.547ZM450.08 496.907C450.04 563.773 450.067 630.653 450.067 697.533C454.893 697.627 459.68 696.84 464.32 695.507C464.427 628.613 464.333 561.72 464.36 494.827C459.533 495.067 454.773 495.813 450.08 496.907ZM413.92 518.2C413.987 530.16 414.213 542.133 414.227 554.093C403.227 566.08 392.813 578.64 383.36 591.88C378.813 598.373 374.253 605.16 372.467 613.013C370.453 620.947 369.32 629.933 373.56 637.373C376.747 642.653 382.093 647.12 388.387 647.867C393.76 648.107 398.053 644.213 401.187 640.28C413.92 623.093 422.573 603.04 426.587 582.04C427.68 594.6 428.04 607.28 426.68 619.84C425.12 634.813 422.427 649.853 424.027 664.96C424.853 674.92 426 686.267 434.267 693.133C434.467 629.653 434.307 566.173 434.347 502.693C426.733 506.68 419.76 511.88 413.92 518.2ZM349.173 680.187C355.693 695.933 358.52 713.24 357.147 730.24C355.707 749.76 348.613 768.6 337.853 784.867C349.933 777.893 361.133 769.453 371.24 759.853C387.867 745.933 407.56 736.333 427.067 727.16C415.28 715.533 406.973 700.48 403.24 684.36C385.133 684.867 366.973 683.56 349.173 680.187Z" fill="black"/></svg>