<svg width="18" height="18" viewBox="0 0 18 18" fill="none" xmlns="http://www.w3.org/2000/svg">
<path d="M0.5 9V17.5H17.5V0.5H0.5V9ZM14.1988 8.32212C14.6064 8.41808 14.9767 8.63163 15.264 8.93625C15.4191 9.102 15.6512 9.40641 15.6709 9.48131C15.6762 9.50362 14.9378 9.99875 14.4894 10.2755C14.4729 10.2867 14.4065 10.2176 14.3343 10.1093C14.1159 9.79103 13.8859 9.65291 13.5347 9.62794C13.02 9.59447 12.6879 9.86328 12.6906 10.3143C12.6879 10.4247 12.7125 10.534 12.7623 10.6325C12.876 10.8679 13.089 11.0087 13.7473 11.2939C14.9649 11.8167 15.485 12.1625 15.8085 12.6523C16.1708 13.2001 16.251 14.0745 16.0077 14.7274C15.7368 15.4329 15.0669 15.9142 14.126 16.072C13.8354 16.1246 13.1438 16.1161 12.8308 16.0582C12.1477 15.9365 11.5001 15.5987 11.1016 15.1561C10.9438 14.9845 10.6394 14.5335 10.6591 14.5032C10.6676 14.4921 10.7367 14.448 10.8142 14.4033L11.4453 14.0378L11.9352 13.7531L12.0377 13.905C12.1817 14.1234 12.494 14.4225 12.6826 14.5218C13.225 14.8097 13.9693 14.7683 14.3375 14.4389C14.4868 14.3146 14.5702 14.1234 14.559 13.93C14.559 13.7334 14.534 13.6452 14.4315 13.4981C14.2987 13.31 14.0304 13.1496 13.2638 12.8176C12.3867 12.4383 12.0074 12.2061 11.6648 11.8326C11.449 11.5868 11.2895 11.2969 11.1972 10.9832C11.1335 10.7425 11.117 10.139 11.167 9.89834C11.3471 9.04887 11.9888 8.45972 12.91 8.28547C13.2091 8.22756 13.9061 8.24934 14.1993 8.32159L14.1988 8.32212ZM10.2091 9.03347L10.2144 9.72781H8.00072V16.0173H6.43459V9.72781H4.22406V9.04728C4.22406 8.66797 4.23256 8.35294 4.24319 8.34444C4.25169 8.33328 5.59628 8.32797 7.22881 8.33063L10.2006 8.33912L10.2091 9.03347Z" fill="url(#paint0_linear_302_203)"/>
<defs>
<linearGradient id="paint0_linear_302_203" x1="0.5" y1="9" x2="17.5" y2="9" gradientUnits="userSpaceOnUse">
<stop stop-color="#1FA2FF"/>
<stop offset="0.5" stop-color="#12D8FA"/>
<stop offset="1" stop-color="#A6FFCB"/>
</linearGradient>
</defs>
</svg>
