<svg width="18" height="18" viewBox="0 0 18 18" fill="none" xmlns="http://www.w3.org/2000/svg">
<path d="M6.21177 7.93331L6.59627 1.44055C6.59933 1.38975 6.61921 1.3414 6.65279 1.30311C6.68637 1.26483 6.73173 1.23877 6.78176 1.22905L13.0388 0.00430136C13.0775 -0.00327763 13.1174 -0.000811123 13.1548 0.0114642C13.1922 0.0237396 13.2259 0.0454118 13.2525 0.0744014C13.2791 0.103391 13.2978 0.138725 13.3068 0.177013C13.3158 0.215302 13.3148 0.255259 13.3039 0.293052L12.1339 4.3453C12.1231 4.38303 12.1221 4.4229 12.131 4.46111C12.14 4.49932 12.1586 4.53459 12.1852 4.56356C12.2117 4.59253 12.2452 4.61422 12.2825 4.62656C12.3198 4.6389 12.3597 4.64148 12.3982 4.63405L14.1916 4.28905C14.2338 4.28081 14.2774 4.28456 14.3176 4.29987C14.3578 4.31518 14.3928 4.34143 14.4188 4.37565C14.4448 4.40987 14.4606 4.45068 14.4645 4.49345C14.4684 4.53621 14.4602 4.57921 14.4409 4.61755L9.34181 14.7801L9.24944 14.9226C9.22958 14.9548 9.20173 14.9814 9.16859 14.9998C9.13544 15.0182 9.09811 15.0278 9.0602 15.0276C8.92727 15.0276 8.79736 14.9136 8.83115 14.7508L9.65346 10.7751C9.66153 10.7361 9.65933 10.6957 9.64708 10.6579C9.63483 10.6201 9.61294 10.5861 9.58356 10.5592C9.55418 10.5324 9.51832 10.5136 9.47949 10.5048C9.44067 10.4959 9.40021 10.4973 9.36209 10.5088L8.28595 10.8351C8.24785 10.8467 8.20739 10.8482 8.16853 10.8394C8.12967 10.8307 8.09375 10.812 8.0643 10.7853C8.03484 10.7585 8.01286 10.7245 8.0005 10.6867C7.98815 10.6489 7.98584 10.6085 7.99382 10.5696L8.51199 8.03831C8.51985 8.00051 8.51803 7.96135 8.50671 7.92445C8.4954 7.88754 8.47494 7.85408 8.44724 7.82716C8.41954 7.80025 8.38549 7.78074 8.34824 7.77045C8.31099 7.76017 8.27174 7.75943 8.23413 7.76831L6.49189 8.17031C6.45711 8.17828 6.42096 8.17807 6.38629 8.16967C6.35161 8.16128 6.31938 8.14493 6.29212 8.12194C6.26487 8.09894 6.24335 8.06992 6.22928 8.03718C6.2152 8.00444 6.20895 7.96888 6.21102 7.93331H6.21177ZM17.4583 1.9888L12.969 2.8048L12.5605 4.22005L14.1202 3.92005C14.2411 3.89599 14.3665 3.90964 14.4793 3.95914C14.5921 4.00865 14.687 4.09162 14.751 4.1968C14.8054 4.28428 14.8363 4.38425 14.8407 4.48709C14.8452 4.58994 14.8231 4.6922 14.7766 4.78405L9.67674 14.9473L9.66698 14.9661L9.65571 14.9833L9.5641 15.1258C9.50994 15.2105 9.43536 15.2803 9.3472 15.3288C9.25903 15.3773 9.16009 15.4029 9.05945 15.4033C8.9683 15.4028 8.87838 15.3823 8.79609 15.3431C8.71379 15.304 8.64115 15.2472 8.58333 15.1768C8.52709 15.1073 8.48711 15.0261 8.46633 14.9391C8.44554 14.8522 8.44446 14.7617 8.46318 14.6743L9.23592 10.9386L8.39484 11.1936C8.27979 11.2282 8.15706 11.228 8.04212 11.193C7.92718 11.158 7.82519 11.0899 7.74901 10.9971C7.69221 10.9278 7.65161 10.8467 7.63017 10.7598C7.60874 10.6729 7.607 10.5822 7.6251 10.4946L8.09821 8.18456L6.57599 8.53556C6.47295 8.55913 6.36552 8.5554 6.26436 8.52475C6.1632 8.4941 6.07181 8.43759 5.99925 8.36081C5.943 8.30072 5.89955 8.22986 5.87154 8.1525C5.84352 8.07515 5.83153 7.99292 5.83629 7.91081L6.12842 2.9833L0.541213 1.9858C0.455129 1.97029 0.366399 1.97963 0.285446 2.01273C0.204494 2.04584 0.134682 2.10132 0.0842122 2.17268C0.033742 2.24403 0.00470978 2.32829 0.000526074 2.41555C-0.00365764 2.50282 0.017181 2.58946 0.0605938 2.6653L8.68546 17.7681C8.72575 17.8388 8.78413 17.8975 8.85461 17.9382C8.9251 17.979 9.00516 18.0003 9.08661 18C9.16805 17.9997 9.24795 17.9778 9.31813 17.9365C9.3883 17.8952 9.44624 17.8361 9.486 17.7651L17.9419 2.6638C17.9843 2.58782 18.0042 2.50138 17.9993 2.41454C17.9944 2.3277 17.9648 2.24404 17.9142 2.17331C17.8635 2.10258 17.7937 2.04768 17.713 2.01502C17.6323 1.98235 17.544 1.97326 17.4583 1.9888Z" fill="url(#paint0_linear_302_185)"/>
<defs>
<linearGradient id="paint0_linear_302_185" x1="0" y1="9" x2="18" y2="9" gradientUnits="userSpaceOnUse">
<stop stop-color="#1FA2FF"/>
<stop offset="0.5" stop-color="#12D8FA"/>
<stop offset="1" stop-color="#A6FFCB"/>
</linearGradient>
</defs>
</svg>
