<svg width="19" height="12" viewBox="0 0 19 12" fill="none" xmlns="http://www.w3.org/2000/svg">
<path d="M18.4348 1.26036C18.5817 1.69533 18.1027 2.69441 16.9978 4.25759C16.8445 4.47508 16.637 4.76393 16.3751 5.12414C16.1197 5.47076 15.944 5.71543 15.8482 5.85816C15.7524 6.00088 15.655 6.1691 15.556 6.3628C15.457 6.55649 15.4187 6.69922 15.4411 6.79097C15.4634 6.88272 15.5049 6.99996 15.5656 7.14269C15.6263 7.28541 15.7301 7.43154 15.877 7.58106C16.0239 7.73058 16.2059 7.91069 16.423 8.12138C16.4486 8.13497 16.4645 8.14856 16.4709 8.16216C17.3714 9.05249 17.9813 9.8035 18.3007 10.4152C18.3198 10.4492 18.3406 10.4916 18.3629 10.5426C18.3853 10.5936 18.4076 10.6836 18.43 10.8128C18.4523 10.9419 18.4507 11.0574 18.4252 11.1594C18.3997 11.2613 18.3198 11.3548 18.1857 11.4397C18.0516 11.5247 17.8632 11.5672 17.6205 11.5672L15.1681 11.608C15.0148 11.6419 14.836 11.6249 14.6316 11.557C14.4272 11.489 14.2612 11.4143 14.1334 11.3327L13.9418 11.2104C13.7502 11.0676 13.5267 10.8502 13.2712 10.5579C13.0158 10.2657 12.797 10.0023 12.615 9.76782C12.433 9.53334 12.2382 9.33624 12.0307 9.17653C11.8231 9.01681 11.6427 8.96414 11.4894 9.01851C11.4702 9.02531 11.4447 9.0372 11.4128 9.05419C11.3808 9.07118 11.3265 9.12046 11.2499 9.20201C11.1733 9.28357 11.1046 9.38382 11.0439 9.50276C10.9833 9.6217 10.929 9.7984 10.8811 10.0329C10.8332 10.2674 10.8124 10.5307 10.8188 10.823C10.8188 10.9249 10.8076 11.0184 10.7853 11.1033C10.7629 11.1883 10.739 11.2511 10.7134 11.2919L10.6751 11.3429C10.5601 11.472 10.3909 11.5468 10.1674 11.5672H9.06569C8.61225 11.5944 8.14603 11.5383 7.66703 11.399C7.18804 11.2596 6.76813 11.0795 6.40728 10.8587C6.04644 10.6378 5.71754 10.4135 5.42056 10.1858C5.12358 9.95812 4.89846 9.76272 4.74518 9.59961L4.50568 9.35493C4.44182 9.28697 4.354 9.18502 4.24224 9.04909C4.13047 8.91317 3.90215 8.60393 3.55728 8.12138C3.21241 7.63883 2.87392 7.1257 2.54182 6.58198C2.20971 6.03827 1.81854 5.32124 1.36828 4.4309C0.918032 3.54057 0.501309 2.61625 0.118115 1.65795C0.0797953 1.54921 0.0606356 1.45746 0.0606356 1.38269C0.0606356 1.30793 0.0702154 1.25356 0.0893751 1.21958L0.127694 1.15841C0.223493 1.02928 0.40551 0.964712 0.673746 0.964712L3.29862 0.944323C3.37526 0.957916 3.44871 0.980004 3.51896 1.01059C3.58921 1.04117 3.64031 1.07006 3.67224 1.09724L3.72014 1.12783C3.82232 1.20259 3.89896 1.31133 3.95005 1.45406C4.07778 1.79388 4.22468 2.1456 4.39073 2.50921C4.55678 2.87282 4.6877 3.14977 4.7835 3.34007L4.93678 3.63572C5.12199 4.04351 5.30081 4.39692 5.47325 4.69597C5.64569 4.99501 5.80056 5.22779 5.93787 5.3943C6.07518 5.56081 6.2077 5.69165 6.33543 5.7868C6.46317 5.88195 6.57174 5.92952 6.66115 5.92952C6.75056 5.92952 6.83678 5.91253 6.91981 5.87855C6.93258 5.87175 6.94855 5.85476 6.9677 5.82758C6.98686 5.80039 7.02518 5.72563 7.08266 5.60329C7.14014 5.48096 7.18325 5.32124 7.21199 5.12414C7.24073 4.92704 7.27107 4.65179 7.303 4.29837C7.33493 3.94496 7.33493 3.52018 7.303 3.02404C7.29023 2.75218 7.26149 2.50411 7.21678 2.27983C7.17208 2.05554 7.12737 1.89922 7.08266 1.81087L7.02518 1.68853C6.86552 1.45746 6.59409 1.31133 6.2109 1.25016C6.12787 1.23657 6.14384 1.15501 6.2588 1.00549C6.36098 0.876358 6.48233 0.774411 6.62283 0.69965C6.96132 0.522943 7.72451 0.441385 8.91241 0.454978C9.43611 0.461775 9.86721 0.505952 10.2057 0.587509C10.3334 0.621491 10.4404 0.667367 10.5266 0.725137C10.6128 0.782907 10.6783 0.864464 10.723 0.969809C10.7677 1.07515 10.8012 1.1839 10.8236 1.29604C10.8459 1.40818 10.8571 1.5628 10.8571 1.7599C10.8571 1.95699 10.8539 2.1439 10.8475 2.3206C10.8412 2.49731 10.8332 2.73689 10.8236 3.03933C10.814 3.34177 10.8092 3.62213 10.8092 3.88039C10.8092 3.95515 10.806 4.09788 10.7996 4.30857C10.7933 4.51926 10.7917 4.68237 10.7949 4.79791C10.798 4.91345 10.8092 5.05108 10.8284 5.2108C10.8475 5.37051 10.8843 5.50304 10.9386 5.60839C10.9928 5.71373 11.0647 5.79699 11.1541 5.85816C11.2052 5.87175 11.2595 5.88534 11.317 5.89894C11.3744 5.91253 11.4575 5.87515 11.566 5.7868C11.6746 5.69844 11.7959 5.5812 11.9301 5.43508C12.0642 5.28896 12.2302 5.06127 12.4282 4.75204C12.6262 4.4428 12.8433 4.07749 13.0796 3.65611C13.4628 2.94928 13.8045 2.18468 14.1047 1.3623C14.1302 1.29434 14.1622 1.23487 14.2005 1.1839C14.2388 1.13292 14.2739 1.09724 14.3059 1.07685L14.3442 1.04627L14.3921 1.02078L14.5166 0.990199L14.7082 0.985102L17.4672 0.964712C17.7163 0.93073 17.9207 0.939225 18.0803 0.990199C18.24 1.04117 18.339 1.09724 18.3773 1.15841L18.4348 1.26036Z" fill="white"/>
</svg>
