<svg width="19" height="20" viewBox="0 0 19 20" fill="none" xmlns="http://www.w3.org/2000/svg">
<path d="M17.4629 15.4167L9.36793 20V16.4283L14.4079 13.65L17.4629 15.4167ZM18.0179 14.9208V5.32083L15.0613 7.04667V13.1975L18.0179 14.9042V14.9208ZM0.55793 15.4167L8.65293 20V16.4283L3.61293 13.65L0.55793 15.4167ZM0.00292969 14.9208V5.32083L2.9596 7.04667V13.1975L0.00292969 14.9208ZM0.34043 4.7025L8.65376 0V3.4525L3.29626 6.40917L0.34043 4.7025ZM17.6813 4.7025L9.36793 0V3.4525L14.7246 6.40917L17.6813 4.7025ZM8.65376 15.615L3.6771 12.8758V7.43917L8.6571 10.3158L8.65376 15.615ZM9.36793 15.615L14.3479 12.8767V7.44L9.36793 10.3167V15.615ZM4.01043 6.825L9.01043 4.06667L14.0104 6.825L9.01043 9.7025L4.01043 6.825Z" fill="url(#paint0_linear_17_112)"/>
<defs>
<linearGradient id="paint0_linear_17_112" x1="0.00292969" y1="10" x2="18.0179" y2="10" gradientUnits="userSpaceOnUse">
<stop stop-color="#1FA2FF"/>
<stop offset="0.5" stop-color="#12D8FA"/>
<stop offset="1" stop-color="#A6FFCB"/>
</linearGradient>
</defs>
</svg>
