<svg width="24" height="24" viewBox="0 0 24 24" fill="none" xmlns="http://www.w3.org/2000/svg">
<path d="M19.7367 18.05L15.9089 17.0928L15.6881 16.2085C17.1033 16.0166 18.4758 15.5869 19.7477 14.9376C19.8895 14.8526 19.98 14.7029 19.9895 14.5379C19.9995 14.3728 19.9283 14.2131 19.7987 14.1103C19.7807 14.0983 17.9951 12.6235 17.9951 7.51377C17.9951 3.20436 16.987 1.01918 14.9977 1.01918H14.6979C14.0077 0.277536 13.0069 -0.0931224 12.0002 0.020033C10.1227 0.020033 6.00517 1.90747 6.00517 7.51377C6.00517 12.6235 4.21965 14.0983 4.20668 14.1083C3.98575 14.2735 3.9406 14.5866 4.10584 14.8076C4.14462 14.8594 4.19314 14.9032 4.24864 14.9366C5.51944 15.592 6.89379 16.0233 8.31123 16.2115L8.0904 17.0938L4.26367 18.051C1.76161 18.6735 0.0065292 20.9221 0.0102292 23.5004C0.0102292 23.7763 0.233917 24 0.509827 24H23.4906C23.7665 24 23.9902 23.7763 23.9902 23.5004C23.9943 20.9217 22.2392 18.6726 19.7367 18.05Z" fill="#FC3552"/>
</svg>
