<svg width="80" height="80" viewBox="0 0 80 80" fill="none" xmlns="http://www.w3.org/2000/svg">
<path d="M74.2599 15.6082L67.896 10.5881L68.4241 2.49928C68.4882 1.53056 67.9804 0.736834 67.2554 0.319659C66.532 -0.0990776 65.5898 -0.139701 64.7836 0.397782L58.0432 4.89764L50.5122 1.89774C48.7107 1.17901 46.8639 2.84302 47.3888 4.71015L49.5872 12.5115L44.4061 18.7456C43.1655 20.2378 44.178 22.5096 46.1154 22.5862L54.2152 22.9065L58.5416 29.7609C59.5806 31.4046 62.0524 31.1343 62.7227 29.3219L65.5305 21.7174L73.3865 19.7191C75.2661 19.2409 75.7833 16.8082 74.2599 15.6082Z" fill="#FED843"/>
<path d="M22.813 65.9377H2.34493C1.05059 65.9377 0.00125122 66.9871 0.00125122 68.2814V77.6561C0.00125122 78.9505 1.05059 79.9998 2.34493 79.9998H22.813C24.1074 79.9998 25.1567 78.9505 25.1567 77.6561V68.2814C25.1567 66.9871 24.1074 65.9377 22.813 65.9377Z" fill="#FED843"/>
<path d="M42.3437 56.5632H22.813C21.5187 56.5632 20.4694 57.6126 20.4694 58.9069V80H42.3437C43.638 80 44.6873 78.9507 44.6873 77.6563V58.9069C44.6873 57.6126 43.638 56.5632 42.3437 56.5632Z" fill="#FFB64C"/>
<path d="M60.3119 47.1885H42.3437C41.0493 47.1885 40 48.2378 40 49.5322V80H60.3119C61.6062 80 62.6555 78.9506 62.6555 77.6563V49.5322C62.6555 48.2378 61.6062 47.1885 60.3119 47.1885Z" fill="#FED843"/>
<path d="M77.6551 79.9999H57.9682V40.1574C57.9682 38.8631 59.0175 37.8137 60.3119 37.8137H77.6551C78.9494 37.8137 79.9987 38.8631 79.9987 40.1574V77.6562C79.9987 78.9506 78.9494 79.9999 77.6551 79.9999Z" fill="#FFB64C"/>
<path d="M11.8759 51.8757C10.5815 51.8757 9.53219 50.8264 9.53219 49.5321C9.53219 45.6551 12.6863 42.501 16.5632 42.501H25.9379C27.2302 42.501 28.2816 41.4497 28.2816 40.1573C28.2816 36.2804 31.4357 33.1263 35.3126 33.1263H44.6873C45.9796 33.1263 47.031 32.0749 47.031 30.7826C47.031 29.4883 48.0804 28.439 49.3747 28.439C50.669 28.439 51.7184 29.4883 51.7184 30.7826C51.7184 34.6596 48.5643 37.8137 44.6873 37.8137H35.3126C34.0203 37.8137 32.969 38.865 32.969 40.1573C32.969 44.0343 29.8148 47.1884 25.9379 47.1884H16.5632C15.2709 47.1884 14.2195 48.2398 14.2195 49.5321C14.2195 50.8264 13.1702 51.8757 11.8759 51.8757Z" fill="#EFE2DD"/>
<path d="M73.3865 19.719L65.5305 21.7173L62.7227 29.3218C62.0524 31.1342 59.5806 31.4045 58.5416 29.7608L54.2152 22.9064L67.2554 0.31958C67.9804 0.736755 68.4882 1.53048 68.4241 2.4992L67.896 10.588L74.2599 15.6082C75.7833 16.8081 75.2661 19.2409 73.3865 19.719Z" fill="#FFB64C"/>
</svg>
