<svg width="32" height="32" viewBox="0 0 32 32" fill="none" xmlns="http://www.w3.org/2000/svg">
<path d="M4.49113 26.1321L7.5 27.6363V31.375C7.5 31.7202 7.77987 32 8.125 32H14.75C15.0951 32 15.375 31.7202 15.375 31.375V22.8406C15.375 20.9258 13.9386 19.3378 12.0381 19.1473C12.0307 19.1452 9.39431 18.7337 8.17119 17.5105L6.76756 16.1075C6.29531 15.6351 5.66756 15.375 5 15.375V10.375C5 8.9965 3.8785 7.875 2.5 7.875C1.1215 7.875 0 8.9965 0 10.375V18.865C0 21.9408 1.73738 24.7549 4.49113 26.1321ZM1.25 10.375C1.25 9.68575 1.81075 9.125 2.5 9.125C3.18925 9.125 3.75 9.68575 3.75 10.375V15.7101C2.98775 16.1508 2.5 16.9726 2.5 17.875C2.5 18.5425 2.76013 19.1702 3.23244 19.6425L6.43306 22.8438C6.677 23.0878 7.07281 23.0879 7.31694 22.8438C7.561 22.5998 7.56106 22.2041 7.317 21.9599L4.11637 18.7586C3.88013 18.5224 3.75 18.2086 3.75 17.875C3.75 17.346 4.08481 16.8723 4.58325 16.6962C4.58344 16.6961 4.58363 16.696 4.58381 16.6959H4.58388C5.01488 16.5432 5.52619 16.6338 5.88381 16.9914L7.28744 18.3945C8.73656 19.8436 11.9026 20.3889 11.9089 20.3906C13.1723 20.5173 14.125 21.5706 14.125 22.8406V30.75H8.75V27.25C8.75 27.0133 8.61619 26.7968 8.4045 26.691L5.05019 25.0141C2.70619 23.8418 1.25 21.4856 1.25 18.865V10.375Z" fill="#6C7385"/>
<path d="M8.5 15.375H23.5C23.8451 15.375 24.125 15.0952 24.125 14.75V0.625C24.125 0.279813 23.8451 0 23.5 0H8.5C8.15488 0 7.875 0.279813 7.875 0.625V14.75C7.875 15.0952 8.15488 15.375 8.5 15.375ZM14.125 1.25H17.875V4.61831L16.2516 3.81487C16.0753 3.72756 15.8681 3.7285 15.6926 3.81719L14.125 4.60906V1.25ZM9.125 1.25H12.875V5.625C12.875 5.84206 12.9876 6.04362 13.1726 6.15737C13.3574 6.27106 13.5881 6.28075 13.7818 6.18288L15.9773 5.07381L18.2228 6.18519C18.4132 6.27944 18.6429 6.272 18.8297 6.156C19.0133 6.04194 19.125 5.84113 19.125 5.625V1.25H22.875V14.125H9.125V1.25Z" fill="#6C7385"/>
<path d="M21 11H17.25C16.9049 11 16.625 11.2798 16.625 11.625C16.625 11.9702 16.9049 12.25 17.25 12.25H21C21.3451 12.25 21.625 11.9702 21.625 11.625C21.625 11.2798 21.3451 11 21 11Z" fill="#6C7385"/>
<path d="M28.6875 25.25C29.0327 25.25 29.3125 24.9702 29.3125 24.625C29.3125 24.2798 29.0327 24 28.6875 24C28.3423 24 28.0625 24.2798 28.0625 24.625C28.0625 24.9702 28.3423 25.25 28.6875 25.25Z" fill="#6C7385"/>
<path d="M29.5 7.875C28.1215 7.875 27 8.9965 27 10.375V15.375C26.3324 15.375 25.7047 15.6351 25.2326 16.1073L23.8287 17.5106C23.0599 18.2794 21.1125 19.0316 20.0082 19.1423L19.9664 19.1468C18.0614 19.3378 16.625 20.9258 16.625 22.8406V31.375C16.625 31.7202 16.9049 32 17.25 32H23.875C24.2201 32 24.5 31.7202 24.5 31.375V27.6363L26.5456 26.6137C26.8543 26.4593 26.9795 26.0839 26.8252 25.7751C26.6709 25.4665 26.2956 25.3412 25.9867 25.4956L23.5955 26.6909C23.3838 26.7968 23.25 27.0133 23.25 27.25V30.75H17.875V22.8406C17.875 21.5706 18.8277 20.5173 20.0956 20.3901L20.1374 20.3856C21.4931 20.2497 23.7377 19.3692 24.7124 18.3946L26.1163 16.9913C26.4741 16.6336 26.9859 16.5434 27.4161 16.6959H27.4162C27.4164 16.696 27.4166 16.6961 27.4167 16.6962C28.2774 17.0003 28.5366 18.1056 27.8837 18.7588L24.6831 21.96C24.439 22.2041 24.4391 22.5998 24.6831 22.8439C24.9271 23.0879 25.3229 23.0879 25.567 22.8438L28.7676 19.6426C29.9231 18.4869 29.6824 16.5382 28.2501 15.7101V10.375C28.2501 9.68575 28.8108 9.125 29.5001 9.125C30.1893 9.125 30.7501 9.68575 30.7501 10.375V18.865C30.7501 20.0085 30.4615 21.1438 29.9155 22.148C29.7506 22.4513 29.8628 22.8307 30.1661 22.9956C30.4693 23.1604 30.8488 23.0483 31.0137 22.7451C31.6589 21.5582 32 20.2164 32 18.865V10.375C32 8.9965 30.8785 7.875 29.5 7.875Z" fill="#6C7385"/>
</svg>
