<svg xmlns="http://www.w3.org/2000/svg" width="19" height="18" viewBox="0 0 19 18"><g><g><path fill="#245a9b" d="M9.47 17.775c-4.845 0-8.788-3.942-8.788-8.788S4.625.2 9.47.2s8.788 3.942 8.788 8.788-3.942 8.788-8.788 8.788z"/></g><g><path fill="#fff" d="M8.092 9.029v5.094c0 .073.06.132.133.132h1.891a.132.132 0 0 0 .133-.132V8.946h1.371a.134.134 0 0 0 .133-.122l.131-1.56a.132.132 0 0 0-.132-.143H10.25V6.014c0-.26.21-.47.47-.47h1.057a.132.132 0 0 0 .132-.132v-1.56a.132.132 0 0 0-.132-.132H9.99c-1.047 0-1.897.85-1.897 1.897V7.12h-.946a.132.132 0 0 0-.132.133v1.56c0 .073.06.132.132.132h.946z"/></g></g></svg>