<svg xmlns="http://www.w3.org/2000/svg" width="41" height="42" viewBox="0 0 41 42"><g><g><path fill="#ccc" d="M5.636 15.48a5.327 5.327 0 1 1-.002 10.654 5.327 5.327 0 0 1 .002-10.654zm0 8.48a3.152 3.152 0 1 0 0-6.304 3.152 3.152 0 0 0 0 6.303z"/></g><g><path fill="#ccc" d="M39.223 19.72H14.658a1.087 1.087 0 1 0 0 2.174h24.565a1.087 1.087 0 1 0 0-2.174z"/></g><g><path fill="#ccc" d="M5.636.263a5.327 5.327 0 1 1-.002 10.654A5.327 5.327 0 0 1 5.636.263zm0 8.48a3.152 3.152 0 1 0-.001-6.306 3.152 3.152 0 0 0 0 6.305z"/></g><g><path fill="#ccc" d="M14.658 6.677h24.565a1.087 1.087 0 1 0 0-2.174H14.658a1.087 1.087 0 1 0 0 2.174z"/></g><g><path fill="#ccc" d="M5.636 30.698a5.327 5.327 0 1 1-.001 10.654 5.327 5.327 0 0 1 .001-10.654zm3.152 5.327a3.152 3.152 0 1 0-6.303-.001 3.152 3.152 0 0 0 6.303 0z"/></g><g><path fill="#ccc" d="M39.223 34.938H14.658a1.087 1.087 0 1 0 0 2.174h24.565a1.087 1.087 0 1 0 0-2.175z"/></g></g></svg>