<?xml version="1.0" encoding="UTF-8" standalone="no"?>
<svg
   xmlns:dc="http://purl.org/dc/elements/1.1/"
   xmlns:cc="http://creativecommons.org/ns#"
   xmlns:rdf="http://www.w3.org/1999/02/22-rdf-syntax-ns#"
   xmlns:svg="http://www.w3.org/2000/svg"
   xmlns="http://www.w3.org/2000/svg"
   xmlns:sodipodi="http://sodipodi.sourceforge.net/DTD/sodipodi-0.dtd"
   xmlns:inkscape="http://www.inkscape.org/namespaces/inkscape"
   width="41"
   height="41"
   viewBox="0 0 41 41"
   version="1.1"
   id="svg859"
   sodipodi:docname="filter-icon.svg"
   inkscape:version="0.92.4 (5da689c313, 2019-01-14)">
  <metadata
     id="metadata865">
    <rdf:RDF>
      <cc:Work
         rdf:about="">
        <dc:format>image/svg+xml</dc:format>
        <dc:type
           rdf:resource="http://purl.org/dc/dcmitype/StillImage" />
      </cc:Work>
    </rdf:RDF>
  </metadata>
  <defs
     id="defs863" />
  <sodipodi:namedview
     pagecolor="#ffffff"
     bordercolor="#666666"
     borderopacity="1"
     objecttolerance="10"
     gridtolerance="10"
     guidetolerance="10"
     inkscape:pageopacity="0"
     inkscape:pageshadow="2"
     inkscape:window-width="1920"
     inkscape:window-height="1020"
     id="namedview861"
     showgrid="false"
     inkscape:zoom="20.804878"
     inkscape:cx="20.5"
     inkscape:cy="20.5"
     inkscape:window-x="-8"
     inkscape:window-y="-8"
     inkscape:window-maximized="1"
     inkscape:current-layer="svg859" />
  <g
     id="g857"
     style="fill:#d4d4d4;fill-opacity:1">
    <g
       id="g843"
       style="fill:#d4d4d4;fill-opacity:1">
      <path
         fill="#fbb03b"
         d="M18.063 17.785a.888.888 0 0 1-.889.889H1.085a.889.889 0 0 1-.889-.889V1.696c0-.491.398-.889.889-.889h16.089c.492 0 .889.398.889.889zm-1.778-15.2H1.974v14.311h14.311z"
         id="path841"
         style="fill:#d4d4d4;fill-opacity:1" />
    </g>
    <g
       id="g847"
       style="fill:#d4d4d4;fill-opacity:1">
      <path
         fill="#fbb03b"
         d="M40.196 17.785a.888.888 0 0 1-.888.889H23.219a.889.889 0 0 1-.889-.889V1.696c0-.491.398-.889.889-.889h16.089c.491 0 .888.398.888.889zm-1.777-15.2H24.107v14.311h14.312z"
         id="path845"
         style="fill:#d4d4d4;fill-opacity:1" />
    </g>
    <g
       id="g851"
       style="fill:#d4d4d4;fill-opacity:1">
      <path
         fill="#fbb03b"
         d="M18.063 39.918a.888.888 0 0 1-.889.889H1.085a.889.889 0 0 1-.889-.889V23.83a.89.89 0 0 1 .889-.89h16.089c.492 0 .889.398.889.89zm-1.778-15.2H1.974V38.94h14.311z"
         id="path849"
         style="fill:#d4d4d4;fill-opacity:1" />
    </g>
    <g
       id="g855"
       style="fill:#d4d4d4;fill-opacity:1">
      <path
         fill="#fbb03b"
         d="M40.196 39.918a.888.888 0 0 1-.888.889H23.219a.889.889 0 0 1-.889-.889V23.83a.89.89 0 0 1 .889-.89h16.089c.491 0 .888.398.888.89zm-1.777-15.2H24.107V38.94h14.312z"
         id="path853"
         style="fill:#d4d4d4;fill-opacity:1" />
    </g>
  </g>
</svg>
