<svg xmlns="http://www.w3.org/2000/svg" width="19" height="18" viewBox="0 0 19 18"><defs><linearGradient id="b1j9a" x1="2.48" x2="24.14" y1="14.99" y2="-3.45" gradientUnits="userSpaceOnUse"><stop offset="0" stop-color="#ffe185"/><stop offset="0" stop-color="#ffe185"/><stop offset=".21" stop-color="#ffbb36"/><stop offset=".38" stop-color="#ff5176"/><stop offset=".52" stop-color="#f63395"/><stop offset=".74" stop-color="#a436d2"/><stop offset="1" stop-color="#5f4eed"/></linearGradient></defs><g><g><path fill="#fff" d="M17.17 8.913a7.647 7.647 0 0 1-7.646 7.647 7.648 7.648 0 1 1 7.647-7.647z"/></g><g><path fill="url(#b1j9a)" d="M9.602 10.726a1.74 1.74 0 0 0 1.738-1.738c0-.958-.78-1.739-1.738-1.739s-1.739.781-1.739 1.739c0 .958.781 1.738 1.739 1.738zm0-4.453a2.718 2.718 0 0 1 2.714 2.715 2.717 2.717 0 0 1-2.714 2.713 2.716 2.716 0 0 1-2.714-2.713 2.717 2.717 0 0 1 2.714-2.715zm2.871-.829a.647.647 0 0 1 0 1.294.647.647 0 0 1 0-1.294zm-5.075-.986a2.275 2.275 0 0 0-2.274 2.274v4.369a2.275 2.275 0 0 0 2.274 2.274h4.369a2.274 2.274 0 0 0 2.274-2.274V6.732a2.275 2.275 0 0 0-2.274-2.274zM4.089 6.732a3.31 3.31 0 0 1 3.309-3.311h4.369a3.31 3.31 0 0 1 3.31 3.311v4.369a3.31 3.31 0 0 1-3.31 3.31H7.398a3.31 3.31 0 0 1-3.309-3.31zM9.53 17.719c4.815 0 8.731-3.917 8.731-8.731 0-4.815-3.916-8.731-8.731-8.731C4.716.257.798 4.173.798 8.988c0 4.814 3.918 8.731 8.732 8.731z"/></g></g></svg>