<svg xmlns="http://www.w3.org/2000/svg" width="18" height="18" viewBox="0 0 18 18"><g><g><path fill="#007bbc" d="M9.352 17.76C4.514 17.76.58 13.825.58 8.988S4.514.215 9.352.215c4.837 0 8.773 3.936 8.773 8.774 0 4.837-3.936 8.773-8.773 8.773z"/></g><g><path fill="#fff" d="M14.312 12.931a.146.146 0 0 1-.146.146h-1.692a.146.146 0 0 1-.146-.146V9.884c0-.802-.287-1.349-1.005-1.349-.548 0-.874.37-1.018.726-.052.127-.066.304-.066.483v3.187a.146.146 0 0 1-.146.146H8.402a.146.146 0 0 1-.146-.146c.003-.812.02-4.748.003-5.673a.147.147 0 0 1 .147-.149h1.687c.08 0 .146.066.146.147v.7c-.003.006-.01.012-.013.018h.013v-.019c.264-.406.734-.986 1.789-.986 1.305 0 2.284.853 2.284 2.686zm-8.991.146a.146.146 0 0 1-.146-.146V7.256c0-.08.065-.147.146-.147h1.69c.08 0 .147.066.147.147v5.675a.146.146 0 0 1-.147.146z"/></g><g><path fill="#fff" d="M7.168 5.288a1.062 1.062 0 1 1-2.124 0 1.062 1.062 0 0 1 2.125 0z"/></g></g></svg>