<svg xmlns="http://www.w3.org/2000/svg" width="18" height="18" viewBox="0 0 18 18"><g><g><path fill="red" d="M9.293 17.76C4.456 17.76.52 13.825.52 8.988S4.456.215 9.293.215c4.838 0 8.773 3.936 8.773 8.774 0 4.837-3.935 8.773-8.773 8.773z"/></g><g><path fill="#fff" d="M9.963 11.802c-.628-.048-.892-.36-1.384-.659-.22 1.151-.478 2.263-1.09 3.022-.178.22-.537.109-.551-.174-.093-1.833.54-3.289.85-4.823-.59-.995.072-2.996 1.318-2.503 1.534.606-1.328 3.698.593 4.083 2.006.404 2.824-3.479 1.58-4.742-1.796-1.823-5.23-.041-4.807 2.569.08.496.496.723.443 1.214a.436.436 0 0 1-.624.35c-.796-.372-1.042-1.186-1.005-2.223.072-1.979 1.779-3.365 3.49-3.556 2.167-.243 4.2.795 4.48 2.832.316 2.299-.978 4.789-3.293 4.61z"/></g></g></svg>