<svg xmlns="http://www.w3.org/2000/svg" width="19" height="18" viewBox="0 0 19 18"><g><g><path fill="#0cf" d="M9.411 17.775c-4.846 0-8.788-3.942-8.788-8.788S4.565.2 9.411.2s8.79 3.942 8.79 8.788-3.944 8.788-8.79 8.788z"/></g><g><path fill="#fff" d="M14.462 5.78a4.237 4.237 0 0 1-1.035.295c.167-.027.412-.329.511-.45.15-.188.274-.4.344-.629.01-.018.016-.04-.002-.054-.023-.009-.037-.004-.055.005-.392.21-.797.362-1.229.47a.082.082 0 0 1-.084-.022.94.94 0 0 0-.108-.11 2.172 2.172 0 0 0-.595-.365 2.07 2.07 0 0 0-.914-.147 2.215 2.215 0 0 0-1.564.816 2.127 2.127 0 0 0-.418.836 2.257 2.257 0 0 0-.022.882c.006.05.002.056-.042.05-1.689-.252-3.088-.856-4.224-2.15-.049-.056-.076-.056-.116.004-.497.745-.256 1.942.365 2.53.083.08.167.157.26.23-.034.006-.447-.039-.816-.23-.049-.03-.074-.013-.078.043-.005.08.002.155.013.242.096.755.62 1.454 1.335 1.726.085.036.18.068.271.083-.164.036-.332.062-.799.025-.059-.01-.08.018-.059.074.352.958 1.111 1.243 1.68 1.406.076.013.152.013.228.031-.004.007-.009.007-.014.014-.188.287-.842.501-1.146.607a4.113 4.113 0 0 1-1.742.224c-.094-.014-.113-.013-.139 0-.026.015-.003.038.027.062.12.08.24.148.363.215.371.197.76.354 1.164.466 2.093.578 4.45.153 6.021-1.408 1.234-1.226 1.666-2.917 1.666-4.609 0-.066.078-.103.125-.138.321-.24.576-.53.816-.852.054-.072.05-.137.05-.163V5.78c0-.027.004-.019-.038 0z"/></g></g></svg>