<svg width="90" height="90" viewBox="0 0 90 90" fill="none" xmlns="http://www.w3.org/2000/svg">
<circle cx="45" cy="45" r="42.5" transform="rotate(-180 45 45)" stroke="#00BBF7" stroke-width="5"/>
<path d="M22.1137 45.7268L62.3578 45.7268L38.2705 66.5414C37.8853 66.8769 38.1192 67.5 38.6282 67.5L44.7153 67.5C44.9836 67.5 45.2381 67.4041 45.4375 67.233L71.4301 44.782C71.6681 44.5765 71.8591 44.3226 71.9899 44.0373C72.1208 43.752 72.1885 43.442 72.1885 43.1284C72.1885 42.8148 72.1208 42.5049 71.9899 42.2196C71.8591 41.9343 71.6681 41.6803 71.4301 41.4749L45.2862 18.8869C45.1831 18.7979 45.0592 18.75 44.9286 18.75L38.6351 18.75C38.1261 18.75 37.8922 19.3799 38.2774 19.7086L62.3578 40.5232L22.1137 40.5232C21.8111 40.5232 21.5635 40.7697 21.5635 41.0709L21.5635 45.1791C21.5635 45.4803 21.8111 45.7268 22.1137 45.7268Z" fill="#00BBF7"/>
</svg>
