<svg width="90" height="90" viewBox="0 0 90 90" fill="none" xmlns="http://www.w3.org/2000/svg">
<circle r="42.5" transform="matrix(1 -8.74228e-08 -8.74228e-08 -1 45 45)" stroke="#C9C9C9" stroke-width="5"/>
<path d="M67.8863 45.7268L27.6423 45.7268L51.7296 66.5414C52.1147 66.8769 51.8809 67.5 51.3719 67.5L45.2847 67.5C45.0165 67.5 44.762 67.4041 44.5625 67.233L18.57 44.782C18.3319 44.5765 18.141 44.3226 18.0102 44.0373C17.8793 43.752 17.8116 43.442 17.8116 43.1284C17.8116 42.8148 17.8793 42.5049 18.0102 42.2196C18.141 41.9343 18.3319 41.6803 18.57 41.4749L44.7138 18.8869C44.817 18.7979 44.9408 18.75 45.0715 18.75L51.365 18.75C51.874 18.75 52.1078 19.3799 51.7227 19.7086L27.6423 40.5232L67.8863 40.5232C68.189 40.5232 68.4366 40.7697 68.4366 41.0709L68.4366 45.1791C68.4366 45.4803 68.189 45.7268 67.8863 45.7268Z" fill="#C9C9C9"/>
</svg>
