<svg width="30" height="28" viewBox="0 0 30 28" fill="none" xmlns="http://www.w3.org/2000/svg">
<path d="M23.5387 0C20.031 0 17.0771 2.95385 17.0771 6.46154C17.0771 9.96923 20.031 12.9231 23.5387 12.9231C27.0464 12.9231 30.0002 9.96923 30.0002 6.46154C30.0002 2.95385 27.0464 0 23.5387 0ZM27.6002 7.38461C27.6002 7.56923 27.4156 7.75384 27.231 7.75384H25.0156V9.96923C25.0156 10.1538 24.831 10.3385 24.6464 10.3385H22.431C22.2464 10.3385 22.0618 10.1538 22.0618 9.96923V7.75384H19.8464C19.6618 7.75384 19.4771 7.56923 19.4771 7.38461V5.35385C19.4771 5.16923 19.6618 4.98461 19.8464 4.98461H22.0618V2.76923C22.0618 2.58461 22.2464 2.4 22.431 2.4H24.6464C24.831 2.4 25.0156 2.58461 25.0156 2.76923V4.98461H27.231C27.4156 4.98461 27.6002 5.16923 27.6002 5.35385V7.38461Z" fill="#00BBF7"/>
<path d="M18.7387 13.291L18.3695 12.9217C16.5234 11.0756 13.3849 11.0756 11.5387 12.9217C11.5387 12.9217 10.9849 13.291 11.1695 14.0294C11.3541 14.5833 12.2772 15.5063 13.5695 14.5833C13.5695 14.5833 15.7849 13.4756 16.8926 14.5833L23.3541 21.0448C23.3541 21.0448 23.3541 21.0448 23.5387 21.2294C24.4618 22.1525 24.4618 23.6294 23.5387 24.5525C22.6157 25.4756 21.1387 25.4756 20.031 24.5525C20.031 24.5525 16.708 21.2294 14.308 18.8294L12.0926 19.9371L18.0003 25.8448L18.1849 26.0294L18.3695 26.214C20.2157 28.0602 23.3541 28.0602 25.2003 26.214C27.0464 24.3679 27.0464 21.2294 25.2003 19.3833L18.7387 13.291Z" fill="#00BBF7"/>
<path d="M14.8615 17.5373C14.8615 17.5373 15.4154 16.9835 15.2308 16.4296C15.2308 15.8758 14.3077 14.9527 13.0154 15.8758C13.0154 15.8758 10.8 16.9835 9.69231 15.8758L3.23077 9.41424C3.23077 9.41424 3.23077 9.41424 3.04615 9.22963C2.12308 8.30655 2.12308 6.82963 3.04615 5.90655C3.96923 4.98347 5.44615 4.98347 6.36923 5.90655C6.36923 5.90655 9.69231 9.22963 12.0923 11.6296L14.3077 10.5219L8.58461 4.42963L8.4 4.24501L8.21538 4.0604C6.36923 2.21424 3.23077 2.21424 1.38462 4.0604C-0.461538 5.90655 -0.461538 9.04501 1.38462 10.8912L7.66154 17.1681L8.03077 17.5373C9.87692 19.5681 12.8308 19.5681 14.8615 17.5373C14.8615 17.7219 14.8615 17.5373 14.8615 17.5373Z" fill="#00BBF7"/>
</svg>
