<svg width="90" height="90" viewBox="0 0 90 90" fill="none" xmlns="http://www.w3.org/2000/svg">
<circle cx="45" cy="45" r="42.5" stroke="#BCBCBC" stroke-width="5"/>
<path d="M67.8872 44.2732H27.6432L51.7305 23.4586C52.1156 23.1231 51.8818 22.5 51.3728 22.5H45.2856C45.0174 22.5 44.7629 22.5959 44.5634 22.767L18.5709 45.218C18.3328 45.4235 18.1419 45.6774 18.0111 45.9627C17.8802 46.248 17.8125 46.558 17.8125 46.8716C17.8125 47.1852 17.8802 47.4951 18.0111 47.7804C18.1419 48.0657 18.3328 48.3197 18.5709 48.5251L44.7148 71.1131C44.8179 71.2021 44.9417 71.25 45.0724 71.25H51.3659C51.8749 71.25 52.1088 70.6201 51.7236 70.2914L27.6432 49.4768H67.8872C68.1899 49.4768 68.4375 49.2303 68.4375 48.9291V44.8209C68.4375 44.5197 68.1899 44.2732 67.8872 44.2732Z" fill="#BCBCBC"/>
</svg>
