<svg width="588" height="237" viewBox="0 0 588 237" fill="none" xmlns="http://www.w3.org/2000/svg">
<path d="M441.993 57.5H5.5V231.5H582.5V52V5.5H447.493V52V57.5H441.993Z" fill="#424141" stroke="#BCBCBC" stroke-width="11"/>
<path d="M448 56L448 228" stroke="#BCBCBC" stroke-width="11"/>
<rect width="59" height="29" transform="matrix(-4.37114e-08 1 1 4.37114e-08 433 84)" fill="#424141"/>
<path d="M532.608 179.093C531.677 173.555 526.883 169.5 521.268 169.5L514.364 169.5C508.704 169.5 503.885 173.618 503.004 179.209L499.851 199.209C498.75 206.188 504.145 212.5 511.21 212.5L524.631 212.5C531.744 212.5 537.152 206.107 535.972 199.093L532.608 179.093Z" fill="#424141" stroke="#C4C4C4" stroke-width="3"/>
<path d="M527.628 185.22C526.822 180.473 522.709 177 517.894 177C513.041 177 508.907 180.528 508.145 185.321L507.176 191.404C506.124 198.015 511.232 204 517.927 204C524.667 204 529.787 197.937 528.659 191.293L527.628 185.22Z" fill="#424141" stroke="#C4C4C4" stroke-width="2"/>
<rect x="-1.5" y="1.5" width="37" height="14" rx="3.5" transform="matrix(-1 8.74228e-08 8.74228e-08 1 535 209)" fill="#424141" stroke="#BCBCBC" stroke-width="3"/>
<circle cx="517.5" cy="216.5" r="3.5" fill="#C4C4C4"/>
<rect x="488.5" y="36.5" width="27" height="59" transform="rotate(-90 488.5 36.5)" stroke="#BCBCBC" stroke-width="3"/>
<path d="M517.5 11.5C523.417 11.5 528.718 13.314 532.506 16.176C536.293 19.0373 538.5 22.8788 538.5 27C538.5 31.1212 536.293 34.9627 532.506 37.824C528.718 40.686 523.417 42.5 517.5 42.5C511.583 42.5 506.282 40.686 502.494 37.824C498.707 34.9627 496.5 31.1212 496.5 27C496.5 22.8788 498.707 19.0373 502.494 16.176C506.282 13.314 511.583 11.5 517.5 11.5Z" fill="#424141" stroke="#BCBCBC" stroke-width="3"/>
<rect x="517" y="27" width="18" height="3" transform="rotate(-90 517 27)" fill="#BCBCBC"/>
<circle cx="519" cy="19" r="4" transform="rotate(-90 519 19)" fill="#C4C4C4"/>
</svg>
