<svg width="588" height="237" viewBox="0 0 588 237" fill="none" xmlns="http://www.w3.org/2000/svg">
<path d="M441.993 179.5H5.5V5.5H582.5V185V231.5H447.493V185V179.5H441.993Z" fill="#424141" stroke="#BCBCBC" stroke-width="11"/>
<rect x="550.5" y="197.5" width="27" height="59" transform="rotate(90 550.5 197.5)" stroke="#BCBCBC" stroke-width="3"/>
<path d="M521.5 222.5C515.583 222.5 510.282 220.686 506.494 217.824C502.707 214.963 500.5 211.121 500.5 207C500.5 202.879 502.707 199.037 506.494 196.176C510.282 193.314 515.583 191.5 521.5 191.5C527.417 191.5 532.718 193.314 536.506 196.176C540.293 199.037 542.5 202.879 542.5 207C542.5 211.121 540.293 214.963 536.506 217.824C532.718 220.686 527.417 222.5 521.5 222.5Z" fill="#424141" stroke="#BCBCBC" stroke-width="3"/>
<rect x="522" y="207" width="18" height="3" transform="rotate(90 522 207)" fill="#BCBCBC"/>
<circle cx="521" cy="215" r="4" transform="rotate(90 521 215)" fill="#C4C4C4"/>
<path d="M448 181L448 9" stroke="#BCBCBC" stroke-width="11"/>
<rect x="433" y="153" width="59" height="29" transform="rotate(-90 433 153)" fill="#424141"/>
<path d="M532.608 57.9073C531.677 63.4448 526.883 67.5 521.268 67.5L514.364 67.5C508.704 67.5 503.885 63.3818 503.004 57.7911L499.851 37.7911C498.75 30.8118 504.145 24.5 511.21 24.5L524.631 24.5C531.744 24.5 537.152 30.8926 535.972 37.9073L532.608 57.9073Z" fill="#424141" stroke="#C4C4C4" stroke-width="3"/>
<path d="M527.628 51.7797C526.822 56.5267 522.709 60 517.894 60C513.041 60 508.907 56.4722 508.145 51.6791L507.176 45.5964C506.124 38.9853 511.232 33 517.927 33C524.667 33 529.787 39.0626 528.659 45.7074L527.628 51.7797Z" fill="#424141" stroke="#C4C4C4" stroke-width="2"/>
<rect x="536.5" y="26.5" width="37" height="14" rx="3.5" transform="rotate(-180 536.5 26.5)" fill="#424141" stroke="#BCBCBC" stroke-width="3"/>
<circle r="3.5" transform="matrix(1 8.74228e-08 8.74228e-08 -1 517.5 20.5)" fill="#C4C4C4"/>
</svg>
