<svg width="53" height="54" viewBox="0 0 53 54" fill="none" xmlns="http://www.w3.org/2000/svg">
<path d="M26.6129 22.2863C23.974 22.2863 21.8299 24.4304 21.8299 27.0693C21.8299 29.7082 23.974 31.8523 26.6129 31.8523C29.2518 31.8523 31.3959 29.7082 31.3959 27.0693C31.3959 24.4304 29.2518 22.2863 26.6129 22.2863Z" fill="#919191"/>
<path d="M26.6129 0.914062C12.1677 0.914062 0.457642 12.6241 0.457642 27.0693C0.457642 41.5145 12.1677 53.2245 26.6129 53.2245C41.058 53.2245 52.7681 41.5145 52.7681 27.0693C52.7681 12.6241 41.058 0.914062 26.6129 0.914062ZM40.8656 32.9793C40.7969 34.5049 40.5495 35.5495 40.1922 36.4566C39.8211 37.405 39.34 38.2021 38.5429 38.9993C37.7457 39.7964 36.9485 40.2912 36.0002 40.6486C35.0931 41.0059 34.0485 41.2396 32.5229 41.322C30.9973 41.3908 30.5025 41.4045 26.6129 41.4045C22.7233 41.4045 22.2285 41.3908 20.7029 41.322C19.1773 41.2533 18.1327 41.0059 17.2256 40.6486C16.2772 40.2775 15.4801 39.7964 14.6829 38.9993C13.8857 38.2021 13.3909 37.405 13.0336 36.4566C12.6762 35.5495 12.4426 34.5049 12.3601 32.9793C12.2914 31.4537 12.2777 30.9589 12.2777 27.0693C12.2777 23.1797 12.2914 22.6849 12.3601 21.1593C12.4289 19.6337 12.6762 18.5891 13.0336 17.682C13.4047 16.7337 13.8857 15.9365 14.6829 15.1393C15.4801 14.3422 16.2772 13.8474 17.2256 13.49C18.1327 13.1327 19.1773 12.899 20.7029 12.8166C22.2285 12.7478 22.7233 12.7341 26.6129 12.7341C30.5025 12.7341 30.9973 12.7478 32.5229 12.8166C34.0485 12.8853 35.0931 13.1327 36.0002 13.49C36.9485 13.8611 37.7457 14.3422 38.5429 15.1393C39.34 15.9365 39.8348 16.7337 40.1922 17.682C40.5495 18.5891 40.7832 19.6337 40.8656 21.1593C40.9343 22.6849 40.9481 23.1797 40.9481 27.0693C40.9481 30.9589 40.9343 31.4537 40.8656 32.9793Z" fill="#919191"/>
<path d="M37.7869 18.6166C37.5258 17.9431 37.2097 17.4758 36.7149 16.9673C36.2201 16.4587 35.739 16.1564 35.0656 15.8952C34.557 15.7028 33.8011 15.4692 32.3992 15.4004C30.8873 15.3317 30.4338 15.318 26.5991 15.318C22.7645 15.318 22.3109 15.3317 20.7991 15.4004C19.3972 15.4692 18.6412 15.7028 18.1327 15.8952C17.4592 16.1564 16.9919 16.4725 16.4834 16.9673C15.9886 17.4758 15.6725 17.9431 15.4114 18.6166C15.2189 19.1251 14.9853 19.881 14.9166 21.283C14.8478 22.7948 14.8341 23.2484 14.8341 27.083C14.8341 30.9177 14.8478 31.3712 14.9166 32.8831C14.9853 34.285 15.2189 35.0409 15.4114 35.5494C15.6725 36.2229 15.9886 36.6902 16.4834 37.1988C16.9919 37.6935 17.4592 38.0097 18.1327 38.2708C18.6412 38.4632 19.3972 38.6969 20.7991 38.7656C22.3109 38.8343 22.7645 38.8481 26.5991 38.8481C30.4338 38.8481 30.8873 38.8343 32.3992 38.7656C33.8011 38.6969 34.557 38.4632 35.0656 38.2708C35.739 38.0097 36.2063 37.6935 36.7149 37.1988C37.2234 36.6902 37.5258 36.2229 37.7869 35.5494C37.9794 35.0409 38.213 34.285 38.2817 32.8831C38.3504 31.3712 38.3642 30.9177 38.3642 27.083C38.3642 23.2484 38.3504 22.7948 38.2817 21.283C38.2267 19.881 37.9931 19.1114 37.7869 18.6166ZM26.6129 34.4362C22.5446 34.4362 19.246 31.1376 19.246 27.0693C19.246 23.001 22.5446 19.7024 26.6129 19.7024C30.6812 19.7024 33.9798 23.001 33.9798 27.0693C33.9798 31.1376 30.6812 34.4362 26.6129 34.4362ZM34.2684 21.1318C33.3201 21.1318 32.5504 20.3621 32.5504 19.4137C32.5504 18.4654 33.3201 17.6957 34.2684 17.6957C35.2168 17.6957 35.9864 18.4654 35.9864 19.4137C35.9864 20.3621 35.2168 21.1318 34.2684 21.1318Z" fill="#919191"/>
</svg>
