<svg xmlns="http://www.w3.org/2000/svg" viewBox="0 0 109 42" width="109" height="42">
	<style>
		tspan { white-space:pre }
		.shp0 { fill: #ffffff } 
		.shp1 { fill: #00c3ff } 
	</style>
	<path id="Layer" fill-rule="evenodd" class="shp0" d="M99.79 35.7C99.93 35.7 99.93 35.7 100.07 35.83L102.68 38.17L102.68 35.83C102.68 35.7 102.81 35.7 102.95 35.7C103.09 35.7 103.23 35.7 103.23 35.83L103.23 38.58C103.23 38.72 103.09 38.72 102.95 38.72L102.81 38.72C102.81 38.72 102.81 38.72 102.68 38.58L100.07 36.25L100.07 38.58C100.07 38.72 99.93 38.72 99.79 38.72C99.65 38.72 99.52 38.72 99.52 38.58L99.52 35.83C99.52 35.7 99.65 35.7 99.79 35.7ZM98.28 35.83C98.28 35.7 98.42 35.7 98.55 35.7C98.69 35.7 98.83 35.7 98.83 35.83L98.83 38.58C98.83 38.72 98.69 38.72 98.55 38.72C98.42 38.72 98.28 38.72 98.28 38.58L98.28 35.83ZM96.9 36.52L95.25 38.72C95.25 38.72 95.25 38.72 95.12 38.86L94.84 38.86C94.84 38.86 94.7 38.86 94.7 38.72L93.06 36.52L93.06 38.58C93.06 38.72 92.92 38.72 92.78 38.72C92.64 38.72 92.51 38.72 92.51 38.58L92.51 35.83C92.51 35.7 92.64 35.7 92.78 35.7L92.92 35.7C92.92 35.7 93.06 35.7 93.06 35.83L94.84 38.31L96.63 35.83C96.63 35.83 96.63 35.7 96.77 35.7C96.9 35.7 96.9 35.7 96.9 35.7C97.04 35.7 97.18 35.7 97.18 35.83L97.18 38.58C97.18 38.72 97.04 38.72 96.9 38.72C96.77 38.72 96.63 38.72 96.63 38.58L96.9 36.52ZM91.13 37.9L88.93 37.9L88.52 38.58C88.52 38.72 88.38 38.72 88.24 38.72C88.11 38.72 88.11 38.72 88.11 38.72C88.11 38.72 88.11 38.58 88.11 38.45L89.76 35.83C89.76 35.83 89.76 35.7 89.89 35.7L90.03 35.7C90.17 35.7 90.17 35.7 90.31 35.83L91.96 38.45C91.96 38.45 91.96 38.58 91.96 38.72L91.82 38.72C91.68 38.72 91.68 38.72 91.54 38.58L91.13 37.9ZM89.21 37.62L90.99 37.62L90.17 36.25L89.21 37.62ZM81.1 38.58C80.96 38.58 80.82 38.72 80.68 38.72C80.55 38.72 79.31 38.72 79.04 38.72C78.35 38.72 77.94 38.45 77.94 38.03L77.94 37.76C77.94 37.62 77.94 37.48 78.07 37.35C78.21 37.21 78.35 37.21 78.49 37.07L78.76 37.07L78.49 36.93C78.35 36.93 78.35 36.8 78.35 36.8C78.35 36.66 78.35 36.38 78.35 36.25C78.35 35.83 78.62 35.7 79.31 35.7L79.86 35.7C80.55 35.7 80.82 35.83 80.82 36.25L80.82 36.52C80.82 36.8 80.68 36.93 80.41 37.07L79.72 37.21L81.1 38.03C81.1 37.9 81.1 37.48 81.1 37.35C81.1 37.21 81.23 37.21 81.37 37.21C81.51 37.21 81.65 37.21 81.65 37.35L81.65 37.76C81.65 38.03 81.65 38.17 81.51 38.31L81.78 38.45C81.78 38.45 81.92 38.45 81.92 38.58C81.92 38.58 81.92 38.72 81.92 38.86C81.92 38.86 81.65 38.86 81.51 38.86L81.1 38.58ZM80.27 38.45C80.41 38.45 80.68 38.45 80.68 38.31L79.17 37.35L78.9 37.48C78.76 37.48 78.62 37.62 78.62 37.76L78.62 38.03C78.62 38.31 78.76 38.31 79.17 38.31L80.27 38.45ZM79.04 36.8L79.45 37.07L80.27 36.8C80.41 36.8 80.55 36.66 80.55 36.52L80.55 36.38C80.55 36.25 80.41 36.11 80 36.11L79.45 36.11C79.17 36.11 78.9 36.25 78.9 36.38L78.9 36.52C78.9 36.66 78.9 36.66 79.04 36.8ZM72.85 37.62L72.85 38.72C72.85 38.86 72.71 38.86 72.58 38.86C72.44 38.86 72.3 38.86 72.3 38.72L72.3 35.97C72.3 35.83 72.3 35.83 72.44 35.83L74.5 35.83C75.32 35.83 75.87 36.11 75.87 36.52L75.87 36.8C75.87 37.35 75.46 37.48 74.5 37.48L73.54 37.48L75.46 38.45C75.6 38.45 75.6 38.58 75.6 38.58L75.6 38.72C75.6 38.72 75.46 38.72 75.32 38.72C75.32 38.72 75.32 38.72 75.19 38.72L72.85 37.62ZM72.85 37.21L74.64 37.21C75.19 37.21 75.46 37.07 75.46 36.8L75.46 36.52C75.46 36.25 75.19 36.11 74.64 36.11L72.85 36.11L72.85 37.21ZM70.79 37.9L68.59 37.9L68.18 38.58C68.18 38.72 68.04 38.72 67.9 38.72C67.76 38.72 67.76 38.72 67.76 38.72C67.76 38.72 67.76 38.58 67.76 38.45L69.41 35.83C69.41 35.83 69.41 35.7 69.55 35.7L69.69 35.7C69.83 35.7 69.83 35.7 69.96 35.83L71.61 38.45C71.61 38.45 71.61 38.45 71.61 38.58L71.61 38.72L71.48 38.72C71.34 38.72 71.34 38.72 71.2 38.58L70.79 37.9ZM68.86 37.62L70.65 37.62L69.83 36.25L68.86 37.62ZM67.21 38.17C67.21 38.58 66.8 38.86 66.11 38.86L63.92 38.86C63.78 38.86 63.78 38.86 63.78 38.72L63.78 35.97C63.78 35.83 63.92 35.83 63.92 35.83L66.11 35.83C66.8 35.83 67.21 36.11 67.21 36.52L67.21 36.8C67.21 37.07 67.08 37.21 66.8 37.35C67.08 37.48 67.21 37.62 67.21 37.9L67.21 38.17ZM66.8 37.76C66.8 37.48 66.53 37.35 66.11 37.35L64.19 37.35L64.19 38.31L66.11 38.31C66.53 38.31 66.8 38.17 66.8 37.9L66.8 37.76ZM66.66 36.52C66.66 36.25 66.39 36.11 65.98 36.11L64.19 36.11L64.19 37.07L66.11 37.07C66.53 37.07 66.8 36.93 66.8 36.66L66.66 36.52ZM61.44 38.03C61.44 38.45 61.03 38.72 60.2 38.72L58.42 38.72C58.28 38.72 58.14 38.72 58.14 38.58C58.14 38.45 58.28 38.45 58.42 38.45L60.2 38.45C60.75 38.45 61.03 38.31 61.03 38.03L61.03 37.76C61.03 37.48 60.75 37.35 60.2 37.35L59.38 37.35C58.55 37.35 58.14 37.07 58.14 36.66L58.14 36.38C58.14 35.97 58.55 35.7 59.38 35.7L59.79 35.7C59.93 35.7 60.07 35.7 60.07 35.83C60.07 35.97 59.93 36.11 59.79 36.11L59.38 36.11C58.83 36.11 58.69 36.25 58.69 36.38L58.69 36.66C58.69 36.93 58.97 36.93 59.38 36.93L60.2 36.93C61.03 36.93 61.44 37.21 61.44 37.62L61.44 38.03ZM55.81 36.11L54.57 36.11C54.43 36.11 54.29 36.11 54.29 35.97C54.29 35.83 54.43 35.83 54.57 35.83L57.32 35.83C57.46 35.83 57.59 35.83 57.59 35.97C57.59 36.11 57.46 36.11 57.32 36.11L56.22 36.11L56.22 38.72C56.22 38.86 56.08 38.86 55.94 38.86C55.81 38.86 55.67 38.86 55.67 38.72L55.81 36.11ZM50.72 37.62L50.72 38.72C50.72 38.86 50.58 38.86 50.45 38.86C50.31 38.86 50.17 38.86 50.17 38.72L50.17 35.97C50.17 35.83 50.17 35.83 50.31 35.83L52.37 35.83C53.19 35.83 53.74 36.11 53.74 36.52L53.74 36.8C53.74 37.35 53.33 37.48 52.37 37.48L51.41 37.48L53.33 38.45C53.47 38.45 53.47 38.58 53.47 38.58L53.47 38.72C53.47 38.72 53.33 38.72 53.19 38.72C53.19 38.72 53.19 38.72 53.06 38.72L50.72 37.62ZM50.72 37.21L52.51 37.21C53.06 37.21 53.33 37.07 53.33 36.8L53.33 36.52C53.33 36.25 53.06 36.11 52.51 36.11L50.72 36.11L50.72 37.21ZM47.28 38.72C46.46 38.72 46.05 38.45 46.05 37.9L46.05 36.52C46.05 35.97 46.46 35.7 47.28 35.7L48.25 35.7C49.07 35.7 49.48 35.97 49.48 36.52L49.48 37.9C49.48 38.45 49.07 38.72 48.25 38.72L47.28 38.72ZM48.93 36.52C48.93 36.25 48.66 35.97 48.11 35.97L47.15 35.97C46.6 35.97 46.32 36.11 46.32 36.52L46.32 37.9C46.32 38.17 46.6 38.45 47.15 38.45L48.11 38.45C48.66 38.45 48.93 38.31 48.93 37.9L48.93 36.52ZM45.36 36.93C45.36 37.48 44.95 37.76 43.98 37.76L42.2 37.76L42.2 38.58C42.2 38.72 42.06 38.72 41.92 38.72C41.79 38.72 41.65 38.72 41.65 38.58L41.65 35.83C41.65 35.7 41.65 35.7 41.79 35.7L43.98 35.7C44.81 35.7 45.36 35.97 45.36 36.52L45.36 36.93ZM42.2 37.48L43.98 37.48C44.53 37.48 44.81 37.35 44.81 36.93L44.81 36.66C44.81 36.38 44.53 36.11 43.98 36.11L42.2 36.11L42.2 37.48ZM40.96 38.03C40.96 38.45 40.55 38.72 39.72 38.72L37.94 38.72C37.8 38.72 37.66 38.72 37.66 38.58C37.66 38.45 37.8 38.45 37.94 38.45L39.72 38.45C40.27 38.45 40.55 38.31 40.55 38.03L40.55 37.76C40.55 37.48 40.27 37.35 39.72 37.35L38.9 37.35C38.07 37.35 37.66 37.07 37.66 36.66L37.66 36.38C37.66 35.97 38.07 35.7 38.9 35.7L39.31 35.7C39.45 35.7 39.59 35.7 39.59 35.83C39.59 35.97 39.59 36.11 39.45 36.11L39.04 36.11C38.49 36.11 38.35 36.25 38.35 36.38L38.35 36.66C38.35 36.93 38.62 36.93 39.04 36.93L39.86 36.93C40.69 36.93 41.1 37.21 41.1 37.62L41.1 38.03L40.96 38.03ZM35.05 38.31C35.05 38.45 35.19 38.58 35.46 38.58L36.01 38.58C36.15 38.58 36.15 38.58 36.15 38.72C36.15 38.86 36.15 38.86 36.01 38.86L35.46 38.86C34.91 38.86 34.64 38.72 34.64 38.31L34.64 37.62C34.64 37.35 34.91 37.07 35.33 37.07L36.29 37.07C36.84 37.07 36.97 37.21 36.97 37.48L36.97 37.9C36.97 38.03 36.97 38.03 36.84 38.03L35.05 38.03L35.05 38.31ZM107.35 37.35L107.35 38.17C107.35 38.72 106.94 39 106.11 39L105.15 39C104.33 39 103.91 38.72 103.91 38.17L103.91 36.8C103.91 36.25 104.33 35.97 105.15 35.97L105.7 35.97C105.84 35.97 105.98 35.97 105.98 36.11C105.98 36.25 105.84 36.25 105.7 36.25L105.15 36.25C104.6 36.25 104.33 36.38 104.33 36.66L104.33 38.03C104.33 38.45 104.6 38.58 105.15 38.58L106.11 38.58C106.66 38.58 106.94 38.45 106.94 38.03L106.94 37.35L105.7 37.35L105.7 36.93L107.08 36.93C107.35 36.93 107.35 36.93 107.35 37.35ZM87.69 37.35L87.69 38.17C87.69 38.72 87.28 39 86.46 39L85.5 39C84.67 39 84.26 38.72 84.26 38.17L84.26 36.8C84.26 36.25 84.67 35.97 85.5 35.97L86.05 35.97C86.18 35.97 86.32 35.97 86.32 36.11C86.32 36.25 86.18 36.25 86.05 36.25L85.5 36.25C84.95 36.25 84.67 36.38 84.67 36.66L84.67 38.03C84.67 38.45 84.95 38.58 85.5 38.58L86.46 38.58C87.01 38.58 87.28 38.45 87.28 38.03L87.28 37.35L86.05 37.35L86.05 36.93L87.42 36.93C87.56 36.93 87.56 36.93 87.69 37.35ZM36.7 37.76L36.7 37.62C36.7 37.48 36.56 37.35 36.29 37.35L35.33 37.35C35.05 37.35 34.91 37.48 34.91 37.62L34.91 37.76L36.7 37.76Z" />
	<path id="Layer" class="shp1" d="M72.85 5.32L72.85 8.34C75.74 9.99 77.8 13.15 77.8 16.73C77.8 21.95 73.54 26.21 68.31 26.21C63.09 26.21 58.83 21.95 58.83 16.73C58.83 13.15 60.89 9.99 63.78 8.34L63.78 5.32C59.24 7.11 56.08 11.5 56.08 16.73C56.08 23.46 61.58 28.96 68.31 28.96C75.05 28.96 80.55 23.46 80.55 16.73C80.55 11.5 77.39 7.11 72.85 5.32Z" />
	<path id="Layer" class="shp1" d="M69.69 0.51L66.94 0.51L66.94 11.5L69.69 11.5L69.69 0.51Z" />
	<path id="Layer" fill-rule="evenodd" class="shp0" d="M0 27.72L3.16 27.72L3.02 13.29L19.93 27.72L22.4 27.72L22.4 8.89L19.24 8.89L19.52 23.33L2.47 8.89L0 8.89L0 27.72Z" />
	<path id="Layer" fill-rule="evenodd" class="shp0" d="M98.42 16.87L100.07 14.8L86.6 8.62L94.84 20.99L96.63 18.93L106.8 27.45L109 27.45L109 25.8L98.42 16.87Z" />
	<path id="Layer" class="shp0" d="M109 8.76L105.98 8.76L105.98 21.54L109 24.01L109 8.76Z" />
	<path id="Layer" class="shp0" d="M86.73 11.37L86.73 27.59L89.76 27.59L89.76 15.49L86.73 11.37Z" />
	<path id="Layer" class="shp0" d="M40.14 7.24C34.09 7.24 29.14 12.19 29.14 18.24C29.14 24.29 34.09 29.24 40.14 29.24C44.53 29.24 48.38 26.62 50.17 22.78L47.01 22.78C45.5 24.98 43.02 26.49 40.14 26.49C35.6 26.49 31.89 22.78 31.89 18.24C31.89 13.7 35.6 9.99 40.14 9.99C44.4 9.99 47.83 13.15 48.38 17.28L39.17 17.28L33.81 20.03L48.11 20.03L48.66 20.03L50.99 20.03C51.13 19.48 51.13 18.79 51.13 18.24C51.13 12.05 46.18 7.24 40.14 7.24Z" />
</svg>