<svg width="270" height="353" viewBox="0 0 270 353" fill="none" xmlns="http://www.w3.org/2000/svg">
<path d="M136.624 219.099L154.565 175.55L172.505 219.099H136.624Z" fill="#00C0FF"/>
<path d="M104.776 46.775L108.763 35.4844L112.749 46.775H104.776Z" fill="#FF00C7" fill-opacity="0.39"/>
<path d="M127.072 235.246L125.429 212.887L139.121 226.772L127.072 235.246Z" fill="#00C0FF"/>
<path d="M73.4194 161.959L65.0825 145.302L80.9041 148.631L73.4194 161.959Z" fill="#00C0FF" fill-opacity="0.25"/>
<path d="M91.6448 31.6238L89.8458 27.4049L93.26 28.248L91.6448 31.6238Z" fill="#00C0FF"/>
<path d="M96.9417 224.881L91.3581 220.022L97.0899 217.747L96.9417 224.881Z" fill="#00C0FF"/>
<path d="M59.051 352.617L52.0013 315.538L72.2155 330.394L59.051 352.617Z" fill="#00C0FF" fill-opacity="0.25"/>
<path d="M235.353 330.035L216.933 292.956L269.749 307.812L235.353 330.035Z" fill="#00C0FF"/>
<path d="M126.59 74.1952L122.615 64.8039L134.013 68.5666L126.59 74.1952Z" fill="#00C0FF"/>
<path d="M178.657 256.077L166.273 245.227L186.05 239.155L178.657 256.077Z" fill="#FF00C7"/>
<path d="M162.35 67.1217L157.071 38.747L188.868 48.5508L162.35 67.1217Z" fill="#00C0FF" fill-opacity="0.62"/>
<path d="M103.577 9.94794L102.437 2.76116L109.299 5.24428L103.577 9.94794Z" fill="#FF00C7" fill-opacity="0.39"/>
<path d="M100.251 177.41L93.6489 167.086L105.704 163.78L100.251 177.41Z" fill="#FF00C7" fill-opacity="0.24"/>
<path d="M32.6193 133.452L23.7617 129.205L33.5301 118.727L32.6193 133.452Z" fill="#00C0FF"/>
<path d="M11.738 275.202L0.997146 262.208L16.5066 246.781L11.738 275.202Z" fill="#FF00C7" fill-opacity="0.24"/>
<path d="M96.9511 248.058L85.0083 252.762L91.9861 236.173L96.9511 248.058Z" fill="#FF00C7" fill-opacity="0.51"/>
<path d="M99.9136 54.5873L93.8576 51.2961L102.602 47.3887L99.9136 54.5873Z" fill="#00C0FF" fill-opacity="0.25"/>
<path d="M125.03 252.954L113.644 254.106L124.205 238.542L125.03 252.954Z" fill="#00C0FF"/>
</svg>
