<svg width="54" height="54" viewBox="0 0 54 54" fill="none" xmlns="http://www.w3.org/2000/svg">
<g clip-path="url(#clip0)">
<path d="M27.4577 53.9988C42.1182 53.9988 54 42.117 54 27.4564C54 12.7959 42.1182 0.914062 27.4577 0.914062C12.7971 0.914062 0.915283 12.7959 0.915283 27.4564C0.915283 42.117 12.7971 53.9988 27.4577 53.9988ZM13.0563 26.8862L38.6552 17.0157C39.8476 16.5907 40.8844 17.3061 40.4904 19.0997L36.1358 39.6286C35.8144 41.0801 34.9434 41.443 33.7407 40.7484L27.1051 35.8546L23.9014 38.9339C23.5489 39.2865 23.2482 39.5871 22.5639 39.5871L23.0305 32.8375L35.3374 21.7332C35.8766 21.2667 35.213 20.9971 34.508 21.4637L19.3083 31.0334L12.7557 28.9909C11.3352 28.5347 11.3041 27.5705 13.0563 26.8862Z" fill="#909090"/>
</g>
<defs>
<clipPath id="clip0">
<rect width="53.0847" height="53.0847" fill="white" transform="translate(0.915283 0.914062)"/>
</clipPath>
</defs>
</svg>
