<svg width="37" height="37" viewBox="0 0 37 37" fill="none" xmlns="http://www.w3.org/2000/svg">
<g clip-path="url(#clip0)">
<path d="M18.0424 36.0847C28.008 36.0847 36.0847 28.008 36.0847 18.0424C36.0847 8.07678 28.008 0 18.0424 0C8.07678 0 0 8.07678 0 18.0424C0 28.008 8.07678 36.0847 18.0424 36.0847ZM8.25298 17.6547L25.654 10.9452C26.4645 10.6563 27.1693 11.1426 26.9015 12.3618L23.9414 26.3165C23.7229 27.3032 23.1309 27.5499 22.3133 27.0777L17.8027 23.7511L15.625 25.8443C15.3854 26.0839 15.181 26.2883 14.7158 26.2883L15.033 21.7002L23.3987 14.152C23.7652 13.8348 23.3141 13.6516 22.8349 13.9687L12.5028 20.4739L8.04859 19.0854C7.08304 18.7753 7.0619 18.1199 8.25298 17.6547Z" fill="#00BBF7"/>
</g>
<defs>
<clipPath id="clip0">
<rect width="36.0847" height="36.0847" fill="white"/>
</clipPath>
</defs>
</svg>
