<svg width="40" height="29" viewBox="0 0 40 29" fill="none" xmlns="http://www.w3.org/2000/svg">
<path d="M19.6631 23.0426C19.7031 23.0942 19.7542 23.136 19.8126 23.1647C19.871 23.1934 19.9351 23.2083 20 23.2083C20.0649 23.2083 20.129 23.1934 20.1874 23.1647C20.2457 23.136 20.2969 23.0942 20.3369 23.0426L26.3262 15.394C26.5455 15.1134 26.3476 14.6977 25.9893 14.6977H22.0267V0.431818C22.0267 0.194318 21.8342 0 21.5989 0H18.3904C18.1551 0 17.9626 0.194318 17.9626 0.431818V14.6923H14.0107C13.6524 14.6923 13.4545 15.108 13.6738 15.3886L19.6631 23.0426ZM39.5722 16.1534H36.3636C36.1283 16.1534 35.9358 16.3477 35.9358 16.5852V24.8977H4.06417V16.5852C4.06417 16.3477 3.87166 16.1534 3.63636 16.1534H0.427807C0.192513 16.1534 0 16.3477 0 16.5852V27.2727C0 28.2281 0.764706 29 1.71123 29H38.2888C39.2353 29 40 28.2281 40 27.2727V16.5852C40 16.3477 39.8075 16.1534 39.5722 16.1534Z" fill="#00C0FF"/>
</svg>
