<svg width="71" height="89" viewBox="0 0 71 89" fill="none" xmlns="http://www.w3.org/2000/svg">
<rect y="46" width="71" height="43" fill="#86DCF8"/>
<path d="M18.829 23.5108C17.8802 18.577 21.6608 14 26.685 14H46.4964C51.4602 14 55.2258 18.4733 54.3792 23.3643L52.6485 33.3643C51.9848 37.1992 48.6576 40 44.7657 40H28.6081C24.7724 40 21.4764 37.2775 20.7521 33.5108L18.829 23.5108Z" fill="#86DCF8"/>
<path d="M17 7C17 3.13401 20.134 0 24 0H49C52.866 0 56 3.13401 56 7C56 10.866 52.866 14 49 14H24C20.134 14 17 10.866 17 7Z" fill="#86DCF8"/>
</svg>
