<svg width="53" height="53" viewBox="0 0 53 53" fill="none" xmlns="http://www.w3.org/2000/svg">
<path d="M26.5 0C11.8629 0 0 11.8629 0 26.5C0 41.1371 11.8629 53 26.5 53C41.1371 53 53 41.1371 53 26.5C53 11.8629 41.1371 0 26.5 0ZM27.059 41.9342C24.3986 41.9342 21.79 41.2717 19.4713 40.0088L11.0658 42.2137L13.3121 33.9945C11.925 31.593 11.19 28.8602 11.19 26.0652C11.19 17.3182 18.3119 10.2066 27.0486 10.2066C31.2928 10.2066 35.2781 11.8629 38.2697 14.8545C41.2613 17.8564 42.9176 21.8314 42.9072 26.0756C42.9176 34.8123 35.8061 41.9342 27.059 41.9342Z" fill="#909090"/>
<path d="M27.0692 12.8877C19.8024 12.8877 13.8813 18.7984 13.8813 26.0652C13.8813 28.56 14.5749 30.9822 15.8999 33.0836L16.2104 33.5805L14.8751 38.4457L19.8645 37.1414L20.3511 37.4312C22.38 38.632 24.6987 39.2635 27.0589 39.2635H27.0692C34.336 39.2635 40.2468 33.3527 40.2571 26.0859C40.2571 22.5664 38.8907 19.2539 36.396 16.7592C33.9013 14.2645 30.5888 12.8877 27.0692 12.8877ZM34.8226 31.7275C34.4913 32.6488 32.9075 33.4977 32.1519 33.6115C31.4687 33.715 30.6095 33.7564 29.6571 33.4562C29.0774 33.2699 28.3425 33.0318 27.4005 32.6178C23.4255 30.8994 20.8272 26.9037 20.6306 26.6346C20.4339 26.3654 19.0157 24.4814 19.0157 22.5354C19.0157 20.5893 20.0405 19.6266 20.4028 19.2332C20.7651 18.8398 21.1999 18.7363 21.4587 18.7363C21.7175 18.7363 21.9866 18.7363 22.2144 18.7467C22.4628 18.757 22.7837 18.6535 23.1046 19.4299C23.4358 20.227 24.2226 22.173 24.3261 22.3697C24.4296 22.5664 24.4917 22.8045 24.3571 23.0633C24.2226 23.3324 23.7878 23.9018 23.3634 24.4193C23.1874 24.6367 22.9597 24.8334 23.1874 25.2268C23.4151 25.6201 24.2122 26.9244 25.3923 27.9699C26.9036 29.3156 28.1872 29.74 28.5806 29.9367C28.9739 30.1334 29.212 30.1023 29.4397 29.8332C29.6675 29.5641 30.4335 28.6738 30.6923 28.2805C30.9511 27.8871 31.2202 27.9492 31.5825 28.0838C31.9448 28.2184 33.8909 29.1707 34.2946 29.3674C34.688 29.5641 34.9571 29.6676 35.0503 29.8332C35.1538 30.0092 35.1538 30.8062 34.8226 31.7275Z" fill="#909090"/>
</svg>
