<svg width="37" height="37" viewBox="0 0 37 37" fill="none" xmlns="http://www.w3.org/2000/svg">
<path d="M18.5 0C8.28164 0 0 8.28164 0 18.5C0 28.7184 8.28164 37 18.5 37C28.7184 37 37 28.7184 37 18.5C37 8.28164 28.7184 0 18.5 0ZM18.8902 29.2748C17.033 29.2748 15.2119 28.8123 13.5932 27.9307L7.7252 29.4699L9.29336 23.732C8.325 22.0555 7.81191 20.1477 7.81191 18.1965C7.81191 12.09 12.7838 7.12539 18.883 7.12539C21.8459 7.12539 24.6281 8.28164 26.7166 10.3701C28.8051 12.4658 29.9613 15.2408 29.9541 18.2037C29.9613 24.3029 24.9967 29.2748 18.8902 29.2748Z" fill="#4AC959"/>
<path d="M18.898 8.99707C13.825 8.99707 9.69141 13.1234 9.69141 18.1965C9.69141 19.9381 10.1756 21.6291 11.1006 23.0961L11.3174 23.443L10.3852 26.8395L13.8684 25.9289L14.208 26.1312C15.6244 26.9695 17.2432 27.4103 18.8908 27.4103H18.898C23.9711 27.4103 28.0975 23.284 28.1047 18.2109C28.1047 15.7539 27.1508 13.4414 25.4092 11.6998C23.6676 9.9582 21.3551 8.99707 18.898 8.99707ZM24.3107 22.1494C24.0795 22.7926 22.9738 23.3852 22.4463 23.4646C21.9693 23.5369 21.3695 23.5658 20.7047 23.3562C20.3 23.2262 19.7869 23.06 19.1293 22.7709C16.3543 21.5713 14.5404 18.7818 14.4031 18.5939C14.2658 18.4061 13.2758 17.0908 13.2758 15.7322C13.2758 14.3736 13.9912 13.7016 14.2441 13.427C14.4971 13.1523 14.8006 13.0801 14.9812 13.0801C15.1619 13.0801 15.3498 13.0801 15.5088 13.0873C15.6822 13.0945 15.9062 13.0223 16.1303 13.5643C16.3615 14.1207 16.9107 15.4793 16.983 15.6166C17.0553 15.7539 17.0986 15.9201 17.0047 16.1008C16.9107 16.2887 16.6072 16.6861 16.3109 17.0475C16.1881 17.1992 16.0291 17.3365 16.1881 17.6111C16.3471 17.8857 16.9035 18.7963 17.7273 19.5262C18.7824 20.4656 19.6785 20.7619 19.9531 20.8992C20.2277 21.0365 20.3939 21.0148 20.5529 20.827C20.7119 20.6391 21.2467 20.0176 21.4273 19.743C21.608 19.4684 21.7959 19.5117 22.0488 19.6057C22.3018 19.6996 23.6603 20.3645 23.9422 20.5018C24.2168 20.6391 24.4047 20.7113 24.4697 20.827C24.542 20.9498 24.542 21.5062 24.3107 22.1494Z" fill="#4AC959"/>
</svg>
