<svg width="53" height="54" viewBox="0 0 53 54" fill="none" xmlns="http://www.w3.org/2000/svg">
<path d="M26.1552 0.914062C11.7101 0.914062 -5.64669e-09 12.6241 -1.26123e-08 27.0693C-1.95778e-08 41.5145 11.7101 53.2245 26.1552 53.2245C40.6004 53.2245 52.3105 41.5145 52.3105 27.0693C52.3105 12.6241 40.6004 0.914062 26.1552 0.914062ZM41.3838 34.7661C41.0127 36.1405 39.9407 37.2263 38.58 37.5974C36.1061 38.2708 26.169 38.2708 26.169 38.2708C26.169 38.2708 16.2319 38.2708 13.758 37.5974C12.3698 37.2263 11.2977 36.1405 10.9267 34.7661C10.2669 32.2784 10.2669 27.0693 10.2669 27.0693C10.2669 27.0693 10.2669 21.8602 10.9267 19.3725C11.2977 17.9981 12.3698 16.9123 13.7305 16.5412C16.2044 15.8678 26.1415 15.8678 26.1415 15.8678C26.1415 15.8678 36.0786 15.8678 38.5525 16.5412C39.9132 16.9123 40.999 17.9981 41.3563 19.3725C42.0161 21.8602 42.0161 27.0693 42.0161 27.0693C42.0161 27.0693 42.0436 32.2784 41.3838 34.7661Z" fill="#919191"/>
<path d="M21.8808 33.2954L32.8212 27.0693L21.8808 20.8432L21.8808 33.2954Z" fill="#919191"/>
</svg>
