<svg width="18" height="15" viewBox="0 0 18 15" fill="none" xmlns="http://www.w3.org/2000/svg">
<path fill-rule="evenodd" clip-rule="evenodd" d="M6.68125 14.7091C7.02379 15.0693 7.59346 15.0836 7.95364 14.741C8.31381 14.3985 8.3281 13.8288 7.98555 13.4687L3.59802 8.85537L16.5 8.85537C16.9971 8.85537 17.4 8.45242 17.4 7.95537C17.4 7.45831 16.9971 7.05537 16.5 7.05537L3.5981 7.05537L7.98555 2.44216C8.3281 2.08199 8.31381 1.51232 7.95364 1.16977C7.59346 0.827222 7.02379 0.84151 6.68124 1.20168L0.85482 7.3279C0.697135 7.49002 0.600025 7.71135 0.600025 7.95537C0.600025 8.10166 0.634942 8.2398 0.69688 8.36192C0.706546 8.381 0.716934 8.39982 0.728048 8.41832C0.746618 8.44924 0.767209 8.47928 0.789821 8.50827C0.807893 8.53144 0.827257 8.55393 0.847911 8.57565M6.68125 14.7091L0.849876 8.57771L6.68125 14.7091Z" fill="#151D56"/>
</svg>
