<svg width="20" height="16" viewBox="0 0 20 16" fill="none" xmlns="http://www.w3.org/2000/svg">
<path fill-rule="evenodd" clip-rule="evenodd" d="M12.5303 0.46967C12.2374 0.176777 11.7625 0.176777 11.4696 0.46967C11.1767 0.762563 11.1767 1.23744 11.4696 1.53033L17.1893 7.25005H1C0.585786 7.25005 0.25 7.58583 0.25 8.00005C0.25 8.41426 0.585786 8.75005 1 8.75005H17.1892L11.4696 14.4697C11.1767 14.7626 11.1767 15.2374 11.4696 15.5303C11.7625 15.8232 12.2374 15.8232 12.5303 15.5303L19.5223 8.53828C19.6627 8.40198 19.75 8.2112 19.75 8.00005C19.75 7.87724 19.7205 7.76132 19.6682 7.65901C19.6421 7.60798 19.6098 7.55932 19.5713 7.51414C19.5571 7.49748 19.5422 7.48144 19.5267 7.46608L12.5303 0.46967Z" fill="#16C9E6"/>
</svg>
