<svg width="30" height="24" viewBox="0 0 30 24" fill="none" xmlns="http://www.w3.org/2000/svg">
<path d="M6.80162 11.6599C8.42105 11.7895 9.74899 12.4049 10.7854 13.5061C11.8219 14.6073 12.3401 16 12.3401 17.6842C12.3401 19.498 11.7571 21.0202 10.5911 22.251C9.48988 23.417 8.09717 24 6.41296 24C4.46964 24 2.91498 23.2874 1.74899 21.8623C0.582996 20.3725 0 18.2348 0 15.4494C0 9.87854 1.87854 5.11741 5.63563 1.16599C6.41295 0.388663 7.22267 0 8.06478 0C8.90688 0 9.61943 0.291498 10.2024 0.874494C10.8502 1.39271 11.1741 2.07287 11.1741 2.91498C11.1741 3.56275 10.8826 4.24292 10.2996 4.95546C8.48583 6.83401 7.31984 9.06882 6.80162 11.6599ZM24.0972 11.6599C25.7166 11.7895 27.0445 12.4049 28.081 13.5061C29.1174 14.6073 29.6356 16 29.6356 17.6842C29.6356 19.498 29.0526 21.0202 27.8866 22.251C26.7854 23.417 25.3927 24 23.7085 24C21.7652 24 20.2105 23.2874 19.0445 21.8623C17.8785 20.3725 17.2955 18.2348 17.2955 15.4494C17.2955 9.87854 19.1741 5.11741 22.9312 1.16599C23.7085 0.388663 24.5182 0 25.3603 0C26.2024 0 26.915 0.291498 27.498 0.874494C28.1457 1.39271 28.4696 2.07287 28.4696 2.91498C28.4696 3.56275 28.1781 4.24292 27.5951 4.95546C25.7814 6.83401 24.6154 9.06882 24.0972 11.6599Z" fill="#D4D4D4"/>
</svg>
