<svg width="20" height="17" viewBox="0 0 20 17" fill="none" xmlns="http://www.w3.org/2000/svg">
<path d="M7.75 15.8334C8.44036 15.8334 9 15.2737 9 14.5834C9 13.893 8.44036 13.3334 7.75 13.3334C7.05964 13.3334 6.5 13.893 6.5 14.5834C6.5 15.2737 7.05964 15.8334 7.75 15.8334Z" stroke="#151D56" stroke-linecap="round" stroke-linejoin="round"/>
<path d="M16.416 15.8334C17.1064 15.8334 17.666 15.2737 17.666 14.5834C17.666 13.893 17.1064 13.3334 16.416 13.3334C15.7257 13.3334 15.166 13.893 15.166 14.5834C15.166 15.2737 15.7257 15.8334 16.416 15.8334Z" stroke="#151D56" stroke-linecap="round" stroke-linejoin="round"/>
<path d="M6.82361 11.1319C6.51891 10.8866 6.31019 10.542 6.23398 10.1583L4.83398 3.16663H19.0006L18.334 8.66663C13.334 10.6666 11.334 11.5 10.0006 11.5H7.90065C7.50957 11.5075 7.1283 11.3772 6.82361 11.1319Z" stroke="#151D56" stroke-linecap="round" stroke-linejoin="round"/>
<path d="M0.999995 1H4.33333L4.83333 3.16667" stroke="#151D56" stroke-linecap="round" stroke-linejoin="round"/>
</svg>
