<svg width="22" height="22" viewBox="0 0 22 22" fill="none" xmlns="http://www.w3.org/2000/svg">
<path d="M9.75 19.8334C10.4404 19.8334 11 19.2737 11 18.5834C11 17.893 10.4404 17.3334 9.75 17.3334C9.05964 17.3334 8.5 17.893 8.5 18.5834C8.5 19.2737 9.05964 19.8334 9.75 19.8334Z" fill="#F3F3F3" stroke="#F3F3F3" stroke-linecap="round" stroke-linejoin="round"/>
<path d="M18.416 19.8334C19.1064 19.8334 19.666 19.2737 19.666 18.5834C19.666 17.893 19.1064 17.3334 18.416 17.3334C17.7257 17.3334 17.166 17.893 17.166 18.5834C17.166 19.2737 17.7257 19.8334 18.416 19.8334Z" fill="#F3F3F3" stroke="#F3F3F3" stroke-linecap="round" stroke-linejoin="round"/>
<path d="M8.82361 15.1319C8.51891 14.8866 8.31019 14.542 8.23398 14.1583L6.83398 7.16663H21.0006L20.334 12.6666C15.334 14.6666 13.334 15.5 12.0006 15.5H9.90065C9.50957 15.5075 9.1283 15.3772 8.82361 15.1319Z" fill="#F3F3F3" stroke="#F3F3F3" stroke-linecap="round" stroke-linejoin="round"/>
<path d="M3 5H6.33333L6.83333 7.16667" stroke="#F3F3F3" stroke-linecap="round" stroke-linejoin="round"/>
<path d="M7.75 17.8334C8.44036 17.8334 9 17.2737 9 16.5834C9 15.893 8.44036 15.3334 7.75 15.3334C7.05964 15.3334 6.5 15.893 6.5 16.5834C6.5 17.2737 7.05964 17.8334 7.75 17.8334Z" stroke="#151D56" stroke-linecap="round" stroke-linejoin="round"/>
<path d="M16.416 17.8334C17.1064 17.8334 17.666 17.2737 17.666 16.5834C17.666 15.893 17.1064 15.3334 16.416 15.3334C15.7257 15.3334 15.166 15.893 15.166 16.5834C15.166 17.2737 15.7257 17.8334 16.416 17.8334Z" stroke="#151D56" stroke-linecap="round" stroke-linejoin="round"/>
<path d="M6.82361 13.1319C6.51891 12.8866 6.31019 12.542 6.23398 12.1583L4.83398 5.16663H19.0006L18.334 10.6666C13.334 12.6666 11.334 13.5 10.0006 13.5H7.90065C7.50957 13.5075 7.1283 13.3772 6.82361 13.1319Z" stroke="#151D56" stroke-linecap="round" stroke-linejoin="round"/>
<path d="M0.999995 3H4.33333L4.83333 5.16667" stroke="#151D56" stroke-linecap="round" stroke-linejoin="round"/>
</svg>
