<svg width="60" height="60" viewBox="0 0 60 60" fill="none" xmlns="http://www.w3.org/2000/svg">
<g clip-path="url(#clip0)">
<path d="M46.3006 34.1773C48.1417 34.1773 49.4213 33.6025 50.1057 32.47C50.9212 31.122 50.6865 29.271 49.3925 26.8128C47.5908 23.3931 44.351 20.8166 39.9506 19.2779C41.4197 17.2293 42.21 14.7888 42.21 12.2102C42.21 5.47669 36.732 0 29.9994 0C23.2668 0 17.7898 5.47669 17.7898 12.2093C17.7898 14.7877 18.579 17.2291 20.048 19.277C15.6476 20.8156 12.4088 23.3931 10.6072 26.8117C9.3132 29.269 9.07966 31.1202 9.89385 32.47C10.5764 33.6016 11.858 34.1764 13.6981 34.1764C15.4074 34.1764 17.406 33.6707 18.8098 33.2362C18.7906 34.0697 18.7616 35.0369 18.7328 35.9905C18.4829 44.3987 18.3396 52.1736 19.3164 54.9011C20.8268 59.1147 22.9485 60.0002 24.4636 60.0002C26.7671 60.0002 28.7369 57.9757 29.9974 55.6221C31.254 57.9698 33.2277 60.0002 35.535 60.0002C37.0501 60.0002 39.1709 59.1156 40.6813 54.9011C41.659 52.1736 41.5157 44.3989 41.2658 35.9887C41.237 35.0358 41.2082 34.0699 41.1889 33.2362C42.5924 33.6716 44.5913 34.1764 46.3006 34.1773C46.2997 34.1773 46.2997 34.1773 46.3006 34.1773ZM37.9021 53.906C37.1963 55.872 36.3129 57.047 35.5359 57.047C34.113 57.047 31.9904 53.9706 31.5443 51.2296C31.3663 50.1443 30.8473 49.5932 30.0001 49.5932C29.1522 49.5932 28.633 50.1441 28.4494 51.2719C28.0092 53.9706 25.8864 57.047 24.4646 57.047C23.6877 57.047 22.8023 55.8722 22.0986 53.906C21.441 52.0707 21.4507 45.9053 21.5641 40.6782H38.4375C38.5491 45.9053 38.5585 52.0706 37.9021 53.906ZM41.1688 30.1217C40.9553 29.6194 40.5574 29.134 39.7691 29.134L39.1335 29.1402L38.698 29.5883C38.1376 30.1651 38.1376 30.1651 38.3135 36.0771C38.3279 36.5856 38.3443 37.1462 38.3616 37.7268H21.6384C21.6548 37.1462 21.6711 36.5876 21.6866 36.0791C21.8634 30.1651 21.8634 30.1651 21.3021 29.5883L20.8551 29.134H20.2301C19.4389 29.134 19.0418 29.6203 18.8293 30.1248C17.5611 30.5654 15.3231 31.2241 13.6993 31.2241C12.7947 31.2241 12.4667 31.0163 12.4226 30.9454C12.4197 30.9386 12.0872 30.3419 13.2215 28.1891C14.9405 24.9256 18.2399 22.6653 23.0296 21.4685L25.66 20.8118L23.6814 18.9578C21.7874 17.183 20.7444 14.7877 20.7444 12.2102C20.7431 7.10578 24.8954 2.95338 29.9994 2.95338C35.1024 2.95338 39.2555 7.1056 39.2555 12.2093C39.2555 14.7867 38.2114 17.183 36.3185 18.9567L34.34 20.8107L36.9703 21.4674C41.7599 22.6633 45.0594 24.9245 46.7784 28.1878C47.9129 30.341 47.5793 30.9373 47.5764 30.9432C47.5331 31.0154 47.2043 31.2228 46.3006 31.2228C44.5672 31.223 42.2831 30.5096 41.1688 30.1217Z" fill="#151D56"/>
</g>
<defs>
<clipPath id="clip0">
<rect width="60" height="60" fill="white"/>
</clipPath>
</defs>
</svg>
