<svg width="60" height="60" viewBox="0 0 60 60" fill="none" xmlns="http://www.w3.org/2000/svg">
<g clip-path="url(#clip0)">
<path d="M24.5924 0.0208277C24.6429 0.016343 24.6872 0.0226964 24.7353 0.0220735C24.7384 0.0220735 24.7417 0.0208277 24.7448 0.0208277C38.9921 -0.472866 53.9675 7.80705 52.6733 23.8279C52.6682 23.8928 52.6521 23.9502 52.6404 24.0106C52.6591 24.1764 52.6591 24.35 52.6188 24.5386C51.8376 28.1946 53.0367 31.4088 56.0377 33.6502C56.1752 33.7526 56.2806 33.8703 56.3727 33.993C56.676 34.1923 56.9154 34.4979 57.0445 34.8679C57.6075 36.4835 57.1798 38.1283 55.8887 39.2523C55.6759 39.4369 55.4294 39.5629 55.1729 39.6305C54.3395 40.0911 53.4681 40.3972 52.5631 40.6111C52.7491 41.6144 52.6577 42.6289 52.1745 43.5842C53.0768 45.3428 52.4778 47.283 50.6964 48.3419C50.5958 48.4019 50.4956 48.4469 50.3969 48.4816C50.0946 48.8417 50.0654 49.4198 50.1768 49.9759C50.2113 50.146 50.2156 50.3161 50.2027 50.4819C50.2105 50.6326 50.2058 50.7857 50.1768 50.94C49.7071 53.4032 47.603 54.7634 45.1955 54.8071C45.0658 54.8097 44.9462 54.7962 44.8333 54.7734C44.722 54.7786 44.6053 54.7722 44.4848 54.7526C40.6183 54.1257 36.2161 54.4761 34.7638 58.7227C34.4734 59.5711 33.6975 59.8589 33.0023 59.7469C32.7679 59.9228 32.4595 60.0227 32.0707 59.9955C25.0644 59.5058 18.1198 58.488 11.1632 57.5544C10.917 57.5213 10.7038 57.4417 10.5199 57.329C9.67648 57.0659 8.9953 56.1221 9.53994 55.1048C14.1882 46.4383 4.76521 36.9835 2.9768 28.658C2.93755 28.478 2.93693 28.3113 2.95275 28.1525C1.06256 14.4785 10.5242 1.28789 24.5924 0.0208277ZM5.92027 27.5427C5.93858 27.6693 5.94107 27.7904 5.9341 27.9067C7.87685 36.815 16.3965 45.427 13.0236 54.7546C19.3589 55.615 25.6899 56.4981 32.0716 56.9447C32.1168 56.9478 32.1563 56.9599 32.1996 56.9669C34.4805 51.8903 39.7875 50.98 45.0384 51.7752C45.0908 51.7688 45.1396 51.7573 45.1959 51.7562C45.7937 51.7448 46.1059 51.6829 46.5724 51.3982C46.5316 51.4109 46.8121 51.1869 46.8096 51.1907C46.8497 51.1502 46.8748 51.1261 46.8931 51.1103C46.8931 51.0982 46.9092 51.0622 46.9681 50.9667C47.0569 50.8243 47.1224 50.6238 47.1769 50.3974C46.9062 48.5275 47.4371 46.903 49.004 45.7075C49.13 45.6119 49.271 45.5582 49.4167 45.5227C49.462 45.4847 49.5059 45.4481 49.5534 45.4001C49.5448 45.4039 49.5528 45.3849 49.5799 45.3412C49.5799 45.3026 49.5825 45.29 49.5869 45.2937C49.5682 45.2129 49.5503 45.1318 49.5218 45.0533C49.5211 45.0502 49.2937 44.6973 49.2184 44.5909C49.0081 44.2941 48.965 43.9342 49.0312 43.5882C48.9686 43.2467 49.0131 42.8899 49.2184 42.5926C49.7956 41.7563 49.6821 41.0446 49.2184 40.1653C48.5544 38.907 49.7505 37.7584 50.81 37.876C50.8211 37.8746 50.8309 37.8709 50.8416 37.869C51.9165 37.7273 52.9554 37.4128 53.8869 36.8562C53.9537 36.817 54.0192 36.7929 54.0846 36.7632C54.1312 36.6955 54.1744 36.6265 54.2134 36.5551C54.22 36.5354 54.2251 36.5184 54.2342 36.4905C54.2418 36.4551 54.2472 36.4317 54.2523 36.4089C54.2549 36.3387 54.2529 36.2697 54.2498 36.1995C54.2447 36.1805 54.2348 36.1368 54.2219 36.0692C50.3457 33.0404 48.6807 28.8773 49.6239 24.0114C49.622 23.9503 49.6157 23.8934 49.6208 23.8285C50.7842 9.42778 37.387 2.63542 24.7455 3.07306C24.7057 3.0743 24.6703 3.06733 24.6317 3.06608C24.6177 3.06733 24.6064 3.07169 24.5925 3.07306C12.5909 4.15425 4.21034 15.859 5.92027 27.5427Z" fill="#151D56"/>
<path d="M28.1035 21.8428C28.9535 21.615 29.4753 21.8624 29.6689 22.5849C29.8701 23.3357 29.5457 23.825 28.6957 24.0528L21.5131 25.9774C20.6489 26.2089 20.1162 25.9493 19.915 25.1984C19.7214 24.4759 20.0567 23.9989 20.9209 23.7673L23.1309 23.1752L20.5345 13.485L18.8304 15.2854C18.6624 15.4519 18.5005 15.556 18.3447 15.5977C18.0472 15.6775 17.758 15.6183 17.4772 15.4202C17.2105 15.2184 17.0354 14.9616 16.9519 14.6499C16.8418 14.2391 16.9406 13.871 17.2482 13.5456L19.9954 10.623C20.352 10.2541 20.7216 10.0184 21.1041 9.91593C21.5008 9.80965 21.8518 9.84465 22.1572 10.021C22.4626 10.1973 22.6722 10.4979 22.7861 10.9229L25.8722 22.4406L28.1035 21.8428Z" fill="#151D56"/>
<path d="M34.4174 30.8152C34.9548 31.3526 34.9951 31.8497 34.5383 32.3065C34.0636 32.7812 33.5576 32.7499 33.0202 32.2125L27.9149 27.1072C27.682 26.8743 27.5656 26.6235 27.5656 26.3548C27.5745 26.0772 27.682 25.8353 27.888 25.6293C28.1567 25.3606 28.5015 25.2218 28.9225 25.2128L35.2773 24.9844C36.0655 24.9486 36.7148 24.8456 37.2254 24.6754C37.7538 24.5053 38.1882 24.25 38.5286 23.9096C38.9495 23.4887 39.151 23.0453 39.1331 22.5796C39.1152 22.1138 38.8823 21.657 38.4345 21.2092C38.0673 20.842 37.6374 20.5554 37.1447 20.3494C36.67 20.1434 36.1371 19.9866 35.546 19.8791C35.3937 19.8523 35.2504 19.8164 35.1161 19.7717C34.9907 19.7179 34.8832 19.6463 34.7936 19.5567C34.6414 19.4044 34.5787 19.1984 34.6055 18.9387C34.6414 18.6879 34.7578 18.464 34.9548 18.2669C35.0892 18.1326 35.228 18.0385 35.3713 17.9848C35.5236 17.94 35.6982 17.9266 35.8953 17.9445C36.6029 18.0251 37.3104 18.2401 38.018 18.5894C38.7346 18.9297 39.357 19.3641 39.8855 19.8926C40.808 20.8151 41.3096 21.7824 41.3902 22.7945C41.4798 23.8156 41.1305 24.7202 40.3423 25.5084C39.7959 26.0548 39.1645 26.4533 38.4479 26.7041C37.7404 26.946 36.8133 27.0848 35.6669 27.1206L30.8706 27.2684L34.4174 30.8152Z" fill="#151D56"/>
<path d="M25.8751 32.1919C26.5365 32.3839 27.0431 32.7199 27.3951 33.1999C27.7578 33.6693 27.9391 34.2453 27.9391 34.9279C27.9391 35.5786 27.7685 36.1439 27.4271 36.6239C27.0965 37.1039 26.6165 37.4773 25.9871 37.7439C25.3578 37.9999 24.6271 38.1279 23.7951 38.1279C23.1018 38.1279 22.4351 38.0266 21.7951 37.8239C21.1658 37.6213 20.6218 37.3386 20.1631 36.9759C20.0031 36.8586 19.8858 36.7306 19.8111 36.5919C19.7471 36.4533 19.7151 36.2933 19.7151 36.1119C19.7151 35.8346 19.7951 35.5999 19.9551 35.4079C20.1151 35.2053 20.3071 35.1039 20.5311 35.1039C20.6591 35.1039 20.7765 35.1253 20.8831 35.1679C20.9898 35.1999 21.1231 35.2639 21.2831 35.3599C21.7525 35.6266 22.1578 35.8293 22.4991 35.9679C22.8405 36.1066 23.2405 36.1759 23.6991 36.1759C24.3498 36.1759 24.8245 36.0586 25.1231 35.8239C25.4218 35.5786 25.5711 35.1999 25.5711 34.6879C25.5711 34.1866 25.4165 33.8239 25.1071 33.5999C24.7978 33.3759 24.3018 33.2639 23.6191 33.2639H22.6751C22.3978 33.2639 22.1791 33.1679 22.0191 32.9759C21.8591 32.7839 21.7791 32.5546 21.7791 32.2879C21.7791 32.0319 21.8591 31.8079 22.0191 31.6159C22.1791 31.4239 22.3978 31.3279 22.6751 31.3279H23.3471C23.9978 31.3279 24.4778 31.2159 24.7871 30.9919C25.1071 30.7679 25.2671 30.4213 25.2671 29.9519C25.2671 29.5039 25.1338 29.1573 24.8671 28.9119C24.6005 28.6559 24.2271 28.5279 23.7471 28.5279C23.3525 28.5279 22.9845 28.5973 22.6431 28.7359C22.3018 28.8746 21.9071 29.0773 21.4591 29.3439C21.2991 29.4399 21.1658 29.5093 21.0591 29.5519C20.9525 29.5839 20.8351 29.5999 20.7071 29.5999C20.4831 29.5999 20.2911 29.5039 20.1311 29.3119C19.9711 29.1093 19.8911 28.8693 19.8911 28.5919C19.8911 28.3999 19.9231 28.2399 19.9871 28.1119C20.0618 27.9733 20.1791 27.8453 20.3391 27.7279C20.7871 27.3653 21.3205 27.0826 21.9391 26.8799C22.5685 26.6773 23.2085 26.5759 23.8591 26.5759C24.6165 26.5759 25.2831 26.7039 25.8591 26.9599C26.4351 27.2053 26.8778 27.5573 27.1871 28.0159C27.4965 28.4746 27.6511 29.0079 27.6511 29.6159C27.6511 30.2239 27.4911 30.7573 27.1711 31.2159C26.8618 31.6639 26.4298 31.9893 25.8751 32.1919Z" fill="#151D56"/>
</g>
<defs>
<clipPath id="clip0">
<rect width="60.0001" height="60" fill="white"/>
</clipPath>
</defs>
</svg>
