<svg width="60" height="60" viewBox="0 0 60 60" fill="none" xmlns="http://www.w3.org/2000/svg">
<g clip-path="url(#clip0)">
<path d="M27 3H1C0.447754 3 0 3.44775 0 4V56C0 56.5522 0.447754 57 1 57H27C27.5522 57 28 56.5522 28 56V4C28 3.44775 27.5522 3 27 3ZM26 55H2V5H26V55Z" fill="#151D56" stroke="#151D56" stroke-width="0.5"/>
<path d="M5 31H23C23.5522 31 24 30.5522 24 30C24 29.4478 23.5522 29 23 29H5C4.44775 29 4 29.4478 4 30C4 30.5522 4.44775 31 5 31Z" fill="#151D56" stroke="#151D56" stroke-width="0.5"/>
<path d="M7 13C8.65674 13 10 11.6567 10 10C10 8.34326 8.65674 7 7 7C5.34326 7 4 8.34326 4 10C4 11.6567 5.34326 13 7 13ZM7 9C7.55225 9 8 9.44775 8 10C8 10.5522 7.55225 11 7 11C6.44775 11 6 10.5522 6 10C6 9.44775 6.44775 9 7 9Z" fill="#151D56" stroke="#151D56" stroke-width="0.5"/>
<path d="M21 13C22.6567 13 24 11.6567 24 10C24 8.34326 22.6567 7 21 7C19.3433 7 18 8.34326 18 10C18 11.6567 19.3433 13 21 13ZM21 9C21.5522 9 22 9.44775 22 10C22 10.5522 21.5522 11 21 11C20.4478 11 20 10.5522 20 10C20 9.44775 20.4478 9 21 9Z" fill="#151D56" stroke="#151D56" stroke-width="0.5"/>
<path d="M7 26C8.65674 26 10 24.6567 10 23C10 21.3433 8.65674 20 7 20C5.34326 20 4 21.3433 4 23C4 24.6567 5.34326 26 7 26ZM7 22C7.55225 22 8 22.4478 8 23C8 23.5522 7.55225 24 7 24C6.44775 24 6 23.5522 6 23C6 22.4478 6.44775 22 7 22Z" fill="#151D56" stroke="#151D56" stroke-width="0.5"/>
<path d="M21 26C22.6567 26 24 24.6567 24 23C24 21.3433 22.6567 20 21 20C19.3433 20 18 21.3433 18 23C18 24.6567 19.3433 26 21 26ZM21 22C21.5522 22 22 22.4478 22 23C22 23.5522 21.5522 24 21 24C20.4478 24 20 23.5522 20 23C20 22.4478 20.4478 22 21 22Z" fill="#151D56" stroke="#151D56" stroke-width="0.5"/>
<path d="M14 20C15.6567 20 17 18.6567 17 17C17 15.3433 15.6567 14 14 14C12.3433 14 11 15.3433 11 17C11 18.6567 12.3433 20 14 20ZM14 16C14.5522 16 15 16.4478 15 17C15 17.5522 14.5522 18 14 18C13.4478 18 13 17.5522 13 17C13 16.4478 13.4478 16 14 16Z" fill="#151D56" stroke="#151D56" stroke-width="0.5"/>
<path d="M14 40C12.3433 40 11 41.3433 11 43C11 44.6567 12.3433 46 14 46C15.6567 46 17 44.6567 17 43C17 41.3433 15.6567 40 14 40ZM14 44C13.4478 44 13 43.5522 13 43C13 42.4478 13.4478 42 14 42C14.5522 42 15 42.4478 15 43C15 43.5522 14.5522 44 14 44Z" fill="#151D56" stroke="#151D56" stroke-width="0.5"/>
<path d="M59 3H33C32.4478 3 32 3.44775 32 4V56C32 56.5522 32.4478 57 33 57H59C59.5522 57 60 56.5522 60 56V4C60 3.44775 59.5522 3 59 3ZM58 55H34V5H58V55Z" fill="#151D56" stroke="#151D56" stroke-width="0.5"/>
<path d="M37 31H55C55.5522 31 56 30.5522 56 30C56 29.4478 55.5522 29 55 29H37C36.4478 29 36 29.4478 36 30C36 30.5522 36.4478 31 37 31Z" fill="#151D56" stroke="#151D56" stroke-width="0.5"/>
<path d="M53 47C51.3433 47 50 48.3433 50 50C50 51.6567 51.3433 53 53 53C54.6567 53 56 51.6567 56 50C56 48.3433 54.6567 47 53 47ZM53 51C52.4478 51 52 50.5522 52 50C52 49.4478 52.4478 49 53 49C53.5522 49 54 49.4478 54 50C54 50.5522 53.5522 51 53 51Z" fill="#151D56" stroke="#151D56" stroke-width="0.5"/>
<path d="M53 34C51.3433 34 50 35.3433 50 37C50 38.6567 51.3433 40 53 40C54.6567 40 56 38.6567 56 37C56 35.3433 54.6567 34 53 34ZM53 38C52.4478 38 52 37.5522 52 37C52 36.4478 52.4478 36 53 36C53.5522 36 54 36.4478 54 37C54 37.5522 53.5522 38 53 38Z" fill="#151D56" stroke="#151D56" stroke-width="0.5"/>
<path d="M39 40C40.6567 40 42 38.6567 42 37C42 35.3433 40.6567 34 39 34C37.3433 34 36 35.3433 36 37C36 38.6567 37.3433 40 39 40ZM39 36C39.5522 36 40 36.4478 40 37C40 37.5522 39.5522 38 39 38C38.4478 38 38 37.5522 38 37C38 36.4478 38.4478 36 39 36Z" fill="#151D56" stroke="#151D56" stroke-width="0.5"/>
<path d="M46 40C44.3433 40 43 41.3433 43 43C43 44.6567 44.3433 46 46 46C47.6567 46 49 44.6567 49 43C49 41.3433 47.6567 40 46 40ZM46 44C45.4478 44 45 43.5522 45 43C45 42.4478 45.4478 42 46 42C46.5522 42 47 42.4478 47 43C47 43.5522 46.5522 44 46 44Z" fill="#151D56" stroke="#151D56" stroke-width="0.5"/>
<path d="M46 20C47.6567 20 49 18.6567 49 17C49 15.3433 47.6567 14 46 14C44.3433 14 43 15.3433 43 17C43 18.6567 44.3433 20 46 20ZM46 16C46.5522 16 47 16.4478 47 17C47 17.5522 46.5522 18 46 18C45.4478 18 45 17.5522 45 17C45 16.4478 45.4478 16 46 16Z" fill="#151D56" stroke="#151D56" stroke-width="0.5"/>
<path d="M39 53C40.6567 53 42 51.6567 42 50C42 48.3433 40.6567 47 39 47C37.3433 47 36 48.3433 36 50C36 51.6567 37.3433 53 39 53ZM39 49C39.5522 49 40 49.4478 40 50C40 50.5522 39.5522 51 39 51C38.4478 51 38 50.5522 38 50C38 49.4478 38.4478 49 39 49Z" fill="#151D56" stroke="#151D56" stroke-width="0.5"/>
</g>
<defs>
<clipPath id="clip0">
<rect width="60" height="60" fill="white"/>
</clipPath>
</defs>
</svg>
