<svg width="60" height="60" viewBox="0 0 60 60" fill="none" xmlns="http://www.w3.org/2000/svg">
<g clip-path="url(#clip0)">
<path d="M5.82181 38.9662C6.14134 38.9662 6.45744 38.9403 6.7692 38.889V45.9439C6.7692 46.7544 7.42527 47.4087 8.23397 47.4087H17.0088C17.0155 47.4087 17.0236 47.4087 17.0283 47.4087C17.8381 47.4087 18.4931 46.7546 18.4931 45.9439C18.4931 45.6083 18.3797 45.2983 18.1884 45.0495C17.9768 44.6356 17.8689 44.2045 17.8689 43.7648C17.8689 42.1704 19.1667 40.8726 20.7613 40.8726C22.3572 40.8726 23.655 42.1704 23.655 43.7648C23.655 44.2596 23.5182 44.7442 23.2498 45.2057C22.9851 45.6598 22.9841 46.2186 23.2446 46.6743C23.5062 47.1284 23.9907 47.4087 24.5153 47.4087H32.7379C32.9563 47.5385 33.208 47.6175 33.4807 47.6175H42.255C42.2606 47.6175 42.2693 47.6184 42.274 47.6175C43.0838 47.6175 43.7388 46.9624 43.7388 46.1526C43.7388 45.8161 43.6263 45.5061 43.4355 45.2593C43.2238 44.8433 43.1153 44.4122 43.1153 43.9737C43.1153 42.3795 44.4142 41.0814 46.0084 41.0814C47.6029 41.0814 48.9009 42.3795 48.9009 43.9737C48.9009 44.4696 48.7644 44.9542 48.4957 45.4157C48.2324 45.8698 48.2304 46.4285 48.4926 46.8823C48.7539 47.3372 49.2374 47.6175 49.762 47.6175H58.5354C59.3441 47.6175 60.0002 46.9624 60.0002 46.1526V37.3783C60.0002 36.8539 59.7199 36.3694 59.2658 36.1088C58.81 35.8468 58.2513 35.8486 57.7993 36.1126C57.3367 36.3806 56.8513 36.5179 56.3564 36.5179C54.762 36.5179 53.4641 35.22 53.4641 33.6256C53.4641 32.0303 54.762 30.7333 56.3564 30.7333C56.8511 30.7333 57.3367 30.8697 57.7993 31.1386C58.2513 31.4028 58.8101 31.4046 59.2658 31.1424C59.7199 30.8802 60.0002 30.3977 60.0002 29.8727V21.0981C60.0002 20.2885 59.3441 19.6333 58.5354 19.6333H51.6999C51.7858 19.2362 51.8304 18.8279 51.8304 18.4136C51.8304 15.2027 49.2186 12.5918 46.0086 12.5918C42.7988 12.5918 40.1859 15.2038 40.1859 18.4136C40.1859 18.8281 40.2297 19.2362 40.3176 19.6333H34.0332C33.8138 19.5035 33.5623 19.4244 33.2894 19.4244H26.4526C26.5408 19.0268 26.5846 18.6186 26.5846 18.2038C26.5846 14.9929 23.9721 12.382 20.7613 12.382C17.5519 12.382 14.9395 14.9929 14.9395 18.2038C14.9395 18.6177 14.9835 19.0259 15.0706 19.4244H8.23397C7.42527 19.4244 6.7692 20.0796 6.7692 20.8892V27.3995C6.45835 27.3485 6.14116 27.3222 5.82181 27.3222C2.61198 27.3226 0 29.9346 0 33.1444C0 36.3542 2.61198 38.9662 5.82181 38.9662ZM34.9446 22.5621H42.5992C43.1608 22.5621 43.6739 22.2408 43.9182 21.7359C44.1623 21.2313 44.0974 20.6306 43.7484 20.1901C43.4594 19.8239 43.1153 19.2188 43.1153 18.4139C43.1153 16.8195 44.4142 15.5217 46.0084 15.5217C47.6029 15.5217 48.9009 16.8195 48.9009 18.4139C48.9009 19.2197 48.5566 19.8239 48.2676 20.1901C47.9195 20.6306 47.8537 21.2313 48.0987 21.7359C48.343 22.2419 48.8541 22.5621 49.4166 22.5621H57.0723V27.8499C56.835 27.8199 56.5965 27.8042 56.3582 27.8042C53.1482 27.8042 50.5364 30.4151 50.5364 33.626C50.5364 36.8369 53.1482 39.4478 56.3582 39.4478C56.5965 39.4478 56.835 39.4326 57.0723 39.402V44.6887H51.7836C51.816 44.4515 51.8313 44.213 51.8313 43.9755C51.8313 40.7637 49.2185 38.1528 46.0084 38.1528C42.7995 38.1528 40.1877 40.7657 40.1877 43.9755C40.1877 44.213 40.2029 44.4515 40.2344 44.6887H34.9464V36.9797C34.9464 36.4399 34.6489 35.9432 34.1731 35.6884C33.6972 35.4349 33.1194 35.4623 32.6693 35.7609C32.1935 36.0794 31.6395 36.2472 31.0691 36.2472C30.0863 36.2472 29.2192 35.7513 28.6957 34.9998C28.3962 34.5459 28.2193 34.0014 28.2193 33.4178C28.2193 31.8225 29.5174 30.5255 31.1131 30.5255C31.608 30.5255 32.0916 30.6619 32.5541 30.9297C32.68 31.004 32.8144 31.0518 32.9527 31.0841C33.3465 31.2386 33.791 31.2234 34.1733 31.0194C34.6493 30.7639 34.9466 30.268 34.9466 29.7281V22.5616H34.9446V22.5621ZM5.82181 30.2521C6.39198 30.2521 6.94461 30.4199 7.42148 30.7375C7.87067 31.0389 8.44952 31.0655 8.9253 30.81C9.40072 30.5563 9.69873 30.0586 9.69873 29.5187V22.3542H17.3535C17.9152 22.3542 18.4267 22.0328 18.672 21.5279C18.917 21.023 18.8517 20.4227 18.5036 19.9821C18.2135 19.6159 17.87 19.0094 17.87 18.2051C17.87 16.6101 19.1678 15.3126 20.7624 15.3126C22.3583 15.3126 23.6561 16.6101 23.6561 18.2051C23.6561 19.0085 23.3104 19.6159 23.0225 19.9832C22.6744 20.4239 22.6091 21.0241 22.8541 21.529C23.0992 22.0339 23.6107 22.3543 24.1724 22.3543H31.8263V27.5931C31.5753 27.5602 31.3246 27.5316 31.0689 27.5316C27.8595 27.5316 25.2477 30.1447 25.2477 33.3545C25.2477 34.5723 25.6258 35.7032 26.267 36.6389C27.3117 38.2045 29.0931 39.2393 31.1129 39.2393C31.3512 39.2393 31.5897 39.2232 31.8263 39.1926V44.4813H26.5394C26.5708 44.2439 26.5866 44.0054 26.5866 43.767C26.5866 40.5563 23.9742 37.9454 20.7639 37.9454C17.554 37.9454 14.9415 40.5563 14.9415 43.767C14.9415 44.0054 14.9572 44.2439 14.9887 44.4813H9.70072V36.7723C9.70072 36.2316 9.40271 35.7347 8.92729 35.4792C8.45242 35.2256 7.87356 35.2531 7.42346 35.5535C6.94769 35.8701 6.39415 36.0381 5.8238 36.0381C4.22937 36.0381 2.93134 34.7412 2.93134 33.1457C2.93134 31.5509 4.22738 30.2521 5.82181 30.2521Z" fill="#151D56"/>
</g>
<defs>
<clipPath id="clip0">
<rect width="60" height="60" fill="white"/>
</clipPath>
</defs>
</svg>
