<svg width="60" height="60" viewBox="0 0 60 60" fill="none" xmlns="http://www.w3.org/2000/svg">
<path d="M29.4222 51.5748L29.3862 34.8477L14.9872 26.4558L0.614258 34.8174L0.649285 51.6754L14.9872 60.0001L29.4222 51.5748ZM16.4479 55.7771L16.4736 44.0654L26.4818 38.2185L26.5075 49.9046L16.4479 55.7771ZM14.9852 29.8252L25.0423 35.6876L15.0193 41.5419L4.96194 35.6574L14.9852 29.8252ZM3.53425 38.1958L13.5614 44.0634L13.5359 55.7911L3.55838 49.9974L3.53425 38.1958Z" fill="#151D56"/>
<path d="M44.9507 26.4566L30.5782 34.8173L30.6142 51.6753L44.9524 60L59.3857 51.5747L59.3497 34.8476L44.9507 26.4566ZM44.9487 29.8251L55.0061 35.6875L44.9828 41.5418L34.9253 35.6571L44.9487 29.8251ZM33.4979 38.1957L43.524 44.0633L43.4984 55.791L33.5234 49.9973L33.4979 38.1957ZM46.4123 55.777L46.4371 44.0653L56.4453 38.2185L56.4708 49.9045L46.4123 55.777Z" fill="#151D56"/>
<path d="M44.4009 8.38962L30.0015 0L15.629 8.35927L15.6635 25.2181L30.0015 33.5434L44.4352 25.1181L44.4009 8.38962ZM29.9996 3.36802L40.0576 9.22902L30.0346 15.0853L19.9766 9.19913L29.9996 3.36802ZM18.5485 11.738L28.5756 17.6067L28.5506 29.3344L18.5726 23.5416L18.5485 11.738ZM31.4617 29.3202L31.4869 17.6082L41.4956 11.7604L41.5211 23.4474L31.4617 29.3202Z" fill="#151D56"/>
</svg>
