<svg width="60" height="60" viewBox="0 0 60 60" fill="none" xmlns="http://www.w3.org/2000/svg">
<g clip-path="url(#clip0)">
<path d="M29.6907 46.6774C29.2145 46.1325 28.2845 46.1325 27.8083 46.6774L19.0585 56.6773C18.7347 57.0461 18.6585 57.5711 18.8623 58.0161C19.0649 58.4635 19.5084 58.7499 19.9998 58.7499H37.4996C37.9908 58.7499 38.4346 58.4637 38.6372 58.0161C38.8398 57.5711 38.7634 57.0461 38.441 56.6773L29.6907 46.6774ZM22.7546 56.2497L28.7495 49.3998L34.7444 56.2497H22.7546Z" fill="#151D56" stroke="#151D56" stroke-width="0.5"/>
<path d="M59.9242 32.075C59.6904 31.4238 58.9768 31.0912 58.3242 31.3262L18.0058 45.9876C19.2573 44.3176 19.9997 42.2451 19.9997 40.0025C19.9997 34.4876 15.5136 30 9.99986 30C4.48614 30 0 34.4876 0 40.0025C0 44.7262 3.29395 48.693 7.70469 49.7334L3.32495 51.3259C2.67616 51.5609 2.34117 52.2771 2.57616 52.9271C2.75996 53.4345 3.23996 53.7495 3.74995 53.7495C3.89115 53.7495 4.03614 53.7245 4.17754 53.6745L59.1768 33.6748C59.8268 33.4412 60.1604 32.7262 59.9242 32.075ZM2.49997 40.0025C2.49997 35.86 5.85752 32.5 9.99986 32.5C14.141 32.5 17.4998 35.86 17.4998 40.0025C17.4998 44.1436 14.1398 47.5024 9.99986 47.5024C5.85752 47.5024 2.49997 44.1424 2.49997 40.0025Z" fill="#151D56" stroke="#151D56" stroke-width="0.5"/>
<path d="M46.2493 18.7528C51.0804 18.7528 54.9992 14.8316 54.9992 10.0029C54.9992 5.16917 51.0804 1.25043 46.2493 1.25043C41.4182 1.25043 37.4968 5.16917 37.4968 10.0029C37.4968 14.8314 41.4182 18.7528 46.2493 18.7528ZM46.2493 3.75039C49.6955 3.75039 52.4992 6.55536 52.4992 10.0029C52.4992 13.4491 49.6955 16.2528 46.2493 16.2528C42.802 16.2528 39.9968 13.4491 39.9968 10.0029C39.9968 6.55536 42.802 3.75039 46.2493 3.75039Z" fill="#151D56" stroke="#151D56" stroke-width="0.5"/>
</g>
<defs>
<clipPath id="clip0">
<rect width="60" height="60" fill="white"/>
</clipPath>
</defs>
</svg>
