<svg width="60" height="60" viewBox="0 0 60 60" fill="none" xmlns="http://www.w3.org/2000/svg">
<g clip-path="url(#clip0)">
<path d="M2.28542 57.9627C3.59826 59.2759 5.42388 59.9998 7.42881 59.9998C9.98514 59.9998 12.602 58.8487 14.6044 56.8466C14.8835 56.568 15.1535 56.2609 15.4201 55.9276C17.1105 53.9624 20.1149 50.184 21.2472 46.9531C21.5887 45.9772 22.3866 44.6591 23.3818 43.2428C23.6359 43.2676 23.893 43.2807 24.1522 43.2807C25.6113 43.2807 27.0083 42.8772 28.2155 42.122C29.0082 45.5246 32.067 48.0666 35.7071 48.0666C39.3474 48.0666 42.4048 45.5246 43.1988 42.122C44.4069 42.8772 45.8035 43.2807 47.2615 43.2807C49.3165 43.2807 51.2476 42.4801 52.7001 41.0276C55.2754 38.4524 55.6391 34.492 53.7935 31.5253C57.1968 30.7344 59.739 27.6743 59.739 24.0333C59.739 20.393 57.197 17.3352 53.7944 16.5416C54.5496 15.3335 54.9533 13.9366 54.9533 12.4784C54.9533 10.4233 54.1527 8.49279 52.7001 7.04034C51.2476 5.58789 49.3158 4.78729 47.2615 4.78729C45.8024 4.78729 44.4058 5.19082 43.1988 5.94597C42.4057 2.54214 39.3483 0 35.7071 0C32.067 0 29.0082 2.54214 28.2155 5.94597C27.0074 5.1919 25.6103 4.78729 24.1522 4.78729C22.0972 4.78729 20.1666 5.58789 18.7142 7.04034C17.2608 8.49279 16.4615 10.4233 16.4615 12.4784C16.4615 13.9375 16.8647 15.3337 17.6198 16.5416C14.2169 17.3341 11.6755 20.3932 11.6755 24.0333C11.6755 27.6734 14.2171 30.7324 17.6198 31.5253C16.8647 32.7325 16.4615 34.13 16.4615 35.5891C16.4615 36.1141 16.5156 36.6313 16.6173 37.1335C15.3524 38.0004 14.1833 38.6912 13.2982 39.001C10.0655 40.1334 6.28737 43.1386 4.36455 44.795C3.99694 45.0887 3.68234 45.3652 3.40422 45.6439C-0.301103 49.3474 -0.802739 54.874 2.28542 57.9627ZM20.773 32.2066C20.9768 32.002 21.2103 31.8115 21.4859 31.625L22.4813 30.9541L21.4581 28.4907L20.2723 28.7205C19.9491 28.7836 19.6521 28.8146 19.365 28.8146C16.7292 28.8146 14.585 26.6696 14.585 24.0333C14.585 21.3973 16.7292 19.2525 19.365 19.2525C19.6512 19.2525 19.9491 19.2823 20.275 19.3453L21.4868 19.5008L22.4774 17.1103L21.4858 16.4408C21.2102 16.2556 20.9766 16.0642 20.7709 15.8587C19.8675 14.9553 19.3705 13.7544 19.3705 12.4786C19.3705 11.202 19.8684 10.0006 20.7709 9.09809C21.6728 8.19597 22.8743 7.69829 24.1508 7.69829C25.4275 7.69829 26.6281 8.19615 27.5318 9.09953C27.7375 9.30525 27.928 9.53864 28.1122 9.81156L28.7843 10.8089L31.2438 9.77652L31.0194 8.60256C30.9558 8.27664 30.9256 7.97767 30.9256 7.69254C30.9256 5.05679 33.0698 2.91118 35.7064 2.91118C38.3423 2.91118 40.4874 5.05679 40.4874 7.69254C40.4874 7.97875 40.457 8.27664 40.3945 8.60256L40.2524 9.81335L42.6258 10.8107L43.3003 9.81299C43.4859 9.53828 43.6765 9.30471 43.883 9.09773C44.7858 8.19489 45.9864 7.69793 47.2627 7.69793C48.5398 7.69793 49.7413 8.19579 50.6432 9.09773C51.5453 10.0002 52.0435 11.2017 52.0435 12.4782C52.0435 13.754 51.5453 14.9558 50.6432 15.8583C50.4357 16.0658 50.2018 16.2563 49.9306 16.4385L48.9369 17.107L49.961 19.5714L51.1398 19.345C51.4656 19.2828 51.7651 19.2521 52.0502 19.2521C54.6861 19.2521 56.8301 21.397 56.8301 24.0329C56.8301 26.6692 54.6859 28.8143 52.0502 28.8143C51.7631 28.8143 51.4656 28.7839 51.1425 28.7201L49.924 28.5618L48.9338 30.9536L49.9287 31.6245C50.2045 31.8101 50.4375 32.0016 50.6439 32.208C52.5076 34.0718 52.5076 37.1046 50.6439 38.9692C49.7411 39.8731 48.5405 40.3697 47.2635 40.3697C45.9871 40.3697 44.7869 39.8713 43.8848 38.9703C43.6764 38.7608 43.4848 38.5267 43.3021 38.2568L42.6361 37.2665L40.1696 38.2927L40.3961 39.4656C40.4587 39.7915 40.489 40.0891 40.489 40.3751C40.489 43.011 38.3449 45.155 35.7082 45.155C33.0716 45.155 30.9272 43.0108 30.9272 40.3751C30.9272 40.088 30.9576 39.7895 31.021 39.4656L31.1744 38.2584L28.7811 37.2673L28.1145 38.2566C27.9321 38.5275 27.7411 38.7624 27.5333 38.9701C27.0331 39.4712 26.4351 39.8312 25.7899 40.068C25.2707 40.2567 24.7227 40.3704 24.1531 40.3704C23.4625 40.3704 22.7988 40.213 22.1885 39.9365C21.6703 39.7024 21.187 39.3842 20.773 38.969C20.5324 38.7284 20.3258 38.465 20.1453 38.1873C19.6454 37.4199 19.373 36.5264 19.373 35.5883C19.373 35.4103 19.4048 35.2378 19.4242 35.0635C19.5408 33.9869 19.9947 32.9844 20.773 32.2066ZM5.45999 47.7006C5.69015 47.4722 5.9318 47.2658 6.21981 47.0326C7.67513 45.7801 11.3736 42.7577 14.2591 41.7476C15.2701 41.3933 16.4867 40.7093 17.7616 39.8717C18.0383 40.2809 18.3552 40.6685 18.7133 41.0267C19.2412 41.5546 19.8326 41.9932 20.4703 42.3409C19.5883 43.6691 18.8685 44.9398 18.5006 45.9887C17.4896 48.8718 14.4666 52.5698 13.1789 54.0688C12.9829 54.3151 12.7772 54.5557 12.5474 54.7849C11.0854 56.248 9.21939 57.0872 7.42863 57.0872C6.56118 57.0872 5.32183 56.8808 4.34317 55.9028C2.39016 53.9511 2.8918 50.2713 5.45999 47.7006Z" fill="#151D56"/>
<path d="M26.5658 33.677C26.5667 33.679 26.5683 33.679 26.5683 33.6808C26.5692 33.6808 26.5701 33.6826 26.5712 33.6826C27.423 34.5335 28.3756 35.2432 29.3932 35.8258C31.3743 36.9572 33.6191 37.5712 35.9612 37.5712C39.5095 37.5712 42.8447 36.1899 45.3534 33.681C50.5322 28.5011 50.5322 20.0748 45.3534 14.8958C42.8445 12.3869 39.5095 11.0054 35.9612 11.0054C32.4129 11.0054 29.0774 12.3867 26.5685 14.8958C22.2508 19.2134 21.5464 25.7827 24.4281 30.8517C25.0019 31.8598 25.7055 32.8167 26.5658 33.677ZM28.6257 16.9527C30.5859 14.9928 33.1896 13.915 35.961 13.915C38.7305 13.915 41.336 14.9928 43.2953 16.9527C47.3391 20.9965 47.3391 27.5776 43.2953 31.621C41.336 33.5812 38.7314 34.6585 35.961 34.6585C33.1945 34.6585 30.5945 33.5843 28.6365 31.6304C28.6336 31.6284 28.6298 31.6248 28.6255 31.6209C28.6226 31.6189 28.6198 31.6142 28.6169 31.6113C24.5828 27.5668 24.5855 20.9938 28.6257 16.9527Z" fill="#151D56"/>
<path d="M8.60871 55.486C10.7092 55.486 12.4175 53.7786 12.4175 51.6772C12.4175 49.5776 10.7092 47.8684 8.60871 47.8684C6.50819 47.8684 4.8008 49.5777 4.8008 51.6772C4.8008 53.7786 6.50909 55.486 8.60871 55.486ZM8.60871 50.779C9.10334 50.779 9.50687 51.1826 9.50687 51.6772C9.50687 52.1738 9.10334 52.5753 8.60871 52.5753C8.11408 52.5753 7.71144 52.1738 7.71144 51.6772C7.71126 51.1826 8.11408 50.779 8.60871 50.779Z" fill="#151D56"/>
</g>
<defs>
<clipPath id="clip0">
<rect width="60" height="59.9998" fill="white"/>
</clipPath>
</defs>
</svg>
