<svg width="60" height="60" viewBox="0 0 60 60" fill="none" xmlns="http://www.w3.org/2000/svg">
<path d="M45.9375 1.875C42.7062 1.87866 39.6084 3.16387 37.3236 5.44868C35.0388 7.73348 33.7536 10.8313 33.7499 14.0625C33.7499 14.1245 33.7514 14.1861 33.7523 14.2479L29.1638 17.5255L22.6941 11.0558C22.1445 10.5109 21.4015 10.206 20.6276 10.2076C19.8536 10.2093 19.1119 10.5175 18.5647 11.0647C18.0174 11.6119 17.7092 12.3537 17.7076 13.1276C17.7059 13.9015 18.0109 14.6446 18.5558 15.1942L21.5128 18.1513C19.8026 17.7457 18.0266 17.701 16.2982 18.02C14.5698 18.339 12.9268 19.0148 11.4741 20.0043C10.0214 20.9937 8.79092 22.275 7.86108 23.7666C6.93125 25.2581 6.32249 26.9271 6.07366 28.667L5.58534 32.0849C5.0036 36.152 3.98283 40.144 2.54092 43.9911C1.83558 45.8718 1.68659 47.9157 2.11174 49.8787C2.53689 51.8418 3.51821 53.6409 4.93846 55.0612C6.35871 56.4814 8.15782 57.4628 10.1209 57.888C12.0839 58.3132 14.1278 58.1642 16.0085 57.4589C19.8556 56.0171 23.8477 54.9964 27.9147 54.4146L31.3325 53.9263C33.0717 53.6758 34.7396 53.066 36.2303 52.1357C37.7209 51.2054 39.0015 49.975 39.9907 48.5227C40.9798 47.0705 41.6558 45.4282 41.9756 43.7005C42.2955 41.9727 42.2521 40.1973 41.8483 38.4872L44.8054 41.4442C45.355 41.9891 46.0981 42.294 46.872 42.2924C47.6459 42.2907 48.3876 41.9825 48.9349 41.4353C49.4821 40.8881 49.7903 40.1463 49.792 39.3724C49.7936 38.5985 49.4887 37.8554 48.9438 37.3058L42.4741 30.8361L45.7515 26.2477C45.8133 26.2486 45.875 26.25 45.9371 26.25C49.1694 26.25 52.2694 24.966 54.555 22.6804C56.8406 20.3948 58.1246 17.2948 58.1246 14.0625C58.1246 10.8302 56.8406 7.73024 54.555 5.44464C52.2694 3.15904 49.1694 1.875 45.9371 1.875H45.9375ZM40.3125 41.4109C40.3124 44.0028 39.3774 46.5077 37.6792 48.4657C35.981 50.4237 33.6335 51.7035 31.0676 52.07L27.6498 52.5586C23.4484 53.1596 19.3244 54.2141 15.3502 55.7036C13.8067 56.2824 12.1292 56.4046 10.518 56.0556C8.90691 55.7066 7.43032 54.9012 6.26465 53.7355C5.09899 52.5699 4.29354 51.0933 3.94454 49.4822C3.59553 47.871 3.71772 46.1935 4.29651 44.65C5.786 40.6757 6.84044 36.5517 7.44135 32.3502L7.92967 28.9322C8.2124 26.9526 9.04084 25.0908 10.3221 23.5555C11.6034 22.0201 13.287 20.872 15.1841 20.2396C17.0812 19.6073 19.1169 19.5157 21.0631 19.9752C23.0093 20.4347 24.7891 21.4272 26.2031 22.8412L37.1589 33.7971C38.1619 34.7947 38.957 35.9812 39.4983 37.2881C40.0396 38.595 40.3163 39.9963 40.3125 41.4109ZM47.6183 40.1183C47.421 40.3152 47.1537 40.4257 46.875 40.4257C46.5962 40.4257 46.3289 40.3152 46.1316 40.1183L19.8816 13.8683C19.6845 13.6712 19.5737 13.4038 19.5737 13.125C19.5737 12.8462 19.6845 12.5788 19.8816 12.3817C20.0788 12.1845 20.3461 12.0738 20.6249 12.0738C20.9037 12.0738 21.1711 12.1845 21.3683 12.3817L47.6183 38.6317C47.8151 38.829 47.9257 39.0963 47.9257 39.375C47.9257 39.6537 47.8151 39.921 47.6183 40.1183ZM41.1304 29.492L30.508 18.8696L33.9746 16.3935C34.4429 18.7736 35.609 20.9605 37.3242 22.6757C39.0395 24.391 41.2264 25.557 43.6065 26.0254L41.1304 29.492ZM45.9375 24.375C43.8978 24.375 41.904 23.7702 40.2081 22.637C38.5122 21.5039 37.1905 19.8933 36.4099 18.0089C35.6294 16.1246 35.4252 14.0511 35.8231 12.0506C36.221 10.0502 37.2032 8.21269 38.6454 6.77046C40.0876 5.32823 41.9252 4.34606 43.9256 3.94815C45.926 3.55024 47.9995 3.75446 49.8839 4.53499C51.7682 5.31552 53.3788 6.6373 54.512 8.33318C55.6451 10.0291 56.25 12.0229 56.25 14.0625C56.2468 16.7966 55.1594 19.4178 53.2261 21.3511C51.2928 23.2844 48.6715 24.3719 45.9375 24.375Z" fill="#151D56" stroke="#151D56"/>
<path d="M45.9375 6.5625C44.4541 6.5625 43.0041 7.00237 41.7707 7.82648C40.5373 8.65059 39.576 9.82193 39.0084 11.1924C38.4407 12.5628 38.2922 14.0708 38.5816 15.5257C38.871 16.9805 39.5853 18.3169 40.6342 19.3658C41.6831 20.4147 43.0194 21.129 44.4743 21.4184C45.9292 21.7078 47.4372 21.5593 48.8076 20.9916C50.178 20.4239 51.3494 19.4626 52.1735 18.2293C52.9976 16.9959 53.4375 15.5459 53.4375 14.0625C53.4352 12.0741 52.6443 10.1677 51.2383 8.76167C49.8323 7.35563 47.9259 6.56473 45.9375 6.5625ZM45.9375 19.6875C44.825 19.6875 43.7374 19.3576 42.8124 18.7395C41.8874 18.1214 41.1664 17.2429 40.7407 16.2151C40.3149 15.1873 40.2035 14.0563 40.4206 12.9651C40.6376 11.874 41.1733 10.8717 41.96 10.085C42.7467 9.29835 43.7489 8.76262 44.8401 8.54558C45.9312 8.32854 47.0622 8.43994 48.0901 8.86568C49.1179 9.29142 49.9964 10.0124 50.6145 10.9374C51.2326 11.8624 51.5625 12.95 51.5625 14.0625C51.5608 15.5538 50.9677 16.9836 49.9131 18.0382C48.8586 19.0927 47.4288 19.6859 45.9375 19.6875Z" fill="#151D56" stroke="#151D56"/>
</svg>
