<svg width="60" height="60" viewBox="0 0 60 60" fill="none" xmlns="http://www.w3.org/2000/svg">
<g clip-path="url(#clip0)">
<path d="M56.2493 34.9986H54.9001C54.7141 33.669 54.2308 32.38 53.4429 31.2605C51.9316 29.112 49.5854 27.7532 47.0048 27.531C44.4255 27.3174 41.8925 28.2317 40.0626 30.0605C38.9628 31.1605 38.1742 32.5326 37.7836 34.0293C37.6578 34.5116 37.2697 34.9986 36.6861 34.9986H33.5525L6.67651 1.40164C5.38264 -0.206059 3.01932 -0.472192 1.40553 0.819332C-0.208257 2.11086 -0.470639 4.47429 0.819595 6.08937L23.9458 34.9986H18.7493C18.0583 34.9986 17.4992 35.5577 17.4992 36.2486V39.9989C17.4992 45.4146 20.3859 50.3057 25.0481 52.9819C25.3024 56.8897 28.5288 60.0001 32.4994 60.0001C36.4778 60.0001 39.7105 56.8775 39.953 52.959C42.8599 51.2793 45.1562 48.7101 46.4105 45.5816C46.524 45.2996 46.7694 44.9602 47.0879 44.9309C49.1141 44.7465 50.9204 43.8827 52.3376 42.4992H56.2493C58.3172 42.4992 59.9993 40.8169 59.9993 38.7489C59.9993 36.6808 58.3172 34.9986 56.2493 34.9986ZM2.77276 4.53136C2.34186 3.993 2.42975 3.20445 2.96682 2.77472C3.50389 2.34629 4.29491 2.43171 4.72581 2.97007L30.3496 35.0001H27.1488L2.77276 4.53136ZM32.4994 57.5001C29.7418 57.5001 27.4993 55.2577 27.4993 52.5001C27.4993 49.7424 29.7417 47.5 32.4994 47.5C35.257 47.5 37.4994 49.7424 37.4994 52.5001C37.4994 55.2577 35.2569 57.5001 32.4994 57.5001ZM51.3702 39.8366C50.2972 41.349 48.6956 42.2743 46.8609 42.4415C45.6561 42.5514 44.5953 43.3973 44.0899 44.6498C43.1781 46.9259 41.6015 48.8422 39.6106 50.2317C38.6427 47.2089 35.8393 45.0001 32.4994 45.0001C29.1449 45.0001 26.3317 47.2282 25.3758 50.271C22.0249 47.9531 19.9993 44.1532 19.9993 40V37.5001H36.6864C38.3465 37.5001 39.7601 36.36 40.2031 34.6619C40.4815 33.5962 41.0442 32.6172 41.8303 31.8311C43.1389 30.5225 44.9651 29.8646 46.79 30.0233C48.6601 30.1844 50.2971 31.1354 51.3994 32.7003C52.8753 34.7987 52.863 37.7333 51.3702 39.8366ZM56.2493 40H54.1474C54.5218 39.2054 54.7727 38.3623 54.8949 37.5001H56.2493C56.9389 37.5001 57.4993 38.0603 57.4993 38.7501C57.4993 39.4398 56.939 40 56.2493 40Z" fill="#151D56"/>
<path d="M32.5 55.0001C33.8806 55.0001 34.9999 53.8808 34.9999 52.5001C34.9999 51.1194 33.8806 50.0002 32.5 50.0002C31.1193 50.0002 30 51.1194 30 52.5001C30 53.8808 31.1193 55.0001 32.5 55.0001Z" fill="#151D56"/>
<path d="M48.75 36.2502C49.4404 36.2502 50 35.6905 50 35.0001C50 34.3098 49.4404 33.7501 48.75 33.7501C48.0596 33.7501 47.5 34.3098 47.5 35.0001C47.5 35.6905 48.0596 36.2502 48.75 36.2502Z" fill="#151D56"/>
</g>
<defs>
<clipPath id="clip0">
<rect width="60" height="60" fill="white"/>
</clipPath>
</defs>
</svg>
