<svg width="60" height="60" viewBox="0 0 60 60" fill="none" xmlns="http://www.w3.org/2000/svg">
<g clip-path="url(#clip0)">
<path d="M18.005 0L16.8559 0.127135C10.372 0.845309 7.46335 5.65705 7.34206 5.86122L6.7966 6.78489L12.1956 13.2982L15.1595 11.5298L16.0534 12.9993C12.5895 14.6277 10.505 16.8988 10.505 19.4881C10.505 19.6977 10.5408 19.9022 10.5681 20.1079H10.3536L13.3408 51.4554C13.4048 56.6489 19.9388 60.0002 30.0228 60.0002C33.6988 60.0002 45.6575 59.3843 45.7597 51.4802L46.6269 44.6526C47.2038 44.4978 47.769 44.3149 48.3024 44.0736C54.8858 41.0888 54.4149 32.5608 49.3951 28.3422C49.1866 28.1674 48.9651 28.0664 48.7426 28.0148L49.7467 20.1091H49.4785C49.5054 19.9036 49.541 19.6988 49.541 19.4898C49.541 14.2911 41.151 10.3714 30.0253 10.3714C25.8477 10.3714 22.0576 10.9237 18.9511 11.8891L17.7826 9.9676L21.2079 7.92345L18.005 0ZM46.4868 19.4879C46.4868 19.6936 46.4412 19.9 46.3706 20.1077C46.008 21.1725 44.7466 22.2476 42.8019 23.159C39.8371 24.5481 35.3049 25.5542 30.0219 25.5542C29.0008 25.5542 28.0156 25.5105 27.056 25.4389C27.0268 25.2468 26.9607 25.0577 26.8529 24.8809L25.8051 23.158L23.9491 20.1068L20.602 14.6053C23.233 13.8802 26.4563 13.4204 30.0219 13.4204C39.4469 13.4212 46.4868 16.6238 46.4868 19.4879ZM20.3779 20.1087L22.2342 23.1599L23.3436 24.9846C20.9344 24.555 18.8551 23.9154 17.242 23.1599C15.2964 22.2487 14.0354 21.1734 13.6725 20.1087C13.6018 19.9011 13.5551 19.6936 13.5551 19.4894C13.5551 18.16 15.0871 16.7606 17.6572 15.6386L20.3779 20.1087ZM42.7204 51.1858L42.7087 51.3776C42.7087 54.8153 37.8476 56.9508 30.0219 56.9508C20.6566 56.9508 16.3911 54.0625 16.3911 51.3776L13.8578 24.7274C17.3072 27.1032 23.1387 28.6055 30.0219 28.6055C36.8345 28.6055 42.6083 27.1314 46.0716 24.7993L43.8943 41.9308C43.499 41.9547 43.1067 41.9635 42.7264 41.9605C37.8732 41.9287 32.477 39.9215 28.6253 37.022C27.0936 35.8678 25.6157 38.4493 27.1264 39.5866C31.1173 42.5921 37.756 45.3176 43.492 45.1078L42.7204 51.1858ZM50.1897 37.6202C49.8701 39.5988 48.6155 40.7072 47.0511 41.3071L48.3066 31.4322C49.8371 33.1249 50.585 35.1777 50.1897 37.6202ZM10.595 6.5843C11.4571 5.58661 13.2351 3.96662 16.0658 3.34432L17.3982 6.64042L12.878 9.33758L10.595 6.5843Z" fill="#151D56"/>
</g>
<defs>
<clipPath id="clip0">
<rect width="60" height="60" fill="white"/>
</clipPath>
</defs>
</svg>
