<svg width="60" height="60" viewBox="0 0 60 60" fill="none" xmlns="http://www.w3.org/2000/svg">
<g clip-path="url(#clip0)">
<path d="M24.5924 0.0208277C24.6428 0.016343 24.6872 0.0226964 24.7353 0.0220735C24.7384 0.0220735 24.7416 0.0208277 24.7447 0.0208277C38.9921 -0.472866 53.9675 7.80705 52.6732 23.8279C52.6681 23.8928 52.6521 23.9502 52.6404 24.0106C52.659 24.1764 52.659 24.35 52.6188 24.5386C51.8376 28.1946 53.0366 31.4088 56.0377 33.6502C56.1752 33.7526 56.2806 33.8703 56.3726 33.993C56.676 34.1923 56.9154 34.4979 57.0445 34.8679C57.6074 36.4835 57.1798 38.1283 55.8887 39.2523C55.6759 39.4369 55.4294 39.5629 55.1728 39.6305C54.3394 40.0911 53.468 40.3972 52.5631 40.6111C52.7491 41.6144 52.6577 42.6289 52.1744 43.5842C53.0767 45.3428 52.4778 47.283 50.6963 48.3419C50.5958 48.4019 50.4955 48.4469 50.3969 48.4816C50.0945 48.8417 50.0654 49.4198 50.1767 49.9759C50.2112 50.146 50.2156 50.3161 50.2027 50.4819C50.2105 50.6326 50.2058 50.7857 50.1767 50.94C49.7071 53.4032 47.603 54.7634 45.1955 54.8071C45.0658 54.8097 44.9462 54.7962 44.8333 54.7734C44.7219 54.7786 44.6052 54.7722 44.4848 54.7526C40.6183 54.1257 36.216 54.4761 34.7637 58.7227C34.4734 59.5711 33.6975 59.8589 33.0022 59.7469C32.7679 59.9228 32.4595 60.0227 32.0707 59.9955C25.0644 59.5058 18.1198 58.488 11.1631 57.5544C10.917 57.5213 10.7038 57.4417 10.5198 57.329C9.67645 57.0659 8.99527 56.1221 9.53991 55.1048C14.1882 46.4383 4.76517 36.9835 2.97676 28.658C2.93752 28.478 2.9369 28.3113 2.95272 28.1525C1.06253 14.4785 10.5242 1.28789 24.5924 0.0208277ZM5.92024 27.5427C5.93855 27.6693 5.94104 27.7904 5.93407 27.9067C7.87682 36.815 16.3964 45.427 13.0235 54.7546C19.3588 55.615 25.6899 56.4981 32.0715 56.9447C32.1168 56.9478 32.1562 56.9599 32.1996 56.9669C34.4805 51.8903 39.7875 50.98 45.0384 51.7752C45.0908 51.7688 45.1395 51.7573 45.1958 51.7562C45.7937 51.7448 46.1059 51.6829 46.5724 51.3982C46.5315 51.4109 46.8121 51.1869 46.8096 51.1907C46.8497 51.1502 46.8747 51.1261 46.8931 51.1103C46.8931 51.0982 46.9091 51.0622 46.968 50.9667C47.0569 50.8243 47.1224 50.6238 47.1768 50.3974C46.9061 48.5275 47.4371 46.903 49.004 45.7075C49.1299 45.6119 49.271 45.5582 49.4167 45.5227C49.4619 45.4847 49.5059 45.4481 49.5534 45.4001C49.5448 45.4039 49.5527 45.3849 49.5799 45.3412C49.5799 45.3026 49.5825 45.29 49.5869 45.2937C49.5682 45.2129 49.5503 45.1318 49.5217 45.0533C49.5211 45.0502 49.2936 44.6973 49.2184 44.5909C49.0081 44.2941 48.965 43.9342 49.0311 43.5882C48.9686 43.2467 49.0131 42.8899 49.2184 42.5926C49.7955 41.7563 49.6821 41.0446 49.2184 40.1653C48.5544 38.907 49.7504 37.7584 50.81 37.876C50.821 37.8746 50.8309 37.8709 50.8416 37.869C51.9164 37.7273 52.9554 37.4128 53.8869 36.8562C53.9536 36.817 54.0192 36.7929 54.0846 36.7632C54.1311 36.6955 54.1744 36.6265 54.2134 36.5551C54.22 36.5354 54.2251 36.5184 54.2342 36.4905C54.2418 36.4551 54.2471 36.4317 54.2522 36.4089C54.2549 36.3387 54.2529 36.2697 54.2497 36.1995C54.2446 36.1805 54.2348 36.1368 54.2218 36.0692C50.3457 33.0404 48.6807 28.8773 49.6239 24.0114C49.622 23.9503 49.6157 23.8934 49.6208 23.8285C50.7842 9.42778 37.3869 2.63542 24.7455 3.07306C24.7056 3.0743 24.6702 3.06733 24.6316 3.06608C24.6177 3.06733 24.6063 3.07169 24.5925 3.07306C12.5909 4.15425 4.21031 15.859 5.92024 27.5427Z" fill="#151D56"/>
<path d="M41.2422 22.0703H40.6562V19.4336C40.6562 18.1411 39.6045 17.0898 38.3125 17.0898C37.8607 17.0898 37.4382 17.2182 37.0802 17.4407C36.8406 16.4014 35.9072 15.625 34.7969 15.625C33.5051 15.625 32.4524 16.6763 32.4524 17.9688V22.0703H23.5476V17.9688C23.5476 16.6763 22.4956 15.625 21.2031 15.625C20.0928 15.625 19.1594 16.4014 18.9198 17.4407C18.5618 17.2182 18.1393 17.0898 17.6875 17.0898C16.3955 17.0898 15.3438 18.1411 15.3438 19.4336V22.0703H14.7578C13.7887 22.0703 13 22.859 13 23.8281V26.1719C13 27.141 13.7887 27.9297 14.7578 27.9297H15.3438V30.5664C15.3438 31.8589 16.3955 32.9102 17.6875 32.9102C18.1393 32.9102 18.5618 32.7818 18.9198 32.5593C19.1594 33.5986 20.0928 34.375 21.2031 34.375C22.4949 34.375 23.5476 33.3237 23.5476 32.0312V27.9297H32.4524V32.0312C32.4524 33.3237 33.5044 34.375 34.7969 34.375C35.9072 34.375 36.8406 33.5986 37.0802 32.5593C37.4382 32.7818 37.8607 32.9102 38.3125 32.9102C39.6045 32.9102 40.6562 31.8589 40.6562 30.5664V27.9297H41.2422C42.2113 27.9297 43 27.141 43 26.1719V23.8281C43 22.859 42.2113 22.0703 41.2422 22.0703ZM15.3438 26.7578H14.7578C14.4349 26.7578 14.1719 26.4948 14.1719 26.1719V23.8281C14.1719 23.5052 14.4349 23.2422 14.7578 23.2422H15.3438V26.7578ZM18.8594 30.5664C18.8594 30.8898 18.7282 31.1828 18.5161 31.395C18.3039 31.6071 18.0109 31.7383 17.6875 31.7383C17.0411 31.7383 16.5156 31.2128 16.5156 30.5664V19.4336C16.5156 18.7872 17.0411 18.2617 17.6875 18.2617C18.3339 18.2617 18.8594 18.7872 18.8594 19.4336V30.5664ZM22.3757 32.0312C22.3757 32.6776 21.8495 33.2031 21.2038 33.2031C20.5581 33.2031 20.0312 32.6776 20.0312 32.0312V17.9688C20.0312 17.3224 20.5574 16.7969 21.2038 16.7969C21.8495 16.7969 22.3757 17.3224 22.3757 17.9688V32.0312ZM32.449 24.4141C32.449 24.932 32.449 24.6766 32.449 25C32.449 25.3234 32.449 25 32.449 25.5859V26.7578H23.5446V23.2422H32.449V24.4141ZM35.9688 32.0312C35.9688 32.6776 35.4426 33.2031 34.7962 33.2031C34.1505 33.2031 33.6243 32.6776 33.6243 32.0312V25.03C33.6239 25.0428 33.6227 25.0556 33.6209 25.068V24.932C33.6227 24.9444 33.6239 24.9572 33.6243 24.97V17.9688C33.6243 17.3224 34.1505 16.7969 34.7962 16.7969C35.4419 16.7969 35.9688 17.3224 35.9688 17.9688V32.0312ZM39.4844 30.5664C39.4844 31.2128 38.9589 31.7383 38.3125 31.7383C37.6661 31.7383 37.1406 31.2128 37.1406 30.5664V19.4336C37.1406 18.7872 37.6661 18.2617 38.3125 18.2617C38.9589 18.2617 39.4844 18.7872 39.4844 19.4336V30.5664ZM41.8281 26.1719C41.8281 26.4948 41.5651 26.7578 41.2422 26.7578H40.6562V23.2422H41.2422C41.5651 23.2422 41.8281 23.5052 41.8281 23.8281V26.1719Z" fill="#151D56" stroke="#151D56" stroke-width="0.9"/>
</g>
<defs>
<clipPath id="clip0">
<rect width="60.0001" height="60" fill="white"/>
</clipPath>
</defs>
</svg>
