<svg width="60" height="60" viewBox="0 0 60 60" fill="none" xmlns="http://www.w3.org/2000/svg">
<g clip-path="url(#clip0)">
<path d="M24.5924 0.0208277C24.6429 0.016343 24.6872 0.0226964 24.7353 0.0220735C24.7384 0.0220735 24.7416 0.0208277 24.7448 0.0208277C38.9921 -0.472866 53.9675 7.80705 52.6733 23.8279C52.6681 23.8928 52.6521 23.9502 52.6404 24.0106C52.6591 24.1764 52.6591 24.35 52.6188 24.5386C51.8376 28.1946 53.0366 31.4088 56.0377 33.6502C56.1752 33.7526 56.2806 33.8703 56.3727 33.993C56.676 34.1923 56.9154 34.4979 57.0445 34.8679C57.6074 36.4835 57.1798 38.1283 55.8887 39.2523C55.6759 39.4369 55.4294 39.5629 55.1729 39.6305C54.3395 40.0911 53.468 40.3972 52.5631 40.6111C52.7491 41.6144 52.6577 42.6289 52.1745 43.5842C53.0768 45.3428 52.4778 47.283 50.6964 48.3419C50.5958 48.4019 50.4955 48.4469 50.3969 48.4816C50.0945 48.8417 50.0654 49.4198 50.1768 49.9759C50.2113 50.146 50.2156 50.3161 50.2027 50.4819C50.2105 50.6326 50.2058 50.7857 50.1768 50.94C49.7071 53.4032 47.603 54.7634 45.1955 54.8071C45.0658 54.8097 44.9462 54.7962 44.8333 54.7734C44.722 54.7786 44.6052 54.7722 44.4848 54.7526C40.6183 54.1257 36.2161 54.4761 34.7638 58.7227C34.4734 59.5711 33.6975 59.8589 33.0023 59.7469C32.7679 59.9228 32.4595 60.0227 32.0707 59.9955C25.0644 59.5058 18.1198 58.488 11.1631 57.5544C10.917 57.5213 10.7038 57.4417 10.5198 57.329C9.67646 57.0659 8.99528 56.1221 9.53992 55.1048C14.1882 46.4383 4.76519 36.9835 2.97678 28.658C2.93754 28.478 2.93692 28.3113 2.95274 28.1525C1.06255 14.4785 10.5242 1.28789 24.5924 0.0208277ZM5.92025 27.5427C5.93857 27.6693 5.94106 27.7904 5.93408 27.9067C7.87684 36.815 16.3964 45.427 13.0236 54.7546C19.3589 55.615 25.6899 56.4981 32.0716 56.9447C32.1168 56.9478 32.1563 56.9599 32.1996 56.9669C34.4805 51.8903 39.7875 50.98 45.0384 51.7752C45.0908 51.7688 45.1395 51.7573 45.1958 51.7562C45.7937 51.7448 46.1059 51.6829 46.5724 51.3982C46.5315 51.4109 46.8121 51.1869 46.8096 51.1907C46.8497 51.1502 46.8748 51.1261 46.8931 51.1103C46.8931 51.0982 46.9091 51.0622 46.9681 50.9667C47.0569 50.8243 47.1224 50.6238 47.1769 50.3974C46.9061 48.5275 47.4371 46.903 49.004 45.7075C49.1299 45.6119 49.271 45.5582 49.4167 45.5227C49.4619 45.4847 49.5059 45.4481 49.5534 45.4001C49.5448 45.4039 49.5528 45.3849 49.5799 45.3412C49.5799 45.3026 49.5825 45.29 49.5869 45.2937C49.5682 45.2129 49.5503 45.1318 49.5217 45.0533C49.5211 45.0502 49.2936 44.6973 49.2184 44.5909C49.0081 44.2941 48.965 43.9342 49.0312 43.5882C48.9686 43.2467 49.0131 42.8899 49.2184 42.5926C49.7956 41.7563 49.6821 41.0446 49.2184 40.1653C48.5544 38.907 49.7505 37.7584 50.81 37.876C50.8211 37.8746 50.8309 37.8709 50.8416 37.869C51.9165 37.7273 52.9554 37.4128 53.8869 36.8562C53.9536 36.817 54.0192 36.7929 54.0846 36.7632C54.1312 36.6955 54.1744 36.6265 54.2134 36.5551C54.22 36.5354 54.2251 36.5184 54.2342 36.4905C54.2418 36.4551 54.2471 36.4317 54.2522 36.4089C54.2549 36.3387 54.2529 36.2697 54.2498 36.1995C54.2447 36.1805 54.2348 36.1368 54.2219 36.0692C50.3457 33.0404 48.6807 28.8773 49.6239 24.0114C49.622 23.9503 49.6157 23.8934 49.6208 23.8285C50.7842 9.42778 37.3869 2.63542 24.7455 3.07306C24.7056 3.0743 24.6703 3.06733 24.6316 3.06608C24.6177 3.06733 24.6064 3.07169 24.5925 3.07306C12.5909 4.15425 4.21033 15.859 5.92025 27.5427Z" fill="#151D56"/>
<path d="M41.0188 32.131C41.6699 30.7579 41.9997 29.2851 41.9997 27.7486C41.9997 22.2638 37.6461 17.7712 32.1945 17.5074C30.9659 13.0819 26.9303 9.99512 22.3127 9.99512C16.6265 9.99512 12.0005 14.5949 12.0005 20.2488C12.0005 21.7853 12.3303 23.258 12.9814 24.6311L12.0175 29.4512C11.8948 30.0648 12.4361 30.6072 13.0498 30.4858L17.9293 29.521C19.1517 30.1009 20.4519 30.4249 21.8064 30.4895C23.5142 36.6388 30.3736 39.7232 36.0708 37.0209C41.4148 38.0774 40.9981 38.0023 41.1208 38.0023C41.6762 38.0023 42.0911 37.4933 41.9826 36.9511L41.0188 32.131ZM18.4508 27.8186C18.2749 27.7287 18.0738 27.7006 17.8803 27.7389L13.9991 28.5063L14.7637 24.6832C14.8025 24.4889 14.7746 24.2871 14.6843 24.1107C14.0699 22.9086 13.7582 21.6094 13.7582 20.2488C13.7582 15.5641 17.5957 11.7529 22.3127 11.7529C25.999 11.7529 29.2453 14.1499 30.3798 17.578C25.0065 18.265 20.9596 23.1133 21.4788 28.7041C20.4197 28.6024 19.4051 28.3065 18.4508 27.8186ZM39.2366 32.183L40.0012 36.0061L36.12 35.2388C35.9263 35.2005 35.7253 35.2285 35.5495 35.3184C34.3474 35.9328 33.0481 36.2445 31.6875 36.2445C27.0029 36.2445 23.1917 32.4332 23.1917 27.7486C23.1917 23.064 27.0029 19.2527 31.6875 19.2527C36.4045 19.2527 40.242 23.064 40.242 27.7486C40.242 29.1092 39.9304 30.4085 39.3159 31.6105C39.2256 31.787 39.1977 31.9887 39.2366 32.183Z" fill="#151D56" stroke="#151D56" stroke-width="0.75"/>
</g>
<defs>
<clipPath id="clip0">
<rect width="60.0001" height="60" fill="white"/>
</clipPath>
</defs>
</svg>
