<svg width="60" height="60" viewBox="0 0 60 60" fill="none" xmlns="http://www.w3.org/2000/svg">
<path d="M59.1889 53.5134V51.2682C59.1889 47.9256 56.6472 45.1676 53.3962 44.8196C54.0589 43.8032 54.4486 42.5908 54.4486 41.289V39.0437C54.4486 35.9389 52.253 33.3388 49.3343 32.7073C50.0417 31.6686 50.457 30.4138 50.457 29.0645V26.8192C50.457 23.7139 48.2612 21.1145 45.3424 20.4824C46.05 19.4435 46.4651 18.1895 46.4651 16.84V14.5947C46.4651 11.0181 43.5553 8.10808 39.9786 8.10808H35.488V6.23699C35.488 2.79842 32.689 0 29.251 0C25.8125 0 23.014 2.79842 23.014 6.23699V8.10808H18.5234C14.9468 8.10808 12.0369 11.0181 12.0369 14.5947V16.8399C12.0369 18.1893 12.4522 19.4424 13.1596 20.4823C10.2409 21.1143 8.04527 23.7137 8.04527 26.819V29.0644C8.04527 30.4136 8.46051 31.6663 9.16793 32.7071C6.2492 33.3386 4.0536 35.9387 4.0536 39.0435V41.2889C4.0536 42.7126 4.5204 44.0272 5.30192 45.0992C2.69939 45.943 0.810364 48.3883 0.810364 51.268V53.5132C0.810364 57.0898 3.7204 59.9998 7.29683 59.9998H52.7021C56.2789 60 59.1889 57.09 59.1889 53.5134ZM3.80449 53.5134V51.2682C3.80449 49.3424 5.37103 47.7755 7.2972 47.7755H10.5404H47.9624H52.7023C54.6281 47.7755 56.195 49.3424 56.195 51.2682V53.5134C56.195 55.4391 54.6281 57.0061 52.7023 57.0061H7.29701C5.37085 57.0062 3.80449 55.4391 3.80449 53.5134ZM15.0311 16.8399V14.5947C15.0311 12.6686 16.5976 11.102 18.5238 11.102H23.0144H26.0082H32.4946H35.4884H39.979C41.9046 11.102 43.4715 12.6688 43.4715 14.5947V16.8399C43.4715 18.766 41.9046 20.3326 39.979 20.3326H35.4884H32.4946H26.0082H23.0144H18.5238C16.5974 20.3326 15.0311 18.766 15.0311 16.8399ZM11.0394 29.0644V26.819C11.0394 24.8929 12.6059 23.3265 14.5321 23.3265H18.5238H23.0144H26.0082H32.4946H35.4884H39.979H43.9707C45.8965 23.3265 47.4634 24.8931 47.4634 26.819V29.0644C47.4634 30.99 45.8965 32.5571 43.9707 32.5571H32.4176H26.0841H14.5321C12.6059 32.5573 11.0394 30.99 11.0394 29.0644ZM7.04772 39.0435C7.04772 37.1179 8.61427 35.5508 10.5404 35.5508H14.5321H43.9707H47.9625C49.8881 35.5508 51.4551 37.1179 51.4551 39.0435V41.2889C51.4551 43.2145 49.8881 44.7814 47.9625 44.7814H10.5406C8.61445 44.7814 7.0479 43.2145 7.0479 41.2889V39.0435H7.04772ZM26.0082 6.23699C26.0082 4.44868 27.4631 2.99375 29.2514 2.99375C31.0397 2.99375 32.4946 4.44868 32.4946 6.23699V8.10808H26.0082V6.23699Z" fill="#151D56"/>
<path d="M48.0871 51.767C49.6013 51.767 50.8313 52.9968 50.8313 54.5114C50.8313 55.3388 51.5009 56.0083 52.3284 56.0083C53.1557 56.0083 53.8253 55.3388 53.8253 54.5114C53.8253 51.348 51.2505 48.7734 48.0872 48.7734C47.2597 48.7734 46.5902 49.4427 46.5902 50.2703C46.5902 51.0978 47.2595 51.767 48.0871 51.767Z" fill="#151D56"/>
<path d="M43.0975 39.792C44.6117 39.792 45.8417 41.0218 45.8417 42.5364C45.8417 43.3638 46.5113 44.0333 47.3388 44.0333C48.1661 44.0333 48.8357 43.3638 48.8357 42.5364C48.8357 39.373 46.2609 36.7982 43.0976 36.7982C42.2701 36.7982 41.6006 37.4678 41.6006 38.2953C41.6004 39.1224 42.2699 39.792 43.0975 39.792Z" fill="#151D56"/>
<path d="M39.1057 27.318C40.6201 27.318 41.8502 28.5484 41.8502 30.0623C41.8502 30.8896 42.5197 31.5592 43.347 31.5592C44.1746 31.5592 44.8441 30.8896 44.8441 30.0623C44.8441 26.8989 42.2693 24.3242 39.1059 24.3242C38.2785 24.3242 37.609 24.9938 37.609 25.8213C37.609 26.6485 38.2785 27.318 39.1057 27.318Z" fill="#151D56"/>
<path d="M35.1143 14.7193C35.2418 14.7193 35.3647 14.7402 35.4885 14.7574C36.8237 14.9422 37.8584 16.0783 37.8584 17.4636C37.8584 18.2911 38.5279 18.9606 39.3554 18.9606C40.1828 18.9606 40.8523 18.2911 40.8523 17.4636C40.8523 14.426 38.4773 11.939 35.4887 11.7446C35.3638 11.7362 35.2411 11.7255 35.1145 11.7255C34.287 11.7255 33.6176 12.3951 33.6176 13.2224C33.6176 14.0498 34.2868 14.7193 35.1143 14.7193Z" fill="#151D56"/>
</svg>
