<svg width="60" height="60" viewBox="0 0 60 60" fill="none" xmlns="http://www.w3.org/2000/svg">
<g clip-path="url(#clip0)">
<path d="M34.5697 30.2879L29.5572 25.2755C29.0986 24.8168 28.3668 24.7843 27.868 25.1978L2.43268 46.3953C0.976665 47.6082 0.0919397 49.3926 0.0067683 51.2873C-0.0784031 53.1819 0.640796 55.0366 1.98169 56.3773L3.4679 57.8636C4.74852 59.1417 6.44525 59.846 8.25218 59.846C10.2672 59.846 12.1618 58.9588 13.4526 57.4124L34.6474 31.9771C35.0608 31.4784 35.0283 30.7465 34.5697 30.2879ZM11.5277 55.8059C9.98639 57.653 6.94383 57.7959 5.2397 56.0916L3.75349 54.6054C2.89637 53.7483 2.45524 52.608 2.51045 51.4C2.56555 50.1896 3.10689 49.0969 4.03919 48.3199L28.5973 27.8543L31.9907 31.2503L11.5277 55.8059Z" fill="#151D56" stroke="#151D56" stroke-width="0.5"/>
<path d="M52.113 22.7693L37.0759 7.73215C36.5872 7.24345 35.7927 7.24345 35.304 7.73215L22.7731 20.2632C22.2844 20.7519 22.2844 21.5464 22.7731 22.0351L37.8102 37.0722C38.0559 37.3153 38.3766 37.4382 38.6974 37.4382C39.0183 37.4382 39.339 37.3154 39.5822 37.0722L52.1131 24.5412C52.6017 24.0525 52.6017 23.258 52.113 22.7693ZM38.6974 34.4131L25.4321 21.1479L36.1912 10.3888L49.4564 23.654L38.6974 34.4131Z" fill="#151D56" stroke="#151D56" stroke-width="0.5"/>
<path d="M57.7043 23.3457C55.5816 21.223 51.8874 21.223 49.7647 23.3457L38.3891 34.7213C36.2012 36.9117 36.2012 40.473 38.3942 42.666C39.8127 44.0845 41.7023 44.8664 43.7098 44.8664C45.7197 44.8664 47.6069 44.0845 49.0254 42.666L57.7094 33.982C60.6391 31.0522 60.6391 26.2804 57.7043 23.3457ZM55.9375 32.2076L47.2535 40.8916C45.3613 42.7838 42.0632 42.7887 40.161 40.8865C39.5746 40.3001 39.2513 39.5181 39.2513 38.6886C39.2513 37.8591 39.5746 37.0772 40.161 36.4907L51.5366 25.1151C52.1231 24.5287 52.905 24.2054 53.7345 24.2054C54.564 24.2054 55.346 24.5287 55.9375 25.1202C57.8923 27.0749 57.8923 30.2528 55.9375 32.2076Z" fill="#151D56" stroke="#151D56" stroke-width="0.5"/>
<path d="M36.4944 2.13588C33.6549 -0.703678 28.7027 -0.703678 25.8632 2.13588L17.1792 10.8198C14.2494 13.7496 14.2494 18.5189 17.1843 21.4562C18.2444 22.5163 19.6554 23.1003 21.1541 23.1003C22.6553 23.1003 24.0638 22.5163 25.1239 21.4562L36.4995 10.0805C38.6874 7.89005 38.6874 4.32883 36.4944 2.13588ZM34.7276 8.30863L23.352 19.6842C22.1766 20.8596 20.1365 20.8647 18.9511 19.6792C16.9963 17.7244 16.9963 14.5465 18.9511 12.5916L27.6351 3.90521C28.58 2.96034 29.8405 2.43909 31.1788 2.43909C32.5196 2.43909 33.7778 2.96034 34.7276 3.91273C35.314 4.49918 35.6373 5.28111 35.6373 6.11062C35.6373 6.94025 35.314 7.72218 34.7276 8.30863Z" fill="#151D56" stroke="#151D56" stroke-width="0.5"/>
<path d="M53.7346 52.4751H39.0107C35.5572 52.4751 32.7453 55.287 32.7453 58.7405C32.7453 59.4322 33.3067 59.9937 33.9984 59.9937H58.7471C59.4412 59.9937 60.0002 59.4322 60.0002 58.7405C60.0001 55.287 57.1881 52.4751 53.7346 52.4751ZM35.467 57.4875C35.9833 56.0289 37.3792 54.9814 39.0107 54.9814H53.7345C55.3685 54.9814 56.762 56.0289 57.2808 57.4875H35.467Z" fill="#151D56" stroke="#151D56" stroke-width="0.5"/>
</g>
<defs>
<clipPath id="clip0">
<rect width="60" height="60" fill="white"/>
</clipPath>
</defs>
</svg>
