<svg width="60" height="60" viewBox="0 0 60 60" fill="none" xmlns="http://www.w3.org/2000/svg">
<g clip-path="url(#clip0)">
<path d="M6.86012 46.4862C7.27452 51.822 11.7384 56.04 17.179 56.04C22.6195 56.04 27.0834 51.822 27.4978 46.4862H32.0385C32.4525 51.822 36.9171 56.04 42.3573 56.04C47.7974 56.04 52.2621 51.822 52.6761 46.4862H58.2249C59.0949 46.4862 59.7985 45.7825 59.7985 44.9126C59.7985 43.5614 59.8446 42.123 59.8939 40.6023C60.107 34.0045 60.3262 27.184 57.0437 23.7313C55.7682 22.3892 54.0858 21.6895 52.0451 21.6531C45.4904 21.5323 41.6126 16.1085 38.1899 11.3236C35.3806 7.39259 32.9525 3.99876 29.3749 3.99876C27.647 3.99876 26.0283 3.98808 24.509 3.97778C23.1623 3.96865 21.8939 3.95991 20.6989 3.95991C0 3.95991 0 7.83516 0 44.9137C0 45.7835 0.703866 46.4874 1.57365 46.4874H6.86012V46.4862ZM20.6987 7.10623C21.8861 7.10623 23.1474 7.11497 24.4879 7.12429C26.0133 7.13459 27.6398 7.14528 29.3747 7.14528C31.3336 7.14528 33.4194 10.0635 35.6302 13.1545C39.293 18.276 43.8509 24.6506 51.9876 24.7994C53.1884 24.8216 54.0695 25.1709 54.7629 25.8998C57.1379 28.3986 56.9318 34.8284 56.7486 40.5C56.7167 41.4795 56.6872 42.4229 56.6697 43.3389H52.4405C51.3768 38.7522 47.2645 35.3201 42.3583 35.3201C37.452 35.3201 33.3395 38.7511 32.2761 43.3389H27.2616C26.1971 38.7522 22.0858 35.3201 17.179 35.3201C12.2727 35.3201 8.16081 38.7511 7.09617 43.3389H3.14729C3.15545 7.45146 3.55858 7.10623 20.6987 7.10623ZM49.5698 45.68C49.5698 45.9524 49.5514 46.2208 49.5217 46.486C49.1191 50.0852 46.0618 52.8925 42.3573 52.8925C38.6526 52.8925 35.5955 50.0854 35.1929 46.486C35.1632 46.2208 35.1447 45.9524 35.1447 45.68C35.1447 45.4196 35.1611 45.1636 35.1867 44.9116C35.2452 44.3665 35.3689 43.8398 35.5422 43.3378C36.5177 40.5083 39.2007 38.4653 42.3573 38.4653C45.5137 38.4653 48.1971 40.5071 49.1723 43.3378C49.3454 43.8398 49.4694 44.3665 49.5277 44.9116C49.5533 45.1636 49.5698 45.4198 49.5698 45.68ZM24.3915 45.68C24.3915 45.9524 24.3725 46.2208 24.3433 46.486C23.9402 50.0852 20.8836 52.8925 17.179 52.8925C13.4749 52.8925 10.4168 50.0854 10.0146 46.486C9.98546 46.2208 9.96642 45.9524 9.96642 45.68C9.96642 45.4196 9.98235 45.1636 10.0084 44.9116C10.0663 44.3665 10.1906 43.8398 10.3639 43.3378C11.3388 40.5083 14.0225 38.4653 17.179 38.4653C20.3354 38.4653 23.0191 40.5071 23.994 43.3378C24.1673 43.8398 24.2916 44.3665 24.3495 44.9116C24.3758 45.1636 24.3915 45.4198 24.3915 45.68Z" fill="#151D56"/>
<path d="M28.8001 25.0648L32.0263 25.0708C32.0284 25.0708 32.0366 25.0708 32.0378 25.0708C35.1225 25.0708 37.6386 22.5604 37.6436 19.4751C37.6436 19.0648 37.4849 18.6704 37.2001 18.3768L29.9553 10.9018C29.6583 10.5956 29.2439 10.4235 28.818 10.4235C25.7321 10.4235 23.2164 12.9339 23.2114 16.0193L23.2051 19.4479C23.2032 20.9455 23.7831 22.3548 24.8398 23.4152C25.8951 24.4763 27.3017 25.0627 28.8001 25.0648ZM32.0325 21.9237L28.8052 21.9175C28.1485 21.9165 27.5317 21.6593 27.0676 21.1936C26.604 20.7285 26.3495 20.1098 26.3505 19.4531L26.3567 16.0245C26.3588 14.875 27.1548 13.9075 28.2274 13.6421L34.4278 20.0385C34.1674 21.1179 33.1941 21.9226 32.0364 21.9226V23.4952L32.0325 21.9237Z" fill="#151D56"/>
<path d="M11.7291 25.135H15.1972C18.3153 25.135 20.851 22.5993 20.851 19.4812V16.0133C20.851 12.8963 18.3153 10.3594 15.1972 10.3594H11.7291C8.61213 10.3594 6.07526 12.8952 6.07526 16.0133V19.4813C6.07526 22.5983 8.61213 25.135 11.7291 25.135ZM9.22274 16.0133C9.22274 14.6318 10.3472 13.5069 11.7291 13.5069H15.1972C16.5792 13.5069 17.7035 14.6318 17.7035 16.0133V19.4813C17.7035 20.8629 16.5792 21.9877 15.1972 21.9877H11.7291C10.347 21.9877 9.22274 20.8629 9.22274 19.4813V16.0133Z" fill="#151D56"/>
</g>
<defs>
<clipPath id="clip0">
<rect width="60" height="59.9998" fill="white"/>
</clipPath>
</defs>
</svg>
