<svg width="60" height="60" viewBox="0 0 60 60" fill="none" xmlns="http://www.w3.org/2000/svg">
<g clip-path="url(#clip0)">
<path d="M24.5924 0.0208277C24.6429 0.016343 24.6872 0.0226964 24.7353 0.0220735C24.7384 0.0220735 24.7417 0.0208277 24.7448 0.0208277C38.9921 -0.472866 53.9675 7.80705 52.6733 23.8279C52.6682 23.8928 52.6521 23.9502 52.6404 24.0106C52.6591 24.1764 52.6591 24.35 52.6188 24.5386C51.8376 28.1946 53.0367 31.4088 56.0377 33.6502C56.1752 33.7526 56.2806 33.8703 56.3727 33.993C56.676 34.1923 56.9154 34.4979 57.0445 34.8679C57.6075 36.4835 57.1798 38.1283 55.8887 39.2523C55.6759 39.4369 55.4294 39.5629 55.1729 39.6305C54.3395 40.0911 53.4681 40.3972 52.5631 40.6111C52.7491 41.6144 52.6577 42.6289 52.1745 43.5842C53.0768 45.3428 52.4778 47.283 50.6964 48.3419C50.5958 48.4019 50.4956 48.4469 50.3969 48.4816C50.0946 48.8417 50.0654 49.4198 50.1768 49.9759C50.2113 50.146 50.2156 50.3161 50.2027 50.4819C50.2105 50.6326 50.2058 50.7857 50.1768 50.94C49.7071 53.4032 47.603 54.7634 45.1955 54.8071C45.0658 54.8097 44.9462 54.7962 44.8333 54.7734C44.722 54.7786 44.6053 54.7722 44.4848 54.7526C40.6183 54.1257 36.2161 54.4761 34.7638 58.7227C34.4734 59.5711 33.6975 59.8589 33.0023 59.7469C32.7679 59.9228 32.4595 60.0227 32.0707 59.9955C25.0644 59.5058 18.1198 58.488 11.1632 57.5544C10.917 57.5213 10.7038 57.4417 10.5199 57.329C9.67648 57.0659 8.9953 56.1221 9.53994 55.1048C14.1882 46.4383 4.76521 36.9835 2.9768 28.658C2.93755 28.478 2.93693 28.3113 2.95275 28.1525C1.06256 14.4785 10.5242 1.28789 24.5924 0.0208277ZM5.92027 27.5427C5.93858 27.6693 5.94107 27.7904 5.9341 27.9067C7.87685 36.815 16.3965 45.427 13.0236 54.7546C19.3589 55.615 25.6899 56.4981 32.0716 56.9447C32.1168 56.9478 32.1563 56.9599 32.1996 56.9669C34.4805 51.8903 39.7875 50.98 45.0384 51.7752C45.0908 51.7688 45.1396 51.7573 45.1959 51.7562C45.7937 51.7448 46.1059 51.6829 46.5724 51.3982C46.5316 51.4109 46.8121 51.1869 46.8096 51.1907C46.8497 51.1502 46.8748 51.1261 46.8931 51.1103C46.8931 51.0982 46.9092 51.0622 46.9681 50.9667C47.0569 50.8243 47.1224 50.6238 47.1769 50.3974C46.9062 48.5275 47.4371 46.903 49.004 45.7075C49.13 45.6119 49.271 45.5582 49.4167 45.5227C49.462 45.4847 49.5059 45.4481 49.5534 45.4001C49.5448 45.4039 49.5528 45.3849 49.5799 45.3412C49.5799 45.3026 49.5825 45.29 49.5869 45.2937C49.5682 45.2129 49.5503 45.1318 49.5218 45.0533C49.5211 45.0502 49.2937 44.6973 49.2184 44.5909C49.0081 44.2941 48.965 43.9342 49.0312 43.5882C48.9686 43.2467 49.0131 42.8899 49.2184 42.5926C49.7956 41.7563 49.6821 41.0446 49.2184 40.1653C48.5544 38.907 49.7505 37.7584 50.81 37.876C50.8211 37.8746 50.8309 37.8709 50.8416 37.869C51.9165 37.7273 52.9554 37.4128 53.8869 36.8562C53.9537 36.817 54.0192 36.7929 54.0846 36.7632C54.1312 36.6955 54.1744 36.6265 54.2134 36.5551C54.22 36.5354 54.2251 36.5184 54.2342 36.4905C54.2418 36.4551 54.2472 36.4317 54.2523 36.4089C54.2549 36.3387 54.2529 36.2697 54.2498 36.1995C54.2447 36.1805 54.2348 36.1368 54.2219 36.0692C50.3457 33.0404 48.6807 28.8773 49.6239 24.0114C49.622 23.9503 49.6157 23.8934 49.6208 23.8285C50.7842 9.42778 37.387 2.63542 24.7455 3.07306C24.7057 3.0743 24.6703 3.06733 24.6317 3.06608C24.6177 3.06733 24.6064 3.07169 24.5925 3.07306C12.5909 4.15425 4.21034 15.859 5.92027 27.5427Z" fill="#151D56"/>
<path d="M20.864 13.1515C17.3068 13.1515 14.4126 16.0842 14.4137 19.6458C14.3996 19.9053 14.0867 26.0447 16.6711 30.3411C18.1933 32.8696 20.1772 33.2476 21.2244 33.2476C23.2121 33.2476 25.0384 31.942 25.4722 30.2113C26.1156 27.6441 24.9826 26.2604 24.233 25.3445C23.8188 24.8378 23.5855 24.5375 23.6159 24.254C23.6504 23.935 23.9988 23.3123 25.4612 22.1569C26.1982 21.5748 27.0868 20.356 27.2987 19.325C27.6787 17.4714 27.441 16.0038 26.5925 14.9633C25.2833 13.3571 22.8433 13.1515 20.864 13.1515ZM25.7612 19.0089C25.6343 19.63 24.9846 20.5328 24.4889 20.9246C22.8868 22.1906 22.1591 23.1351 22.056 24.0839C21.9531 25.0355 22.5196 25.7276 23.0191 26.3375C23.7298 27.2069 24.4025 28.0277 23.9499 29.8293C23.6899 30.8662 22.4929 31.6784 21.2243 31.6784C19.9884 31.6784 18.8486 30.9163 18.0155 29.5321C15.6837 25.6552 15.9771 19.7916 15.9818 19.6898C15.9818 16.9502 18.1723 14.7208 20.8639 14.7208C22.4964 14.7208 24.485 14.861 25.3768 15.954C25.9129 16.6112 26.0421 17.6393 25.7612 19.0089Z" fill="#151D56" stroke="#151D56" stroke-width="0.5"/>
<path d="M25.1049 12.5306C26.0798 12.5306 26.8702 11.7403 26.8702 10.7653C26.8702 9.79036 26.0798 9 25.1049 9C24.1299 9 23.3396 9.79036 23.3396 10.7653C23.3396 11.7403 24.1299 12.5306 25.1049 12.5306Z" fill="#151D56" stroke="#151D56" stroke-width="0.5"/>
<path d="M21.1429 12.1372C21.9373 12.1372 22.5813 11.4932 22.5813 10.6988C22.5813 9.90443 21.9373 9.26044 21.1429 9.26044C20.3485 9.26044 19.7045 9.90443 19.7045 10.6988C19.7045 11.4932 20.3485 12.1372 21.1429 12.1372Z" fill="#151D56" stroke="#151D56" stroke-width="0.5"/>
<path d="M18.2258 12.6859C18.8396 12.6859 19.3373 12.1883 19.3373 11.5744C19.3373 10.9606 18.8396 10.4629 18.2258 10.4629C17.6119 10.4629 17.1143 10.9606 17.1143 11.5744C17.1143 12.1883 17.6119 12.6859 18.2258 12.6859Z" fill="#151D56" stroke="#151D56" stroke-width="0.5"/>
<path d="M15.9081 13.8502C16.3994 13.8502 16.7978 13.4519 16.7978 12.9606C16.7978 12.4692 16.3994 12.0709 15.9081 12.0709C15.4167 12.0709 15.0184 12.4692 15.0184 12.9606C15.0184 13.4519 15.4167 13.8502 15.9081 13.8502Z" fill="#151D56" stroke="#151D56" stroke-width="0.5"/>
<path d="M14.6297 15.4488C14.9992 15.4488 15.2987 15.1493 15.2987 14.7798C15.2987 14.4103 14.9992 14.1107 14.6297 14.1107C14.2602 14.1107 13.9607 14.4103 13.9607 14.7798C13.9607 15.1493 14.2602 15.4488 14.6297 15.4488Z" fill="#151D56" stroke="#151D56" stroke-width="0.5"/>
<path d="M30.5382 27.9097C32.0012 29.0651 32.3484 29.6873 32.3832 30.0064C32.4138 30.29 32.181 30.5902 31.7662 31.097C31.0164 32.0129 29.8834 33.3965 30.527 35.9639C30.9612 37.6944 32.7878 39 34.7752 39C35.8224 39 37.8063 38.623 39.328 36.0931C41.9127 31.7977 41.6005 25.658 41.5866 25.4425C41.5866 21.8367 38.6925 18.904 35.1353 18.904C33.1555 18.904 30.7159 19.1102 29.4063 20.7148C28.5575 21.7553 28.3205 23.2222 28.7003 25.0767C28.9129 26.1085 29.8017 27.3274 30.5382 27.9097ZM30.623 21.7076C31.5144 20.6145 33.5028 20.4743 35.1364 20.4743C37.8278 20.4743 40.0185 22.7036 40.0196 25.4875C40.0227 25.5457 40.322 31.3993 37.9841 35.285C37.1509 36.6698 36.0119 37.4318 34.7752 37.4318C33.5059 37.4318 32.3086 36.6196 32.0491 35.5817C31.5976 33.7806 32.2692 32.9604 32.9797 32.0909C33.4803 31.48 34.0463 30.7884 33.9431 29.8369C33.8403 28.8883 33.1125 27.9433 31.5107 26.6781C31.0152 26.2863 30.3655 25.3832 30.2377 24.7622C29.9575 23.3924 30.0867 22.3647 30.623 21.7076Z" fill="#151D56" stroke="#151D56" stroke-width="0.5"/>
<path d="M30.8953 18.2842C31.8702 18.2842 32.6606 17.4938 32.6606 16.5189C32.6606 15.5439 31.8702 14.7536 30.8953 14.7536C29.9203 14.7536 29.13 15.5439 29.13 16.5189C29.13 17.4938 29.9203 18.2842 30.8953 18.2842Z" fill="#151D56" stroke="#151D56" stroke-width="0.5"/>
<path d="M34.8574 15.0141C35.6517 15.0141 36.2958 15.6579 36.2958 16.4525C36.2958 17.2468 35.6518 17.8909 34.8574 17.8909C34.0625 17.8909 33.4189 17.2468 33.4189 16.4525C33.419 15.658 34.0625 15.0141 34.8574 15.0141Z" fill="#151D56" stroke="#151D56" stroke-width="0.5"/>
<path d="M37.7742 18.4395C38.3881 18.4395 38.8857 17.9418 38.8857 17.328C38.8857 16.7141 38.3881 16.2165 37.7742 16.2165C37.1603 16.2165 36.6627 16.7141 36.6627 17.328C36.6627 17.9418 37.1603 18.4395 37.7742 18.4395Z" fill="#151D56" stroke="#151D56" stroke-width="0.5"/>
<path d="M40.092 19.6039C40.5834 19.6039 40.9817 19.2056 40.9817 18.7142C40.9817 18.2229 40.5834 17.8246 40.092 17.8246C39.6007 17.8246 39.2023 18.2229 39.2023 18.7142C39.2023 19.2056 39.6007 19.6039 40.092 19.6039Z" fill="#151D56" stroke="#151D56" stroke-width="0.5"/>
<path d="M41.3702 19.8645C41.74 19.8645 42.0394 20.1641 42.0394 20.5336C42.0394 20.9028 41.74 21.2024 41.3702 21.2024C41.001 21.2024 40.7011 20.9028 40.7011 20.5336C40.701 20.164 41.0009 19.8645 41.3702 19.8645Z" fill="#151D56" stroke="#151D56" stroke-width="0.5"/>
</g>
<defs>
<clipPath id="clip0">
<rect width="60.0001" height="60" fill="white"/>
</clipPath>
</defs>
</svg>
