<svg width="60" height="60" viewBox="0 0 60 60" fill="none" xmlns="http://www.w3.org/2000/svg">
<g clip-path="url(#clip0)">
<path d="M38.3516 26.8366H0.983375C0.44031 26.8366 0 27.2765 0 27.82V48.4709C0 49.014 0.44031 49.4543 0.983375 49.4543H38.3516C38.8947 49.4543 39.335 49.014 39.335 48.4709V27.82C39.335 27.2765 38.8947 26.8366 38.3516 26.8366ZM37.3682 47.4875H1.96675V28.8034H37.3682V47.4875Z" fill="#151D56" stroke="#151D56" stroke-width="0.5"/>
<path d="M7.86702 37.6538C10.0393 37.6538 11.8005 35.8926 11.8005 33.7204C11.8005 31.5476 10.0393 29.7869 7.86702 29.7869C5.69476 29.7869 3.93353 31.5476 3.93353 33.7204C3.93353 35.8926 5.69476 37.6538 7.86702 37.6538ZM7.86702 31.7536C8.95315 31.7536 9.83377 32.6337 9.83377 33.7204C9.83377 34.8065 8.95315 35.6871 7.86702 35.6871C6.78089 35.6871 5.90027 34.8065 5.90027 33.7204C5.90027 32.6337 6.78089 31.7536 7.86702 31.7536Z" fill="#151D56" stroke="#151D56" stroke-width="0.5"/>
<path d="M7.86702 46.5042C10.0393 46.5042 11.8005 44.743 11.8005 42.5707C11.8005 40.398 10.0393 38.6372 7.86702 38.6372C5.69476 38.6372 3.93353 40.398 3.93353 42.5707C3.93353 44.743 5.69476 46.5042 7.86702 46.5042ZM7.86702 40.604C8.95315 40.604 9.83377 41.4841 9.83377 42.5707C9.83377 43.6568 8.95315 44.5375 7.86702 44.5375C6.78089 44.5375 5.90027 43.6568 5.90027 42.5707C5.90027 41.4841 6.78089 40.604 7.86702 40.604Z" fill="#151D56" stroke="#151D56" stroke-width="0.5"/>
<path d="M19.6676 37.6538C21.8399 37.6538 23.6011 35.8926 23.6011 33.7204C23.6011 31.5476 21.8399 29.7869 19.6676 29.7869C17.4953 29.7869 15.7341 31.5476 15.7341 33.7204C15.7341 35.8926 17.4953 37.6538 19.6676 37.6538ZM19.6676 31.7536C20.7537 31.7536 21.6343 32.6337 21.6343 33.7204C21.6343 34.8065 20.7537 35.6871 19.6676 35.6871C18.5815 35.6871 17.7008 34.8065 17.7008 33.7204C17.7008 32.6337 18.5815 31.7536 19.6676 31.7536Z" fill="#151D56" stroke="#151D56" stroke-width="0.5"/>
<path d="M19.6676 46.5042C21.8399 46.5042 23.6011 44.743 23.6011 42.5707C23.6011 40.398 21.8399 38.6372 19.6676 38.6372C17.4953 38.6372 15.7341 40.398 15.7341 42.5707C15.7341 44.743 17.4953 46.5042 19.6676 46.5042ZM19.6676 40.604C20.7537 40.604 21.6343 41.4841 21.6343 42.5707C21.6343 43.6568 20.7537 44.5375 19.6676 44.5375C18.5815 44.5375 17.7008 43.6568 17.7008 42.5707C17.7008 41.4841 18.5815 40.604 19.6676 40.604Z" fill="#151D56" stroke="#151D56" stroke-width="0.5"/>
<path d="M31.4679 37.6538C33.6402 37.6538 35.4014 35.8926 35.4014 33.7204C35.4014 31.5476 33.6402 29.7869 31.4679 29.7869C29.2957 29.7869 27.5344 31.5476 27.5344 33.7204C27.5344 35.8926 29.2957 37.6538 31.4679 37.6538ZM31.4679 31.7536C32.5541 31.7536 33.4347 32.6337 33.4347 33.7204C33.4347 34.8065 32.5541 35.6871 31.4679 35.6871C30.3818 35.6871 29.5012 34.8065 29.5012 33.7204C29.5012 32.6337 30.3818 31.7536 31.4679 31.7536Z" fill="#151D56" stroke="#151D56" stroke-width="0.5"/>
<path d="M31.4679 46.5042C33.6402 46.5042 35.4014 44.743 35.4014 42.5707C35.4014 40.398 33.6402 38.6372 31.4679 38.6372C29.2957 38.6372 27.5344 40.398 27.5344 42.5707C27.5344 44.743 29.2957 46.5042 31.4679 46.5042ZM31.4679 40.604C32.5541 40.604 33.4347 41.4841 33.4347 42.5707C33.4347 43.6568 32.5541 44.5375 31.4679 44.5375C30.3818 44.5375 29.5012 43.6568 29.5012 42.5707C29.5012 41.4841 30.3818 40.604 31.4679 40.604Z" fill="#151D56" stroke="#151D56" stroke-width="0.5"/>
<path d="M59.8933 39.6369L57.2327 34.371C56.9874 33.8865 56.3958 33.692 55.9108 33.9374L54.1554 34.8223L52.3855 31.3119L54.141 30.4269C54.6254 30.1815 54.8199 29.59 54.5745 29.105L51.9135 23.8391C51.6681 23.3546 51.0766 23.1601 50.5916 23.4055L48.8366 24.2904L47.0662 20.7799L48.8217 19.895C49.3071 19.6501 49.5016 19.0581 49.2563 18.5731L46.5952 13.3072C46.3503 12.8222 45.7583 12.6282 45.2738 12.8736L43.5183 13.7585L42.1878 11.1253C41.9429 10.6403 41.3508 10.4463 40.8664 10.6912L33.8449 14.2396C33.36 14.484 33.165 15.0761 33.4104 15.561L50.2656 48.9122C50.51 49.3977 51.102 49.5922 51.587 49.3468L58.6084 45.7979C59.0934 45.553 59.2883 44.9615 59.0429 44.4765L57.7047 41.8457L59.4588 40.9607C59.6926 40.8431 59.8693 40.6376 59.9509 40.3893C60.0326 40.1406 60.0119 39.8703 59.8933 39.6369ZM50.5978 25.6041L52.3677 29.1151L51.4905 29.5583L49.7206 26.0478L50.5978 25.6041ZM45.2757 15.0722L47.0456 18.5832L46.1678 19.0264L44.3975 15.5159L45.2757 15.0722ZM51.5692 47.1491L35.5985 15.5534L40.8644 12.8923L56.839 44.488L51.5692 47.1491ZM55.0427 36.5797L55.9209 36.1361L57.6908 39.647L56.8126 40.0902L55.0427 36.5797Z" fill="#151D56" stroke="#151D56" stroke-width="0.5"/>
</g>
<defs>
<clipPath id="clip0">
<rect width="60" height="60" fill="white"/>
</clipPath>
</defs>
</svg>
