<svg width="60" height="60" viewBox="0 0 60 60" fill="none" xmlns="http://www.w3.org/2000/svg">
<g clip-path="url(#clip0)">
<path d="M24.5924 0.0208277C24.6429 0.016343 24.6872 0.0226964 24.7353 0.0220735C24.7384 0.0220735 24.7417 0.0208277 24.7448 0.0208277C38.9921 -0.472866 53.9675 7.80705 52.6733 23.8279C52.6682 23.8928 52.6521 23.9502 52.6404 24.0106C52.6591 24.1764 52.6591 24.35 52.6188 24.5386C51.8376 28.1946 53.0367 31.4088 56.0377 33.6502C56.1752 33.7526 56.2806 33.8703 56.3727 33.993C56.676 34.1923 56.9154 34.4979 57.0445 34.8679C57.6075 36.4835 57.1798 38.1283 55.8887 39.2523C55.6759 39.4369 55.4294 39.5629 55.1729 39.6305C54.3395 40.0911 53.4681 40.3972 52.5631 40.6111C52.7491 41.6144 52.6577 42.6289 52.1745 43.5842C53.0768 45.3428 52.4778 47.283 50.6964 48.3419C50.5958 48.4019 50.4956 48.4469 50.3969 48.4816C50.0946 48.8417 50.0654 49.4198 50.1768 49.9759C50.2113 50.146 50.2156 50.3161 50.2027 50.4819C50.2105 50.6326 50.2058 50.7857 50.1768 50.94C49.7071 53.4032 47.603 54.7634 45.1955 54.8071C45.0658 54.8097 44.9462 54.7962 44.8333 54.7734C44.722 54.7786 44.6053 54.7722 44.4848 54.7526C40.6183 54.1257 36.2161 54.4761 34.7638 58.7227C34.4734 59.5711 33.6975 59.8589 33.0023 59.7469C32.7679 59.9228 32.4595 60.0227 32.0707 59.9955C25.0644 59.5058 18.1198 58.488 11.1632 57.5544C10.917 57.5213 10.7038 57.4417 10.5199 57.329C9.67648 57.0659 8.9953 56.1221 9.53994 55.1048C14.1882 46.4383 4.76521 36.9835 2.9768 28.658C2.93755 28.478 2.93693 28.3113 2.95275 28.1525C1.06256 14.4785 10.5242 1.28789 24.5924 0.0208277ZM5.92027 27.5427C5.93858 27.6693 5.94107 27.7904 5.9341 27.9067C7.87685 36.815 16.3965 45.427 13.0236 54.7546C19.3589 55.615 25.6899 56.4981 32.0716 56.9447C32.1168 56.9478 32.1563 56.9599 32.1996 56.9669C34.4805 51.8903 39.7875 50.98 45.0384 51.7752C45.0908 51.7688 45.1396 51.7573 45.1959 51.7562C45.7937 51.7448 46.1059 51.6829 46.5724 51.3982C46.5316 51.4109 46.8121 51.1869 46.8096 51.1907C46.8497 51.1502 46.8748 51.1261 46.8931 51.1103C46.8931 51.0982 46.9092 51.0622 46.9681 50.9667C47.0569 50.8243 47.1224 50.6238 47.1769 50.3974C46.9062 48.5275 47.4371 46.903 49.004 45.7075C49.13 45.6119 49.271 45.5582 49.4167 45.5227C49.462 45.4847 49.5059 45.4481 49.5534 45.4001C49.5448 45.4039 49.5528 45.3849 49.5799 45.3412C49.5799 45.3026 49.5825 45.29 49.5869 45.2937C49.5682 45.2129 49.5503 45.1318 49.5218 45.0533C49.5211 45.0502 49.2937 44.6973 49.2184 44.5909C49.0081 44.2941 48.965 43.9342 49.0312 43.5882C48.9686 43.2467 49.0131 42.8899 49.2184 42.5926C49.7956 41.7563 49.6821 41.0446 49.2184 40.1653C48.5544 38.907 49.7505 37.7584 50.81 37.876C50.8211 37.8746 50.8309 37.8709 50.8416 37.869C51.9165 37.7273 52.9554 37.4128 53.8869 36.8562C53.9537 36.817 54.0192 36.7929 54.0846 36.7632C54.1312 36.6955 54.1744 36.6265 54.2134 36.5551C54.22 36.5354 54.2251 36.5184 54.2342 36.4905C54.2418 36.4551 54.2472 36.4317 54.2523 36.4089C54.2549 36.3387 54.2529 36.2697 54.2498 36.1995C54.2447 36.1805 54.2348 36.1368 54.2219 36.0692C50.3457 33.0404 48.6807 28.8773 49.6239 24.0114C49.622 23.9503 49.6157 23.8934 49.6208 23.8285C50.7842 9.42778 37.387 2.63542 24.7455 3.07306C24.7057 3.0743 24.6703 3.06733 24.6317 3.06608C24.6177 3.06733 24.6064 3.07169 24.5925 3.07306C12.5909 4.15425 4.21034 15.859 5.92027 27.5427Z" fill="#151D56"/>
<path d="M40.3739 21.809C39.6023 21.1782 38.5096 20.9763 37.5898 21.2944C37.3433 21.3798 37.1144 21.4995 36.9093 21.6504C36.3863 22.0351 35.2252 23.19 34.3051 24.3331V15.5223C34.3051 14.7734 33.9972 14.0414 33.4605 13.5138C32.9277 12.9901 32.2278 12.7077 31.4933 12.7214C31.1598 12.7274 30.8403 12.7935 30.545 12.9091V12.0485C30.545 11.2335 30.2099 10.4367 29.6254 9.86224C29.0461 9.29278 28.288 8.98585 27.4862 9.0005C25.8877 9.0282 24.5826 10.3276 24.5348 11.916C24.1885 11.759 23.8124 11.6709 23.4231 11.6592C22.611 11.6354 21.8068 11.9496 21.2172 12.5221C20.6397 13.0826 20.3215 13.8226 20.3215 14.6035L20.3195 15.438C20.0702 15.3561 19.8045 15.3112 19.5282 15.3112C18.1341 15.3112 17 16.4453 17 17.8392L17.0009 30.647L17.003 30.7077C17.1195 32.3886 17.4713 33.8278 18.049 34.9855C18.5905 36.0708 19.346 36.9447 20.2945 37.5828C22.1611 38.8389 24.4668 39.0001 26.267 39.0001C29.8021 39.0001 32.9824 37.2425 34.5729 34.4117C34.7663 34.0999 35.276 33.2984 35.8265 32.4339C36.3625 31.5916 36.8612 30.8155 37.3009 30.1307C37.5426 29.7542 37.7626 29.4117 37.9535 29.1133C38.6646 28.0011 39.4224 26.9229 40.2061 25.9082C40.4968 25.532 40.5863 25.4299 40.6067 25.4075C40.9736 25.0071 41.2047 24.5171 41.2752 23.99C41.3862 23.163 41.0576 22.3679 40.3739 21.809ZM39.5312 23.7565C39.5085 23.925 39.4318 24.0847 39.3094 24.2184C39.2455 24.2882 39.1313 24.421 38.8136 24.8325C37.9981 25.8881 37.2098 27.0094 36.4708 28.1653C36.2803 28.463 36.0613 28.8041 35.8201 29.1797C35.3795 29.8658 34.88 30.6438 34.3419 31.4888C33.7787 32.3737 33.2573 33.1933 33.0664 33.5016L33.0465 33.5355C31.77 35.8207 29.1724 37.2402 26.2672 37.2402C24.717 37.2402 22.7486 37.1132 21.2771 36.123C19.7757 35.1127 18.9526 33.3114 18.7608 30.6161L18.7599 17.8395C18.7599 17.4158 19.1046 17.0711 19.5282 17.0711C19.9544 17.0711 20.3012 17.4158 20.3012 17.8395V22.6325C20.3012 22.6467 20.3028 22.6604 20.3032 22.6746C20.3041 22.6902 20.3041 22.706 20.3057 22.7215C20.3071 22.7355 20.3099 22.749 20.3119 22.7627C20.3142 22.7781 20.3158 22.7936 20.3188 22.809C20.3218 22.8227 20.3259 22.8362 20.3293 22.8497C20.333 22.8641 20.336 22.879 20.3405 22.8932C20.3447 22.9069 20.3501 22.9202 20.3552 22.9335C20.36 22.947 20.3643 22.9607 20.3701 22.974C20.3756 22.9873 20.3822 22.9998 20.3884 23.0127C20.3946 23.0255 20.4003 23.0385 20.4069 23.0511C20.4135 23.0635 20.4216 23.0754 20.4289 23.0875C20.4362 23.0996 20.4431 23.112 20.4509 23.1237C20.4589 23.1353 20.4678 23.1463 20.4763 23.1575C20.4847 23.169 20.4925 23.1807 20.5014 23.1914C20.5104 23.2022 20.5202 23.212 20.5294 23.2223C20.539 23.2328 20.5481 23.2441 20.5582 23.2541C20.568 23.2637 20.5783 23.2724 20.5886 23.2818C20.5992 23.2914 20.6095 23.3017 20.6207 23.3109C20.6312 23.3196 20.6424 23.3274 20.6534 23.3356C20.6651 23.3443 20.6763 23.3535 20.6882 23.3617C20.6994 23.3693 20.7113 23.3757 20.7228 23.3825C20.7354 23.3903 20.7477 23.3986 20.7608 23.4059C20.7727 23.4123 20.7853 23.4176 20.7974 23.4235C20.8107 23.4301 20.8239 23.437 20.8377 23.443C20.8503 23.4485 20.8638 23.4526 20.8766 23.4574C20.8905 23.4624 20.9043 23.4681 20.9185 23.4727C20.932 23.4768 20.9462 23.4798 20.9599 23.4835C20.9743 23.4871 20.9883 23.4915 21.0027 23.4945C21.0173 23.4974 21.032 23.499 21.0466 23.5013C21.0613 23.5034 21.0755 23.5064 21.0901 23.508C21.1048 23.5093 21.1199 23.5096 21.1348 23.5103C21.1494 23.5109 21.1641 23.5125 21.1789 23.5125C21.1796 23.5125 21.1805 23.5125 21.1812 23.5125C21.2117 23.5125 21.2416 23.5109 21.2712 23.508C21.284 23.5068 21.2966 23.5041 21.3094 23.5022C21.3256 23.5 21.3424 23.4981 21.3584 23.4947C21.3753 23.4913 21.3916 23.4864 21.408 23.4821C21.4195 23.4789 21.4314 23.4766 21.4426 23.4732C21.4609 23.4675 21.4788 23.4604 21.4966 23.4535C21.5053 23.4501 21.5147 23.4473 21.5234 23.4436C21.5412 23.4361 21.5582 23.4272 21.5754 23.4187C21.5836 23.4146 21.5921 23.4111 21.6003 23.4068C21.6163 23.3981 21.6314 23.388 21.6468 23.3784C21.6555 23.3732 21.6644 23.3683 21.6726 23.3626C21.6868 23.3532 21.7003 23.3425 21.7138 23.332C21.7228 23.3253 21.7319 23.3191 21.7404 23.312C21.753 23.302 21.7644 23.2905 21.7763 23.2795C21.7852 23.2715 21.7944 23.2637 21.8031 23.2555C21.8141 23.2445 21.8239 23.2326 21.8342 23.2212C21.8427 23.2118 21.8518 23.2026 21.8599 23.193C21.869 23.1818 21.8772 23.1699 21.8859 23.1582C21.8942 23.1472 21.9029 23.1367 21.9104 23.1253C21.9184 23.1136 21.9251 23.1015 21.9324 23.0893C21.9397 23.0772 21.9477 23.0653 21.9546 23.0529C21.9612 23.0406 21.9667 23.0278 21.9729 23.0152C21.9791 23.0021 21.986 22.9893 21.9917 22.976C21.9972 22.9632 22.0013 22.9497 22.0061 22.9367C22.0114 22.9229 22.0169 22.9094 22.0214 22.8952C22.0256 22.8817 22.0285 22.868 22.032 22.8543C22.0356 22.8399 22.04 22.8257 22.0432 22.811C22.0459 22.7973 22.0475 22.7829 22.0496 22.7687C22.0521 22.7538 22.0549 22.7389 22.0565 22.7238C22.0581 22.7096 22.0581 22.695 22.0588 22.6806C22.0597 22.6652 22.0613 22.6503 22.0613 22.635L22.0816 14.6058C22.0816 14.3028 22.21 14.0112 22.443 13.7848C22.6934 13.542 23.0322 13.4079 23.3712 13.4184C24.0061 13.4374 24.5227 13.9897 24.5227 14.6509L24.5327 22.586C24.5327 22.602 24.5343 22.6176 24.5353 22.6332C24.5359 22.6471 24.5359 22.6616 24.5373 22.6753C24.5389 22.6918 24.5421 22.7076 24.5446 22.7236C24.5467 22.7366 24.5481 22.7499 24.5506 22.7627C24.5543 22.7801 24.5593 22.7971 24.5639 22.814C24.5668 22.825 24.5691 22.8362 24.5723 22.847C24.5781 22.8653 24.5854 22.8831 24.5922 22.901C24.5957 22.9099 24.5982 22.919 24.6019 22.9277C24.6101 22.9467 24.6195 22.9653 24.6289 22.9836C24.6325 22.9905 24.6353 22.9978 24.6389 23.0044C24.6492 23.0234 24.6609 23.0415 24.6724 23.0594C24.676 23.0653 24.6792 23.0713 24.6831 23.077C24.6952 23.0951 24.7085 23.112 24.7218 23.1289C24.7259 23.1342 24.7296 23.1397 24.7337 23.1447C24.7486 23.1628 24.7646 23.1797 24.7808 23.1965C24.7843 23.2001 24.787 23.2038 24.7905 23.2072C24.8072 23.2239 24.825 23.2395 24.8431 23.2548C24.8465 23.2578 24.8495 23.261 24.8529 23.264C24.871 23.2789 24.8898 23.2924 24.9088 23.3056C24.9129 23.3086 24.9166 23.3118 24.9207 23.3146C24.9399 23.3276 24.9601 23.3393 24.9802 23.3507C24.9846 23.3532 24.9887 23.3562 24.9932 23.3587C25.0143 23.3699 25.036 23.38 25.058 23.3899C25.0621 23.3917 25.066 23.394 25.0702 23.3958C25.0926 23.4052 25.1157 23.4132 25.139 23.421C25.1432 23.4221 25.1468 23.424 25.1509 23.4253C25.1741 23.4324 25.1976 23.4382 25.2212 23.4434C25.226 23.4443 25.2306 23.4459 25.2354 23.4471C25.2926 23.4588 25.3519 23.4649 25.4126 23.4649C25.413 23.4649 25.4135 23.4649 25.4139 23.4649C25.4293 23.4649 25.4444 23.4633 25.4595 23.4626C25.4741 23.4617 25.4888 23.4617 25.5032 23.4604C25.5192 23.4585 25.5346 23.4555 25.5503 23.453C25.5636 23.451 25.5774 23.4496 25.5906 23.4469C25.6064 23.4436 25.6218 23.4391 25.6373 23.4349C25.6499 23.4315 25.6625 23.429 25.6749 23.4251C25.6907 23.4203 25.7058 23.4141 25.7211 23.4082C25.7325 23.4038 25.7444 23.4004 25.7557 23.3956C25.7714 23.3887 25.7868 23.3807 25.8021 23.3732C25.8122 23.3681 25.8227 23.3638 25.8326 23.3585C25.8477 23.3503 25.8621 23.3406 25.8767 23.3317C25.8861 23.3258 25.896 23.3205 25.9051 23.3143C25.9191 23.3049 25.9321 23.2944 25.9454 23.2841C25.9546 23.2772 25.9639 23.2708 25.9729 23.2635C25.9855 23.2532 25.9974 23.2415 26.0095 23.2303C26.018 23.2225 26.0269 23.215 26.0353 23.2068C26.0466 23.1953 26.0571 23.183 26.0679 23.171C26.0759 23.1621 26.0843 23.1537 26.0921 23.1443C26.1017 23.1324 26.1104 23.1198 26.1193 23.1076C26.1271 23.0971 26.1354 23.087 26.1427 23.0765C26.1509 23.0644 26.1578 23.0516 26.1654 23.039C26.1724 23.0273 26.1802 23.0159 26.1866 23.004C26.1935 22.9914 26.199 22.9781 26.2052 22.9653C26.2114 22.9525 26.2182 22.9401 26.2237 22.9268C26.229 22.9142 26.2333 22.901 26.2379 22.8879C26.2432 22.874 26.2489 22.8602 26.2532 22.846C26.2574 22.8323 26.2603 22.8183 26.264 22.8044C26.2677 22.7902 26.272 22.7762 26.2748 22.7618C26.2777 22.7474 26.2793 22.7325 26.2816 22.7181C26.2837 22.7034 26.2867 22.689 26.288 22.6744C26.2896 22.6595 26.2896 22.6444 26.2903 22.6293C26.2912 22.6144 26.2926 22.6 26.2926 22.5849V12.0064C26.2926 11.3307 26.8419 10.7718 27.5169 10.7601C27.8426 10.7556 28.1521 10.8815 28.3921 11.1174C28.6421 11.363 28.7854 11.7025 28.7854 12.0485V22.6334C28.7854 22.6494 28.787 22.665 28.7879 22.6808C28.7886 22.6947 28.7886 22.7089 28.7899 22.7229C28.7915 22.7385 28.7948 22.7536 28.797 22.7689C28.7993 22.7829 28.8007 22.7968 28.8034 22.8103C28.8067 22.8257 28.8112 22.8405 28.8151 22.8556C28.8186 22.8687 28.8211 22.8817 28.8252 22.8946C28.8302 22.9108 28.8366 22.9266 28.8426 22.9424C28.8467 22.9534 28.8501 22.9646 28.8547 22.9754C28.8618 22.9918 28.8701 23.0076 28.8781 23.0236C28.8826 23.033 28.8868 23.0429 28.8918 23.0523C28.9005 23.0685 28.9106 23.0838 28.9204 23.0994C28.9257 23.1076 28.9302 23.1166 28.936 23.1248C28.9465 23.1404 28.9582 23.1553 28.9698 23.1701C28.9756 23.1775 28.9806 23.1852 28.9866 23.1923C28.9994 23.2081 29.0136 23.2228 29.0275 23.2377C29.033 23.2431 29.0378 23.2493 29.0433 23.2548C29.0577 23.2695 29.0733 23.2827 29.0889 23.2962C29.0946 23.3013 29.0999 23.3068 29.1058 23.3116C29.1232 23.326 29.1415 23.339 29.1598 23.3521C29.1644 23.3553 29.1687 23.359 29.1736 23.3624C29.1932 23.3757 29.2138 23.3878 29.2347 23.3995C29.2386 23.4015 29.242 23.4043 29.2459 23.4063C29.2688 23.4187 29.2921 23.4297 29.3161 23.4402C29.3184 23.4411 29.3205 23.4425 29.3228 23.4434C29.3477 23.4539 29.3734 23.4631 29.3995 23.4713C29.4008 23.472 29.4022 23.4725 29.4038 23.4729C29.4585 23.4901 29.5155 23.5018 29.5743 23.508C29.5748 23.508 29.575 23.508 29.5755 23.508C29.605 23.5109 29.635 23.5125 29.6654 23.5125C29.6656 23.5125 29.6659 23.5125 29.6663 23.5125C29.6819 23.5125 29.6972 23.5109 29.7128 23.5103C29.7272 23.5093 29.7416 23.5093 29.7558 23.508C29.7721 23.5064 29.7879 23.5032 29.8039 23.5006C29.8169 23.4986 29.8302 23.4972 29.8433 23.4945C29.8604 23.491 29.8769 23.486 29.8936 23.4816C29.9048 23.4787 29.9165 23.4764 29.9275 23.4729C29.9453 23.4672 29.9625 23.4604 29.9799 23.4537C29.9893 23.4501 29.9989 23.4471 30.0083 23.4432C30.0259 23.4356 30.0428 23.4269 30.06 23.4182C30.0683 23.4141 30.0769 23.4107 30.0852 23.4061C30.1019 23.397 30.1179 23.3867 30.1342 23.3764C30.142 23.3715 30.15 23.3672 30.1577 23.3619C30.1742 23.3509 30.1896 23.3386 30.2051 23.3265C30.2118 23.3214 30.2189 23.3166 30.2255 23.3114C30.2408 23.2985 30.2552 23.2846 30.2699 23.2708C30.2758 23.2653 30.2823 23.2603 30.2877 23.2546C30.3019 23.2404 30.3152 23.2253 30.3283 23.21C30.3338 23.204 30.3395 23.1983 30.3447 23.1921C30.3573 23.1768 30.3688 23.1605 30.3802 23.1445C30.385 23.1376 30.3905 23.1312 30.3953 23.1244C30.4061 23.1083 30.4157 23.0916 30.4253 23.0749C30.4299 23.0671 30.4351 23.0598 30.4395 23.0518C30.4487 23.0349 30.4564 23.0172 30.4644 22.9996C30.4683 22.9914 30.4729 22.9834 30.4763 22.9749C30.4837 22.9577 30.4896 22.9399 30.4958 22.9223C30.499 22.9129 30.5031 22.9037 30.5061 22.8939C30.5111 22.8772 30.515 22.8595 30.5194 22.8424C30.5219 22.8314 30.5253 22.8206 30.5276 22.8096C30.531 22.7927 30.5331 22.7751 30.5356 22.7579C30.5372 22.746 30.5397 22.7343 30.5409 22.7222C30.5427 22.7062 30.5427 22.6897 30.5434 22.6732C30.5441 22.6597 30.5455 22.6465 30.5455 22.6325V15.3696C30.6027 14.8787 31.0195 14.4898 31.5242 14.4811C31.7835 14.4767 32.0339 14.5788 32.2273 14.769C32.4296 14.9677 32.5457 15.2423 32.5457 15.5223V25.9087L32.5461 25.9481C32.5509 26.5182 32.9254 27 33.4777 27.147C34.0263 27.2928 34.5868 27.0623 34.8752 26.5683L34.8807 26.5585C35.5706 25.3532 37.4144 23.464 37.9528 23.0681C38.015 23.022 38.0867 22.9852 38.1656 22.9577C38.5163 22.8367 38.956 22.9225 39.2604 23.1715C39.4037 23.2889 39.5673 23.4858 39.5312 23.7565Z" fill="#151D56" stroke="#151D56" stroke-width="0.25"/>
</g>
<defs>
<clipPath id="clip0">
<rect width="60.0001" height="60" fill="white"/>
</clipPath>
</defs>
</svg>
