<svg width="60" height="60" viewBox="0 0 60 60" fill="none" xmlns="http://www.w3.org/2000/svg">
<g clip-path="url(#clip0)">
<path d="M6.45332 40.0639C7.3059 41.653 8.39423 42.637 9.61637 42.9189C11.8681 43.4386 12.6616 43.5218 14.0541 43.5218C14.506 43.5218 14.9029 43.3109 15.1443 42.9435C15.4926 42.4156 15.5602 41.6272 14.8074 39.6712C16.5004 38.827 17.8531 37.5363 18.6688 35.9882C19.1737 36.1642 19.317 36.2503 19.3066 36.2256C19.3936 36.3002 19.4846 36.4272 19.6019 36.5728C20.1564 37.2636 21.1883 38.5498 23.0905 38.8592L24.2824 39.0511L24.2138 37.8465C24.1916 37.4529 23.9792 34.3576 22.8214 32.5368C23.9792 30.716 24.1916 27.6217 24.2138 27.2285L24.2824 26.0228L23.0905 26.2159C21.1885 26.5248 20.1564 27.811 19.6019 28.5016C19.4846 28.6469 19.3936 28.7736 19.3644 28.8106C19.3318 28.8291 19.1728 28.9105 18.6542 29.0908C17.8327 27.5468 16.4777 26.2623 14.7861 25.4228C15.6037 23.3044 15.4508 22.5654 15.1443 22.0984C14.9029 21.7307 14.506 21.5197 14.0532 21.5197C13.5582 21.5197 13.1375 21.5315 12.7012 21.568V13.1688L25.0847 11.7696C25.9521 12.8698 27.1756 13.6717 28.581 14.0053V38.0304C28.2251 38.0077 27.8698 37.9982 27.463 37.9982C27.0101 37.9982 26.6127 38.2102 26.3718 38.5774C26.0208 39.1113 25.956 39.9116 26.7301 41.9027C25.038 42.7412 23.6843 44.0262 22.8628 45.5687C22.3491 45.3907 22.201 45.3057 22.2104 45.3264C22.1234 45.2524 22.0325 45.1258 21.9152 44.98C21.3607 44.2892 20.3287 43.003 18.4265 42.6936L17.2347 42.5006L17.3032 43.7063C17.3255 44.099 17.5379 47.1943 18.6966 49.015C17.5388 50.8358 17.3264 53.9302 17.3032 54.3238L17.2347 55.5295L18.4265 55.3365C20.3286 55.028 21.3605 53.7418 21.9152 53.0512C22.0325 52.9063 22.1234 52.7786 22.1546 52.7407C22.1873 52.7228 22.3416 52.6442 22.8482 52.4671C23.6649 54.0153 25.0168 55.3052 26.7097 56.1502C25.9569 58.1052 26.0247 58.8926 26.3737 59.4227C26.6151 59.7897 27.012 59.9998 27.4639 59.9998C28.8564 59.9998 29.6499 59.9165 31.9013 59.3972C33.1239 59.1151 34.2121 58.1309 35.0656 56.5421C38.4959 55.2418 40.6886 52.3329 40.6886 49.034C40.6886 45.7532 38.5121 42.8498 35.1074 41.542C34.2481 39.9059 33.1447 38.8923 31.9032 38.6056C31.7537 38.5714 31.6268 38.5431 31.4887 38.5128V14.0044C33.3671 13.5587 34.92 12.2736 35.7301 10.566L45.1667 9.49893V21.5228C45.1667 21.676 45.1969 21.8213 45.2413 21.96C45.0115 22.0091 44.7692 22.0646 44.5024 22.1255C43.2589 22.4122 42.1554 23.4247 41.2963 25.0615C37.8923 26.3708 35.7149 29.274 35.7149 32.5539C35.7149 35.8519 37.9083 38.7607 41.3396 40.0621C42.1913 41.651 43.2796 42.6352 44.5024 42.9171C46.7546 43.4366 47.5476 43.5199 48.9405 43.5199C49.3919 43.5199 49.7885 43.3089 50.0307 42.9416C50.379 42.4136 50.4463 41.6252 49.694 39.6692C51.3859 38.825 52.7392 37.5345 53.555 35.9861C54.0602 36.1622 54.2032 36.2485 54.1928 36.2238C54.2799 36.2984 54.3707 36.4253 54.488 36.5709C55.0425 37.2617 56.074 38.5479 57.976 38.8572L59.1684 39.0493L59.1003 37.8445C59.0776 37.451 58.8656 34.3556 57.7073 32.5348C58.8656 30.7133 59.0776 27.6197 59.1003 27.2265L59.1684 26.021L57.976 26.2135C56.074 26.5229 55.0425 27.809 54.488 28.4998C54.3705 28.6451 54.2798 28.7719 54.2504 28.8087C54.2173 28.8272 54.0585 28.9086 53.5399 29.0888C52.7185 27.5449 51.3634 26.2601 49.6722 25.4208C50.4898 23.3026 50.3375 22.5634 50.0309 22.096C49.7886 21.7287 49.3922 21.5177 48.939 21.5177C48.6275 21.5177 48.3466 21.5223 48.0721 21.5352C48.0721 21.529 48.0741 21.5234 48.0741 21.5177V7.99395C48.0741 7.97266 48.0684 7.9523 48.0675 7.93101C48.0704 7.85812 48.0731 7.78477 48.0645 7.71002C47.9747 6.91121 47.2517 6.33122 46.4568 6.42867L36.3283 7.57326C36.1931 4.73004 34.1735 2.37839 31.4888 1.74167V0H28.5822V1.74214C25.804 2.40123 23.7286 4.89617 23.7286 7.8732C23.7286 8.25317 23.7683 8.62413 23.8332 8.98562L11.0851 10.4264C11.0639 10.4289 11.0454 10.4364 11.025 10.4392C10.9729 10.4472 10.9213 10.4586 10.8722 10.4723C10.8287 10.4836 10.7855 10.4964 10.744 10.512C10.6977 10.5296 10.6533 10.55 10.6096 10.5711C10.5689 10.5915 10.5282 10.6128 10.4895 10.6368C10.4498 10.662 10.411 10.6894 10.374 10.7173C10.337 10.7453 10.3011 10.7747 10.2675 10.8053C10.2335 10.8375 10.2018 10.871 10.1706 10.906C10.1407 10.94 10.1104 10.9752 10.0834 11.012C10.0549 11.0493 10.0308 11.0891 10.0068 11.1298C9.9836 11.1696 9.96045 11.2103 9.94102 11.252C9.92159 11.2941 9.90512 11.3376 9.88849 11.3811C9.87202 11.4265 9.85725 11.4729 9.84498 11.5207C9.8341 11.5642 9.82648 11.6086 9.8198 11.6532C9.81172 11.7039 9.80613 11.755 9.8041 11.8075C9.80317 11.8288 9.79758 11.8492 9.79758 11.8705V21.7954C9.79758 21.8928 9.80799 21.9879 9.82648 22.0803C9.75453 22.0964 9.69361 22.1092 9.61917 22.1266C8.37574 22.4135 7.2728 23.4259 6.41354 25.063C3.00929 26.3717 0.831698 29.2751 0.831698 32.555C0.828901 35.8539 3.02297 38.7628 6.45332 40.0639ZM33.5401 42.7335L33.7162 43.1008L34.1014 43.2332C36.9262 44.1949 38.7507 46.4705 38.7507 49.0304C38.7507 51.6015 36.9139 53.8812 34.0702 54.8351L33.6849 54.9658L33.5062 55.3292C32.9023 56.5679 32.1775 57.34 31.4658 57.5037C29.7091 57.9097 28.9638 58.0204 28.1306 58.0488C28.2167 57.6762 28.4136 57.0447 28.854 56.0218L29.2562 55.0906L28.3076 54.733C26.3861 54.0024 24.916 52.6151 24.2758 50.9239L23.9513 50.0667L23.077 50.3438C21.8028 50.7488 21.4015 50.9362 21.2127 51.0422C20.8986 51.2163 20.6689 51.5021 20.4046 51.8334C20.1354 52.1683 19.8311 52.5469 19.4257 52.8563C19.639 51.6043 20.0255 50.253 20.5962 49.7192L21.3513 49.0122L20.5962 48.3054C20.0265 47.7707 19.639 46.4203 19.4257 45.1693C19.8311 45.4776 20.1363 45.8573 20.4046 46.1922C20.67 46.5234 20.8996 46.8102 21.2136 46.9823C21.4077 47.0903 21.8126 47.2794 23.0897 47.6846L23.959 47.96L24.2864 47.1091C24.9355 45.4209 26.4094 44.0393 28.3314 43.3163L29.2848 42.9576L28.8789 42.0236C28.4214 40.9704 28.2198 40.3239 28.1317 39.9435C28.965 39.9721 29.7102 40.0835 31.4671 40.4887C32.1916 40.6563 32.9278 41.4522 33.5401 42.7335ZM48.2723 23.4709C48.1843 23.8504 47.9828 24.4972 47.5246 25.5504L47.1198 26.4844L48.0726 26.8431C49.9936 27.5661 51.467 28.9476 52.1163 30.6359L52.4436 31.4867L53.3135 31.2113C54.592 30.8063 54.9968 30.6172 55.1899 30.509C55.504 30.335 55.733 30.0492 55.998 29.7189C56.2659 29.384 56.5715 29.005 56.9765 28.6956C56.7626 29.9466 56.3766 31.2984 55.8059 31.8322L55.0509 32.539L55.8059 33.246C56.3756 33.7798 56.7626 35.1311 56.9765 36.3831C56.5716 36.0755 56.2669 35.6951 55.998 35.3601C55.7321 35.0288 55.5022 34.743 55.1917 34.5708C55.0015 34.4648 54.6004 34.2765 53.3256 33.8705L52.4512 33.5924L52.1257 34.4505C51.4841 36.1417 50.0155 37.529 48.0925 38.2596L47.1443 38.6172L47.5465 39.5484C47.9885 40.5713 48.1843 41.2028 48.2714 41.5754C47.4377 41.547 46.6929 41.4354 44.9355 41.0303C44.225 40.8666 43.5001 40.0945 42.8962 38.8558L42.7175 38.4924L42.3332 38.3617C39.4885 37.4078 37.6508 35.1281 37.6508 32.557C37.6508 29.9971 39.4753 27.7218 42.301 26.7598L42.687 26.6278L42.8622 26.2597C43.4726 24.9804 44.2088 24.1831 44.9355 24.0163C46.6939 23.6095 47.4377 23.4988 48.2723 23.4709ZM26.6353 7.8732C26.6353 6.52051 27.4353 5.35992 28.5818 4.81194C29.0247 4.60105 29.513 4.47315 30.0353 4.47315C30.5576 4.47315 31.0455 4.6009 31.4884 4.81194C32.6353 5.35992 33.4358 6.52051 33.4358 7.8732C33.4358 7.88283 33.4321 7.89169 33.4321 7.90117C33.4226 9.24158 32.6277 10.3919 31.4884 10.9346C31.3567 10.9975 31.2205 11.0457 31.0815 11.0927C30.7493 11.201 30.4025 11.2734 30.0353 11.2734C29.9337 11.2734 29.8386 11.2521 29.7396 11.2436C29.328 11.2077 28.9386 11.1049 28.5818 10.9346C27.6653 10.4974 26.9759 9.66693 26.736 8.65832C26.675 8.40501 26.6353 8.14485 26.6353 7.8732ZM7.41671 26.7589L7.80336 26.6268L7.97836 26.2588C8.58927 24.9794 9.32544 24.182 10.0523 24.0154C11.8092 23.6095 12.5544 23.4987 13.3875 23.4709C13.2996 23.8504 13.098 24.4972 12.6405 25.5504L12.2346 26.4844L13.188 26.8431C15.109 27.5661 16.5829 28.9476 17.2321 30.6359L17.5595 31.4867L18.4287 31.2113C19.7068 30.8063 20.1118 30.6172 20.3048 30.509C20.6189 30.335 20.8484 30.0492 21.1129 29.7189C21.3813 29.384 21.6864 29.005 22.0914 28.6956C21.8785 29.9466 21.4918 31.2984 20.9213 31.8322L20.1662 32.539L20.9213 33.246C21.491 33.7798 21.8776 35.1311 22.0914 36.3831C21.6864 36.0755 21.3821 35.6951 21.1129 35.3601C20.8475 35.0288 20.6175 34.743 20.3067 34.5708C20.1169 34.4648 19.7157 34.2765 18.4416 33.8705L17.5673 33.5924L17.2417 34.4505C16.6002 36.1417 15.1305 37.529 13.2085 38.2596L12.2599 38.6172L12.6621 39.5484C13.1039 40.5713 13.2999 41.2028 13.3869 41.5754C12.5527 41.547 11.8084 41.4354 10.0517 41.0303C9.34052 40.8666 8.61569 40.0945 8.01192 38.8558L7.83351 38.4924L7.44888 38.3617C4.60473 37.4078 2.76655 35.1281 2.76655 32.557C2.76701 29.9971 4.59183 27.7207 7.41671 26.7589Z" fill="#151D56"/>
<path d="M6.62911 32.3317C8.2435 32.3317 8.2435 29.8287 6.62911 29.8287C5.01472 29.8287 5.0155 32.3317 6.62911 32.3317Z" fill="#151D56"/>
<path d="M41.5135 29.8287C39.899 29.8287 39.899 32.3317 41.5135 32.3317C43.1279 32.3317 43.1279 29.8287 41.5135 29.8287Z" fill="#151D56"/>
<path d="M35.8566 48.8051C37.471 48.8051 37.471 46.3022 35.8566 46.3022C34.2422 46.3022 34.2422 48.8051 35.8566 48.8051Z" fill="#151D56"/>
</g>
<defs>
<clipPath id="clip0">
<rect width="60" height="59.9998" fill="white"/>
</clipPath>
</defs>
</svg>
