<svg width="60" height="60" viewBox="0 0 60 60" fill="none" xmlns="http://www.w3.org/2000/svg">
<path d="M56.25 31.8751C55.4222 31.8751 54.6844 32.2416 54.1687 32.8126H49.59C48.9591 27.9545 45.1322 24.166 40.3125 23.5398V20.6251C40.3125 20.1076 39.8934 19.6876 39.375 19.6876H38.4375V18.7501H39.375V16.8751H35.625V18.7501H36.5625V19.6876H35.625C35.1066 19.6876 34.6875 20.1076 34.6875 20.6251V23.4376H33.75V20.6251C33.75 20.1076 33.3309 19.6876 32.8125 19.6876H31.875V18.7501H32.8125V16.8751H29.0625V18.7501H30V19.6876H29.0625C28.5441 19.6876 28.125 20.1076 28.125 20.6251V23.4376H27.1875V20.6251C27.1875 20.1076 26.7684 19.6876 26.25 19.6876H25.3125V18.7501H26.25V16.8751H22.5V18.7501H23.4375V19.6876H22.5C21.9816 19.6876 21.5625 20.1076 21.5625 20.6251V23.4376H16.215C10.6012 23.4376 5.42062 20.3898 2.69438 15.482C2.48719 15.1098 2.05594 14.9242 1.63969 15.0301C1.22625 15.137 0.9375 15.5101 0.9375 15.9376V38.4376C0.9375 38.8651 1.22625 39.2382 1.63969 39.3451C1.71844 39.3648 1.79719 39.3751 1.875 39.3751C2.20875 39.3751 2.52562 39.196 2.69438 38.8923C5.42062 33.9863 10.6012 30.9376 16.215 30.9376H21.5625V32.8126H20.1562C16.7962 32.8126 14.0625 35.5463 14.0625 38.9063C14.0625 42.2663 16.7962 45.0001 20.1562 45.0001H38.9062C43.2422 45.0001 47.1441 42.3882 48.8241 38.4376H54.1687C54.6834 39.0085 55.4222 39.3751 56.25 39.3751C57.8006 39.3751 59.0625 38.1132 59.0625 36.5626V34.6876C59.0625 33.137 57.8006 31.8751 56.25 31.8751ZM36.5625 21.5626H38.4375V23.4376H36.5625V21.5626ZM30 21.5626H31.875V23.4376H30V21.5626ZM23.4375 21.5626H25.3125V23.4376H23.4375V21.5626ZM2.8125 35.3991V18.976C6.07219 22.9445 10.9753 25.3126 16.215 25.3126H38.9062C43.3387 25.3126 47.0241 28.5357 47.6981 32.8126H45.4519C44.5153 30.5776 42.3122 29.0626 39.8438 29.0626H16.215C10.9753 29.0626 6.07219 31.4307 2.8125 35.3991ZM38.6875 32.8126V30.9376H40.5V32.8126H38.6875ZM38.5 30.9376H40.375V32.8126H38.5V30.9376ZM36.5625 30.9376H38.4375L40.3125 30.977V32.8126H38.4375H36.5625V30.9376ZM40.3125 30.977C41.5537 31.1176 42.6619 31.7963 43.3462 32.8126H40.3125V30.977ZM23.4375 30.9376H34.5V32.8126H23.4375V30.9376ZM20.1562 36.5626C18.8634 36.5626 17.8125 37.6135 17.8125 38.9063C17.8125 40.1991 18.8634 41.2501 20.1562 41.2501H39.8438C41.9466 41.2501 43.8656 40.186 44.9803 38.4376H46.7522C45.2175 41.2876 42.2147 43.1251 38.9072 43.1251H20.1572C17.8312 43.1251 15.9384 41.2323 15.9384 38.9063C15.9384 36.5804 17.8312 34.6876 20.1572 34.6876H22.5H26.25H29.0625H32.8125H35.625H39.375H53.4375V36.5626H20.1562ZM42.4997 38.4376C41.7628 39.0357 40.8328 39.3751 39.8438 39.3751H20.1562C19.8984 39.3751 19.6875 39.1641 19.6875 38.9063C19.6875 38.6485 19.8984 38.4376 20.1562 38.4376H42.4997ZM57.1875 36.5626C57.1875 37.0801 56.7675 37.5001 56.25 37.5001C55.7325 37.5001 55.3125 37.0801 55.3125 36.5626V34.6876C55.3125 34.1701 55.7325 33.7501 56.25 33.7501C56.7675 33.7501 57.1875 34.1701 57.1875 34.6876V36.5626Z" fill="#151D56"/>
<path d="M40.3125 30.977C41.5538 31.1176 42.6619 31.7963 43.3462 32.8126H40.3125M40.3125 30.977V32.8126M40.3125 30.977L38.4375 30.9376H36.5625V32.8126H38.4375H40.3125M56.25 31.8751C55.4222 31.8751 54.6844 32.2416 54.1687 32.8126H49.59C48.9591 27.9545 45.1322 24.166 40.3125 23.5398V20.6251C40.3125 20.1076 39.8934 19.6876 39.375 19.6876H38.4375V18.7501H39.375V16.8751H35.625V18.7501H36.5625V19.6876H35.625C35.1066 19.6876 34.6875 20.1076 34.6875 20.6251V23.4376H33.75V20.6251C33.75 20.1076 33.3309 19.6876 32.8125 19.6876H31.875V18.7501H32.8125V16.8751H29.0625V18.7501H30V19.6876H29.0625C28.5441 19.6876 28.125 20.1076 28.125 20.6251V23.4376H27.1875V20.6251C27.1875 20.1076 26.7684 19.6876 26.25 19.6876H25.3125V18.7501H26.25V16.8751H22.5V18.7501H23.4375V19.6876H22.5C21.9816 19.6876 21.5625 20.1076 21.5625 20.6251V23.4376H16.215C10.6012 23.4376 5.42062 20.3898 2.69438 15.482C2.48719 15.1098 2.05594 14.9242 1.63969 15.0301C1.22625 15.137 0.9375 15.5101 0.9375 15.9376V38.4376C0.9375 38.8651 1.22625 39.2382 1.63969 39.3451C1.71844 39.3648 1.79719 39.3751 1.875 39.3751C2.20875 39.3751 2.52563 39.196 2.69438 38.8923C5.42062 33.9863 10.6012 30.9376 16.215 30.9376H21.5625V32.8126H20.1562C16.7962 32.8126 14.0625 35.5463 14.0625 38.9063C14.0625 42.2663 16.7962 45.0001 20.1562 45.0001H38.9062C43.2422 45.0001 47.1441 42.3882 48.8241 38.4376H54.1687C54.6834 39.0085 55.4222 39.3751 56.25 39.3751C57.8006 39.3751 59.0625 38.1132 59.0625 36.5626V34.6876C59.0625 33.137 57.8006 31.8751 56.25 31.8751ZM36.5625 21.5626H38.4375V23.4376H36.5625V21.5626ZM30 21.5626H31.875V23.4376H30V21.5626ZM23.4375 21.5626H25.3125V23.4376H23.4375V21.5626ZM2.8125 35.3991V18.976C6.07219 22.9445 10.9753 25.3126 16.215 25.3126H38.9062C43.3388 25.3126 47.0241 28.5357 47.6981 32.8126H45.4519C44.5153 30.5776 42.3122 29.0626 39.8438 29.0626H16.215C10.9753 29.0626 6.07219 31.4307 2.8125 35.3991ZM40.5 32.8126V30.9376H38.6875V32.8126H40.5ZM38.5 30.9376H40.375V32.8126H38.5V30.9376ZM23.4375 30.9376H34.5V32.8126H23.4375V30.9376ZM20.1562 36.5626C18.8634 36.5626 17.8125 37.6135 17.8125 38.9063C17.8125 40.1991 18.8634 41.2501 20.1562 41.2501H39.8438C41.9466 41.2501 43.8656 40.186 44.9803 38.4376H46.7522C45.2175 41.2876 42.2147 43.1251 38.9072 43.1251H20.1572C17.8312 43.1251 15.9384 41.2323 15.9384 38.9063C15.9384 36.5804 17.8312 34.6876 20.1572 34.6876H22.5H26.25H29.0625H32.8125H35.625H39.375H53.4375V36.5626H20.1562ZM42.4997 38.4376C41.7628 39.0357 40.8328 39.3751 39.8438 39.3751H20.1562C19.8984 39.3751 19.6875 39.1641 19.6875 38.9063C19.6875 38.6485 19.8984 38.4376 20.1562 38.4376H42.4997ZM57.1875 36.5626C57.1875 37.0801 56.7675 37.5001 56.25 37.5001C55.7325 37.5001 55.3125 37.0801 55.3125 36.5626V34.6876C55.3125 34.1701 55.7325 33.7501 56.25 33.7501C56.7675 33.7501 57.1875 34.1701 57.1875 34.6876V36.5626Z" stroke="#151D56" stroke-width="0.5"/>
</svg>
