<svg width="60" height="60" viewBox="0 0 60 60" fill="none" xmlns="http://www.w3.org/2000/svg">
<g clip-path="url(#clip0)">
<path d="M56.1368 15.5758C56.1364 15.5278 56.1336 15.48 56.1273 15.4321C56.1269 15.4294 56.1262 15.4268 56.1259 15.424C56.1198 15.3809 56.1109 15.338 56.0999 15.2951C56.097 15.2836 56.0936 15.2724 56.0904 15.261C56.0804 15.2265 56.0687 15.1925 56.0554 15.1587C56.051 15.1474 56.047 15.1361 56.0423 15.1249C56.0242 15.0826 56.0041 15.0408 55.9806 15C55.957 14.9591 55.9304 14.9204 55.9029 14.8835C55.8956 14.8739 55.8879 14.8648 55.8804 14.8554C55.8577 14.8269 55.8341 14.7997 55.8092 14.774C55.8011 14.7655 55.7929 14.757 55.7845 14.7486C55.7529 14.7178 55.7202 14.6885 55.6858 14.6618C55.6836 14.6602 55.6817 14.6583 55.6795 14.6567C55.6412 14.6272 55.6012 14.6009 55.56 14.5766C55.5572 14.5749 55.5546 14.5727 55.5517 14.571L30.5858 0.156925C30.2232 -0.052489 29.7765 -0.0523718 29.4139 0.156925L4.44794 14.571C4.44525 14.5726 4.44279 14.5746 4.44021 14.5763C4.39861 14.6006 4.35829 14.6272 4.31986 14.6569C4.31798 14.6582 4.31657 14.6597 4.31482 14.661C4.28001 14.6881 4.24685 14.7177 4.21497 14.749C4.20665 14.7571 4.19857 14.7655 4.19048 14.7738C4.16552 14.7999 4.14173 14.8272 4.11911 14.8558C4.1115 14.8651 4.10376 14.8742 4.09673 14.8838C4.06919 14.9206 4.04294 14.959 4.01927 14.9998C3.99572 15.0407 3.97544 15.083 3.95739 15.1252C3.95259 15.1363 3.94861 15.1477 3.94415 15.1589C3.93091 15.1928 3.91919 15.2268 3.90923 15.2612C3.90595 15.2726 3.90267 15.2838 3.89974 15.2953C3.88872 15.338 3.87982 15.3809 3.87384 15.424C3.87337 15.4268 3.87267 15.4295 3.87232 15.4323C3.86599 15.4801 3.86318 15.5281 3.86282 15.5759C3.86282 15.5793 3.86212 15.5825 3.86212 15.5858V44.4141C3.86212 44.8328 4.08548 45.2196 4.44806 45.4289L29.414 59.843C29.417 59.8447 29.4202 59.8458 29.4232 59.8474C29.4647 59.871 29.5074 59.8924 29.552 59.9108C29.5549 59.9121 29.5581 59.9129 29.561 59.9141C29.601 59.9303 29.642 59.9439 29.684 59.9556C29.6959 59.9588 29.7075 59.9617 29.7192 59.9646C29.7538 59.9731 29.7888 59.98 29.8244 59.9854C29.8366 59.9872 29.8486 59.9895 29.8606 59.9909C29.9065 59.9963 29.9527 59.9999 30 59.9999C30.0471 59.9999 30.0935 59.9963 30.1393 59.9909C30.1514 59.9895 30.1634 59.9872 30.1755 59.9854C30.2113 59.98 30.2463 59.9732 30.2809 59.9646C30.2926 59.9617 30.3042 59.9588 30.316 59.9556C30.358 59.9439 30.3991 59.9302 30.4391 59.9141C30.442 59.9129 30.4452 59.912 30.4481 59.9108C30.4926 59.8924 30.5354 59.871 30.5769 59.8474C30.5798 59.8458 30.5831 59.8447 30.586 59.843L55.5519 45.4289C55.9145 45.2196 56.1378 44.8328 56.1378 44.4141V15.5858C56.1375 15.5824 56.1369 15.5792 56.1368 15.5758ZM49.449 31.8318C49.2119 31.9645 49.1659 32.0775 49.218 32.1709C49.3639 32.4324 49.6396 32.0628 49.449 31.8318L45.1547 34.3111C44.488 34.696 43.6547 34.2149 43.6547 33.4451V24.0467C43.6547 23.6895 43.8453 23.3593 44.1547 23.1807L52.2937 18.4816C52.9604 18.0967 53.7937 18.5778 53.7937 19.3476V28.7459C53.7937 29.1032 53.6031 29.4333 53.2937 29.6119L51.7927 30.4785C51.1719 30.832 50.2417 31.3882 49.449 31.8318ZM29.4997 2.8135C29.8091 2.63486 30.1903 2.63486 30.4997 2.8135L38.639 7.51277C39.3057 7.89767 39.3057 8.85992 38.639 9.24482L30.4997 13.944C30.1903 14.1226 29.8091 14.1226 29.4997 13.944L21.3605 9.24481C20.6939 8.85992 20.6939 7.89767 21.3605 7.51277L29.4997 2.8135ZM16.3447 47.8592C16.3447 48.629 15.5114 49.1102 14.8447 48.7253L6.70563 44.0261C6.39623 43.8475 6.20564 43.5173 6.20564 43.1601V33.7617C6.20564 32.9919 7.03898 32.5107 7.70565 32.8956L8.35872 33.2727C10.7025 34.6259 8.35872 33.2727 10.7025 34.6259C10.9057 34.6259 11.0107 34.5641 11.0435 34.4639C11.1528 34.1301 10.6403 34.2802 10.7025 34.6259L15.8447 37.5948C16.1541 37.7734 16.3447 38.1035 16.3447 38.4608V47.8592ZM16.3447 33.4452C16.3447 34.215 15.5114 34.6961 14.8447 34.3112L6.70563 29.6119C6.39623 29.4333 6.20564 29.1032 6.20564 28.7459V19.3476C6.20564 18.5778 7.03898 18.0967 7.70564 18.4816L15.8447 23.1807C16.1541 23.3593 16.3447 23.6895 16.3447 24.0467V33.4452ZM8.87762 16.4519C8.21096 16.067 8.21096 15.1047 8.87763 14.7198L17.0168 10.0206C17.3262 9.84201 17.7074 9.84201 18.0168 10.0206L26.156 14.7198C26.8227 15.1047 26.8227 16.067 26.156 16.4519L18.0168 21.151C17.7074 21.3297 17.3262 21.3297 17.0168 21.151L8.87762 16.4519ZM28.8279 55.0663C28.8279 55.8361 27.9945 56.3172 27.3279 55.9323L19.1885 51.233C18.879 51.0544 18.6884 50.7243 18.6884 50.367V40.9686C18.6884 40.1988 19.5218 39.7176 20.1885 40.1025L28.3279 44.8019C28.6373 44.9805 28.8279 45.3107 28.8279 45.6679V55.0663ZM28.828 40.6523C28.828 41.4221 27.9946 41.9033 27.328 41.5184L19.1886 36.8191C18.8792 36.6404 18.6886 36.3103 18.6886 35.953V26.5546C18.6886 25.7848 19.5219 25.3037 20.1886 25.6886L28.328 30.3879C28.6374 30.5665 28.828 30.8966 28.828 31.2539V40.6523ZM30.4997 28.3582C30.1903 28.5368 29.8091 28.5368 29.4997 28.3582L21.3605 23.6589C20.6939 23.274 20.6939 22.3117 21.3605 21.9268L29.4997 17.2277C29.8091 17.049 30.1903 17.049 30.4997 17.2277L38.639 21.9268C39.3057 22.3117 39.3057 23.274 38.639 23.6589L30.4997 28.3582ZM41.3109 50.3671C41.3109 50.7244 41.1203 51.0545 40.8109 51.2331L32.6716 55.9323C32.0049 56.3172 31.1716 55.8361 31.1716 55.0663V45.6679C31.1716 45.3107 31.3622 44.9805 31.6716 44.8019L39.8109 40.1026C40.4776 39.7177 41.3109 40.1989 41.3109 40.9687V50.3671ZM41.3109 35.9528C41.3109 36.3101 41.1203 36.6402 40.8109 36.8188L32.6716 41.5182C32.005 41.9031 31.1716 41.422 31.1716 40.6522V31.2538C31.1716 30.8965 31.3622 30.5664 31.6716 30.3877L39.8109 25.6885C40.4776 25.3036 41.3109 25.7847 41.3109 26.5545V35.9528ZM33.8434 16.4519C33.1767 16.067 33.1767 15.1047 33.8434 14.7198L41.9828 10.0206C42.2922 9.842 42.6734 9.84201 42.9828 10.0206L51.1219 14.7198C51.7885 15.1047 51.7885 16.067 51.1219 16.4519L42.9828 21.151C42.6734 21.3297 42.2922 21.3297 41.9828 21.151L33.8434 16.4519ZM53.7937 43.1601C53.7937 43.5173 53.6031 43.8475 53.2937 44.0261L45.1547 48.7253C44.488 49.1102 43.6547 48.629 43.6547 47.8592V38.4608C43.6547 38.1035 43.8453 37.7734 44.1547 37.5948L52.2937 32.8956C52.9604 32.5107 53.7937 32.9918 53.7937 33.7616V43.1601Z" fill="#151D56"/>
</g>
<defs>
<clipPath id="clip0">
<rect width="60" height="60" fill="white"/>
</clipPath>
</defs>
</svg>
