<svg width="60" height="60" viewBox="0 0 60 60" fill="none" xmlns="http://www.w3.org/2000/svg">
<g clip-path="url(#clip0)">
<path d="M51.5775 0H8.4225C3.77786 0 0 3.77786 0 8.4225V51.5775C0 56.2221 3.77786 60 8.4225 60H51.5775C56.2221 60 60 56.2221 60 51.5775V8.4225C60 3.77786 56.2221 0 51.5775 0ZM57.8571 51.5775C57.8571 55.0404 55.0404 57.8571 51.5775 57.8571H8.4225C4.95964 57.8571 2.14286 55.0404 2.14286 51.5775V8.4225C2.14286 4.95964 4.95964 2.14286 8.4225 2.14286H51.5775C55.0404 2.14286 57.8571 4.95964 57.8571 8.4225V51.5775Z" fill="#151D56" stroke="#151D56" stroke-width="0.75"/>
<path d="M51.5775 4.28572H8.42251C6.14144 4.28572 4.28572 6.14143 4.28572 8.4225V51.5775C4.28572 53.8586 6.14144 55.7143 8.42251 55.7143H51.5775C53.8586 55.7143 55.7143 53.8586 55.7143 51.5775V8.4225C55.7143 6.14143 53.8586 4.28572 51.5775 4.28572ZM53.5714 8.4225V28.9286H31.0714V6.42857H51.5775C52.6768 6.42857 53.5714 7.32322 53.5714 8.4225ZM8.42251 6.42857H28.9286V28.9286H6.42858V8.4225C6.42858 7.32322 7.32322 6.42857 8.42251 6.42857ZM6.42858 51.5775V31.0714H28.9286V53.5714H8.42251C7.32322 53.5714 6.42858 52.6768 6.42858 51.5775ZM51.5775 53.5714H31.0714V31.0714H53.5714V51.5775C53.5714 52.6768 52.6768 53.5714 51.5775 53.5714Z" fill="#151D56" stroke="#151D56" stroke-width="0.75"/>
<path d="M17.6786 26.7857C22.7004 26.7857 26.7857 22.7004 26.7857 17.6786C26.7857 12.6568 22.7004 8.57143 17.6786 8.57143C12.6568 8.57143 8.57143 12.6568 8.57143 17.6786C8.57143 22.7004 12.6568 26.7857 17.6786 26.7857ZM17.6786 10.7143C21.5186 10.7143 24.6429 13.8386 24.6429 17.6786C24.6429 21.5186 21.5186 24.6429 17.6786 24.6429C13.8386 24.6429 10.7143 21.5186 10.7143 17.6786C10.7143 13.8386 13.8386 10.7143 17.6786 10.7143Z" fill="#151D56" stroke="#151D56" stroke-width="0.75"/>
<path d="M34.5996 17.9004L42.0996 25.4004C42.3086 25.6093 42.5829 25.7143 42.8571 25.7143C43.1314 25.7143 43.4057 25.6093 43.6146 25.4004L51.1146 17.9004C51.5336 17.4814 51.5336 16.8043 51.1146 16.3854L43.6146 8.88536C43.1957 8.46643 42.5186 8.46643 42.0996 8.88536L34.5996 16.3854C34.1807 16.8043 34.1807 17.4814 34.5996 17.9004ZM42.8571 11.1579L48.8421 17.1429L42.8571 23.1279L36.8721 17.1429L42.8571 11.1579Z" fill="#151D56" stroke="#151D56" stroke-width="0.75"/>
<path d="M26.6732 48.8068L19.1732 33.8068C18.81 33.0804 17.6196 33.0804 17.2564 33.8068L9.75642 48.8068C9.59035 49.1389 9.60856 49.5332 9.80356 49.8493C9.99856 50.1643 10.3425 50.3571 10.7143 50.3571H25.7143C26.0861 50.3571 26.43 50.1643 26.6261 49.8493C26.8211 49.5332 26.8382 49.1389 26.6732 48.8068ZM12.4478 48.2143L18.2143 36.6814L23.9807 48.2143H12.4478Z" fill="#151D56" stroke="#151D56" stroke-width="0.75"/>
<path d="M51.5979 39.6568L46.2814 38.8039L43.8171 33.8121C43.4561 33.0803 42.2571 33.0803 41.8961 33.8121L39.4318 38.8039L34.1154 39.6568C33.7179 39.7211 33.39 40.0007 33.2668 40.3832C33.1425 40.7657 33.2421 41.1857 33.5261 41.4707L37.3243 45.2914L36.3836 50.7793C36.315 51.1811 36.48 51.5871 36.81 51.8271C37.1411 52.0682 37.5771 52.0982 37.9382 51.9086L42.8571 49.3211L47.7761 51.9075C47.9325 51.99 48.1039 52.0307 48.2743 52.0307C48.4961 52.0307 48.7179 51.9621 48.9043 51.8261C49.2343 51.5861 49.3993 51.18 49.3307 50.7782L48.39 45.2903L52.1882 41.4696C52.4721 41.1846 52.5718 40.7646 52.4475 40.3821C52.3232 40.0007 51.9954 39.72 51.5979 39.6568ZM46.4807 44.1718C46.2354 44.4171 46.125 44.7664 46.1839 45.1082L46.8514 49.0007L43.3554 47.1632C43.2 47.0796 43.0286 47.0389 42.8571 47.0389C42.6857 47.0389 42.5143 47.0796 42.3589 47.1621L38.8629 48.9996L39.5304 45.1071C39.5893 44.7653 39.4789 44.4161 39.2336 44.1707L36.5196 41.4407L40.3179 40.8321C40.6607 40.7775 40.9554 40.56 41.1086 40.2482L42.8571 36.7061L44.6057 40.2482C44.7589 40.56 45.0536 40.7775 45.3964 40.8321L49.1946 41.4407L46.4807 44.1718Z" fill="#151D56" stroke="#151D56" stroke-width="0.75"/>
</g>
<defs>
<clipPath id="clip0">
<rect width="60" height="60" fill="white"/>
</clipPath>
</defs>
</svg>
