<svg width="60" height="60" viewBox="0 0 60 60" fill="none" xmlns="http://www.w3.org/2000/svg">
<g clip-path="url(#clip0)">
<path d="M37.0312 14.2275C37.9109 14.2275 38.6241 14.9406 38.6241 15.8203V21.4122C38.6241 21.9864 38.8522 22.5371 39.2582 22.9431L41.6022 25.2872C41.9464 25.6313 42.1397 26.098 42.1397 26.5847V47.6953C42.1397 54.389 36.6937 59.835 30 59.835H15.9375C9.24382 59.835 3.79781 54.389 3.79781 47.6953V12.405C3.79781 11.9184 3.99114 11.4516 4.33527 11.1075L6.67932 8.76344C7.08534 8.35742 7.31344 7.80674 7.31344 7.23255V1.75781C7.31344 0.878126 8.02656 0.165 8.90625 0.165C9.78594 0.165 10.4991 0.878127 10.4991 1.75781V7.23255C10.4991 7.80674 10.7272 8.35742 11.1332 8.76344L13.4772 11.1075C13.8214 11.4516 14.0147 11.9184 14.0147 12.405V47.6953C14.0147 48.7557 14.8771 49.6181 15.9375 49.6181H30C31.0604 49.6181 31.9228 48.7557 31.9228 47.6953V26.5847C31.9228 26.098 32.1161 25.6313 32.4603 25.2872L34.8043 22.9431C35.2103 22.5371 35.4384 21.9864 35.4384 21.4122V15.8203C35.4384 14.9406 36.1516 14.2275 37.0312 14.2275ZM30 56.6494C34.9374 56.6494 38.9541 52.6327 38.9541 47.6953V27.9406C38.9541 27.4306 38.7515 26.9415 38.3909 26.5809C37.64 25.83 36.4225 25.83 35.6716 26.5809C35.311 26.9415 35.1084 27.4306 35.1084 27.9406V47.6953C35.1084 50.512 32.8166 52.8037 30 52.8037H15.9375C13.1209 52.8037 10.8291 50.512 10.8291 47.6953V13.7609C10.8291 13.2509 10.6265 12.7618 10.2659 12.4012C9.51498 11.6503 8.29752 11.6503 7.54662 12.4012C7.18602 12.7618 6.98344 13.2509 6.98344 13.7609V47.6953C6.98344 52.6327 11.0001 56.6494 15.9375 56.6494H30Z" fill="#151D56" stroke="white" stroke-width="0.33"/>
<path d="M44.0625 0.165C50.7562 0.165 56.2022 5.61101 56.2022 12.3047V47.595C56.2022 48.0816 56.0089 48.5484 55.6647 48.8925L53.3207 51.2366C52.9147 51.6426 52.6866 52.1933 52.6866 52.7675V58.2422C52.6866 59.1219 51.9734 59.835 51.0938 59.835C50.2141 59.835 49.5009 59.1219 49.5009 58.2422V52.7675C49.5009 52.1933 49.2728 51.6426 48.8668 51.2366L46.5228 48.8925C46.1786 48.5484 45.9853 48.0816 45.9853 47.595V12.3047C45.9853 11.2443 45.1229 10.3819 44.0625 10.3819H30C28.9396 10.3819 28.0772 11.2443 28.0772 12.3047V33.4153C28.0772 33.902 27.8839 34.3687 27.5397 34.7128L25.1957 37.0569C24.7897 37.4629 24.5616 38.0136 24.5616 38.5878V44.1797C24.5616 45.0594 23.8484 45.7725 22.9688 45.7725C22.0891 45.7725 21.3759 45.0594 21.3759 44.1797V38.5878C21.3759 38.0136 21.1478 37.4629 20.7418 37.0569L18.3978 34.7128C18.0536 34.3687 17.8603 33.902 17.8603 33.4153V12.3047C17.8603 5.61101 23.3063 0.165 30 0.165H44.0625ZM52.4534 47.5987C52.814 47.2382 53.0166 46.7491 53.0166 46.2391V12.3047C53.0166 7.36727 48.9999 3.35063 44.0625 3.35063H30C25.0626 3.35063 21.0459 7.36727 21.0459 12.3047V32.0594C21.0459 32.5694 21.2485 33.0585 21.6091 33.4191C22.36 34.17 23.5775 34.17 24.3284 33.4191C24.689 33.0585 24.8916 32.5694 24.8916 32.0594V12.3047C24.8916 9.48804 27.1834 7.19625 30 7.19625H44.0625C46.8791 7.19625 49.1709 9.48804 49.1709 12.3047V46.2391C49.1709 46.7491 49.3735 47.2382 49.7341 47.5987C50.485 48.3497 51.7025 48.3497 52.4534 47.5987Z" fill="#151D56" stroke="white" stroke-width="0.33"/>
</g>
<defs>
<clipPath id="clip0">
<rect width="60" height="60" fill="white"/>
</clipPath>
</defs>
</svg>
