<svg width="60" height="60" viewBox="0 0 60 60" fill="none" xmlns="http://www.w3.org/2000/svg">
<g clip-path="url(#clip0)">
<path d="M27.4017 26.193C24.4239 26.193 21.1321 27.7077 18.5958 30.2451C14.1255 34.7151 13.2015 40.7943 16.491 44.0849C17.7639 45.3581 19.5043 46.0307 21.5247 46.0307C24.501 46.0307 27.7934 44.5169 30.3294 41.9785C34.8001 37.5078 35.7251 31.4284 32.4347 28.1383C31.1617 26.8663 29.4212 26.193 27.4017 26.193ZM21.5246 43.1459C20.6611 43.1459 19.4399 42.9543 18.5305 42.0435C16.4561 39.97 17.4205 35.4991 20.6353 32.2847C22.643 30.2771 25.1727 29.0778 27.4017 29.0778C28.2643 29.0778 29.4846 29.2685 30.3945 30.1795C32.4684 32.253 31.505 36.7237 28.2897 39.9392C26.2814 41.9468 23.7515 43.1459 21.5246 43.1459Z" fill="#151D56"/>
<path d="M52.4147 10.9353C51.8664 10.9353 51.3246 10.9983 50.7978 11.1222C50.4353 10.6701 50.0465 10.2356 49.6352 9.82392C49.2164 9.40563 48.7742 9.01013 48.3121 8.64205C48.8727 6.29398 48.1928 3.80595 46.4443 2.05692C45.1182 0.730989 43.3548 0 41.4795 0C39.6053 0 37.8405 0.730989 36.5148 2.0571C35.3579 3.21493 34.6497 4.73994 34.4958 6.3556C33.2196 6.90833 32.0813 7.68259 31.1012 8.66253C29.1789 10.5846 28.0492 13.1779 27.8567 16.0022C25.7336 15.2724 22.1595 14.2763 18.4792 14.2763C15.4255 14.2763 12.8427 14.9668 10.8031 16.3268C8.34031 17.9677 7.32761 19.7363 7.79238 21.5837C8.4135 24.0528 11.549 25.4628 14.0924 26.1569C10.5278 29.9264 2.93972 38.2707 1.25604 42.7368C0.208086 45.5163 0.368708 48.4164 1.67523 50.3056C3.12652 52.4034 5.79957 52.9556 8.89804 51.6831C7.90546 54.1087 8.11915 55.8271 8.64588 56.9804C9.50936 58.8716 11.5884 60.0004 14.2042 60.0004C15.3991 60.0004 16.657 59.7657 17.8378 59.3196C22.3025 57.6368 30.6395 50.0559 34.4112 46.4893C35.23 49.4661 36.971 52.8871 39.8266 52.8871C41.3826 52.8871 42.8702 51.8391 44.2478 49.7722C48.342 43.6326 45.2197 34.3059 44.1445 31.5415C46.7109 31.226 49.0331 30.1235 50.7985 28.359C51.7854 27.3707 52.5631 26.2221 53.1172 24.9366C54.7286 24.7788 56.2209 24.076 57.3776 22.9205C60.115 20.1817 60.115 15.7277 57.3776 12.9899C56.0519 11.6655 54.2891 10.9353 52.4147 10.9353ZM55.3371 20.8805C54.5071 21.711 53.3726 22.1421 52.1893 22.0805L51.087 22.0208L50.7432 23.0708C50.3318 24.3187 49.6651 25.4122 48.7589 26.319C46.9418 28.1366 44.2656 28.9952 41.4408 28.6825L37.3475 28.2219L41.285 32.1598C41.933 33.7402 45.3997 42.8454 41.8502 48.1717C40.7178 49.8695 40.0173 50.0009 39.8284 50.0009C38.6866 50.0009 37.0506 46.5226 36.7614 43.4715L36.4731 40.4526L34.3124 42.5813C30.9098 45.9348 21.1327 54.9928 16.8219 56.6193C15.9622 56.9423 15.0574 57.1142 14.2057 57.1142C12.7497 57.1142 11.6525 56.6145 11.2707 55.7797C10.5584 54.2209 11.8806 51.2705 14.8084 47.8861C15.1151 47.5312 15.6876 46.872 15.2892 46.0005L14.8987 45.1553H13.9719C13.3947 45.1553 13.0361 45.4661 12.6901 45.7658C8.94362 49.0074 6.73588 49.492 5.75238 49.492C4.99183 49.492 4.43482 49.2215 4.04947 48.6646C3.29729 47.5762 3.25972 45.6023 3.95598 43.7543C5.5809 39.444 14.6391 29.6671 17.9935 26.2643L20.1223 24.1036L17.1027 23.8158C14.2288 23.5419 10.8805 22.0329 10.5908 20.8794C10.466 20.3803 11.1603 19.5561 12.4046 18.727C13.9626 17.6889 16.0069 17.1616 18.4808 17.1616C22.9156 17.1616 27.3563 18.8599 28.4161 19.2919L31.2392 22.1147L30.7785 18.0215C30.4564 15.1494 31.296 12.55 33.1421 10.7038C34.0446 9.80184 35.1301 9.13745 36.3716 8.72575L37.4242 8.37779L37.3576 7.27107C37.288 6.08777 37.7248 4.93048 38.5559 4.09852C39.3373 3.31767 40.3768 2.88709 41.4811 2.88709C42.5864 2.88709 43.6249 3.31661 44.4063 4.09852C45.5988 5.29108 45.9482 7.06878 45.2947 8.62656L44.842 9.70639L45.8045 10.3708C46.444 10.8122 47.0469 11.314 47.5963 11.8645C48.1428 12.4113 48.6405 13.0068 49.0762 13.6336L49.7403 14.5906L50.8155 14.1402C52.3358 13.5059 54.1659 13.8585 55.338 15.0309C56.9495 16.6425 56.9495 19.2677 55.3371 20.8805Z" fill="#151D56"/>
<path d="M37.5043 17.6178C38.9109 19.0244 41.0925 16.8425 39.6857 15.4368C38.2782 14.0309 36.0977 16.211 37.5043 17.6178Z" fill="#151D56"/>
<path d="M42.2295 21.9797C43.6361 23.3863 45.8175 21.2043 44.41 19.7986C43.0034 18.3929 40.8238 20.5729 42.2295 21.9797Z" fill="#151D56"/>
<path d="M37.3232 22.4037C38.7298 23.8103 40.9105 21.6283 39.5037 20.2226C38.0969 18.8159 35.9154 20.9969 37.3232 22.4037Z" fill="#151D56"/>
</g>
<defs>
<clipPath id="clip0">
<rect width="60" height="60" fill="white"/>
</clipPath>
</defs>
</svg>
