<svg width="60" height="60" viewBox="0 0 60 60" fill="none" xmlns="http://www.w3.org/2000/svg">
<path d="M30.0019 0C22.2059 0 15.8628 6.34275 15.8628 14.1391C15.8628 20.9656 19.7186 26.3055 25.5886 27.8252C25.5819 28.2556 25.579 28.7313 25.576 29.2405C25.5554 32.3515 25.5217 37.5598 24.545 39.592C23.1167 42.5593 22.5916 47.1624 22.4094 49.5909C22.3583 50.0584 22.3348 50.4479 22.3348 50.8191C22.3348 55.8811 25.7738 59.9996 30.0021 59.9996C34.2291 59.9996 37.6688 55.8811 37.6688 50.8191C37.6688 50.4354 37.6456 50.0449 37.5995 49.6409C37.4129 47.1595 36.8869 42.5571 35.4595 39.5918C34.4832 37.5604 34.4487 32.3514 34.4285 29.2404C34.4255 28.7311 34.4228 28.2555 34.4161 27.825C40.2851 26.3044 44.1408 20.9645 44.1408 14.1389C44.1416 6.34366 37.7983 0 30.0019 0ZM32.6746 25.174L31.3561 25.3808L31.4283 26.7145C31.4628 27.3377 31.4677 28.2261 31.4745 29.2613C31.4975 33.0519 31.5321 38.2438 32.7979 40.8742C34.0589 43.496 34.5138 48.0349 34.6581 49.9181C34.6907 50.2145 34.7148 50.5136 34.7148 50.8222C34.7148 54.254 32.6018 57.0471 30.0033 57.0471C27.4041 57.0471 25.2904 54.2542 25.2904 50.8222C25.2904 50.5143 25.3149 50.2125 25.3524 49.8643C25.4905 48.0349 25.9454 43.498 27.2077 40.8742C28.4735 38.2436 28.5061 33.0517 28.5306 29.2613C28.5373 28.2259 28.5421 27.3377 28.5767 26.7145L28.6489 25.3808L27.3299 25.174C22.2391 24.3742 18.8175 19.9413 18.8175 14.14C18.8175 7.97239 23.8357 2.95561 30.0019 2.95561C36.1681 2.95561 41.186 7.9733 41.186 14.14C41.1867 19.9404 37.7665 24.3744 32.6746 25.174Z" fill="#151D56"/>
<path d="M26.5077 50.2338C26.5077 52.7998 28.0432 54.8101 30.002 54.8101C31.9613 54.8101 33.4964 52.8 33.4964 50.2338C33.4964 47.6676 31.9613 45.6573 30.002 45.6573C28.0432 45.6573 26.5077 47.6676 26.5077 50.2338ZM30.002 51.84C29.8193 51.7102 29.4625 51.1437 29.4625 50.2338C29.4625 49.2545 29.8771 48.6725 29.9632 48.6063C30.1275 48.6725 30.5423 49.2545 30.5423 50.2338C30.5421 51.1435 30.1852 51.7102 30.002 51.84Z" fill="#151D56"/>
<path d="M36.1702 10.9018C34.0647 10.9018 32.3576 10.9018 32.3576 10.9018L31.1803 7.2761C30.5293 5.27403 29.4746 5.27403 28.8243 7.2761C28.1743 9.27855 27.6467 10.9018 27.6467 10.9018H23.834C21.7281 10.9018 21.402 11.9053 23.1059 13.1423C24.8087 14.3807 26.191 15.3833 26.191 15.3833L25.0128 19.0082C24.3622 21.0107 25.2156 21.631 26.9186 20.3933C28.6224 19.1549 30.0037 18.1523 30.0037 18.1523L33.0888 20.3933C34.7912 21.6312 35.6453 21.0107 34.994 19.0082C34.3431 17.0062 33.8158 15.3833 33.8158 15.3833L36.9014 13.1423C38.6026 11.9046 38.2766 10.9018 36.1702 10.9018Z" fill="#151D56"/>
<path d="M14.141 8.6369C14.5468 7.92851 14.3035 7.02532 13.5957 6.61932C12.8882 6.21497 11.985 6.45773 11.5786 7.16521C10.3225 9.35369 9.6579 11.8511 9.6579 14.3885C9.6579 16.9237 10.3216 19.4212 11.5777 21.6098C11.8504 22.0853 12.3476 22.3523 12.8597 22.3523C13.1098 22.3523 13.3622 22.2901 13.5935 22.1566C14.3013 21.7506 14.5457 20.8475 14.1397 20.1402C13.5185 19.0557 13.1021 17.8712 12.8595 16.6478C12.7118 15.9053 12.6133 15.1516 12.6133 14.3885C12.6133 13.6252 12.7129 12.8707 12.8605 12.1282C13.1032 10.9038 13.5187 9.72029 14.141 8.6369Z" fill="#151D56"/>
<path d="M9.10646 3.33082C8.40044 2.923 7.49834 3.16831 7.09143 3.87762C5.26262 7.06176 4.29742 10.696 4.29742 14.3885C4.29742 18.0808 5.26262 21.7141 7.09052 24.8983C7.36319 25.3739 7.86057 25.6408 8.37253 25.6408C8.62313 25.6408 8.8752 25.5788 9.10646 25.4451C9.81486 25.0393 10.0591 24.1361 9.65326 23.4291C9.14495 22.5424 8.72235 21.6127 8.37271 20.6563C7.64134 18.6591 7.25321 16.5378 7.25321 14.3887C7.25321 12.2405 7.64225 10.1191 8.37381 8.12198C8.72436 7.16554 9.14622 6.23481 9.65545 5.34804C10.0591 4.63982 9.81486 3.73663 9.10646 3.33082Z" fill="#151D56"/>
<path d="M46.4057 6.61932C45.6979 7.02531 45.4535 7.92832 45.8595 8.63581C46.4818 9.72029 46.8973 10.9067 47.1406 12.1311C47.2869 12.8725 47.3868 13.6252 47.3868 14.3874C47.3868 15.1498 47.2889 15.9023 47.1406 16.6439C46.8973 17.8692 46.4818 19.0548 45.8595 20.1391C45.4546 20.8465 45.6979 21.7497 46.4068 22.1555C46.6386 22.2892 46.8905 22.3512 47.1406 22.3512C47.6524 22.3512 48.1485 22.0844 48.4226 21.6087C49.6778 19.421 50.3415 16.9246 50.3415 14.3874C50.3415 11.8511 49.6778 9.35369 48.4219 7.16521C48.0138 6.45681 47.1108 6.2115 46.4057 6.61932Z" fill="#151D56"/>
<path d="M50.3474 23.4279C49.9414 24.1349 50.1856 25.0381 50.8936 25.4439C51.1255 25.5776 51.3773 25.6396 51.6274 25.6396C52.1401 25.6396 52.6364 25.3726 52.9094 24.8971C54.7369 21.714 55.7025 18.0789 55.7025 14.3873C55.7025 10.6959 54.7378 7.06167 52.9094 3.87661C52.5018 3.1673 51.5993 2.92199 50.8935 3.32981C50.1845 3.73581 49.9401 4.63881 50.3461 5.34575C50.855 6.23253 51.2763 7.16307 51.6272 8.11952C52.3591 10.1178 52.7478 12.2389 52.7478 14.3871C52.7478 16.5364 52.3602 18.6576 51.6281 20.6558C51.2783 21.6124 50.8572 22.5421 50.3474 23.4279Z" fill="#151D56"/>
</svg>
