<svg width="60" height="60" viewBox="0 0 60 60" fill="none" xmlns="http://www.w3.org/2000/svg">
<g clip-path="url(#clip0)">
<path d="M24.5924 0.0208277C24.6429 0.016343 24.6872 0.0226964 24.7353 0.0220735C24.7384 0.0220735 24.7416 0.0208277 24.7448 0.0208277C38.9921 -0.472866 53.9675 7.80705 52.6733 23.8279C52.6681 23.8928 52.6521 23.9502 52.6404 24.0106C52.6591 24.1764 52.6591 24.35 52.6188 24.5386C51.8376 28.1946 53.0366 31.4088 56.0377 33.6502C56.1752 33.7526 56.2806 33.8703 56.3727 33.993C56.676 34.1923 56.9154 34.4979 57.0445 34.8679C57.6075 36.4835 57.1798 38.1283 55.8887 39.2523C55.6759 39.4369 55.4294 39.5629 55.1729 39.6305C54.3395 40.0911 53.468 40.3972 52.5631 40.6111C52.7491 41.6144 52.6577 42.6289 52.1745 43.5842C53.0768 45.3428 52.4778 47.283 50.6964 48.3419C50.5958 48.4019 50.4956 48.4469 50.3969 48.4816C50.0945 48.8417 50.0654 49.4198 50.1768 49.9759C50.2113 50.146 50.2156 50.3161 50.2027 50.4819C50.2105 50.6326 50.2058 50.7857 50.1768 50.94C49.7071 53.4032 47.603 54.7634 45.1955 54.8071C45.0658 54.8097 44.9462 54.7962 44.8333 54.7734C44.722 54.7786 44.6052 54.7722 44.4848 54.7526C40.6183 54.1257 36.2161 54.4761 34.7638 58.7227C34.4734 59.5711 33.6975 59.8589 33.0023 59.7469C32.7679 59.9228 32.4595 60.0227 32.0707 59.9955C25.0644 59.5058 18.1198 58.488 11.1631 57.5544C10.917 57.5213 10.7038 57.4417 10.5198 57.329C9.67646 57.0659 8.99529 56.1221 9.53993 55.1048C14.1882 46.4383 4.76519 36.9835 2.97678 28.658C2.93754 28.478 2.93692 28.3113 2.95274 28.1525C1.06255 14.4785 10.5242 1.28789 24.5924 0.0208277ZM5.92026 27.5427C5.93857 27.6693 5.94106 27.7904 5.93409 27.9067C7.87684 36.815 16.3964 45.427 13.0236 54.7546C19.3589 55.615 25.6899 56.4981 32.0716 56.9447C32.1168 56.9478 32.1563 56.9599 32.1996 56.9669C34.4805 51.8903 39.7875 50.98 45.0384 51.7752C45.0908 51.7688 45.1395 51.7573 45.1959 51.7562C45.7937 51.7448 46.1059 51.6829 46.5724 51.3982C46.5316 51.4109 46.8121 51.1869 46.8096 51.1907C46.8497 51.1502 46.8748 51.1261 46.8931 51.1103C46.8931 51.0982 46.9091 51.0622 46.9681 50.9667C47.0569 50.8243 47.1224 50.6238 47.1769 50.3974C46.9062 48.5275 47.4371 46.903 49.004 45.7075C49.13 45.6119 49.271 45.5582 49.4167 45.5227C49.4619 45.4847 49.5059 45.4481 49.5534 45.4001C49.5448 45.4039 49.5528 45.3849 49.5799 45.3412C49.5799 45.3026 49.5825 45.29 49.5869 45.2937C49.5682 45.2129 49.5503 45.1318 49.5217 45.0533C49.5211 45.0502 49.2936 44.6973 49.2184 44.5909C49.0081 44.2941 48.965 43.9342 49.0312 43.5882C48.9686 43.2467 49.0131 42.8899 49.2184 42.5926C49.7956 41.7563 49.6821 41.0446 49.2184 40.1653C48.5544 38.907 49.7505 37.7584 50.81 37.876C50.8211 37.8746 50.8309 37.8709 50.8416 37.869C51.9165 37.7273 52.9554 37.4128 53.8869 36.8562C53.9536 36.817 54.0192 36.7929 54.0846 36.7632C54.1312 36.6955 54.1744 36.6265 54.2134 36.5551C54.22 36.5354 54.2251 36.5184 54.2342 36.4905C54.2418 36.4551 54.2471 36.4317 54.2523 36.4089C54.2549 36.3387 54.2529 36.2697 54.2498 36.1995C54.2447 36.1805 54.2348 36.1368 54.2219 36.0692C50.3457 33.0404 48.6807 28.8773 49.6239 24.0114C49.622 23.9503 49.6157 23.8934 49.6208 23.8285C50.7842 9.42778 37.3869 2.63542 24.7455 3.07306C24.7056 3.0743 24.6703 3.06733 24.6316 3.06608C24.6177 3.06733 24.6064 3.07169 24.5925 3.07306C12.5909 4.15425 4.21033 15.859 5.92026 27.5427Z" fill="#151D56"/>
<path d="M35.9398 13.2324C36.1508 12.9075 36.6544 13.0424 36.6747 13.4293L36.9183 18.0769C36.9274 18.2499 37.0468 18.3975 37.2142 18.4423L41.7096 19.6469C42.0838 19.7471 42.1111 20.2678 41.7494 20.4067L37.4046 22.0745C37.2428 22.1366 37.1394 22.2958 37.1485 22.4688L37.392 27.1164C37.4123 27.5033 36.9256 27.6902 36.6817 27.389L33.7529 23.7723C33.6439 23.6376 33.4605 23.5885 33.2987 23.6506L28.9539 25.3184C28.5921 25.4572 28.264 25.0521 28.4751 24.7271L31.0098 20.824C31.1042 20.6786 31.0942 20.4891 30.9852 20.3544L28.0564 16.7376C27.8125 16.4365 28.0965 15.9992 28.4708 16.0995L32.9661 17.304C33.1335 17.3489 33.3107 17.2809 33.4051 17.1355L35.9398 13.2324Z" stroke="#151D56" stroke-width="2" stroke-linecap="round" stroke-linejoin="round"/>
<path d="M21.0154 28.4189C20.8834 28.1599 21.1599 27.8834 21.4189 28.0154L24.6098 29.6412C24.7256 29.7002 24.8662 29.6779 24.9581 29.586L27.4905 27.0537C27.6959 26.8482 28.0444 27.0257 27.9989 27.3128L27.4387 30.8499C27.4183 30.9783 27.483 31.1052 27.5988 31.1642L30.7897 32.79C31.0486 32.922 30.9875 33.3082 30.7004 33.3536L27.1633 33.9139C27.0349 33.9342 26.9342 34.0349 26.9139 34.1633L26.3536 37.7004C26.3082 37.9875 25.922 38.0486 25.79 37.7897L24.1642 34.5988C24.1052 34.483 23.9783 34.4183 23.85 34.4387L20.3128 34.9989C20.0257 35.0443 19.8482 34.6959 20.0537 34.4904L22.5861 31.9581C22.678 31.8662 22.7002 31.7256 22.6412 31.6098L21.0154 28.4189Z" stroke="#151D56" stroke-width="2" stroke-linecap="round" stroke-linejoin="round"/>
<path d="M22.5245 10.4635C22.6741 10.0029 23.3259 10.0029 23.4755 10.4635L25.3574 16.2553C25.4243 16.4613 25.6163 16.6008 25.8329 16.6008H31.9228C32.4071 16.6008 32.6085 17.2206 32.2167 17.5053L27.2899 21.0848C27.1146 21.2122 27.0413 21.4379 27.1082 21.6439L28.9901 27.4357C29.1398 27.8963 28.6125 28.2794 28.2207 27.9947L23.2939 24.4152C23.1186 24.2878 22.8814 24.2878 22.7061 24.4152L17.7793 27.9947C17.3875 28.2794 16.8602 27.8963 17.0099 27.4357L18.8918 21.6439C18.9587 21.4379 18.8854 21.2122 18.7101 21.0848L13.7833 17.5053C13.3915 17.2206 13.5929 16.6008 14.0772 16.6008H20.1671C20.3837 16.6008 20.5757 16.4613 20.6426 16.2553L22.5245 10.4635Z" fill="white" stroke="#151D56" stroke-width="2" stroke-linecap="round" stroke-linejoin="round"/>
</g>
<defs>
<clipPath id="clip0">
<rect width="60.0001" height="60" fill="white"/>
</clipPath>
</defs>
</svg>
