<svg width="18" height="18" viewBox="0 0 18 18" fill="none" xmlns="http://www.w3.org/2000/svg">
<path d="M6.33333 1.5H2.5C1.94772 1.5 1.5 1.94772 1.5 2.5V6.33333C1.5 6.88562 1.94772 7.33333 2.5 7.33333H6.33333C6.88562 7.33333 7.33333 6.88562 7.33333 6.33333V2.5C7.33333 1.94772 6.88562 1.5 6.33333 1.5Z" stroke="white" stroke-width="1.5" stroke-linecap="round" stroke-linejoin="round"/>
<path d="M15.4993 1.5H11.666C11.1137 1.5 10.666 1.94772 10.666 2.5V6.33333C10.666 6.88562 11.1137 7.33333 11.666 7.33333H15.4993C16.0516 7.33333 16.4993 6.88562 16.4993 6.33333V2.5C16.4993 1.94772 16.0516 1.5 15.4993 1.5Z" stroke="white" stroke-width="1.5" stroke-linecap="round" stroke-linejoin="round"/>
<path d="M15.4993 10.6666H11.666C11.1137 10.6666 10.666 11.1143 10.666 11.6666V15.5C10.666 16.0522 11.1137 16.5 11.666 16.5H15.4993C16.0516 16.5 16.4993 16.0522 16.4993 15.5V11.6666C16.4993 11.1143 16.0516 10.6666 15.4993 10.6666Z" stroke="white" stroke-width="1.5" stroke-linecap="round" stroke-linejoin="round"/>
<path d="M6.33333 10.6666H2.5C1.94772 10.6666 1.5 11.1143 1.5 11.6666V15.5C1.5 16.0522 1.94772 16.5 2.5 16.5H6.33333C6.88562 16.5 7.33333 16.0522 7.33333 15.5V11.6666C7.33333 11.1143 6.88562 10.6666 6.33333 10.6666Z" stroke="white" stroke-width="1.5" stroke-linecap="round" stroke-linejoin="round"/>
</svg>
