<svg width="16" height="16" viewBox="0 0 16 16" fill="none" xmlns="http://www.w3.org/2000/svg">
<path d="M15 7.58336L15 7.58466C15.0027 8.6058 14.7641 9.61313 14.3037 10.5246L14.3027 10.5265C13.7563 11.6199 12.9162 12.5396 11.8766 13.1825C10.8369 13.8254 9.63884 14.1662 8.41647 14.1667L8.41536 14.1667C7.39422 14.1694 6.3869 13.9308 5.47543 13.4704C5.35643 13.4103 5.21836 13.4002 5.09189 13.4423L1.29057 14.7095L2.55767 10.9081C2.59983 10.7817 2.58974 10.6436 2.52963 10.5246C2.06925 9.61313 1.83067 8.6058 1.83333 7.58466L1.83333 7.58355C1.83381 6.36119 2.17459 5.16309 2.81752 4.12347C3.46044 3.08384 4.38012 2.24374 5.47353 1.69728L5.47353 1.69728L5.47543 1.69632C6.3869 1.23594 7.39422 0.99736 8.41536 1.00002H8.41667H8.8193C10.4284 1.09212 11.9475 1.77277 13.0874 2.91263C14.2273 4.05248 14.9079 5.57167 15 7.18073L15 7.58336Z" stroke="#D4D4D4" stroke-linecap="round" stroke-linejoin="round"/>
</svg>
