<svg width="22" height="22" viewBox="0 0 22 22" fill="none" xmlns="http://www.w3.org/2000/svg">
<path d="M19.3671 5.84172C18.9415 5.41589 18.4361 5.0781 17.8799 4.84763C17.3237 4.61716 16.7275 4.49854 16.1254 4.49854C15.5234 4.49854 14.9272 4.61716 14.371 4.84763C13.8147 5.0781 13.3094 5.41589 12.8838 5.84172L12.0004 6.72506L11.1171 5.84172C10.2573 4.98198 9.09129 4.49898 7.87542 4.49898C6.65956 4.49898 5.4935 4.98198 4.63376 5.84172C3.77401 6.70147 3.29102 7.86753 3.29102 9.08339C3.29102 10.2993 3.77401 11.4653 4.63376 12.3251L5.51709 13.2084L12.0004 19.6917L18.4838 13.2084L19.3671 12.3251C19.7929 11.8994 20.1307 11.3941 20.3612 10.8379C20.5917 10.2816 20.7103 9.68546 20.7103 9.08339C20.7103 8.48132 20.5917 7.88514 20.3612 7.32893C20.1307 6.77271 19.7929 6.26735 19.3671 5.84172V5.84172Z" fill="#F3F3F3"/>
<path d="M17.3671 3.84172C16.9415 3.41589 16.4361 3.0781 15.8799 2.84763C15.3237 2.61716 14.7275 2.49854 14.1254 2.49854C13.5234 2.49854 12.9272 2.61716 12.371 2.84763C11.8147 3.0781 11.3094 3.41589 10.8838 3.84172L10.0004 4.72506L9.11709 3.84172C8.25735 2.98198 7.09129 2.49898 5.87542 2.49898C4.65956 2.49898 3.4935 2.98198 2.63376 3.84172C1.77401 4.70147 1.29102 5.86753 1.29102 7.08339C1.29102 8.29925 1.77401 9.46531 2.63376 10.3251L3.51709 11.2084L10.0004 17.6917L16.4838 11.2084L17.3671 10.3251C17.7929 9.89943 18.1307 9.39407 18.3612 8.83785C18.5917 8.28164 18.7103 7.68546 18.7103 7.08339C18.7103 6.48132 18.5917 5.88514 18.3612 5.32893C18.1307 4.77271 17.7929 4.26735 17.3671 3.84172Z" stroke="#151D56" stroke-linecap="round" stroke-linejoin="round"/>
</svg>
