<svg width="36" height="32" viewBox="0 0 36 32" fill="none" xmlns="http://www.w3.org/2000/svg">
<path d="M31.9552 4.46096L31.9556 4.46133C32.705 5.21043 33.2996 6.09986 33.7052 7.0788C34.1108 8.05774 34.3196 9.10701 34.3196 10.1667C34.3196 11.2263 34.1108 12.2756 33.7052 13.2545C33.2996 14.2335 32.705 15.1229 31.9556 15.872L31.9554 15.8722L30.1887 17.6388L17.9999 29.8277L5.81102 17.6388L4.04436 15.8722C2.53116 14.359 1.68105 12.3066 1.68105 10.1667C1.68105 8.02667 2.53116 5.97434 4.04436 4.46114C5.55755 2.94795 7.60989 2.09784 9.74987 2.09784C11.8899 2.09784 13.9422 2.94794 15.4554 4.46114L17.2221 6.22781C17.6516 6.65739 18.3481 6.65739 18.7777 6.22781L20.5444 4.46114L20.5445 4.46096C21.2937 3.7115 22.1831 3.11697 23.162 2.71135C24.141 2.30572 25.1902 2.09695 26.2499 2.09695C27.3095 2.09695 28.3588 2.30572 29.3377 2.71135C30.3167 3.11697 31.2061 3.7115 31.9552 4.46096Z" stroke="#16C9E6" stroke-width="2.2" stroke-linecap="round" stroke-linejoin="round"/>
</svg>
