<svg width="100" height="40" viewBox="0 0 100 40" fill="none" xmlns="http://www.w3.org/2000/svg">
<path fill-rule="evenodd" clip-rule="evenodd" d="M40.5372 11.6376C41.0455 8.88058 42.144 6.76369 44.3366 5.41962C50.0675 1.90666 56.8064 6.87982 55.164 13.1094C54.2525 16.5664 52.4117 19.4851 50.1348 22.0737C48.1918 24.2829 46.2497 26.1403 45.8644 28.8869C45.2508 33.2596 49.4732 34.8416 50.6878 34.8416C51.1729 34.8416 50.5142 36.801 50.1348 36.8884C49.3078 37.0793 47.5584 36.9451 45.2305 36.2384C40.1573 34.6982 32.0424 30.4808 24.9444 21.6584C20.9427 16.6843 19.447 10.0669 20.7891 5.86805C21.8373 2.58786 24.8248 0 29.094 0C31.4642 0 34.1915 1.22942 36.3712 3.04273C38.5604 4.86421 40.1799 7.26363 40.4111 9.50012C40.4953 10.315 40.5302 11.0314 40.5372 11.6376ZM40.4899 17.7352C40.4475 17.6099 40.4017 17.4816 40.3544 17.36C39.8181 15.9795 38.9477 14.1306 38.9477 14.1306C38.8853 13.9981 38.8657 13.8508 38.8912 13.7074C38.8912 13.7074 39.1498 12.2138 38.8841 9.64423C38.686 7.72841 37.6049 5.86805 35.5296 3.97997C32.991 1.67068 26.7374 -0.0970663 23.9047 5.41962C21.8096 9.50012 23.3547 17.488 29.094 24.17C34.6198 30.6034 45.1832 34.5113 46.5533 34.5113C45.4591 33.035 44.1767 30.7678 44.6424 28.6066C45.3296 25.4182 47.3816 23.4737 49.4073 20.9898C50.3787 19.7988 52.5501 17.0388 53.3539 13.2181C54.435 8.08002 49.4772 5.41962 45.2332 6.98877C42.87 7.86262 41.5729 11.1666 41.8649 13.2181C42.2044 15.6027 43.3957 16.4634 43.3957 16.4634C43.5338 16.5795 43.6235 16.7392 43.6485 16.9136C43.6485 16.9136 43.8926 18.612 44.1561 19.8315L44.1623 19.8577C44.2613 19.6148 44.3099 19.3412 44.3366 19.0698C44.451 17.9082 44.0816 16.6862 44.0816 16.6862C44.0231 16.4921 44.0514 16.2834 44.1593 16.1098C44.1593 16.1098 44.9638 14.8202 45.2508 13.4873C45.4608 12.5121 45.106 11.5546 45.106 11.5546C44.9651 11.1733 46.4124 10.6855 46.5533 11.067C46.5533 11.067 47.049 12.4128 46.7539 13.7827C46.503 14.947 45.9179 16.084 45.6359 16.5877C45.7579 17.0988 45.9699 18.1729 45.8644 19.207C45.7825 20.0118 45.5497 20.589 45.2508 20.9898C44.4929 22.0076 43.308 21.8929 43.0718 21.4878C42.9485 21.2766 42.7895 20.7576 42.6533 20.1279C42.4431 19.1545 42.2442 17.8862 42.165 17.3593C42.0818 17.2761 41.979 17.1686 41.8649 17.0388C42.0944 17.6517 42.2435 18.1685 42.2569 18.4211C42.2918 19.0797 41.8478 19.2949 41.5254 19.3315C40.1561 19.4873 39.0336 18.7417 38.2175 17.722C37.4565 16.7714 36.9707 15.6032 36.7583 15.0218C35.9929 14.7429 34.244 14.0266 33.1933 12.9747C32.0738 11.854 31.3835 10.0669 31.3835 10.0669C31.2381 9.68707 32.6795 9.18416 32.8249 9.564C32.8249 9.564 33.3822 11.0405 34.3036 11.9629C35.4496 13.1101 37.6049 13.7567 37.6049 13.7567C37.8488 13.8315 38.0375 14.0172 38.108 14.2524C38.108 14.2524 38.5466 15.7198 39.4368 16.8318C39.7334 17.2028 40.0793 17.5465 40.4899 17.7352Z" fill="#131D5B"/>
<path d="M8.54662 26.6202C9.13643 26.8561 8.49983 28.8787 7.88132 28.7135C6.93555 28.4607 5.91608 28.2336 4.38793 28.3688C3.84218 28.4169 3.51473 28.4409 3.40558 28.4409C3.32698 28.4409 3.18946 28.4082 2.99297 28.3426C2.88818 28.3077 2.81179 28.347 2.76375 28.4607L2.77031 28.4476C2.27258 32.3812 2.12849 34.3352 2.12849 34.584C2.12849 35.1811 2.33334 36.457 2.33701 36.6536C2.35664 37.7102 -0.0950985 36.9703 0.00285924 36.3139C0.0486191 36.0071 0.172478 35.3262 0.229232 34.977C0.246689 34.8723 0.264171 34.7413 0.281628 34.584C0.307826 34.3265 0.392957 33.7523 0.537046 32.8616C0.70295 31.8444 0.785902 31.316 0.785902 31.2766L1.08062 28.9322C1.08062 28.0415 1.0959 27.4814 1.12648 27.2523C1.15703 27.023 1.26509 26.8353 1.45066 26.689C1.6362 26.5429 1.86215 26.4696 2.12849 26.4696C2.32059 26.4696 2.53235 26.5199 2.76375 26.6202C3.1436 26.7774 3.54528 26.8561 3.96878 26.8561L6.93555 26.6202C7.42457 26.581 8.14568 26.4599 8.54662 26.6202Z" fill="#131D5B"/>
<path d="M13.8339 34.4724C12.4848 35.5379 11.4456 36.0706 10.7165 36.0706C10.245 36.0706 9.87166 35.8829 9.59661 35.5072C9.32155 35.1318 9.184 34.6799 9.184 34.1515C9.184 33.4748 9.32155 32.6279 9.59661 31.6105C9.87166 30.5933 10.102 30.0059 10.2875 29.8489C10.4731 29.6917 10.7187 29.6129 11.0243 29.6129C11.2164 29.6129 11.3736 29.7003 11.4959 29.8749C11.6181 30.0497 11.6792 30.2528 11.6792 30.4841C11.6792 30.5497 11.5221 30.9186 11.2077 31.5909C10.8235 32.4118 10.6314 33.119 10.6314 33.7127C10.6314 33.9965 10.6783 34.228 10.7722 34.4071C10.866 34.5861 10.9632 34.6755 11.0636 34.6755C11.2732 34.6755 11.5199 34.6156 11.8037 34.4955C12.0875 34.3754 12.4335 34.155 12.8417 33.8341C13.2499 33.5132 13.5108 33.272 13.6243 33.1103C13.7378 32.9488 13.8306 32.7359 13.9027 32.4717C13.9747 32.2077 14.0304 31.6434 14.0697 30.7787C14.0915 30.2723 14.1166 29.9537 14.145 29.8227C14.1734 29.6917 14.2509 29.5716 14.3775 29.4624C14.5041 29.3532 14.6744 29.2987 14.8883 29.2987C15.1765 29.2987 15.3806 29.3599 15.5007 29.4822C15.6207 29.6043 15.6808 29.8925 15.6808 30.3466C15.6808 30.9622 15.5705 32.2743 15.35 34.2825C15.1295 36.2909 14.7279 37.7459 14.145 38.6475C13.5621 39.5491 12.7751 40 11.784 40C10.9021 40 9.99495 39.7707 9.33349 39.3079C8.67203 38.8449 8.34131 38.4888 8.18018 38.0579C8.08753 37.8101 9.48681 36.9781 9.59661 37.1839C10.0376 38.0109 10.7689 38.6639 11.6596 38.6639C12.7861 38.6639 13.5108 37.2668 13.8339 34.4724Z" fill="#131D5B"/>
<path d="M19.0468 36.7143C18.3265 36.7143 17.7786 36.5179 17.4031 36.125C17.0276 35.732 16.8398 35.1862 16.8398 34.4877C16.8398 33.3873 17.2874 32.1975 18.1824 30.9183C19.0775 29.6391 19.9551 28.9995 20.8151 28.9995C21.2298 28.9995 21.5837 29.2058 21.8761 29.6183C22.1686 30.0308 22.2825 30.4612 22.3149 30.9052C22.3392 31.2367 22.4006 31.466 22.2691 31.5222C21.9908 31.6411 21.47 31.7097 21.0731 31.6617C20.9131 31.6423 20.9131 31.4173 20.8938 31.0951C20.8678 30.665 20.7344 30.4533 20.5729 30.4533C20.2322 30.4533 19.7825 30.9381 19.2236 31.9073C18.6649 32.8765 18.3855 33.7258 18.3855 34.4548C18.3855 35.0444 18.7042 35.339 19.3418 35.339C20.0445 35.339 20.7542 35.0902 21.47 34.5925C21.8063 34.3523 22.0725 34.2322 22.2691 34.2322C22.5093 34.2322 22.6294 34.3523 22.6294 34.5925C22.6294 34.9287 22.2441 35.3663 21.4735 35.9056C20.7027 36.4446 19.8939 36.7143 19.0468 36.7143Z" fill="#131D5B"/>
<path d="M28.4997 33.9725C28.0804 34.7367 27.5946 35.3436 27.0424 35.7933C26.49 36.2429 25.9301 36.4678 25.3626 36.4678C25.0263 36.4678 24.6868 36.291 24.3441 35.9374C24.0014 35.5838 23.8301 35.04 23.8301 34.3066C23.8301 33.787 23.9611 33.0033 24.223 31.9554C24.4499 31.091 24.6851 30.4945 24.223 29.8794C23.7087 29.1952 25.8865 28.8176 26.1389 29.8794C26.2104 30.181 26.1047 30.9446 25.8865 31.5166C25.7598 31.8571 25.6233 32.3385 25.4772 32.9607C25.3309 33.583 25.2578 33.9814 25.2578 34.156C25.2578 34.7367 25.3777 35.0269 25.6179 35.0269C25.9977 35.0269 26.5108 34.6624 27.1571 33.9334C27.8031 33.2042 28.2246 32.4576 28.4209 31.6934C28.6175 30.9469 28.7921 30.4578 28.9449 30.2265C29.0977 29.995 29.3138 29.8794 29.5934 29.8794C30.0473 29.8794 30.2743 30.1327 30.2743 30.6391C30.2743 30.7134 30.2372 30.8617 30.1632 31.0845C29.9054 31.8571 29.7766 32.7282 29.7766 33.6974C29.7766 34.8327 29.9688 35.5117 30.3531 35.7343C30.4796 35.8086 30.5428 35.9002 30.5428 36.0094C30.5428 36.1667 30.4316 36.315 30.209 36.4546C29.9861 36.5945 29.7744 36.6644 29.5736 36.6644C29.2286 36.6644 28.9634 36.421 28.778 35.9341C28.5923 35.4473 28.4997 34.7934 28.4997 33.9725Z" fill="#131D5B"/>
<path d="M59.1871 30.3738C59.017 29.5487 58.8793 28.9898 58.7745 28.6972C58.7089 28.8239 58.6413 28.9658 58.5715 29.1231C58.257 29.804 56.6024 34.3124 54.6557 36.3008C54.1592 36.8081 53.0957 37.054 52.5422 36.8641C52.2406 36.7606 52.5422 35.4408 52.5422 35.1612C52.5422 34.6068 53.5221 34.6526 54.6557 33.2031C56.0176 31.4618 58.159 26.87 58.159 26.87C58.2942 26.6211 58.5017 26.4968 58.781 26.4968C58.9164 26.4968 59.0833 26.5305 59.2822 26.5983C59.4808 26.6659 59.6182 26.7335 59.6947 26.8014C59.7712 26.869 59.8606 27.0339 59.9631 27.2956C60.0659 27.5576 60.1803 27.9224 60.3071 28.3894C60.4031 28.7781 60.6072 29.4843 60.9194 30.5082C61.2317 31.5319 61.5808 32.5481 61.9673 33.5567C62.3536 34.5652 62.6035 35.1427 62.7171 35.289C62.8305 35.4353 62.9551 35.55 63.0903 35.6329C63.4221 35.8338 63.5882 36.0564 63.5882 36.3008C63.5882 36.4885 63.4986 36.6764 63.3196 36.8641C63.1405 37.0518 62.8394 37.1456 62.4158 37.1456C62.2806 37.1456 62.1592 37.1152 62.0523 37.054C61.9453 36.9929 61.7938 36.8663 61.5971 36.6742C61.4008 36.482 61.2522 36.3008 61.1519 36.1307C61.0514 35.9603 60.9117 35.6263 60.7327 35.1285L59.842 32.6333C59.6543 32.07 59.4359 31.317 59.1871 30.3738Z" fill="#131D5B"/>
<path d="M70.6847 34.9747C70.6847 35.5254 70.3705 35.7566 69.6033 36.114C68.7052 36.5324 68.0156 36.6545 67.0551 36.6545C66.3172 36.6545 65.7365 36.422 65.3131 35.9572C64.8894 35.4922 64.6777 34.8449 64.6777 34.0154C64.6777 32.7929 65.1101 31.6467 65.9745 30.577C66.8389 29.5073 67.7623 28.9724 68.7449 28.9724C69.2337 28.9724 69.6266 29.1274 69.9235 29.4374C70.2204 29.7475 70.369 30.1164 70.369 30.5443C70.369 31.304 70.0045 32.0278 69.2753 32.7154C68.546 33.403 67.6118 33.8777 66.4722 34.1397C66.3412 34.1704 66.2759 34.2489 66.2759 34.3754C66.2759 34.5852 66.3685 34.7847 66.5542 34.9747C66.7396 35.1646 66.9875 35.2597 67.2975 35.2597C68.1751 35.2597 69.046 34.8078 69.9104 33.904C70.0765 33.7294 70.6847 34.419 70.6847 34.9747ZM66.3937 32.9217C67.0836 32.782 67.6915 32.4871 68.2174 32.0374C68.7436 31.5878 69.0068 31.1794 69.0068 30.8127C69.0068 30.6688 68.9662 30.5475 68.8855 30.4492C68.8048 30.3511 68.701 30.3019 68.5745 30.3019C68.1946 30.3019 67.7732 30.5814 67.3104 31.1403C66.8476 31.6992 66.5421 32.293 66.3937 32.9217Z" fill="#131D5B"/>
<path d="M84.464 34.8387C84.464 35.3891 84.1498 35.6207 83.3829 35.978C82.4845 36.3964 81.7949 36.5185 80.8344 36.5185C80.0965 36.5185 79.5158 36.286 79.0924 35.821C78.6687 35.3562 78.457 34.7089 78.457 33.8792C78.457 32.6567 78.8894 31.5107 79.7538 30.441C80.6182 29.3713 81.5416 28.8364 82.5242 28.8364C83.0132 28.8364 83.4062 28.9914 83.7031 29.3015C84 29.6115 84.1483 29.9804 84.1483 30.4083C84.1483 31.168 83.7838 31.8915 83.0546 32.5792C82.3253 33.2668 81.3911 33.7417 80.2515 34.0037C80.1205 34.0342 80.0552 34.1129 80.0552 34.2394C80.0552 34.4489 80.1478 34.6488 80.3335 34.8387C80.5189 35.0286 80.7668 35.1237 81.0768 35.1237C81.9544 35.1237 82.8253 34.6718 83.6899 33.768C83.8559 33.5932 84.464 34.2828 84.464 34.8387ZM80.173 32.7854C80.8629 32.6458 81.4708 32.3511 81.997 31.9014C82.5229 31.4518 82.7861 31.0434 82.7861 30.6767C82.7861 30.5326 82.7458 30.4115 82.6648 30.3132C82.5841 30.2149 82.4803 30.1659 82.3538 30.1659C81.974 30.1659 81.5525 30.4452 81.09 31.0041C80.6272 31.5629 80.3213 32.1567 80.173 32.7854Z" fill="#131D5B"/>
<path d="M75.4622 29.1651C75.2265 28.8419 74.827 28.4381 74.2637 27.9535C73.7006 27.4775 73.4188 27.089 73.4188 26.7877C73.4188 26.5564 73.4723 26.3608 73.5793 26.2016C73.6863 26.0421 73.8076 25.9331 73.9428 25.874C74.0783 25.815 74.3794 25.7266 74.8466 25.6088C76.0255 25.325 77.6442 24.1572 78.5076 24.1572C78.8768 24.1572 79.5655 25.3403 79.0524 25.6088C78.5393 25.8774 76.5668 26.4123 75.3443 26.6961C75.1742 26.7223 75.089 26.7812 75.089 26.8729C75.089 26.9296 75.2636 27.0932 75.613 27.3641C76.9793 28.4249 77.6628 29.8745 77.6628 31.7126C77.6628 32.4242 77.4664 33.2005 77.0734 34.0409C76.6805 34.8813 76.1575 35.5036 75.5048 35.9075C74.8521 36.3113 74.2179 36.5131 73.6023 36.5131C73.0128 36.5131 72.5522 36.2457 72.2204 35.7108C71.8886 35.176 71.7227 34.555 71.7227 33.8478C71.7227 32.6993 72.0894 31.6199 72.8231 30.6092C73.5565 29.5984 74.3271 29.093 75.1348 29.093L75.4622 29.1651ZM73.3208 33.7888C73.3208 34.71 73.4627 35.1705 73.7464 35.1705C73.9866 35.1705 74.3118 35.0101 74.7223 34.6892C75.1326 34.3683 75.4644 33.9032 75.7177 33.2943C75.9708 32.6852 76.0976 32.1122 76.0976 31.5751C76.0976 31.1428 76.0614 30.8023 75.9894 30.5535C75.9173 30.3046 75.8509 30.18 75.7898 30.18C75.1217 30.18 74.5433 30.6079 74.0542 31.4637C73.5652 32.3195 73.3208 33.0945 73.3208 33.7888Z" fill="#131D5B"/>
<path d="M90.4095 28.9745C90.4095 28.97 90.4107 28.9646 90.4129 28.9581C90.4152 28.9514 90.4226 28.9395 90.4357 28.922C90.4533 28.8915 90.462 28.8544 90.462 28.8108C90.462 28.5357 90.3604 28.219 90.1574 27.8612C89.9543 27.5031 89.6728 27.2434 89.3125 27.0817C88.9525 26.9202 88.6194 26.8395 88.3139 26.8395C88.1653 26.8395 87.8946 26.9376 87.5017 27.1342C87.2137 27.2783 86.9975 27.3503 86.8534 27.3503C86.5261 27.3503 86.3621 27.2018 86.3621 26.9049C86.3621 26.7085 86.5194 26.4235 86.8339 26.0501C87.1481 25.6769 87.6916 25.4902 88.4644 25.4902C89.4294 25.4902 90.1945 25.7032 90.7601 26.1288C91.3254 26.5545 91.7139 27.1079 91.9256 27.7891C92.1376 28.4701 92.2433 29.3543 92.2433 30.4414C92.2433 31.1706 91.9868 32.1212 91.4737 33.2937C90.9609 34.4659 90.3092 35.3271 89.519 35.8773C88.7286 36.4273 87.9078 36.7024 87.0565 36.7024C86.6897 36.7024 86.348 36.5092 86.0316 36.1227C85.7149 35.7364 85.5566 35.2615 85.5566 34.6984C85.5566 33.7203 85.7783 32.8472 86.2215 32.0786C86.6645 31.3102 87.1612 30.6924 87.7114 30.2254C88.2614 29.7582 88.9775 29.4023 89.8595 29.1577C90.1084 29.0879 90.2916 29.0267 90.4095 28.9745ZM90.6714 30.3629C89.9117 30.5332 89.2875 30.817 88.7985 31.2142C88.4404 31.5418 88.0823 31.9937 87.7243 32.5699C87.3665 33.1463 87.1875 33.8622 87.1875 34.718C87.1875 34.8358 87.2179 34.9483 87.2791 35.0552C87.3402 35.1622 87.3947 35.2157 87.4427 35.2157C88.1762 35.2157 88.9 34.6885 89.6139 33.6341C90.3277 32.5798 90.6804 31.4893 90.6714 30.3629Z" fill="#131D5B"/>
<path d="M97.3666 33.9463C96.9476 34.7105 96.4618 35.3174 95.9096 35.767C95.3572 36.2167 94.7973 36.4416 94.2295 36.4416C93.8935 36.4416 93.554 36.2647 93.2113 35.9112C92.8686 35.5576 92.6973 35.0138 92.6973 34.2803C92.6973 33.7608 92.828 32.9771 93.09 31.9292C93.3171 31.0648 93.4307 30.4076 93.4307 29.9579C93.6053 29.5912 93.8782 29.4077 94.2493 29.4077C94.5024 29.4077 94.7045 29.4919 94.855 29.66C95.0058 29.8279 95.0811 29.9973 95.0811 30.1674C95.0811 30.4774 94.9719 30.9184 94.7535 31.4904C94.627 31.8309 94.4905 32.3123 94.3442 32.9345C94.1981 33.5568 94.1248 33.9552 94.1248 34.1298C94.1248 34.7105 94.2449 35.0007 94.4851 35.0007C94.8649 35.0007 95.378 34.6362 96.024 33.9072C96.6703 33.1779 97.0915 32.4314 97.2881 31.6672C97.4845 30.9207 97.6593 30.4316 97.8121 30.2003C97.9648 29.9688 98.181 29.8532 98.4603 29.8532C98.9145 29.8532 99.1415 30.1065 99.1415 30.6129C99.1415 30.6872 99.1044 30.8355 99.0301 31.0583C98.7726 31.8309 98.6438 32.702 98.6438 33.6712C98.6438 34.8065 98.7117 35.4268 99.1415 35.5387C100.296 35.8393 98.9771 36.8026 98.4603 36.6642C98.1273 36.575 97.8306 36.3948 97.6449 35.9079C97.4594 35.4211 97.3666 34.7672 97.3666 33.9463Z" fill="#131D5B"/>
</svg>
