<?xml version="1.0" encoding="UTF-8" standalone="no"?>
<svg
   xmlns:dc="http://purl.org/dc/elements/1.1/"
   xmlns:cc="http://creativecommons.org/ns#"
   xmlns:rdf="http://www.w3.org/1999/02/22-rdf-syntax-ns#"
   xmlns:svg="http://www.w3.org/2000/svg"
   xmlns="http://www.w3.org/2000/svg"
   xmlns:sodipodi="http://sodipodi.sourceforge.net/DTD/sodipodi-0.dtd"
   xmlns:inkscape="http://www.inkscape.org/namespaces/inkscape"
   width="22"
   height="22"
   viewBox="0 0 22 22"
   fill="none"
   version="1.1"
   id="svg831"
   sodipodi:docname="mob__home.svg"
   inkscape:version="0.92.4 (5da689c313, 2019-01-14)">
  <metadata
     id="metadata837">
    <rdf:RDF>
      <cc:Work
         rdf:about="">
        <dc:format>image/svg+xml</dc:format>
        <dc:type
           rdf:resource="http://purl.org/dc/dcmitype/StillImage" />
        <dc:title></dc:title>
      </cc:Work>
    </rdf:RDF>
  </metadata>
  <defs
     id="defs835" />
  <sodipodi:namedview
     pagecolor="#ffffff"
     bordercolor="#666666"
     borderopacity="1"
     objecttolerance="10"
     gridtolerance="10"
     guidetolerance="10"
     inkscape:pageopacity="0"
     inkscape:pageshadow="2"
     inkscape:window-width="1920"
     inkscape:window-height="1020"
     id="namedview833"
     showgrid="false"
     inkscape:zoom="38.772727"
     inkscape:cx="11"
     inkscape:cy="11"
     inkscape:window-x="-8"
     inkscape:window-y="-8"
     inkscape:window-maximized="1"
     inkscape:current-layer="svg831" />
  <path
     d="M11.3861 4.14426L5.27212 8.89954C4.78495 9.27846 4.5 9.86107 4.5 10.4783V18.6667C4.5 19.1088 4.67559 19.5327 4.98816 19.8453C5.30072 20.1578 5.72464 20.3334 6.16667 20.3334H9.5V14.5001C9.5 13.1194 10.6193 12.0001 12 12.0001C13.3807 12.0001 14.5 13.1194 14.5 14.5001V20.3334H17.8333C18.2754 20.3334 18.6993 20.1578 19.0118 19.8453C19.3244 19.5327 19.5 19.1088 19.5 18.6667V10.4782C19.5 9.86107 19.2151 9.27846 18.7279 8.89954L12.6139 4.14426C12.2528 3.86339 11.7472 3.86339 11.3861 4.14426Z"
     fill="#F3F3F3"
     id="path827"
     style="stroke:#f3f3f3;stroke-opacity:0.94859815" />
  <path
     d="M9.38606 2.14426L3.27212 6.89954C2.78495 7.27846 2.5 7.86107 2.5 8.47825V16.6667C2.5 17.1088 2.67559 17.5327 2.98816 17.8453C3.30072 18.1578 3.72464 18.3334 4.16667 18.3334H7.5V12.5001C7.5 11.1194 8.61929 10.0001 10 10.0001C11.3807 10.0001 12.5 11.1194 12.5 12.5001V18.3334H15.8333C16.2754 18.3334 16.6993 18.1578 17.0118 17.8453C17.3244 17.5327 17.5 17.1088 17.5 16.6667V8.47825C17.5 7.86107 17.2151 7.27846 16.7279 6.89954L10.6139 2.14426C10.2528 1.86339 9.74717 1.86339 9.38606 2.14426Z"
     stroke="#E8E8E8"
     stroke-linecap="round"
     stroke-linejoin="round"
     id="path829"
     style="fill:none;fill-opacity:1;stroke:#151d56;stroke-opacity:0.9813084" />
</svg>
