<svg width="22" height="22" viewBox="0 0 22 22" fill="none" xmlns="http://www.w3.org/2000/svg">
<g clip-path="url(#clip0)">
<path fill-rule="evenodd" clip-rule="evenodd" d="M19.5001 14.6841C18.4729 15.5075 17.169 16.0001 15.7501 16.0001C15.0176 16.0001 14.3157 15.8688 13.6667 15.6285V18.5C13.6667 19.0523 14.1145 19.5 14.6667 19.5H18.5001C19.0524 19.5 19.5001 19.0523 19.5001 18.5V14.6841Z" fill="#F3F3F3"/>
<path d="M9.33333 13.6667H5.5C4.94772 13.6667 4.5 14.1145 4.5 14.6667V18.5001C4.5 19.0524 4.94772 19.5001 5.5 19.5001H9.33333C9.88562 19.5001 10.3333 19.0524 10.3333 18.5001V14.6667C10.3333 14.1145 9.88562 13.6667 9.33333 13.6667Z" fill="#F3F3F3"/>
<path fill-rule="evenodd" clip-rule="evenodd" d="M7.75 8.25C7.75 8.97415 7.85617 9.6735 8.05379 10.3333H5.5C4.94772 10.3333 4.5 9.88562 4.5 9.33333V5.5C4.5 4.94772 4.94772 4.5 5.5 4.5H8.79391C8.13137 5.59413 7.75 6.87753 7.75 8.25Z" fill="#F3F3F3"/>
<g clip-path="url(#clip1)">
<path d="M15.4167 13.0833C17.994 13.0833 20.0833 10.994 20.0833 8.41667C20.0833 5.83934 17.994 3.75 15.4167 3.75C12.8393 3.75 10.75 5.83934 10.75 8.41667C10.75 10.994 12.8393 13.0833 15.4167 13.0833Z" fill="#F3F3F3"/>
<path d="M23.6667 16.6667L19 12" stroke="#F3F3F3" stroke-linecap="round" stroke-linejoin="round"/>
</g>
</g>
<g clip-path="url(#clip2)">
<path fill-rule="evenodd" clip-rule="evenodd" d="M16.5001 13.3342V16.5H12.6667V13.9025C12.3222 13.8397 11.988 13.7475 11.6667 13.6285V16.5C11.6667 17.0523 12.1145 17.5 12.6667 17.5H16.5001C17.0524 17.5 17.5001 17.0523 17.5001 16.5V12.6841C17.1904 12.9323 16.8556 13.1505 16.5001 13.3342Z" fill="#151D56"/>
<path d="M3.5 12.1667H7.33333C7.60948 12.1667 7.83333 12.3906 7.83333 12.6667V16.5001C7.83333 16.7762 7.60948 17.0001 7.33333 17.0001H3.5C3.22386 17.0001 3 16.7762 3 16.5001V12.6667C3 12.3906 3.22386 12.1667 3.5 12.1667Z" stroke="#151D56" stroke-linecap="round" stroke-linejoin="round"/>
<path fill-rule="evenodd" clip-rule="evenodd" d="M8.33333 7.14048V5.35952C8.27863 5.64796 8.25 5.94564 8.25 6.25C8.25 6.55436 8.27863 6.85204 8.33333 7.14048ZM6.05379 8.33333C5.95664 8.00897 5.88159 7.67505 5.83039 7.33333L3.5 7.33333V3.5L3.5 3.5L6.28973 3.5C6.43238 3.15231 6.60126 2.81815 6.79391 2.5H3.5C2.94772 2.5 2.5 2.94772 2.5 3.5V7.33333C2.5 7.88562 2.94772 8.33333 3.5 8.33333H6.05379Z" fill="#151D56"/>
<g clip-path="url(#clip3)">
<path d="M13.4167 11.0833C15.994 11.0833 18.0833 8.994 18.0833 6.41667C18.0833 3.83934 15.994 1.75 13.4167 1.75C10.8393 1.75 8.75 3.83934 8.75 6.41667C8.75 8.994 10.8393 11.0833 13.4167 11.0833Z" stroke="#151D56" stroke-linecap="round" stroke-linejoin="round"/>
<path d="M21.6667 14.6667L17 10" stroke="#151D56" stroke-linecap="round" stroke-linejoin="round"/>
</g>
</g>
<defs>
<clipPath id="clip0">
<rect width="20" height="20" fill="white" transform="translate(2 2)"/>
</clipPath>
<clipPath id="clip1">
<rect width="14" height="14" fill="white" transform="translate(9 2)"/>
</clipPath>
<clipPath id="clip2">
<rect width="20" height="20" fill="white"/>
</clipPath>
<clipPath id="clip3">
<rect width="14" height="14" fill="white" transform="translate(7)"/>
</clipPath>
</defs>
</svg>
