<svg width="22" height="22" viewBox="0 0 22 22" fill="none" xmlns="http://www.w3.org/2000/svg">
<path d="M9.75 19.8335C10.4404 19.8335 11 19.2739 11 18.5835C11 17.8931 10.4404 17.3335 9.75 17.3335C9.05964 17.3335 8.5 17.8931 8.5 18.5835C8.5 19.2739 9.05964 19.8335 9.75 19.8335Z" fill="#F3F3F3" stroke="#F3F3F3" stroke-linecap="round" stroke-linejoin="round"/>
<path d="M18.4167 19.8333C19.1071 19.8333 19.6667 19.2736 19.6667 18.5833C19.6667 17.8929 19.1071 17.3333 18.4167 17.3333C17.7264 17.3333 17.1667 17.8929 17.1667 18.5833C17.1667 19.2736 17.7264 19.8333 18.4167 19.8333Z" fill="#F3F3F3" stroke="#F3F3F3" stroke-linecap="round" stroke-linejoin="round"/>
<path d="M8.82287 15.132C8.51818 14.8867 8.30946 14.5421 8.23325 14.1584L6.83325 7.16675H20.9999L20.3333 12.6667C15.3333 14.6667 13.3333 15.5001 11.9999 15.5001H9.89992C9.50883 15.5076 9.12757 15.3773 8.82287 15.132Z" fill="#F3F3F3" stroke="#F3F3F3" stroke-linecap="round" stroke-linejoin="round"/>
<path d="M3 5H6.33333L6.83333 7.16667" stroke="#F3F3F3" stroke-linecap="round" stroke-linejoin="round"/>
<path d="M7.75 17.8335C8.44036 17.8335 9 17.2739 9 16.5835C9 15.8931 8.44036 15.3335 7.75 15.3335C7.05964 15.3335 6.5 15.8931 6.5 16.5835C6.5 17.2739 7.05964 17.8335 7.75 17.8335Z" stroke="#151D56" stroke-linecap="round" stroke-linejoin="round"/>
<path d="M16.4167 17.8333C17.1071 17.8333 17.6667 17.2736 17.6667 16.5833C17.6667 15.8929 17.1071 15.3333 16.4167 15.3333C15.7264 15.3333 15.1667 15.8929 15.1667 16.5833C15.1667 17.2736 15.7264 17.8333 16.4167 17.8333Z" stroke="#151D56" stroke-linecap="round" stroke-linejoin="round"/>
<path d="M6.82287 13.132C6.51818 12.8867 6.30946 12.5421 6.23325 12.1584L4.83325 5.16675H18.9999L18.3333 10.6667C13.3333 12.6667 11.3333 13.5001 9.99992 13.5001H7.89992C7.50883 13.5076 7.12757 13.3773 6.82287 13.132Z" stroke="#151D56" stroke-linecap="round" stroke-linejoin="round"/>
<path d="M0.999995 3H4.33333L4.83333 5.16667" stroke="#151D56" stroke-linecap="round" stroke-linejoin="round"/>
</svg>
