<svg width="22" height="22" viewBox="0 0 22 22" fill="none" xmlns="http://www.w3.org/2000/svg">
<path d="M12.0003 20.3333C16.6027 20.3333 20.3337 16.6023 20.3337 12C20.3337 7.39759 16.6027 3.66663 12.0003 3.66663C7.39795 3.66663 3.66699 7.39759 3.66699 12C3.66699 16.6023 7.39795 20.3333 12.0003 20.3333Z" fill="#F3F3F3"/>
<path d="M12 15.3333V12" stroke="white" stroke-linecap="round" stroke-linejoin="round"/>
<path d="M12 8.66663H12.0083" stroke="white" stroke-linecap="round" stroke-linejoin="round"/>
<path d="M10.0003 18.3333C14.6027 18.3333 18.3337 14.6023 18.3337 9.99996C18.3337 5.39759 14.6027 1.66663 10.0003 1.66663C5.39795 1.66663 1.66699 5.39759 1.66699 9.99996C1.66699 14.6023 5.39795 18.3333 10.0003 18.3333Z" stroke="#151D56" stroke-linecap="round" stroke-linejoin="round"/>
<path d="M10 13.3333V10" stroke="#151D56" stroke-linecap="round" stroke-linejoin="round"/>
<path d="M10 6.66663H10.0083" stroke="#151D56" stroke-linecap="round" stroke-linejoin="round"/>
</svg>
