<svg width="24" height="24" viewBox="0 0 24 24" fill="none" xmlns="http://www.w3.org/2000/svg">
<path d="M20.3334 21.25V19.4167C20.3334 18.4442 19.947 17.5116 19.2594 16.8239C18.5718 16.1363 17.6391 15.75 16.6667 15.75H9.33335C8.36089 15.75 7.42826 16.1363 6.74063 16.8239C6.053 17.5116 5.66669 18.4442 5.66669 19.4167V21.25" fill="#F3F3F3"/>
<path d="M20.3334 21.25V19.4167C20.3334 18.4442 19.947 17.5116 19.2594 16.8239C18.5718 16.1363 17.6391 15.75 16.6667 15.75H9.33335C8.36089 15.75 7.42826 16.1363 6.74063 16.8239C6.053 17.5116 5.66669 18.4442 5.66669 19.4167V21.25H20.3334Z" stroke="#F3F3F3" stroke-width="1.8" stroke-linecap="round" stroke-linejoin="round"/>
<path d="M13 12.0833C15.025 12.0833 16.6666 10.4417 16.6666 8.41667C16.6666 6.39162 15.025 4.75 13 4.75C10.9749 4.75 9.33331 6.39162 9.33331 8.41667C9.33331 10.4417 10.9749 12.0833 13 12.0833Z" fill="#F3F3F3" stroke="#F3F3F3" stroke-width="1.8" stroke-linecap="round" stroke-linejoin="round"/>
<path d="M18.3334 19.25V17.4167C18.3334 16.4442 17.947 15.5116 17.2594 14.8239C16.5718 14.1363 15.6391 13.75 14.6667 13.75H7.33335C6.36089 13.75 5.42826 14.1363 4.74063 14.8239C4.053 15.5116 3.66669 16.4442 3.66669 17.4167V19.25" stroke="#151D56" stroke-width="1.8" stroke-linecap="round" stroke-linejoin="round"/>
<path d="M11 10.0833C13.025 10.0833 14.6666 8.44171 14.6666 6.41667C14.6666 4.39162 13.025 2.75 11 2.75C8.97494 2.75 7.33331 4.39162 7.33331 6.41667C7.33331 8.44171 8.97494 10.0833 11 10.0833Z" stroke="#151D56" stroke-width="1.8" stroke-linecap="round" stroke-linejoin="round"/>
</svg>
