<svg width="24" height="24" viewBox="0 0 24 24" fill="none" xmlns="http://www.w3.org/2000/svg">
<path d="M12.9997 22.1666C18.0623 22.1666 22.1663 18.0626 22.1663 13C22.1663 7.93737 18.0623 3.83331 12.9997 3.83331C7.93706 3.83331 3.83301 7.93737 3.83301 13C3.83301 18.0626 7.93706 22.1666 12.9997 22.1666Z" fill="#F3F3F3" stroke="#F3F3F3" stroke-width="1.8" stroke-linecap="round" stroke-linejoin="round"/>
<path d="M10.332 10.25C10.5475 9.63733 10.9729 9.12074 11.5328 8.79168C12.0927 8.46262 12.751 8.34233 13.3911 8.45213C14.0312 8.56192 14.6118 8.8947 15.03 9.39154C15.4483 9.88838 15.6772 10.5172 15.6762 11.1666C15.6762 13 12.9262 13.9166 12.9262 13.9166" stroke="white" stroke-width="1.8" stroke-linecap="round" stroke-linejoin="round"/>
<path d="M13 17.5833H13.01" stroke="white" stroke-width="1.8" stroke-linecap="round" stroke-linejoin="round"/>
<path d="M10.9997 20.1666C16.0623 20.1666 20.1663 16.0626 20.1663 11C20.1663 5.93737 16.0623 1.83331 10.9997 1.83331C5.93706 1.83331 1.83301 5.93737 1.83301 11C1.83301 16.0626 5.93706 20.1666 10.9997 20.1666Z" stroke="#151D56" stroke-linecap="round" stroke-linejoin="round"/>
<path d="M8.33203 8.24997C8.54754 7.63733 8.97292 7.12074 9.53282 6.79168C10.0927 6.46262 10.751 6.34233 11.3911 6.45213C12.0312 6.56192 12.6118 6.8947 13.03 7.39154C13.4483 7.88838 13.6772 8.5172 13.6762 9.16664C13.6762 11 10.9262 11.9166 10.9262 11.9166" stroke="#151D56" stroke-linecap="round" stroke-linejoin="round"/>
<path d="M11 15.5833H11.01" stroke="#151D56" stroke-linecap="round" stroke-linejoin="round"/>
</svg>
