<svg width="83" height="83" viewBox="0 0 83 83" fill="none" xmlns="http://www.w3.org/2000/svg">
<circle cx="49" cy="49" r="34" fill="#D6F9FF" fill-opacity="0.5"/>
<path d="M33.4636 40.0635C34.0033 39.5239 34.0033 38.6515 33.4636 38.1119C29.3587 34.0069 22.6796 34.0083 18.5747 38.1119C18.035 38.6515 18.035 39.5239 18.5747 40.0635C19.1144 40.6032 19.9867 40.6032 20.5264 40.0635C23.5561 37.0352 28.4836 37.0352 31.5105 40.0635C31.7797 40.3327 32.133 40.468 32.4863 40.468C32.8397 40.468 33.193 40.3327 33.4636 40.0635Z" fill="#151D56"/>
<path d="M53.6337 35.0269C50.8221 35.0269 48.1789 36.1228 46.1899 38.1117C45.6502 38.6514 45.6502 39.5251 46.1899 40.0634C46.7296 40.6031 47.6033 40.6031 48.1416 40.0634C49.6088 38.5962 51.5591 37.7874 53.6337 37.7874C55.7082 37.7874 57.6585 38.5962 59.1257 40.0634C59.3949 40.3326 59.7482 40.4678 60.1016 40.4678C60.4549 40.4678 60.8083 40.3326 61.0774 40.0634C61.6171 39.5237 61.6171 38.6514 61.0774 38.1117C59.0885 36.1228 56.4453 35.0269 53.6337 35.0269Z" fill="#151D56"/>
<path d="M45.214 59.8288C42.2436 62.7977 37.4086 62.7991 34.4369 59.8288C33.8972 59.2905 33.0235 59.2905 32.4838 59.8288C31.9455 60.3685 31.9455 61.2422 32.4838 61.7819C34.5086 63.804 37.167 64.8157 39.8254 64.8157C42.4838 64.8157 45.1422 63.804 47.1643 61.7805C47.704 61.2408 47.704 60.3685 47.1643 59.8288C46.6246 59.2891 45.7536 59.2905 45.214 59.8288Z" fill="#151D56"/>
<path d="M80 45.3899C80 41.187 77.0186 37.724 73.2188 37.3264C70.352 24.3202 60.0373 14.0814 46.9883 11.332V8.1684C46.9883 7.4065 46.3699 6.78814 45.608 6.78814C44.8461 6.78814 44.2277 7.4065 44.2277 8.1684V10.8751C43.3181 10.7605 42.3975 10.6763 41.4672 10.6363V2.64735C41.4672 1.88545 40.8489 1.26709 40.087 1.26709C39.3251 1.26709 38.7067 1.88545 38.7067 2.64735V10.6294C37.7764 10.6625 36.8558 10.7343 35.9462 10.842V8.1684C35.9462 7.4065 35.3278 6.78814 34.5659 6.78814C33.804 6.78814 33.1856 7.4065 33.1856 8.1684V11.2754C20.0097 13.9434 9.5735 24.2402 6.69013 37.3375C2.93444 37.7805 0 41.2202 0 45.3899C0 49.6894 3.12215 53.2077 7.04762 53.4686C10.9386 68 24.2153 78.7343 39.9558 78.7343C55.695 78.7343 68.9689 68.0028 72.8627 53.4741C76.8309 53.2616 80 49.7226 80 45.3899ZM2.76052 45.3899C2.76052 42.9676 4.21118 40.94 6.17943 40.2885C5.99448 41.7226 5.8882 43.1829 5.8882 44.6667C5.8882 46.6832 6.07453 48.6556 6.41132 50.5756C4.32298 50.0124 2.76052 47.9089 2.76052 45.3899ZM39.9572 75.9738C22.6943 75.9738 8.64872 61.9296 8.64872 44.6653C8.64872 29.7281 19.1677 17.2077 33.1856 14.1035V19.2105C33.1856 19.9724 33.804 20.5908 34.5659 20.5908C35.3278 20.5908 35.9462 19.9724 35.9462 19.2105V13.6232C36.8558 13.5059 37.775 13.4258 38.7067 13.3899V19.2105C38.7067 19.9724 39.3251 20.5908 40.087 20.5908C40.8489 20.5908 41.4672 19.9724 41.4672 19.2105V13.3968C42.3989 13.441 43.3181 13.5335 44.2277 13.6577V19.2105C44.2277 19.9724 44.8461 20.5908 45.608 20.5908C46.3699 20.5908 46.9883 19.9724 46.9883 19.2105V14.1643C60.8751 17.3651 71.2629 29.8206 71.2629 44.6653C71.2629 61.9282 57.2201 75.9738 39.9572 75.9738ZM73.4948 50.6073C73.8358 48.6763 74.0248 46.6929 74.0248 44.6653C74.0248 43.1705 73.9172 41.7005 73.7295 40.2554C75.746 40.8737 77.2409 42.9289 77.2409 45.3899C77.2395 47.9476 75.6315 50.087 73.4948 50.6073Z" fill="#151D56"/>
</svg>
