<?xml version="1.0" encoding="UTF-8" standalone="no"?>
<!-- Generator: Adobe Illustrator 17.1.0, SVG Export Plug-In . SVG Version: 6.00 Build 0)  -->

<svg
   xmlns:dc="http://purl.org/dc/elements/1.1/"
   xmlns:cc="http://creativecommons.org/ns#"
   xmlns:rdf="http://www.w3.org/1999/02/22-rdf-syntax-ns#"
   xmlns:svg="http://www.w3.org/2000/svg"
   xmlns="http://www.w3.org/2000/svg"
   xmlns:sodipodi="http://sodipodi.sourceforge.net/DTD/sodipodi-0.dtd"
   xmlns:inkscape="http://www.inkscape.org/namespaces/inkscape"
   version="1.1"
   id="Capa_1"
   x="0px"
   y="0px"
   viewBox="0 0 288.136 288.136"
   style="enable-background:new 0 0 288.136 288.136;"
   xml:space="preserve"
   sodipodi:docname="search-icon.svg"
   inkscape:version="0.92.4 (5da689c313, 2019-01-14)"><metadata
   id="metadata4594"><rdf:RDF><cc:Work
       rdf:about=""><dc:format>image/svg+xml</dc:format><dc:type
         rdf:resource="http://purl.org/dc/dcmitype/StillImage" /><dc:title></dc:title></cc:Work></rdf:RDF></metadata><defs
   id="defs4592" /><sodipodi:namedview
   pagecolor="#ffffff"
   bordercolor="#666666"
   borderopacity="1"
   objecttolerance="10"
   gridtolerance="10"
   guidetolerance="10"
   inkscape:pageopacity="0"
   inkscape:pageshadow="2"
   inkscape:window-width="1920"
   inkscape:window-height="1020"
   id="namedview4590"
   showgrid="false"
   inkscape:zoom="2.9604077"
   inkscape:cx="144.06799"
   inkscape:cy="144.06799"
   inkscape:window-x="-8"
   inkscape:window-y="-8"
   inkscape:window-maximized="1"
   inkscape:current-layer="Capa_1" />
<path
   d="M253.094,35.437c-22.634-22.634-52.727-35.099-84.735-35.099s-62.102,12.465-84.735,35.099  c-38.632,38.632-45.319,97.294-20.067,142.865L9.496,232.364c-12.661,12.661-12.661,33.262,0,45.923  c6.133,6.134,14.287,9.511,22.961,9.511s16.828-3.377,22.961-9.511l53.821-53.821c17.824,10.141,38.057,15.539,59.12,15.539  c32.009,0,62.102-12.464,84.735-35.098C299.817,158.183,299.817,82.16,253.094,35.437z M231.882,183.694  c-16.968,16.967-39.527,26.311-63.522,26.311s-46.555-9.344-63.522-26.311c-35.025-35.026-35.025-92.019,0-127.044  c16.968-16.968,39.527-26.312,63.522-26.312s46.555,9.344,63.522,26.312C266.907,91.676,266.907,148.668,231.882,183.694z"
   id="path4557"
   style="fill:#ffffff;fill-opacity:1" />
<g
   id="g4559">
</g>
<g
   id="g4561">
</g>
<g
   id="g4563">
</g>
<g
   id="g4565">
</g>
<g
   id="g4567">
</g>
<g
   id="g4569">
</g>
<g
   id="g4571">
</g>
<g
   id="g4573">
</g>
<g
   id="g4575">
</g>
<g
   id="g4577">
</g>
<g
   id="g4579">
</g>
<g
   id="g4581">
</g>
<g
   id="g4583">
</g>
<g
   id="g4585">
</g>
<g
   id="g4587">
</g>
</svg>