<svg width="33" height="17" viewBox="0 0 33 17" fill="none" xmlns="http://www.w3.org/2000/svg">
<path d="M1.03194 2.06248H31.9698C32.5391 2.06248 33.0011 1.60043 33.0011 1.03124C33.0011 0.461957 32.539 0 31.9698 0H1.03194C0.462658 0 0.000701904 0.462043 0.000701904 1.03124C0.000701904 1.60043 0.462744 2.06248 1.03194 2.06248Z" fill="#CF2D21"/>
<path d="M31.9691 7.21875H1.03124C0.461956 7.21875 0 7.68079 0 8.24999C0 8.81918 0.462042 9.28122 1.03124 9.28122H31.9691C32.5384 9.28122 33.0004 8.81918 33.0004 8.24999C33.0004 7.68079 32.5384 7.21875 31.9691 7.21875Z" fill="#CF2D21"/>
<path d="M31.9691 14.4375H11.3439C10.7746 14.4375 10.3126 14.8995 10.3126 15.4687C10.3126 16.038 10.7747 16.5 11.3439 16.5H31.9691C32.5384 16.5 33.0004 16.0379 33.0004 15.4687C33.0005 14.8995 32.5384 14.4375 31.9691 14.4375Z" fill="#CF2D21"/>
</svg>
