<svg width="20" height="20" viewBox="0 0 20 20" fill="none" xmlns="http://www.w3.org/2000/svg">
<g clip-path="url(#clip0)">
<path d="M10.9701 0H17.6033C18.8714 0 19.8994 1.03316 19.8994 2.3077V8.97437C19.8994 9.11598 19.7852 9.23078 19.6443 9.23078H10.9701C10.8292 9.23078 10.715 9.11598 10.715 8.97437V0.256406C10.715 0.114805 10.8293 0 10.9701 0ZM13.7464 5.64102H14.5419V6.44047C14.5419 6.86527 14.8845 7.20969 15.3072 7.20969C15.7299 7.20969 16.0726 6.86527 16.0726 6.44047V5.64102H16.868C17.2907 5.64102 17.6334 5.2966 17.6334 4.8718C17.6334 4.44699 17.2907 4.10258 16.868 4.10258H16.0726V3.30312C16.0726 2.87832 15.7299 2.53391 15.3072 2.53391C14.8845 2.53391 14.5419 2.87832 14.5419 3.30312V4.10258H13.7464C13.3238 4.10258 12.9811 4.44699 12.9811 4.8718C12.9811 5.2966 13.3238 5.64102 13.7464 5.64102Z" fill="white"/>
<path d="M2.29603 0H8.92921C9.0701 0 9.18433 0.114805 9.18433 0.256406V8.97437C9.18433 9.11598 9.0701 9.23078 8.92921 9.23078H0.25505C0.11416 9.23078 -6.86646e-05 9.11598 -6.86646e-05 8.97437V2.3077C-6.86646e-05 1.03316 1.0279 0 2.29603 0ZM3.03686 5.64102H6.15844C6.58111 5.64102 6.92379 5.2966 6.92379 4.8718C6.92379 4.44699 6.58115 4.10258 6.15844 4.10258H3.03686C2.61419 4.10258 2.27151 4.44699 2.27151 4.8718C2.27151 5.2966 2.61415 5.64102 3.03686 5.64102Z" fill="white"/>
<path d="M10.9701 10.7692H19.6443C19.7852 10.7692 19.8994 10.884 19.8994 11.0256V17.6923C19.8994 18.9668 18.8714 19.9999 17.6033 19.9999H10.9701C10.8292 19.9999 10.715 19.8851 10.715 19.7435V11.0256C10.715 10.884 10.8293 10.7692 10.9701 10.7692ZM13.6624 16.7813C13.9612 17.0816 14.4458 17.0818 14.7448 16.7813L15.3072 16.216L15.8696 16.7813C16.1686 17.0817 16.6531 17.0817 16.952 16.7813C17.2509 16.481 17.2509 15.9939 16.952 15.6935L16.3896 15.1281L16.952 14.5628C17.2509 14.2625 17.2509 13.7754 16.952 13.475C16.6532 13.1746 16.1686 13.1746 15.8696 13.475L15.3072 14.0402L14.7448 13.4749C14.4459 13.1746 13.9613 13.1746 13.6624 13.4749C13.3635 13.7753 13.3635 14.2624 13.6624 14.5628L14.2248 15.1281L13.6624 15.6934C13.3635 15.9939 13.3635 16.4809 13.6624 16.7813Z" fill="white"/>
<path d="M0.25505 10.7692H8.92921C9.0701 10.7692 9.18433 10.884 9.18433 11.0256V19.7435C9.18433 19.8851 9.0701 19.9999 8.92921 19.9999H2.29603C1.0279 19.9999 -6.86646e-05 18.9668 -6.86646e-05 17.6923V11.0256C-6.86646e-05 10.884 0.11416 10.7692 0.25505 10.7692ZM3.0369 17.0066H6.15847C6.58114 17.0066 6.92383 16.6622 6.92383 16.2374C6.92383 15.8126 6.58114 15.4682 6.15847 15.4682H3.0369C2.61423 15.4682 2.27154 15.8126 2.27154 16.2374C2.27154 16.6622 2.61423 17.0066 3.0369 17.0066ZM3.0369 14.7881H6.15847C6.58114 14.7881 6.92383 14.4437 6.92383 14.0189C6.92383 13.5941 6.58114 13.2497 6.15847 13.2497H3.0369C2.61423 13.2497 2.27154 13.5941 2.27154 14.0189C2.27154 14.4437 2.61423 14.7881 3.0369 14.7881Z" fill="white"/>
</g>
<defs>
<clipPath id="clip0">
<rect width="19.8995" height="20" fill="white" transform="matrix(-1 0 0 1 19.8994 0)"/>
</clipPath>
</defs>
</svg>
