<svg width="20" height="20" viewBox="0 0 20 20" fill="none" xmlns="http://www.w3.org/2000/svg">
<g clip-path="url(#clip0)">
<path d="M10.9701 0H17.6033C18.8714 0 19.8994 1.03316 19.8994 2.3077V8.97437C19.8994 9.11598 19.7852 9.23078 19.6443 9.23078H10.9701C10.8292 9.23078 10.715 9.11598 10.715 8.97437V0.256406C10.715 0.114805 10.8293 0 10.9701 0ZM13.7464 5.64102H14.5419V6.44047C14.5419 6.86527 14.8845 7.20969 15.3072 7.20969C15.7299 7.20969 16.0726 6.86527 16.0726 6.44047V5.64102H16.868C17.2907 5.64102 17.6334 5.2966 17.6334 4.8718C17.6334 4.44699 17.2907 4.10258 16.868 4.10258H16.0726V3.30312C16.0726 2.87832 15.7299 2.53391 15.3072 2.53391C14.8845 2.53391 14.5419 2.87832 14.5419 3.30312V4.10258H13.7464C13.3238 4.10258 12.9811 4.44699 12.9811 4.8718C12.9811 5.2966 13.3238 5.64102 13.7464 5.64102Z" fill="#CF2D21"/>
<path d="M2.29627 0H8.92945C9.07034 0 9.18457 0.114805 9.18457 0.256406V8.97437C9.18457 9.11598 9.07034 9.23078 8.92945 9.23078H0.255294C0.114404 9.23078 0.000175476 9.11598 0.000175476 8.97437V2.3077C0.000175476 1.03316 1.02815 0 2.29627 0ZM3.0371 5.64102H6.15868C6.58135 5.64102 6.92403 5.2966 6.92403 4.8718C6.92403 4.44699 6.58139 4.10258 6.15868 4.10258H3.0371C2.61443 4.10258 2.27175 4.44699 2.27175 4.8718C2.27175 5.2966 2.61439 5.64102 3.0371 5.64102Z" fill="#CF2D21"/>
<path d="M10.9701 10.7692H19.6443C19.7852 10.7692 19.8994 10.884 19.8994 11.0256V17.6923C19.8994 18.9668 18.8714 20 17.6033 20H10.9701C10.8292 20 10.715 19.8852 10.715 19.7436V11.0256C10.715 10.8841 10.8293 10.7692 10.9701 10.7692ZM13.6624 16.7813C13.9612 17.0817 14.4458 17.0818 14.7448 16.7813L15.3072 16.2161L15.8696 16.7814C16.1686 17.0817 16.6531 17.0817 16.952 16.7814C17.2509 16.481 17.2509 15.9939 16.952 15.6935L16.3896 15.1282L16.952 14.5629C17.2509 14.2625 17.2509 13.7755 16.952 13.475C16.6532 13.1746 16.1686 13.1746 15.8696 13.475L15.3072 14.0403L14.7448 13.475C14.4459 13.1746 13.9613 13.1746 13.6624 13.475C13.3635 13.7753 13.3635 14.2624 13.6624 14.5628L14.2248 15.1282L13.6624 15.6934C13.3635 15.9939 13.3635 16.481 13.6624 16.7813Z" fill="#CF2D21"/>
<path d="M0.255294 10.7692H8.92945C9.07034 10.7692 9.18457 10.884 9.18457 11.0256V19.7436C9.18457 19.8852 9.07034 20 8.92945 20H2.29627C1.02815 20 0.000175476 18.9668 0.000175476 17.6923V11.0256C0.000175476 10.8841 0.114404 10.7692 0.255294 10.7692ZM3.03714 17.0067H6.15872C6.58139 17.0067 6.92407 16.6623 6.92407 16.2375C6.92407 15.8126 6.58139 15.4682 6.15872 15.4682H3.03714C2.61447 15.4682 2.27179 15.8126 2.27179 16.2375C2.27179 16.6623 2.61447 17.0067 3.03714 17.0067ZM3.03714 14.7882H6.15872C6.58139 14.7882 6.92407 14.4438 6.92407 14.019C6.92407 13.5942 6.58139 13.2498 6.15872 13.2498H3.03714C2.61447 13.2498 2.27179 13.5942 2.27179 14.019C2.27179 14.4438 2.61447 14.7882 3.03714 14.7882Z" fill="#CF2D21"/>
</g>
<defs>
<clipPath id="clip0">
<rect width="19.8995" height="20" fill="white" transform="matrix(-1 0 0 1 19.8994 0)"/>
</clipPath>
</defs>
</svg>
