<svg width="9" height="9" viewBox="0 0 9 9" fill="none" xmlns="http://www.w3.org/2000/svg">
<g clip-path="url(#clip0)">
<path d="M5.32455 4.49998L8.82899 0.995449C9.05705 0.767494 9.05705 0.398922 8.82899 0.170967C8.60103 -0.0569888 8.23246 -0.0569888 8.0045 0.170967L4.49996 3.6755L0.995531 0.170967C0.767469 -0.0569888 0.399002 -0.0569888 0.171047 0.170967C-0.0570156 0.398922 -0.0570156 0.767494 0.171047 0.995449L3.67548 4.49998L0.171047 8.00452C-0.0570156 8.23247 -0.0570156 8.60104 0.171047 8.829C0.284651 8.94271 0.434023 8.99983 0.583289 8.99983C0.732554 8.99983 0.88182 8.94271 0.995531 8.829L4.49996 5.32447L8.0045 8.829C8.11821 8.94271 8.26748 8.99983 8.41674 8.99983C8.56601 8.99983 8.71527 8.94271 8.82899 8.829C9.05705 8.60104 9.05705 8.23247 8.82899 8.00452L5.32455 4.49998Z" fill="#666666"/>
</g>
<defs>
<clipPath id="clip0">
<rect width="9" height="9" fill="white"/>
</clipPath>
</defs>
</svg>
