<svg width="97" height="56" viewBox="0 0 97 56" fill="none" xmlns="http://www.w3.org/2000/svg">
<path d="M34.8057 0H96.13L61.992 55.0989H0L34.8057 0Z" fill="#CF2D21"/>
<g clip-path="url(#clip0)">
<path d="M35.9874 16.3875H60.1435C60.54 16.3875 60.9112 16.4849 61.2471 16.6456L48.1227 29.77L45.1811 26.943C45.1811 26.943 45.1808 26.9427 45.1808 26.9426C45.1807 26.9425 45.1805 26.9424 45.1805 26.9424L34.8834 16.6458C35.2193 16.485 35.5907 16.3875 35.9874 16.3875Z" fill="white"/>
<path d="M33.6693 17.8601L43.3594 27.5497L33.6696 37.2395C33.5089 36.9036 33.4115 36.5324 33.4115 36.1359V18.9633C33.4115 18.567 33.5087 18.1959 33.6693 17.8601Z" fill="white"/>
<path d="M62.4616 17.8598C62.6222 18.1957 62.7197 18.5669 62.7197 18.9634V36.136C62.7197 36.5323 62.6224 36.9036 62.4618 37.2393L52.7717 27.5497L62.4616 17.8598Z" fill="white"/>
<path d="M44.5741 28.764L47.5161 31.5913C47.6839 31.759 47.9036 31.8429 48.1232 31.8429C48.3428 31.8429 48.5626 31.759 48.7302 31.5913L51.5578 28.7638L61.248 38.4535C60.9122 38.6143 60.5407 38.7119 60.1441 38.7119H35.9879C35.5914 38.7119 35.2202 38.6144 34.8844 38.4537L44.5741 28.764Z" fill="white"/>
</g>
<defs>
<clipPath id="clip0">
<rect width="29.3079" height="29.3079" fill="white" transform="matrix(-1 0 0 1 62.7197 12.8957)"/>
</clipPath>
</defs>
</svg>
