<svg width="97" height="56" viewBox="0 0 97 56" fill="none" xmlns="http://www.w3.org/2000/svg">
<path d="M34.8057 0H96.13L61.992 55.0989H0L34.8057 0Z" fill="#CF2D21"/>
<path d="M48.0645 12.8957C42.2475 12.8957 37.5137 17.7616 37.5137 23.7441C37.5137 32.2446 47.0727 41.0215 47.4795 41.3901C47.6472 41.5421 47.8559 41.6175 48.0645 41.6175C48.2732 41.6175 48.4819 41.5421 48.6495 41.3913C49.0563 41.0215 58.6154 32.2446 58.6154 23.7441C58.6154 17.7616 53.8816 12.8957 48.0645 12.8957ZM48.0645 29.6501C44.8324 29.6501 42.2029 26.9658 42.2029 23.6664C42.2029 20.3669 44.8324 17.6827 48.0645 17.6827C51.2966 17.6827 53.9261 20.3669 53.9261 23.6664C53.9261 26.9658 51.2966 29.6501 48.0645 29.6501Z" fill="white"/>
</svg>
