<svg width="97" height="56" viewBox="0 0 97 56" fill="none" xmlns="http://www.w3.org/2000/svg">
<path d="M34.8057 0H96.13L61.992 55.0989H0L34.8057 0Z" fill="#CF2D21"/>
<g clip-path="url(#clip0)">
<path d="M60.2612 33.5821L56.6619 29.9829C55.3765 28.6974 53.1913 29.2116 52.6771 30.8827C52.2915 32.0396 51.006 32.6823 49.8492 32.4252C47.2783 31.7825 43.8076 28.4403 43.1649 25.7409C42.7793 24.584 43.5505 23.2986 44.7074 22.913C46.3785 22.3988 46.8927 20.2136 45.6072 18.9281L42.008 15.3289C40.9797 14.4291 39.4372 14.4291 38.5374 15.3289L36.095 17.7713C33.6527 20.3421 36.3521 27.1549 42.3937 33.1964C48.4352 39.238 55.248 42.066 57.8188 39.495L60.2612 37.0527C61.161 36.0244 61.161 34.4819 60.2612 33.5821Z" fill="white"/>
</g>
<defs>
<clipPath id="clip0">
<rect width="25.791" height="25.791" fill="white" transform="translate(35.1699 14.6541)"/>
</clipPath>
</defs>
</svg>
