<svg width="101" height="24" viewBox="0 0 101 24" fill="none" xmlns="http://www.w3.org/2000/svg">
<path d="M72.8668 12.7496C72.8668 5.90173 68.889 1.49731 62.534 1.49731H55.7217V5.34413L57.0905 9.05311V2.71902H62.3704C67.9441 2.71902 71.4313 6.60813 71.4313 12.7496C71.4313 18.9537 67.9441 22.813 62.3704 22.813H62.1672L62.6054 24.0003C68.9175 23.9674 72.8668 19.6037 72.8668 12.7496Z" fill="#666666"/>
<path d="M45.2081 1.49731L40.7207 12.6814L41.4026 14.5483L45.9497 3.00712L51.207 16.3494H42.0594L42.5056 17.5711H51.6909L54.2379 24.0003H55.7227L46.6913 1.49731H45.2081Z" fill="#666666"/>
<path d="M27.8447 13.9688L33.864 24.0003H35.3613L29.1888 13.7778C32.2743 12.9743 34.0768 10.9492 34.0768 7.79808C34.0768 3.84503 31.2652 1.49731 26.4694 1.49731H20.3594V5.61325L21.6424 9.32197V2.71737H26.3474C30.5626 2.71737 32.7938 4.61559 32.7938 7.79651C32.7938 10.9148 30.5626 12.8443 26.3474 12.8443H22.8599L23.2827 14.0659H25.7044C26.4694 14.0675 27.1734 14.0346 27.8447 13.9688Z" fill="#666666"/>
<path d="M79.1671 17.4281L77.5804 13.2406H77.5545C77.585 13.573 77.5987 13.967 77.5987 14.4225V17.4281H77.0957V12.7035H77.9157L79.3973 16.6001H79.4232L80.9169 12.7035H81.7293V17.4281H81.1852V14.384C81.1852 14.0347 81.2004 13.6561 81.2294 13.2467H81.2035L79.603 17.4281H79.1671Z" fill="#666666"/>
<path d="M86.1138 17.4281H83.5059V12.7035H86.1138V13.1913H84.05V14.7134H85.9888V15.1981H84.05V16.9372H86.1138V17.4281Z" fill="#666666"/>
<path d="M91.3759 15.0212C91.3759 15.8014 91.1656 16.397 90.7464 16.8094C90.3273 17.2219 89.7237 17.4281 88.9372 17.4281H87.6416V12.7035H89.0759C89.8029 12.7035 90.3684 12.9066 90.7723 13.3145C91.1747 13.7223 91.3759 14.2902 91.3759 15.0212ZM90.7998 15.0396C90.7998 14.424 90.6473 13.9593 90.341 13.6469C90.0346 13.3345 89.5804 13.179 88.9753 13.179H88.1842V16.9526H88.8473C89.495 16.9526 89.9828 16.791 90.309 16.4693C90.6367 16.1477 90.7998 15.6706 90.7998 15.0396Z" fill="#666666"/>
<path d="M92.9111 17.4281V12.7035H93.4553V17.4281H92.9111Z" fill="#666666"/>
<path d="M98.1703 17.4283L97.5881 15.9263H95.7133L95.1372 17.4283H94.5869L96.4373 12.6853H96.8946L98.7343 17.4283H98.1703ZM97.4189 15.4308L96.8748 13.9672C96.8046 13.7825 96.7315 13.5548 96.6568 13.2855C96.6095 13.4917 96.5425 13.7195 96.4556 13.9672L95.9054 15.4308H97.4189Z" fill="#666666"/>
<path d="M79.1535 21.269H80.7448V23.5667C80.4979 23.6467 80.2449 23.7067 79.9888 23.7483C79.7328 23.7898 79.4355 23.8098 79.0987 23.8098C78.3899 23.8098 77.8397 23.5975 77.4449 23.1712C77.0501 22.7449 76.8535 22.1493 76.8535 21.3829C76.8535 20.892 76.9511 20.4611 77.1462 20.0917C77.3413 19.7224 77.6232 19.4407 77.9891 19.2453C78.3564 19.0498 78.7862 18.9529 79.2785 18.9529C79.7785 18.9529 80.2434 19.0452 80.6732 19.2299L80.4628 19.7147C80.0406 19.5331 79.6337 19.4438 79.2435 19.4438C78.6734 19.4438 78.2284 19.6146 77.9083 19.9578C77.5882 20.301 77.4281 20.775 77.4281 21.3829C77.4281 22.02 77.5821 22.5048 77.89 22.8341C78.1979 23.1635 78.6506 23.3281 79.248 23.3281C79.5727 23.3281 79.8897 23.2912 80.1992 23.2158V21.7615H79.152V21.269H79.1535Z" fill="#666666"/>
<path d="M82.9035 21.7803V23.7455H82.3594V19.0209H83.6428C84.2174 19.0209 84.6411 19.1317 84.9155 19.3533C85.1898 19.575 85.327 19.9089 85.327 20.3552C85.327 20.98 85.013 21.4017 84.3866 21.6218L85.6562 23.744H85.013L83.8805 21.7788H82.9035V21.7803ZM82.9035 21.3078H83.6488C84.0329 21.3078 84.3149 21.2309 84.4933 21.077C84.6716 20.9231 84.7615 20.6922 84.7615 20.3845C84.7615 20.072 84.6701 19.8474 84.4887 19.7089C84.3058 19.5703 84.0131 19.5026 83.6107 19.5026H82.9035V21.3078Z" fill="#666666"/>
<path d="M90.9616 21.3758C90.9616 22.1315 90.7726 22.727 90.3931 23.1595C90.0135 23.5919 89.4877 23.8089 88.814 23.8089C88.125 23.8089 87.5931 23.5965 87.2181 23.1703C86.8432 22.7455 86.6572 22.1438 86.6572 21.3681C86.6572 20.5987 86.8447 20.0031 87.2212 19.5799C87.5961 19.1567 88.1296 18.9443 88.8216 18.9443C89.4938 18.9443 90.0181 19.1597 90.3961 19.5906C90.7726 20.0231 90.9616 20.6187 90.9616 21.3758ZM87.2334 21.3758C87.2334 22.016 87.3675 22.5008 87.6388 22.8317C87.9086 23.1626 88.3003 23.3272 88.8155 23.3272C89.3337 23.3272 89.7255 23.1626 89.9907 22.8332C90.2559 22.5039 90.387 22.0176 90.387 21.3758C90.387 20.7402 90.2559 20.2585 89.9922 19.9292C89.7285 19.6014 89.3383 19.4367 88.8231 19.4367C88.3049 19.4367 87.9101 19.6029 87.6403 19.9323C87.3706 20.2616 87.2334 20.7449 87.2334 21.3758Z" fill="#666666"/>
<path d="M96.0325 19.0209V22.0773C96.0325 22.6159 95.8709 23.0392 95.5493 23.3469C95.2277 23.6547 94.7842 23.8086 94.2218 23.8086C93.6593 23.8086 93.2234 23.6532 92.914 23.3439C92.6061 23.033 92.4521 22.6067 92.4521 22.065V19.0209H92.9963V22.1035C92.9963 22.4974 93.103 22.8006 93.3164 23.0115C93.5298 23.2223 93.8438 23.3285 94.2568 23.3285C94.6516 23.3285 94.9549 23.2223 95.1683 23.0099C95.3817 22.7975 95.4884 22.4928 95.4884 22.0973V19.0209H96.0325Z" fill="#666666"/>
<path d="M100.727 20.397C100.727 20.8756 100.565 21.2434 100.242 21.5004C99.919 21.7574 99.4557 21.8867 98.8551 21.8867H98.3049V23.7442H97.7607V19.0196H98.974C100.142 19.0211 100.727 19.4797 100.727 20.397ZM98.3034 21.4142H98.7926C99.2743 21.4142 99.6233 21.3357 99.8398 21.1788C100.055 21.0218 100.163 20.7694 100.163 20.4231C100.163 20.1107 100.061 19.8783 99.8596 19.7244C99.6568 19.5721 99.3413 19.4951 98.913 19.4951H98.3049V21.4142H98.3034Z" fill="#666666"/>
<path d="M7.39797 1.67477C10.6481 1.67477 13.0529 2.95578 14.9368 5.78362L16.0735 5.05985C14.1896 2.07028 11.1991 0.425781 7.36631 0.425781C4.3172 0.425781 1.77627 1.68438 0 3.80766L0.536681 5.29844C2.10081 3.01023 4.51034 1.67477 7.39797 1.67477Z" fill="#666666"/>
<path d="M15.0013 19.6878V12.213H7.4947V13.3227H13.7197V19.2212C12.3459 20.8559 9.69211 21.819 7.31035 21.819C7.01003 21.819 6.71565 21.8048 6.42871 21.7806L6.86135 22.9188C6.99962 22.923 7.13789 22.9287 7.27913 22.9287C10.1188 22.9302 13.2008 21.8503 15.0013 19.6878Z" fill="#666666"/>
</svg>
