<svg width="96" height="69" viewBox="0 0 96 69" fill="none" xmlns="http://www.w3.org/2000/svg">
<path d="M35.2531 0H95.9321L62.1533 54.564H0.81366L35.2531 0Z" fill="#D6D6D6" fill-opacity="0.3"/>
<path d="M35.2658 0H95.9318L95.0219 1.4747H34.3171L35.2658 0Z" fill="#CF2D21"/>
<g clip-path="url(#clip0)">
<path d="M75.9422 56.7772C75.9383 56.7671 75.9342 56.7571 75.93 56.7472C75.0022 54.5761 72.8261 53.7737 70.2508 54.6532L63.2276 56.5954C62.8215 55.3657 61.8087 54.3193 60.3766 53.7879C60.3677 53.7846 60.3588 53.7814 60.3498 53.7784L52.6297 51.1581C51.9872 50.3276 49.9744 48.2023 46.2058 48.2023C43.5722 48.2023 41.2423 50.009 39.9094 51.9783H30.5785C30.0217 51.9783 29.5704 52.4297 29.5704 52.9864V65.6962C29.5704 66.253 30.0217 66.7043 30.5785 66.7043H36.5723C37.1291 66.7043 37.5804 66.253 37.5804 65.6962V64.8258H40.3913C40.9481 64.8258 41.3994 64.3745 41.3994 63.8177V63.5276C43.038 63.6706 43.5769 63.9814 45.0818 64.8491C46.2391 65.5165 47.9882 66.5251 51.1381 67.9414C51.1528 67.9479 51.1676 67.9542 51.1824 67.96C51.787 68.1978 52.9687 68.5714 54.4258 68.5714C55.4399 68.5714 56.5876 68.3903 57.7657 67.8563L73.2895 62.298C73.3171 62.2882 73.3443 62.2771 73.3709 62.2648C74.8546 61.5822 77.0654 59.6584 75.9422 56.7772ZM35.5642 64.688H31.5866V53.9944H35.5642V64.688ZM39.3832 62.8095H37.5804V53.9944H39.3832V62.8095ZM72.5654 60.4156L57.0485 65.9713C57.0349 65.9762 57.0165 65.9834 57.0031 65.9889C56.9894 65.9944 56.9758 66.0003 56.9624 66.0064C54.8014 66.9996 52.7472 66.405 51.9421 66.092C48.8995 64.7229 47.2755 63.7865 46.089 63.1023C44.4393 62.1511 43.6444 61.6926 41.3994 61.5072V53.3878C42.355 51.8216 44.2081 50.2184 46.2059 50.2184C49.632 50.2184 51.0838 52.4468 51.1409 52.5367C51.2639 52.7369 51.4532 52.8878 51.6757 52.9633L59.6875 55.6826C60.9671 56.1629 61.6433 57.2587 61.3325 58.3514C61.1891 58.8561 60.8576 59.2747 60.3993 59.53C59.945 59.7831 59.4198 59.8457 58.9191 59.7072L49.8873 56.845C49.3562 56.6768 48.7899 56.9707 48.6217 57.5015C48.4535 58.0323 48.7474 58.5988 49.2782 58.7671L58.3258 61.6342C58.3354 61.6372 58.3449 61.6402 58.3546 61.6429C58.7158 61.7456 59.0836 61.7964 59.4491 61.7964C60.1183 61.7964 60.7801 61.6259 61.3807 61.2913C62.3095 60.7738 62.9811 59.9256 63.2718 58.9029C63.295 58.8212 63.3156 58.7396 63.3334 58.6579L70.9025 56.5611C71.9957 56.1877 73.4307 56.0531 74.0697 57.5246C74.731 59.2522 73.0122 60.2025 72.5654 60.4156Z" fill="#CF2D21"/>
<path d="M80.1769 20.3757H74.1831C73.6263 20.3757 73.175 20.827 73.175 21.3838V22.2542H70.3641C69.8073 22.2542 69.356 22.7055 69.356 23.2623V23.5524C67.7174 23.4094 67.1785 23.0987 65.6737 22.2309C64.5164 21.5635 62.7673 20.5549 59.6172 19.1387C59.6026 19.132 59.5879 19.1259 59.5729 19.12C58.5476 18.7166 55.8603 17.9228 52.9901 19.2235L48.9335 20.676L45.5141 17.2567C45.1205 16.8631 44.4822 16.8631 44.0885 17.2567L32.8625 28.4826C32.4994 28.8458 32.4297 29.4756 32.8625 29.9084L52.0453 49.0912C52.3523 49.3983 53.0711 49.4911 53.4711 49.0912L63.7199 38.8425C63.9863 38.8654 64.2629 38.8778 64.5495 38.8778C67.1832 38.8778 69.5129 37.0711 70.8457 35.1019H80.1769C80.7337 35.1019 81.185 34.6506 81.185 34.0938V21.3838C81.185 20.827 80.7337 20.3757 80.1769 20.3757ZM44.8012 19.3952L47.0989 21.6929C46.4159 22.1153 45.6262 22.3413 44.8012 22.3413C43.9761 22.3413 43.1865 22.1154 42.5036 21.6929L44.8012 19.3952ZM37.2987 31.4932L35.0011 29.1955L37.2987 26.8978C37.7211 27.5808 37.9472 28.3704 37.9472 29.1955C37.9472 30.0205 37.7212 30.8101 37.2987 31.4932ZM52.7582 46.9526L50.461 44.6554C51.8636 43.7898 53.6527 43.7898 55.0554 44.6554L52.7582 46.9526ZM56.5079 43.2031C54.2802 41.5871 51.2363 41.5871 49.0086 43.2031L38.7511 32.9455C39.5383 31.8628 39.9634 30.5622 39.9634 29.1955C39.9634 27.8286 39.5384 26.5281 38.7511 25.4454L41.0513 23.1454C42.134 23.9326 43.4344 24.3576 44.8013 24.3576C46.1682 24.3576 47.4686 23.9326 48.5513 23.1454L50.7318 25.3258C50.2613 25.3952 49.8025 25.5503 49.3747 25.7887C48.6521 26.1913 48.0851 26.7943 47.7321 27.5237C46.5949 27.7343 45.5422 28.2848 44.7163 29.1106C42.4758 31.3512 42.4758 34.9968 44.7164 37.2374C45.8366 38.3576 47.3082 38.9178 48.7798 38.9178C50.2513 38.9178 51.7229 38.3577 52.8432 37.2374C53.5721 36.5085 54.0827 35.6127 54.3384 34.6365L57.7422 35.7916C57.359 37.5667 57.7515 39.4341 58.8101 40.9009L56.5079 43.2031ZM50.3788 33.2922C50.3877 33.2954 50.3966 33.2986 50.4055 33.3016L52.4213 33.9858C52.2691 34.6729 51.9246 35.3045 51.4176 35.8117C49.9631 37.266 47.5965 37.2662 46.1422 35.8117C44.6877 34.3573 44.6877 31.9908 46.1422 30.5363C46.493 30.1853 46.907 29.911 47.3582 29.725C47.5443 31.2737 48.6593 32.654 50.3788 33.2922ZM60.2626 39.4482C59.8735 38.8141 59.6533 38.0904 59.6186 37.3518C60.1014 37.7009 60.6916 38.0429 61.3964 38.3144L60.2626 39.4482ZM69.3559 33.6919C68.4004 35.2583 66.5473 36.8614 64.5495 36.8614C64.1757 36.8614 63.8254 36.8348 63.4978 36.7874C63.4965 36.7872 63.4952 36.787 63.4939 36.7868C61.3168 36.4706 60.1457 35.2333 59.7597 34.7433C59.7391 34.7131 59.6515 34.5985 59.6385 34.5794C59.5211 34.3695 59.3285 34.2008 59.083 34.1174L51.0678 31.397C49.7887 30.917 49.1126 29.8217 49.4224 28.7293C49.4226 28.7286 49.4228 28.7279 49.423 28.7272C49.4233 28.7264 49.4236 28.7255 49.4238 28.7247C49.5678 28.2216 49.8987 27.8044 50.3559 27.5496C50.8102 27.2965 51.3353 27.2337 51.8361 27.3725L60.868 30.2346C61.3989 30.4031 61.9654 30.1089 62.1336 29.5781C62.3017 29.0474 62.0078 28.4808 61.4771 28.3126L54.2939 26.0363L54.2312 25.9736C54.2306 25.973 54.23 25.9723 54.2293 25.9717L50.5104 22.2528L53.7069 21.1082C53.7176 21.1043 53.731 21.0993 53.7416 21.095C53.7444 21.0939 53.7496 21.0919 53.7522 21.0907C53.7659 21.0852 53.7794 21.0794 53.7929 21.0732C55.9538 20.08 58.0079 20.6745 58.8131 20.9876C61.8558 22.3567 63.4799 23.2931 64.6664 23.9773C66.3161 24.9287 67.1109 25.3871 69.3559 25.5725V33.6919ZM73.175 33.0855H71.3722V24.2704H73.175V33.0855ZM79.1688 33.0855H75.1912V22.3919H79.1688V33.0855Z" fill="#CF2D21"/>
</g>
<defs>
<clipPath id="clip0">
<rect width="51.6146" height="51.6146" fill="white" transform="translate(29.5704 16.9591)"/>
</clipPath>
</defs>
</svg>
