<svg width="97" height="72" viewBox="0 0 97 72" fill="none" xmlns="http://www.w3.org/2000/svg">
<path d="M35.3889 -6.10352e-05H96.0679L62.2891 54.564H0.949463L35.3889 -6.10352e-05Z" fill="#D6D6D6" fill-opacity="0.3"/>
<path d="M35.4016 -6.10352e-05H96.0676L95.1577 1.47464H34.4529L35.4016 -6.10352e-05Z" fill="#CF2D21"/>
<g clip-path="url(#clip0)">
<path d="M71.4828 14.6483V14.647H71.3828H38.9066C36.7538 14.647 35.0025 16.3983 35.0025 18.5511V67.719C35.0025 69.8719 36.7538 71.6231 38.9066 71.6231H71.3828C73.5356 71.6231 75.2869 69.8719 75.2869 67.719V18.5511C75.2869 16.4317 73.5896 14.7015 71.4828 14.6483ZM72.8691 67.719C72.8691 68.5385 72.2022 69.2053 71.3828 69.2053H38.9066C38.0872 69.2053 37.4204 68.5385 37.4204 67.719V18.5511C37.4204 17.7317 38.0872 17.0649 38.9066 17.0649H71.3828C72.2023 17.0649 72.8691 17.7317 72.8691 18.5511V67.719Z" fill="#CF2D21" stroke="#CF2D21" stroke-width="0.2"/>
<path d="M68.279 36.6214H42.0105C41.3428 36.6214 40.8016 37.1626 40.8016 37.8303V64.0988C40.8016 64.7665 41.3428 65.3077 42.0105 65.3077H68.279C68.9467 65.3077 69.4879 64.7665 69.4879 64.0988V37.8303C69.4879 37.1626 68.9467 36.6214 68.279 36.6214ZM43.2194 47.7954H49.5578V54.1337H43.2194V47.7954ZM51.9756 47.7954H58.3139V54.1337H51.9756V47.7954ZM58.3139 45.3775H51.9756V39.0392H58.3139V45.3775ZM43.2194 39.0392H49.5578V45.3775H43.2194V39.0392ZM43.2194 56.5514H49.5578V62.8898H43.2194V56.5514ZM51.9756 56.5514H58.3139V62.8898H51.9756V56.5514ZM67.0701 62.8898H60.7317V39.0392H67.0701V62.8898Z" fill="#CF2D21" stroke="#CF2D21" stroke-width="0.2"/>
<path d="M68.279 19.8536H42.0105C41.3428 19.8536 40.8016 20.3949 40.8016 21.0625V31.4344C40.8016 32.1021 41.3428 32.6433 42.0105 32.6433H68.279C68.9467 32.6433 69.4879 32.1021 69.4879 31.4344V21.0625C69.4879 20.3949 68.9467 19.8536 68.279 19.8536ZM67.0701 30.2255H43.2194V22.2714H67.0701V30.2255Z" fill="#CF2D21" stroke="#CF2D21" stroke-width="0.2"/>
</g>
<defs>
<clipPath id="clip0">
<rect width="56.7761" height="56.7761" fill="white" transform="translate(26.7567 14.747)"/>
</clipPath>
</defs>
</svg>
