<svg width="97" height="65" viewBox="0 0 97 65" fill="none" xmlns="http://www.w3.org/2000/svg">
<path d="M35.4015 -6.10352e-05H96.0676L95.1576 1.47464H34.4528L35.4015 -6.10352e-05Z" fill="#CF2D21"/>
<path d="M35.3888 -6.10352e-05H96.0678L62.289 54.564H0.949402L35.3888 -6.10352e-05Z" fill="#D6D6D6" fill-opacity="0.3"/>
<path d="M70.0328 49.4474H46.8702C46.2342 49.4474 45.6551 49.9009 45.6551 50.5331C45.6551 51.1652 46.2342 51.6188 46.8702 51.6188H70.0328C70.6689 51.6188 71.2479 51.1652 71.2479 50.5331C71.2479 49.9009 70.6689 49.4474 70.0328 49.4474Z" fill="#CF2D21" stroke="#CF2D21" stroke-width="0.5"/>
<path d="M70.0326 44.4336H46.87C46.2339 44.4336 45.6548 44.8872 45.6548 45.5193C45.6548 46.1515 46.2339 46.605 46.87 46.605H70.0326C70.6686 46.605 71.2477 46.1515 71.2477 45.5193C71.2477 44.8872 70.6686 44.4336 70.0326 44.4336Z" fill="#CF2D21" stroke="#CF2D21" stroke-width="0.5"/>
<path d="M70.0326 39.4196H46.87C46.2339 39.4196 45.6548 39.8731 45.6548 40.5053C45.6548 41.1374 46.2339 41.5909 46.87 41.5909H70.0326C70.6686 41.5909 71.2477 41.1374 71.2477 40.5053C71.2477 39.8731 70.6686 39.4196 70.0326 39.4196Z" fill="#CF2D21" stroke="#CF2D21" stroke-width="0.5"/>
<path d="M70.0326 34.4055H46.87C46.2339 34.4055 45.6548 34.8591 45.6548 35.4912C45.6548 36.1234 46.2339 36.5769 46.87 36.5769H70.0326C70.6686 36.5769 71.2477 36.1234 71.2477 35.4912C71.2477 34.8591 70.6686 34.4055 70.0326 34.4055Z" fill="#CF2D21" stroke="#CF2D21" stroke-width="0.5"/>
<path d="M50.9894 22.018H46.1874C45.5973 22.018 45.1371 22.5144 45.1371 23.1036V28.1176C45.1371 28.7069 45.5973 29.2033 46.1874 29.2033H50.9894C51.5795 29.2033 52.0397 28.7069 52.0397 28.1176V23.1036C52.0397 22.5144 51.5795 22.018 50.9894 22.018ZM49.9391 27.032H47.2377V24.1893H49.9391V27.032Z" fill="#CF2D21" stroke="#CF2D21" stroke-width="0.5"/>
<path d="M77.1315 27.2294C77.1273 27.1562 77.113 27.0839 77.0889 27.0146C77.0797 26.9879 77.073 26.962 77.0613 26.9361C77.0207 26.8452 76.964 26.7622 76.8942 26.6912L65.1948 14.9919C65.1238 14.922 65.0409 14.8654 64.95 14.8248C64.9241 14.8131 64.8982 14.8064 64.8723 14.7972C64.8024 14.7732 64.7296 14.7585 64.6558 14.7537C64.6416 14.7562 64.6258 14.747 64.6074 14.747H41.2087C40.7472 14.747 40.3731 15.1212 40.3731 15.5827V18.0897H36.1947C35.7332 18.0897 35.3591 18.4639 35.3591 18.9254V64.0513C35.3591 64.5128 35.7332 64.887 36.1947 64.887H71.2927C71.7542 64.887 72.1284 64.5128 72.1284 64.0513V59.873H76.3067C76.7682 59.873 77.1424 59.4988 77.1424 59.0373V27.282C77.1424 27.2636 77.1332 27.2478 77.1315 27.2294ZM65.443 17.6L74.2894 26.4464H65.443V17.6ZM70.457 63.2156H37.0304V19.761H40.3731V59.0373C40.3731 59.4988 40.7472 59.873 41.2087 59.873H70.457V63.2156ZM75.471 58.2017H42.0444V16.4184H63.7717V27.282C63.7717 27.7435 64.1459 28.1177 64.6074 28.1177H75.471V58.2017Z" fill="#CF2D21"/>
</svg>
