<svg width="97" height="68" viewBox="0 0 97 68" fill="none" xmlns="http://www.w3.org/2000/svg">
<path d="M35.3888 0H96.0678L62.289 54.564H0.949402L35.3888 0Z" fill="#D6D6D6" fill-opacity="0.3"/>
<g clip-path="url(#clip0)">
<path d="M83.2834 32.737L73.0401 19.4307C72.661 18.9385 71.9695 18.8171 71.4451 19.1505L64.8316 23.3565H56.2062C56.0946 23.3565 55.9835 23.3803 55.8761 23.4116L49.1884 25.3367L42.249 23.4387L35.5062 19.1505C34.9907 18.8227 34.3118 18.9339 33.9285 19.4092L22.5987 33.443C22.1915 33.9472 22.2588 34.6836 22.75 35.1061L28.6883 40.2166L34.0158 47.396C32.4577 49.0559 32.4881 51.6739 34.1092 53.2955C34.8278 54.0136 35.7416 54.4194 36.6815 54.5137C36.6488 54.7266 36.632 54.9428 36.632 55.1622C36.632 56.295 37.0732 57.36 37.874 58.1608C38.6752 58.962 39.7403 59.4033 40.873 59.4033C40.8884 59.4033 40.9034 59.4024 40.9183 59.4019C40.9178 59.4308 40.9164 59.4593 40.9164 59.4883C40.9164 60.621 41.3577 61.6861 42.1584 62.4873C42.9597 63.2881 44.0247 63.7293 45.1575 63.7293C45.3811 63.7293 45.6024 63.7111 45.8196 63.6775C45.9116 64.6207 46.3182 65.5386 47.0392 66.2596C47.8656 67.0865 48.9517 67.4997 50.0377 67.4997C51.1238 67.4997 52.2098 67.0865 53.0368 66.2596L53.6853 65.611L53.9575 65.8305C54.7774 66.6247 55.842 67.0216 56.9066 67.0216C57.9927 67.0216 59.0787 66.6083 59.9052 65.7814C60.7489 64.9377 61.1621 63.8241 61.1448 62.7161C62.2524 62.7329 63.3664 62.3201 64.2102 61.4769C65.053 60.6336 65.4662 59.521 65.4498 58.4134C66.6036 58.4316 67.6981 57.9885 68.5147 57.1719C69.3584 56.3281 69.7717 55.2145 69.7544 54.1065C70.8629 54.1233 71.976 53.7106 72.8197 52.8669C74.2597 51.4269 74.4451 49.2011 73.3772 47.558L77.2671 39.4111L83.1153 34.3787C83.5986 33.9626 83.6724 33.2417 83.2834 32.737ZM35.1224 21.7508L39.9709 24.8339L29.4237 37.6835L25.1971 34.0457L35.1224 21.7508ZM35.8065 48.9947L37.2698 47.5314C37.3141 47.487 37.3608 47.445 37.4085 47.4058C37.6947 47.1723 38.0411 47.0332 38.4081 47C38.4184 46.9991 38.4291 46.9991 38.4394 46.9986C38.4917 46.9944 38.544 46.9916 38.5968 46.9921C39.0982 46.9991 39.5642 47.204 39.9098 47.5687C40.5877 48.2854 40.5513 49.4565 39.8285 50.1793L38.4095 51.5982C37.6919 52.3159 36.5241 52.3159 35.8065 51.5982C35.0888 50.8801 35.0888 49.7123 35.8065 48.9947ZM39.5712 56.4636C39.2234 56.1162 39.0319 55.6539 39.0319 55.1622C39.0319 54.6706 39.2234 54.2083 39.5712 53.8605L42.4087 51.023C42.9522 50.4795 43.8067 50.3305 44.5015 50.6616C45.2177 51.0029 45.6207 51.7803 45.5156 52.5624C45.4596 52.9799 45.2653 53.373 44.9674 53.6714L42.1748 56.4636C41.8269 56.8114 41.3647 57.0028 40.873 57.0028C40.3813 57.0028 39.9191 56.8114 39.5712 56.4636ZM43.8557 60.7896C43.5078 60.4422 43.3164 59.9799 43.3164 59.4883C43.3164 58.9966 43.5078 58.5343 43.8557 58.1865L46.6927 55.349C47.274 54.7682 48.2065 54.643 48.9181 55.0572C49.568 55.4354 49.9084 56.1778 49.7968 56.9174C49.7356 57.3241 49.5423 57.7065 49.2514 57.9974L46.4592 60.7896C46.1114 61.1374 45.6491 61.3289 45.1575 61.3289C44.6658 61.3289 44.2036 61.1374 43.8557 60.7896ZM48.736 64.5623C48.0183 63.8446 48.0183 62.6769 48.736 61.9592L50.1993 60.4959C50.2436 60.4515 50.2899 60.41 50.3375 60.3708C50.3389 60.3698 50.3398 60.3689 50.3408 60.3679C50.5789 60.1746 50.8586 60.0453 51.1569 59.9888C51.1639 59.9879 51.1709 59.9869 51.1779 59.986C51.2293 59.9767 51.2816 59.9692 51.3339 59.9645C51.3549 59.9627 51.3759 59.9627 51.3974 59.9613C51.4404 59.9589 51.4828 59.9561 51.5263 59.9566C52.0273 59.9636 52.4937 60.1681 52.8393 60.5332C52.8817 60.5781 52.9214 60.6248 52.9579 60.6728C53.5098 61.3942 53.4355 62.4658 52.7505 63.1513L51.339 64.5628C50.6214 65.2804 49.4536 65.28 48.736 64.5623ZM71.1225 51.1696C70.4048 51.8877 69.237 51.8873 68.5194 51.1696C68.4932 51.1435 68.4657 51.1192 68.4377 51.0963L60.7213 43.2987C60.2549 42.8276 59.4952 42.8239 59.0241 43.2903C58.553 43.7563 58.5492 44.516 59.0152 44.9871L66.8151 52.8683C66.8161 52.8692 66.817 52.8701 66.8179 52.8711C67.5356 53.5887 67.5356 54.757 66.8179 55.4746C66.4701 55.8225 66.0078 56.0139 65.5161 56.0139C65.024 56.0139 64.5618 55.8225 64.2144 55.4746L58.9965 50.2026C58.5305 49.7315 57.7709 49.7278 57.2997 50.1937C56.8286 50.6602 56.8249 51.4199 57.2909 51.891L62.4289 57.0822C62.455 57.1149 62.483 57.1462 62.5129 57.1761C63.2306 57.8937 63.2306 59.062 62.5129 59.7796C61.7948 60.4973 60.6266 60.4968 59.9089 59.7792L57.0611 56.9015C56.5947 56.4304 55.835 56.4262 55.3639 56.8927C54.8928 57.3586 54.889 58.1183 55.355 58.5894L58.1234 61.3863C58.1495 61.419 58.1776 61.4507 58.2079 61.4806C58.9256 62.1983 58.9256 63.3665 58.2079 64.0842C57.4902 64.8023 56.3225 64.8018 55.6048 64.0842C55.5222 64.0015 55.4251 63.938 55.3326 63.8671C55.2542 63.8073 55.2336 63.7657 55.2728 63.6705C55.3125 63.5738 55.3718 63.4865 55.4115 63.3894C55.4554 63.2811 55.4909 63.1695 55.5254 63.0574C55.7094 62.4644 55.7636 61.8266 55.6809 61.2112C55.5222 60.0304 54.8727 58.9649 53.8884 58.2906C53.3566 57.9269 52.7412 57.6883 52.1034 57.5986C52.4125 56.2352 52.0413 54.757 51.0757 53.7367C50.281 52.8972 49.2075 52.4261 48.0528 52.4102C48.0108 52.4097 47.9688 52.4097 47.9263 52.4102C47.952 51.3083 47.5514 50.2134 46.7917 49.4107C45.9965 48.5712 44.9231 48.1001 43.7689 48.0842C43.4257 48.0795 43.0792 48.1159 42.7449 48.193C42.602 47.1989 42.101 46.2791 41.3423 45.6212C40.5882 44.9684 39.6399 44.6061 38.6299 44.5921C37.5667 44.5767 36.5222 44.9689 35.7327 45.6819L31.0938 39.4312L42.1916 25.9111L45.7285 26.8785L41.1093 35.0296C40.5508 36.0152 40.4098 37.1592 40.7119 38.2508C41.014 39.343 41.7228 40.2516 42.7085 40.81C42.7701 40.8451 42.8322 40.8782 42.8952 40.91C42.8999 40.9123 42.9046 40.9146 42.9097 40.917C43.0755 40.9996 43.2459 41.0706 43.4187 41.1303C44.2232 41.4091 45.0921 41.4394 45.9302 41.2078C47.0219 40.9058 47.9305 40.1965 48.489 39.2113L51.4908 33.9141L56.8506 34.2942L71.1229 48.5661C71.8401 49.2842 71.8401 50.452 71.1225 51.1696ZM71.6197 45.6688L58.2308 32.2803C58.2056 32.2546 58.179 32.2304 58.1514 32.2075C57.9586 32.0469 57.7195 31.9497 57.4674 31.932L50.9048 31.4665C50.451 31.4352 49.9999 31.6766 49.7758 32.0721L46.4009 38.0281C46.1586 38.4558 45.764 38.7635 45.2901 38.8947C44.8166 39.0259 44.3198 38.9643 43.8917 38.722C43.464 38.4796 43.1563 38.0851 43.025 37.6112C42.8938 37.1372 42.955 36.6404 43.1978 36.2127L47.7031 28.2615L49.5288 27.7362C49.5409 27.7325 49.5526 27.7278 49.5647 27.7241L56.3785 25.7565H64.6113L74.8891 38.8219L71.6197 45.6688ZM76.4612 36.9383L66.9566 24.8493L71.8074 21.7643L80.6887 33.3005L76.4612 36.9383Z" fill="#CF2D21"/>
</g>
<path d="M35.4016 0H96.0676L95.1577 1.4747H34.4529L35.4016 0Z" fill="#CF2D21"/>
<defs>
<clipPath id="clip0">
<rect width="61.2002" height="61.2002" fill="white" transform="translate(22.3326 6.63617)"/>
</clipPath>
</defs>
</svg>
