<svg width="97" height="71" viewBox="0 0 97 71" fill="none" xmlns="http://www.w3.org/2000/svg">
<path d="M35.3889 0H96.0679L62.2891 54.564H0.949493L35.3889 0Z" fill="#D6D6D6" fill-opacity="0.3"/>
<path d="M35.4016 0H96.0677L95.1577 1.4747H34.4529L35.4016 0Z" fill="#CF2D21"/>
<g clip-path="url(#clip0)">
<path d="M81.8599 45.4245C81.2575 45.3083 80.6769 45.7023 80.5611 46.3036C78.3568 57.7432 68.2878 66.046 56.6195 66.046C45.1969 66.046 35.3072 58.0893 32.8276 47.0224L33.117 47.3118C33.3336 47.5284 33.6174 47.6367 33.9011 47.6367C34.1849 47.6367 34.4687 47.5284 34.6851 47.3119C35.1183 46.8789 35.1183 46.1768 34.6853 45.7437L32.4048 43.4631C32.1969 43.2551 31.9148 43.1382 31.6207 43.1382C31.3266 43.1382 31.0445 43.2551 30.8366 43.4631L28.5562 45.7437C28.1232 46.1767 28.1232 46.8788 28.5563 47.3119C28.9892 47.745 29.6915 47.7449 30.1245 47.3118L30.535 46.9013C33.0098 59.2906 43.9505 68.2638 56.6195 68.2638C69.3489 68.2638 80.3338 59.2047 82.7389 46.7233C82.8548 46.1219 82.4612 45.5404 81.8599 45.4245Z" fill="#CF2D21"/>
<path d="M84.6828 36.0091C84.2498 35.5759 83.5476 35.5761 83.1145 36.0092L82.704 36.4197C80.2293 24.0303 69.2886 15.0571 56.6196 15.0571C43.8901 15.0571 32.9053 24.1163 30.5002 36.5977C30.3843 37.1992 30.7778 37.7806 31.3792 37.8964C31.9813 38.0121 32.5621 37.6185 32.6779 37.0174C34.8823 25.5778 44.9513 17.275 56.6196 17.275C68.0421 17.275 77.9318 25.2317 80.4115 36.2986L80.122 36.0092C79.6891 35.5762 78.9871 35.576 78.5538 36.0091C78.1207 36.4421 78.1207 37.1442 78.5537 37.5773L80.8341 39.8579C81.042 40.0659 81.3241 40.1828 81.6182 40.1828C81.9123 40.1828 82.1944 40.0659 82.4023 39.8579L84.6826 37.5773C85.116 37.1443 85.116 36.4421 84.6828 36.0091Z" fill="#CF2D21"/>
<path d="M56.6195 60.4053C66.9554 60.4053 75.3644 51.9963 75.3644 41.6604C75.3644 31.3245 66.9554 22.9155 56.6195 22.9155C46.2836 22.9155 37.8746 31.3245 37.8746 41.6604C37.8746 51.9963 46.2836 60.4053 56.6195 60.4053ZM56.6195 25.1333C65.7326 25.1333 73.1465 32.5473 73.1465 41.6604C73.1465 50.7735 65.7326 58.1875 56.6195 58.1875C47.5064 58.1875 40.0924 50.7735 40.0924 41.6604C40.0924 32.5473 47.5064 25.1333 56.6195 25.1333Z" fill="#CF2D21"/>
<path d="M57.7895 46.5487C57.9239 46.6022 58.0625 46.6275 58.1989 46.6275C58.6398 46.6275 59.0568 46.3627 59.2297 45.928L62.2986 38.2124C62.5249 37.6433 62.247 36.9984 61.678 36.7721C61.1092 36.5459 60.4641 36.8236 60.2378 37.3928L57.1689 45.1084C56.9426 45.6775 57.2204 46.3224 57.7895 46.5487Z" fill="#CF2D21"/>
<path d="M64.0562 38.9116H66.6023L63.894 45.0722C63.6475 45.6329 63.9022 46.2871 64.4629 46.5337C64.6082 46.5975 64.7595 46.6278 64.9087 46.6278C65.3352 46.6277 65.7418 46.3803 65.9243 45.9649L69.3162 38.2491C69.467 37.9061 69.4345 37.5104 69.2298 37.1968C69.0249 36.8831 68.6757 36.694 68.3012 36.694H64.0564C63.444 36.694 62.9474 37.1906 62.9474 37.8029C62.9473 38.415 63.4438 38.9116 64.0562 38.9116Z" fill="#CF2D21"/>
<path d="M49.8617 43.8051C50.0612 44.1429 50.4242 44.3502 50.8165 44.3502H53.5587C53.5555 44.7589 53.5523 45.1505 53.5492 45.509C53.544 46.1215 54.0363 46.6221 54.6486 46.6275H54.6584C55.2663 46.6275 55.7617 46.1372 55.767 45.5281C55.7696 45.2379 55.7729 44.826 55.7767 44.3443C56.3351 44.2868 56.7708 43.8149 56.7708 43.2413C56.7708 42.6726 56.3429 42.204 55.7914 42.1398C55.8014 40.3348 55.8052 38.5177 55.7826 38.2456C55.7232 37.5324 55.2877 36.9488 54.6729 36.7583C54.059 36.5684 53.4135 36.7975 52.9459 37.3713C52.5067 37.9099 50.6316 41.2812 49.8457 42.7056C49.6561 43.0492 49.6622 43.4672 49.8617 43.8051ZM53.5802 40.5839C53.5785 41.0628 53.5762 41.5899 53.5732 42.1324H52.7027C53.0109 41.5834 53.3104 41.0543 53.5802 40.5839Z" fill="#CF2D21"/>
<path d="M49.1908 46.685C49.8031 46.6773 50.2933 46.1745 50.2856 45.5622C50.2781 44.9546 49.7831 44.4673 49.1772 44.4673C49.1724 44.4673 49.1676 44.4673 49.1629 44.4674C48.5557 44.4749 47.9179 44.4806 47.3416 44.4833C47.7406 43.9432 48.2528 43.2354 48.8998 42.3109C49.4103 41.5817 49.7439 40.8884 49.8919 40.2504C49.9282 40.1089 49.9584 39.9088 49.9587 39.7015C49.9612 38.0013 48.5756 36.6182 46.8754 36.6182C45.4054 36.6182 44.1332 37.6641 43.85 39.105C43.732 39.7059 44.1233 40.2888 44.7243 40.4069C45.3257 40.5252 45.9082 40.1335 46.0262 39.5325C46.1055 39.1289 46.4627 38.836 46.8754 38.836C47.3337 38.836 47.7099 39.1942 47.739 39.6452L47.7196 39.797C47.6534 40.0499 47.4883 40.4598 47.0829 41.0391C45.8634 42.7814 45.136 43.7338 44.7452 44.2455C44.2441 44.9016 43.9681 45.263 44.1525 45.8632C44.261 46.2159 44.538 46.4973 44.8943 46.6162C45.0424 46.6656 45.1609 46.705 46.6754 46.705C47.27 46.7049 48.0797 46.6989 49.1908 46.685Z" fill="#CF2D21"/>
</g>
<defs>
<clipPath id="clip0">
<rect width="56.7761" height="56.7761" fill="white" transform="translate(28.2314 13.2723)"/>
</clipPath>
</defs>
</svg>
