<svg width="21" height="21" viewBox="0 0 21 21" fill="none" xmlns="http://www.w3.org/2000/svg">
<g clip-path="url(#clip0)">
<path d="M10.5 0C6.15825 0 2.625 3.55775 2.625 7.93187C2.625 14.147 9.75975 20.5642 10.0634 20.8337C10.1885 20.9449 10.3443 21 10.5 21C10.6558 21 10.8115 20.9449 10.9366 20.8346C11.2402 20.5643 18.375 14.147 18.375 7.93187C18.375 3.55775 14.8418 0 10.5 0ZM10.5 12.25C8.08763 12.25 6.125 10.2874 6.125 7.875C6.125 5.46263 8.08763 3.5 10.5 3.5C12.9124 3.5 14.875 5.46263 14.875 7.875C14.875 10.2874 12.9124 12.25 10.5 12.25Z" fill="#AFAFB0"/>
</g>
<defs>
<clipPath id="clip0">
<rect width="21" height="21" fill="white"/>
</clipPath>
</defs>
</svg>
