<svg width="28" height="28" viewBox="0 0 28 28" fill="none" xmlns="http://www.w3.org/2000/svg">
<path d="M9.33408 14C9.33408 11.4228 11.4228 9.33296 14 9.33296C16.5772 9.33296 18.667 11.4228 18.667 14C18.667 16.5772 16.5772 18.667 14 18.667C11.4228 18.667 9.33408 16.5772 9.33408 14ZM6.81117 14C6.81117 17.9704 10.0296 21.1888 14 21.1888C17.9704 21.1888 21.1888 17.9704 21.1888 14C21.1888 10.0296 17.9704 6.81117 14 6.81117C10.0296 6.81117 6.81117 10.0296 6.81117 14ZM19.7934 6.52613C19.7933 6.8584 19.8917 7.18325 20.0762 7.4596C20.2607 7.73595 20.523 7.95138 20.8299 8.07866C21.1368 8.20594 21.4746 8.23934 21.8005 8.17465C22.1264 8.10996 22.4258 7.95007 22.6609 7.71521C22.8959 7.48036 23.0561 7.18107 23.121 6.85521C23.186 6.52935 23.1528 6.19154 23.0258 5.88451C22.8988 5.57748 22.6835 5.31502 22.4073 5.1303C22.1311 4.94559 21.8064 4.84693 21.4741 4.8468H21.4734C21.028 4.84701 20.6009 5.02398 20.2859 5.33885C19.971 5.65372 19.7938 6.08074 19.7934 6.52613ZM8.344 25.3957C6.97906 25.3335 6.23717 25.1061 5.74414 24.9141C5.09051 24.6596 4.62414 24.3565 4.13381 23.8669C3.64347 23.3772 3.33995 22.9113 3.08661 22.2576C2.89442 21.7648 2.66706 21.0227 2.60501 19.6578C2.53714 18.1821 2.52358 17.7388 2.52358 14.0001C2.52358 10.2614 2.53826 9.81938 2.60501 8.34243C2.66717 6.97749 2.89621 6.23683 3.08661 5.74258C3.34107 5.08894 3.64414 4.62258 4.13381 4.13224C4.62347 3.6419 5.08939 3.33838 5.74414 3.08504C6.23694 2.89285 6.97906 2.66549 8.344 2.60344C9.81971 2.53557 10.263 2.52202 14 2.52202C17.737 2.52202 18.1807 2.53669 19.6577 2.60344C21.0226 2.6656 21.7633 2.89464 22.2575 3.08504C22.9112 3.33838 23.3775 3.64258 23.8679 4.13224C24.3582 4.6219 24.6606 5.08894 24.9151 5.74258C25.1073 6.23538 25.3346 6.97749 25.3967 8.34243C25.4645 9.81938 25.4781 10.2614 25.4781 14.0001C25.4781 17.7388 25.4645 18.1808 25.3967 19.6578C25.3345 21.0227 25.106 21.7646 24.9151 22.2576C24.6606 22.9113 24.3575 23.3776 23.8679 23.8669C23.3782 24.3561 22.9112 24.6596 22.2575 24.9141C21.7647 25.1063 21.0226 25.3336 19.6577 25.3957C18.182 25.4635 17.7387 25.4771 14 25.4771C10.2613 25.4771 9.81926 25.4635 8.344 25.3957ZM8.22808 0.084784C6.7377 0.152656 5.71928 0.388976 4.82989 0.735056C3.9088 1.09245 3.12906 1.57192 2.34987 2.34987C1.57069 3.12782 1.09245 3.9088 0.735056 4.82989C0.388976 5.71984 0.152656 6.7377 0.084784 8.22808C0.015792 9.72082 0 10.198 0 14C0 17.802 0.015792 18.2792 0.084784 19.7719C0.152656 21.2624 0.388976 22.2802 0.735056 23.1701C1.09245 24.0906 1.5708 24.8725 2.34987 25.6501C3.12894 26.4277 3.9088 26.9065 4.82989 27.2649C5.72096 27.611 6.7377 27.8473 8.22808 27.9152C9.7216 27.9831 10.198 28 14 28C17.802 28 18.2792 27.9842 19.7719 27.9152C21.2624 27.8473 22.2802 27.611 23.1701 27.2649C24.0906 26.9065 24.8709 26.4281 25.6501 25.6501C26.4293 24.8722 26.9065 24.0906 27.2649 23.1701C27.611 22.2802 27.8485 21.2623 27.9152 19.7719C27.9831 18.2781 27.9989 17.802 27.9989 14C27.9989 10.198 27.9831 9.72082 27.9152 8.22808C27.8473 6.73758 27.611 5.71928 27.2649 4.82989C26.9065 3.90936 26.4281 3.12906 25.6501 2.34987C24.8722 1.57069 24.0906 1.09245 23.1712 0.735056C22.2802 0.388976 21.2623 0.151536 19.773 0.084784C18.2803 0.016912 17.8031 0 14.0011 0C10.1992 0 9.7216 0.015792 8.22808 0.084784Z" fill="url(#paint0_radial)"/>
<defs>
<radialGradient id="paint0_radial" cx="0" cy="0" r="1" gradientUnits="userSpaceOnUse" gradientTransform="translate(3.71997 28.1323) scale(36.5516)">
<stop offset="0.09" stop-color="#636363"/>
</radialGradient>
</defs>
</svg>
