<svg width="326" height="149" viewBox="0 0 326 149" fill="none" xmlns="http://www.w3.org/2000/svg">
<path d="M-39 0H326L231.285 149H-39V0Z" fill="#CF2D21"/>
<path fill-rule="evenodd" clip-rule="evenodd" d="M196.698 105.615C199.07 104.815 201.334 103.78 203.446 102.72C209.941 99.4594 216.012 94.6911 219.998 89.5091C232.348 73.4536 225.601 63.1723 226.555 59.6143C227.235 57.0851 228.108 54.8293 228.653 52.0633C230.749 41.424 229.161 29.2486 217.458 25.618C213.617 24.426 204.437 24.0264 200.759 25.6883C203.146 27.0086 207.378 25.2087 211.961 29.4706C221.36 38.2138 215.84 53.7465 211.214 63.0967C207.842 69.9134 203.75 76.1385 199.56 81.212L192.718 89.0269C190.048 92.0913 186.706 95.411 183.345 98.1032C178.463 102.013 174.659 105.682 168.452 109.177C157.462 115.363 134.531 126.762 125.783 111.599C121.503 104.181 124.763 94.7827 126.844 87.7944C122.864 93.3702 117.384 108.757 117.93 117.882C118.659 130.072 126.05 136.241 138.698 135.993C158.921 135.596 180.539 118.527 190.825 109.778C193.515 107.489 192.488 107.035 196.698 105.615V105.615Z" fill="white"/>
<path fill-rule="evenodd" clip-rule="evenodd" d="M163.123 37.762L171.087 32.5617C185.275 24.0154 206.521 14.8152 222.944 22.2494C225.898 23.5869 228.919 25.7768 230.504 28.0901C234.291 33.6154 233.264 36.5223 234.162 38.0184C235.667 35.3061 236.098 28.1417 235.33 24.9264C234.257 20.437 231.924 17.8352 228.713 16.045C215.079 8.44302 193.146 16.5631 180.703 24.1508C177.505 26.1012 174.421 28.3616 171.582 30.525L163.123 37.7617V37.762Z" fill="white"/>
<path fill-rule="evenodd" clip-rule="evenodd" d="M31.6367 108.207L52.0072 108.313L70.2297 66.4344C74.1076 74.4191 81.1511 101.962 85.191 106.536C88.0456 109.768 95.1308 110.29 99.9103 108.063C104.785 105.792 112.711 93.0125 116.124 87.8043L131.451 66.5041L135.016 108.154C137.428 108.573 155.401 108.401 160.07 108.336C163.106 108.294 163.973 107.209 166.068 105.966C171.102 102.979 176.269 98.9439 180.583 95.3199L184.966 90.8877L154.046 90.9288C153.48 89.2147 149.948 59.0124 150.525 58.5247C151.259 57.9045 177.926 58.2977 180.984 58.2977C191.969 58.2977 200.739 58.4418 204.749 66.3711C207.672 64.344 212.305 51.0624 213.519 46.2465C208.193 42.1678 197.596 40.7837 189.777 40.7787C180.816 40.7729 168.661 40.0897 160.086 40.8753C159.683 41.4278 150.481 51.6161 149.461 51.8098C148.994 47.3244 148.293 44.2623 145.752 42.0961C140.465 37.5889 131.71 39.8094 127.097 45.9586L101.004 81.8919C100.041 83.2116 99.0282 84.6999 97.9116 85.8735C96.7884 84.0494 87.2205 57.7131 85.5582 53.3238C83.3845 47.5849 81.9488 41.7472 76.143 40.092C62.1406 36.1011 57.0471 54.3024 53.325 61.8312C50.8234 66.8912 48.5711 72.0776 46.0671 77.1837C43.6095 82.1932 41.2876 87.3314 38.8503 92.6035L31.637 108.207L31.6367 108.207Z" fill="white"/>
</svg>
