<svg width="110" height="45" viewBox="0 0 110 45" fill="none" xmlns="http://www.w3.org/2000/svg">
<path d="M0 0H110L81.4557 45H0V0Z" fill="#CF2D21"/>
<path fill-rule="evenodd" clip-rule="evenodd" d="M71.3263 31.9606C72.0441 31.7185 72.7292 31.4052 73.3685 31.0844C75.3339 30.0978 77.1712 28.6548 78.3775 27.0867C82.1148 22.2281 80.0729 19.1168 80.3617 18.0401C80.5672 17.2747 80.8317 16.5921 80.9966 15.755C81.6308 12.5354 81.1501 8.85096 77.6087 7.75227C76.4463 7.39158 73.6682 7.27064 72.5554 7.77355C73.2777 8.17309 74.5584 7.62842 75.9451 8.91814C78.7894 11.564 77.1189 16.2644 75.7193 19.0939C74.6987 21.1568 73.4605 23.0406 72.1924 24.5759L70.1221 26.9408C69.3139 27.8681 68.3026 28.8727 67.2855 29.6874C65.8082 30.8707 64.6571 31.981 62.7787 33.0385C59.453 34.9105 52.5138 38.3598 49.8664 33.7714C48.5713 31.5267 49.5577 28.6826 50.1874 26.5678C48.9832 28.2551 47.3249 32.9114 47.4901 35.6728C47.7107 39.3616 49.9472 41.2285 53.7747 41.1534C59.8946 41.0332 66.4363 35.868 69.549 33.2204C70.3633 32.5278 70.0525 32.3902 71.3263 31.9607V31.9606Z" fill="white"/>
<path fill-rule="evenodd" clip-rule="evenodd" d="M61.1657 11.4274L63.5757 9.85375C67.8693 7.26752 74.2986 4.48338 79.2684 6.7331C80.1623 7.13784 81.0765 7.80053 81.5563 8.50056C82.7022 10.1726 82.3914 11.0523 82.6631 11.505C83.1186 10.6843 83.2491 8.51619 83.0166 7.54321C82.6918 6.18464 81.986 5.3973 81.0142 4.85555C76.8884 2.55507 70.2509 5.01233 66.4856 7.30848C65.5179 7.89869 64.5846 8.58275 63.7255 9.2374L61.1657 11.4274V11.4274Z" fill="white"/>
<path fill-rule="evenodd" clip-rule="evenodd" d="M21.376 32.745L27.5404 32.7772L33.0548 20.104C34.2283 22.5203 36.3598 30.8551 37.5823 32.2393C38.4461 33.2173 40.5902 33.3753 42.0366 32.7014C43.5119 32.0141 45.9104 28.1469 46.9431 26.5708L51.5813 20.1251L52.6603 32.7289C53.39 32.8558 58.829 32.8036 60.2418 32.7841C61.1604 32.7714 61.423 32.4429 62.0568 32.0667C63.5802 31.1629 65.1439 29.9418 66.4495 28.8452L67.7756 27.5039L58.4188 27.5164C58.2475 26.9977 57.1788 17.858 57.3533 17.7104C57.5754 17.5227 65.6455 17.6417 66.5707 17.6417C69.8951 17.6417 72.5489 17.6853 73.7623 20.0848C74.6469 19.4714 76.0489 15.4522 76.4163 13.9948C74.8047 12.7606 71.5977 12.3417 69.2317 12.3402C66.5199 12.3384 62.8418 12.1317 60.2466 12.3694C60.1248 12.5366 57.3401 15.6197 57.0313 15.6783C56.8902 14.321 56.678 13.3944 55.9091 12.7388C54.3091 11.3749 51.6595 12.0468 50.2638 13.9077L42.3676 24.7817C42.0761 25.181 41.7697 25.6314 41.4318 25.9865C41.0919 25.4345 38.1965 17.4648 37.6934 16.1365C37.0357 14.3998 36.6012 12.6333 34.8442 12.1324C30.6069 10.9247 29.0656 16.4327 27.9392 18.711C27.1822 20.2422 26.5006 21.8117 25.7428 23.3569C24.9991 24.8728 24.2965 26.4277 23.5589 28.0232L21.3761 32.7449L21.376 32.745Z" fill="white"/>
</svg>
