<svg width="18" height="18" viewBox="0 0 18 18" fill="none" xmlns="http://www.w3.org/2000/svg">
<path d="M17.4912 13.2102L14.9792 10.6982C14.0821 9.80111 12.557 10.16 12.1981 11.3262C11.929 12.1337 11.0319 12.5822 10.2245 12.4028C8.43021 11.9542 6.00797 9.62168 5.55941 7.73772C5.29027 6.93027 5.82855 6.03314 6.63596 5.76404C7.80222 5.40519 8.16108 3.88007 7.26395 2.98295L4.752 0.470991C4.03429 -0.156997 2.95774 -0.156997 2.32975 0.470991L0.625214 2.17553C-1.07933 3.96978 0.804639 8.72455 5.02113 12.941C9.23763 17.1575 13.9924 19.1313 15.7866 17.337L17.4912 15.6324C18.1192 14.9147 18.1192 13.8382 17.4912 13.2102Z" fill="#CF2D21"/>
</svg>
