<svg width="18" height="18" viewBox="0 0 18 18" fill="none" xmlns="http://www.w3.org/2000/svg">
<g opacity="0.75" clip-path="url(#clip0)">
<path d="M17.5097 13.2102L14.9978 10.6982C14.1007 9.80111 12.5755 10.16 12.2167 11.3262C11.9476 12.1337 11.0504 12.5822 10.243 12.4028C8.44877 11.9542 6.02653 9.62168 5.57796 7.73772C5.30883 6.93027 5.8471 6.03314 6.65451 5.76404C7.82078 5.40519 8.17963 3.88007 7.2825 2.98295L4.77055 0.470991C4.05285 -0.156997 2.9763 -0.156997 2.34831 0.470991L0.643768 2.17553C-1.06077 3.96978 0.823194 8.72455 5.03969 12.941C9.25618 17.1575 14.011 19.1313 15.8052 17.337L17.5097 15.6324C18.1378 14.9147 18.1378 13.8382 17.5097 13.2102Z" fill="#949596"/>
</g>
<defs>
<clipPath id="clip0">
<rect width="18" height="18" fill="white"/>
</clipPath>
</defs>
</svg>
