<svg width="21" height="21" viewBox="0 0 21 21" fill="none" xmlns="http://www.w3.org/2000/svg">
<g clip-path="url(#clip0)">
<path d="M20.4557 15.678L17.6646 12.8869C16.6678 11.8901 14.9732 12.2889 14.5745 13.5847C14.2754 14.4819 13.2786 14.9803 12.3815 14.7809C10.3879 14.2825 7.69652 11.6908 7.19812 9.59746C6.89908 8.7003 7.49716 7.70349 8.39429 7.40448C9.69014 7.00576 10.0889 5.31119 9.09205 4.31438L6.30099 1.52332C5.50355 0.825559 4.30738 0.825559 3.60961 1.52332L1.71568 3.41726C-0.178256 5.41087 1.91504 10.6939 6.60003 15.3789C11.285 20.0639 16.5681 22.2569 18.5617 20.2633L20.4557 18.3694C21.1535 17.5719 21.1535 16.3757 20.4557 15.678Z" fill="white"/>
</g>
<defs>
<clipPath id="clip0">
<rect width="20" height="20" fill="white" transform="translate(1 1)"/>
</clipPath>
</defs>
</svg>
