<svg width="21" height="21" viewBox="0 0 21 21" fill="none" xmlns="http://www.w3.org/2000/svg">
<path d="M14.621 12.4845C15.4778 11.2119 15.9783 9.6806 15.9783 8.03447C15.9783 3.62923 12.3944 0.0452881 7.98915 0.0452881C3.5839 0.0452881 0 3.62923 0 8.03443C0 12.4396 3.58395 16.0236 7.98919 16.0236C9.66779 16.0236 11.2268 15.5028 12.514 14.6149L18.8813 20.9546L21 18.836L14.621 12.4845ZM7.98919 13.7797C4.82824 13.7797 2.25652 11.208 2.25652 8.04703C2.25652 4.88607 4.8282 2.3144 7.98919 2.3144C11.1502 2.3144 13.7219 4.88607 13.7219 8.04707C13.7219 11.2081 11.1501 13.7797 7.98919 13.7797Z" fill="#CF2D21"/>
</svg>
