<svg width="21" height="21" viewBox="0 0 21 21" fill="none" xmlns="http://www.w3.org/2000/svg">
<path d="M14.621 12.4846C15.4778 11.2119 15.9783 9.68063 15.9783 8.03451C15.9783 3.62926 12.3944 0.0453186 7.98915 0.0453186C3.5839 0.0453186 0 3.62926 0 8.03446C0 12.4397 3.58395 16.0236 7.98919 16.0236C9.66779 16.0236 11.2268 15.5028 12.514 14.615L18.8813 20.9547L21 18.836L14.621 12.4846ZM7.98919 13.7797C4.82824 13.7797 2.25652 11.208 2.25652 8.04706C2.25652 4.88611 4.8282 2.31443 7.98919 2.31443C11.1502 2.31443 13.7219 4.88611 13.7219 8.0471C13.7219 11.2081 11.1501 13.7797 7.98919 13.7797Z" fill="white"/>
</svg>
