<svg width="129" height="91" viewBox="0 0 129 91" fill="none" xmlns="http://www.w3.org/2000/svg">
<path d="M46.7069 0.945312H129L83.1891 74.9453H0L46.7069 0.945312Z" fill="#D6D6D6" fill-opacity="0.3"/>
<path d="M46.7242 0.945312H129L127.766 2.94531H45.4375L46.7242 0.945312Z" fill="#CF2D21"/>
<path d="M94.2468 30.5519C92.1353 32.1898 91.56 33.034 84.0714 40.4597L79.5821 39.7272L81.6422 37.6631C83.0851 36.2173 83.0856 33.8782 81.6422 32.4325C80.1997 30.9872 77.8638 30.9868 76.4213 32.4325L70.6026 38.2627L50.2527 34.943C48.9376 34.7292 47.5923 35.1651 46.6512 36.108C44.8415 37.9212 45.0871 40.9211 47.1515 42.4178L67.4307 57.1324L63.6341 60.937C62.3329 62.2407 60.9636 64.0336 59.5562 66.2726L50.0989 63.4861C48.7031 63.0753 47.1957 63.4601 46.1647 64.4912C44.4094 66.2499 44.6747 69.1708 46.7136 70.5857L54.4666 75.9632C53.1169 78.9476 52.2964 81.1056 52.2585 81.2053C52.0864 81.659 52.1965 82.1719 52.5387 82.5148C52.8828 82.8596 53.3952 82.967 53.8456 82.7955C53.9451 82.758 56.0989 81.9354 59.0775 80.5831L64.4449 88.3517C65.8595 90.3979 68.7746 90.657 70.5281 88.9002C71.5567 87.8681 71.9407 86.3579 71.5302 84.9593L68.7496 75.484C70.9856 74.0729 72.7741 72.7009 74.0748 71.3982L77.8719 67.5936L92.5573 87.9124C94.0536 89.9843 97.0476 90.225 98.8553 88.4138C99.7959 87.4713 100.231 86.1224 100.018 84.8042L96.7049 64.416L102.523 58.5863C103.966 57.1406 103.966 54.8001 102.523 53.3548C101.081 51.9091 98.7462 51.9091 97.3033 53.3548L95.2427 55.4189L94.5121 50.9208C101.931 43.4099 102.76 42.8469 104.396 40.7313C104.398 40.7289 104.4 40.726 104.402 40.7231C108.197 35.795 109.086 30.8177 106.611 28.337C104.135 25.8583 99.1673 26.7473 94.2468 30.5519V30.5519ZM78.1613 34.1764C78.642 33.6943 79.4211 33.6943 79.9022 34.1764C80.3834 34.6584 80.3829 35.4372 79.9022 35.9192L76.5886 39.2389L73.5956 38.7505L78.1613 34.1764ZM48.5944 40.4202C47.7523 39.81 47.6557 38.5882 48.3916 37.8514C48.7747 37.4671 49.3236 37.2894 49.8581 37.3765L81.9272 42.6081L69.1933 55.3664L48.5944 40.4202ZM47.9047 66.2355C48.2979 65.842 48.8727 65.6947 49.4048 65.8517L58.2503 68.458C57.3457 70.0454 56.4329 71.7988 55.5226 73.6968L48.1147 68.5587C47.3375 68.0193 47.2356 66.9054 47.9047 66.2355ZM68.7871 87.1578C68.1238 87.8224 67.0106 87.7328 66.468 86.9478L61.3399 79.525C63.2356 78.6119 64.9861 77.6969 66.5684 76.7925L69.1693 85.6547C69.3259 86.1883 69.1793 86.7643 68.7871 87.1578ZM99.0437 55.0982C99.5244 54.6166 100.302 54.6161 100.783 55.0982C101.264 55.5803 101.264 56.3604 100.783 56.8425L96.2175 61.4167L95.7306 58.4178L99.0437 55.0982ZM97.5888 85.1996C97.6758 85.7366 97.4984 86.2866 97.1154 86.6704C96.3833 87.4039 95.1629 87.3143 94.5511 86.4667L79.634 65.8281L92.3679 53.0692L97.5888 85.1996ZM72.3348 69.6543C70.9808 71.0114 68.9991 72.4764 66.4449 74.0093C63.1246 76.0017 59.1952 77.8886 55.6509 79.3969C57.1972 75.7493 59.1159 71.7488 61.1472 68.3839C62.6329 65.921 64.0551 64.0019 65.3745 62.6804C95.4316 32.6367 93.6508 34.1865 95.4749 32.7248C97.4984 32.5953 99.2797 33.1973 100.52 34.4398C101.76 35.6823 102.361 37.4676 102.232 39.4946C100.77 41.3266 102.298 39.5596 72.3348 69.6543ZM104.338 36.2549C103.944 34.8959 103.246 33.6842 102.26 32.6964C101.274 31.7092 100.065 31.0089 98.7092 30.615C100.49 29.7101 103.489 28.6968 104.871 30.0804C105.962 31.1741 105.691 33.5816 104.338 36.2549V36.2549Z" fill="#333333"/>
<path d="M81.6422 51.6106L78.1622 55.0968C77.6816 55.5784 77.6816 56.3591 78.1622 56.8407C78.6429 57.3223 79.4216 57.3218 79.9027 56.8407L83.3821 53.3539C83.8628 52.8728 83.8628 52.0922 83.3821 51.6106C82.9015 51.129 82.1228 51.129 81.6422 51.6106V51.6106Z" fill="#333333"/>
<path d="M88.6032 44.6362L85.1218 48.1239C84.6417 48.6054 84.6417 49.3861 85.1218 49.8677C85.603 50.3488 86.3816 50.3488 86.8623 49.8677L90.3432 46.38C90.8238 45.8984 90.8238 45.1178 90.3432 44.6362C89.8625 44.1546 89.0839 44.1546 88.6032 44.6362V44.6362Z" fill="#333333"/>
</svg>
