<svg width="129" height="86" viewBox="0 0 129 86" fill="none" xmlns="http://www.w3.org/2000/svg">
<path d="M46.7069 0.945312H129L83.1891 74.9453H0L46.7069 0.945312Z" fill="#D6D6D6" fill-opacity="0.3"/>
<path d="M46.7242 0.945312H129L127.766 2.94531H45.4375L46.7242 0.945312Z" fill="#CF2D21"/>
<path d="M48.75 85.4453H116.25C118.321 85.4453 120 83.7664 120 81.6953V80.4453C120 78.3742 118.321 76.6953 116.25 76.6953H107.174C108.056 75.63 108.594 74.3226 108.719 72.9453H109.985C113.673 72.9454 117.061 70.9158 118.802 67.6644C120.542 64.413 120.352 60.4677 118.306 57.3991L104.972 37.3991C103.121 34.6137 99.9961 32.9414 96.6512 32.9453H48.75C46.6789 32.9453 45 34.6243 45 36.6953V71.6953C45 72.3857 45.5596 72.9453 46.25 72.9453H78.7812C78.9058 74.3226 79.4444 75.63 80.3262 76.6953H48.75C46.6789 76.6953 45 78.3742 45 80.4453V81.6953C45 83.7664 46.6789 85.4453 48.75 85.4453ZM101.875 76.6953C99.7062 76.6892 97.8704 75.0924 97.5637 72.9453H106.189C105.882 75.0933 104.045 76.6904 101.875 76.6953ZM95.0312 72.9453C95.1558 74.3226 95.6945 75.63 96.5763 76.6953H90.9237C91.8055 75.63 92.3442 74.3226 92.4688 72.9453H95.0312ZM112.333 52.9453H95C94.3096 52.9453 93.75 52.3857 93.75 51.6953V42.9453C93.75 42.255 94.3096 41.6953 95 41.6953H104.833L112.333 52.9453ZM47.5 61.6953H51.25V62.9453C51.25 65.0164 52.9289 66.6953 55 66.6953H63.75C65.8211 66.6953 67.5 65.0164 67.5 62.9453V61.6953H96.25C96.9404 61.6953 97.5 61.1357 97.5 60.4453C97.5 59.755 96.9404 59.1953 96.25 59.1953H67.5V42.9453C67.5 40.8743 65.8211 39.1953 63.75 39.1953H55C52.9289 39.1953 51.25 40.8743 51.25 42.9453V59.1953H47.5V36.6953C47.5 36.005 48.0596 35.4453 48.75 35.4453H96.6512C99.1595 35.4426 101.502 36.6966 102.891 38.7853L103.165 39.1953H95C92.9289 39.1953 91.25 40.8743 91.25 42.9453V51.6953C91.25 53.7664 92.9289 55.4453 95 55.4453H114L116.226 58.7853C116.316 58.9178 116.382 59.0591 116.462 59.1953H102.5C101.81 59.1953 101.25 59.755 101.25 60.4453C101.25 61.1357 101.81 61.6953 102.5 61.6953H117.39C117.752 63.8728 117.139 66.0992 115.713 67.7841C114.287 69.4691 112.192 70.4422 109.985 70.4453H47.5V61.6953ZM65 62.9453C65 63.6357 64.4404 64.1953 63.75 64.1953H55C54.3096 64.1953 53.75 63.6357 53.75 62.9453V42.9453C53.75 42.255 54.3096 41.6953 55 41.6953H63.75C64.4404 41.6953 65 42.255 65 42.9453V62.9453ZM81.3138 72.9453H89.9388C89.6403 75.0982 87.7997 76.7012 85.6263 76.7012C83.4528 76.7012 81.6122 75.0982 81.3138 72.9453ZM47.5 80.4453C47.5 79.755 48.0596 79.1953 48.75 79.1953H116.25C116.94 79.1953 117.5 79.755 117.5 80.4453V81.6953C117.5 82.3857 116.94 82.9453 116.25 82.9453H48.75C48.0596 82.9453 47.5 82.3857 47.5 81.6953V80.4453Z" fill="#262626"/>
</svg>
