<svg width="140" height="86" viewBox="0 0 140 86" fill="none" xmlns="http://www.w3.org/2000/svg">
<path d="M46.7242 0.945312H129L127.766 2.94531H45.4375L46.7242 0.945312Z" fill="#CF2D21"/>
<path d="M46.7069 0.945312H129L83.1891 74.9453H0L46.7069 0.945312Z" fill="#D6D6D6" fill-opacity="0.3"/>
<path d="M139.107 57.773L133.915 54.7579L130.948 42.0824C130.158 38.7087 127.187 36.3525 123.722 36.3525H108.8V33.9853C108.8 32.9951 107.997 32.1925 107.007 32.1925H51.7928C50.8028 32.1925 50 32.9951 50 33.9853V76.7196C50 77.7098 50.8028 78.5124 51.7928 78.5124H57.5547C58.3879 82.6069 62.0161 85.6978 66.3528 85.6978C70.6895 85.6978 74.3178 82.6069 75.151 78.5124H111.446V78.5126C112.279 82.6071 115.907 85.698 120.244 85.698C124.58 85.698 128.209 82.6071 129.042 78.5126H138.207C139.197 78.5126 140 77.71 140 76.7198V59.3234C140 58.6846 139.66 58.094 139.107 57.773ZM66.3528 82.1126C63.3794 82.1126 60.9603 79.6933 60.9603 76.72C60.9603 73.7466 63.3794 71.3273 66.3528 71.3273C69.3263 71.3273 71.7454 73.7464 71.7454 76.72C71.7454 79.6935 69.3263 82.1126 66.3528 82.1126ZM105.214 68.498H89.0437C88.0537 68.498 87.2509 69.3006 87.2509 70.2908C87.2509 71.2809 88.0537 72.0836 89.0437 72.0836H105.214V74.927H75.151C74.3178 70.8325 70.6895 67.7416 66.3528 67.7416C62.0161 67.7416 58.3879 70.8323 57.5547 74.927H53.5856V65.6545H105.214V68.498V68.498ZM105.214 38.1455V62.0689H53.5856V35.7782H105.214V38.1455V38.1455ZM119.2 39.9384H123.722C125.513 39.9383 127.049 41.1561 127.457 42.8996L130.085 54.1271H119.2V39.9384H119.2ZM120.244 82.1126C117.391 82.1126 115.05 79.8856 114.864 77.0791C114.888 76.9631 114.9 76.843 114.9 76.72C114.9 76.5969 114.888 76.4769 114.864 76.3608C115.05 73.5543 117.391 71.3273 120.244 71.3273C123.217 71.3273 125.636 73.7464 125.636 76.72C125.636 79.6935 123.217 82.1126 120.244 82.1126ZM136.414 66.4181H133.004V64.5202H136.414V66.4181ZM136.414 60.9346H131.211C130.221 60.9346 129.418 61.7372 129.418 62.7274V68.2109C129.418 69.2011 130.221 70.0037 131.211 70.0037H136.414V74.927H129.042C128.209 70.8325 124.58 67.7416 120.244 67.7416C115.907 67.7416 112.279 70.8323 111.446 74.927H108.8V39.9383H115.614V55.9199C115.614 56.9101 116.417 57.7127 117.407 57.7127H131.863L136.414 60.356V60.9346H136.414Z" fill="#333333"/>
</svg>
