<svg width="47" height="33" viewBox="0 0 47 33" fill="none" xmlns="http://www.w3.org/2000/svg">
<path d="M47 0.833313H0V32.167H47V0.833313Z" fill="#F0F0F0"/>
<path d="M26.4375 0.833008H20.5625V13.5621H0V19.4371H20.5625V32.1662H26.4375V19.4371H47V13.5621H26.4375V0.833008Z" fill="#D80027"/>
<path d="M36.1484 21.9489L47.0002 27.9778V21.9489H36.1484Z" fill="#0052B4"/>
<path d="M28.6084 21.9489L46.9997 32.1663V29.2771L33.8091 21.9489H28.6084Z" fill="#0052B4"/>
<path d="M42.1009 32.1662L28.6084 24.6697V32.1662H42.1009Z" fill="#0052B4"/>
<path d="M28.6084 21.9489L46.9997 32.1663V29.2771L33.8091 21.9489H28.6084Z" fill="#F0F0F0"/>
<path d="M28.6084 21.9489L46.9997 32.1663V29.2771L33.8091 21.9489H28.6084Z" fill="#D80027"/>
<path d="M8.29302 21.9487L0 26.556V21.9487H8.29302Z" fill="#0052B4"/>
<path d="M18.3912 23.2482V32.1664H2.33984L18.3912 23.2482Z" fill="#0052B4"/>
<path d="M13.1906 21.9489L0 29.2771V32.1663L18.3913 21.9489H13.1906Z" fill="#D80027"/>
<path d="M10.8518 11.0504L0 5.02155V11.0504H10.8518Z" fill="#0052B4"/>
<path d="M18.3913 11.0504L0 0.833008V3.72222L13.1906 11.0504H18.3913Z" fill="#0052B4"/>
<path d="M4.89844 0.833008L18.3909 8.32951V0.833008H4.89844Z" fill="#0052B4"/>
<path d="M18.3913 11.0504L0 0.833008V3.72222L13.1906 11.0504H18.3913Z" fill="#F0F0F0"/>
<path d="M18.3913 11.0504L0 0.833008V3.72222L13.1906 11.0504H18.3913Z" fill="#D80027"/>
<path d="M38.707 11.0503L47.0001 6.44305V11.0503H38.707Z" fill="#0052B4"/>
<path d="M28.6084 9.75122V0.833069H44.6597L28.6084 9.75122Z" fill="#0052B4"/>
<path d="M33.8091 11.0504L46.9997 3.72222V0.833008L28.6084 11.0504H33.8091Z" fill="#D80027"/>
</svg>
