<svg width="18" height="20" viewBox="0 0 18 20" fill="none" xmlns="http://www.w3.org/2000/svg">
<path d="M13.0795 6.1927C11.8912 6.1927 10.9245 5.22598 10.9245 4.03773V0H3.03773C1.84957 0 0.882812 0.96668 0.882812 2.15492V17.845C0.882812 19.0333 1.84957 20 3.03773 20H14.9622C16.1505 20 17.1171 19.0333 17.1171 17.845V6.1927H13.0795ZM11.5104 8.78645C11.834 8.78645 12.0963 9.04879 12.0963 9.37238C12.0963 9.69598 11.834 9.95832 11.5104 9.95832H9.00004C8.67641 9.95832 8.4141 9.69598 8.4141 9.37238C8.4141 9.04879 8.67641 8.78645 9.00004 8.78645H11.5104ZM3.97922 3.13801H7.11719C7.44082 3.13801 7.70312 3.40035 7.70312 3.72395C7.70312 4.04754 7.44082 4.30988 7.11719 4.30988H3.97922C3.65559 4.30988 3.39328 4.04754 3.39328 3.72395C3.39328 3.40035 3.65559 3.13801 3.97922 3.13801ZM3.97922 5.64844H9.00004C9.32359 5.64844 9.58598 5.91078 9.58598 6.23438C9.58598 6.55797 9.32359 6.82031 9.00004 6.82031H3.97922C3.65559 6.82031 3.39328 6.55797 3.39328 6.23438C3.39328 5.91078 3.65559 5.64844 3.97922 5.64844ZM7.07555 16.9036C7.07555 17.2272 6.81324 17.4896 6.48961 17.4896H3.97922C3.65559 17.4896 3.39328 17.2272 3.39328 16.9036V14.3932C3.39328 14.0696 3.65559 13.8073 3.97922 13.8073H6.48961C6.81324 13.8073 7.07555 14.0696 7.07555 14.3932V16.9036ZM7.07555 11.8828C7.07555 12.2064 6.81324 12.4688 6.48961 12.4688H3.97922C3.65559 12.4688 3.39328 12.2064 3.39328 11.8828V9.37234C3.39328 9.04875 3.65559 8.78641 3.97922 8.78641H6.48961C6.81324 8.78641 7.07555 9.04875 7.07555 9.37234V11.8828ZM14.0209 17.4896H9.00004C8.67641 17.4896 8.4141 17.2272 8.4141 16.9036C8.4141 16.58 8.67641 16.3177 9.00004 16.3177H14.0209C14.3444 16.3177 14.6068 16.58 14.6068 16.9036C14.6068 17.2272 14.3444 17.4896 14.0209 17.4896ZM8.4141 14.3932C8.4141 14.0696 8.67641 13.8073 9.00004 13.8073H11.5104C11.834 13.8073 12.0963 14.0696 12.0963 14.3932C12.0963 14.7168 11.834 14.9792 11.5104 14.9792H9.00004C8.67641 14.9792 8.4141 14.7168 8.4141 14.3932ZM14.0209 12.4688H9.00004C8.67641 12.4688 8.4141 12.2064 8.4141 11.8828C8.4141 11.5592 8.67641 11.2969 9.00004 11.2969H14.0209C14.3444 11.2969 14.6068 11.5592 14.6068 11.8828C14.6068 12.2064 14.3444 12.4688 14.0209 12.4688Z" fill="white"/>
</svg>
