<svg xmlns="http://www.w3.org/2000/svg" width="213" height="134" viewBox="0 0 213 134"><g><g><g><text dominant-baseline="text-before-edge" transform="translate(92 2)"><tspan fill="#ff5a5a" font-family="'Myriad Pro','LeagueSpartan-Bold'" font-size="9.59" font-weight="700">SHOP</tspan></text></g></g><g><path fill="#89ceb3" d="M172.456 129.174H38.183V36.473h134.273z"/></g><g opacity=".22"><g opacity=".22"><path fill="#003b32" d="M172.456 36.473v15.49c-1.064-1.015-1.613-2.05-1.613-2.05-4.12 5.017-8.418 0-8.418 0-3.939 5.196-8.942 0-8.942 0-4.637 4.658-8.798 0-8.798 0-4.834 3.762-8.798 0-8.798 0-4.139 4.3-8.2 0-8.2 0-5.88 4.121-9.4 0-9.4 0-4.35 4.3-8.686 0-8.686 0-6.054 3.941-8.799 0-8.799 0-4.82 3.941-8.909 0-8.909 0-4.412 3.941-8.69 0-8.69 0-4.315 4.658-8.799 0-8.799 0-5.232 4.48-9.282 0-9.282 0-4.479 4.48-8.426 0-8.426 0-4.482 4.837-8.798 0-8.798 0-3.966 4.48-8.797.655-8.797.655l-.918.426v-14.52z"/></g></g><g><path fill="#006761" d="M172.456 110.897H38.185v18.275h134.271z"/></g><g><path fill="#006761" d="M84.055 56.066v1.67a.714.714 0 0 1-.717.717H42.964a.715.715 0 0 1-.717-.718v-1.67c0-.396.32-.715.717-.715h40.374c.399 0 .717.318.717.715z"/></g><g><path fill="#003b32" d="M84.055 57.259v.477a.714.714 0 0 1-.717.717H42.964a.715.715 0 0 1-.717-.717v-.477z"/></g><g><path fill="#00947b" d="M82.385 128.694H44.39V58.453h37.995z"/></g><g opacity=".22"><g opacity=".22"><path fill="#002c25" d="M82.385 58.994l-36.257 1.132 1.022 64.476 35.235 2.11v1.982H44.39V58.453h37.995z"/></g></g><g><path fill="#006761" d="M62.076 62.038H47.741v58.057h14.335z"/></g><g><path fill="#003b32" d="M61.001 119.018H48.816V63.111h12.185z"/></g><g opacity=".14"><g opacity=".14"><path fill="#fff" d="M61.001 63.111v4.881c-3.867 3.745-8.211 7.938-12.185 11.784v-6.57l10.461-10.095z"/></g><g opacity=".14"><path fill="#fff" d="M61.001 77.428v17.46l-12.185 12.185v-17.46z"/></g><g opacity=".14"><path fill="#fff" d="M61.001 103.213v6.34l-9.461 9.465h-2.724v-3.62z"/></g></g><g><path fill="#006761" d="M78.92 62.038H64.585v58.057H78.92z"/></g><g><path fill="#003b32" d="M77.845 119.018H65.66V63.111h12.185z"/></g><g opacity=".14"><g opacity=".14"><path fill="#fff" d="M77.845 63.111v6.343c-3.975 3.85-8.318 8.038-12.185 11.78v-6.569l11.973-11.554z"/></g><g opacity=".14"><path fill="#fff" d="M77.845 78.941v17.46l-11.447 11.446h-.738V91.126z"/></g><g opacity=".14"><path fill="#fff" d="M77.845 104.726v6.34l-7.95 7.952H65.66v-2.107z"/></g></g><g><path fill="#00947b" d="M61.478 94.112h-2.787c-.735 0-1.334-.628-1.334-1.4v-6.04c0-.771.6-1.4 1.334-1.4h2.787v1.075h-2.787c-.14 0-.259.149-.259.326v6.039c0 .176.118.325.26.325h2.786z"/></g><g><path fill="#00947b" d="M65.122 94.112h2.787c.735 0 1.334-.628 1.334-1.4v-6.04c0-.771-.599-1.4-1.334-1.4h-2.787v1.075h2.787c.141 0 .26.149.26.326v6.039c0 .176-.119.325-.26.325h-2.787z"/></g><g opacity=".36"><g opacity=".36"><path fill="#002829" d="M87.879 55.348v63.67h77.172l-78.606 2.27v-63.25z"/></g></g><g><path fill="#00947b" d="M166.009 119.018h-78.13V55.349h78.13z"/></g><g opacity=".41"><g opacity=".41"><path fill="#c0ffe7" d="M166.009 55.35v63.668l-1.796-62.117-76.334-1.552z"/></g></g><g><path fill="#006653" d="M90.388 57.856h73.113v58.654H90.388z"/></g><g><path fill="#003b32" d="M162.425 115.434H91.463V58.933h70.962z"/></g><g opacity=".14"><g opacity=".14"><path fill="#fff" d="M117.352 58.933c-8.23 8.229-17.825 17.829-25.89 25.893V74.64l15.708-15.708z"/></g><g opacity=".14"><path fill="#fff" d="M162.425 58.933v2.624l-53.878 53.877H91.463v-12.432l44.069-44.07z"/></g><g opacity=".14"><path fill="#fff" d="M162.425 87.119v8.36l-19.951 19.955h-8.364z"/></g></g><g><path fill="#00947b" d="M165.048 15.688H44.87V9.714h120.178z"/></g><g opacity=".42"><g opacity=".42"><path fill="#003b32" d="M165.048 14.254v1.434H44.87V9.713h1.975v4.54h28.849s-.566 0-.691-4.54h56.383c.02 1.696-.154 3.752-1.04 4.54z"/></g></g><g><path fill="#f24646" d="M39.18 37.907v8.382c0 .23-.02.455-.054.674a3.732 3.732 0 0 1-.053.287v.004a4.28 4.28 0 0 1-4.172 3.315h-.32a4.28 4.28 0 0 1-4.282-4.28v-8.382z"/></g><g><path fill="#f24646" d="M56.722 37.907v8.382a4.283 4.283 0 0 1-4.279 4.28h-.323a4.276 4.276 0 0 1-4.221-3.595 3.966 3.966 0 0 1-.058-.685v-8.382z"/></g><g><path fill="#f24646" d="M74.265 37.907v8.382a4.284 4.284 0 0 1-4.283 4.28h-.32a4.273 4.273 0 0 1-4.278-4.28v-8.382z"/></g><g><path fill="#f24646" d="M91.803 37.907v8.382a4.281 4.281 0 0 1-4.278 4.28h-.32a4.278 4.278 0 0 1-4.282-4.28v-8.382z"/></g><g><path fill="#f24646" d="M109.346 37.907v8.382a4.284 4.284 0 0 1-4.282 4.28h-.32a4.277 4.277 0 0 1-4.28-4.28v-8.382z"/></g><g><path fill="#f24646" d="M126.885 37.907v8.382a4.275 4.275 0 0 1-4.279 4.28h-.32a4.277 4.277 0 0 1-4.224-3.595 3.87 3.87 0 0 1-.058-.685v-8.382z"/></g><g><path fill="#f24646" d="M144.427 37.907v8.382a4.282 4.282 0 0 1-4.278 4.28h-.324a4.276 4.276 0 0 1-4.278-4.28v-8.382z"/></g><g><path fill="#f24646" d="M161.97 37.907v8.382a4.284 4.284 0 0 1-4.283 4.28h-.32a4.274 4.274 0 0 1-4.278-4.28v-8.382z"/></g><g><path fill="#f24646" d="M179.62 37.907v8.382a4.28 4.28 0 0 1-4.283 4.28h-.32a4.279 4.279 0 0 1-4.278-4.28v-8.382z"/></g><g><path fill="#ffdf9c" d="M47.952 37.907v8.382a4.283 4.283 0 0 1-4.282 4.28h-.32a4.273 4.273 0 0 1-4.278-4.28v-8.382z"/></g><g><path fill="#ffdf9c" d="M65.491 37.907v8.382a4.276 4.276 0 0 1-4.279 4.28h-.319a4.277 4.277 0 0 1-4.225-3.595 3.966 3.966 0 0 1-.058-.685v-8.382z"/></g><g><path fill="#ffdf9c" d="M83.034 37.907v8.382a4.282 4.282 0 0 1-4.283 4.28h-.319a4.276 4.276 0 0 1-4.22-3.595 3.87 3.87 0 0 1-.059-.685v-8.382z"/></g><g><path fill="#ffdf9c" d="M100.572 37.907v8.382a4.273 4.273 0 0 1-4.278 4.28h-.32a4.278 4.278 0 0 1-4.282-4.28v-8.382z"/></g><g><path fill="#ffdf9c" d="M118.115 37.907v8.382a4.283 4.283 0 0 1-4.279 4.28h-.323a4.276 4.276 0 0 1-4.22-3.595 3.966 3.966 0 0 1-.059-.685v-8.382z"/></g><g><path fill="#ffdf9c" d="M135.657 37.907v8.382a4.282 4.282 0 0 1-4.282 4.28h-.32a4.273 4.273 0 0 1-4.278-4.28v-8.382z"/></g><g><path fill="#ffdf9c" d="M153.196 37.907v8.382a4.276 4.276 0 0 1-4.278 4.28h-.32a4.277 4.277 0 0 1-4.282-4.28v-8.382z"/></g><g><path fill="#ffdf9c" d="M170.74 37.907v8.382a4.28 4.28 0 0 1-4.284 4.28h-.319a4.276 4.276 0 0 1-4.22-3.595 3.87 3.87 0 0 1-.059-.685v-8.382z"/></g><g opacity=".23"><g opacity=".23"><path fill="#8f2222" d="M179.62 37.907v.383l-.1.094-8.78.132-8.77.129-.112.004-8.662.129h-.107l-8.662.129-.11.003-8.66.129h-.11l-8.662.13-.108.003-8.662.129h-.11l-8.659.133h-.112l-8.662.129-.107.003-8.662.129h-.11l-8.659.129-.11.004-8.659.129h-.112l-8.662.129-.107.004-8.662.129h-.112l-8.658.128-.11.004-8.662.129-.108.004-3.473.05v6.45c0 4.714 2.92 2.208 3.473.27a4.28 4.28 0 0 1-4.172 3.315h-.319a4.28 4.28 0 0 1-4.282-4.28v-8.382z"/></g></g><g><path fill="#ffdf9c" d="M30.3 37.907h149.8l-14.812-22.22H44.872z"/></g><g><path fill="#ff5a5a" d="M39.099 37.907l12.376-22.22h-6.603L30.3 37.908z"/></g><g><path fill="#ff5a5a" d="M48.008 37.907l12.752-22.22h7.352l-11.416 22.22z"/></g><g><path fill="#ff5a5a" d="M100.8 37.907l2.25-22.22h4.54l1.899 22.22z"/></g><g><path fill="#ff5a5a" d="M65.606 37.907l10.689-22.22h5.525l-7.526 22.22z"/></g><g><path fill="#ff5a5a" d="M83.203 37.907l6.44-22.22h6.331l-4.083 22.22z"/></g><g><path fill="#ff5a5a" d="M170.82 37.907l-12.376-22.22h6.603l14.572 22.22z"/></g><g><path fill="#ff5a5a" d="M161.911 37.907l-12.752-22.22h-7.352l11.416 22.22z"/></g><g><path fill="#ff5a5a" d="M144.314 37.907l-10.69-22.22H128.1l7.527 22.22z"/></g><g><path fill="#ff5a5a" d="M126.716 37.907l-6.44-22.22h-6.331l4.083 22.22z"/></g><g opacity=".27"><g opacity=".27"><path fill="#711" d="M165.047 15.688L47.605 18.375 35.6 37.906H30.3l14.572-22.219z"/></g></g><g><path fill="#ff5a5a" d="M121.806 15.688H84.295a7.884 7.884 0 0 1 0-15.77h37.51a7.884 7.884 0 0 1 0 15.77z"/></g><g><path fill="#8f2222" d="M128.257 4.338v6.93c0 .499-.121.972-.344 1.388a2.985 2.985 0 0 1-2.644 1.598h-44.44a2.99 2.99 0 0 1-2.984-2.985V4.338a2.984 2.984 0 0 1 2.985-2.985h44.439a2.99 2.99 0 0 1 2.988 2.985z"/></g><g opacity=".44"><g opacity=".44"><path fill="#ff5a5a" d="M118.005 2.547h6.256c1.355 0 2.455 1.1 2.455 2.456V12.7l-2.06-6.73a2.987 2.987 0 0 0-1.973-1.98z"/></g></g><g><path fill="#610b0b" d="M127.913 12.656a2.986 2.986 0 0 1-2.645 1.598H80.83a2.989 2.989 0 0 1-2.985-2.985V4.338c0-.921.42-1.745 1.075-2.294v8.476c0 1.204.974 2.179 2.18 2.175 8.176-.021 37.051-.086 46.813-.04z"/></g><g><path fill="#378480" d="M212.952 133.593H.077v-4.42h212.875z"/></g></g></svg>