<svg xmlns="http://www.w3.org/2000/svg" width="92.7" height="92.7" viewBox="0 0 92.7 92.7">
  <g id="Group_84" data-name="Group 84" transform="translate(-1273.648 -1891.535)">
    <g id="Group_83" data-name="Group 83">
      <circle id="Ellipse_32" data-name="Ellipse 32" cx="32.774" cy="32.774" r="32.774" transform="translate(1273.648 1937.885) rotate(-45)" fill="#e02a2f"/>
      <path id="Path_338" data-name="Path 338" d="M1320.038,1976.009a.683.683,0,0,1,0-1.366,37.029,37.029,0,0,0,5.844-.469.683.683,0,0,1,.218,1.349,38.591,38.591,0,0,1-6.061.486Zm11.753-1.9a.683.683,0,0,1-.215-1.331,36.6,36.6,0,0,0,7.942-3.746.683.683,0,1,1,.727,1.157,37.994,37.994,0,0,1-8.24,3.885A.693.693,0,0,1,1331.791,1974.114Zm-32.447-4.313a.681.681,0,0,1-.377-.114,38.12,38.12,0,0,1-14.074-16.912.683.683,0,1,1,1.257-.534,36.751,36.751,0,0,0,13.572,16.308.683.683,0,0,1-.378,1.252Zm51.865-10.548a.671.671,0,0,1-.377-.114.682.682,0,0,1-.191-.946,36.6,36.6,0,0,0,6.115-20.309.682.682,0,0,1,1.365,0,37.958,37.958,0,0,1-6.342,21.064A.683.683,0,0,1,1351.209,1959.253Zm-68.64-21.6h-.016a.683.683,0,0,1-.666-.7,38.18,38.18,0,0,1,1.3-9.015.683.683,0,1,1,1.319.357,36.81,36.81,0,0,0-1.253,8.691A.682.682,0,0,1,1282.569,1937.65Zm71.876-13.777a.684.684,0,0,1-.629-.415,36.629,36.629,0,0,0-2.724-5.187.682.682,0,1,1,1.153-.729,37.995,37.995,0,0,1,2.828,5.38.683.683,0,0,1-.361.9A.666.666,0,0,1,1354.445,1923.873Zm-68.586-.7a.669.669,0,0,1-.281-.061.683.683,0,0,1-.341-.9,38.18,38.18,0,0,1,2.94-5.325.682.682,0,1,1,1.138.753,36.794,36.794,0,0,0-2.833,5.135A.685.685,0,0,1,1285.859,1923.173Zm62.227-9.361a.677.677,0,0,1-.512-.232,37.064,37.064,0,0,0-6.551-5.85.683.683,0,1,1,.782-1.119,38.337,38.337,0,0,1,6.793,6.066.683.683,0,0,1-.061.964A.675.675,0,0,1,1348.086,1913.812Zm-42.743-9.708a.683.683,0,0,1-.268-1.311,37.9,37.9,0,0,1,14.923-3.031,38.526,38.526,0,0,1,6.944.63.683.683,0,0,1-.246,1.343,37.18,37.18,0,0,0-6.7-.608,36.536,36.536,0,0,0-14.388,2.923A.682.682,0,0,1,1305.343,1904.1Z" fill="#e02a2f"/>
    </g>
    <path id="Path_339" data-name="Path 339" d="M1317.569,1943.736c-.032.111-.062.2-.087.3-1.41,5.528-1.567,6.756-3.017,9.323a28.763,28.763,0,0,1-2.332,3.483c-.1.125-.188.287-.383.247-.213-.045-.229-.236-.252-.406a29.749,29.749,0,0,1-.305-5.06c.074-2.21.347-2.969,3.195-14.944a.838.838,0,0,0-.066-.5,8.423,8.423,0,0,1-.221-5.6c1.289-4.084,5.92-4.4,6.73-1.027.5,2.084-.821,4.812-1.834,8.845-.839,3.327,3.077,5.692,6.425,3.263,3.086-2.239,4.285-7.607,4.057-11.411-.449-7.585-8.766-9.224-14.043-6.782-6.05,2.8-7.425,10.3-4.694,13.723.347.436.613.7.5,1.144-.176.686-.331,1.378-.521,2.06a.729.729,0,0,1-1.079.484,6.189,6.189,0,0,1-2.526-1.893c-2.32-2.872-2.984-8.553.083-13.363,3.4-5.329,9.718-7.484,15.489-6.831,6.891.784,11.248,5.493,12.064,10.836.372,2.433.1,8.434-3.312,12.676-3.93,4.874-10.3,5.2-13.24,2.205C1317.972,1944.279,1317.791,1944.01,1317.569,1943.736Z" fill="#fff" fill-rule="evenodd"/>
  </g>
</svg>
