<svg xmlns="http://www.w3.org/2000/svg" width="21" height="21" viewBox="0 0 21 21"><g><g><path fill="#fbb03b" d="M.553 20.391a.832.832 0 0 1 0-1.178l5.687-5.687a7.883 7.883 0 0 1-1.765-4.974c0-4.365 3.552-7.917 7.917-7.917s7.917 3.552 7.917 7.917-3.552 7.917-7.917 7.917a7.883 7.883 0 0 1-4.974-1.765L1.73 20.391a.828.828 0 0 1-.59.244.828.828 0 0 1-.588-.244zM6.142 8.552a6.256 6.256 0 0 0 6.25 6.25 6.257 6.257 0 0 0 6.25-6.25 6.257 6.257 0 0 0-6.25-6.25 6.257 6.257 0 0 0-6.25 6.25z"/></g></g></svg>