<svg xmlns="http://www.w3.org/2000/svg" width="41.28" height="41.28" viewBox="0 0 41.28 41.28">
  <g id="Group_107" data-name="Group 107" transform="translate(-1371.927 -1338.831)">
    <circle id="Ellipse_41" data-name="Ellipse 41" cx="20.64" cy="20.64" r="20.64" transform="translate(1371.927 1338.831)" fill="#d22215"/>
    <path id="Path_386" data-name="Path 386" d="M1402.956,1352.564c-.619.189-1.264.351-1.911.513-4.586.973-10.7-1.668-13.343,2.641-2.2,3.426-2.9,7.713-5.4,10.776l13.382,13.383a20.653,20.653,0,0,0,17.292-17.295Z" fill="#a81411"/>
    <path id="Path_387" data-name="Path 387" d="M1399.472,1351.112h-13.81a4.907,4.907,0,0,0-4.907,4.907v6.9a4.907,4.907,0,0,0,4.907,4.906h13.81a4.907,4.907,0,0,0,4.907-4.906v-6.9a4.907,4.907,0,0,0-4.907-4.907Zm-3.318,8.694-6.459,3.081a.26.26,0,0,1-.372-.234V1356.3a.26.26,0,0,1,.377-.231l6.46,3.273a.259.259,0,0,1-.006.465Z" fill="#fff"/>
    <path id="Path_388" data-name="Path 388" d="M1399.472,1351.112h-7.044v6.338l3.732,1.891a.259.259,0,0,1-.006.465l-3.726,1.778v6.245h7.044a4.907,4.907,0,0,0,4.907-4.906v-6.9A4.907,4.907,0,0,0,1399.472,1351.112Z" fill="#d1d1d1"/>
  </g>
</svg>
