<svg xmlns="http://www.w3.org/2000/svg" width="78.856" height="78.856" viewBox="0 0 78.856 78.856">
  <g id="Group_96" data-name="Group 96" transform="translate(-1516.365 -1898.457)">
    <g id="Group_95" data-name="Group 95">
      <circle id="Ellipse_36" data-name="Ellipse 36" cx="32.775" cy="32.775" r="32.775" transform="matrix(0.23, -0.973, 0.973, 0.23, 1516.365, 1962.252)" fill="#fd3832"/>
      <path id="Path_351" data-name="Path 351" d="M1555.832,1976.009a.683.683,0,0,1,0-1.366,37.042,37.042,0,0,0,5.845-.469.683.683,0,1,1,.217,1.349,38.588,38.588,0,0,1-6.06.486Zm11.753-1.9a.683.683,0,0,1-.215-1.331,36.588,36.588,0,0,0,7.943-3.746.683.683,0,0,1,.726,1.157,37.983,37.983,0,0,1-8.239,3.885A.7.7,0,0,1,1567.585,1974.114Zm-32.446-4.313a.68.68,0,0,1-.377-.114,38.113,38.113,0,0,1-14.074-16.912.683.683,0,1,1,1.257-.534,36.738,36.738,0,0,0,13.572,16.308.683.683,0,0,1-.378,1.252ZM1587,1959.253a.672.672,0,0,1-.377-.114.681.681,0,0,1-.191-.946,36.594,36.594,0,0,0,6.114-20.309.683.683,0,0,1,1.366,0,37.951,37.951,0,0,1-6.343,21.064A.681.681,0,0,1,1587,1959.253Zm-68.64-21.6h-.017a.683.683,0,0,1-.666-.7,38.237,38.237,0,0,1,1.3-9.015.683.683,0,0,1,1.319.357,36.747,36.747,0,0,0-1.253,8.691A.683.683,0,0,1,1518.364,1937.65Zm71.875-13.777a.682.682,0,0,1-.628-.415,36.61,36.61,0,0,0-2.725-5.187.683.683,0,0,1,1.154-.729,38.089,38.089,0,0,1,2.827,5.38.682.682,0,0,1-.36.9A.667.667,0,0,1,1590.239,1923.873Zm-68.586-.7a.664.664,0,0,1-.28-.061.682.682,0,0,1-.341-.9,38.2,38.2,0,0,1,2.939-5.325.683.683,0,0,1,1.139.753,36.788,36.788,0,0,0-2.834,5.135A.685.685,0,0,1,1521.653,1923.173Zm62.227-9.361a.68.68,0,0,1-.512-.232,37.024,37.024,0,0,0-6.55-5.85.682.682,0,0,1,.781-1.119,38.3,38.3,0,0,1,6.793,6.066.683.683,0,0,1-.512,1.135Zm-42.743-9.708a.683.683,0,0,1-.267-1.311,37.894,37.894,0,0,1,14.923-3.031,38.535,38.535,0,0,1,6.944.63.683.683,0,0,1-.247,1.343,37.169,37.169,0,0,0-6.7-.608,36.529,36.529,0,0,0-14.388,2.923A.686.686,0,0,1,1541.137,1904.1Z" fill="#fd3832"/>
    </g>
    <path id="Path_352" data-name="Path 352" d="M1540.513,1950.586a4.482,4.482,0,0,1-2.956-2.87c-1.279-3.519-1.657-18.236.805-21.135a4.775,4.775,0,0,1,3.217-1.709c6.637-.714,27.153-.612,29.518.24a4.624,4.624,0,0,1,2.9,2.791c1.4,3.637,1.448,16.869-.185,20.373a4.5,4.5,0,0,1-2.081,2.1C1569.258,1951.676,1543.77,1951.66,1540.513,1950.586Zm10.544-6.9,11.955-6.2-11.955-6.238Z" fill="#fff" fill-rule="evenodd"/>
  </g>
</svg>
