<?xml version="1.0" encoding="utf-8"?>
<!-- Generator: Adobe Illustrator 16.0.0, SVG Export Plug-In . SVG Version: 6.00 Build 0)  -->
<!DOCTYPE svg PUBLIC "-//W3C//DTD SVG 1.1//EN" "http://www.w3.org/Graphics/SVG/1.1/DTD/svg11.dtd">
<svg version="1.1" id="Capa_1" xmlns="http://www.w3.org/2000/svg" xmlns:xlink="http://www.w3.org/1999/xlink" x="0px" y="0px"
	 width="800px" height="800px" viewBox="0 0 800 800" enable-background="new 0 0 800 800" xml:space="preserve">
<g>
	<path fill="#FFE000" d="M76.419,659.064v-1c0-6.563-5.34-11.903-11.903-11.903H24.807V411.903h607.451
		c6.563,0,11.903-5.34,11.903-11.903v-1h27.807v1c0,6.563,5.34,11.903,11.903,11.903h91.322v234.258H116.129
		c-6.563,0-11.903,5.34-11.903,11.903v1H76.419z"/>
	<path fill="#FFE000" d="M116.129,645.161h658.064V412.903h-90.322c-7.128,0-12.903-5.777-12.903-12.903h-25.807
		c0,7.126-5.775,12.903-12.903,12.903H25.807v232.258h38.709c7.128,0,12.903,5.777,12.903,12.903h25.806
		C103.226,650.938,109.001,645.161,116.129,645.161z"/>
	<path fill="#164FCE" d="M644.161,401v-1c0-6.563-5.34-11.903-11.903-11.903H24.807V153.839h750.387v234.258h-91.322
		c-6.563,0-11.903,5.34-11.903,11.903v1H644.161z"/>
	<path fill="#164FCE" d="M683.871,387.097h90.322V154.839H25.807v232.258h606.451c7.128,0,12.903,5.777,12.903,12.903h25.807
		C670.968,392.874,676.743,387.097,683.871,387.097z"/>
	<path d="M787.097,129.032H12.903C5.775,129.032,0,134.81,0,141.936v516.129c0,7.126,5.775,12.903,12.903,12.903h51.613
		c7.128,0,12.903-5.777,12.903-12.903s-5.775-12.903-12.903-12.903H25.807V412.903h606.451c7.128,0,12.903-5.777,12.903-12.903
		s-5.775-12.903-12.903-12.903H25.807V154.839h748.387v232.258h-90.322c-7.128,0-12.903,5.777-12.903,12.903
		s5.775,12.903,12.903,12.903h90.322v232.258H116.129c-7.127,0-12.903,5.777-12.903,12.903s5.776,12.903,12.903,12.903h670.968
		c7.128,0,12.903-5.777,12.903-12.903V141.936C800,134.81,794.225,129.032,787.097,129.032z"/>
</g>
</svg>
