<svg width="48" height="48" viewBox="0 0 48 48" fill="none" xmlns="http://www.w3.org/2000/svg">
<path d="M45.1422 11.5519H45.1414L43.1998 11.3432V10H0V14.8H41.5998V16.4H0V33.1999C0 34.6463 0.970403 35.8576 2.28955 36.2527C2.28871 36.9815 2.51915 37.6863 2.98311 38.2623C3.51908 38.9279 4.28314 39.3439 5.12867 39.4351L42.0717 43.5815C42.187 43.5943 42.3013 43.5999 42.415 43.5999C44.0277 43.5999 45.419 42.3799 45.5965 40.731L47.9813 15.0759C48.1702 13.3223 46.8967 11.7407 45.1422 11.5519ZM24.7999 23.6279C24.7999 23.1855 25.1583 22.8279 25.5998 22.8279H38.3999C38.8414 22.8279 39.1998 23.1855 39.1998 23.6279V30.7999C39.1998 31.2423 38.8414 31.5998 38.3999 31.5998H25.5999C25.1584 31.5998 24.8 31.2423 24.8 30.7999V23.6279H24.7999ZM13.6 19.5999H20C20.4415 19.5999 20.8 19.9583 20.8 20.3998C20.8 20.8422 20.4415 21.1998 20 21.1998H13.6C13.1584 21.1998 12.8 20.8422 12.8 20.3998C12.7999 19.9583 13.1583 19.5999 13.6 19.5999ZM20.8 23.5999C20.8 24.0423 20.4415 24.3999 20 24.3999H17.6C17.1584 24.3999 16.8 24.0423 16.8 23.5999C16.8 23.1583 17.1584 22.7999 17.6 22.7999H20C20.4415 22.7999 20.8 23.1583 20.8 23.5999ZM4.00002 19.5999H10.4C10.8416 19.5999 11.2 19.9583 11.2 20.3998C11.2 20.8422 10.8416 21.1998 10.4 21.1998H4.00002C3.55845 21.1998 3.20005 20.8422 3.20005 20.3998C3.19996 19.9583 3.55836 19.5999 4.00002 19.5999ZM3.19996 23.5999C3.19996 23.1583 3.55836 22.7999 3.99992 22.7999H14.3999C14.8415 22.7999 15.1999 23.1583 15.1999 23.5999C15.1999 24.0423 14.8415 24.3999 14.3999 24.3999H4.00002C3.55836 24.3999 3.19996 24.0423 3.19996 23.5999ZM46.3894 14.9159L44.0047 40.5703C43.9103 41.4478 43.1246 42.0847 42.2463 41.991L5.30314 37.8447C4.87836 37.7991 4.4967 37.5911 4.22876 37.2583C4.02795 37.0087 3.9088 36.7119 3.88077 36.3999H39.9998C41.7646 36.3999 43.1997 34.9655 43.1997 33.1999V16.4V14.8V12.9528L44.9709 13.1424C45.8478 13.2375 46.4846 14.028 46.3894 14.9159Z" fill="#3E85DC"/>
<path d="M37.6004 24.4277H26.4004V30.0005H37.6004V24.4277Z" fill="#3E85DC"/>
<path d="M43.1998 7.60035C43.1998 5.83551 41.7646 4.40039 39.9999 4.40039H3.19996C1.43512 4.40039 0 5.83561 0 7.60035V8.40032H43.1998V7.60035Z" fill="#3E85DC"/>
</svg>
