<svg width="48" height="48" viewBox="0 0 48 48" fill="none" xmlns="http://www.w3.org/2000/svg">
<path d="M1.68424 29.6099V9.18763C1.68424 8.05281 2.60416 7.13281 3.73906 7.13281H24.1508C25.2856 7.13281 26.2056 8.05281 26.2056 9.18763V29.6099C26.2056 29.9882 25.899 30.2949 25.5206 30.2949H2.36918C1.99082 30.2949 1.68424 29.9882 1.68424 29.6099ZM18.1674 36.6061C18.1674 38.9598 16.2592 40.8679 13.9056 40.8679C11.5519 40.8679 9.64377 38.9598 9.64377 36.6061C9.64377 34.2523 11.5519 32.3443 13.9056 32.3443C16.2592 32.3443 18.1674 34.2523 18.1674 36.6061ZM16.0364 36.6061C16.0364 35.4292 15.0824 34.4752 13.9055 34.4752C12.7286 34.4752 11.7745 35.4292 11.7745 36.6061C11.7745 37.783 12.7286 38.7371 13.9055 38.7371C15.0824 38.7371 16.0364 37.783 16.0364 36.6061ZM10.2349 32.3442H0.684941C0.306667 32.3442 0 32.6509 0 33.0292V35.1072C0 35.4855 0.306667 35.7921 0.684941 35.7921H8.33969C8.53953 34.4208 9.23169 33.2095 10.2349 32.3442ZM40.4657 36.6061C40.4657 38.9598 38.5576 40.8679 36.2039 40.8679C33.8502 40.8679 31.9421 38.9598 31.9421 36.6061C31.9421 34.2523 33.8502 32.3443 36.2039 32.3443C38.5576 32.3442 40.4657 34.2523 40.4657 36.6061ZM38.3349 36.6061C38.3349 35.4292 37.3808 34.4752 36.2039 34.4752C35.027 34.4752 34.073 35.4292 34.073 36.6061C34.073 37.783 35.0271 38.7371 36.2039 38.7371C37.3808 38.7371 38.3349 37.783 38.3349 36.6061ZM48 33.0292V35.1072C48 35.4855 47.6933 35.7921 47.3151 35.7921H41.7696C41.373 33.0719 39.0319 30.9743 36.2041 30.9743C33.3757 30.9743 31.0345 33.072 30.6379 35.7921H19.4715C19.2715 34.4209 18.5795 33.2095 17.5762 32.3442H28.164V12.7528C28.164 11.9963 28.7773 11.3829 29.5339 11.3829H36.0002C37.8209 11.3829 39.5226 12.2873 40.5413 13.7963L44.71 19.9704C45.3214 20.8761 45.6482 21.9438 45.6482 23.0366V32.3442H47.3151C47.6933 32.3442 48 32.6509 48 33.0292ZM41.0516 20.1286L37.7182 15.3919C37.5899 15.2096 37.3809 15.1011 37.158 15.1011H31.9584C31.5802 15.1011 31.2735 15.4078 31.2735 15.7861V20.5227C31.2735 20.9011 31.5802 21.2077 31.9584 21.2077H40.4916C41.0464 21.2077 41.371 20.5824 41.0516 20.1286Z" fill="#3E85DC"/>
</svg>
