<svg width="48" height="48" viewBox="0 0 48 48" fill="none" xmlns="http://www.w3.org/2000/svg">
<path d="M38.4278 3.61921L44.6484 9.95714L42.6005 11.9676L39.6466 8.96054L38.4278 10.1527L41.3817 13.166L40.0628 14.4568L38.1478 12.5011L36.929 13.698L38.8456 15.6536L37.0354 17.4278L34.0816 14.4192L32.8643 15.6145L35.8198 18.6247L34.4993 19.917L32.5843 17.9613L31.364 19.1582L34.9874 22.7582L47.9997 9.98843L38.4623 0.269531L25.2998 13.1848L26.9739 14.8604L38.4278 3.61921Z" fill="#3E85DC"/>
<path d="M19.9572 29.7294L22.1883 32.0011L20.5158 33.6392L17.249 30.3114L16.0318 31.5067L19.297 34.8345L17.9797 36.1268L15.7518 33.8566L14.533 35.0535L16.7609 37.3237L14.9523 39.0994L11.6871 35.7716L10.4668 36.9654L13.7335 40.2947L12.4146 41.5901L10.1851 39.3169L8.96949 40.5137L11.1974 42.7823L9.56871 44.3828L3.34967 38.0418L17.2193 24.4303L15.5437 22.7578L0 38.0089L9.53898 47.7294L25.0889 32.5315L21.176 28.5325L19.9572 29.7294Z" fill="#3E85DC"/>
<path d="M19.3458 9.48842L19.3599 9.47591L12.9625 3.08008L5.44336 10.5992L11.8408 16.9966L11.8501 16.9857L31.6713 36.8068L43.8574 42.1607L39.2906 29.4879L19.3458 9.48842ZM10.6142 12.9695L8.24701 10.6008L12.9657 5.88216L15.3328 8.24774L10.6142 12.9695ZM39.1388 39.0269L32.3065 36.0449L31.4053 35.1406L35.4387 35.3815L34.7581 32.5763L37.7151 33.102L37.7479 29.2783L38.3988 29.9307L41.0022 37.1666L39.1388 39.0269Z" fill="#3E85DC"/>
</svg>
