<svg width="48" height="48" viewBox="0 0 48 48" fill="none" xmlns="http://www.w3.org/2000/svg">
<path d="M43.3302 19.3315C43.3302 8.67188 34.658 0 23.9979 0C13.3383 0 4.66602 8.67188 4.66602 19.3315C4.66602 29.9908 13.3383 38.6627 23.9979 38.6627C34.658 38.6627 43.3302 29.9908 43.3302 19.3315ZM20.5519 27.5779L13.9517 20.9777L15.9523 18.9774L20.5519 23.577L32.0439 12.0853L34.0446 14.0856L20.5519 27.5779Z" fill="#3E85DC"/>
<path d="M6.1333 32.4258L0.28125 40.9611L8.93335 39.3475L10.5469 48L16.0269 40.0074C12.0483 38.4683 8.62207 35.8125 6.1333 32.4258Z" fill="#3E85DC"/>
<path d="M41.8633 32.4258C39.3745 35.8125 35.9482 38.4683 31.9697 40.0074L37.4497 48L39.0632 39.3475L47.7153 40.9611L41.8633 32.4258Z" fill="#3E85DC"/>
</svg>
