<svg width="48" height="48" viewBox="0 0 48 48" fill="none" xmlns="http://www.w3.org/2000/svg">
<path d="M35.6282 12.513L25.1282 0.513C24.8432 0.189 24.4322 0 24.0002 0C23.5682 0 23.1572 0.189 22.8722 0.513L12.3722 12.513C11.9852 12.957 11.8892 13.584 12.1352 14.121C12.3782 14.655 12.9122 15 13.5002 15H19.5002V34.5C19.5002 35.328 20.1722 36 21.0002 36H27.0002C27.8282 36 28.5002 35.328 28.5002 34.5V15H34.5002C35.0882 15 35.6222 14.658 35.8652 14.121C36.1082 13.584 36.0182 12.954 35.6282 12.513Z" fill="#3E85DC"/>
<path d="M40.5 33V42H7.5V33H1.5V45C1.5 46.659 2.844 48 4.5 48H43.5C45.159 48 46.5 46.659 46.5 45V33H40.5Z" fill="#3E85DC"/>
</svg>
