<svg width="24" height="24" viewBox="0 0 24 24" fill="none" xmlns="http://www.w3.org/2000/svg">
<path d="M22.873 11.4195L19.9906 9.98438L13.6533 13.1398C13.1406 13.3951 12.5649 13.5301 11.9883 13.5301C11.4116 13.5301 10.836 13.3951 10.3233 13.1398L3.98598 9.98438L1.10358 11.4195C0.87973 11.531 0.738281 11.7595 0.738281 12.0096C0.738281 12.2598 0.87973 12.4882 1.10358 12.5997L10.9109 17.4828C11.2482 17.6509 11.6182 17.7348 11.9883 17.7348C12.3582 17.7348 12.7283 17.6509 13.0656 17.4831L22.873 12.5997C23.0968 12.4882 23.2383 12.2598 23.2383 12.0096C23.2383 11.7595 23.0968 11.531 22.873 11.4195Z" fill="#68788E"/>
<path d="M22.873 16.945L19.9906 15.5098L13.6533 18.6653C13.1406 18.9206 12.5649 19.0553 11.9883 19.0553C11.4116 19.0553 10.836 18.9206 10.3233 18.6653L3.98598 15.5098L1.10358 16.945C0.87973 17.0564 0.738281 17.285 0.738281 17.535C0.738281 17.785 0.87973 18.0135 1.10358 18.1252L10.9109 23.0083C11.2482 23.1763 11.6182 23.2603 11.9883 23.2603C12.3582 23.2602 12.7283 23.1763 13.0656 23.0083L22.873 18.1252C23.0968 18.0135 23.2383 17.785 23.2383 17.535C23.2383 17.2849 23.0968 17.0564 22.873 16.945Z" fill="#68788E"/>
<path d="M1.10358 7.07718L10.9109 11.9605C11.2482 12.1283 11.6182 12.2125 11.9883 12.2125C12.3584 12.2125 12.7283 12.1283 13.0656 11.9605L22.873 7.07718C23.0968 6.9658 23.2383 6.73715 23.2383 6.48721C23.2383 6.237 23.0968 6.00834 22.873 5.89697L13.0656 1.01355C12.3909 0.677776 11.5856 0.677776 10.9109 1.01355L1.10358 5.89697C0.87973 6.00834 0.738281 6.237 0.738281 6.48721C0.738281 6.73715 0.87973 6.9658 1.10358 7.07718Z" fill="#68788E"/>
</svg>
