<svg width="24" height="24" viewBox="0 0 24 24" fill="none" xmlns="http://www.w3.org/2000/svg">
<path d="M0.842118 14.8049V4.59382C0.842118 4.02641 1.30208 3.56641 1.86953 3.56641H12.0754C12.6428 3.56641 13.1028 4.02641 13.1028 4.59382V14.805C13.1028 14.9941 12.9495 15.1474 12.7603 15.1474H1.18459C0.995412 15.1474 0.842118 14.9941 0.842118 14.8049ZM9.08369 18.303C9.08369 19.4799 8.12961 20.4339 6.95278 20.4339C5.77596 20.4339 4.82188 19.4799 4.82188 18.303C4.82188 17.1261 5.77596 16.1721 6.95278 16.1721C8.12961 16.1721 9.08369 17.1261 9.08369 18.303ZM8.0182 18.303C8.0182 17.7146 7.54118 17.2376 6.95275 17.2376C6.36431 17.2376 5.88726 17.7146 5.88726 18.303C5.88726 18.8915 6.36431 19.3685 6.95275 19.3685C7.54118 19.3685 8.0182 18.8915 8.0182 18.303ZM5.11745 16.1721H0.342471C0.153333 16.1721 0 16.3254 0 16.5146V17.5536C0 17.7427 0.153333 17.8961 0.342471 17.8961H4.16984C4.26976 17.2104 4.61584 16.6048 5.11745 16.1721ZM20.2329 18.303C20.2329 19.4799 19.2788 20.4339 18.102 20.4339C16.9251 20.4339 15.9711 19.4799 15.9711 18.303C15.9711 17.1261 16.9251 16.1721 18.102 16.1721C19.2788 16.1721 20.2329 17.1261 20.2329 18.303ZM19.1675 18.303C19.1675 17.7146 18.6904 17.2376 18.102 17.2376C17.5135 17.2376 17.0365 17.7146 17.0365 18.303C17.0365 18.8915 17.5135 19.3685 18.102 19.3685C18.6904 19.3685 19.1675 18.8915 19.1675 18.303ZM24 16.5146V17.5536C24 17.7427 23.8467 17.8961 23.6575 17.8961H20.8848C20.6865 16.536 19.516 15.4872 18.102 15.4872C16.6878 15.4872 15.5173 16.536 15.3189 17.8961H9.73573C9.63577 17.2105 9.28973 16.6048 8.78812 16.1721H14.082V6.3764C14.082 5.99813 14.3887 5.69146 14.7669 5.69146H18.0001C18.9104 5.69146 19.7613 6.14366 20.2707 6.89813L22.355 9.98522C22.6607 10.438 22.8241 10.9719 22.8241 11.5183V16.1721H23.6575C23.8467 16.1721 24 16.3254 24 16.5146ZM20.5258 10.0643L18.8591 7.69593C18.7949 7.60479 18.6905 7.55056 18.579 7.55056H15.9792C15.7901 7.55056 15.6367 7.70389 15.6367 7.89303V10.2614C15.6367 10.4506 15.7901 10.6038 15.9792 10.6038H20.2458C20.5232 10.6038 20.6855 10.2912 20.5258 10.0643Z" fill="#68788E"/>
</svg>
