<svg width="24" height="24" viewBox="0 0 24 24" fill="none" xmlns="http://www.w3.org/2000/svg">
<path d="M15.0009 6.00025H17.8234L15.0009 3.17773V6.00025Z" fill="#68788E"/>
<path d="M14.1437 6.42942V2.57227H3.00085V24.0007H18.4294V6.85795H14.5723C14.3355 6.85795 14.1437 6.66617 14.1437 6.42942ZM5.57227 5.14372H9.00085V6.00083H5.57227V5.14372ZM5.57227 10.2865H12.4294V11.1437H5.57227V10.2865ZM5.57227 15.4294H8.57227V16.2865H5.57227V15.4294ZM7.28656 21.4293H5.57227V20.5722H7.28656V21.4293ZM15.858 21.4293H8.14373V20.5722H15.858V21.4293ZM15.858 18.8579H5.57227V18.0008H15.858V18.8579ZM15.858 16.2865H9.42944V15.4294H15.858V16.2865ZM15.858 13.7151H5.57227V12.8579H15.858V13.7151ZM15.858 11.1437H13.2866V10.2865H15.858V11.1437ZM15.858 8.57223H5.57227V7.71512H15.858V8.57223Z" fill="#68788E"/>
<path d="M5.57239 0V1.71429H14.5724C14.5815 1.71429 14.59 1.71913 14.5991 1.71951C14.6367 1.72187 14.6742 1.72923 14.7097 1.74175C14.7233 1.74586 14.7364 1.75048 14.7494 1.75597C14.7963 1.77639 14.839 1.80549 14.8754 1.84156L19.1611 6.12727C19.1969 6.16373 19.2262 6.20611 19.2468 6.25284C19.2529 6.26623 19.2565 6.27941 19.2609 6.29314C19.2733 6.32882 19.2807 6.36583 19.2829 6.40328C19.2829 6.41261 19.2883 6.42085 19.2883 6.43018V21.4286H21.0026V0H5.57239Z" fill="#68788E"/>
</svg>
