<svg width="24" height="24" viewBox="0 0 24 24" fill="none" xmlns="http://www.w3.org/2000/svg">
<path d="M21.6914 9.86636C21.5049 9.78873 21.2891 9.83167 21.1465 9.97478L18.0596 13.0607C17.8496 13.2712 17.584 13.4127 17.294 13.4709L14.794 13.9709C14.2959 14.0715 13.792 13.9133 13.4395 13.5612C13.084 13.2052 12.9307 12.6984 13.0293 12.2062L13.4703 10.0001H5.49998C5.22361 10.0001 4.99997 9.7765 4.99997 9.50012C4.99997 9.22375 5.22361 9.00011 5.49998 9.00011H13.8935C13.9109 8.98084 13.921 8.95661 13.9394 8.93809L15.8777 7.00009H5.49998C5.22361 7.00009 4.99997 6.77645 4.99997 6.50008C4.99997 6.2237 5.22361 6.00006 5.49998 6.00006H16.5C16.6065 6.00006 16.6996 6.04066 16.7807 6.09728L20.0254 2.85306C20.2988 2.57912 20.6299 2.36378 21.0098 2.21242C21.1826 2.14356 21.3027 1.98391 21.3213 1.79884C21.3408 1.61331 21.2549 1.43312 21.0996 1.33056C20.7705 1.11423 20.3906 1 20 1H2.00002C0.897469 1.00014 0 1.89714 0 3.00016V22.5002C0 22.7023 0.122063 22.8849 0.308578 22.9621C0.370125 22.9879 0.435516 23.0002 0.499969 23.0002C0.629859 23.0002 0.757781 22.9494 0.8535 22.8537L5.70703 18.0002H20C21.1026 18.0002 22 17.1032 22 16.0001V10.3283C22 10.1261 21.8779 9.94352 21.6914 9.86636ZM11.5 13.0001H5.49998C5.22361 13.0001 4.99997 12.7765 4.99997 12.5001C4.99997 12.2237 5.22361 12.0001 5.49998 12.0001H11.5C11.7764 12.0001 12 12.2237 12 12.5001C12 12.7765 11.7764 13.0001 11.5 13.0001Z" fill="#68788E"/>
<path d="M22.0859 3C21.581 3 21.0878 3.20461 20.7324 3.56053L14.6464 9.64552C14.5761 9.71536 14.5292 9.80419 14.5096 9.90089L14.0096 12.4019C13.9764 12.5659 14.0282 12.7354 14.1464 12.8535C14.2411 12.9482 14.369 13 14.4999 13C14.5321 13 14.5653 12.9966 14.5975 12.9902L17.0966 12.4902C17.1942 12.4707 17.2831 12.4233 17.3524 12.3535L23.4393 6.26756C23.4393 6.26756 23.4393 6.26756 23.4393 6.26709C23.7958 5.91066 23.9999 5.41748 23.9999 4.91405C23.9999 3.85842 23.1415 3 22.0859 3ZM21.2928 6.99994L19.9997 5.7068L20.7067 4.99978L21.9999 6.29302L21.2928 6.99994Z" fill="#68788E"/>
</svg>
