<svg width="24" height="24" viewBox="0 0 24 24" fill="none" xmlns="http://www.w3.org/2000/svg">
<path d="M21 13.875V11.7803L19.6098 10.3902L20.1402 9.85983L21 10.7197V9.15534L19.6098 7.76517L20.1402 7.23483L21 8.09466V6.53034L19.6098 5.14017L20.1402 4.60983L21 5.46966V3.75C20.9998 3.55116 20.9207 3.36053 20.7801 3.21993C20.6395 3.07933 20.4488 3.00024 20.25 3H17.7803L16.3902 4.39017L15.8598 3.85983L16.7197 3H15.1553L13.7652 4.39017L13.2348 3.85983L14.0947 3H12.5303L11.1402 4.39017L10.6098 3.85983L11.4697 3H10.125C9.92616 3.00024 9.73553 3.07933 9.59493 3.21993C9.45433 3.36053 9.37524 3.55116 9.375 3.75V8.25H10.7197L9.85983 7.39017L10.3902 6.85983L11.7803 8.25H14.25C14.6477 8.25045 15.029 8.40863 15.3102 8.68983C15.5914 8.97104 15.7496 9.35231 15.75 9.75V11.4697L16.6098 10.6098L17.1402 11.1402L15.75 12.5303V14.0947L16.6098 13.2348L17.1402 13.7652L16.2803 14.625H20.25C20.4488 14.6248 20.6395 14.5457 20.7801 14.4051C20.9207 14.2645 20.9998 14.0738 21 13.875Z" fill="#68788E"/>
<path d="M6.53034 21H8.09466L7.23483 20.1402L7.76517 19.6098L9.15534 21H10.7197L9.85983 20.1402L10.3902 19.6098L11.7803 21H14.25C14.4488 20.9998 14.6395 20.9207 14.7801 20.7801C14.9207 20.6395 14.9998 20.4488 15 20.25V18.5303L14.1402 19.3902L13.6098 18.8598L15 17.4697V15.9053L14.1402 16.7652L13.6098 16.2348L15 14.8447V13.2803L14.1402 14.1402L13.6098 13.6098L15 12.2197V9.75C14.9998 9.55116 14.9207 9.36053 14.7801 9.21993C14.6395 9.07933 14.4488 9.00024 14.25 9H12.5303L13.3902 9.85983L12.8598 10.3902L11.4697 9H9.90534L10.7652 9.85983L10.2348 10.3902L8.84466 9H7.28034L8.14017 9.85983L7.60983 10.3902L6.21966 9H3.75C3.55116 9.00024 3.36053 9.07933 3.21993 9.21993C3.07933 9.36053 3.00024 9.55116 3 9.75V11.4697L3.85983 10.6098L4.39017 11.1402L3 12.5303V14.0947L3.85983 13.2348L4.39017 13.7652L3 15.1553V16.7197L3.85983 15.8598L4.39017 16.3902L3 17.7803V20.25C3.00024 20.4488 3.07933 20.6395 3.21993 20.7801C3.36053 20.9207 3.55116 20.9998 3.75 21H5.46966L4.60983 20.1402L5.14017 19.6098L6.53034 21Z" fill="#68788E"/>
<path d="M21.75 9.90444L22.6098 10.7643L23.1402 10.2339L21.75 8.84375V9.90444Z" fill="#68788E"/>
<path d="M21.75 12.5294L22.6098 13.3893L23.1402 12.8589L21.75 11.4688V12.5294Z" fill="#68788E"/>
<path d="M15.75 16.7192V17.7799L17.1402 16.3897L16.6098 15.8594L15.75 16.7192Z" fill="#68788E"/>
<path d="M12.8598 23.1402L13.3902 22.6098L12.5303 21.75H11.4696L12.8598 23.1402Z" fill="#68788E"/>
<path d="M8.8446 21.75L10.2348 23.1402L10.7651 22.6098L9.90529 21.75H8.8446Z" fill="#68788E"/>
<path d="M8.14012 22.6098L7.28029 21.75H6.2196L7.60978 23.1402L8.14012 22.6098Z" fill="#68788E"/>
<path d="M2.24998 17.4688L0.859802 18.8589L1.39015 19.3893L2.24998 18.5294V17.4688Z" fill="#68788E"/>
<path d="M2.24998 15.9044V14.8438L0.859802 16.2339L1.39015 16.7643L2.24998 15.9044Z" fill="#68788E"/>
<path d="M2.24998 13.2794V12.2188L0.859802 13.6089L1.39015 14.1393L2.24998 13.2794Z" fill="#68788E"/>
<path d="M4.6098 7.38972L5.46963 8.24955H6.53032L5.14015 6.85938L4.6098 7.38972Z" fill="#68788E"/>
<path d="M7.23328 7.39062L7.76353 6.86037L8.62323 7.72008L8.09298 8.25033L7.23328 7.39062Z" fill="#68788E"/>
<path d="M13.2803 2.24955L14.1402 1.38972L13.6098 0.859375L12.2196 2.24955H13.2803Z" fill="#68788E"/>
<path d="M15.9053 2.24955L16.7652 1.38972L16.2348 0.859375L14.8446 2.24955H15.9053Z" fill="#68788E"/>
<path d="M19.3902 1.38972L18.8598 0.859375L17.4696 2.24955H18.5303L19.3902 1.38972Z" fill="#68788E"/>
<path d="M21.75 7.27944L22.6098 8.13926L23.1402 7.60892L21.75 6.21875V7.27944Z" fill="#68788E"/>
</svg>
