<svg width="24" height="20" viewBox="0 0 24 20" fill="none" xmlns="http://www.w3.org/2000/svg">
<path d="M23.5678 8.84916L20.7969 3.76493H22.8052C23.1611 3.76493 23.4661 3.45988 23.4661 3.10398C23.4661 2.74808 23.1611 2.44303 22.8052 2.44303H14.2891C13.9332 1.17197 12.5859 0.434758 11.3148 0.790654C10.5014 1.01944 9.89124 1.65497 9.66245 2.44303H1.17179C0.815892 2.44303 0.510838 2.74808 0.510838 3.10398C0.510838 3.45988 0.815892 3.76493 1.17179 3.76493H3.18006L0.409154 8.84916C0.154942 8.95084 -0.0230059 9.20506 0.00241521 9.48469C0.00241521 11.8489 1.93442 13.7809 4.29859 13.7809C6.66276 13.7809 8.59476 11.8489 8.59476 9.48469C8.59476 9.20506 8.41682 8.97626 8.18803 8.87458L5.3917 3.73951H9.71329C9.94209 4.52756 10.5522 5.16309 11.3657 5.39188V14.9502C9.58619 15.2553 8.28971 16.8314 8.28971 18.6363C8.28971 18.9922 8.59476 19.2973 8.95066 19.2973H15.128C15.4839 19.2973 15.789 18.9922 15.789 18.6363C15.789 16.8314 14.4925 15.2807 12.713 14.9502V5.4173C13.501 5.18851 14.1366 4.57841 14.3654 3.76493H18.687L15.8398 8.84916C15.5602 8.95084 15.3822 9.20506 15.4076 9.48469C15.4076 11.8489 17.3396 13.7809 19.7038 13.7809C22.068 13.7809 24 11.8489 24 9.48469C24 9.20506 23.8475 8.95084 23.5678 8.84916ZM6.66276 8.79832H1.93442L4.29859 4.4513L6.66276 8.79832ZM17.3651 8.79832L19.7292 4.4513L22.0934 8.79832H17.3651Z" fill="#68788E"/>
</svg>
