<?xml version="1.0" encoding="UTF-8"?><!DOCTYPE svg PUBLIC "-//W3C//DTD SVG 1.1//EN" "http://www.w3.org/Graphics/SVG/1.1/DTD/svg11.dtd"><svg xmlns="http://www.w3.org/2000/svg" xmlns:xlink="http://www.w3.org/1999/xlink"><symbol id="check-mark" viewBox="0 0 45.701 45.7"><path d="M20.687 38.332a5.308 5.308 0 0 1-7.505 0L1.554 26.704A5.306 5.306 0 1 1 9.059 19.2l6.928 6.927a1.344 1.344 0 0 0 1.896 0L36.642 7.368a5.308 5.308 0 0 1 7.505 7.504l-23.46 23.46z"/></symbol><symbol id="search" viewBox="0 0 56.966 56.966"><path d="M55.146 51.887L41.588 37.786A22.926 22.926 0 0 0 46.984 23c0-12.682-10.318-23-23-23s-23 10.318-23 23 10.318 23 23 23c4.761 0 9.298-1.436 13.177-4.162l13.661 14.208c.571.593 1.339.92 2.162.92.779 0 1.518-.297 2.079-.837a3.004 3.004 0 0 0 .083-4.242zM23.984 6c9.374 0 17 7.626 17 17s-7.626 17-17 17-17-7.626-17-17 7.626-17 17-17z"/></symbol><symbol id="star" viewBox="0 0 53.867 53.867"><path d="M26.934 1.318l8.322 16.864 18.611 2.705L40.4 34.013l3.179 18.536-16.645-8.751-16.646 8.751 3.179-18.536L0 20.887l18.611-2.705z"/></symbol></svg>