<svg xmlns="http://www.w3.org/2000/svg" width="22" height="21" viewBox="0 0 22 21"><g><g><path fill="#fff" d="M7.267 16.55a2.258 2.258 0 1 1 0 4.517 2.258 2.258 0 0 1 0-4.517zm0 3.512a1.255 1.255 0 1 0 0-2.51 1.255 1.255 0 0 0 0 2.51z"/></g><g><path fill="#fff" d="M16.799 16.55a2.258 2.258 0 1 1-.002 4.516 2.258 2.258 0 0 1 .002-4.515zm0 3.512a1.255 1.255 0 1 0-.002-2.509 1.255 1.255 0 0 0 .002 2.51z"/></g><g><path fill="#fff" d="M21.89 3.383c.101.117.13.28.076.426L20.762 8.85a2.76 2.76 0 0 1-2.383 2.107L7.82 12.062l-.2.45c-.147.4-.1.844.124 1.205.228.365.624.59 1.054.602h9.757a.5.5 0 0 1 .501.5.5.5 0 0 1-.5.503H8.796a2.333 2.333 0 0 1-1.88-1.053 2.407 2.407 0 0 1-.227-2.183l.251-.576-3.185-9.607a1.306 1.306 0 0 0-1.204-.878H.872a.502.502 0 0 1 0-1.004h1.68A2.31 2.31 0 0 1 4.71 1.577l.451 1.38 16.33.225a.628.628 0 0 1 .4.2zm-1.028.803L5.486 3.959l2.333 7.074 10.435-1.078a1.706 1.706 0 0 0 1.53-1.33z"/></g></g></svg>