<svg id="Component_2_1" data-name="Component 2 – 1" xmlns="http://www.w3.org/2000/svg" width="45" height="58.562" viewBox="0 0 45 58.562">
  <text id="USA" transform="translate(0 50.562)" font-size="22" font-family="Poppins-SemiBold, Poppins" font-weight="600" letter-spacing="0.015em"><tspan x="0" y="0">USA</tspan></text>
  <g id="Group_1081" data-name="Group 1081" transform="translate(-533.919 -35.647)">
    <path id="Path_3292" data-name="Path 3292" d="M575.233,62.122H536.216a.7.7,0,0,1-.7-.7V36.343a.7.7,0,0,1,.7-.7h39.017a.7.7,0,0,1,.7.7V61.426A.7.7,0,0,1,575.233,62.122Z" fill="#f5f5f5"/>
    <g id="Group_1079" data-name="Group 1079">
      <path id="Path_3293" data-name="Path 3293" d="M575.93,37.683H535.52v-1.34a.7.7,0,0,1,.7-.7h39.017a.7.7,0,0,1,.7.7v1.34Z" fill="#ff4b55"/>
      <rect id="Rectangle_420" data-name="Rectangle 420" width="40.41" height="2.037" transform="translate(535.52 43.793)" fill="#ff4b55"/>
      <rect id="Rectangle_421" data-name="Rectangle 421" width="40.41" height="2.037" transform="translate(535.52 39.72)" fill="#ff4b55"/>
      <path id="Path_3294" data-name="Path 3294" d="M575.93,49.9H536.216a.7.7,0,0,1-.7-.7v-1.34h40.41Z" fill="#ff4b55"/>
      <rect id="Rectangle_422" data-name="Rectangle 422" width="40.41" height="2.037" transform="translate(535.52 56.013)" fill="#ff4b55"/>
      <path id="Path_3295" data-name="Path 3295" d="M575.233,62.122H536.216a.7.7,0,0,1-.7-.7v-1.34h40.41v1.34A.7.7,0,0,1,575.233,62.122Z" fill="#ff4b55"/>
      <rect id="Rectangle_423" data-name="Rectangle 423" width="40.41" height="2.037" transform="translate(535.52 51.94)" fill="#ff4b55"/>
    </g>
    <path id="Path_3296" data-name="Path 3296" d="M553.635,35.647H536.216a.7.7,0,0,0-.7.7V49.206a.7.7,0,0,0,.7.7h17.419a.7.7,0,0,0,.7-.7V36.343A.7.7,0,0,0,553.635,35.647Z" fill="#41479b"/>
    <g id="Group_1080" data-name="Group 1080">
      <path id="Path_3297" data-name="Path 3297" d="M537.476,37.246l.154.462.488,0a.066.066,0,0,1,.038.119l-.392.289.147.465a.065.065,0,0,1-.1.073l-.4-.283-.4.283a.066.066,0,0,1-.1-.073l.148-.465-.393-.289a.066.066,0,0,1,.039-.119l.487,0,.155-.462A.065.065,0,0,1,537.476,37.246Z" fill="#f5f5f5"/>
      <path id="Path_3298" data-name="Path 3298" d="M537.476,39.665l.154.463.488,0a.066.066,0,0,1,.038.119l-.392.29.147.464a.066.066,0,0,1-.1.074l-.4-.284-.4.284a.066.066,0,0,1-.1-.073l.148-.465-.393-.29a.066.066,0,0,1,.039-.118l.487,0,.155-.463A.065.065,0,0,1,537.476,39.665Z" fill="#f5f5f5"/>
      <path id="Path_3299" data-name="Path 3299" d="M537.476,42.085l.154.462.488,0a.065.065,0,0,1,.038.118l-.392.29.147.465a.065.065,0,0,1-.1.073l-.4-.283-.4.283a.066.066,0,0,1-.1-.073l.148-.465-.393-.29a.066.066,0,0,1,.039-.118l.487,0,.155-.462A.065.065,0,0,1,537.476,42.085Z" fill="#f5f5f5"/>
      <path id="Path_3300" data-name="Path 3300" d="M537.476,44.5l.154.463.488,0a.066.066,0,0,1,.038.119l-.392.29.147.464a.066.066,0,0,1-.1.074l-.4-.284-.4.284a.066.066,0,0,1-.1-.074l.148-.464-.393-.29a.066.066,0,0,1,.039-.119l.487,0,.155-.463A.065.065,0,0,1,537.476,44.5Z" fill="#f5f5f5"/>
      <path id="Path_3301" data-name="Path 3301" d="M537.476,46.923l.154.463.488,0a.065.065,0,0,1,.038.118l-.392.29.147.465a.065.065,0,0,1-.1.073l-.4-.283-.4.283a.066.066,0,0,1-.1-.073l.148-.465-.393-.29a.066.066,0,0,1,.039-.118l.487,0,.155-.462A.065.065,0,0,1,537.476,46.923Z" fill="#f5f5f5"/>
      <path id="Path_3302" data-name="Path 3302" d="M539.354,38.432l.154.462.488,0a.066.066,0,0,1,.038.119l-.392.289.147.465a.066.066,0,0,1-.1.073l-.4-.283-.4.283a.066.066,0,0,1-.1-.073l.147-.465-.392-.289a.066.066,0,0,1,.039-.119l.487,0,.155-.462A.065.065,0,0,1,539.354,38.432Z" fill="#f5f5f5"/>
      <path id="Path_3303" data-name="Path 3303" d="M539.354,40.851l.154.463.488,0a.065.065,0,0,1,.038.118l-.392.29.147.465a.066.066,0,0,1-.1.073l-.4-.284-.4.284a.066.066,0,0,1-.1-.073l.147-.465-.392-.29a.066.066,0,0,1,.039-.118l.487,0,.155-.463A.066.066,0,0,1,539.354,40.851Z" fill="#f5f5f5"/>
      <path id="Path_3304" data-name="Path 3304" d="M539.354,43.271l.154.462.488,0a.066.066,0,0,1,.038.119l-.392.289.147.465a.066.066,0,0,1-.1.073l-.4-.283-.4.283a.066.066,0,0,1-.1-.073l.147-.465-.392-.289a.066.066,0,0,1,.039-.119l.487,0,.155-.462A.065.065,0,0,1,539.354,43.271Z" fill="#f5f5f5"/>
      <path id="Path_3305" data-name="Path 3305" d="M539.354,45.69l.154.463.488,0a.066.066,0,0,1,.038.119l-.392.29.147.464a.066.066,0,0,1-.1.074l-.4-.284-.4.284a.066.066,0,0,1-.1-.074l.147-.464-.392-.29a.066.066,0,0,1,.039-.119l.487,0,.155-.463A.065.065,0,0,1,539.354,45.69Z" fill="#f5f5f5"/>
      <path id="Path_3306" data-name="Path 3306" d="M541.232,37.246l.154.462.488,0a.066.066,0,0,1,.038.119l-.392.289.147.465a.066.066,0,0,1-.1.073l-.4-.283-.4.283a.066.066,0,0,1-.1-.073l.147-.465-.392-.289a.066.066,0,0,1,.039-.119l.487,0,.154-.462A.066.066,0,0,1,541.232,37.246Z" fill="#f5f5f5"/>
      <path id="Path_3307" data-name="Path 3307" d="M541.232,39.665l.154.463.488,0a.066.066,0,0,1,.038.119l-.392.29.147.464a.066.066,0,0,1-.1.074l-.4-.284-.4.284a.066.066,0,0,1-.1-.074l.147-.464-.392-.29a.066.066,0,0,1,.039-.119l.487,0,.154-.463A.066.066,0,0,1,541.232,39.665Z" fill="#f5f5f5"/>
      <path id="Path_3308" data-name="Path 3308" d="M541.232,42.085l.154.462.488,0a.065.065,0,0,1,.038.118l-.392.29.147.465a.066.066,0,0,1-.1.073l-.4-.283-.4.283a.066.066,0,0,1-.1-.073l.147-.465-.392-.29a.065.065,0,0,1,.039-.118l.487,0,.154-.462A.066.066,0,0,1,541.232,42.085Z" fill="#f5f5f5"/>
      <path id="Path_3309" data-name="Path 3309" d="M541.232,44.5l.154.463.488,0a.066.066,0,0,1,.038.119l-.392.29.147.464a.066.066,0,0,1-.1.074l-.4-.284-.4.284a.066.066,0,0,1-.1-.074l.147-.464-.392-.29a.066.066,0,0,1,.039-.119l.487,0,.154-.463A.066.066,0,0,1,541.232,44.5Z" fill="#f5f5f5"/>
      <path id="Path_3310" data-name="Path 3310" d="M541.232,46.923l.154.463.488,0a.065.065,0,0,1,.038.118l-.392.29.147.465a.066.066,0,0,1-.1.073l-.4-.284-.4.284a.066.066,0,0,1-.1-.073l.147-.465-.392-.29a.065.065,0,0,1,.039-.118l.487,0,.154-.463A.066.066,0,0,1,541.232,46.923Z" fill="#f5f5f5"/>
      <path id="Path_3311" data-name="Path 3311" d="M543.11,38.432l.154.462.488,0a.066.066,0,0,1,.038.119l-.392.289.147.465a.066.066,0,0,1-.1.073l-.4-.283-.4.283a.066.066,0,0,1-.1-.073l.147-.465-.392-.289a.066.066,0,0,1,.039-.119l.487,0,.154-.462A.066.066,0,0,1,543.11,38.432Z" fill="#f5f5f5"/>
      <path id="Path_3312" data-name="Path 3312" d="M543.11,40.851l.154.463.488,0a.065.065,0,0,1,.038.118l-.392.29.147.465a.066.066,0,0,1-.1.073l-.4-.284-.4.284a.066.066,0,0,1-.1-.073l.147-.465-.392-.29a.065.065,0,0,1,.039-.118l.487,0,.154-.463A.066.066,0,0,1,543.11,40.851Z" fill="#f5f5f5"/>
      <path id="Path_3313" data-name="Path 3313" d="M543.11,43.271l.154.462.488,0a.066.066,0,0,1,.038.119l-.392.289.147.465a.066.066,0,0,1-.1.073l-.4-.283-.4.283a.066.066,0,0,1-.1-.073l.147-.465-.392-.289a.066.066,0,0,1,.039-.119l.487,0,.154-.462A.066.066,0,0,1,543.11,43.271Z" fill="#f5f5f5"/>
      <path id="Path_3314" data-name="Path 3314" d="M543.11,45.69l.154.463.488,0a.066.066,0,0,1,.038.119l-.392.29.147.464a.066.066,0,0,1-.1.074l-.4-.284-.4.284a.066.066,0,0,1-.1-.074l.147-.464-.392-.29a.066.066,0,0,1,.039-.119l.487,0,.154-.463A.066.066,0,0,1,543.11,45.69Z" fill="#f5f5f5"/>
      <path id="Path_3315" data-name="Path 3315" d="M544.988,37.246l.154.462.488,0a.066.066,0,0,1,.038.119l-.392.289.147.465a.066.066,0,0,1-.1.073l-.4-.283-.4.283a.066.066,0,0,1-.1-.073l.147-.465-.392-.289a.066.066,0,0,1,.038-.119l.488,0,.154-.462A.066.066,0,0,1,544.988,37.246Z" fill="#f5f5f5"/>
      <path id="Path_3316" data-name="Path 3316" d="M544.988,39.665l.154.463.488,0a.066.066,0,0,1,.038.119l-.392.29.147.464a.066.066,0,0,1-.1.074l-.4-.284-.4.284a.066.066,0,0,1-.1-.074l.147-.464-.392-.29a.066.066,0,0,1,.038-.119l.488,0,.154-.463A.066.066,0,0,1,544.988,39.665Z" fill="#f5f5f5"/>
      <path id="Path_3317" data-name="Path 3317" d="M544.988,42.085l.154.462.488,0a.065.065,0,0,1,.038.118l-.392.29.147.465a.066.066,0,0,1-.1.073l-.4-.283-.4.283a.066.066,0,0,1-.1-.073l.147-.465-.392-.29a.065.065,0,0,1,.038-.118l.488,0,.154-.462A.066.066,0,0,1,544.988,42.085Z" fill="#f5f5f5"/>
      <path id="Path_3318" data-name="Path 3318" d="M544.988,44.5l.154.463.488,0a.066.066,0,0,1,.038.119l-.392.29.147.464a.066.066,0,0,1-.1.074l-.4-.284-.4.284a.066.066,0,0,1-.1-.074l.147-.464-.392-.29a.066.066,0,0,1,.038-.119l.488,0,.154-.463A.066.066,0,0,1,544.988,44.5Z" fill="#f5f5f5"/>
      <path id="Path_3319" data-name="Path 3319" d="M544.988,46.923l.154.463.488,0a.065.065,0,0,1,.038.118l-.392.29.147.465a.066.066,0,0,1-.1.073l-.4-.284-.4.284a.066.066,0,0,1-.1-.073l.147-.465-.392-.29a.065.065,0,0,1,.038-.118l.488,0,.154-.463A.066.066,0,0,1,544.988,46.923Z" fill="#f5f5f5"/>
      <path id="Path_3320" data-name="Path 3320" d="M546.866,38.432l.154.462.487,0a.066.066,0,0,1,.039.119l-.392.289.147.465a.066.066,0,0,1-.1.073l-.4-.283-.4.283a.066.066,0,0,1-.1-.073l.147-.465-.392-.289a.066.066,0,0,1,.038-.119l.488,0,.154-.462A.066.066,0,0,1,546.866,38.432Z" fill="#f5f5f5"/>
      <path id="Path_3321" data-name="Path 3321" d="M546.866,40.851l.154.463.487,0a.065.065,0,0,1,.039.118l-.392.29.147.465a.066.066,0,0,1-.1.073l-.4-.284-.4.284a.066.066,0,0,1-.1-.073l.147-.465-.392-.29a.065.065,0,0,1,.038-.118l.488,0,.154-.463A.066.066,0,0,1,546.866,40.851Z" fill="#f5f5f5"/>
      <path id="Path_3322" data-name="Path 3322" d="M546.866,43.271l.154.462.487,0a.066.066,0,0,1,.039.119l-.392.289.147.465a.066.066,0,0,1-.1.073l-.4-.283-.4.283a.066.066,0,0,1-.1-.073l.147-.465-.392-.289a.066.066,0,0,1,.038-.119l.488,0,.154-.462A.066.066,0,0,1,546.866,43.271Z" fill="#f5f5f5"/>
      <path id="Path_3323" data-name="Path 3323" d="M546.866,45.69l.154.463.487,0a.066.066,0,0,1,.039.119l-.392.29.147.464a.066.066,0,0,1-.1.074l-.4-.284-.4.284a.066.066,0,0,1-.1-.074l.147-.464-.392-.29a.066.066,0,0,1,.038-.119l.488,0,.154-.463A.066.066,0,0,1,546.866,45.69Z" fill="#f5f5f5"/>
      <path id="Path_3324" data-name="Path 3324" d="M548.744,37.246l.154.462.487,0a.066.066,0,0,1,.039.119l-.392.289.147.465a.066.066,0,0,1-.1.073l-.4-.283-.4.283a.066.066,0,0,1-.1-.073l.147-.465-.392-.289a.066.066,0,0,1,.038-.119l.488,0,.154-.462A.066.066,0,0,1,548.744,37.246Z" fill="#f5f5f5"/>
      <path id="Path_3325" data-name="Path 3325" d="M548.744,39.665l.154.463.487,0a.066.066,0,0,1,.039.119l-.392.29.147.464a.066.066,0,0,1-.1.074l-.4-.284-.4.284a.066.066,0,0,1-.1-.074l.147-.464-.392-.29a.066.066,0,0,1,.038-.119l.488,0,.154-.463A.066.066,0,0,1,548.744,39.665Z" fill="#f5f5f5"/>
      <path id="Path_3326" data-name="Path 3326" d="M548.744,42.085l.154.462.487,0a.065.065,0,0,1,.039.118l-.392.29.147.465a.066.066,0,0,1-.1.073l-.4-.283-.4.283a.066.066,0,0,1-.1-.073l.147-.465-.392-.29a.065.065,0,0,1,.038-.118l.488,0,.154-.462A.066.066,0,0,1,548.744,42.085Z" fill="#f5f5f5"/>
      <path id="Path_3327" data-name="Path 3327" d="M548.744,44.5l.154.463.487,0a.066.066,0,0,1,.039.119l-.392.29.147.464a.066.066,0,0,1-.1.074l-.4-.284-.4.284a.066.066,0,0,1-.1-.074l.147-.464-.392-.29a.066.066,0,0,1,.038-.119l.488,0,.154-.463A.066.066,0,0,1,548.744,44.5Z" fill="#f5f5f5"/>
      <path id="Path_3328" data-name="Path 3328" d="M548.744,46.923l.154.463.487,0a.065.065,0,0,1,.039.118l-.392.29.147.465a.066.066,0,0,1-.1.073l-.4-.284-.4.284a.066.066,0,0,1-.1-.073l.147-.465-.392-.29a.065.065,0,0,1,.038-.118l.488,0,.154-.463A.066.066,0,0,1,548.744,46.923Z" fill="#f5f5f5"/>
      <path id="Path_3329" data-name="Path 3329" d="M550.622,38.432l.154.462.487,0a.066.066,0,0,1,.039.119l-.392.289.147.465a.066.066,0,0,1-.1.073l-.4-.283-.4.283a.066.066,0,0,1-.1-.073l.147-.465-.392-.289a.066.066,0,0,1,.038-.119l.488,0,.154-.462A.066.066,0,0,1,550.622,38.432Z" fill="#f5f5f5"/>
      <path id="Path_3330" data-name="Path 3330" d="M550.622,40.851l.154.463.487,0a.065.065,0,0,1,.039.118l-.392.29.147.465a.066.066,0,0,1-.1.073l-.4-.284-.4.284a.066.066,0,0,1-.1-.073l.147-.465-.392-.29a.065.065,0,0,1,.038-.118l.488,0,.154-.463A.066.066,0,0,1,550.622,40.851Z" fill="#f5f5f5"/>
      <path id="Path_3331" data-name="Path 3331" d="M550.622,43.271l.154.462.487,0a.066.066,0,0,1,.039.119l-.392.289.147.465a.066.066,0,0,1-.1.073l-.4-.283-.4.283a.066.066,0,0,1-.1-.073l.147-.465-.392-.289a.066.066,0,0,1,.038-.119l.488,0,.154-.462A.066.066,0,0,1,550.622,43.271Z" fill="#f5f5f5"/>
      <path id="Path_3332" data-name="Path 3332" d="M550.622,45.69l.154.463.487,0a.066.066,0,0,1,.039.119l-.392.29.147.464a.066.066,0,0,1-.1.074l-.4-.284-.4.284a.066.066,0,0,1-.1-.074l.147-.464-.392-.29a.066.066,0,0,1,.038-.119l.488,0,.154-.463A.066.066,0,0,1,550.622,45.69Z" fill="#f5f5f5"/>
      <path id="Path_3333" data-name="Path 3333" d="M552.5,37.246l.154.462.487,0a.066.066,0,0,1,.039.119l-.392.289.147.465a.066.066,0,0,1-.1.073l-.4-.283-.4.283a.066.066,0,0,1-.1-.073l.147-.465-.392-.289a.066.066,0,0,1,.038-.119l.488,0,.154-.462A.066.066,0,0,1,552.5,37.246Z" fill="#f5f5f5"/>
      <path id="Path_3334" data-name="Path 3334" d="M552.5,39.665l.154.463.487,0a.066.066,0,0,1,.039.119l-.392.29.147.464a.066.066,0,0,1-.1.074l-.4-.284-.4.284a.066.066,0,0,1-.1-.074l.147-.464-.392-.29a.066.066,0,0,1,.038-.119l.488,0,.154-.463A.066.066,0,0,1,552.5,39.665Z" fill="#f5f5f5"/>
      <path id="Path_3335" data-name="Path 3335" d="M552.5,42.085l.154.462.487,0a.065.065,0,0,1,.039.118l-.392.29.147.465a.066.066,0,0,1-.1.073l-.4-.283-.4.283a.066.066,0,0,1-.1-.073l.147-.465-.392-.29a.065.065,0,0,1,.038-.118l.488,0,.154-.462A.066.066,0,0,1,552.5,42.085Z" fill="#f5f5f5"/>
      <path id="Path_3336" data-name="Path 3336" d="M552.5,44.5l.154.463.487,0a.066.066,0,0,1,.039.119l-.392.29.147.464a.066.066,0,0,1-.1.074l-.4-.284-.4.284a.066.066,0,0,1-.1-.074l.147-.464-.392-.29a.066.066,0,0,1,.038-.119l.488,0,.154-.463A.066.066,0,0,1,552.5,44.5Z" fill="#f5f5f5"/>
      <path id="Path_3337" data-name="Path 3337" d="M552.5,46.923l.154.463.487,0a.065.065,0,0,1,.039.118l-.392.29.147.465a.066.066,0,0,1-.1.073l-.4-.284-.4.284a.066.066,0,0,1-.1-.073l.147-.465-.392-.29a.065.065,0,0,1,.038-.118l.488,0,.154-.463A.066.066,0,0,1,552.5,46.923Z" fill="#f5f5f5"/>
    </g>
  </g>
</svg>
