<svg id="Component_1_1" data-name="Component 1 – 1" xmlns="http://www.w3.org/2000/svg" width="102.641" height="53.417" viewBox="0 0 102.641 53.417">
  <g id="Group_1083" data-name="Group 1083" transform="translate(-396.748 -37.687)">
    <g id="Group_1082" data-name="Group 1082">
      <path id="Path_3338" data-name="Path 3338" d="M398.307,59.667a9.275,9.275,0,0,1-1.559-5.788v-8.37a9.368,9.368,0,0,1,1.545-5.845q1.543-1.977,5.3-1.977,3.579,0,5.066,1.746a7.518,7.518,0,0,1,1.487,5.008V46.4h-4.619V44.239a11.131,11.131,0,0,0-.1-1.674,1.87,1.87,0,0,0-.52-1.054,1.751,1.751,0,0,0-1.284-.419,1.635,1.635,0,0,0-1.674.838,6.238,6.238,0,0,0-.375,2.453V55.006A5.372,5.372,0,0,0,402,57.459a1.664,1.664,0,0,0,1.616.808,1.5,1.5,0,0,0,1.559-.823,6.58,6.58,0,0,0,.346-2.438V52.725h4.619v1.934a8.085,8.085,0,0,1-1.472,5.181q-1.473,1.833-5.081,1.833Q399.866,61.673,398.307,59.667Z" fill="#1ebbf0"/>
      <path id="Path_3339" data-name="Path 3339" d="M413.721,59.725a8.9,8.9,0,0,1-1.588-5.73V45.278q0-3.781,1.588-5.686t5.311-1.9q3.693,0,5.3,1.919a8.67,8.67,0,0,1,1.6,5.672v8.746a8.791,8.791,0,0,1-1.6,5.7q-1.6,1.948-5.3,1.948Q415.308,61.673,413.721,59.725Zm6.941-2.281a5.057,5.057,0,0,0,.419-2.265V44.123a4.875,4.875,0,0,0-.419-2.237,2.071,2.071,0,0,0-3.261,0,4.862,4.862,0,0,0-.419,2.237V55.179a5.192,5.192,0,0,0,.4,2.28,2.053,2.053,0,0,0,3.276-.015Z" fill="#1ebbf0"/>
      <path id="Path_3340" data-name="Path 3340" d="M427.229,37.975h4.127l2.771,16.164,2.6-16.164h4.3l-4.445,23.381h-4.907Z" fill="#1ebbf0"/>
      <path id="Path_3341" data-name="Path 3341" d="M442.873,37.975h4.734V61.356h-4.734Z" fill="#1ebbf0"/>
      <path id="Path_3342" data-name="Path 3342" d="M450.579,37.975H456.3a11.252,11.252,0,0,1,4.6.765,4.594,4.594,0,0,1,2.367,2.352,10.49,10.49,0,0,1,.708,4.215v8.515a11.2,11.2,0,0,1-.693,4.315,4.634,4.634,0,0,1-2.338,2.425,10.611,10.611,0,0,1-4.532.794h-5.831Zm5.774,20.061a3.4,3.4,0,0,0,1.833-.389,1.739,1.739,0,0,0,.75-1.141,11.211,11.211,0,0,0,.159-2.164v-9.67a8.04,8.04,0,0,0-.188-2.006,1.608,1.608,0,0,0-.765-1.01,3.784,3.784,0,0,0-1.818-.332h-1.011V58.036Z" fill="#1ebbf0"/>
      <path id="Path_3343" data-name="Path 3343" d="M466.541,50.1h7.246v2.858h-7.246Z" fill="#1ebbf0"/>
      <path id="Path_3344" data-name="Path 3344" d="M479.011,42.594a6.39,6.39,0,0,1-.866.36l-.924.332a12.174,12.174,0,0,0-1.587.577V40.544a25,25,0,0,0,2.381-1.169,7.771,7.771,0,0,0,1.977-1.4h3.493V61.356h-4.474Z" fill="#1ebbf0"/>
      <path id="Path_3345" data-name="Path 3345" d="M488.551,60.187a6.426,6.426,0,0,1-1.372-4.489v-.346h4.215a5.436,5.436,0,0,0,.332,2.251,1.379,1.379,0,0,0,1.371.664,1.327,1.327,0,0,0,1.082-.433,2.91,2.91,0,0,0,.505-1.429,21.315,21.315,0,0,0,.145-2.872V51.167a2.506,2.506,0,0,1-1.184.995,4.557,4.557,0,0,1-1.876.361,4.117,4.117,0,0,1-3.781-1.9,9.472,9.472,0,0,1-1.184-5.051q0-7.881,6.293-7.88a5.634,5.634,0,0,1,4.748,1.991,8.749,8.749,0,0,1,1.544,5.484v8.516a10.572,10.572,0,0,1-1.4,5.888q-1.4,2.107-4.921,2.107Q489.921,61.673,488.551,60.187Zm6.278-12.138V44.326a6.41,6.41,0,0,0-.376-2.425,1.475,1.475,0,0,0-2.741.072,9.853,9.853,0,0,0-.347,3.074,22.658,22.658,0,0,0,.087,2.295,2.438,2.438,0,0,0,.476,1.284,1.433,1.433,0,0,0,1.2.491A1.92,1.92,0,0,0,494.829,48.049Z" fill="#1ebbf0"/>
    </g>
  </g>
  <g id="Group_1084" data-name="Group 1084" transform="translate(-396.748 -37.687)">
    <path id="Path_3346" data-name="Path 3346" d="M409.067,78.273a3.562,3.562,0,0,1-.6-2.222V72.839a3.6,3.6,0,0,1,.592-2.243,3.128,3.128,0,0,1,3.977-.089,2.887,2.887,0,0,1,.57,1.922v.753h-1.772v-.83a4.244,4.244,0,0,0-.039-.643.715.715,0,0,0-.2-.4.671.671,0,0,0-.493-.161.625.625,0,0,0-.642.322,2.367,2.367,0,0,0-.145.941v4.076a2.062,2.062,0,0,0,.167.942.637.637,0,0,0,.62.31.576.576,0,0,0,.6-.315,2.525,2.525,0,0,0,.133-.937v-.875h1.772v.742a3.1,3.1,0,0,1-.565,1.989,2.367,2.367,0,0,1-1.949.7A2.416,2.416,0,0,1,409.067,78.273Z" fill="#2d3038"/>
    <path id="Path_3347" data-name="Path 3347" d="M416.755,78.295a3.413,3.413,0,0,1-.61-2.2V72.75a3.338,3.338,0,0,1,.61-2.182,3.188,3.188,0,0,1,4.07.006,3.324,3.324,0,0,1,.615,2.176v3.357a3.375,3.375,0,0,1-.615,2.188,3.145,3.145,0,0,1-4.07,0Zm2.664-.875a1.949,1.949,0,0,0,.16-.87V72.307a1.87,1.87,0,0,0-.16-.858.795.795,0,0,0-1.252,0,1.869,1.869,0,0,0-.161.858V76.55a2,2,0,0,0,.155.875.789.789,0,0,0,1.258-.005Z" fill="#2d3038"/>
    <path id="Path_3348" data-name="Path 3348" d="M424.209,69.948h2.327a3.7,3.7,0,0,1,2.182.532,2.125,2.125,0,0,1,.731,1.839,3.459,3.459,0,0,1-.244,1.412,1.629,1.629,0,0,1-.864.814l1.24,4.375h-1.872l-1.019-4.065h-.664V78.92h-1.817Zm2.36,3.822a1.113,1.113,0,0,0,.9-.316,1.545,1.545,0,0,0,.261-.992,1.632,1.632,0,0,0-.233-.974.992.992,0,0,0-.842-.311h-.631V73.77Z" fill="#2d3038"/>
    <path id="Path_3349" data-name="Path 3349" d="M432.628,78.295a3.419,3.419,0,0,1-.61-2.2V72.75a3.344,3.344,0,0,1,.61-2.182,3.189,3.189,0,0,1,4.071.006,3.323,3.323,0,0,1,.614,2.176v3.357a3.374,3.374,0,0,1-.614,2.188,3.147,3.147,0,0,1-4.071,0Zm2.664-.875a1.948,1.948,0,0,0,.161-.87V72.307a1.869,1.869,0,0,0-.161-.858.795.795,0,0,0-1.252,0,1.869,1.869,0,0,0-.161.858V76.55a1.985,1.985,0,0,0,.156.875.788.788,0,0,0,1.257-.005Z" fill="#2d3038"/>
    <path id="Path_3350" data-name="Path 3350" d="M440.083,69.948h1.273l1.994,4.663V69.948h1.518V78.92h-1.23l-1.994-4.962V78.92h-1.561Z" fill="#2d3038"/>
    <path id="Path_3351" data-name="Path 3351" d="M449.066,69.948h2.027l1.728,8.972h-1.683l-.333-1.971h-1.418l-.343,1.971h-1.717Zm1.562,5.871-.543-3.611-.531,3.611Z" fill="#2d3038"/>
    <path id="Path_3352" data-name="Path 3352" d="M454.516,69.948H456.1l1.064,6.2,1-6.2h1.65l-1.706,8.972h-1.883Z" fill="#2d3038"/>
    <path id="Path_3353" data-name="Path 3353" d="M462.292,69.948h1.817V78.92h-1.817Z" fill="#2d3038"/>
    <path id="Path_3354" data-name="Path 3354" d="M467.022,69.948h2.326a3.693,3.693,0,0,1,2.182.532,2.122,2.122,0,0,1,.732,1.839,3.46,3.46,0,0,1-.244,1.412,1.63,1.63,0,0,1-.864.814l1.24,4.375h-1.872L469.5,74.855h-.664V78.92h-1.817Zm2.36,3.822a1.113,1.113,0,0,0,.9-.316,1.545,1.545,0,0,0,.261-.992,1.632,1.632,0,0,0-.233-.974.992.992,0,0,0-.842-.311h-.631V73.77Z" fill="#2d3038"/>
    <path id="Path_3355" data-name="Path 3355" d="M475.95,78.705a1.833,1.833,0,0,1-.8-.981,4.884,4.884,0,0,1-.233-1.639V69.948h1.795v6.391a2.63,2.63,0,0,0,.155,1.008.747.747,0,0,0,1.285,0,2.65,2.65,0,0,0,.155-1.008V69.948h1.8v6.137a4.859,4.859,0,0,1-.233,1.639,1.824,1.824,0,0,1-.8.981,3.084,3.084,0,0,1-1.568.337A3.052,3.052,0,0,1,475.95,78.705Z" fill="#2d3038"/>
    <path id="Path_3356" data-name="Path 3356" d="M483.394,78.361a3.252,3.252,0,0,1-.676-2.11l1.573-.266a2.95,2.95,0,0,0,.238,1.257.7.7,0,0,0,.648.405.532.532,0,0,0,.466-.205.9.9,0,0,0,.144-.527,1.641,1.641,0,0,0-.238-.9,4.047,4.047,0,0,0-.748-.814l-.931-.809a3.567,3.567,0,0,1-.847-1,2.6,2.6,0,0,1-.294-1.274,2.173,2.173,0,0,1,.648-1.689,2.553,2.553,0,0,1,1.789-.593,1.9,1.9,0,0,1,1.7.7,3.533,3.533,0,0,1,.543,1.789l-1.584.232a3.23,3.23,0,0,0-.161-1.047.535.535,0,0,0-.548-.338.543.543,0,0,0-.465.227.887.887,0,0,0-.167.538,1.369,1.369,0,0,0,.194.748,3.308,3.308,0,0,0,.615.67l.909.8a4.9,4.9,0,0,1,1.008,1.191,2.865,2.865,0,0,1,.365,1.468,2.275,2.275,0,0,1-.288,1.147,2.052,2.052,0,0,1-.814.791,2.486,2.486,0,0,1-1.213.288A2.392,2.392,0,0,1,483.394,78.361Z" fill="#2d3038"/>
  </g>
  <text id="Update_Live_" data-name="Update (Live)" transform="translate(28.49 51.417)" fill="#2d3038" font-size="6" font-family="Poppins-Bold, Poppins" font-weight="700" letter-spacing="0.05em"><tspan x="0" y="0">Update (Live)</tspan></text>
</svg>
