<svg class="mr-3" xmlns="http://www.w3.org/2000/svg" xmlns:xlink="http://www.w3.org/1999/xlink" width="16.846" height="13.237" viewBox="0 0 16.846 13.237">
                  <defs>
                    <linearGradient id="linear-gradient" y1="0.5" x2="1" y2="0.5" gradientUnits="objectBoundingBox">
                      <stop offset="0" stop-color="#26c6da"/>
                      <stop offset="1" stop-color="#0098ff"/>
                    </linearGradient>
                  </defs>
                  <g id="Group_64" data-name="Group 64" transform="translate(-976.814 -380.78)">
                    <g id="Group_63" data-name="Group 63">
                      <path id="Path_193" data-name="Path 193" d="M978.431,384.86q.319.227,1.927,1.34t2.463,1.716c.062.044.2.139.4.286s.373.267.508.358.3.192.489.3a2.812,2.812,0,0,0,.54.254,1.508,1.508,0,0,0,.47.084h.019a1.509,1.509,0,0,0,.471-.084,2.812,2.812,0,0,0,.54-.254c.191-.113.354-.214.489-.3s.3-.21.507-.358.337-.242.4-.286q.865-.6,4.4-3.056A4.464,4.464,0,0,0,993.2,383.7a2.476,2.476,0,0,0,.461-1.419,1.516,1.516,0,0,0-1.5-1.505H978.318a1.342,1.342,0,0,0-1.114.489,1.9,1.9,0,0,0-.39,1.222,2.2,2.2,0,0,0,.517,1.284A4.65,4.65,0,0,0,978.431,384.86Z" fill="url(#linear-gradient)"/>
                      <path id="Path_194" data-name="Path 194" d="M992.72,385.866q-3.082,2.088-4.682,3.244-.535.395-.869.615a5.369,5.369,0,0,1-.889.452,2.714,2.714,0,0,1-1.033.23h-.02a2.722,2.722,0,0,1-1.034-.23,5.394,5.394,0,0,1-.888-.452q-.333-.221-.87-.615-1.269-.931-4.672-3.244a4.964,4.964,0,0,1-.949-.818v7.465a1.507,1.507,0,0,0,1.5,1.5h13.838a1.509,1.509,0,0,0,1.5-1.5v-7.465A5.151,5.151,0,0,1,992.72,385.866Z" fill="url(#linear-gradient)"/>
                    </g>
                  </g>
                </svg>