<svg xmlns="http://www.w3.org/2000/svg" width="51" height="38" viewBox="0 0 51 38"><g><g><path fill="#1a1a1a" d="M50.025 15.352c.195.195.305.46.305.736V29.63a4.172 4.172 0 0 1-4.166 4.167h-1.426c-.863 2.419-3.154 4.166-5.866 4.166-2.712 0-5.003-1.747-5.866-4.166h-15.35c-.864 2.419-3.155 4.166-5.867 4.166-2.713 0-5.004-1.747-5.866-4.166H3.455A3.129 3.129 0 0 1 .33 30.672V4.63A4.172 4.172 0 0 1 4.497.463h23.958c.576 0 1.042.466 1.042 1.042V4.63h9.375c.276 0 .541.11.736.305zM6.58 20.255a1.041 1.041 0 1 0 2.084 0V17.13h2.083a1.041 1.041 0 1 0 0-2.083H8.664v-2.084h3.125a1.04 1.04 0 1 0 0-2.083H7.622c-.576 0-1.042.466-1.042 1.042zm5.21 15.625a4.172 4.172 0 0 0 4.165-4.167 4.172 4.172 0 0 0-4.166-4.166 4.171 4.171 0 0 0-4.167 4.166 4.172 4.172 0 0 0 4.167 4.167zm9.374-17.708c0-.8-.302-1.53-.798-2.084a3.11 3.11 0 0 0 .798-2.083 3.129 3.129 0 0 0-3.125-3.125h-2.084a1.04 1.04 0 0 0-1.04 1.042v8.333a1.04 1.04 0 1 0 2.082 0V17.13h1.042c.573 0 1.041.467 1.041 1.042v2.083a1.041 1.041 0 1 0 2.084 0zm6.25-3.125H25.33v-2.084h3.125a1.04 1.04 0 1 0 0-2.083H24.29c-.576 0-1.042.466-1.042 1.042v8.333c0 .576.466 1.042 1.042 1.042h4.166a1.041 1.041 0 1 0 0-2.084H25.33V17.13h2.084a1.041 1.041 0 0 0 0-2.083zm5.208 6.25h4.167a1.041 1.041 0 0 0 0-2.084h-3.125V17.13h2.083a1.041 1.041 0 1 0 0-2.083h-2.083v-2.084h3.125a1.04 1.04 0 1 0 0-2.083h-4.167c-.576 0-1.042.466-1.042 1.042v8.333c0 .576.466 1.042 1.042 1.042zm6.25 14.583a4.172 4.172 0 0 0 4.167-4.167 4.171 4.171 0 0 0-4.167-4.166 4.172 4.172 0 0 0-4.167 4.166 4.172 4.172 0 0 0 4.167 4.167z"/></g></g></svg>