<svg xmlns="http://www.w3.org/2000/svg" width="47" height="55" viewBox="0 0 47 55"><g><g><path fill="#1a1a1a" d="M40.295 22.283v-4.628C40.295 8.301 32.685.69 23.33.69 13.976.69 6.366 8.301 6.366 17.655v4.628C3 22.511.33 25.321.33 28.744v8.284a6.485 6.485 0 0 0 6.478 6.478h2.558a6.485 6.485 0 0 0 6.478-6.478v-8.284a6.485 6.485 0 0 0-6.035-6.46v-4.629c0-7.456 6.066-13.52 13.52-13.52 7.457 0 13.523 6.064 13.523 13.52v4.628c-3.366.228-6.036 3.038-6.036 6.461v8.284c0 3.423 2.67 6.233 6.036 6.461v3.17a4.643 4.643 0 0 1-4.637 4.636h-6.486a1.721 1.721 0 1 0 0 3.443h6.486c4.455 0 8.08-3.625 8.08-8.08V43.49a6.485 6.485 0 0 0 6.035-6.46v-8.285a6.485 6.485 0 0 0-6.035-6.46z"/></g></g></svg>