<svg xmlns="http://www.w3.org/2000/svg" width="92.7" height="92.7" viewBox="0 0 92.7 92.7">
  <g id="Group_88" data-name="Group 88" transform="translate(-1273.648 -1994.865)">
    <g id="Group_86" data-name="Group 86">
      <circle id="Ellipse_33" data-name="Ellipse 33" cx="32.774" cy="32.774" r="32.774" transform="translate(1273.648 2041.216) rotate(-45)" fill="#fc4d3f"/>
      <path id="Path_342" data-name="Path 342" d="M1320.038,2079.34a.683.683,0,0,1,0-1.366,37.174,37.174,0,0,0,5.844-.469.683.683,0,0,1,.218,1.348,38.606,38.606,0,0,1-6.061.487Zm11.753-1.9a.682.682,0,0,1-.215-1.33,36.607,36.607,0,0,0,7.942-3.746.683.683,0,1,1,.727,1.156,37.941,37.941,0,0,1-8.24,3.886A.688.688,0,0,1,1331.791,2077.444Zm-32.447-4.312a.682.682,0,0,1-.377-.114,38.12,38.12,0,0,1-14.074-16.912.683.683,0,1,1,1.257-.534,36.748,36.748,0,0,0,13.572,16.307.684.684,0,0,1-.378,1.253Zm51.865-10.548a.683.683,0,0,1-.568-1.06,36.6,36.6,0,0,0,6.115-20.309.682.682,0,0,1,1.365,0,37.958,37.958,0,0,1-6.342,21.064A.683.683,0,0,1,1351.209,2062.584Zm-68.64-21.6h-.016a.683.683,0,0,1-.666-.7,38.173,38.173,0,0,1,1.3-9.015.683.683,0,0,1,1.319.356,36.824,36.824,0,0,0-1.253,8.692A.682.682,0,0,1,1282.569,2040.981Zm71.876-13.777a.685.685,0,0,1-.629-.415,36.634,36.634,0,0,0-2.724-5.187.682.682,0,1,1,1.153-.729,37.995,37.995,0,0,1,2.828,5.38.683.683,0,0,1-.361.9A.666.666,0,0,1,1354.445,2027.2Zm-68.586-.7a.684.684,0,0,1-.622-.965,38.3,38.3,0,0,1,2.94-5.325.683.683,0,1,1,1.138.754,36.839,36.839,0,0,0-2.833,5.134A.684.684,0,0,1,1285.859,2026.5Zm62.227-9.362a.679.679,0,0,1-.512-.231,37.055,37.055,0,0,0-6.551-5.85.683.683,0,1,1,.782-1.119,38.328,38.328,0,0,1,6.793,6.066.682.682,0,0,1-.512,1.134Zm-42.743-9.707a.683.683,0,0,1-.268-1.311,37.9,37.9,0,0,1,14.923-3.032,38.427,38.427,0,0,1,6.944.631.683.683,0,0,1-.246,1.343,37.169,37.169,0,0,0-6.7-.608,36.521,36.521,0,0,0-14.388,2.923A.682.682,0,0,1,1305.343,2007.435Z" fill="#fc4d3f"/>
    </g>
    <g id="Group_87" data-name="Group 87">
      <path id="Path_343" data-name="Path 343" d="M1312.315,2038.224c-.007.09-.015.165-.015.236,0,1.819.006,5.755.006,5.755h7.982a6.775,6.775,0,0,1-2.93,4.486,8.557,8.557,0,0,1-4.335,1.393,8.744,8.744,0,0,1-3.233-.376,8.98,8.98,0,0,1-6.147-7.751,8.512,8.512,0,0,1,.18-2.7,8.806,8.806,0,0,1,9.807-6.863,8.041,8.041,0,0,1,4.38,2.113c1.443-1.444,2.87-2.87,4.338-4.342a18.411,18.411,0,0,0-2.641-1.939,14.192,14.192,0,0,0-7.074-1.923c-.476-.008-.952.021-1.426.042a11.733,11.733,0,0,0-2.457.382,14.944,14.944,0,0,0-11.3,13.62,14.051,14.051,0,0,0,.315,4.015,14.761,14.761,0,0,0,5.832,8.911,14.561,14.561,0,0,0,7.96,2.818,15.8,15.8,0,0,0,4.887-.482,12.977,12.977,0,0,0,7.335-4.822,15.983,15.983,0,0,0,2.556-12.57Z" fill="#fff"/>
      <path id="Path_344" data-name="Path 344" d="M1344.37,2038.419h-5.052v-5.2h-4.07v5.2h-5.2v4.069h5.2v5.2h4.07v-5.2h5.2v-4.069Z" fill="#fff"/>
    </g>
  </g>
</svg>
