<svg xmlns="http://www.w3.org/2000/svg" width="31" height="28" viewBox="0 0 31 28"><g><g><path fill="#fbb03b" d="M14.146 27.105c-1.213-1.06-2.382-2.056-3.412-2.934l-.005-.004c-3.022-2.576-5.632-4.8-7.448-6.992C1.25 14.726.304 12.403.304 9.866c0-2.465.847-4.739 2.38-6.404C4.239 1.778 6.37.852 8.686.852c1.732 0 3.318.546 4.714 1.626a9.659 9.659 0 0 1 1.905 1.99 9.69 9.69 0 0 1 1.906-1.99c1.397-1.08 2.983-1.627 4.714-1.627 2.317 0 4.448.927 6 2.611 1.535 1.665 2.38 3.94 2.38 6.404 0 2.537-.945 4.86-2.974 7.31-1.817 2.191-4.426 4.414-7.45 6.99-1.031.88-2.201 1.878-3.416 2.94a1.763 1.763 0 0 1-2.32 0zM3.976 4.653c-1.234 1.34-1.914 3.191-1.914 5.213 0 2.134.794 4.043 2.572 6.188 1.718 2.074 4.274 4.253 7.234 6.775l.006.005c1.036.881 2.208 1.881 3.429 2.95 1.229-1.07 2.404-2.072 3.44-2.955 2.96-2.523 5.515-4.7 7.234-6.775 1.778-2.145 2.57-4.054 2.57-6.188 0-2.022-.678-3.873-1.913-5.213-1.217-1.318-2.888-2.045-4.71-2.045-1.333 0-2.556.424-3.637 1.26-.964.745-1.635 1.687-2.03 2.346a1.1 1.1 0 0 1-.952.541 1.1 1.1 0 0 1-.952-.54c-.394-.66-1.064-1.602-2.028-2.347-1.081-.836-2.305-1.26-3.64-1.26-1.82 0-3.491.727-4.708 2.045z"/></g></g></svg>