<svg xmlns="http://www.w3.org/2000/svg" width="78.856" height="78.856" viewBox="0 0 78.856 78.856">
  <g id="Group_91" data-name="Group 91" transform="translate(-1398.468 -2001.788)">
    <g id="Group_89" data-name="Group 89">
      <circle id="Ellipse_34" data-name="Ellipse 34" cx="32.775" cy="32.775" r="32.775" transform="matrix(0.23, -0.973, 0.973, 0.23, 1398.468, 2065.583)" fill="#007ab5"/>
      <path id="Path_345" data-name="Path 345" d="M1437.935,2079.34a.683.683,0,0,1,0-1.366,37.188,37.188,0,0,0,5.845-.469.683.683,0,0,1,.217,1.348,38.6,38.6,0,0,1-6.06.487Zm11.753-1.9a.682.682,0,0,1-.215-1.33,36.586,36.586,0,0,0,7.942-3.746.683.683,0,1,1,.727,1.156,37.931,37.931,0,0,1-8.239,3.886A.7.7,0,0,1,1449.688,2077.444Zm-32.447-4.312a.679.679,0,0,1-.376-.114,38.121,38.121,0,0,1-14.075-16.912.683.683,0,1,1,1.257-.534,36.744,36.744,0,0,0,13.573,16.307.684.684,0,0,1-.379,1.253Zm51.865-10.548a.675.675,0,0,1-.376-.114.682.682,0,0,1-.192-.946,36.6,36.6,0,0,0,6.115-20.309.683.683,0,0,1,1.366,0,37.959,37.959,0,0,1-6.343,21.064A.683.683,0,0,1,1469.106,2062.584Zm-68.639-21.6h-.017a.682.682,0,0,1-.666-.7,38.23,38.23,0,0,1,1.3-9.015.684.684,0,0,1,1.32.356,36.768,36.768,0,0,0-1.253,8.692A.684.684,0,0,1,1400.467,2040.981Zm71.875-13.777a.683.683,0,0,1-.628-.415,36.741,36.741,0,0,0-2.725-5.187.682.682,0,1,1,1.154-.729,38.09,38.09,0,0,1,2.827,5.38.683.683,0,0,1-.36.9A.67.67,0,0,1,1472.342,2027.2Zm-68.586-.7a.683.683,0,0,1-.621-.965,38.324,38.324,0,0,1,2.939-5.325.683.683,0,0,1,1.139.754,36.833,36.833,0,0,0-2.834,5.134A.684.684,0,0,1,1403.756,2026.5Zm62.227-9.362a.681.681,0,0,1-.512-.231,37.015,37.015,0,0,0-6.551-5.85.683.683,0,0,1,.782-1.119,38.319,38.319,0,0,1,6.793,6.066.682.682,0,0,1-.512,1.134Zm-42.743-9.707a.683.683,0,0,1-.268-1.311,37.9,37.9,0,0,1,14.924-3.032,38.443,38.443,0,0,1,6.944.631.683.683,0,0,1-.247,1.343,37.166,37.166,0,0,0-6.7-.608,36.523,36.523,0,0,0-14.389,2.923A.681.681,0,0,1,1423.24,2007.435Z" fill="#007ab5"/>
    </g>
    <g id="Group_90" data-name="Group 90">
      <path id="Path_346" data-name="Path 346" d="M1422.287,2034.317h7.175v23.045h-7.175Zm3.589-11.452a4.154,4.154,0,1,1-4.159,4.15,4.153,4.153,0,0,1,4.159-4.15" fill="#fff"/>
      <path id="Path_347" data-name="Path 347" d="M1433.956,2034.317h6.872v3.152h.094a7.531,7.531,0,0,1,6.783-3.723c7.252,0,8.59,4.77,8.59,10.977v12.639h-7.159v-11.2c0-2.674-.052-6.111-3.723-6.111-3.729,0-4.3,2.911-4.3,5.916v11.4h-7.16Z" fill="#fff"/>
    </g>
  </g>
</svg>
