<svg xmlns="http://www.w3.org/2000/svg" xmlns:xlink="http://www.w3.org/1999/xlink" width="78.856" height="78.856" viewBox="0 0 78.856 78.856">
  <defs>
    <linearGradient id="linear-gradient" x1="1.042" y1="-0.042" x2="-0.247" y2="1.247" gradientUnits="objectBoundingBox">
      <stop offset="0.011" stop-color="#3542e0"/>
      <stop offset="0.175" stop-color="#3741de"/>
      <stop offset="0.274" stop-color="#3f3fda"/>
      <stop offset="0.357" stop-color="#4e3cd2"/>
      <stop offset="0.43" stop-color="#6237c7"/>
      <stop offset="0.497" stop-color="#7d31b9"/>
      <stop offset="0.559" stop-color="#9d29a7"/>
      <stop offset="0.617" stop-color="#c32193"/>
      <stop offset="0.624" stop-color="#c82091"/>
      <stop offset="0.761" stop-color="#f62b37"/>
      <stop offset="1" stop-color="#ffc658"/>
    </linearGradient>
    <linearGradient id="linear-gradient-2" x1="0.966" y1="0.034" x2="-0.142" y2="1.142" xlink:href="#linear-gradient"/>
  </defs>
  <g id="Group_82" data-name="Group 82" transform="translate(-1516.365 -1795.126)">
    <g id="Group_80" data-name="Group 80">
      <circle id="Ellipse_31" data-name="Ellipse 31" cx="32.775" cy="32.775" r="32.775" transform="matrix(0.23, -0.973, 0.973, 0.23, 1516.365, 1858.922)" fill="url(#linear-gradient)"/>
      <path id="Path_335" data-name="Path 335" d="M1555.832,1872.678a.683.683,0,0,1,0-1.366,37.173,37.173,0,0,0,5.845-.468.683.683,0,1,1,.217,1.348,38.588,38.588,0,0,1-6.06.486Zm11.753-1.9a.683.683,0,0,1-.215-1.331,36.588,36.588,0,0,0,7.943-3.746.683.683,0,0,1,.726,1.157,37.989,37.989,0,0,1-8.239,3.885A.679.679,0,0,1,1567.585,1870.783Zm-32.446-4.313a.687.687,0,0,1-.377-.113,38.112,38.112,0,0,1-14.074-16.913.683.683,0,1,1,1.257-.534,36.739,36.739,0,0,0,13.572,16.308.683.683,0,0,1-.378,1.252ZM1587,1855.923a.683.683,0,0,1-.568-1.061,36.594,36.594,0,0,0,6.114-20.308.683.683,0,0,1,1.366,0,37.947,37.947,0,0,1-6.343,21.063A.682.682,0,0,1,1587,1855.923Zm-68.64-21.6h-.017a.684.684,0,0,1-.666-.7,38.23,38.23,0,0,1,1.3-9.014.683.683,0,1,1,1.319.356,36.747,36.747,0,0,0-1.253,8.692A.684.684,0,0,1,1518.364,1834.32Zm71.875-13.778a.683.683,0,0,1-.628-.414,36.575,36.575,0,0,0-2.725-5.188.682.682,0,0,1,1.154-.729,38.088,38.088,0,0,1,2.827,5.38.681.681,0,0,1-.628.951Zm-68.586-.7a.664.664,0,0,1-.28-.061.682.682,0,0,1-.341-.9,38.207,38.207,0,0,1,2.939-5.325.683.683,0,1,1,1.139.753,36.781,36.781,0,0,0-2.834,5.135A.684.684,0,0,1,1521.653,1819.842Zm62.227-9.361a.682.682,0,0,1-.512-.231,36.981,36.981,0,0,0-6.55-5.851.682.682,0,0,1,.781-1.119,38.329,38.329,0,0,1,6.793,6.067.682.682,0,0,1-.512,1.134Zm-42.743-9.707a.683.683,0,0,1-.267-1.311,37.878,37.878,0,0,1,14.923-3.032,38.524,38.524,0,0,1,6.944.63.683.683,0,0,1-.247,1.343,37.157,37.157,0,0,0-6.7-.608,36.531,36.531,0,0,0-14.388,2.923A.688.688,0,0,1,1541.137,1800.774Z" fill="url(#linear-gradient-2)"/>
    </g>
    <g id="Group_81" data-name="Group 81">
      <path id="Path_336" data-name="Path 336" d="M1576.055,1824.3a10.92,10.92,0,0,0-3.33-7.028,11.416,11.416,0,0,0-7.551-3.067c-4.84-.264-16.333-.431-20.369.228a10.391,10.391,0,0,0-8.909,8c-.982,3.5-.787,19.654-.214,23.117a10.425,10.425,0,0,0,8.274,8.982c3.248.839,19.213.731,22.795.151a10.442,10.442,0,0,0,9.021-8.236C1576.714,1842.848,1576.385,1827.544,1576.055,1824.3Zm-3.79,20.578a6.972,6.972,0,0,1-6.555,6.221c-3.322.364-18.157.564-21.238-.3a6.756,6.756,0,0,1-5.123-5.818c-.467-2.834-.583-16.992-.006-20.782a6.961,6.961,0,0,1,6.526-6.194c3.648-.408,16.776-.453,20.272.082a6.973,6.973,0,0,1,6.208,6.566C1572.717,1828.034,1572.821,1841.245,1572.265,1844.877ZM1555.8,1824a10.559,10.559,0,1,0,10.554,10.565A10.559,10.559,0,0,0,1555.8,1824Zm-.073,17.381a6.829,6.829,0,1,1,6.89-6.767A6.828,6.828,0,0,1,1555.729,1841.379Zm13.516-17.78a2.472,2.472,0,1,1-2.466-2.479A2.472,2.472,0,0,1,1569.245,1823.6Z" fill="#fff"/>
      <path id="Path_337" data-name="Path 337" d="M1576.055,1824.3a10.92,10.92,0,0,0-3.33-7.028,11.416,11.416,0,0,0-7.551-3.067c-4.84-.264-16.333-.431-20.369.228a10.391,10.391,0,0,0-8.909,8c-.982,3.5-.787,19.654-.214,23.117a10.425,10.425,0,0,0,8.274,8.982c3.248.839,19.213.731,22.795.151a10.442,10.442,0,0,0,9.021-8.236C1576.714,1842.848,1576.385,1827.544,1576.055,1824.3Zm-3.79,20.578a6.972,6.972,0,0,1-6.555,6.221c-3.322.364-18.157.564-21.238-.3a6.756,6.756,0,0,1-5.123-5.818c-.467-2.834-.583-16.992-.006-20.782a6.961,6.961,0,0,1,6.526-6.194c3.648-.408,16.776-.453,20.272.082a6.973,6.973,0,0,1,6.208,6.566C1572.717,1828.034,1572.821,1841.245,1572.265,1844.877ZM1555.8,1824a10.559,10.559,0,1,0,10.554,10.565A10.559,10.559,0,0,0,1555.8,1824Zm-.073,17.381a6.829,6.829,0,1,1,6.89-6.767A6.828,6.828,0,0,1,1555.729,1841.379Zm13.516-17.78a2.472,2.472,0,1,1-2.466-2.479A2.472,2.472,0,0,1,1569.245,1823.6Z" fill="#fff"/>
    </g>
  </g>
</svg>
