<svg xmlns="http://www.w3.org/2000/svg" width="17.776" height="15.492" viewBox="0 0 17.776 15.492">
                    <path id="Path_226" data-name="Path 226"
                      d="M1670.032,136.92h-17.224a.277.277,0,0,0-.276.276h0v11.647a.277.277,0,0,0,.276.276h7.231l-.575,1.728h-1.276a.783.783,0,0,0,0,1.565h6.464a.783.783,0,0,0,0-1.565h-1.277l-.574-1.728h7.231a.277.277,0,0,0,.276-.276V137.2a.277.277,0,0,0-.276-.276Zm-16.948.552h16.672v.357h-16.672Zm16.672.908v8.729h-16.672V138.38Zm-4.874,13.249a.23.23,0,0,1-.23.231h-6.464a.23.23,0,1,1,0-.461h6.464a.23.23,0,0,1,.23.23Zm-2.088-.782h-2.748l.574-1.728h1.6Zm6.962-2.28h-16.672v-.906h16.672Z"
                      transform="translate(-1652.532 -136.92)" fill="#333333" />
                  </svg>