<svg xmlns="http://www.w3.org/2000/svg" width="15.826" height="15.826" viewBox="0 0 15.826 15.826">
                    <path id="Path_236" data-name="Path 236"
                      d="M385.692,137.328a2.581,2.581,0,0,0-3.646,0l-10.33,10.329-.012.016-.017.022a.282.282,0,0,0-.036.069l-.008.021,0,.009-1.013,4.253a.233.233,0,0,0-.006.058v.011a.277.277,0,0,0,.018.1l.009.021a.275.275,0,0,0,.056.084.268.268,0,0,0,.094.063.293.293,0,0,0,.109.021.3.3,0,0,0,.066-.007l4.253-1.013a.146.146,0,0,0,.022-.009l.029-.011a.257.257,0,0,0,.057-.035l.021-.015.007-.006,10.331-10.33A2.581,2.581,0,0,0,385.692,137.328Zm-.4.4a2.006,2.006,0,0,1,.186,2.617l-2.8-2.8A2.005,2.005,0,0,1,385.287,137.733Zm-1.418,4.253-2.836-2.835.4-.4,2.836,2.835Zm-11.828,8.993a.286.286,0,0,0-.4,0l-.217.217.731-3.073,1.267-.141-.163,1.467c0,.011,0,.021,0,.032s0,.02,0,.031a.2.2,0,0,0,.008.026.26.26,0,0,0,.042.1.249.249,0,0,0,.028.036.267.267,0,0,0,.045.038.2.2,0,0,0,.04.024.291.291,0,0,0,.059.019.186.186,0,0,0,.031.01l.031,0h0l.032,0,1.467-.163-.141,1.267-3.073.732.217-.217A.288.288,0,0,0,372.041,150.979Zm3.6-1.57,6.41-6.41a.286.286,0,1,0-.4-.4l-6.41,6.41-1.368.152.152-1.367,6.411-6.41a.286.286,0,1,0-.4-.4l-6.411,6.41-.912.1,7.93-7.929,2.836,2.836-7.93,7.929Zm9.043-8.233-2.836-2.835.406-.406,2.835,2.836Z"
                      transform="translate(-370.62 -136.574)" fill="#333333" />
                  </svg>