<svg xmlns="http://www.w3.org/2000/svg" width="41.28" height="41.28" viewBox="0 0 41.28 41.28">
  <g id="Group_100" data-name="Group 100" transform="translate(-1279.682 -1338.831)">
    <circle id="Ellipse_37" data-name="Ellipse 37" cx="20.64" cy="20.64" r="20.64" transform="translate(1279.682 1338.831)" fill="#ed802c"/>
    <path id="Path_359" data-name="Path 359" d="M1314.916,1344.874a20.641,20.641,0,0,1-29.191,29.191Z" fill="#e5772e"/>
    <g id="Group_99" data-name="Group 99">
      <path id="Path_360" data-name="Path 360" d="M1318.656,1368.945l-13.788-13.788-2.3,2.3-6.2-6.2-2.828-1.074-2.955,2.954,8.128,8.128-.671.67-4.7-4.706-2.752,2.752,18.274,18.273A20.709,20.709,0,0,0,1318.656,1368.945Z" fill="#d56727"/>
      <path id="Path_361" data-name="Path 361" d="M1291.349,1368.643l11.329,11.329a20.481,20.481,0,0,0,5.983-1.622l-13.509-13.509Z" fill="#d56727"/>
    </g>
    <path id="Path_362" data-name="Path 362" d="M1295.168,1364.9a2.656,2.656,0,0,1,0,3.776h0a2.676,2.676,0,1,1-3.791-3.777h0a2.681,2.681,0,0,1,3.791,0Zm0,0Zm-3.791,3.777h0Zm-.785-12.523v3.858a9.468,9.468,0,0,1,9.453,9.467h0v.007h3.873a13.356,13.356,0,0,0-13.327-13.332Zm.007-6.868v3.855a16.363,16.363,0,0,1,16.324,16.344h3.866a20.228,20.228,0,0,0-20.19-20.2Z" fill="#fff"/>
  </g>
</svg>
