<svg xmlns="http://www.w3.org/2000/svg" width="78.856" height="78.856" viewBox="0 0 78.856 78.856">
  <g id="Group_94" data-name="Group 94" transform="translate(-1516.365 -2001.788)">
    <g id="Group_92" data-name="Group 92">
      <circle id="Ellipse_35" data-name="Ellipse 35" cx="32.775" cy="32.775" r="32.775" transform="matrix(0.23, -0.973, 0.973, 0.23, 1516.365, 2065.583)" fill="#ffec00"/>
      <path id="Path_348" data-name="Path 348" d="M1555.832,2079.34a.683.683,0,0,1,0-1.366,37.188,37.188,0,0,0,5.845-.469.683.683,0,1,1,.217,1.348,38.6,38.6,0,0,1-6.06.487Zm11.753-1.9a.682.682,0,0,1-.215-1.33,36.594,36.594,0,0,0,7.943-3.746.683.683,0,1,1,.726,1.156,37.93,37.93,0,0,1-8.239,3.886A.7.7,0,0,1,1567.585,2077.444Zm-32.446-4.312a.681.681,0,0,1-.377-.114,38.114,38.114,0,0,1-14.074-16.912.683.683,0,1,1,1.257-.534,36.735,36.735,0,0,0,13.572,16.307.684.684,0,0,1-.378,1.253ZM1587,2062.584a.683.683,0,0,1-.568-1.06,36.6,36.6,0,0,0,6.114-20.309.683.683,0,0,1,1.366,0,37.951,37.951,0,0,1-6.343,21.064A.681.681,0,0,1,1587,2062.584Zm-68.64-21.6h-.017a.683.683,0,0,1-.666-.7,38.231,38.231,0,0,1,1.3-9.015.683.683,0,0,1,1.319.356,36.761,36.761,0,0,0-1.253,8.692A.684.684,0,0,1,1518.364,2040.981Zm71.875-13.777a.684.684,0,0,1-.628-.415,36.615,36.615,0,0,0-2.725-5.187.683.683,0,1,1,1.154-.729,38.089,38.089,0,0,1,2.827,5.38.683.683,0,0,1-.36.9A.667.667,0,0,1,1590.239,2027.2Zm-68.586-.7a.684.684,0,0,1-.621-.965,38.324,38.324,0,0,1,2.939-5.325.683.683,0,0,1,1.139.754,36.833,36.833,0,0,0-2.834,5.134A.684.684,0,0,1,1521.653,2026.5Zm62.227-9.362a.682.682,0,0,1-.512-.231,37.014,37.014,0,0,0-6.55-5.85.682.682,0,1,1,.781-1.119,38.285,38.285,0,0,1,6.793,6.066.682.682,0,0,1-.512,1.134Zm-42.743-9.707a.683.683,0,0,1-.267-1.311,37.9,37.9,0,0,1,14.923-3.032,38.436,38.436,0,0,1,6.944.631.683.683,0,0,1-.247,1.343,37.157,37.157,0,0,0-6.7-.608,36.514,36.514,0,0,0-14.388,2.923A.687.687,0,0,1,1541.137,2007.435Z" fill="#ffec00"/>
    </g>
    <g id="Group_93" data-name="Group 93">
      <path id="Path_349" data-name="Path 349" d="M1556.005,2020.693a10.886,10.886,0,0,1,10.887,10.886v6.526a3.858,3.858,0,0,0,1.007.137,2.848,2.848,0,0,0,1.314-.3,3.8,3.8,0,0,1,1.667-.543,1.761,1.761,0,0,1,1.3.6c.92.934-.044,1.81-1.532,2.394-1.368.536-3.505,1.088-3.551,2.871a11.856,11.856,0,0,0,4.7,6.615c2.306,1.751,3.775,1.887,4.524,1.887.138,0,.251,0,.341,0,.154,0,.239.013.257.087.088.35.365,1.751-2.262,2.423s-3.167.219-3.692,1.59-.328,1.963-.985,1.963c-.45,0-2.431-.38-4.17-.38a5.35,5.35,0,0,0-2.069.315c-1.614.722-4.154,3.792-7.942,3.975-3.787-.183-6.327-3.253-7.941-3.975a5.356,5.356,0,0,0-2.07-.315c-1.738,0-3.719.38-4.169.38-.657,0-.46-.591-.985-1.963s-1.065-.919-3.692-1.59-2.35-2.073-2.263-2.423c.019-.074.1-.087.257-.087.09,0,.2,0,.342,0,.749,0,2.218-.136,4.524-1.887a11.854,11.854,0,0,0,4.7-6.615c-.045-1.783-2.182-2.335-3.55-2.871-1.489-.584-2.452-1.46-1.532-2.394a1.761,1.761,0,0,1,1.3-.6,3.8,3.8,0,0,1,1.667.543,2.845,2.845,0,0,0,1.314.3,3.856,3.856,0,0,0,1.007-.137v-6.526a10.886,10.886,0,0,1,10.887-10.886h.413m0-1.578h-.413a12.479,12.479,0,0,0-12.465,12.464v4.972l-.016-.008a5.21,5.21,0,0,0-2.394-.721,3.319,3.319,0,0,0-2.42,1.073,2.512,2.512,0,0,0-.761,2.341c.234,1.1,1.19,1.98,2.842,2.627.171.067.353.135.542.2.77.284,1.8.664,1.98,1.112a10.366,10.366,0,0,1-4.053,5.445c-2.062,1.566-3.2,1.566-3.57,1.566l-.175,0-.166,0a1.721,1.721,0,0,0-1.788,1.283c-.394,1.573.293,3.539,3.4,4.333.845.216,1.5.326,1.973.406.2.034.443.074.591.109.013.029.028.066.046.112a7.953,7.953,0,0,1,.293.967,2.237,2.237,0,0,0,2.165,2.009,9.425,9.425,0,0,0,1.117-.114,24.538,24.538,0,0,1,3.052-.266,3.774,3.774,0,0,1,1.426.177,10.112,10.112,0,0,1,1.412.966c1.673,1.263,3.964,2.993,7.1,3.145l.076,0,.077,0c3.133-.152,5.424-1.882,7.1-3.145a10.047,10.047,0,0,1,1.412-.966,3.771,3.771,0,0,1,1.425-.177,24.557,24.557,0,0,1,3.053.266,9.4,9.4,0,0,0,1.117.114,2.237,2.237,0,0,0,2.165-2.009,7.782,7.782,0,0,1,.293-.967c.018-.046.033-.083.046-.112.148-.035.388-.075.59-.109.477-.08,1.129-.19,1.974-.406,3.109-.794,3.8-2.76,3.4-4.334a1.722,1.722,0,0,0-1.788-1.282l-.167,0-.174,0c-.373,0-1.508,0-3.57-1.566a10.374,10.374,0,0,1-4.054-5.445c.179-.448,1.21-.828,1.981-1.112.188-.07.371-.138.542-.2,1.652-.647,2.608-1.532,2.841-2.627a2.51,2.51,0,0,0-.761-2.341,3.315,3.315,0,0,0-2.419-1.073,5.219,5.219,0,0,0-2.4.721l-.015.008v-4.972a12.479,12.479,0,0,0-12.465-12.464Z" fill="#333"/>
      <path id="Path_350" data-name="Path 350" d="M1555.8,2061.737c3.788-.183,6.328-3.253,7.942-3.975,1.664-.745,5.582.065,6.239.065s.46-.591.985-1.963,1.065-.919,3.692-1.59,2.35-2.073,2.262-2.423-1.663.657-5.122-1.97a11.856,11.856,0,0,1-4.7-6.615c.046-1.783,2.183-2.335,3.551-2.871,1.488-.584,2.452-1.46,1.532-2.394s-1.839-.642-2.962-.058a3.339,3.339,0,0,1-2.321.162v-6.526a10.886,10.886,0,0,0-10.887-10.886h-.413a10.886,10.886,0,0,0-10.887,10.886v6.526a3.339,3.339,0,0,1-2.321-.162c-1.124-.584-2.043-.876-2.962.058s.043,1.81,1.532,2.394c1.368.536,3.505,1.088,3.55,2.871a11.854,11.854,0,0,1-4.7,6.615c-3.459,2.627-5.035,1.62-5.123,1.97s-.364,1.751,2.263,2.423,3.166.219,3.692,1.59.328,1.963.985,1.963,4.575-.81,6.239-.065C1549.471,2058.484,1552.011,2061.554,1555.8,2061.737Z" fill="#fff"/>
    </g>
  </g>
</svg>
