<svg xmlns="http://www.w3.org/2000/svg" width="78.856" height="78.856" viewBox="0 0 78.856 78.856">
  <g id="Group_79" data-name="Group 79" transform="translate(-1398.468 -1795.126)">
    <g id="Group_78" data-name="Group 78">
      <circle id="Ellipse_30" data-name="Ellipse 30" cx="32.775" cy="32.775" r="32.775" transform="matrix(0.23, -0.973, 0.973, 0.23, 1398.468, 1858.922)" fill="#1ba5d4"/>
      <path id="Path_333" data-name="Path 333" d="M1437.935,1872.678a.683.683,0,0,1,0-1.366,37.173,37.173,0,0,0,5.845-.468.683.683,0,0,1,.217,1.348,38.588,38.588,0,0,1-6.06.486Zm11.753-1.9a.683.683,0,0,1-.215-1.331,36.58,36.58,0,0,0,7.942-3.746.683.683,0,1,1,.727,1.157,37.99,37.99,0,0,1-8.239,3.885A.678.678,0,0,1,1449.688,1870.783Zm-32.447-4.313a.686.686,0,0,1-.376-.113,38.119,38.119,0,0,1-14.075-16.913.683.683,0,1,1,1.257-.534,36.748,36.748,0,0,0,13.573,16.308.683.683,0,0,1-.379,1.252Zm51.865-10.547a.676.676,0,0,1-.376-.114.683.683,0,0,1-.192-.947,36.6,36.6,0,0,0,6.115-20.308.683.683,0,0,1,1.366,0,37.956,37.956,0,0,1-6.343,21.063A.684.684,0,0,1,1469.106,1855.923Zm-68.639-21.6h-.017a.683.683,0,0,1-.666-.7,38.229,38.229,0,0,1,1.3-9.014.684.684,0,0,1,1.32.356,36.753,36.753,0,0,0-1.253,8.692A.684.684,0,0,1,1400.467,1834.32Zm71.875-13.778a.682.682,0,0,1-.628-.414,36.7,36.7,0,0,0-2.725-5.188.682.682,0,0,1,1.154-.729,38.089,38.089,0,0,1,2.827,5.38.681.681,0,0,1-.628.951Zm-68.586-.7a.673.673,0,0,1-.281-.061.682.682,0,0,1-.34-.9,38.207,38.207,0,0,1,2.939-5.325.683.683,0,1,1,1.139.753,36.781,36.781,0,0,0-2.834,5.135A.684.684,0,0,1,1403.756,1819.842Zm62.227-9.361a.681.681,0,0,1-.512-.231,36.982,36.982,0,0,0-6.551-5.851.683.683,0,0,1,.782-1.119,38.363,38.363,0,0,1,6.793,6.067.682.682,0,0,1-.512,1.134Zm-42.743-9.707a.683.683,0,0,1-.268-1.311,37.886,37.886,0,0,1,14.924-3.032,38.531,38.531,0,0,1,6.944.63.683.683,0,0,1-.247,1.343,37.166,37.166,0,0,0-6.7-.608,36.54,36.54,0,0,0-14.389,2.923A.683.683,0,0,1,1423.24,1800.774Z" fill="#1ba5d4"/>
    </g>
    <path id="Path_334" data-name="Path 334" d="M1431.882,1844.862a7.881,7.881,0,0,1-7.312-5.455,7.813,7.813,0,0,0,3.369-.1.921.921,0,0,0,.112-.052,7.848,7.848,0,0,1-5.1-3.606,7.631,7.631,0,0,1-1.152-4.18,7.747,7.747,0,0,0,3.5.953,7.9,7.9,0,0,1-3.235-4.767,7.783,7.783,0,0,1,.843-5.693,22.492,22.492,0,0,0,16.21,8.213c-.046-.311-.094-.585-.126-.861a7.858,7.858,0,0,1,13.359-6.5.4.4,0,0,0,.418.125,15.835,15.835,0,0,0,4.572-1.758.937.937,0,0,1,.1-.054c.007-.006.02,0,.052,0a8.04,8.04,0,0,1-3.365,4.277,15.1,15.1,0,0,0,4.377-1.178l.031.036c-.3.393-.591.8-.9,1.178a15.412,15.412,0,0,1-2.857,2.715.267.267,0,0,0-.13.247,21.636,21.636,0,0,1-.146,3.49,23.123,23.123,0,0,1-2.026,7,22.62,22.62,0,0,1-4.248,6.195,21,21,0,0,1-10.8,6.019,23.442,23.442,0,0,1-4.379.52,22.187,22.187,0,0,1-12.577-3.375c-.049-.028-.1-.064-.184-.12a15.894,15.894,0,0,0,7.862-1.084A15.581,15.581,0,0,0,1431.882,1844.862Z" fill="#fff" fill-rule="evenodd"/>
  </g>
</svg>
