<svg xmlns="http://www.w3.org/2000/svg" width="41.28" height="41.28" viewBox="0 0 41.28 41.28">
  <g id="Group_104" data-name="Group 104" transform="translate(-1556.286 -1338.831)">
    <circle id="Ellipse_40" data-name="Ellipse 40" cx="20.64" cy="20.64" r="20.64" transform="translate(1556.286 1338.831)" fill="#13b3ca"/>
    <path id="Path_370" data-name="Path 370" d="M1591.519,1344.876a20.638,20.638,0,0,1-29.187,29.187Z" fill="#10abb6"/>
    <path id="Path_371" data-name="Path 371" d="M1597.376,1362.219l-5.578-5.578-.46.46-7.026-7.026-.365.364-.843-.844-1.03,1.031-.835-.835-1.343,1.343,1.639,1.638-6.293,6.293-6.133-6.132-1.342,1.343,1.767,1.767-1.243,1.243,2.029,2.029-.895.9,2.472,2.472-.4.4,2.269,2.269-2.665,2.666-1.986-1.985-1.918,1.917-2.379-2.379-.478.478,14,14A20.639,20.639,0,0,0,1597.376,1362.219Z" fill="#0ea2a4"/>
    <path id="Path_372" data-name="Path 372" d="M1588.551,1358.581a3.563,3.563,0,0,0,3.2-1.9,5.262,5.262,0,0,1-3.463.384c-.049-.239-.1-.467-.16-.672-.777-2.854-3.438-5.153-6.226-4.876.225-.091.455-.176.683-.251.306-.111,2.107-.4,1.824-1.039-.24-.559-2.439.422-2.854.551.547-.206,1.451-.56,1.548-1.188a4.364,4.364,0,0,0-2.3,1.087,1.581,1.581,0,0,0,.44-.872c-2.235,1.427-3.54,4.305-4.6,7.1a10.924,10.924,0,0,0-2.224-1.788,57.821,57.821,0,0,0-7.535-3.317c-.106,1.149.568,2.677,2.512,3.692a6.184,6.184,0,0,0-1.807.217c.251,1.316,1.07,2.4,3.289,2.925a2.685,2.685,0,0,0-2.012.795,3.406,3.406,0,0,0,3.614,1.771c-2.253.971-.918,2.771.916,2.5a7.789,7.789,0,0,1-10.893.292c7.4,10.076,23.469,5.959,25.863-3.747a4.451,4.451,0,0,0,3.5-1.323A7.152,7.152,0,0,1,1588.551,1358.581Z" fill="#fff"/>
  </g>
</svg>
