<svg width="24" height="20" viewBox="0 0 24 20" fill="none" xmlns="http://www.w3.org/2000/svg">
<path d="M23.962 10.1854C24.0393 9.99839 23.9963 9.78324 23.853 9.64036L14.853 0.640361C14.6544 0.448502 14.3378 0.454033 14.146 0.652643C13.9589 0.846424 13.9589 1.1536 14.146 1.34733L22.293 9.49435H0.500016C0.223875 9.49439 0 9.71827 0 9.99441C0 10.2705 0.223875 10.4944 0.500016 10.4944H22.293L14.147 18.6404C13.9484 18.8323 13.9429 19.1488 14.1347 19.3474C14.3266 19.546 14.6431 19.5515 14.8417 19.3597C14.8459 19.3557 14.85 19.3516 14.854 19.3474L23.854 10.3474C23.9002 10.301 23.937 10.2459 23.962 10.1854Z" fill="white"/>
<path d="M14.5 19.4943C14.2239 19.4948 13.9996 19.2713 13.9991 18.9952C13.9989 18.8621 14.0517 18.7343 14.146 18.6403L22.793 9.99434L14.146 1.34834C13.9541 1.14973 13.9597 0.83318 14.1583 0.64132C14.3521 0.454195 14.6592 0.454195 14.853 0.64132L23.853 9.64132C24.0481 9.83655 24.0481 10.1531 23.853 10.3483L14.853 19.3483C14.7593 19.4418 14.6324 19.4943 14.5 19.4943Z" fill="white"/>
<path d="M23.5 10.4946H0.500016C0.223875 10.4946 0 10.2708 0 9.99464C0 9.7185 0.223875 9.49463 0.500016 9.49463H23.5C23.7762 9.49463 24 9.7185 24 9.99464C24 10.2708 23.7761 10.4946 23.5 10.4946Z" fill="white"/>
</svg>
