<svg width="24" height="24" viewBox="0 0 24 24" fill="none" xmlns="http://www.w3.org/2000/svg">
<path d="M23.9847 23.379L23.3847 20.979C23.1001 19.8147 22.237 18.8784 21.0997 18.5L16.6997 17.034C15.6267 16.587 15.1357 14.859 15.0297 14.203C15.8473 13.5231 16.3734 12.5558 16.4997 11.5C16.4816 11.3197 16.5242 11.1384 16.6207 10.985C16.7766 10.9459 16.9042 10.8343 16.9637 10.685C17.2516 9.98784 17.4323 9.25116 17.4997 8.49998C17.4998 8.45916 17.4948 8.41852 17.4847 8.379C17.4131 8.08711 17.2414 7.82953 16.9997 7.65098V4.99997C16.9997 3.38897 16.5077 2.72798 15.9896 2.34497C15.8907 1.569 15.0597 0 11.9997 0C9.28488 0.109313 7.10904 2.28516 6.99972 5.00002V7.65103C6.75794 7.82958 6.58633 8.08716 6.51471 8.37905C6.50458 8.41856 6.49957 8.45925 6.49971 8.50003C6.56702 9.25158 6.74772 9.98859 7.03572 10.686C7.07904 10.8274 7.19261 10.9361 7.33572 10.9731C7.39174 11.001 7.49674 11.1461 7.49674 11.5001C7.62382 12.5589 8.15294 13.5284 8.97475 14.2081C8.86975 14.8631 8.38174 16.5901 7.33877 17.0261L2.89976 18.5001C1.76336 18.8784 0.900865 19.8138 0.615771 20.9771L0.0157712 23.3771C-0.0521507 23.6447 0.109756 23.9168 0.377412 23.9847C0.417396 23.9949 0.458506 24 0.499756 24.0001H23.4998C23.7759 24 23.9997 23.7761 23.9996 23.4999C23.9996 23.4591 23.9946 23.4185 23.9847 23.379Z" fill="#3E85DC"/>
</svg>
