<svg width="80" height="80" viewBox="0 0 80 80" fill="none" xmlns="http://www.w3.org/2000/svg">
<g clip-path="url(#clip0)">
<path d="M17.7085 3.20923H4.48456V13.25H17.7085V3.20923Z" fill="#2A3944"/>
<path d="M29.3992 10.6104H19.5134V79.9997H29.3992V10.6104Z" fill="#3B4C5B"/>
<path d="M29.3992 10.6104H19.5134V20.4961H29.3992V10.6104Z" fill="#2A3944"/>
<path d="M23.1869 10.6104H19.5134V79.9997H23.1869V10.6104Z" fill="#2A3944"/>
<path d="M77.13 61.2984L79.6053 55.7133L75.62 51.0828L78.0952 45.4973L74.11 40.8664L76.585 35.2816L72.5999 30.6514L75.0752 25.0658L71.0899 20.435L73.565 14.8489L69.5797 10.2181L72.0545 4.63156L68.0694 0H53.5399V61.2984H77.13Z" fill="#EAEAEA"/>
<path d="M51.0905 58.8486V72.4649C51.0905 76.6264 54.4636 79.9996 58.6251 79.9996H72.0439C76.2055 79.9996 79.5786 76.6264 79.5786 72.4649V58.8486H51.0905ZM74.1909 72.465C74.1909 73.6504 73.2294 74.6119 72.0441 74.6119H58.6253C57.44 74.6119 56.4784 73.6504 56.4784 72.465V66.6855H74.1911V72.465H74.1909Z" fill="#38ABF9"/>
<path d="M2.33284 16.0052H6.93518C8.0055 16.0052 8.87331 15.1373 8.87331 14.067V2.20375C8.87331 1.13344 8.0055 0.265625 6.93518 0.265625H2.33284C1.26253 0.265625 0.394714 1.13344 0.394714 2.20375V14.067C0.394558 15.1375 1.26237 16.0052 2.33284 16.0052Z" fill="#3B4C5B"/>
<path d="M6.93503 10.8913H2.33284C1.26253 10.8913 0.394714 10.0234 0.394714 8.95312V14.067C0.394714 15.1373 1.26253 16.0052 2.33284 16.0052H6.93518C8.0055 16.0052 8.87331 15.1373 8.87331 14.067V8.95312C8.87331 10.0234 8.0055 10.8913 6.93503 10.8913Z" fill="#2A3944"/>
<path d="M33.8206 0.265625H34.5731C41.6245 0.265625 47.3408 5.98188 47.3408 13.0333V16.193H43.405C42.3295 11.8381 38.4225 8.77844 33.9369 8.77844H33.8206V13.7013C33.8206 14.9738 32.7891 16.0053 31.5166 16.0053H18.0058C15.0659 16.0053 12.6825 13.622 12.6825 10.682V5.58891C12.6825 2.64906 15.0658 0.265625 18.0058 0.265625C18.0058 0.265625 33.8206 0.265625 33.8206 0.265625Z" fill="#3B4C5B"/>
<path d="M29.3992 50.2449H19.5134V80H29.3992V50.2449Z" fill="#FC3552"/>
<path d="M23.1869 50.2449H19.5134V80H23.1869V50.2449Z" fill="#E21E43"/>
</g>
<defs>
<clipPath id="clip0">
<rect width="80" height="80" fill="white"/>
</clipPath>
</defs>
</svg>
