<svg width="80" height="80" viewBox="0 0 80 80" fill="none" xmlns="http://www.w3.org/2000/svg">
<path d="M9.79474 5.01807C9.79474 6.09729 9.79474 77.7968 9.79474 79.4668C9.79474 79.8018 10.1749 79.9954 10.4457 79.7981L16.6713 75.2648C17.074 74.9715 17.6199 74.9715 18.0226 75.2648L24.2236 79.7801C24.6263 80.0734 25.1722 80.0734 25.5749 79.7801L31.7749 75.2649C32.1775 74.9717 32.7235 74.9717 33.1263 75.2649L39.3265 79.7801C39.7291 80.0734 40.275 80.0734 40.6779 79.7801L46.8777 75.2649C47.2804 74.9717 47.8263 74.9717 48.2291 75.2649L54.4286 79.7799C54.8315 80.0732 55.3774 80.0732 55.78 79.7799L61.9788 75.2651C62.3816 74.9717 62.9275 74.9717 63.3304 75.2651L69.5546 79.7981C69.8254 79.9954 70.2057 79.802 70.2057 79.4668V76.7246V5.01807H9.79474Z" fill="#FFC850"/>
<path d="M13.0143 5.01807H9.79474C9.79474 6.09729 9.79474 77.7968 9.79474 79.4668C9.79474 79.8018 10.1749 79.9954 10.4458 79.7981L13.0143 77.9278C13.0143 74.3107 13.0143 8.2201 13.0143 5.01807Z" fill="#F9B428"/>
<path d="M25.0955 26.543V20.9661C25.0955 17.0782 27.6483 15.6641 30.9866 15.6641C34.2857 15.6641 36.8777 17.078 36.8777 20.9661V26.543C36.8777 30.4311 34.2857 31.845 30.9866 31.845C27.6483 31.8449 25.0955 30.4311 25.0955 26.543ZM32.9504 20.9661C32.9504 19.6702 32.2041 19.081 30.9866 19.081C29.7691 19.081 29.0622 19.67 29.0622 20.9661V26.543C29.0622 27.8391 29.7691 28.4282 30.9866 28.4282C32.2041 28.4282 32.9504 27.8391 32.9504 26.543V20.9661ZM49.0526 16.1355C49.0526 16.3711 49.0133 16.646 48.8955 16.8818L35.0711 45.1982C34.7963 45.7872 34.0501 46.18 33.3038 46.18C31.9685 46.18 31.1044 45.0804 31.1044 44.0985C31.1044 43.8629 31.1829 43.5879 31.3008 43.3522L45.086 15.0358C45.4002 14.3682 46.0286 14.054 46.7355 14.054C47.8352 14.054 49.0526 14.8786 49.0526 16.1355ZM43.1222 39.1893V33.6124C43.1222 29.7243 45.6751 28.3104 49.0133 28.3104C52.3124 28.3104 54.9044 29.7243 54.9044 33.6124V39.1893C54.9044 43.0774 52.3124 44.4913 49.0133 44.4913C45.6751 44.4911 43.1222 43.0774 43.1222 39.1893ZM50.9771 33.6122C50.9771 32.3163 50.2308 31.7271 49.0133 31.7271C47.7958 31.7271 47.089 32.3163 47.089 33.6122V39.1891C47.089 40.4852 47.7958 41.0743 49.0133 41.0743C50.2308 41.0743 50.9771 40.4852 50.9771 39.1891V33.6122Z" fill="white"/>
<path d="M60.4753 53.3637H19.5245C18.8578 53.3637 18.3172 52.8232 18.3172 52.1563C18.3172 51.4894 18.8577 50.949 19.5245 50.949H60.4753C61.142 50.949 61.6827 51.4894 61.6827 52.1563C61.6827 52.8232 61.142 53.3637 60.4753 53.3637Z" fill="#F9B428"/>
<path d="M60.4753 59.6796H19.5245C18.8578 59.6796 18.3172 59.1391 18.3172 58.4722C18.3172 57.8054 18.8577 57.2649 19.5245 57.2649H60.4753C61.142 57.2649 61.6827 57.8054 61.6827 58.4722C61.6827 59.1391 61.142 59.6796 60.4753 59.6796Z" fill="#F9B428"/>
<path d="M60.4753 65.9955H19.5245C18.8578 65.9955 18.3172 65.455 18.3172 64.7882C18.3172 64.1213 18.8577 63.5808 19.5245 63.5808H60.4753C61.142 63.5808 61.6827 64.1213 61.6827 64.7882C61.6827 65.455 61.142 65.9955 60.4753 65.9955Z" fill="#F9B428"/>
<path d="M72.5197 5.50078H7.48017C6.61142 5.50078 5.90704 4.79641 5.90704 3.92766V1.57313C5.90704 0.704375 6.61126 0 7.48017 0H72.5197C73.3885 0 74.0928 0.704375 74.0928 1.57313V3.92766C74.0928 4.79656 73.3886 5.50078 72.5197 5.50078Z" fill="#E4EAF8"/>
<path d="M72.4722 2.28125H7.52767C6.7997 2.28125 6.18392 1.80125 5.97939 1.14062C5.93236 1.29234 5.90704 1.45359 5.90704 1.62062V3.88016C5.90704 4.77531 6.63267 5.50078 7.52767 5.50078H72.472C73.3671 5.50078 74.0927 4.77516 74.0927 3.88016V1.62062C74.0927 1.45344 74.0674 1.29234 74.0203 1.14062C73.8158 1.80141 73.2002 2.28125 72.4722 2.28125Z" fill="#D8DCE5"/>
</svg>
