<svg width="80" height="80" viewBox="0 0 80 80" fill="none" xmlns="http://www.w3.org/2000/svg">
<g clip-path="url(#clip0)">
<path fill-rule="evenodd" clip-rule="evenodd" d="M80 19.2869V8.16538C80 7.55866 79.6811 7.22632 79.0655 7.22632H17.5972L16.2286 18.2282L17.5972 27.9371L21.021 28.8319L23.4969 26.9804L26.9206 27.8752L29.392 26.0237L32.8202 26.9185L35.2916 25.0627L38.7153 25.9576L41.1913 24.106L44.615 25.0009L47.0866 23.1493L50.5102 24.0441L52.9861 22.1884L56.4099 23.0832L58.8813 21.2316L62.3095 22.1265L64.781 20.2749L68.2045 21.1698L70.6805 19.3137L74.1044 20.2085L76.5758 18.3569L80 19.2869Z" fill="#E4F6FF"/>
<path fill-rule="evenodd" clip-rule="evenodd" d="M80 19.2869V8.16538C80 7.55866 79.6811 7.22632 79.0655 7.22632H74.375C74.995 7.22632 75.3139 7.62491 75.3139 8.35147V19.3046L76.5763 18.3568L80 19.2869Z" fill="#D3EFFB"/>
<path fill-rule="evenodd" clip-rule="evenodd" d="M18.5361 16.2351C17.792 16.2351 17.5972 16.5716 17.5972 17.1741V27.9371C17.5972 30.7188 15.325 32.9909 12.548 32.9909C8.36234 32.9909 6.71031 32.9909 2.52469 32.9909C1.13828 32.9909 0 31.8524 0 30.466V9.75101C0 8.3646 1.13828 7.22632 2.52469 7.22632H20.7553C23.2311 7.22632 25.2598 9.25476 25.2598 11.7307C25.2598 14.2066 23.2313 16.2351 20.7553 16.2351H18.5361ZM5.93516 15.2652V24.9518C5.93516 26.524 7.22406 27.813 8.80078 27.813C10.3733 27.813 11.6622 26.524 11.6622 24.9518V15.2652C11.6622 13.693 10.3733 12.404 8.80078 12.404C7.22406 12.404 5.93516 13.693 5.93516 15.2652Z" fill="#E28086"/>
<path fill-rule="evenodd" clip-rule="evenodd" d="M18.5361 16.2351C17.7921 16.2351 17.5972 16.5716 17.5972 17.1741V27.9371C17.5972 30.7188 15.325 32.9909 12.548 32.9909H7.85753C10.6391 32.9909 12.9111 30.7188 12.9111 27.9371V17.1741C12.9111 16.5718 13.1061 16.2351 13.8457 16.2351H16.0691C18.545 16.2351 20.5736 14.2066 20.5736 11.7307C20.5736 9.25476 18.5452 7.22632 16.0691 7.22632H20.7552C23.231 7.22632 25.2597 9.25476 25.2597 11.7307C25.2597 14.2066 23.2311 16.2351 20.7552 16.2351H18.5361Z" fill="#DD636E"/>
<path fill-rule="evenodd" clip-rule="evenodd" d="M9.92145 52.9312H35.8854V72.774H9.92145V52.9312Z" fill="#87582F"/>
<path fill-rule="evenodd" clip-rule="evenodd" d="M9.92141 72.774C15.387 72.774 19.8428 68.318 19.8428 62.8527C19.8428 57.3871 15.387 52.9312 9.92141 52.9312C4.45578 52.9312 0 57.3869 0 62.8527C0 68.318 4.45578 72.774 9.92141 72.774Z" fill="#FFDE82"/>
<path fill-rule="evenodd" clip-rule="evenodd" d="M22.8989 36.127H57.0922C62.5713 36.127 67.0136 40.5695 67.0136 46.0482C67.0136 51.5271 62.5711 55.9652 57.0922 55.9652H22.8989V36.127Z" fill="#BF8E5E"/>
<path fill-rule="evenodd" clip-rule="evenodd" d="M52.4061 36.127H57.092C62.5711 36.127 67.0134 40.5695 67.0134 46.0482C67.0134 51.5271 62.5709 55.9652 57.092 55.9652H52.4061C57.8848 55.9652 62.3275 51.5271 62.3275 46.0482C62.3277 40.5695 57.885 36.127 52.4061 36.127Z" fill="#A87547"/>
<path fill-rule="evenodd" clip-rule="evenodd" d="M35.8852 52.9312H70.083C75.5619 52.9312 80 57.3737 80 62.8527C80 68.3315 75.562 72.774 70.083 72.774H35.8852V52.9312Z" fill="#A87547"/>
<path fill-rule="evenodd" clip-rule="evenodd" d="M65.3925 52.9312H70.0831C75.562 52.9312 80.0002 57.3737 80.0002 62.8527C80.0002 68.3315 75.5622 72.774 70.0831 72.774H65.3925C70.8714 72.774 75.3139 68.3315 75.3139 62.8527C75.3139 57.3737 70.8714 52.9312 65.3925 52.9312Z" fill="#946338"/>
<path fill-rule="evenodd" clip-rule="evenodd" d="M35.8852 72.774C41.3508 72.774 45.8066 68.318 45.8066 62.8527C45.8066 57.3871 41.3508 52.9312 35.8852 52.9312C30.4197 52.9312 25.9638 57.3871 25.9638 62.8527C25.9639 68.318 30.4197 72.774 35.8852 72.774Z" fill="#FFDE82"/>
<path fill-rule="evenodd" clip-rule="evenodd" d="M22.8989 55.9652C28.3645 55.9652 32.8203 51.5093 32.8203 46.0482C32.8203 40.5827 28.3645 36.127 22.8989 36.127C17.4333 36.127 12.9776 40.5829 12.9776 46.0482C12.9776 51.5093 17.4333 55.9652 22.8989 55.9652Z" fill="#FFDE82"/>
<path d="M28.9758 46.048C28.9758 46.6947 28.4488 47.2174 27.802 47.2174C27.1555 47.2174 26.6328 46.6946 26.6328 46.048C26.6328 45.016 26.2122 44.0814 25.5389 43.4082C24.8613 42.7307 23.9311 42.3141 22.8991 42.3141C21.867 42.3141 20.937 42.7307 20.2594 43.4082C19.5861 44.0814 19.1653 45.0158 19.1653 46.048C19.1653 47.0758 19.5861 48.0103 20.2594 48.6878C20.937 49.3611 21.867 49.7777 22.8991 49.7777C23.5458 49.7777 24.073 50.3047 24.073 50.9514C24.073 51.5982 23.5458 52.1252 22.8991 52.1252C21.2205 52.1252 19.7013 51.4432 18.6028 50.3444C17.5044 49.2418 16.8222 47.7224 16.8222 46.0482C16.8222 44.3694 17.5042 42.8502 18.6028 41.7519C19.7013 40.6489 21.2205 39.9714 22.8991 39.9714C24.5778 39.9714 26.097 40.6489 27.1955 41.7519C28.2936 42.85 28.9758 44.3693 28.9758 46.048Z" fill="#FFC269"/>
<path d="M38.3567 57.3068C38.9458 57.5684 39.2116 58.2593 38.9458 58.8482C38.6845 59.4373 37.9936 59.7031 37.4045 59.4373C36.4609 59.0168 35.4378 59.0211 34.5433 59.3623C33.653 59.7032 32.8913 60.3898 32.4705 61.3334C32.0541 62.2767 32.0541 63.3 32.3952 64.1945C32.7406 65.085 33.4227 65.8467 34.3661 66.2675C35.3095 66.6879 36.3327 66.6837 37.2273 66.3425C38.1177 66.0015 38.8794 65.315 39.3003 64.3717C39.5616 63.7828 40.2525 63.5168 40.8416 63.7828C41.4308 64.044 41.6964 64.735 41.4352 65.3239C40.753 66.8518 39.5128 67.9637 38.06 68.5218C36.6072 69.0754 34.9463 69.08 33.4138 68.3979C31.8858 67.7201 30.7739 66.48 30.2159 65.0273C29.6622 63.5747 29.6578 61.9136 30.34 60.3811C31.0177 58.8531 32.2578 57.7412 33.7106 57.1831C35.1633 56.6246 36.8244 56.6246 38.3567 57.3068Z" fill="#FFC269"/>
<path d="M4.71277 65.9796C4.38495 65.426 4.56214 64.7085 5.11574 64.3762C5.66933 64.0441 6.38699 64.2257 6.71917 64.7793C7.25058 65.6607 8.08777 66.2454 9.01355 66.4757C9.9437 66.7059 10.9625 66.5865 11.8482 66.0549C12.7296 65.5234 13.3143 64.6862 13.5445 63.7606C13.7748 62.8304 13.6553 61.8116 13.1237 60.926C12.5923 60.0443 11.7551 59.4596 10.8295 59.2293C9.89917 58.9946 8.88058 59.1185 7.99464 59.6501C7.44105 59.9824 6.72355 59.8005 6.39136 59.247C6.05917 58.6934 6.24074 57.9759 6.79449 57.6435C8.23386 56.7845 9.88152 56.5805 11.3875 56.9571C12.8978 57.3337 14.262 58.2859 15.1257 59.7254C15.9893 61.1649 16.1887 62.8126 15.8167 64.3187C15.4401 65.829 14.4879 67.1931 13.0484 68.0568C11.609 68.9204 9.9612 69.1198 8.45527 68.7477C6.94495 68.3715 5.58074 67.419 4.71277 65.9796Z" fill="#FFC269"/>
<path d="M53.5445 69.0488C52.8978 69.0488 52.3753 68.5218 52.3753 67.8751C52.3753 67.2283 52.8979 66.7057 53.5445 66.7057H60.2014C60.8483 66.7057 61.3753 67.2285 61.3753 67.8751C61.3753 68.5216 60.8483 69.0488 60.2014 69.0488H53.5445ZM60.9058 63.5035C60.259 63.5035 59.7318 62.9765 59.7318 62.3298C59.7318 61.683 60.259 61.156 60.9058 61.156H74.8268C75.4736 61.156 76.0006 61.683 76.0006 62.3298C76.0006 62.9765 75.4736 63.5035 74.8268 63.5035H60.9058Z" fill="#87582F"/>
<path d="M44.3585 47.6119C43.7117 47.6119 43.1845 47.0849 43.1845 46.4379C43.1845 45.7911 43.7117 45.2688 44.3585 45.2688H61.4197C62.0663 45.2688 62.5935 45.7913 62.5935 46.4379C62.5935 47.0849 62.0663 47.6119 61.4197 47.6119H44.3585ZM39.2028 41.9866C38.5561 41.9866 38.0291 41.4596 38.0291 40.8129C38.0291 40.1661 38.5561 39.6438 39.2028 39.6438H49.328C49.9747 39.6438 50.4974 40.1663 50.4974 40.8129C50.4974 41.4596 49.9746 41.9866 49.328 41.9866H39.2028Z" fill="#87582F"/>
<path d="M71.4958 13.241C70.8492 13.241 70.3266 12.7185 70.3266 12.0719C70.3266 11.4252 70.8494 10.8982 71.4958 10.8982H75.3139C75.9606 10.8982 76.4877 11.4252 76.4877 12.0719C76.4877 12.7187 75.9606 13.241 75.3139 13.241H71.4958Z" fill="#B1E4F9"/>
</g>
<defs>
<clipPath id="clip0">
<rect width="80" height="80" fill="white"/>
</clipPath>
</defs>
</svg>
