<svg width="80" height="80" viewBox="0 0 80 80" fill="none" xmlns="http://www.w3.org/2000/svg">
<path d="M6.69187 62.3877H1.18922C0.532344 62.3877 0 61.8554 0 61.1984C0 60.5413 0.532344 60.0091 1.18922 60.0091H5.5025V55.9648C5.5025 55.3079 6.03484 54.7754 6.69172 54.7754C7.34859 54.7754 7.88094 55.3077 7.88094 55.9648V61.1985C7.88109 61.8554 7.34875 62.3877 6.69187 62.3877Z" fill="#21386B"/>
<path d="M51.6627 57.5504H4.31986C2.59095 57.5504 1.18939 56.1488 1.18939 54.4199V48.9041C1.18939 48.4305 1.5733 48.0466 2.04689 48.0466H51.6627V57.5504Z" fill="#5986CB"/>
<path d="M45.455 48.0466H51.6627V57.5504H45.455V48.0466Z" fill="#4278C3"/>
<path d="M67.5995 37.0703C66.7472 37.0703 66.0562 36.3794 66.0562 35.527L60.0759 26.7869H50.0064C49.1695 26.7869 48.4911 27.4653 48.4911 28.3022V57.5505H78.8355C79.4786 57.5505 80 57.0291 80 56.3859V44.0015L67.5995 37.0703Z" fill="#80B4FB"/>
<path d="M78.8355 57.5503C79.4786 57.5503 80 57.0289 80 56.3858V44.0014L76.8816 42.2583C76.8972 42.5466 76.8861 41.601 76.8897 56.3858C76.8897 57.0289 76.3683 57.5503 75.7252 57.5503H78.8355Z" fill="#61A2F9"/>
<path d="M42.5622 48.0467H5.89484V10.9027C5.89484 10.6028 6.13796 10.3599 6.43765 10.3599H42.0194C42.3192 10.3599 42.5622 10.603 42.5622 10.9027V48.0467Z" fill="#FFD064"/>
<path d="M42.0193 10.3596H37.705C38.0048 10.3596 38.2478 10.6027 38.2478 10.9024V48.0465H42.5622V10.9026C42.5622 10.6027 42.3192 10.3596 42.0193 10.3596Z" fill="#FFC250"/>
<path d="M27.4827 19.3056H20.9742C20.6941 19.3056 20.467 19.0785 20.467 18.7984V10.3596H27.9899V18.7984C27.99 19.0785 27.7628 19.3056 27.4827 19.3056Z" fill="#26457D"/>
<path d="M25.1863 10.3596V18.7984C25.1863 19.0785 24.9592 19.3056 24.6791 19.3056H27.4827C27.7628 19.3056 27.9899 19.0785 27.9899 18.7984V10.3596H25.1863Z" fill="#21386B"/>
<path d="M33.643 36.0184C33.3332 36.0184 33.0238 35.8981 32.7907 35.6587C32.3324 35.1881 32.3427 34.435 32.8133 33.9768L35.0072 31.8414L32.8133 29.7059C32.3427 29.2478 32.3325 28.4948 32.7907 28.024C33.2488 27.5534 34.0018 27.5432 34.4724 28.0014L37.5418 30.989C37.7718 31.2129 37.9015 31.5203 37.9015 31.8412C37.9015 32.1621 37.7716 32.4695 37.5418 32.6934L34.4724 35.6811C34.2413 35.9064 33.9419 36.0184 33.643 36.0184Z" fill="#F9F6F6"/>
<path d="M15.571 39.7886C15.2455 39.7886 14.9211 39.6558 14.6863 39.3946L13.1463 37.6819L11.6063 39.3946C11.1668 39.883 10.4149 39.923 9.92676 39.4836C9.43832 39.0444 9.39832 38.2925 9.83754 37.8041L12.2619 35.1082C12.4875 34.8574 12.8089 34.7141 13.1463 34.7141C13.4836 34.7141 13.805 34.8574 14.0307 35.1082L16.455 37.8041C16.8943 38.2925 16.8543 39.0446 16.3658 39.4836C16.1386 39.6879 15.8544 39.7886 15.571 39.7886Z" fill="#21386B"/>
<path d="M13.1463 43.4996C12.4894 43.4996 11.9571 42.9672 11.9571 42.3102V36.8478C11.9571 36.1909 12.4894 35.6584 13.1463 35.6584C13.8032 35.6584 14.3355 36.1909 14.3355 36.8478V42.3102C14.3355 42.9672 13.8032 43.4996 13.1463 43.4996Z" fill="#21386B"/>
<path d="M19.3791 39.7886C19.0958 39.7886 18.8116 39.688 18.5842 39.4836C18.096 39.0444 18.056 38.2924 18.4953 37.8041L20.9199 35.1082C21.1453 34.8574 21.4669 34.7141 21.8041 34.7141C22.1414 34.7141 22.4628 34.8574 22.6885 35.1082L25.1128 37.8041C25.5521 38.2926 25.5121 39.0446 25.0236 39.4836C24.5355 39.9227 23.7835 39.8832 23.3441 39.3946L21.8041 37.6819L20.2638 39.3946C20.0289 39.6557 19.7047 39.7886 19.3791 39.7886Z" fill="#21386B"/>
<path d="M21.8041 43.4996C21.1472 43.4996 20.6149 42.9672 20.6149 42.3102V36.8478C20.6149 36.1909 21.1472 35.6584 21.8041 35.6584C22.461 35.6584 22.9933 36.1909 22.9933 36.8478V42.3102C22.9935 42.9672 22.461 43.4996 21.8041 43.4996Z" fill="#21386B"/>
<path d="M64.6306 69.6404C69.5651 69.6404 73.5653 65.6402 73.5653 60.7057C73.5653 55.7712 69.5651 51.771 64.6306 51.771C59.6961 51.771 55.6959 55.7712 55.6959 60.7057C55.6959 65.6402 59.6961 69.6404 64.6306 69.6404Z" fill="#26457D"/>
<path d="M64.6306 51.771C64.1247 51.771 63.6292 51.8152 63.1461 51.896C67.3736 52.6033 70.5963 56.2771 70.5963 60.7057C70.5963 65.1341 67.3736 68.808 63.1461 69.5154C63.6291 69.5961 64.1246 69.6404 64.6306 69.6404C69.5652 69.6404 73.5653 65.6402 73.5653 60.7057C73.5653 55.7711 69.5652 51.771 64.6306 51.771Z" fill="#21386B"/>
<path d="M64.6306 63.6747C66.2704 63.6747 67.5997 62.3454 67.5997 60.7056C67.5997 59.0659 66.2704 57.7366 64.6306 57.7366C62.9909 57.7366 61.6616 59.0659 61.6616 60.7056C61.6616 62.3454 62.9909 63.6747 64.6306 63.6747Z" fill="#F9F6F6"/>
<path d="M64.6306 57.7366C64.1985 57.7366 63.7889 57.8311 63.4185 57.997C64.4533 58.4609 65.1753 59.498 65.1753 60.7055C65.1753 61.913 64.4533 62.95 63.4185 63.4139C63.7889 63.58 64.1985 63.6744 64.6306 63.6744C66.2703 63.6744 67.5996 62.3452 67.5996 60.7053C67.5996 59.0658 66.2703 57.7366 64.6306 57.7366Z" fill="#DDDAEC"/>
<path d="M19.0552 69.6404C23.9897 69.6404 27.9899 65.6402 27.9899 60.7057C27.9899 55.7712 23.9897 51.771 19.0552 51.771C14.1207 51.771 10.1205 55.7712 10.1205 60.7057C10.1205 65.6402 14.1207 69.6404 19.0552 69.6404Z" fill="#26457D"/>
<path d="M19.0553 51.771C18.5494 51.771 18.0539 51.8152 17.5708 51.896C21.7983 52.6033 25.021 56.2771 25.021 60.7057C25.021 65.1341 21.7983 68.808 17.5708 69.5154C18.0538 69.5961 18.5492 69.6404 19.0553 69.6404C23.9899 69.6404 27.99 65.6402 27.99 60.7057C27.99 55.7711 23.9897 51.771 19.0553 51.771Z" fill="#21386B"/>
<path d="M19.0552 63.6747C20.695 63.6747 22.0243 62.3454 22.0243 60.7056C22.0243 59.0659 20.695 57.7366 19.0552 57.7366C17.4154 57.7366 16.0861 59.0659 16.0861 60.7056C16.0861 62.3454 17.4154 63.6747 19.0552 63.6747Z" fill="#F9F6F6"/>
<path d="M19.0553 57.7366C18.6231 57.7366 18.2136 57.8311 17.8431 57.997C18.878 58.4609 19.6 59.498 19.6 60.7055C19.6 61.913 18.878 62.95 17.8431 63.4139C18.2136 63.58 18.6231 63.6744 19.0553 63.6744C20.695 63.6744 22.0242 62.3452 22.0242 60.7053C22.0242 59.0658 20.695 57.7366 19.0553 57.7366Z" fill="#DDDAEC"/>
<path d="M48.515 61.6707H38.0677C36.9335 61.6707 36.0141 60.7513 36.0141 59.6171V57.5505H50.5686V59.6171C50.5686 60.7512 49.6493 61.6707 48.515 61.6707Z" fill="#26457D"/>
<path d="M47.872 57.5503V59.6169C47.872 60.7511 46.9526 61.6704 45.8184 61.6704H48.5151C49.6494 61.6704 50.5687 60.7511 50.5687 59.6169V57.5503H47.872Z" fill="#21386B"/>
<path d="M80 52.7985H77.6844C76.6675 52.7985 75.8431 51.9741 75.8431 50.9572C75.8431 49.9403 76.6675 49.116 77.6844 49.116H80V52.7985Z" fill="#DA4A54"/>
<path d="M72.5031 27.5757C72.2375 27.0893 71.7275 26.7866 71.1731 26.7866H60.0759V42.458C60.0759 43.3104 60.7669 44.0013 61.6192 44.0013H80V42.5165C80 41.7199 79.7998 40.936 79.4181 40.2369L72.5031 27.5757Z" fill="#E4F6FF"/>
<path d="M80 42.5166C80 41.7201 79.7998 40.9362 79.4181 40.2371L72.5031 27.5757C72.2375 27.0893 71.7275 26.7866 71.1731 26.7866H68.0628C68.617 26.7866 69.127 27.0893 69.3928 27.5757L76.3078 40.2369C76.6897 40.936 76.8897 41.7199 76.8897 42.5165V44.0013H80V42.5166Z" fill="#D3EFFB"/>
<path d="M65.0577 36.3158C64.9553 34.0661 63.1016 32.2947 60.8496 32.2947H60.0761V42.4583C60.0761 43.3106 60.7671 44.0015 61.6194 44.0015H65.4075L65.0577 36.3158Z" fill="#26457D"/>
<path d="M73.312 37.8959C72.8475 37.4315 72.0945 37.4315 71.63 37.8959C71.1656 38.3603 71.1656 39.1134 71.63 39.5778L76.0536 44.0015H79.4177L73.312 37.8959Z" fill="#21386B"/>
<path d="M54.0459 39.7885C53.3891 39.7885 52.8566 39.256 52.8566 38.5992V34.467C52.8566 33.8102 53.3889 33.2778 54.0459 33.2778C54.703 33.2778 55.2352 33.8103 55.2352 34.467V38.5991C55.2352 39.256 54.7028 39.7885 54.0459 39.7885Z" fill="#F9F6F6"/>
<path d="M71.0895 41.3076C70.7853 41.3076 70.4808 41.1915 70.2484 40.9593C69.7841 40.4948 69.7841 39.7418 70.2484 39.2773L73.0114 36.5143C73.4759 36.0499 74.2289 36.0499 74.6934 36.5143C75.1578 36.9787 75.1578 37.7318 74.6934 38.1962L71.9305 40.9592C71.6983 41.1915 71.3939 41.3076 71.0895 41.3076Z" fill="#26457D"/>
</svg>
