<svg width="80" height="80" viewBox="0 0 80 80" fill="none" xmlns="http://www.w3.org/2000/svg">
<path d="M39.1591 30.4597H15.1966V0.925938C15.1966 0.431875 15.5972 0.03125 16.0913 0.03125H38.2642C38.7583 0.03125 39.1589 0.431875 39.1589 0.925938V30.4597H39.1591Z" fill="#EAB14D"/>
<path d="M36.3881 0.0310059V30.4594H39.1589V0.92585C39.1589 0.431787 38.7583 0.0311621 38.2642 0.0311621H36.3881V0.0310059Z" fill="#E49542"/>
<path d="M28.693 6.92491H25.6628C25.2649 6.92491 24.9424 6.60241 24.9424 6.20444V0.0310059H29.4135V6.20444C29.4135 6.60241 29.0908 6.92491 28.693 6.92491Z" fill="#DF6B57"/>
<path d="M66.6703 56.8239H29.9486V20.5883C29.9486 19.8171 30.5737 19.1919 31.345 19.1919H65.7756C66.2697 19.1919 66.6703 19.5925 66.6703 20.0866V56.8239Z" fill="#F1CB86"/>
<path d="M63.8995 19.1919V56.8239H66.6703V20.0866C66.6703 19.5925 66.2697 19.1919 65.7756 19.1919H63.8995Z" fill="#ECBE6B"/>
<path d="M49.8245 26.0858H46.7944C46.3964 26.0858 46.0739 25.7633 46.0739 25.3653V19.1919H50.545V25.3653C50.545 25.7633 50.2225 26.0858 49.8245 26.0858Z" fill="#365E7D"/>
<path d="M43.2783 79.969H1.14406C0.512187 79.969 0 79.4568 0 78.8249V51.2799C0 50.7857 0.400625 50.3853 0.894687 50.3853H42.327C42.8523 50.3853 43.2783 50.8112 43.2783 51.3365V79.969Z" fill="#EAB14D"/>
<path d="M40.5075 50.3853V79.969H43.2783V51.3365C43.2783 50.8112 42.8523 50.3853 42.327 50.3853H40.5075Z" fill="#E49542"/>
<path d="M23.1542 57.2792H20.1241C19.7261 57.2792 19.4036 56.9567 19.4036 56.5587V50.3853H23.8747V56.5587C23.8747 56.9567 23.5522 57.2792 23.1542 57.2792Z" fill="#365E7D"/>
<path d="M78.8559 79.9691H43.2783V56.824H79.1053C79.5994 56.824 80 57.2246 80 57.7187V78.8249C80 79.4568 79.4878 79.9691 78.8559 79.9691Z" fill="#EAB14D"/>
<path d="M77.2292 56.824V79.9691H78.856C79.4878 79.9691 80 79.4569 80 78.8251V57.7188C80 57.2246 79.5994 56.8241 79.1053 56.8241H77.2292V56.824Z" fill="#E49542"/>
<path d="M63.1542 63.7179H60.1241C59.7261 63.7179 59.4036 63.3954 59.4036 62.9974V56.824H63.8747V62.9974C63.8747 63.3954 63.5522 63.7179 63.1542 63.7179Z" fill="#DF6B57"/>
<path d="M29.9486 50.3855H5.98625V31.3544C5.98625 30.8603 6.38688 30.4597 6.88094 30.4597H29.9486V50.3855Z" fill="#F1CB86"/>
<path d="M27.1778 30.4597H29.9486V50.3855H27.1778V30.4597Z" fill="#ECBE6B"/>
<path d="M19.4825 37.3536H16.4523C16.0544 37.3536 15.7319 37.0311 15.7319 36.6332V30.4597H20.203V36.6332C20.203 37.0311 19.8805 37.3536 19.4825 37.3536Z" fill="#DF6B57"/>
</svg>
