<svg width="24" height="24" viewBox="0 0 24 24" fill="none" xmlns="http://www.w3.org/2000/svg">
<path d="M22.4087 6.68209C20.6514 5.19296 20.456 3.62541 20.3737 3.43886C20.3154 3.23184 20.1239 3.09191 19.9088 3.09753C19.6938 3.10395 19.5108 3.25588 19.465 3.46603C19.3927 3.64728 19.294 5.38545 17.3673 6.88189C16.5449 7.52135 16.0824 8.30862 16.0297 9.15828C15.9207 10.9063 16.9496 11.886 17.4333 12.2467V14.3411H16.6871C16.6888 14.2561 16.6877 14.1699 16.6831 14.0823C16.6333 13.1322 16.028 12.3851 14.9325 11.9219C13.9828 11.5201 13.8729 10.9712 13.8729 10.5933C13.8729 10.3346 13.6632 10.1249 13.4045 10.1249C13.1457 10.1249 12.936 10.3346 12.936 10.5933C12.936 10.9569 12.8339 11.4787 11.9804 11.8756L9.66565 5.05391C10.3961 4.79794 10.9216 4.10198 10.9216 3.2852C10.9216 2.41366 10.3235 1.67919 9.51616 1.47063V0.47433C9.51616 0.215594 9.30643 0.00585938 9.04769 0.00585938C8.78895 0.00585938 8.57922 0.215594 8.57922 0.47433V1.47058C7.7719 1.67914 7.17381 2.41361 7.17381 3.28516C7.17381 4.10161 7.69887 4.79733 8.42889 5.05359L6.7995 9.82979C6.36204 9.45595 5.97832 9.25483 5.45592 9.01971C4.90702 8.77273 4.63151 8.64873 4.44618 7.98959L4.35202 7.6551C4.29374 7.44813 4.1019 7.30787 3.88706 7.31377C3.67213 7.32019 3.48914 7.47212 3.44333 7.68222L3.36518 8.04065C3.22291 8.69056 2.998 8.79498 2.45466 9.04721C2.14674 9.19019 1.76353 9.36811 1.34561 9.69267C0.523252 10.3321 0.0606844 11.1193 0.00802824 11.9691C-0.100985 13.7171 0.927918 14.6968 1.41157 15.0575V18.5573H0.474625C0.215889 18.5573 0.00615435 18.767 0.00615435 19.0257V23.5231C0.00615435 23.7818 0.215889 23.9915 0.474625 23.9915H23.5234C23.7821 23.9915 23.9919 23.7818 23.9919 23.5231V14.8095C23.9919 14.5508 23.7821 14.341 23.5234 14.341H22.5865V12.2497C23.0722 11.8917 24.1013 10.9186 23.9919 9.15824C23.9079 7.81358 22.8999 7.10319 22.4087 6.68209ZM16.9649 9.21642C17.001 8.63449 17.3299 8.0979 17.9423 7.6217C18.8612 6.90798 19.5474 6.03977 19.9649 5.07167C20.3332 5.82694 20.8578 6.52791 21.5173 7.14283C20.9057 8.25451 19.0896 11.1289 18.0063 11.5078C17.6881 11.2799 16.8808 10.5643 16.9649 9.21642ZM13.4045 11.9566C13.653 12.2651 14.0236 12.5547 14.5675 12.7849C15.3203 13.1032 15.7174 13.5562 15.7475 14.1316C15.7958 15.0465 15.3537 15.5887 14.7576 15.7465H12.0509C11.8424 15.6937 10.9949 15.4 11.0615 14.1316C11.0971 13.4588 11.6209 13.0474 12.2416 12.7848C12.7854 12.5547 13.1559 12.2651 13.4045 11.9566ZM14.3414 19.9627H12.4675V16.6834H14.3414V19.9627ZM9.04769 17.1519C8.78895 17.1519 8.57922 17.3616 8.57922 17.6204V18.5573H6.56479V15.0596C6.8322 14.8614 7.26516 14.4752 7.58166 13.8721H10.1471C10.137 13.9416 10.1296 14.0114 10.1258 14.0823C10.0486 15.5532 10.8703 16.2826 11.5306 16.5588V18.5573H9.51616V17.6204C9.51616 17.3616 9.30643 17.1519 9.04769 17.1519ZM6.22426 10.5705C6.37937 10.7063 6.51364 10.8472 6.62457 10.9911C6.87431 11.3155 7.01242 11.6642 7.03509 12.0274C7.09585 13.0043 6.68313 13.8354 5.96056 14.3411H3.50807C4.52043 13.3455 5.55627 11.7545 6.22426 10.5705ZM10.5232 12.9357H7.90996C7.97053 12.6258 7.99096 12.3027 7.97021 11.9691C7.94074 11.4968 7.78802 11.0477 7.51626 10.6305L9.04647 6.14503L11.1436 12.3255C10.8914 12.5055 10.684 12.7095 10.5232 12.9357ZM8.11075 3.28516C8.11075 2.76853 8.53106 2.34821 9.04769 2.34821C9.56432 2.34821 9.98463 2.76853 9.98463 3.28516C9.98463 3.80179 9.56432 4.2221 9.04769 4.2221C8.53106 4.2221 8.11075 3.80179 8.11075 3.28516ZM0.94319 12.0272C0.979262 11.4453 1.30818 10.9087 1.92056 10.4325C2.25439 10.1732 2.55679 10.0328 2.84926 9.89706C3.24343 9.71408 3.64664 9.52683 3.94164 9.08623C4.26048 9.50917 4.67049 9.6937 5.0714 9.87411C5.19297 9.92882 5.31665 9.98457 5.44346 10.0486C4.80063 11.2036 3.03369 13.9515 1.9846 14.3186C1.66632 14.0907 0.859099 13.375 0.94319 12.0272ZM2.34856 15.2776H5.62785V19.9628H3.75397V19.0258C3.75397 18.7671 3.54423 18.5574 3.2855 18.5574H2.34856V15.2776ZM20.2441 23.0546H18.3703V21.8366C18.3703 21.32 18.7906 20.8997 19.3072 20.8997C19.8238 20.8997 20.2441 21.32 20.2441 21.8366V23.0546ZM23.055 17.1519H21.5559C21.2971 17.1519 21.0874 17.3616 21.0874 17.6204C21.0874 17.8791 21.2971 18.0888 21.5559 18.0888H23.055V23.0546H21.1811V21.8366C21.1811 20.8033 20.3405 19.9627 19.3072 19.9627C18.2739 19.9627 17.4333 20.8033 17.4333 21.8366V23.0546H9.51616V21.8366C9.51616 21.5779 9.30643 21.3681 9.04769 21.3681C8.78895 21.3681 8.57922 21.5779 8.57922 21.8366V23.0546H0.943143V19.4943H2.81703V20.4312C2.81703 20.6899 3.02676 20.8997 3.2855 20.8997H6.09632C6.35506 20.8997 6.56479 20.6899 6.56479 20.4312V19.4943H11.5306V20.4312C11.5306 20.6899 11.7403 20.8997 11.9991 20.8997H14.8099C15.0686 20.8997 15.2784 20.6899 15.2784 20.4312V18.0888H17.3396C17.5983 18.0888 17.808 17.8791 17.808 17.6204C17.808 17.3616 17.5983 17.1519 17.3396 17.1519H15.2784V16.5533C15.6619 16.3913 16.2313 16.0328 16.5162 15.278H23.055V17.1519ZM18.3703 14.3411V12.4667H21.6496V14.3411H18.3703ZM21.9843 11.5303H19.5306C20.5414 10.5361 21.5755 8.94775 22.2455 7.7598C22.7507 8.20096 23.0239 8.69019 23.0567 9.21656C23.1436 10.6129 22.2737 11.3314 21.9843 11.5303Z" fill="#4A5160"/>
<path d="M19.4477 18.0888C19.7064 18.0888 19.9162 17.879 19.9162 17.6203C19.9162 17.3616 19.7064 17.1519 19.4477 17.1519C19.189 17.1519 18.9792 17.3616 18.9792 17.6203C18.9792 17.879 19.189 18.0888 19.4477 18.0888Z" fill="#4A5160"/>
</svg>
