<svg width="32" height="32" viewBox="0 0 32 32" fill="none" xmlns="http://www.w3.org/2000/svg">
<path d="M30.8535 17.1464L24.6465 10.9394C24.5075 10.7995 24.3422 10.6887 24.1601 10.6132C23.9779 10.5378 23.7826 10.4993 23.5855 10.4999H15V11.4999H17.5V18.9999H18.5V11.4999H23.5855C23.6512 11.4998 23.7163 11.5127 23.7771 11.5379C23.8378 11.563 23.893 11.5999 23.9395 11.6464L24.793 12.4999H22.5C22.2348 12.4999 21.9804 12.6052 21.7929 12.7928C21.6054 12.9803 21.5 13.2347 21.5 13.4999V17.9999C21.5 18.2651 21.6054 18.5195 21.7929 18.707C21.9804 18.8945 22.2348 18.9999 22.5 18.9999H30V22.9999C30 23.1325 29.9473 23.2597 29.8536 23.3534C29.7598 23.4472 29.6326 23.4999 29.5 23.4999H28.46C28.3404 22.6675 27.9248 21.906 27.2893 21.3553C26.6538 20.8045 25.841 20.5013 25 20.5013C24.159 20.5013 23.3462 20.8045 22.7107 21.3553C22.0752 21.906 21.6596 22.6675 21.54 23.4999H14.46C14.3404 22.6675 13.9248 21.906 13.2893 21.3553C12.6538 20.8045 11.841 20.5013 11 20.5013C10.159 20.5013 9.34624 20.8045 8.71072 21.3553C8.0752 21.906 7.65955 22.6675 7.54 23.4999H6.5C6.36739 23.4999 6.24021 23.4472 6.14645 23.3534C6.05268 23.2597 6 23.1325 6 22.9999V18.4999H5V22.9999C5 23.3977 5.15804 23.7792 5.43934 24.0605C5.72064 24.3418 6.10218 24.4999 6.5 24.4999H7.54C7.64913 25.2602 8.00609 25.9632 8.5555 26.4999H1V27.4999H25C25.8407 27.4983 26.6529 27.1943 27.2881 26.6436C27.9233 26.0928 28.3393 25.3319 28.46 24.4999H29.5C29.8978 24.4999 30.2794 24.3418 30.5607 24.0605C30.842 23.7792 31 23.3977 31 22.9999V17.4999C31 17.3673 30.9473 17.2401 30.8535 17.1464ZM8.5 23.9999C8.5 23.5054 8.64662 23.0221 8.92133 22.611C9.19603 22.1998 9.58648 21.8794 10.0433 21.6902C10.5001 21.501 11.0028 21.4515 11.4877 21.5479C11.9727 21.6444 12.4181 21.8825 12.7678 22.2321C13.1174 22.5817 13.3555 23.0272 13.452 23.5122C13.5484 23.9971 13.4989 24.4998 13.3097 24.9566C13.1205 25.4134 12.8 25.8039 12.3889 26.0786C11.9778 26.3533 11.4945 26.4999 11 26.4999C10.3372 26.4991 9.70178 26.2354 9.23311 25.7668C8.76444 25.2981 8.50079 24.6627 8.5 23.9999ZM13.4445 26.4999C13.9939 25.9632 14.3509 25.2602 14.46 24.4999H21.54C21.6491 25.2602 22.0061 25.9632 22.5555 26.4999H13.4445ZM25 26.4999C24.5055 26.4999 24.0222 26.3533 23.6111 26.0786C23.2 25.8039 22.8795 25.4134 22.6903 24.9566C22.5011 24.4998 22.4516 23.9971 22.548 23.5122C22.6445 23.0272 22.8826 22.5817 23.2322 22.2321C23.5819 21.8825 24.0273 21.6444 24.5123 21.5479C24.9972 21.4515 25.4999 21.501 25.9567 21.6902C26.4135 21.8794 26.804 22.1998 27.0787 22.611C27.3534 23.0221 27.5 23.5054 27.5 23.9999C27.4992 24.6627 27.2356 25.2981 26.7669 25.7668C26.2982 26.2354 25.6628 26.4991 25 26.4999ZM22.5 17.9999V13.4999H25.793L30 17.7069V17.9999H22.5Z" fill="#6C7385"/>
<path d="M11.5 23.5H10.5V24.5H11.5V23.5Z" fill="#6C7385"/>
<path d="M25.5 23.5H24.5V24.5H25.5V23.5Z" fill="#6C7385"/>
<path d="M3.5 22H1V23H3.5V22Z" fill="#6C7385"/>
<path d="M3.5 20H2V21H3.5V20Z" fill="#6C7385"/>
<path d="M3.5 18H2.5V19H3.5V18Z" fill="#6C7385"/>
<path d="M7.5 17.5C8.78558 17.5 10.0423 17.1188 11.1112 16.4045C12.1801 15.6903 13.0132 14.6752 13.5052 13.4874C13.9972 12.2997 14.1259 10.9928 13.8751 9.73191C13.6243 8.47103 13.0052 7.31285 12.0962 6.40381C11.1872 5.49477 10.029 4.8757 8.76809 4.6249C7.50721 4.37409 6.20028 4.50282 5.01256 4.99479C3.82484 5.48675 2.80968 6.31987 2.09545 7.38879C1.38122 8.45771 1 9.71442 1 11C1.00198 12.7233 1.68744 14.3754 2.906 15.594C4.12455 16.8125 5.7767 17.498 7.5 17.5ZM7.5 5.5C8.5878 5.5 9.65117 5.82257 10.5556 6.42692C11.4601 7.03126 12.1651 7.89025 12.5813 8.89524C12.9976 9.90023 13.1065 11.0061 12.8943 12.073C12.6821 13.1399 12.1583 14.1199 11.3891 14.8891C10.6199 15.6583 9.63989 16.1821 8.573 16.3943C7.5061 16.6065 6.40023 16.4976 5.39524 16.0813C4.39025 15.665 3.53126 14.9601 2.92692 14.0556C2.32257 13.1512 2 12.0878 2 11C2.00172 9.54183 2.58174 8.14389 3.61281 7.11281C4.64389 6.08174 6.04184 5.50172 7.5 5.5Z" fill="#6C7385"/>
<path d="M7.5 15.5C7.6326 15.5 7.75975 15.4473 7.8535 15.3535C8.1755 15.0315 11 12.145 11 10C11 9.07174 10.6313 8.1815 9.97487 7.52513C9.3185 6.86875 8.42826 6.5 7.5 6.5C6.57174 6.5 5.6815 6.86875 5.02513 7.52513C4.36875 8.1815 4 9.07174 4 10C4 12.145 6.8245 15.0315 7.1465 15.3535C7.24025 15.4473 7.3674 15.5 7.5 15.5ZM7.5 7.5C8.1628 7.50079 8.79822 7.76444 9.26689 8.23311C9.73556 8.70178 9.99921 9.3372 10 10C10 11.283 8.4265 13.2655 7.5 14.2755C6.5735 13.2655 5 11.283 5 10C5.00079 9.3372 5.26444 8.70178 5.73311 8.23311C6.20178 7.76444 6.8372 7.50079 7.5 7.5Z" fill="#6C7385"/>
<path d="M9 10C9 9.70333 8.91202 9.41332 8.7472 9.16664C8.58238 8.91997 8.34811 8.72771 8.07402 8.61418C7.79993 8.50065 7.49833 8.47094 7.20736 8.52882C6.91639 8.5867 6.64912 8.72956 6.43934 8.93934C6.22956 9.14912 6.0867 9.41639 6.02882 9.70736C5.97094 9.99833 6.00065 10.2999 6.11418 10.574C6.22771 10.8481 6.41997 11.0824 6.66664 11.2472C6.91332 11.412 7.20333 11.5 7.5 11.5C7.89782 11.5 8.27935 11.342 8.56066 11.0607C8.84196 10.7794 9 10.3978 9 10ZM7 10C7 9.90111 7.02932 9.80444 7.08426 9.72221C7.13921 9.63999 7.21729 9.5759 7.30866 9.53806C7.40002 9.50022 7.50055 9.49031 7.59754 9.50961C7.69453 9.5289 7.78363 9.57652 7.85355 9.64645C7.92348 9.71637 7.9711 9.80546 7.99039 9.90245C8.00968 9.99944 7.99978 10.1 7.96194 10.1913C7.92409 10.2827 7.86001 10.3608 7.77778 10.4157C7.69556 10.4707 7.59889 10.5 7.5 10.5C7.36739 10.5 7.24021 10.4473 7.14645 10.3536C7.05268 10.2598 7 10.1326 7 10Z" fill="#6C7385"/>
<path d="M22 20H20V21H22V20Z" fill="#6C7385"/>
</svg>
