<svg xmlns="http://www.w3.org/2000/svg" width="56" height="49" viewBox="0 0 56 49"><g><g><path fill="#f7931e" d="M56 48.346H0v-48h56z"/></g><g><path fill="#fff" d="M23.475 31.292a2.61 2.61 0 1 1 0 5.22 2.61 2.61 0 0 1 0-5.22zm0 4.06a1.45 1.45 0 1 0 0-2.9 1.45 1.45 0 0 0 0 2.9z"/></g><g><path fill="#fff" d="M34.495 31.292a2.61 2.61 0 1 1 0 5.218 2.61 2.61 0 0 1 0-5.218zm0 4.06a1.449 1.449 0 1 0 0-2.9 1.45 1.45 0 1 0 0 2.9z"/></g><g><path fill="#fff" d="M40.382 16.067a.494.494 0 0 1 .086.493l-1.39 5.829a3.192 3.192 0 0 1-2.756 2.436L24.113 26.1l-.232.522c-.169.461-.116.974.145 1.391.263.422.721.684 1.218.696h11.28a.58.58 0 0 1 0 1.16h-11.28a2.693 2.693 0 0 1-2.175-1.218 2.786 2.786 0 0 1-.262-2.523l.29-.667-3.682-11.106a1.508 1.508 0 0 0-1.392-1.016H16.08a.58.58 0 1 1 0-1.16h1.943a2.667 2.667 0 0 1 2.493 1.798l.523 1.595 18.88.261c.176.018.341.1.463.232zm-1.19.927l-17.776-.26 2.697 8.177 12.063-1.247a1.97 1.97 0 0 0 1.77-1.537z"/></g></g></svg>