<svg xmlns="http://www.w3.org/2000/svg" width="41.28" height="41.28" viewBox="0 0 41.28 41.28">
  <g id="Group_103" data-name="Group 103" transform="translate(-1464.085 -1338.831)">
    <ellipse id="Ellipse_39" data-name="Ellipse 39" cx="20.637" cy="20.624" rx="20.637" ry="20.624" transform="translate(1464.085 1338.831)" fill="#3a5a98"/>
    <path id="Path_367" data-name="Path 367" d="M1499.32,1344.9a20.631,20.631,0,1,1-29.186,29.168Z" fill="#345387"/>
    <path id="Path_368" data-name="Path 368" d="M1505.225,1361.778l-14.928-14.92-7.751,7.746.462.462-4.413,4.41,3.612,3.609-.475.475,3.91,3.908-4.508,4.505,7.7,7.7A20.642,20.642,0,0,0,1505.225,1361.778Z" fill="#2e4d72"/>
    <path id="Path_369" data-name="Path 369" d="M1481.114,1351.793v3.459h-2.536v4.23h2.536v12.568h5.208v-12.568h3.495s.328-2.029.486-4.246h-3.961v-2.892a1.229,1.229,0,0,1,1.129-1.013h2.838v-4.4h-3.858C1480.985,1346.927,1481.114,1351.161,1481.114,1351.793Z" fill="#fff"/>
  </g>
</svg>
