<svg xmlns="http://www.w3.org/2000/svg" width="51" height="32" viewBox="0 0 51 32"><g><g><path fill="#1a1a1a" d="M.179 2.486c16.667 5.595 33.333-5.594 50 0V30.46c-16.667-5.595-33.333 5.596-50 0zM6.928 27.51a32.379 32.379 0 0 1-1.922-.25V25.34c-.64-.102-1.28-.224-1.921-.37v2.883c0 .532.43 1.06.96 1.162.96.183 1.922.32 2.883.418zm0-21.133a32.422 32.422 0 0 1-2.882-.418c-.531-.102-.961.232-.961.76V9.6c.64.144 1.28.266 1.92.369V8.049c.642.103 1.282.185 1.923.249zm18.25 16.272c3.412-.588 6.177-3.748 6.177-7.15 0-3.42-2.765-5.787-6.176-5.201-3.41.59-6.176 3.747-6.176 7.149 0 3.415 2.766 5.793 6.176 5.202zm22.095.697a31.685 31.685 0 0 0-1.921-.37v1.922a32.454 32.454 0 0 0-1.921-.25v1.922c.96.096 1.92.235 2.88.418.533.103.962-.23.962-.76zm0-18.251c0-.532-.43-1.06-.961-1.161a32.454 32.454 0 0 0-2.881-.418v1.92c.64.065 1.28.147 1.92.25v1.922c.64.102 1.28.224 1.922.369z"/></g></g></svg>