<svg xmlns="http://www.w3.org/2000/svg" width="13.412" height="15.328" viewBox="0 0 13.412 15.328">
                    <path data-name="Path 237"
                      d="M226.086,144.176a.375.375,0,0,0-.38.371v6.612h-4.077v-4.15a.376.376,0,0,0-.38-.371h-2.977a.375.375,0,0,0-.38.371V150.3a.38.38,0,0,0,.76,0v-2.92h2.217v3.779h-7.055v-9.084l5.946-4.654,6.088,4.765a.386.386,0,0,0,.535-.057.366.366,0,0,0-.059-.522L220,136.656a.386.386,0,0,0-.475,0l-6.326,4.951a.37.37,0,0,0-.143.29v9.634a.377.377,0,0,0,.38.371h12.652a.376.376,0,0,0,.38-.371v-6.984A.375.375,0,0,0,226.086,144.176Z"
                      transform="translate(-213.054 -136.574)" fill="#333333" />
                  </svg>