<svg xmlns="http://www.w3.org/2000/svg" width="12.081" height="15.468" viewBox="0 0 12.081 15.468">
                    <g id="Group_99" data-name="Group 99" transform="translate(-1086.751 -136.362)">
                      <g id="Group_98" data-name="Group 98">
                        <path id="Path_229" data-name="Path 229"
                          d="M1092.792,136.612a3.549,3.549,0,1,0,3.877,3.534A3.721,3.721,0,0,0,1092.792,136.612Zm0,6.58a3.059,3.059,0,1,1,3.342-3.046A3.213,3.213,0,0,1,1092.792,143.192Z"
                          fill="#333333" stroke="#333333" stroke-miterlimit="10" stroke-width="0.5" />
                        <g id="Group_97" data-name="Group 97">
                          <g id="Group_96" data-name="Group 96">
                            <path id="Path_230" data-name="Path 230"
                              d="M1092.792,145.2a5.571,5.571,0,0,0-5.791,5.455.975.975,0,0,0,1.012.921h9.558a.975.975,0,0,0,1.011-.922A5.57,5.57,0,0,0,1092.792,145.2Zm4.778,5.888h-9.556a.458.458,0,0,1-.477-.434,5.263,5.263,0,0,1,10.51,0A.46.46,0,0,1,1097.57,151.092Z"
                              fill="#333333" stroke="#333333" stroke-miterlimit="10" stroke-width="0.5" />
                          </g>
                        </g>
                      </g>
                    </g>
                  </svg>