<svg id="Component_1_1" data-name="Component 1 – 1" xmlns="http://www.w3.org/2000/svg" width="78.856" height="78.856" viewBox="0 0 78.856 78.856">
  <g id="Group_75" data-name="Group 75" transform="translate(-1398.468 -1898.457)">
    <circle id="Ellipse_29" data-name="Ellipse 29" cx="32.775" cy="32.775" r="32.775" transform="matrix(0.23, -0.973, 0.973, 0.23, 1398.468, 1962.252)" fill="#0b8f21"/>
    <path id="Path_329" data-name="Path 329" d="M1437.935,1976.009a.683.683,0,0,1,0-1.366,37.042,37.042,0,0,0,5.845-.469.683.683,0,0,1,.217,1.349,38.588,38.588,0,0,1-6.06.486Zm11.753-1.9a.683.683,0,0,1-.215-1.331,36.58,36.58,0,0,0,7.942-3.746.683.683,0,1,1,.727,1.157,37.984,37.984,0,0,1-8.239,3.885A.7.7,0,0,1,1449.688,1974.114Zm-32.447-4.313a.678.678,0,0,1-.376-.114,38.121,38.121,0,0,1-14.075-16.912.683.683,0,1,1,1.257-.534,36.746,36.746,0,0,0,13.573,16.308.683.683,0,0,1-.379,1.252Zm51.865-10.548a.668.668,0,0,1-.376-.114.682.682,0,0,1-.192-.946,36.6,36.6,0,0,0,6.115-20.309.683.683,0,0,1,1.366,0,37.959,37.959,0,0,1-6.343,21.064A.683.683,0,0,1,1469.106,1959.253Zm-68.639-21.6h-.017a.683.683,0,0,1-.666-.7,38.236,38.236,0,0,1,1.3-9.015.684.684,0,0,1,1.32.357,36.753,36.753,0,0,0-1.253,8.691A.683.683,0,0,1,1400.467,1937.65Zm71.875-13.777a.681.681,0,0,1-.628-.415,36.736,36.736,0,0,0-2.725-5.187.682.682,0,0,1,1.154-.729,38.09,38.09,0,0,1,2.827,5.38.683.683,0,0,1-.36.9A.671.671,0,0,1,1472.342,1923.873Zm-68.586-.7a.672.672,0,0,1-.281-.061.682.682,0,0,1-.34-.9,38.2,38.2,0,0,1,2.939-5.325.683.683,0,0,1,1.139.753,36.788,36.788,0,0,0-2.834,5.135A.685.685,0,0,1,1403.756,1923.173Zm62.227-9.361a.678.678,0,0,1-.512-.232,37.025,37.025,0,0,0-6.551-5.85.683.683,0,0,1,.782-1.119,38.329,38.329,0,0,1,6.793,6.066.683.683,0,0,1-.512,1.135Zm-42.743-9.708a.683.683,0,0,1-.268-1.311,37.9,37.9,0,0,1,14.924-3.031,38.542,38.542,0,0,1,6.944.63.683.683,0,0,1-.247,1.343,37.177,37.177,0,0,0-6.7-.608,36.538,36.538,0,0,0-14.389,2.923A.681.681,0,0,1,1423.24,1904.1Z" fill="#0b8f21"/>
  </g>
  <g id="Group_85" data-name="Group 85" transform="translate(-1398.468 -1898.457)">
    <path id="Path_340" data-name="Path 340" d="M1417.195,1958.7c.235-.906.439-1.694.651-2.484.691-2.521,1.4-5.038,2.055-7.565a1.853,1.853,0,0,0-.125-1.216,20.806,20.806,0,1,1,8.994,8.765,2.042,2.042,0,0,0-1.281-.139C1421.975,1957.445,1418.307,1958.484,1417.195,1958.7Zm4.85-4.783c2.074-.539,3.985-1.017,5.877-1.551a1.711,1.711,0,0,1,1.422.207,17.054,17.054,0,0,0,11.531,2.177,17.4,17.4,0,1,0-17.933-8.792,3.625,3.625,0,0,1,.388,3.305C1422.813,1950.729,1422.494,1952.257,1422.045,1953.918Z" fill="#fff" fill-rule="evenodd"/>
    <path id="Path_341" data-name="Path 341" d="M1443.569,1947.53c-4.066-.145-10.542-3.355-14.977-11.059a6.254,6.254,0,0,1,.96-8.005,2.893,2.893,0,0,1,2.674-.394c.225.033.46.378.573.633.591,1.344,1.173,2.689,1.687,4.066.272.727-.228,1.411-1.28,2.623a.9.9,0,0,0-.143,1.182,14.2,14.2,0,0,0,7.226,6.2.868.868,0,0,0,1.1-.293c1.662-2.028,1.832-2.622,2.706-2.206,4.206,2.01,4.535,2.094,4.554,2.571C1448.789,1946.4,1445.539,1947.674,1443.569,1947.53Z" fill="#fff" fill-rule="evenodd"/>
  </g>
</svg>
