<svg width="34" height="37" viewBox="0 0 34 37" fill="none" xmlns="http://www.w3.org/2000/svg">
<path d="M17 0C10.3657 0 5 4.74643 5 10.615C5 18.5763 17 30.3286 17 30.3286C17 30.3286 29 18.5763 29 10.615C29 4.74643 23.6343 0 17 0ZM8.42857 10.615C8.42857 6.42967 12.2686 3.03286 17 3.03286C21.7314 3.03286 25.5714 6.42967 25.5714 10.615C25.5714 14.9823 20.6343 21.5181 17 25.5973C13.4343 21.5485 8.42857 14.9368 8.42857 10.615Z" fill="#66B007"/>
<path d="M17.0001 14.4058C19.367 14.4058 21.2858 12.7086 21.2858 10.615C21.2858 8.5214 19.367 6.82422 17.0001 6.82422C14.6331 6.82422 12.7144 8.5214 12.7144 10.615C12.7144 12.7086 14.6331 14.4058 17.0001 14.4058Z" fill="#66B007"/>
<path d="M2 26V35H32V26" stroke="#66B007" stroke-width="3"/>
</svg>
