<svg width="162" height="38" viewBox="0 0 162 38" fill="none" xmlns="http://www.w3.org/2000/svg">
<path d="M116.546 18.6415C116.546 7.82035 110.406 0.860352 100.595 0.860352H90.0786V6.93922L92.1917 12.8003V2.79094H100.343C108.947 2.79094 114.33 8.93663 114.33 18.6415C114.33 28.4454 108.947 34.5441 100.343 34.5441H100.029L100.705 36.4202C110.45 36.3682 116.546 29.4726 116.546 18.6415Z" fill="white"/>
<path d="M73.142 0.860352L66.1409 18.5351L67.2048 21.4854L74.2991 3.24635L82.5014 24.3318H68.2294L68.9256 26.2624H83.2564L87.2301 36.4227H89.5467L75.4561 0.860352H73.142Z" fill="white"/>
<path d="M44.4119 20.5696L54.3253 36.4227H56.7914L46.6255 20.2677C51.7072 18.9979 54.6758 15.7976 54.6758 10.8177C54.6758 4.57054 50.0452 0.860352 42.1468 0.860352H32.0839V7.36493L34.197 13.226V2.78846H41.9458C48.8881 2.78846 52.5627 5.78829 52.5627 10.8152C52.5627 15.7432 48.8881 18.7925 41.9458 18.7925H36.2022L36.8984 20.7231H40.8868C42.1468 20.7256 43.3063 20.6736 44.4119 20.5696Z" fill="white"/>
<path d="M11.4553 2.17961C16.488 2.17961 20.2117 4.15969 23.1288 8.53073L24.8889 7.41198C21.9718 2.79096 17.3411 0.249023 11.4063 0.249023C6.68493 0.249023 2.75046 2.19446 0 5.47645L0.83102 7.78078C3.25299 4.24385 6.984 2.17961 11.4553 2.17961Z" fill="#95C11F"/>
<path d="M24.7884 31.3909V18.3867H12.4113V20.3173H22.6753V30.5791C20.4102 33.423 16.0345 35.0986 12.1074 35.0986C11.6122 35.0986 11.1268 35.0739 10.6537 35.0318L11.367 37.0119C11.595 37.0193 11.823 37.0292 12.0559 37.0292C16.738 37.0317 21.8198 35.1531 24.7884 31.3909Z" fill="#95C11F"/>
<path d="M127.323 26.5937L124.771 19.8589H124.729C124.778 20.3936 124.8 21.0272 124.8 21.7598V26.5937H123.991V18.9951H125.31L127.693 25.2621H127.734L130.137 18.9951H131.443V26.5937H130.568V21.6979C130.568 21.1361 130.593 20.5272 130.639 19.8688H130.598L128.024 26.5937H127.323Z" fill="white"/>
<path d="M138.494 26.5937H134.299V18.9951H138.494V19.7797H135.175V22.2276H138.293V23.0073H135.175V25.8041H138.494V26.5937Z" fill="white"/>
<path d="M146.958 22.7226C146.958 23.9775 146.62 24.9354 145.946 25.5987C145.272 26.262 144.301 26.5937 143.036 26.5937H140.952V18.9951H143.259C144.428 18.9951 145.338 19.3218 145.988 19.9777C146.635 20.6336 146.958 21.547 146.958 22.7226ZM146.032 22.7523C146.032 21.7623 145.787 21.0148 145.294 20.5124C144.801 20.0099 144.071 19.7599 143.097 19.7599H141.825V25.8289H142.891C143.933 25.8289 144.718 25.569 145.242 25.0517C145.769 24.5344 146.032 23.7671 146.032 22.7523Z" fill="white"/>
<path d="M149.427 26.5937V18.9951H150.302V26.5937H149.427Z" fill="white"/>
<path d="M157.887 26.5941L156.95 24.1784H153.935L153.008 26.5941H152.123L155.099 18.9658H155.835L158.794 26.5941H157.887ZM156.678 23.3814L155.803 21.0276C155.69 20.7306 155.572 20.3643 155.452 19.9311C155.376 20.2628 155.268 20.6291 155.129 21.0276L154.244 23.3814H156.678Z" fill="white"/>
<path d="M127.301 32.7709H129.86V36.4663C129.463 36.595 129.056 36.6915 128.644 36.7583C128.232 36.8252 127.754 36.8573 127.212 36.8573C126.072 36.8573 125.187 36.5158 124.553 35.8302C123.918 35.1446 123.601 34.1867 123.601 32.9541C123.601 32.1645 123.758 31.4715 124.072 30.8775C124.386 30.2835 124.839 29.8305 125.428 29.5162C126.019 29.2018 126.71 29.0459 127.502 29.0459C128.306 29.0459 129.053 29.1944 129.745 29.4914L129.406 30.2711C128.727 29.979 128.073 29.8355 127.445 29.8355C126.528 29.8355 125.813 30.1102 125.298 30.6621C124.783 31.2141 124.526 31.9764 124.526 32.9541C124.526 33.9788 124.773 34.7584 125.268 35.2881C125.764 35.8178 126.492 36.0826 127.453 36.0826C127.975 36.0826 128.485 36.0232 128.982 35.9019V33.563H127.298V32.7709H127.301Z" fill="white"/>
<path d="M133.331 33.5931V36.7539H132.456V29.1553H134.52C135.444 29.1553 136.126 29.3335 136.567 29.6899C137.008 30.0463 137.229 30.5834 137.229 31.3012C137.229 32.3061 136.724 32.9843 135.716 33.3382L137.758 36.7514H136.724L134.902 33.5907H133.331V33.5931ZM133.331 32.8333H134.53C135.147 32.8333 135.601 32.7095 135.888 32.462C136.175 32.2145 136.319 31.8432 136.319 31.3482C136.319 30.8458 136.172 30.4844 135.88 30.2616C135.586 30.0389 135.116 29.93 134.468 29.93H133.331V32.8333Z" fill="white"/>
<path d="M146.294 32.9429C146.294 34.1582 145.99 35.116 145.38 35.8115C144.769 36.507 143.923 36.856 142.84 36.856C141.732 36.856 140.876 36.5145 140.273 35.8289C139.67 35.1457 139.371 34.178 139.371 32.9305C139.371 31.693 139.673 30.7351 140.278 30.0544C140.881 29.3738 141.739 29.0322 142.852 29.0322C143.933 29.0322 144.777 29.3787 145.384 30.0718C145.99 30.7673 146.294 31.7251 146.294 32.9429ZM140.298 32.9429C140.298 33.9725 140.514 34.7522 140.95 35.2843C141.384 35.8165 142.014 36.0813 142.842 36.0813C143.676 36.0813 144.306 35.8165 144.732 35.2868C145.159 34.7571 145.37 33.975 145.37 32.9429C145.37 31.9207 145.159 31.146 144.735 30.6163C144.311 30.0891 143.683 29.8243 142.855 29.8243C142.021 29.8243 141.386 30.0916 140.952 30.6212C140.518 31.1509 140.298 31.9281 140.298 32.9429Z" fill="white"/>
<path d="M154.445 29.1553V34.0708C154.445 34.9371 154.185 35.6178 153.667 36.1128C153.15 36.6078 152.437 36.8553 151.532 36.8553C150.628 36.8553 149.927 36.6053 149.429 36.1078C148.934 35.6079 148.686 34.9223 148.686 34.051V29.1553H149.561V34.1129C149.561 34.7465 149.733 35.2341 150.076 35.5732C150.419 35.9123 150.924 36.0831 151.589 36.0831C152.224 36.0831 152.711 35.9123 153.055 35.5707C153.398 35.2292 153.569 34.7391 153.569 34.103V29.1553H154.445Z" fill="white"/>
<path d="M162 31.3685C162 32.1383 161.74 32.7299 161.22 33.1432C160.701 33.5565 159.956 33.7644 158.99 33.7644H158.105V36.7519H157.23V29.1533H159.181C161.059 29.1558 162 29.8934 162 31.3685ZM158.102 33.0046H158.889C159.664 33.0046 160.225 32.8784 160.573 32.6259C160.919 32.3734 161.093 31.9675 161.093 31.4106C161.093 30.9082 160.929 30.5344 160.605 30.2869C160.279 30.0419 159.772 29.9181 159.083 29.9181H158.105V33.0046H158.102Z" fill="white"/>
</svg>
