<svg width="121" height="23" viewBox="0 0 121 23" fill="none" xmlns="http://www.w3.org/2000/svg">
<path d="M117.371 4.59705H116.469V6.43549H115.66V1.66406H117.297C117.835 1.66406 118.249 1.7875 118.541 2.03437C118.833 2.28125 118.979 2.63845 118.979 3.10598C118.979 3.42495 118.904 3.69257 118.752 3.90886C118.603 4.12296 118.394 4.28791 118.126 4.4037L119.171 6.39289V6.43549H118.305L117.371 4.59705ZM116.469 3.9318H117.301C117.573 3.9318 117.787 3.86189 117.94 3.72207C118.094 3.58006 118.17 3.38671 118.17 3.14203C118.17 2.88641 118.099 2.6887 117.956 2.54887C117.815 2.40905 117.604 2.33696 117.323 2.33259H116.469V3.9318Z" fill="white"/>
<path fill-rule="evenodd" clip-rule="evenodd" d="M117.311 7.1231C118.978 7.1231 120.329 5.73816 120.329 4.02976C120.329 2.32136 118.978 0.936431 117.311 0.936431C115.644 0.936431 114.293 2.32136 114.293 4.02976C114.293 5.73816 115.644 7.1231 117.311 7.1231ZM117.311 7.8105C119.348 7.8105 121 6.11781 121 4.02976C121 1.94172 119.348 0.249023 117.311 0.249023C115.273 0.249023 113.622 1.94172 113.622 4.02976C113.622 6.11781 115.273 7.8105 117.311 7.8105Z" fill="white"/>
<path d="M10.8033 0.256836V3.25109H3.61706V17.36H0V0.256836H10.8033Z" fill="white"/>
<path d="M16.8453 4.04157C18.6498 4.04157 20.0791 4.56057 21.133 5.59858C22.187 6.62062 22.714 8.08181 22.714 9.98216V11.7069H14.2822C14.3141 12.7129 14.6096 13.5034 15.1685 14.0783C15.7434 14.6532 16.5339 14.9406 17.5399 14.9406C18.3863 14.9406 19.1529 14.8608 19.8395 14.7011C20.5262 14.5254 21.2368 14.2619 21.9714 13.9106V16.6653C21.3327 16.9847 20.654 17.2163 19.9353 17.36C19.2327 17.5197 18.3783 17.5995 17.3723 17.5995C16.0628 17.5995 14.905 17.36 13.8989 16.8809C12.8929 16.3859 12.1024 15.6433 11.5275 14.6532C10.9526 13.6631 10.6651 12.4175 10.6651 10.9164C10.6651 9.38331 10.9207 8.11375 11.4317 7.10768C11.9587 6.08564 12.6853 5.31912 13.6115 4.8081C14.5377 4.29708 15.6156 4.04157 16.8453 4.04157ZM16.8692 6.58069C16.1826 6.58069 15.6077 6.80427 15.1445 7.25141C14.6974 7.69855 14.4339 8.39321 14.3541 9.33541H19.3605C19.3445 8.53694 19.1369 7.88219 18.7376 7.37118C18.3384 6.84419 17.7156 6.58069 16.8692 6.58069Z" fill="white"/>
<path d="M37.3696 4.28111V14.749H39.2859V22.055H36.076V17.36H27.2849V22.055H24.0751V14.749H25.177C25.7519 13.8707 26.2389 12.8726 26.6382 11.7548C27.0374 10.6209 27.3568 9.41525 27.5963 8.1377C27.8359 6.86016 28.0115 5.57463 28.1233 4.28111H37.3696ZM33.8004 6.96396H31.1176C30.9259 8.41717 30.6624 9.79852 30.3271 11.108C29.9917 12.4015 29.5206 13.6152 28.9138 14.749H33.8004V6.96396Z" fill="white"/>
<path d="M46.9048 4.04157C48.7093 4.04157 50.1385 4.56057 51.1925 5.59858C52.2465 6.62062 52.7735 8.08181 52.7735 9.98216V11.7069H44.3417C44.3736 12.7129 44.669 13.5034 45.228 14.0783C45.8029 14.6532 46.5933 14.9406 47.5994 14.9406C48.4458 14.9406 49.2123 14.8608 49.899 14.7011C50.5857 14.5254 51.2963 14.2619 52.0309 13.9106V16.6653C51.3921 16.9847 50.7134 17.2163 49.9948 17.36C49.2922 17.5197 48.4378 17.5995 47.4317 17.5995C46.1223 17.5995 44.9645 17.36 43.9584 16.8809C42.9523 16.3859 42.1619 15.6433 41.587 14.6532C41.0121 13.6631 40.7246 12.4175 40.7246 10.9164C40.7246 9.38331 40.9801 8.11375 41.4911 7.10768C42.0181 6.08564 42.7447 5.31912 43.671 4.8081C44.5972 4.29708 45.6751 4.04157 46.9048 4.04157ZM46.9287 6.58069C46.242 6.58069 45.6671 6.80427 45.204 7.25141C44.7569 7.69855 44.4934 8.39321 44.4135 9.33541H49.4199C49.404 8.53694 49.1964 7.88219 48.7971 7.37118C48.3979 6.84419 47.7751 6.58069 46.9287 6.58069Z" fill="white"/>
<path d="M67.3811 17.36H63.812V6.96396H60.5303C60.3227 9.51905 60.0432 11.5791 59.6919 13.1441C59.3565 14.6931 58.8854 15.8269 58.2786 16.5456C57.6718 17.2482 56.8573 17.5995 55.8353 17.5995C55.0049 17.5995 54.3262 17.4718 53.7992 17.2163V14.3657C54.1665 14.5254 54.5498 14.6053 54.949 14.6053C55.2364 14.6053 55.4999 14.4616 55.7395 14.1741C55.979 13.8867 56.2026 13.3677 56.4102 12.6171C56.6338 11.8665 56.8334 10.8206 57.009 9.47913C57.1847 8.12174 57.3444 6.38906 57.4881 4.28111H67.3811V17.36Z" fill="white"/>
<path d="M74.5561 4.28111V9.45518C74.5561 9.72665 74.5401 10.062 74.5082 10.4612C74.4922 10.8605 74.4683 11.2677 74.4363 11.6829C74.4204 12.0981 74.3964 12.4654 74.3645 12.7848C74.3325 13.1042 74.3086 13.3277 74.2926 13.4555L80.329 4.28111H84.6168V17.36H81.1674V12.138C81.1674 11.7069 81.1834 11.2358 81.2153 10.7247C81.2472 10.1977 81.2792 9.71068 81.3111 9.26354C81.359 8.80043 81.391 8.44911 81.4069 8.20957L75.3945 17.36H71.1067V4.28111H74.5561Z" fill="white"/>
<path d="M96.9226 4.28111H100.851L95.677 10.5571L101.306 17.36H97.2579L91.9162 10.7247V17.36H88.3471V4.28111H91.9162V10.6289L96.9226 4.28111Z" fill="white"/>
<path d="M108.028 17.5995C106.08 17.5995 104.571 17.0646 103.501 15.9946C102.447 14.9087 101.92 13.208 101.92 10.8924C101.92 9.29548 102.191 7.99398 102.734 6.98791C103.277 5.98184 104.028 5.23927 104.986 4.76019C105.96 4.28111 107.078 4.04157 108.339 4.04157C109.234 4.04157 110.008 4.1294 110.663 4.30506C111.334 4.48073 111.916 4.68833 112.411 4.92787L111.357 7.68258C110.799 7.45901 110.272 7.27536 109.777 7.13164C109.297 6.98791 108.818 6.91605 108.339 6.91605C106.487 6.91605 105.561 8.23352 105.561 10.8685C105.561 12.1779 105.8 13.1441 106.279 13.7669C106.774 14.3897 107.461 14.7011 108.339 14.7011C109.09 14.7011 109.753 14.6053 110.327 14.4137C110.902 14.2061 111.461 13.9266 112.004 13.5753V16.6174C111.461 16.9687 110.886 17.2163 110.28 17.36C109.689 17.5197 108.938 17.5995 108.028 17.5995Z" fill="white"/>
</svg>
