<svg width="265" height="49" viewBox="0 0 265 49" fill="none" xmlns="http://www.w3.org/2000/svg">
<path d="M257.052 10.2741H255.077V14.3004H253.305V3.85059H256.891C258.067 3.85059 258.975 4.12092 259.615 4.6616C260.255 5.20227 260.574 5.98457 260.574 7.0085C260.574 7.70707 260.409 8.2932 260.077 8.76688C259.75 9.23578 259.293 9.59703 258.705 9.85062L260.995 14.2071V14.3004H259.097L257.052 10.2741ZM255.077 8.81712H256.898C257.495 8.81712 257.962 8.66401 258.298 8.35779C258.635 8.04678 258.803 7.62333 258.803 7.08745C258.803 6.52763 258.646 6.09462 258.333 5.7884C258.025 5.48217 257.563 5.32428 256.947 5.31471H255.077V8.81712Z" fill="#25A920"/>
<path fill-rule="evenodd" clip-rule="evenodd" d="M256.921 15.806C260.571 15.806 263.531 12.7729 263.531 9.03135C263.531 5.28981 260.571 2.2567 256.921 2.2567C253.27 2.2567 250.31 5.28981 250.31 9.03135C250.31 12.7729 253.27 15.806 256.921 15.806ZM256.921 17.3115C261.383 17.3115 265 13.6043 265 9.03135C265 4.45836 261.383 0.751221 256.921 0.751221C252.458 0.751221 248.841 4.45836 248.841 9.03135C248.841 13.6043 252.458 17.3115 256.921 17.3115Z" fill="#25A920"/>
<path d="M23.66 0.766235V7.32389H7.92165V38.2236H0V0.766235H23.66Z" fill="#25A920"/>
<path d="M36.8926 9.05511C40.8446 9.05511 43.9748 10.1918 46.2831 12.4651C48.5914 14.7034 49.7456 17.9036 49.7456 22.0655V25.8427H31.2792C31.3491 28.0461 31.9962 29.7773 33.2203 31.0364C34.4793 32.2954 36.2106 32.925 38.4139 32.925C40.2676 32.925 41.9463 32.7501 43.4502 32.4004C44.9541 32.0157 46.5104 31.4386 48.1193 30.6691V36.7022C46.7203 37.4017 45.2339 37.9088 43.6601 38.2236C42.1212 38.5733 40.2501 38.7482 38.0467 38.7482C35.1788 38.7482 32.6432 38.2236 30.4398 37.1743C28.2364 36.0901 26.5052 34.4638 25.2462 32.2955C23.9871 30.1271 23.3575 27.3991 23.3575 24.1115C23.3575 20.754 23.9171 17.9735 25.0363 15.7702C26.1905 13.5318 27.7818 11.853 29.8103 10.7339C31.8388 9.6147 34.1995 9.05511 36.8926 9.05511ZM36.945 14.616C35.4411 14.616 34.1821 15.1056 33.1678 16.0849C32.1885 17.0642 31.6115 18.5856 31.4366 20.6491H42.401C42.366 18.9003 41.9114 17.4664 41.037 16.3472C40.1626 15.1931 38.7986 14.616 36.945 14.616Z" fill="#25A920"/>
<path d="M81.8424 9.57973V32.5053H86.0393V48.506H79.0095V38.2236H59.7562V48.506H52.7264V32.5053H55.1396C56.3987 30.5817 57.4654 28.3958 58.3398 25.9476C59.2141 23.4645 59.9136 20.8239 60.4382 18.026C60.9628 15.2281 61.3476 12.4126 61.5924 9.57973H81.8424ZM74.0257 15.4554H68.15C67.7303 18.638 67.1533 21.6633 66.4188 24.5312C65.6843 27.3641 64.6526 30.0221 63.3236 32.5053H74.0257V15.4554Z" fill="#25A920"/>
<path d="M102.725 9.05511C106.677 9.05511 109.808 10.1918 112.116 12.4651C114.424 14.7034 115.578 17.9036 115.578 22.0655V25.8427H97.1119C97.1819 28.0461 97.8289 29.7773 99.053 31.0364C100.312 32.2954 102.043 32.925 104.247 32.925C106.1 32.925 107.779 32.7501 109.283 32.4004C110.787 32.0157 112.343 31.4386 113.952 30.6691V36.7022C112.553 37.4017 111.067 37.9088 109.493 38.2236C107.954 38.5733 106.083 38.7482 103.879 38.7482C101.012 38.7482 98.4759 38.2236 96.2725 37.1743C94.0692 36.0901 92.3379 34.4638 91.0789 32.2955C89.8198 30.1271 89.1903 27.3991 89.1903 24.1115C89.1903 20.754 89.7499 17.9735 90.869 15.7702C92.0232 13.5318 93.6145 11.853 95.643 10.7339C97.6715 9.6147 100.032 9.05511 102.725 9.05511ZM102.778 14.616C101.274 14.616 100.015 15.1056 99.0005 16.0849C98.0212 17.0642 97.4442 18.5856 97.2693 20.6491H108.234C108.199 18.9003 107.744 17.4664 106.87 16.3472C105.995 15.1931 104.631 14.616 102.778 14.616Z" fill="#25A920"/>
<path d="M147.57 38.2236H139.753V15.4554H132.566C132.112 21.0513 131.5 25.5629 130.73 28.9904C129.996 32.3829 128.964 34.866 127.635 36.4399C126.306 37.9787 124.522 38.7482 122.284 38.7482C120.465 38.7482 118.979 38.4684 117.825 37.9088V31.6659C118.629 32.0157 119.468 32.1905 120.343 32.1905C120.972 32.1905 121.549 31.8758 122.074 31.2462C122.599 30.6167 123.088 29.48 123.543 27.8362C124.033 26.1925 124.47 23.9016 124.854 20.9638C125.239 17.991 125.589 14.1963 125.904 9.57973H147.57V38.2236Z" fill="#25A920"/>
<path d="M163.284 9.57973V20.9114C163.284 21.5059 163.249 22.2404 163.179 23.1147C163.144 23.9891 163.092 24.8809 163.022 25.7903C162.987 26.6996 162.934 27.504 162.864 28.2035C162.794 28.903 162.742 29.3926 162.707 29.6724L175.927 9.57973H185.318V38.2236H177.763V26.787C177.763 25.8427 177.798 24.811 177.868 23.6918C177.938 22.5377 178.008 21.4709 178.078 20.4917C178.183 19.4774 178.253 18.708 178.288 18.1834L165.12 38.2236H155.73V9.57973H163.284Z" fill="#25A920"/>
<path d="M212.268 9.57973H220.872L209.54 23.3246L221.869 38.2236H213.003L201.304 23.6918V38.2236H193.487V9.57973H201.304V23.482L212.268 9.57973Z" fill="#25A920"/>
<path d="M236.59 38.7482C232.323 38.7482 229.018 37.5765 226.675 35.2333C224.367 32.855 223.212 29.1303 223.212 24.059C223.212 20.5616 223.807 17.7112 224.996 15.5078C226.185 13.3045 227.829 11.6782 229.927 10.629C232.061 9.57973 234.509 9.05511 237.272 9.05511C239.231 9.05511 240.927 9.24747 242.361 9.63219C243.83 10.0169 245.106 10.4716 246.19 10.9962L243.882 17.0292C242.658 16.5396 241.504 16.1374 240.42 15.8226C239.37 15.5078 238.321 15.3505 237.272 15.3505C233.215 15.3505 231.186 18.2358 231.186 24.0066C231.186 26.8744 231.711 28.9904 232.76 30.3544C233.844 31.7184 235.348 32.4004 237.272 32.4004C238.916 32.4004 240.367 32.1905 241.626 31.7708C242.885 31.3162 244.109 30.7041 245.299 29.9347V36.5973C244.109 37.3667 242.85 37.9088 241.521 38.2236C240.227 38.5733 238.584 38.7482 236.59 38.7482Z" fill="#25A920"/>
</svg>
