<svg width="8" height="8" viewBox="0 0 8 8" fill="none" xmlns="http://www.w3.org/2000/svg">
<path d="M2.45653 7.44344L6.45662 3.44335L4.55665 1.54338L0.556561 5.54347C0.501492 5.59861 0.462373 5.66762 0.443355 5.7432L0 8L2.25637 7.55664C2.33213 7.53771 2.40143 7.49854 2.45653 7.44344ZM7.74794 2.15202C7.90934 1.99058 8 1.77165 8 1.54338C8 1.3151 7.90934 1.09617 7.74794 0.934735L7.06526 0.252055C6.90383 0.0906642 6.6849 0 6.45662 0C6.22835 0 6.00942 0.0906642 5.84798 0.252055L5.1653 0.934735L7.06526 2.8347L7.74794 2.15202Z" fill="#232323"/>
</svg>
