<svg width="4" height="12" viewBox="0 0 4 12" fill="none" xmlns="http://www.w3.org/2000/svg">
<path d="M3.20794 4.075L0.183944 4.454L0.0759441 4.956L0.670944 5.064C1.05794 5.157 1.13494 5.296 1.05094 5.683L0.0759441 10.26C-0.179056 11.443 0.215944 12 1.14294 12C1.86294 12 2.69694 11.668 3.07594 11.211L3.19194 10.662C2.92894 10.894 2.54194 10.987 2.28694 10.987C1.92394 10.987 1.79294 10.732 1.88494 10.283L3.20794 4.075ZM3.29894 1.32C3.29894 1.67009 3.15987 2.00583 2.91233 2.25338C2.66478 2.50093 2.32903 2.64 1.97894 2.64C1.62886 2.64 1.29311 2.50093 1.04556 2.25338C0.798015 2.00583 0.658944 1.67009 0.658944 1.32C0.658944 0.969914 0.798015 0.634167 1.04556 0.386619C1.29311 0.139071 1.62886 0 1.97894 0C2.32903 0 2.66478 0.139071 2.91233 0.386619C3.15987 0.634167 3.29894 0.969914 3.29894 1.32Z" fill="#252525"/>
</svg>
