<svg width="15" height="19" viewBox="0 0 15 19" fill="none" xmlns="http://www.w3.org/2000/svg">
<path opacity="0.8" fill-rule="evenodd" clip-rule="evenodd" d="M6.63954 0.0105405C5.44907 0.12234 4.62676 0.3446 3.69179 0.807371C1.60731 1.83906 0.247484 3.70338 0.0352848 5.82054C-0.0128745 6.30081 -0.0112667 10.1221 0.0372371 10.4477C0.17804 11.3935 0.841283 12.2143 1.75642 12.5752L1.96908 12.6591L1.99067 14.0083C2.01403 15.4673 2.01364 15.4643 2.24594 15.9151C2.59952 16.6012 3.32535 17.2951 4.34707 17.9237C4.82288 18.2164 5.83262 18.6921 6.33328 18.8593L6.75438 19H7.48175H8.20912L8.63022 18.8574C9.12529 18.6898 10.0047 18.2864 10.4778 18.0098C11.6066 17.3501 12.3803 16.6384 12.7551 15.9151C12.9881 15.4655 12.9877 15.4682 13.0111 14.0083L13.0327 12.6591L13.2454 12.5752C13.9805 12.2852 14.5775 11.678 14.8356 10.9577C14.998 10.5043 15.0111 10.2514 14.9946 7.90209C14.98 5.826 14.9742 5.67191 14.8978 5.32242C14.7468 4.63137 14.553 4.1037 14.2564 3.57556C13.2136 1.71909 11.2714 0.441607 8.93648 0.0765868C8.60787 0.0252216 6.98132 -0.0215721 6.63954 0.0105405ZM5.67049 7.83032C6.68586 8.1348 6.80549 8.99266 5.9544 9.86617C5.56801 10.2627 4.93367 10.6418 4.3189 10.8435C3.75124 11.0298 3.19619 10.7717 2.98479 10.2231C2.88694 9.96923 2.81562 9.40183 2.84395 9.1029C2.87496 8.77579 3.04382 8.44961 3.30759 8.20746C3.68433 7.86151 4.01769 7.77056 4.94152 7.76157C5.32557 7.75785 5.47617 7.77205 5.67049 7.83032ZM10.8697 7.79509C11.4308 7.86526 11.7672 8.0537 12.0434 8.45262C12.2618 8.76813 12.3198 9.03384 12.2802 9.53764C12.244 9.99807 12.1745 10.2503 12.0242 10.4677C11.8105 10.7765 11.39 10.9518 10.9994 10.895C10.756 10.8595 9.76105 10.367 9.46237 10.1341C8.82435 9.63662 8.47269 8.89576 8.66541 8.45514C8.79503 8.15877 9.11296 7.91696 9.51072 7.81219C9.73601 7.75283 10.4592 7.74376 10.8697 7.79509ZM7.71321 10.3225C8.03669 10.5166 8.38135 11.3322 8.49723 12.1778C8.56055 12.6401 8.48808 12.9049 8.2678 13.0154C8.12122 13.089 6.84465 13.0966 6.70064 13.0248C6.49525 12.9223 6.44774 12.8007 6.45272 12.3904C6.45785 11.9683 6.55049 11.5353 6.73448 11.0732C7.01088 10.379 7.36051 10.1108 7.71321 10.3225ZM4.00724 12.8303C4.71527 13.0568 4.91266 13.1343 4.97387 13.2099C5.0437 13.296 5.05082 13.3603 5.05097 13.9038C5.05109 14.4374 5.05947 14.5161 5.12773 14.6248C5.23419 14.7943 5.29054 14.8032 5.4256 14.6721C5.48995 14.6096 5.57758 14.5585 5.62031 14.5585C5.82098 14.5585 5.9696 14.7095 5.9696 14.9133C5.9696 15.0025 5.97626 15.0045 6.27585 15.0045H6.58211V14.8815C6.58211 14.6612 6.83313 14.4974 7.0211 14.595C7.12228 14.6476 7.19463 14.7803 7.19463 14.9133C7.19463 15.0025 7.20129 15.0045 7.50089 15.0045H7.80715V14.8815C7.80715 14.6631 8.02513 14.514 8.22611 14.5948C8.34223 14.6415 8.41967 14.7689 8.41967 14.9133C8.41967 15.0025 8.42633 15.0045 8.72593 15.0045H9.03219V14.8728C9.03219 14.7158 9.17242 14.5585 9.31242 14.5585C9.42076 14.5585 9.60643 14.6893 9.60643 14.7656C9.60643 14.9226 9.8669 14.6999 9.91376 14.5028C9.93324 14.421 9.94955 14.1092 9.95005 13.81C9.95081 13.3477 9.96103 13.254 10.018 13.1865C10.0644 13.1316 10.3653 13.0171 10.9977 12.8139C11.7832 12.5615 11.9261 12.5259 12.0226 12.5585C12.0843 12.5794 12.1516 12.627 12.1722 12.6644C12.2255 12.7612 12.2185 12.9343 12.158 13.0146C12.1263 13.0568 11.8133 13.179 11.3445 13.3322L10.5826 13.5812L10.5606 14.1213C10.5406 14.6108 10.5287 14.6808 10.4336 14.8697C10.2554 15.2232 9.92838 15.4292 9.36877 15.5405C8.95103 15.6236 6.04727 15.6255 5.6442 15.543C5.13454 15.4387 4.72722 15.1781 4.54097 14.8373C4.47222 14.7114 4.45664 14.6034 4.43945 14.1341L4.41916 13.5796L3.66637 13.335C3.25235 13.2004 2.87764 13.0585 2.83373 13.0196C2.6806 12.8838 2.76654 12.6105 2.98357 12.5431C3.05408 12.5212 2.95018 12.492 4.00724 12.8303Z" fill="white"/>
</svg>
