<svg width="20" height="13" viewBox="0 0 20 13" fill="none" xmlns="http://www.w3.org/2000/svg">
<path d="M19.9719 0.876996C20.1316 1.34979 19.6109 2.43575 18.41 4.13486C18.2434 4.37126 18.0177 4.68523 17.7331 5.07676C17.4555 5.45352 17.2645 5.71947 17.1604 5.87461C17.0563 6.02974 16.9504 6.21258 16.8428 6.42312C16.7352 6.63367 16.6936 6.7888 16.7179 6.88853C16.7422 6.98826 16.7873 7.1157 16.8532 7.27083C16.9192 7.42597 17.032 7.5848 17.1917 7.74732C17.3513 7.90985 17.5492 8.10562 17.7852 8.33463C17.813 8.3494 17.8303 8.36418 17.8373 8.37895C18.8161 9.34671 19.479 10.163 19.8261 10.8279C19.8469 10.8648 19.8695 10.911 19.8938 10.9664C19.9181 11.0218 19.9424 11.1197 19.9667 11.2601C19.991 11.4004 19.9893 11.526 19.9615 11.6368C19.9337 11.7476 19.8469 11.8492 19.7012 11.9415C19.5554 12.0339 19.3506 12.0801 19.0868 12.0801L16.4211 12.1244C16.2545 12.1613 16.0601 12.1429 15.838 12.069C15.6158 11.9951 15.4354 11.9138 15.2965 11.8252L15.0883 11.6922C14.88 11.5371 14.637 11.3007 14.3594 10.983C14.0817 10.6654 13.8439 10.3791 13.6461 10.1242C13.4482 9.86937 13.2365 9.65513 13.0109 9.48153C12.7853 9.30792 12.5892 9.25067 12.4226 9.30977C12.4017 9.31716 12.374 9.33009 12.3393 9.34855C12.3045 9.36702 12.2455 9.42058 12.1622 9.50923C12.0789 9.59788 12.0043 9.70685 11.9384 9.83613C11.8724 9.96541 11.8134 10.1575 11.7613 10.4123C11.7093 10.6672 11.6867 10.9535 11.6937 11.2711C11.6937 11.382 11.6815 11.4835 11.6572 11.5759C11.6329 11.6682 11.6069 11.7365 11.5791 11.7809L11.5375 11.8363C11.4125 11.9766 11.2286 12.0579 10.9856 12.0801H9.7881C9.29523 12.1096 8.78847 12.0487 8.26782 11.8972C7.74718 11.7458 7.29075 11.55 6.89853 11.3099C6.50631 11.0698 6.1488 10.826 5.826 10.5786C5.5032 10.3311 5.2585 10.1187 5.0919 9.9414L4.83157 9.67545C4.76216 9.60157 4.6667 9.49076 4.54522 9.34301C4.42374 9.19526 4.17556 8.85914 3.8007 8.33463C3.42584 7.81012 3.05791 7.25237 2.69693 6.66137C2.33596 6.07037 1.91076 5.291 1.42136 4.32324C0.931952 3.35549 0.478992 2.35079 0.0624773 1.30916C0.0208258 1.19096 0 1.09123 0 1.00997C0 0.928708 0.0104129 0.869608 0.0312386 0.832671L0.0728901 0.766184C0.177019 0.625823 0.374864 0.555642 0.666424 0.555642L3.51955 0.533479C3.60285 0.548254 3.68269 0.572264 3.75905 0.605507C3.83541 0.638751 3.89094 0.670147 3.92565 0.699697L3.97772 0.732941C4.08879 0.814203 4.17209 0.932402 4.22763 1.08754C4.36647 1.45691 4.52613 1.83921 4.70662 2.23444C4.88711 2.62967 5.02942 2.93071 5.13355 3.13756L5.30015 3.45891C5.50147 3.90216 5.69584 4.2863 5.88327 4.61135C6.07071 4.9364 6.23905 5.18942 6.3883 5.37041C6.53755 5.5514 6.6816 5.69361 6.82043 5.79704C6.95927 5.90046 7.07728 5.95217 7.17447 5.95217C7.27166 5.95217 7.36537 5.93371 7.45562 5.89677C7.4695 5.88938 7.48686 5.87091 7.50768 5.84136C7.52851 5.81181 7.57016 5.73055 7.63264 5.59758C7.69512 5.4646 7.74197 5.291 7.77321 5.07676C7.80445 4.86252 7.83742 4.56333 7.87213 4.17919C7.90684 3.79504 7.90684 3.33332 7.87213 2.79404C7.85825 2.49854 7.82701 2.2289 7.77842 1.98511C7.72982 1.74133 7.68123 1.57142 7.63264 1.47538L7.57016 1.34241C7.39661 1.09123 7.10158 0.932402 6.68507 0.865915C6.59482 0.85114 6.61218 0.76249 6.73713 0.599966C6.8482 0.459605 6.9801 0.348793 7.13282 0.267531C7.50074 0.0754575 8.3303 -0.0131919 9.6215 0.00158303C10.1907 0.00897048 10.6593 0.0569889 11.0272 0.145638C11.1661 0.182576 11.2824 0.232441 11.3761 0.295234C11.4698 0.358027 11.5409 0.446677 11.5895 0.561182C11.6381 0.675688 11.6746 0.793887 11.6989 0.91578C11.7232 1.03767 11.7353 1.20574 11.7353 1.41997C11.7353 1.63421 11.7318 1.83736 11.7249 2.02944C11.718 2.22151 11.7093 2.48192 11.6989 2.81066C11.6885 3.1394 11.6832 3.44413 11.6832 3.72486C11.6832 3.80612 11.6798 3.96126 11.6728 4.19027C11.6659 4.41928 11.6642 4.59658 11.6676 4.72216C11.6711 4.84775 11.6832 4.99735 11.7041 5.17095C11.7249 5.34456 11.7648 5.48861 11.8238 5.60312C11.8828 5.71762 11.9609 5.80812 12.0581 5.87461C12.1136 5.88938 12.1727 5.90416 12.2351 5.91893C12.2976 5.93371 12.3879 5.89307 12.5059 5.79704C12.6239 5.701 12.7558 5.57357 12.9016 5.41474C13.0473 5.25591 13.2278 5.00843 13.443 4.6723C13.6582 4.33617 13.8942 3.93909 14.1511 3.48107C14.5676 2.71278 14.939 1.88169 15.2653 0.987808C15.293 0.913933 15.3278 0.849293 15.3694 0.793887C15.4111 0.738481 15.4492 0.699697 15.4839 0.677535L15.5256 0.644291L15.5777 0.616588L15.713 0.583345L15.9213 0.577804L18.9202 0.555642C19.1909 0.518705 19.4131 0.527939 19.5866 0.583345C19.7602 0.638751 19.8678 0.699697 19.9094 0.766184L19.9719 0.876996Z" fill="#5181B8"/>
</svg>
