<?xml version="1.0" standalone="no"?>
<!DOCTYPE svg PUBLIC "-//W3C//DTD SVG 20010904//EN"
 "http://www.w3.org/TR/2001/REC-SVG-20010904/DTD/svg10.dtd">
<svg version="1.0" xmlns="http://www.w3.org/2000/svg"
 width="500.000000pt" height="500.000000pt" viewBox="0 0 500.000000 500.000000"
 preserveAspectRatio="xMidYMid meet">
<metadata>
Created by potrace 1.11, written by Peter Selinger 2001-2013
</metadata>
<g transform="translate(0.000000,500.000000) scale(0.100000,-0.100000)"
fill="#000000" stroke="none">
<path d="M0 2500 l0 -2500 2500 0 2500 0 0 2500 0 2500 -2500 0 -2500 0 0
-2500z m2766 1730 c423 -76 806 -327 1046 -684 272 -406 344 -921 194 -1391
-19 -60 -32 -113 -28 -116 4 -4 193 85 421 197 228 112 415 203 416 202 9 -11
57 -129 54 -132 -7 -7 -1080 -535 -1099 -541 -20 -6 -1 -44 -426 823 l-143
292 49 25 c27 14 55 25 62 25 7 0 104 -185 215 -410 111 -226 206 -410 211
-410 5 0 19 27 31 60 128 351 110 738 -50 1077 -127 268 -381 523 -646 649
-483 229 -1056 161 -1472 -174 -36 -29 -68 -51 -72 -50 -4 2 -42 36 -85 77
l-79 74 55 49 c74 65 227 167 325 215 182 91 380 146 600 167 83 8 317 -5 421
-24z m-1238 -1214 c149 -302 269 -553 266 -558 -10 -15 -108 -61 -112 -52 -37
87 -410 818 -417 817 -14 -1 -80 -202 -96 -293 -21 -114 -18 -404 4 -510 117
-545 520 -961 1051 -1084 405 -94 882 21 1195 289 l54 46 81 -80 80 -80 -43
-38 c-208 -180 -473 -309 -753 -365 -96 -19 -143 -22 -313 -22 -179 1 -213 4
-325 28 -212 47 -410 131 -585 249 -128 87 -333 294 -418 422 -285 431 -354
970 -184 1438 20 55 22 69 11 74 -7 2 -192 -83 -411 -191 -219 -107 -404 -196
-410 -198 -7 -2 -26 24 -42 57 l-29 60 557 276 c306 152 559 273 562 270 4 -3
129 -253 277 -555z m520 -208 c-2 -374 -6 -482 -15 -486 -10 -3 -13 98 -13
482 0 427 2 486 15 486 13 0 15 -58 13 -482z m187 -4 c0 -419 -2 -479 -15
-479 -13 0 -15 60 -18 470 -1 259 0 476 3 483 3 8 11 12 18 9 9 -3 12 -108 12
-483z m810 466 c0 -13 -45 -15 -337 -18 -334 -2 -338 -2 -338 18 0 20 4 20
338 18 292 -3 337 -5 337 -18z m-417 -557 c-2 -250 -7 -388 -13 -388 -6 0 -11
131 -13 367 l-2 367 -113 3 c-97 3 -112 5 -115 21 -3 15 8 17 127 17 l131 0
-2 -387z m420 370 c-3 -16 -18 -18 -115 -21 l-113 -3 -2 -367 c-3 -318 -5
-367 -18 -367 -13 0 -15 49 -18 375 -1 206 0 381 3 387 3 10 40 13 135 13 120
0 131 -2 128 -17z m-1321 -947 c36 -43 28 -119 -16 -153 -9 -7 -40 -13 -68
-13 l-53 0 0 101 0 101 57 -4 c46 -4 61 -10 80 -32z m151 -69 c2 -82 0 -97
-13 -97 -12 0 -15 17 -15 101 0 76 3 100 13 97 8 -3 13 -35 15 -101z m145 18
c15 -44 29 -81 31 -83 2 -2 16 33 31 77 25 76 39 100 52 88 3 -3 -11 -47 -30
-99 -45 -119 -59 -122 -97 -18 -42 116 -44 123 -29 118 8 -2 27 -40 42 -83z
m335 73 c-3 -8 -26 -14 -56 -16 -50 -3 -52 -4 -52 -33 0 -28 1 -29 50 -29 28
0 50 -4 50 -10 0 -5 -22 -10 -50 -10 l-50 0 0 -35 0 -35 55 0 c30 0 55 -4 55
-10 0 -6 -28 -10 -65 -10 l-65 0 0 100 0 100 66 0 c48 0 65 -3 62 -12z m205 3
c31 -12 42 -43 25 -73 -7 -13 -11 -27 -9 -33 14 -41 17 -85 6 -85 -7 0 -17 17
-22 38 -8 34 -12 37 -46 40 l-37 3 0 -40 c0 -23 -4 -41 -10 -41 -6 0 -10 40
-10 100 l0 100 39 0 c22 0 51 -4 64 -9z m239 -8 c20 -18 24 -43 8 -43 -6 0
-13 6 -16 14 -13 34 -74 29 -74 -5 0 -14 13 -25 44 -39 52 -22 72 -50 56 -80
-13 -24 -41 -40 -70 -40 -22 0 -70 41 -70 60 0 18 28 11 35 -9 7 -23 33 -31
64 -20 35 14 22 41 -34 69 -39 19 -51 31 -53 52 -6 48 70 77 110 41z m148 -83
c0 -60 -4 -100 -10 -100 -6 0 -10 40 -10 100 0 60 4 100 10 100 6 0 10 -40 10
-100z m260 85 c0 -10 -11 -15 -35 -15 l-35 0 0 -85 c0 -50 -4 -85 -10 -85 -6
0 -10 35 -10 85 l0 85 -35 0 c-24 0 -35 5 -35 15 0 12 16 15 80 15 64 0 80 -3
80 -15z m120 -30 c14 -25 27 -45 31 -45 3 0 17 20 30 45 13 25 30 45 36 45 19
0 17 -6 -22 -70 -23 -38 -35 -70 -35 -94 0 -20 -4 -36 -10 -36 -5 0 -10 16
-10 36 0 23 -13 57 -35 95 -39 68 -40 69 -22 69 7 0 23 -20 37 -45z"/>
<path d="M1610 2065 l0 -75 35 0 c47 0 75 29 75 78 0 49 -24 72 -73 72 l-37 0
0 -75z"/>
<path d="M2480 2110 c0 -30 1 -31 43 -28 37 3 42 6 42 28 0 22 -5 25 -42 28
-42 3 -43 2 -43 -28z"/>
</g>
</svg>
