<?xml version="1.0" standalone="no"?>
<!DOCTYPE svg PUBLIC "-//W3C//DTD SVG 20010904//EN"
 "http://www.w3.org/TR/2001/REC-SVG-20010904/DTD/svg10.dtd">
<svg version="1.0" xmlns="http://www.w3.org/2000/svg"
 width="395.000000pt" height="100.000000pt" viewBox="0 0 395.000000 100.000000"
 preserveAspectRatio="xMidYMid meet">
<metadata>
Created by potrace 1.15, written by Peter Selinger 2001-2017
</metadata>
<g transform="translate(0.000000,100.000000) scale(0.100000,-0.100000)"
fill="#000000" stroke="none">
<path d="M334 746 c-183 -85 -175 -364 13 -443 43 -18 145 -17 191 3 43 17 97
67 118 107 l15 27 -75 0 c-44 0 -88 -6 -111 -15 -78 -33 -155 22 -155 111 0
28 8 44 34 70 29 29 41 34 79 34 35 0 53 -6 74 -25 l28 -24 -57 -1 -58 0 0
-60 0 -60 125 0 125 0 0 60 0 59 -67 3 -68 3 47 30 c27 17 48 35 48 41 0 17
-68 74 -106 90 -53 22 -141 18 -200 -10z"/>
<path d="M690 495 l0 -205 55 0 55 0 0 205 0 205 -55 0 -55 0 0 -205z"/>
<path d="M820 646 c0 -54 0 -55 33 -58 20 -2 32 -8 32 -18 0 -10 -12 -16 -32
-18 -33 -3 -33 -4 -33 -58 l0 -54 40 0 c53 0 96 23 120 63 55 89 -11 197 -120
197 l-40 0 0 -54z"/>
<path d="M1130 684 c-65 -28 -110 -84 -123 -151 l-6 -33 54 0 c49 0 57 3 65
24 12 31 57 66 87 66 38 0 79 -26 93 -60 12 -28 16 -30 66 -30 62 0 66 8 35
75 -48 103 -170 153 -271 109z"/>
<path d="M1430 638 l0 -64 105 -77 c58 -42 109 -77 114 -77 4 0 29 16 54 35
25 19 48 35 51 35 3 0 6 -45 6 -100 l0 -100 55 0 55 0 0 205 c0 113 -2 205 -5
205 -3 0 -53 -32 -111 -71 l-106 -71 -81 54 c-45 30 -94 63 -109 72 l-28 18 0
-64z"/>
<path d="M1910 495 l0 -205 55 0 55 0 0 205 0 205 -55 0 -55 0 0 -205z"/>
<path d="M2040 645 l0 -55 85 0 85 0 0 55 0 55 -85 0 -85 0 0 -55z"/>
<path d="M2230 638 l1 -63 182 -139 c101 -77 188 -141 195 -144 9 -3 12 46 12
202 l0 206 -55 0 -55 0 0 -100 c0 -55 -2 -100 -5 -100 -3 0 -64 45 -135 100
-72 55 -132 100 -135 100 -3 0 -5 -28 -5 -62z"/>
<path d="M2660 495 l0 -205 55 0 55 0 0 62 0 63 142 142 143 143 -65 0 -65 0
-77 -77 -78 -78 0 78 0 77 -55 0 -55 0 0 -205z"/>
<path d="M3100 684 c-65 -28 -110 -84 -123 -151 l-6 -33 54 0 c49 0 57 3 65
24 12 31 57 66 87 66 38 0 79 -26 93 -60 12 -28 16 -30 66 -30 62 0 66 8 35
75 -48 103 -170 153 -271 109z"/>
<path d="M3372 603 c128 -240 167 -308 174 -307 5 1 21 24 36 51 l28 50 -81
152 -81 151 -64 0 -64 0 52 -97z"/>
<path d="M3599 616 l-43 -83 30 -57 c35 -67 26 -75 122 106 l63 118 -65 0 -64
0 -43 -84z"/>
<path d="M1430 420 l0 -130 55 0 55 0 0 94 0 94 -49 36 c-27 20 -51 36 -55 36
-3 0 -6 -58 -6 -130z"/>
<path d="M2040 495 l0 -55 85 0 85 0 0 55 0 55 -85 0 -85 0 0 -55z"/>
<path d="M2230 420 l0 -130 55 0 55 0 0 94 0 93 -47 37 c-25 20 -50 36 -55 36
-4 0 -8 -58 -8 -130z"/>
<path d="M2847 482 l-37 -38 56 -77 55 -77 65 0 64 0 -76 108 c-42 59 -79 110
-83 114 -4 5 -24 -9 -44 -30z"/>
<path d="M1010 444 c22 -96 100 -154 207 -154 52 0 68 5 109 33 46 31 76 74
89 130 l7 27 -56 0 c-51 0 -57 -2 -71 -30 -19 -36 -43 -50 -90 -50 -38 0 -85
35 -85 65 0 12 -12 15 -59 15 l-59 0 8 -36z"/>
<path d="M2980 444 c22 -96 100 -154 207 -154 52 0 68 5 109 33 46 31 76 74
89 130 l7 27 -56 0 c-51 0 -57 -2 -71 -30 -19 -36 -43 -50 -90 -50 -38 0 -85
35 -85 65 0 12 -12 15 -59 15 l-59 0 8 -36z"/>
<path d="M862 421 l-32 -6 30 -62 29 -63 55 0 56 0 -26 58 c-14 31 -28 63 -31
70 -5 13 -26 14 -81 3z"/>
<path d="M2040 345 l0 -55 85 0 85 0 0 55 0 55 -85 0 -85 0 0 -55z"/>
</g>
</svg>
