<svg xmlns="http://www.w3.org/2000/svg" width="40" height="40" viewBox="0 0 40 40"><g><g><path fill="#eccdba" d="M20 0c11.046 0 20 8.954 20 20s-8.954 20-20 20S0 31.046 0 20 8.954 0 20 0z"/></g><g><path fill="#fff" d="M27 17.125V26.5c0 .827-.698 1.5-1.556 1.5H14.556C13.698 28 13 27.327 13 26.5v-9.375c0-.208.174-.375.389-.375h1.167v-1.5c0-2.895 2.442-5.25 5.444-5.25s5.444 2.355 5.444 5.25v1.5h1.167c.215 0 .389.167.389.375zm-6.08 5.331c.397-.28.636-.721.636-1.206 0-.828-.698-1.5-1.556-1.5-.858 0-1.556.672-1.556 1.5 0 .485.238.927.637 1.206l-.245 2.128a.366.366 0 0 0 .096.29c.074.08.18.126.29.126h1.556c.11 0 .216-.045.29-.125a.367.367 0 0 0 .096-.291zm2.191-7.206c0-1.654-1.396-3-3.111-3-1.716 0-3.111 1.346-3.111 3v1.5h6.222z"/></g></g></svg>