<svg xmlns="http://www.w3.org/2000/svg" width="19" height="15"><path fill="#c4a089" d="M18.193 5.057c.517 0 .9.437.787.897l-2.078 8.47c-.083.337-.41.576-.787.576H2.862c-.377 0-.704-.24-.787-.576l-2.078-8.47c-.113-.46.27-.897.787-.897H4.73l-.406.869a.51.51 0 00.288.686c.073.03.148.044.223.044a.56.56 0 00.51-.313L5.96 5.03H4.743l2.2-4.716a.572.572 0 01.734-.269.51.51 0 01.288.687L5.946 5.057h7.085l.6 1.286a.56.56 0 00.511.313.59.59 0 00.223-.044.51.51 0 00.288-.686l-.406-.87zm-5.162 0l-.013-.028.013.028zM11.01.73a.51.51 0 01.29-.686.572.572 0 01.733.27l2.2 4.715h-1.215zm3.236 4.326l-.013-.028zm-9.517 0l.013-.028-.013.028zm1.972 3.337c0-.288-.25-.521-.557-.521-.308 0-.558.233-.558.521v3.825c0 .288.25.521.558.521.308 0 .557-.233.557-.521zm3.344 0c0-.288-.25-.521-.558-.521-.307 0-.557.233-.557.521v3.825c0 .288.25.521.557.521.308 0 .558-.233.558-.521zm3.344 0c0-.288-.25-.521-.558-.521-.308 0-.557.233-.557.521v3.825c0 .288.25.521.557.521.308 0 .558-.233.558-.521z"/></svg>