<svg xmlns="http://www.w3.org/2000/svg" width="54" height="54" viewBox="0 0 54 54"><g><g><path fill="#f7a98f" d="M27 0c14.912 0 27 12.088 27 27S41.912 54 27 54 0 41.912 0 27 12.088 0 27 0z"/></g><g><path fill="#fff" d="M40.77 21.426c.787 0 1.371.73 1.2 1.496L38.8 37.038c-.126.561-.624.96-1.199.96H17.398a1.228 1.228 0 0 1-1.2-.96l-3.167-14.116a1.228 1.228 0 0 1 1.199-1.496h6.016l-.619 1.448a.877.877 0 0 0 .439 1.145c.11.05.226.073.34.073.327 0 .64-.195.778-.522l.935-2.19h-1.854l3.355-7.859a.842.842 0 0 1 1.12-.449c.429.193.625.705.437 1.144l-3.077 7.21h10.8l.915 2.144c.14.327.452.522.78.522a.836.836 0 0 0 .339-.073.877.877 0 0 0 .438-1.145l-.618-1.448zm-7.87 0l-.02-.047.02.047zm-3.078-7.21a.877.877 0 0 1 .439-1.144.842.842 0 0 1 1.118.45l3.355 7.857H32.88zm4.932 7.21l-.02-.047zm-14.508 0l.02-.047-.02.047zm3.006 5.563c0-.48-.38-.87-.85-.87-.469 0-.85.39-.85.87v6.373c0 .48.381.869.85.869a.86.86 0 0 0 .85-.869zm5.097 0c0-.48-.38-.87-.85-.87-.468 0-.849.39-.849.87v6.373c0 .48.38.869.85.869a.86.86 0 0 0 .85-.869zm5.098 0c0-.48-.38-.87-.85-.87-.469 0-.85.39-.85.87v6.373c0 .48.381.869.85.869a.86.86 0 0 0 .85-.869z"/></g></g></svg>