<svg xmlns="http://www.w3.org/2000/svg" width="54" height="54" viewBox="0 0 54 54"><g><g><path fill="#fff" d="M27 0c14.912 0 27 12.088 27 27S41.912 54 27 54 0 41.912 0 27 12.088 0 27 0z"/></g><g><path fill="#f7a98f" d="M40.77 21.427c.787 0 1.371.729 1.2 1.496L38.8 37.039c-.126.56-.624.96-1.199.96H17.398a1.229 1.229 0 0 1-1.2-.96l-3.167-14.116a1.228 1.228 0 0 1 1.199-1.496h6.016l-.619 1.448a.877.877 0 0 0 .439 1.145.848.848 0 0 0 1.119-.449l.935-2.19h-1.855l3.355-7.86a.842.842 0 0 1 1.12-.448c.429.192.625.705.437 1.144l-3.077 7.21h10.8l.915 2.144c.14.327.452.521.78.521a.835.835 0 0 0 .339-.072.877.877 0 0 0 .438-1.145l-.618-1.448zm-7.87 0l-.02-.047.02.047zm-3.078-7.21a.877.877 0 0 1 .439-1.144.842.842 0 0 1 1.118.449l3.355 7.858H32.88zm4.932 7.21l-.02-.047zm-14.508 0l.02-.047-.02.047zm3.006 5.562a.86.86 0 0 0-.85-.869.86.86 0 0 0-.85.87v6.373c0 .48.381.869.85.869.47 0 .85-.39.85-.87zm5.097 0a.86.86 0 0 0-.849-.869.86.86 0 0 0-.85.87v6.373c0 .48.38.869.85.869s.85-.39.85-.87zm5.098 0a.86.86 0 0 0-.85-.869.86.86 0 0 0-.85.87v6.373c0 .48.381.869.85.869.47 0 .85-.39.85-.87z"/></g></g></svg>