<svg xmlns="http://www.w3.org/2000/svg" width="176" height="176" viewBox="0 0 88 88"><defs><filter id="a" width="122" height="127" x="-17" y="-22" filterUnits="userSpaceOnUse"><feOffset dy="5" in="SourceGraphic" result="FeOffset1073Out"/><feGaussianBlur in="FeOffset1073Out" result="FeGaussianBlur1074Out" stdDeviation="9.6 9.6"/></filter><mask id="b" width="2" height="2" x="-1" y="-1"><path fill="#fff" d="M17 12h54v54H17z"/><path d="M44 12c14.912 0 27 12.088 27 27S58.912 66 44 66 17 53.912 17 39s12.088-27 27-27z"/></mask></defs><g filter="url(#a)"><path fill="none" d="M44 12c14.912 0 27 12.088 27 27S58.912 66 44 66 17 53.912 17 39s12.088-27 27-27z" mask="url(&quot;#b&quot;)"/><path fill="#ff6300" fill-opacity=".11" d="M44 12c14.912 0 27 12.088 27 27S58.912 66 44 66 17 53.912 17 39s12.088-27 27-27z"/></g><path fill="#fff" d="M44 12c14.912 0 27 12.088 27 27S58.912 66 44 66 17 53.912 17 39s12.088-27 27-27z"/><g><path fill="#f7a98f" d="M57.77 33.427a1.23 1.23 0 011.2 1.496L55.8 49.039a1.23 1.23 0 01-1.199.96H34.398a1.229 1.229 0 01-1.2-.96l-3.167-14.116a1.228 1.228 0 011.199-1.496h6.016l-.619 1.448a.877.877 0 00.439 1.145.848.848 0 001.119-.449l.935-2.19h-1.854l3.354-7.86a.842.842 0 011.12-.448.877.877 0 01.437 1.144l-3.077 7.21h10.8l.915 2.144a.85.85 0 00.78.521.835.835 0 00.339-.072.877.877 0 00.438-1.145l-.618-1.448zm-7.87 0l-.02-.047.02.047zm-3.078-7.21a.877.877 0 01.439-1.144.842.842 0 011.118.449l3.355 7.858H49.88zm4.932 7.21l-.02-.047zm-14.508 0l.02-.047-.02.047zm3.006 5.562a.86.86 0 00-.85-.869.86.86 0 00-.85.87v6.373c0 .48.381.869.85.869.47 0 .85-.39.85-.87zm5.097 0a.86.86 0 00-.849-.869.86.86 0 00-.85.87v6.373c0 .48.38.869.85.869s.85-.39.85-.87zm5.098 0a.86.86 0 00-.85-.869.86.86 0 00-.85.87v6.373c0 .48.381.869.85.869.47 0 .85-.39.85-.87z"/></g></svg>