<svg xmlns="http://www.w3.org/2000/svg" width="54" height="54"><path fill="#fff" d="M27 0c14.912 0 27 12.088 27 27S41.912 54 27 54 0 41.912 0 27 12.088 0 27 0z"/><path fill="#f7a98f" d="M40.77 21.427a1.23 1.23 0 011.2 1.496L38.8 37.039a1.23 1.23 0 01-1.199.96H17.398a1.229 1.229 0 01-1.2-.96l-3.167-14.116a1.228 1.228 0 011.199-1.496h6.016l-.619 1.448a.877.877 0 00.439 1.145.848.848 0 001.119-.449l.935-2.19h-1.855l3.355-7.86a.842.842 0 011.12-.448.877.877 0 01.437 1.144l-3.077 7.21h10.8l.915 2.144a.85.85 0 00.78.521.835.835 0 00.339-.072.877.877 0 00.438-1.145l-.618-1.448zm-7.87 0l-.02-.047.02.047zm-3.078-7.21a.877.877 0 01.439-1.144.842.842 0 011.118.449l3.355 7.858H32.88zm4.932 7.21l-.02-.047zm-14.508 0l.02-.047-.02.047zm3.006 5.562a.86.86 0 00-.85-.869.86.86 0 00-.85.87v6.373c0 .48.381.869.85.869.47 0 .85-.39.85-.87zm5.097 0a.86.86 0 00-.849-.869.86.86 0 00-.85.87v6.373c0 .48.38.869.85.869s.85-.39.85-.87zm5.098 0a.86.86 0 00-.85-.869.86.86 0 00-.85.87v6.373c0 .48.381.869.85.869.47 0 .85-.39.85-.87z"/></svg>