<svg xmlns="http://www.w3.org/2000/svg" width="39" height="31" viewBox="0 0 39 31"><defs><clipPath id="wqpga"><path fill="#fff" d="M1.297 29.768V1.232h34.406v28.536zm25.295-18.566l.69 1.53a.908.908 0 0 1-.49 1.21.974.974 0 0 1-.378.076.95.95 0 0 1-.87-.55l-1.021-2.266h-12.05l3.433-7.62a.908.908 0 0 0-.489-1.21.96.96 0 0 0-1.248.475l-3.743 8.305-.022.05.022-.05h2.069l-1.044 2.315a.95.95 0 0 1-.869.551.973.973 0 0 1-.379-.076.908.908 0 0 1-.489-1.21l.69-1.53H3.69c-.878 0-1.53.77-1.337 1.58l3.535 14.92c.14.592.696 1.014 1.337 1.014H29.77c.642 0 1.198-.422 1.338-1.014l3.535-14.92c.192-.81-.46-1.58-1.338-1.58zm-2.069 0l-.022-.05.022.05zm-.022-.05h2.068l-3.743-8.305a.96.96 0 0 0-1.248-.474.907.907 0 0 0-.489 1.209zm2.09.05l-.021-.05zM13.759 23.816c0 .508-.424.919-.948.919-.523 0-.948-.411-.948-.919v-6.735c0-.508.425-.92.948-.92.524 0 .948.412.948.92zm5.688 0c0 .508-.425.919-.948.919-.524 0-.948-.411-.948-.919v-6.735c0-.508.424-.92.948-.92.523 0 .948.412.948.92zm5.687 0c0 .508-.424.919-.948.919-.523 0-.948-.411-.948-.919v-6.735c0-.508.425-.92.948-.92.524 0 .948.412.948.92z"/></clipPath></defs><g><g><path fill="none" stroke="#a77a5e" stroke-miterlimit="50" stroke-width="4" d="M33.304 11.202c.878 0 1.53.77 1.338 1.58l-3.535 14.92c-.14.592-.696 1.014-1.338 1.014H7.226c-.641 0-1.197-.422-1.337-1.014l-3.535-14.92c-.192-.81.46-1.58 1.337-1.58h6.713l-.69 1.53a.908.908 0 0 0 .49 1.21.973.973 0 0 0 .378.076.95.95 0 0 0 .87-.55l1.043-2.316h-2.069l3.743-8.305a.96.96 0 0 1 1.248-.474c.48.203.7.744.49 1.209l-3.434 7.62h12.05l1.021 2.265a.95.95 0 0 0 .87.551.974.974 0 0 0 .378-.076.908.908 0 0 0 .49-1.21l-.69-1.53zm-8.78 0l-.023-.05h0l.022.05zm-3.435-7.62a.907.907 0 0 1 .49-1.21.96.96 0 0 1 1.247.475l3.743 8.305h-2.068zm5.503 7.62h0l-.022-.05h0zm-16.188 0l.022-.05h0l-.022.05zm3.354 5.879c0-.508-.424-.92-.948-.92-.523 0-.948.412-.948.92v6.735c0 .508.425.919.948.919.524 0 .948-.411.948-.919zm5.688 0c0-.508-.425-.92-.948-.92-.524 0-.948.412-.948.92v6.735c0 .508.424.919.948.919.523 0 .948-.411.948-.919zm5.687 0c0-.508-.424-.92-.948-.92-.523 0-.948.412-.948.92v6.735c0 .508.425.919.948.919.524 0 .948-.411.948-.919z" clip-path="url(&quot;#wqpga&quot;)"/></g><g><path fill="#a77a5e" d="M34.078 15.906c2.718 0 4.922 2.19 4.922 4.89 0 2.702-2.204 4.891-4.922 4.891-2.718 0-4.922-2.19-4.922-4.89 0-2.701 2.204-4.89 4.922-4.89z"/></g><g><path fill="none" stroke="#fff" stroke-linecap="round" stroke-linejoin="round" stroke-miterlimit="50" stroke-width="2" d="M31.773 20.804v0l1.538 1.482v0l3.075-2.964v0"/></g></g></svg>