<svg xmlns="http://www.w3.org/2000/svg" width="74" height="74" viewBox="0 0 74 74"><defs><mask id="hul2b" width="2" height="2" x="-1" y="-1"><path fill="#fff" d="M17 12h40v40H17z"/><path d="M37 12c11.046 0 20 8.954 20 20s-8.954 20-20 20-20-8.954-20-20 8.954-20 20-20z"/></mask><filter id="hul2a" width="108" height="113" x="-17" y="-22" filterUnits="userSpaceOnUse"><feOffset dy="5" in="SourceGraphic" result="FeOffset1023Out"/><feGaussianBlur in="FeOffset1023Out" result="FeGaussianBlur1024Out" stdDeviation="9.6 9.6"/></filter></defs><g><g><g filter="url(#hul2a)"><path fill="none" d="M37 12c11.046 0 20 8.954 20 20s-8.954 20-20 20-20-8.954-20-20 8.954-20 20-20z" mask="url(&quot;#hul2b&quot;)"/><path fill="#ff6300" fill-opacity=".11" d="M37 12c11.046 0 20 8.954 20 20s-8.954 20-20 20-20-8.954-20-20 8.954-20 20-20z"/></g><path fill="#fff" d="M37 12c11.046 0 20 8.954 20 20s-8.954 20-20 20-20-8.954-20-20 8.954-20 20-20z"/></g><g><path fill="#f7a98f" d="M28.5 25h17a1.5 1.5 0 0 1 0 3h-17a1.5 1.5 0 1 1 0-3z"/></g><g><path fill="#f7a98f" d="M28.5 31h17a1.5 1.5 0 1 1 0 3h-17a1.5 1.5 0 1 1 0-3z"/></g><g><path fill="#f7a98f" d="M28.5 37h17a1.5 1.5 0 1 1 0 3h-17a1.5 1.5 0 0 1 0-3z"/></g></g></svg>