<svg xmlns="http://www.w3.org/2000/svg" width="15" height="19" viewBox="0 0 15 19"><g><g><path fill="#f7a98f" d="M.05 10.152a7.155 7.155 0 0 1 .247-2.878c.887-2.986 3.671-5.182 6.974-5.22V.1c0-.109.138-.166.228-.1l4.072 2.95c.067.051.067.152 0 .198L7.503 6.101c-.094.065-.228.007-.228-.101V4.052a5.33 5.33 0 0 0-4.822 3.222 5.126 5.126 0 0 0-.413 2.301 5.194 5.194 0 0 0 1.163 2.994.99.99 0 0 1-.193 1.433 1.031 1.031 0 0 1-1.406-.194A7.113 7.113 0 0 1 .05 10.152zM11.994 4.97a1.032 1.032 0 0 1 1.406.193 7.075 7.075 0 0 1 1.551 3.656 7.227 7.227 0 0 1-.247 2.879c-.884 2.99-3.672 5.186-6.975 5.22v1.953c0 .108-.133.166-.227.1L3.434 16.02c-.066-.046-.066-.147 0-.198l4.073-2.951c.09-.066.227-.008.227.101v1.948a5.325 5.325 0 0 0 4.823-3.222 5.131 5.131 0 0 0-.75-5.295.993.993 0 0 1 .188-1.433z"/></g></g></svg>