<svg xmlns="http://www.w3.org/2000/svg" width="130" height="106" viewBox="0 0 130 106"><g><g clip-path="url(#clip-2345)"><path fill="#fdf0e8" d="M91 58.408c0 14.314-11.663 25.959-26 25.959s-26-11.645-26-25.96C39 44.095 50.663 32.45 65 32.45s26 11.645 26 25.959zm39-26.394v63.53c0 5.766-4.697 10.456-10.472 10.456H10.471C4.697 106 0 101.31 0 95.544v-63.53c0-5.726 4.663-10.381 10.398-10.381H13V10.816h13v10.817h2.866L37.533 0h54.934l8.666 21.633h18.47c5.734 0 10.397 4.655 10.397 10.38zM21.667 15.143h-4.334v6.49h4.334zM104 58.408c0-21.47-17.496-38.939-39-38.939S26 36.937 26 58.408c0 21.47 17.496 38.939 39 38.939s39-17.469 39-38.94zm17.333-19.47c0-4.772-3.887-8.653-8.666-8.653-4.78 0-8.667 3.881-8.667 8.653 0 4.773 3.887 8.654 8.667 8.654 4.78 0 8.666-3.881 8.666-8.654z"/></g></g></svg>