<svg xmlns="http://www.w3.org/2000/svg" width="24" height="21" viewBox="0 0 24 21"><g><g><path fill="#fff" d="M0 9.064V8.39c0-1.72 3.122-3.115 6.973-3.115.674 0 1.326.043 1.943.123v6.659c-.617.08-1.269.123-1.943.123C3.122 12.179 0 10.784 0 9.064zm0 3.477v-.675c0-.219.05-.432.147-.638.659 1.414 3.464 2.476 6.826 2.476.675 0 1.326-.043 1.943-.123v1.952c-.617.08-1.269.122-1.943.122C3.122 15.655 0 14.261 0 12.541zm8.916 5.344c0 .378.089.743.26 1.089-.692.103-1.433.159-2.203.159C3.122 19.133 0 17.738 0 16.018v-.675c0-.219.05-.432.147-.638.659 1.414 3.464 2.477 6.826 2.477.675 0 1.326-.044 1.943-.124zM24 3.114v.675c0 1.72-3.122 3.115-6.973 3.115s-6.973-1.395-6.973-3.115v-.675c0-1.72 3.122-3.114 6.973-3.114S24 1.394 24 3.114zm-.147 2.84c.096.205.147.419.147.637v.676c0 1.72-3.122 3.114-6.973 3.114s-6.973-1.394-6.973-3.114V6.59c0-.218.05-.432.147-.638.659 1.414 3.464 2.477 6.826 2.477 3.361 0 6.167-1.063 6.826-2.477zm0 3.476c.096.206.147.42.147.638v.675c0 1.72-3.122 3.115-6.973 3.115s-6.973-1.395-6.973-3.115v-.675c0-.219.05-.432.147-.638.659 1.414 3.464 2.477 6.826 2.477 3.361 0 6.167-1.063 6.826-2.477zm0 3.665c.096.206.147.42.147.638v.675c0 1.72-3.122 3.114-6.973 3.114s-6.973-1.394-6.973-3.114v-.675c0-.219.05-.432.147-.638.659 1.414 3.464 2.476 6.826 2.476 3.361 0 6.167-1.062 6.826-2.476zm0 3.477c.096.206.147.42.147.638v.675C24 19.605 20.878 21 17.027 21s-6.973-1.394-6.973-3.114v-.675c0-.219.05-.432.147-.638.659 1.414 3.464 2.476 6.826 2.476 3.361 0 6.167-1.062 6.826-2.476z"/></g></g></svg>