<svg xmlns="http://www.w3.org/2000/svg" width="19" height="15" viewBox="0 0 19 15"><g><g><path fill="#fff" d="M18.193 5.056c.516 0 .9.437.787.897l-2.079 8.47c-.082.338-.409.576-.786.576H2.862c-.378 0-.704-.238-.787-.575l-2.078-8.47c-.113-.46.27-.898.787-.898H4.73l-.406.87a.51.51 0 0 0 .288.686c.073.029.148.043.223.043.215 0 .42-.116.51-.313l.614-1.314H4.743l2.2-4.715a.572.572 0 0 1 .734-.27c.282.116.411.423.288.687L5.946 5.056h7.085l.6 1.286a.559.559 0 0 0 .511.313c.074 0 .15-.014.223-.043a.51.51 0 0 0 .287-.687l-.405-.87zm-5.162 0l-.013-.028.013.028zM11.01.73A.509.509 0 0 1 11.3.043a.573.573 0 0 1 .734.27l2.2 4.715h-1.215zm3.236 4.326l-.013-.028zm-9.517 0l.013-.028-.013.028zm1.972 3.337c0-.287-.25-.521-.557-.521-.308 0-.558.234-.558.521v3.825c0 .288.25.522.558.522.307 0 .557-.234.557-.522zm3.344 0c0-.287-.25-.521-.558-.521-.307 0-.557.234-.557.521v3.825c0 .288.25.522.557.522.308 0 .558-.234.558-.522zm3.343 0c0-.287-.249-.521-.557-.521-.308 0-.557.234-.557.521v3.825c0 .288.25.522.557.522.308 0 .557-.234.557-.522z"/></g></g></svg>