<svg xmlns="http://www.w3.org/2000/svg" width="34" height="18" viewBox="0 0 34 18"><g><g><g><path fill="none" stroke="#f7a98f" stroke-linecap="round" stroke-linejoin="round" stroke-miterlimit="50" stroke-width="2" d="M3.998 2.23C7.248.019 11.76.74 14.078 3.84c2.318 3.103 1.563 7.411-1.686 9.624-3.25 2.212-7.763 1.492-10.08-1.61C-.008 8.752.748 4.444 3.997 2.23z"/></g><g><path fill="none" stroke="#f7a98f" stroke-linecap="round" stroke-linejoin="round" stroke-miterlimit="50" stroke-width="2" d="M14.847 10.597l1.652 2.206c.282.378.19.9-.205 1.169L12 16.89a.907.907 0 0 1-1.225-.195l-1.532-2.047"/></g><g><path fill="none" stroke="#f7a98f" stroke-linecap="round" stroke-linejoin="round" stroke-miterlimit="50" stroke-width="2" d="M30.4 3.343c-2.821-1.917-6.74-1.292-8.752 1.394-2.012 2.686-1.356 6.417 1.465 8.333 2.82 1.916 6.739 1.292 8.75-1.394C33.877 8.99 33.22 5.259 30.4 3.343z"/></g><g><path fill="none" stroke="#f7a98f" stroke-linecap="round" stroke-linejoin="round" stroke-miterlimit="50" stroke-width="2" d="M20.98 10.587l-1.433 1.911a.703.703 0 0 0 .178 1.012l3.727 2.528a.79.79 0 0 0 1.064-.17l1.33-1.771"/></g><g><path fill="none" stroke="#f7a98f" stroke-linecap="round" stroke-linejoin="round" stroke-miterlimit="50" stroke-width="2" d="M14.063 15.674s3.505 3.571 7.434-.788"/></g></g></g></svg>