<svg xmlns="http://www.w3.org/2000/svg" width="40" height="40" viewBox="0 0 40 40"><g><g><path fill="#fff" d="M20 0c11.046 0 20 8.954 20 20s-8.954 20-20 20S0 31.046 0 20 8.954 0 20 0z"/></g><g><path fill="#f7a98f" d="M30.996 14.245l.003 10.503C31 25.989 29.935 27 28.627 27l-15.249.005c-1.308 0-2.373-1.01-2.374-2.251l-.003-10.502c0-1.242 1.064-2.253 2.372-2.253l15.249-.005c1.308 0 2.373 1.01 2.374 2.251zm-2.009 10.503l-.003-9.114-6.895 5.756a.791.791 0 0 1-.506.183h-1.165a.793.793 0 0 1-.506-.182l-6.899-5.751.004 9.113c0 .141.168.264.36.264l15.25-.005c.191 0 .36-.123.36-.264zm-1.281-10.766l-13.416.005L21 19.6z"/></g><g><path fill="#f7a98f" d="M12.372 13.25l8.001 7.5h1.333l7.995-7.506z"/></g></g></svg>