<svg xmlns="http://www.w3.org/2000/svg" width="17" height="17" viewBox="0 0 17 17"><g><g><path fill="#f7a98f" d="M6.819 10.15a5.014 5.014 0 0 1 0-7.213c2.04-1.992 5.35-1.992 7.392 0a5.014 5.014 0 0 1 0 7.213c-2.041 1.993-5.351 1.993-7.392 0z"/><path fill="none" stroke="#000" stroke-linecap="round" stroke-linejoin="round" stroke-miterlimit="50" stroke-width="2" d="M6.819 10.15a5.014 5.014 0 0 1 0-7.213c2.04-1.992 5.35-1.992 7.392 0a5.014 5.014 0 0 1 0 7.213c-2.041 1.993-5.351 1.993-7.392 0z"/></g><g><path fill="#f7a98f" d="M6.819 10.15l-5.545 5.411"/><path fill="none" stroke="#000" stroke-linecap="round" stroke-linejoin="round" stroke-miterlimit="50" stroke-width="2" d="M6.819 10.15l-5.545 5.411"/></g><g><path fill="#f7a98f" d="M6.634 15.741l-5.545-5.41"/><path fill="none" stroke="#000" stroke-linecap="round" stroke-linejoin="round" stroke-miterlimit="50" stroke-width="2" d="M6.634 15.741l-5.545-5.41"/></g></g></svg>