<svg xmlns="http://www.w3.org/2000/svg" width="40" height="40" viewBox="0 0 40 40"><g><g><path fill="#eccdba" d="M20 0c11.046 0 20 8.954 20 20s-8.954 20-20 20S0 31.046 0 20 8.954 0 20 0z"/></g><g><path fill="#fff" d="M27.23 25.246c-2.595 3.74-6.422 4.698-6.583 4.737a.636.636 0 0 1-.293 0c-.161-.04-3.988-.998-6.583-4.737-2.597-3.743-1.584-11.269-1.54-11.587a.62.62 0 0 1 .45-.513l7.653-2.123a.62.62 0 0 1 .333 0l7.653 2.123a.621.621 0 0 1 .45.513c.044.318 1.057 7.844-1.54 11.587zm-1.794-8.072l-.641-.64a.623.623 0 0 0-.88 0l-4.14 4.13-2.146-2.141a.623.623 0 0 0-.88 0l-.64.64a.62.62 0 0 0 0 .877l3.227 3.221a.622.622 0 0 0 .88 0l5.22-5.209a.62.62 0 0 0 0-.878z"/></g></g></svg>