<svg xmlns="http://www.w3.org/2000/svg" width="17" height="12" viewBox="0 0 17 12"><g><g><path fill="#d26a86" d="M.596 7.788V.712A.72.72 0 0 1 1.324 0h7.23a.72.72 0 0 1 .727.712v7.076a.24.24 0 0 1-.242.237h-8.2a.24.24 0 0 1-.243-.237zm5.838 2.424c0 .816-.676 1.477-1.51 1.477-.833 0-1.509-.661-1.509-1.477 0-.815.676-1.476 1.51-1.476.833 0 1.51.66 1.51 1.476zm-.755 0a.747.747 0 0 0-.754-.738.747.747 0 0 0-.755.738c0 .408.338.739.755.739s.754-.33.754-.739zm-2.725-.281H.242A.24.24 0 0 1 0 9.693v-.72a.24.24 0 0 1 .242-.238h3.383c-.356.3-.6.72-.671 1.196zm11.378.281c0 .816-.676 1.477-1.51 1.477-.833 0-1.51-.661-1.51-1.477 0-.815.677-1.476 1.51-1.476.834 0 1.51.66 1.51 1.476zm-.755 0a.747.747 0 0 0-.755-.738.747.747 0 0 0-.755.738c0 .408.338.739.755.739s.755-.33.755-.739zM17 8.972v.721a.24.24 0 0 1-.243.238h-1.964c-.14-.943-.97-1.67-1.97-1.67-1.003 0-1.832.727-1.972 1.67H6.896a1.936 1.936 0 0 0-.671-1.195h3.75V1.947a.48.48 0 0 1 .485-.475h2.29c.645 0 1.247.314 1.608.837l1.477 2.14c.216.313.332.683.332 1.061v3.225h.59a.24.24 0 0 1 .243.238zm-2.461-4.47l-1.18-1.64a.245.245 0 0 0-.199-.101H11.32a.24.24 0 0 0-.243.237V4.64c0 .13.109.237.243.237h3.022a.237.237 0 0 0 .198-.374z"/></g></g></svg>