<svg xmlns="http://www.w3.org/2000/svg" width="22" height="24" viewBox="0 0 22 24"><g><g><path fill="#fff" d="M9.774 9.706C8.827 8.62 8.119 7.443 7.669 6.207a.53.53 0 0 1 .07-.496.571.571 0 0 1 .462-.23h5.596a.57.57 0 0 1 .46.23.53.53 0 0 1 .072.496c-.45 1.236-1.159 2.413-2.105 3.499a2.662 2.662 0 0 0-.661 1.746.555.555 0 0 1-.564.545.555.555 0 0 1-.564-.545c0-.637-.235-1.258-.661-1.746zm3.158 6.13c1.887 1.347 3.299 2.811 4.198 4.35a.53.53 0 0 1-.005.543.566.566 0 0 1-.487.27H5.36a.566.566 0 0 1-.486-.27.527.527 0 0 1-.005-.543c.899-1.539 2.31-3.003 4.197-4.35.883-.63 1.369-1.41 1.37-2.197 0-.301.252-.545.563-.545.31 0 .564.243.564.545 0 .787.487 1.566 1.37 2.197zm9.063 7.072c0 .603-.505 1.092-1.127 1.092H1.13c-.623 0-1.128-.49-1.128-1.092 0-.602.505-1.09 1.128-1.09h.337c.388-4.245 2.958-7.504 4.955-9.818-1.998-2.314-4.567-5.573-4.955-9.819h-.337c-.623 0-1.128-.488-1.128-1.09C.003.488.508 0 1.131 0h19.737c.622 0 1.127.488 1.127 1.09 0 .603-.505 1.091-1.127 1.091h-.338c-.388 4.246-2.957 7.505-4.955 9.819 1.997 2.314 4.567 5.573 4.955 9.818h.337c.623 0 1.128.488 1.128 1.09zm-3.725-1.09c-.424-3.835-3.002-6.789-4.928-8.995l-.103-.119c-.355-.406-.355-1 0-1.407l.102-.117c1.926-2.208 4.505-5.16 4.929-8.997H3.729c.424 3.836 3.002 6.79 4.928 8.997l.103.117a1.063 1.063 0 0 1 0 1.407l-.103.119c-1.927 2.206-4.504 5.16-4.928 8.995z"/></g></g></svg>