<svg xmlns="http://www.w3.org/2000/svg" width="400" height="400"><g fill-rule="evenodd"><path d="M138.4 1.74v1.741l-7.41.219c-8.118.24-8.59.379-8.59 2.522 0 .975-.212 1.391-.804 1.579-.442.141-1.372.963-2.067 1.827l-1.263 1.572h-4.633c-9.418 0-12.833 1.577-12.833 5.928v1.154l-3.596.233c-4.323.28-4.404.322-4.404 2.282 0 1.2-.181 1.607-.804 1.804-.442.141-1.355.941-2.028 1.779l-1.224 1.523-4.822.172c-5.765.206-5.922.321-5.922 4.349v2.671l-1.5.248c-.825.137-2.349.25-3.386.253-2.367.005-2.714.564-2.714 4.378V40.8h-3.437c-3.135 0-3.457.073-3.653.824-.127.483-.859 1.082-1.765 1.444-1.711.685-3.413 2.466-3.789 3.966a1.713 1.713 0 01-1.2 1.213c-.526.132-.956.49-.956.796 0 .307-.354.557-.786.557-2.384 0-5.214 2.814-5.214 5.184 0 .45-.263.816-.586.816-.4 0-.669.623-.846 1.957-.202 1.519-.479 2.074-1.239 2.481-.539.288-1.269 1.014-1.622 1.612-.482.815-1.103 1.172-2.475 1.422L41 63.406l-.116 3.497-.115 3.497h-2.811c-3.797 0-4.357.348-4.362 2.714-.003 1.037-.116 2.561-.253 3.386l-.248 1.5h-2.671c-4.028 0-4.143.157-4.349 5.922l-.172 4.822-1.523 1.224c-.838.673-1.638 1.586-1.779 2.028-.197.623-.604.804-1.804.804-1.935 0-1.93-.009-2.247 4.108l-.261 3.404-2.045.268c-4.179.548-4.606 1.508-4.928 11.097l-.225 6.677-1.517 1.219c-.835.671-1.632 1.581-1.773 2.023-.197.621-.604.804-1.785.804-2.067 0-2.069.012-2.316 9.9l-.212 8.5H0v118.4h3.488l.212 8.5c.247 9.888.249 9.9 2.316 9.9 1.181 0 1.588.183 1.785.804.141.442.938 1.352 1.773 2.023l1.517 1.219.225 6.677c.322 9.589.749 10.549 4.928 11.097l2.045.268.261 3.404c.317 4.117.312 4.108 2.247 4.108 1.2 0 1.607.181 1.804.804.141.442.941 1.355 1.779 2.028l1.523 1.224.172 4.822c.206 5.765.321 5.922 4.349 5.922h2.671l.248 1.5c.137.825.25 2.349.253 3.386.005 2.366.565 2.714 4.362 2.714h2.811l.115 3.497.116 3.497 1.851.337c1.362.248 1.991.599 2.381 1.329.292.545 1.014 1.276 1.606 1.626.851.502 1.129 1.04 1.332 2.575.175 1.32.445 1.939.844 1.939.322 0 .586.354.586.786 0 2.384 2.814 5.214 5.184 5.214.449 0 .816.25.816.557 0 .306.43.664.956.796a1.713 1.713 0 011.2 1.213c.376 1.5 2.078 3.281 3.789 3.966.906.362 1.638.961 1.765 1.444.196.751.518.824 3.653.824H70.4v2.826c0 3.814.347 4.373 2.714 4.378 1.037.003 2.561.116 3.386.253l1.5.248v2.671c0 3.893.244 4.1 5.107 4.334 3.924.189 4.039.221 4.289 1.218.439 1.748 1.727 3.161 3.581 3.928.979.405 1.855 1.025 1.948 1.378.179.684 2.545 1.166 5.723 1.166 1.573 0 1.758.104 1.963 1.1.663 3.234 1.064 4.118 2.104 4.647 1.642.835 5.913 1.452 10.118 1.462l3.767.01.882 2.008c.756 1.718 1.17 2.135 2.873 2.891 1.095.485 2.068 1.168 2.164 1.519.204.749 4.196 1.157 11.381 1.161l4.5.002v3.6h123.2v-3.6l4.5-.002c7.185-.004 11.177-.412 11.381-1.161.096-.351 1.069-1.034 2.164-1.519 1.703-.756 2.117-1.173 2.873-2.891l.882-2.008 3.767-.01c4.205-.01 8.476-.627 10.118-1.462 1.04-.529 1.441-1.413 2.104-4.647.205-.996.39-1.1 1.963-1.1 3.178 0 5.544-.482 5.723-1.166.093-.353.969-.973 1.948-1.378 1.854-.767 3.142-2.18 3.581-3.928.25-.997.365-1.029 4.289-1.218 4.863-.234 5.107-.441 5.107-4.334v-2.671l1.5-.248c.825-.137 2.349-.25 3.386-.253 2.367-.005 2.714-.564 2.714-4.378V359.2h3.437c3.135 0 3.457-.073 3.653-.824.127-.483.859-1.082 1.765-1.444 1.711-.685 3.413-2.466 3.789-3.966a1.713 1.713 0 011.2-1.213c.526-.132.956-.49.956-.796 0-.307.367-.557.816-.557 2.37 0 5.184-2.83 5.184-5.214 0-.432.264-.786.586-.786.399 0 .669-.619.844-1.939.203-1.535.481-2.073 1.332-2.575.592-.35 1.314-1.081 1.606-1.626.39-.73 1.019-1.081 2.381-1.329l1.851-.337.116-3.497.115-3.497h2.811c3.64 0 4.358-.388 4.358-2.358 0-.842.114-2.365.254-3.386l.255-1.856h2.669c4.026 0 4.141-.157 4.347-5.922l.172-4.822 1.523-1.224c.838-.673 1.638-1.586 1.779-2.028.197-.623.604-.804 1.804-.804 1.935 0 1.93.009 2.247-4.108l.261-3.404 2.045-.268c4.179-.548 4.606-1.508 4.928-11.097l.225-6.677 1.517-1.219c.835-.671 1.632-1.581 1.773-2.023.197-.621.604-.804 1.785-.804 2.067 0 2.069-.012 2.316-9.9l.212-8.5H400V140.8h-3.488l-.212-8.5c-.247-9.888-.249-9.9-2.316-9.9-1.181 0-1.588-.183-1.785-.804-.141-.442-.938-1.352-1.773-2.023l-1.517-1.219-.225-6.677c-.322-9.589-.749-10.549-4.928-11.097l-2.045-.268-.261-3.404c-.317-4.117-.312-4.108-2.247-4.108-1.2 0-1.607-.181-1.804-.804-.141-.442-.941-1.355-1.779-2.028l-1.523-1.224-.172-4.822c-.206-5.765-.321-5.922-4.349-5.922h-2.671l-.248-1.5c-.137-.825-.25-2.349-.253-3.386-.005-2.366-.565-2.714-4.362-2.714h-2.811l-.115-3.497-.116-3.497-1.851-.337c-1.362-.248-1.991-.599-2.381-1.329-.292-.545-1.014-1.276-1.606-1.626-.851-.502-1.129-1.04-1.332-2.575-.175-1.32-.445-1.939-.844-1.939-.323 0-.586-.366-.586-.816 0-2.37-2.83-5.184-5.214-5.184-.432 0-.786-.25-.786-.557 0-.306-.43-.664-.956-.796a1.713 1.713 0 01-1.2-1.213c-.376-1.5-2.078-3.281-3.789-3.966-.906-.362-1.638-.961-1.765-1.444-.196-.751-.518-.824-3.653-.824H329.6v-2.826c0-3.814-.347-4.373-2.714-4.378-1.037-.003-2.561-.116-3.386-.253l-1.5-.248v-2.671c0-4.028-.157-4.143-5.922-4.349l-4.822-.172-1.224-1.523c-.673-.838-1.586-1.638-2.028-1.779-.623-.197-.804-.604-.804-1.804 0-1.96-.081-2.002-4.404-2.282l-3.596-.233v-1.154c0-4.351-3.415-5.928-12.833-5.928h-4.633l-1.263-1.572c-.695-.864-1.625-1.686-2.067-1.827-.592-.188-.804-.604-.804-1.579 0-2.143-.472-2.282-8.59-2.522l-7.41-.219V0H138.4v1.74m47.2 93.02c2.549 1.307 3.014 2.696 2.899 8.64-.199 10.205-1.606 15.732-4.881 19.166-2.475 2.596-2.67 3.124-4.008 10.834-.569 3.281-2.283 6.584-4.01 7.726-1.863 1.232-2.225 2.04-2.77 6.183-.254 1.93-.556 3.754-.67 4.052-.115.299.277.924.87 1.391 1.076.847 1.122.848 30.754.848h29.677l.875-.931c1.47-1.566.007-10.261-1.893-11.25-2.645-1.377-4.133-4.303-5.033-9.897-.83-5.157-1.196-6.052-3.427-8.379-2.615-2.727-3.163-4.067-4.231-10.338-1.892-11.116-1.242-16.676 2.118-18.109 6.873-2.933 15.308 1.281 16.873 8.43.226 1.031.706 3.28 1.066 4.999.591 2.813.854 3.332 2.636 5.2 2.688 2.817 3.378 4.435 4.381 10.275.472 2.75.923 5.36 1.002 5.8.083.464.904 1.201 1.955 1.754 2.389 1.259 3.619 3.755 4.256 8.646.767 5.888.973 6.432 2.938 7.784 1.025.706 2.057 1.861 2.488 2.784 1.537 3.299 1.061 3.232 22.805 3.232 23.359 0 25.203.317 28.502 4.902 2.437 3.389 2.592 3.997 2.752 10.846.336 14.391-1.43 24.097-5.042 27.709-1.376 1.375-1.833 3.935-2.49 13.943-.74 11.273-1.765 15.487-4.457 18.317-1.926 2.024-2.151 3.006-2.73 11.883-.903 13.857-1.775 17.791-4.559 20.575-1.856 1.856-1.948 2.222-3.083 12.225-.744 6.553-2.099 8.362-7.05 9.411-3.494.741-156.341.887-160.34.154-5.128-.94-6.765-2.894-7.421-8.855-1.12-10.164-1.327-10.986-3.291-13.086-2.754-2.944-3.526-6.18-4.253-17.824-.697-11.157-.942-12.422-2.796-14.433-2.816-3.056-3.751-6.565-4.432-16.644-.755-11.164-1.267-14.061-2.794-15.8-2.922-3.328-4.056-7.848-4.831-19.252-.791-11.649-.256-15.447 2.686-19.058 3.908-4.797 5.147-5.013 28.799-5.013 21.216 0 20.699.064 22.139-2.758.759-1.489 2.91-3.642 3.638-3.642.698 0 1.288-1.787 1.801-5.456.981-7.028 2.085-9.466 4.944-10.924l1.486-.759.911-5.53c1.087-6.594 1.668-8.04 4.387-10.923 2.208-2.341 2.543-3.146 3.472-8.334 1.628-9.096 10.127-14.237 17.382-10.514m-34.595 70.689c-1.14 2.729-.59 9.151.784 9.151.541 0 .865-.369 1.053-1.2.149-.66.58-2.521.957-4.135l.684-2.934-1.116-1.166c-1.429-1.491-1.63-1.467-2.362.284m102.833-.134c-.956 1.253-.977 1.392-.442 2.944.309.896.684 2.551.833 3.678.643 4.848 2.571 3.707 2.571-1.52 0-6.114-.947-7.744-2.962-5.102m-88.174 35.917c-1.265 4.088-1.227 46.177.044 47.447.548.549.862.609 1.4.27.986-.622 1.059-46.038.078-48.917l-.603-1.768-.919 2.968m37.152.363c-.903 2.984-.906 3.078-.755 24.692.165 23.642.168 23.675 2.292 22.538l.847-.453-.005-22.486c-.005-20.653-.066-22.682-.739-24.886l-.733-2.4-.907 2.995m37.241-.538c-.31 1.546-.457 9.492-.457 24.761 0 24.237-.008 24.143 1.969 22.909 1.206-.754 1.313-44.457.116-47.609-.998-2.627-1.112-2.631-1.628-.061" fill="#fcfcfc"/><path d="M180.523 99.399c-.457.32-.954 1.082-1.105 1.692-.489 1.989-2.179 4.42-3.714 5.344-.827.497-1.57.953-1.65 1.014-.08.06-.835 2.913-1.676 6.34-1.617 6.584-3.289 10.314-4.966 11.078-.971.443-2.045 3.509-3.215 9.179-.789 3.828-2.034 6.325-3.666 7.354-1.625 1.025-1.941 1.74-2.946 6.674l-.829 4.067 1.228 1.228c1.707 1.707 2.914 1.017 4.816-2.752 1.024-2.028 1.745-2.941 2.684-3.396 1.549-.749 1.861-1.463 2.894-6.621 1.373-6.855 1.816-7.954 3.979-9.876 1.881-1.672 1.971-1.856 3.003-6.124 1.601-6.619 1.839-7.42 2.885-9.721.597-1.315 1.411-2.378 2.141-2.797 1.957-1.123 2.859-4.128 2.549-8.494-.292-4.114-.932-5.226-2.412-4.189m44.539.132c-1.83 2.023-.525 10.543 1.925 12.562 1.654 1.364 3.261 4.739 4.049 8.507 1.376 6.575 2.205 8.743 3.764 9.853 1.956 1.393 2.971 3.712 4.015 9.183 1.133 5.927 1.361 6.486 3.113 7.615.994.641 1.886 1.773 2.747 3.486 1.958 3.898 3.352 4.577 5.021 2.444l.953-1.218-.878-4.082c-1.114-5.177-1.132-5.216-2.966-6.43-1.819-1.204-2.881-3.663-4.035-9.34-.913-4.492-1.655-6.348-2.943-7.361-1.486-1.169-3.394-4.802-4.005-7.627-1.876-8.672-2.322-9.933-3.756-10.614-1.578-.748-3.491-3.213-4.041-5.205-.606-2.191-1.889-2.959-2.963-1.773m-59.37 63.732c-.451.735-1.191 2.479-1.646 3.875-1.029 3.157-2.187 5.063-3.575 5.886-.589.349-1.521 1.566-2.071 2.705-2.536 5.252-9.041 5.588-14.042.725l-2.353-2.288.776-2.801c.427-1.54.962-3.289 1.189-3.886.475-1.25-1.298-2.854-4.5-4.07-5.76-2.187-38.411-.158-40.174 2.497-.848 1.277-.015 9.101 1.118 10.494 2.858 3.517 4.055 8.086 4.979 19.008.776 9.177 1.518 12.722 3.026 14.459 2.209 2.547 3.577 8.246 4.4 18.333.673 8.249 1.729 13.75 2.764 14.389 1.926 1.191 3.687 8.151 4.608 18.211.994 10.861 1.163 11.535 3.199 12.794.713.44 1.718 1.596 2.233 2.568 1.763 3.322-5.531 3.038 78.03 3.038 83.205 0 76.392.248 77.964-2.834.428-.838 1.494-2.099 2.368-2.802 1.938-1.558 2.229-2.448 2.799-8.564 1.289-13.828 2.227-18.25 4.628-21.818 1.57-2.333 2.707-7.613 3.182-14.782.62-9.351 1.942-14.988 4.364-18.6 1.771-2.641 2.078-4.103 3.035-14.424 1.056-11.392 1.913-14.793 4.643-18.437.905-1.208 1.427-3.583 1.882-8.566.179-1.961-.663-3.573-1.867-3.573-.341 0-2.022-.448-3.736-.995-3.089-.986-3.242-.995-18.144-1-16.635-.006-17.402.091-20.123 2.52l-1.429 1.275.99 3.345c1.284 4.334 1.355 3.986-1.342 6.559-5.139 4.902-11.655 4.398-14.11-1.091-.397-.887-1.359-2.115-2.137-2.728-1.636-1.289-2.351-2.539-3.43-5.998-.427-1.368-1.19-2.999-1.696-3.625l-.919-1.137-4.587.467c-4.913.501-64.655.33-67.833-.194-1.553-.256-1.69-.197-2.463 1.065m3.816 28.617c4.285 2.027 5.04 6.548 5.06 30.32.024 27.028-.384 29.487-5.302 31.979-3.192 1.618-9.964-1-12.704-4.911-1.616-2.308-2.088-43.233-.555-48.195 2.303-7.456 8.397-11.606 13.501-9.193m36.136-.464c2.197.775 3.671 2.174 4.54 4.313.374.919.968 2.211 1.321 2.871.352.66 1.069 2.01 1.593 3l.953 1.8-.178 21.4c-.098 11.77-.305 21.866-.46 22.436-.574 2.112-5.387 6.621-7.891 7.393l-2.277.703-2.622-1.291c-1.442-.709-2.816-1.655-3.055-2.101-.239-.446-1.061-1.505-1.828-2.354-2.006-2.22-2.123-3.68-2.132-26.601-.009-21.769-.185-19.759 2.109-23.985.359-.66 1.092-2.22 1.63-3.466 1.013-2.348 2.004-3.254 4.557-4.165 1.893-.675 1.687-.678 3.74.047m39.129.713c.996.5 2.354 1.676 3.097 2.681 4.376 5.921 4.135 4.226 4.101 28.88-.035 25.137.008 24.694-2.61 27.024-8.063 7.177-14.903 4.825-16.033-5.514-.788-7.204-.367-41.906.559-46.077 1.69-7.616 5.182-9.86 10.886-6.994" fill="#f5ae90"/><path d="M179.618 97.727c-.949.48-2.19 1.503-2.758 2.273-.567.77-1.722 2.17-2.565 3.112-1.819 2.031-2.63 3.848-3.877 8.688-1.04 4.039-1.928 6.004-3.852 8.526-1.239 1.623-2.178 4.057-4.116 10.674-.458 1.564-1.712 4.21-2.841 5.994-1.89 2.985-3.609 6.773-3.609 7.951 0 .283-.45 1.838-1 3.455-1.781 5.235-.307 8.17 4.8 9.563 2.615.714 2.812.945 2.301 2.706-.245.842-.568 2.611-.719 3.931-.218 1.904-.586 2.818-1.781 4.421-.829 1.111-1.967 2.927-2.528 4.036-2.13 4.202-4.578 5.48-7.478 3.902-3.082-1.678-2.995-1.394-2.995-9.8 0-5.627-.13-7.644-.52-8.036-.41-.413-4.525-.546-19.537-.634l-19.018-.112-1.862 1.137c-1.025.624-2.673 1.453-3.663 1.842-2.035.798-3.785 2.295-4.675 4-1.338 2.563.198 12.804 2.899 19.329 1.627 3.931 2.63 8.39 3.578 15.915 1.089 8.639 1.766 11.476 4.567 19.114 1.134 3.095 1.904 6.876 2.869 14.085 1.076 8.05 2.087 12.525 3.944 17.468 1.748 4.654 2.487 7.914 3.415 15.076 1.109 8.559 3.229 12.053 8.505 14.016l2.298.855 74.8-.107L279 281l2.673-1.266c4.539-2.151 6.13-5.344 7.34-14.734.7-5.426 2.186-11.865 3.186-13.797 1.262-2.442 2.658-8.484 3.824-16.551 1.487-10.287 1.952-12.382 3.804-17.12 1.77-4.531 2.68-8.603 3.783-16.932 1.133-8.548 1.671-10.953 3.566-15.937 2.986-7.853 4.228-16.805 2.7-19.463-1.073-1.866-2.297-3.2-2.936-3.2-.286 0-2.069-.81-3.962-1.8l-3.441-1.8h-18.524c-22.423 0-20.218-.698-20.245 6.408-.011 2.754.106 5.959.26 7.121.261 1.966.2 2.198-.874 3.329-3.686 3.881-7.121 3.158-9.752-2.054-.667-1.32-1.929-3.347-2.805-4.502-1.246-1.643-1.594-2.454-1.595-3.715-.001-.887-.246-2.552-.543-3.7-.621-2.391-.503-2.583 1.981-3.247 3.25-.869 6.66-4.559 5.942-6.43-.126-.329-.858-2.741-1.626-5.36-1.437-4.9-2.408-7.162-3.968-9.25-1.541-2.062-2.443-4.239-3.803-9.169-1.01-3.664-1.709-5.345-3.016-7.255-2.441-3.566-2.785-4.34-4.096-9.236-1.305-4.867-1.866-6.137-3.538-8.01-.624-.699-1.82-2.096-2.658-3.104-.837-1.008-2.242-2.2-3.122-2.649l-1.598-.815-1.384.855c-1.964 1.213-2.173 1.831-2.173 6.414 0 5.844.854 8.481 4.511 13.932 1.044 1.555 1.863 3.829 3.862 10.711.498 1.716 1.408 3.625 2.257 4.738 2.094 2.743 2.823 4.345 4.002 8.788.937 3.534 2.452 7.108 3.83 9.038 1.193 1.671-1.337 5.083-4.701 6.342-3.167 1.185-61.442 1.295-64.728.122-4.242-1.514-6.11-4.774-4.227-7.374.668-.922 1.678-3.218 2.244-5.102 2.219-7.383 2.681-8.517 4.722-11.584 1.754-2.635 2.294-3.901 3.186-7.458 1.334-5.326 1.682-6.158 3.968-9.497 6.092-8.899 4.885-22.296-1.708-18.96m3.317 5.861c.31 4.366-.592 7.371-2.549 8.494-.73.419-1.544 1.482-2.141 2.797-1.046 2.301-1.284 3.102-2.885 9.721-1.032 4.268-1.122 4.452-3.003 6.124-2.163 1.922-2.606 3.021-3.979 9.876-1.033 5.158-1.345 5.872-2.894 6.621-.939.455-1.66 1.368-2.684 3.396-1.902 3.769-3.109 4.459-4.816 2.752l-1.228-1.228.829-4.067c1.005-4.934 1.321-5.649 2.946-6.674 1.632-1.029 2.877-3.526 3.666-7.354 1.17-5.67 2.244-8.736 3.215-9.179 1.677-.764 3.349-4.494 4.966-11.078.841-3.427 1.596-6.28 1.676-6.34.08-.061.823-.517 1.65-1.014 1.535-.924 3.225-3.355 3.714-5.344.968-3.93 3.172-2.365 3.517 2.497m43.986-4.216c.397.301.893 1.17 1.104 1.932.55 1.992 2.463 4.457 4.041 5.205 1.434.681 1.88 1.942 3.756 10.614.611 2.825 2.519 6.458 4.005 7.627 1.288 1.013 2.03 2.869 2.943 7.361 1.154 5.677 2.216 8.136 4.035 9.34 1.834 1.214 1.852 1.253 2.966 6.43l.878 4.082-.953 1.218c-1.669 2.133-3.063 1.454-5.021-2.444-.861-1.713-1.753-2.845-2.747-3.486-1.752-1.129-1.98-1.688-3.113-7.615-1.044-5.471-2.059-7.79-4.015-9.183-1.559-1.11-2.388-3.278-3.764-9.853-.788-3.768-2.395-7.143-4.049-8.507-1.871-1.542-2.587-3.815-2.587-8.212 0-4.457.771-5.836 2.521-4.509M200.6 162.665c21.928.139 32.121.06 35.388-.273l4.587-.467.919 1.137c.506.626 1.269 2.257 1.696 3.625 1.079 3.459 1.794 4.709 3.43 5.998.778.613 1.74 1.841 2.137 2.728 2.455 5.489 8.971 5.993 14.11 1.091 2.697-2.573 2.626-2.225 1.342-6.559l-.99-3.345 1.429-1.275c2.721-2.429 3.488-2.526 20.123-2.52 14.902.005 15.055.014 18.144 1 1.714.547 3.395.995 3.736.995 1.204 0 2.046 1.612 1.867 3.573-.455 4.983-.977 7.358-1.882 8.566-2.73 3.644-3.587 7.045-4.643 18.437-.957 10.321-1.264 11.783-3.035 14.424-2.422 3.612-3.744 9.249-4.364 18.6-.475 7.169-1.612 12.449-3.182 14.782-2.401 3.568-3.339 7.99-4.628 21.818-.57 6.116-.861 7.006-2.799 8.564-.874.703-1.94 1.964-2.368 2.802-1.572 3.082 5.241 2.834-77.964 2.834-83.561 0-76.267.284-78.03-3.038-.515-.972-1.52-2.128-2.233-2.568-2.036-1.259-2.205-1.933-3.199-12.794-.921-10.06-2.682-17.02-4.608-18.211-1.035-.639-2.091-6.14-2.764-14.389-.823-10.087-2.191-15.786-4.4-18.333-1.508-1.737-2.25-5.282-3.026-14.459-.924-10.922-2.121-15.491-4.979-19.008-1.133-1.393-1.966-9.217-1.118-10.494 1.763-2.655 34.414-4.684 40.174-2.497 3.202 1.216 4.975 2.82 4.5 4.07-.227.597-.762 2.346-1.189 3.886l-.776 2.801 2.353 2.288c5.001 4.863 11.506 4.527 14.042-.725.55-1.139 1.482-2.356 2.071-2.705 1.388-.823 2.546-2.729 3.575-5.886 1.428-4.381 2.16-5.262 4.109-4.94.905.149 15.505.359 32.445.467m-36.501 28.878c-3.411 1.193-6.722 5.092-8.092 9.53-1.533 4.962-1.061 45.887.555 48.195 4.472 6.383 13.381 7.13 16.322 1.367 2.06-4.036 2.583-43.32.685-51.443-1.635-6.996-4.566-9.364-9.47-7.649m37.805-.174c-2.553.911-3.544 1.817-4.557 4.165-.538 1.246-1.271 2.806-1.63 3.466-2.294 4.226-2.118 2.216-2.109 23.985.009 22.921.126 24.381 2.132 26.601.767.849 1.589 1.908 1.828 2.354.239.446 1.613 1.392 3.055 2.101l2.622 1.291 2.277-.703c2.504-.772 7.317-5.281 7.891-7.393.155-.57.362-10.666.46-22.436l.178-21.4-.953-1.8c-.524-.99-1.241-2.34-1.593-3-.353-.66-.947-1.952-1.321-2.871-1.465-3.604-5.074-5.504-8.28-4.36m36.899.055c-5.241 2.323-5.772 5.182-5.79 31.176-.017 24.892.235 27.339 3.093 30.109 3.45 3.344 8.032 2.654 13.255-1.995 2.618-2.33 2.575-1.887 2.61-27.024.031-22.444-.041-23.319-2.163-26.242-2.706-3.728-3.465-4.53-5.035-5.319-2.454-1.233-4.29-1.45-5.97-.705m-70.09 3.276c3.066 2.974 3.419 6.469 3.219 31.872l-.169 21.341-.982 1.45c-.539.797-1.674 1.934-2.521 2.525l-1.54 1.076-2.104-1.102c-5.262-2.755-5.353-3.25-5.39-29.276l-.026-18.814 1.448-3.586c1.525-3.78 2.39-5.019 4.352-6.238 1.648-1.023 1.944-.963 3.713.752m36.007-.938c1.971 1.026 2.857 2.431 4.071 6.46l1.2 3.978-.002 17.4c-.002 22.834-.286 26.451-2.233 28.445-3.323 3.403-5.791 3.2-8.793-.725l-1.163-1.52-.134-22.027-.135-22.027 1.261-4.058c1.594-5.129 3.601-7.137 5.928-5.926m38.307.738c1.753 1.188 2.067 1.662 3.643 5.5l1.725 4.2.002 17.63c.004 25.583-.378 27.547-5.886 30.213-2.054.994-3.306.495-5.469-2.18l-1.242-1.536-.138-21.864c-.166-26.315.049-28.611 2.958-31.563 2.009-2.039 1.992-2.037 4.407-.4" fill="#fcccbc"/><path d="M178.718 97.017c-1.034.539-2.384 1.62-3 2.403a71.701 71.701 0 01-2.253 2.701c-1.678 1.89-2.428 3.574-3.863 8.679-1.464 5.205-1.554 5.408-3.501 7.95-1.759 2.295-2.268 3.495-3.557 8.377-1.116 4.23-2.394 7.103-4.011 9.026-1.351 1.605-2.333 3.929-3.361 7.958-.456 1.784-1.27 4.331-1.81 5.659-1.746 4.298-.187 8.091 3.761 9.147 2.093.56 2.349 1.059 2.528 4.934.122 2.653.058 2.896-1.17 4.447-.715.903-1.686 2.6-2.158 3.772-1.784 4.427-3.777 5.631-6.483 3.914-1.025-.65-1.976-1.472-2.112-1.827-.442-1.153.553-11.456 1.282-13.271 1.545-3.847.204-4.086-22.962-4.086h-18.312l-1.968 1.054c-1.082.58-2.956 1.579-4.163 2.22-2.734 1.451-3.858 2.487-4.898 4.516-1.594 3.11-.296 14.935 2.317 21.102 1.61 3.798 2.813 8.468 3.542 13.747 1.801 13.029 2.386 15.769 4.48 20.953 1.604 3.972 2.583 8.521 3.748 17.408 1.047 7.981 1.565 10.233 3.569 15.502 1.848 4.861 2.606 7.892 3.228 12.906 1.179 9.512 2.553 12.195 7.41 14.469l2.399 1.123 75.538.104c82.363.114 77.289.245 81.308-2.11 3.027-1.774 4.429-5.158 5.548-13.394.797-5.867 1.574-8.987 3.258-13.08 1.901-4.617 2.572-7.727 3.957-18.32.929-7.112 1.683-10.376 3.372-14.6 1.906-4.765 2.476-7.309 4.002-17.868 1.222-8.45 2.226-12.595 4.148-17.132 1.347-3.181 2.545-9.372 2.863-14.8l.258-4.4-1.326-2.193c-1.298-2.146-3.161-3.473-9.126-6.5-1.344-.682-36.74-.942-39.867-.293-2.561.531-4.122 1.633-3.459 2.44 1.005 1.225 2.487 12.941 1.847 14.607-.403 1.05-4.032 3.015-4.798 2.598-1.34-.729-3.225-3.048-3.707-4.561-.264-.826-1.2-2.446-2.081-3.6l-1.601-2.098.241-3.089c.315-4.025.405-4.203 2.27-4.519 4.399-.743 5.673-4.503 3.585-10.584a209.947 209.947 0 01-2.183-6.814c-.692-2.322-1.538-4.103-2.66-5.6-2.079-2.771-2.595-3.968-4.033-9.368-1.134-4.259-1.927-5.931-4.377-9.228-.803-1.08-1.594-3.1-2.429-6.2-1.733-6.441-2.23-7.311-7.23-12.679-2.755-2.957-5.864-3.053-8.32-.256-2.651 3.019-.559 16.782 3 19.735 1.143.949 2.252 3.592 3.658 8.721 1.538 5.611 1.671 5.92 3.75 8.681 1.538 2.043 3.093 5.868 3.983 9.8.273 1.21 1.015 3.257 1.647 4.549l1.149 2.349-.854 1.198c-.469.66-1.671 1.718-2.67 2.352l-1.818 1.152h-30.337c-34.074 0-31.85.192-34.644-2.99-1.483-1.69-1.494-1.767-.49-3.487.425-.728 1.239-2.99 1.808-5.028 1.541-5.516 2.571-8.025 4.132-10.062 1.763-2.301 2.19-3.322 3.689-8.835 1.279-4.706 1.956-6.21 4.197-9.332 2.296-3.197 3.402-7.442 3.402-13.053v-4.745l-1.856-1.634c-2.14-1.883-2.84-1.963-5.426-.617m5.647 2.029c2.205 2.803.553 12.395-3.039 17.641-2.286 3.339-2.634 4.171-3.968 9.497-.892 3.557-1.432 4.823-3.186 7.458-2.041 3.067-2.503 4.201-4.722 11.584-.566 1.884-1.576 4.18-2.244 5.102-1.883 2.6-.015 5.86 4.227 7.374 3.286 1.173 61.561 1.063 64.728-.122 3.364-1.259 5.894-4.671 4.701-6.342-1.378-1.93-2.893-5.504-3.83-9.038-1.179-4.443-1.908-6.045-4.002-8.788-.849-1.113-1.759-3.022-2.257-4.738-1.999-6.882-2.818-9.156-3.862-10.711-3.657-5.451-4.511-8.088-4.511-13.932 0-4.583.209-5.201 2.173-6.414l1.384-.855 1.598.815c.88.449 2.285 1.641 3.122 2.649a144.157 144.157 0 002.658 3.104c1.672 1.873 2.233 3.143 3.538 8.01 1.311 4.896 1.655 5.67 4.096 9.236 1.307 1.91 2.006 3.591 3.016 7.255 1.36 4.93 2.262 7.107 3.803 9.169 1.56 2.088 2.531 4.35 3.968 9.25.768 2.619 1.5 5.031 1.626 5.36.718 1.871-2.692 5.561-5.942 6.43-2.484.664-2.602.856-1.981 3.247.297 1.148.542 2.813.543 3.7.001 1.261.349 2.072 1.595 3.715.876 1.155 2.138 3.182 2.805 4.502 2.631 5.212 6.066 5.935 9.752 2.054 1.074-1.131 1.135-1.363.874-3.329-.154-1.162-.271-4.367-.26-7.121.027-7.106-2.178-6.408 20.245-6.408h18.524l3.441 1.8c1.893.99 3.676 1.8 3.962 1.8.639 0 1.863 1.334 2.936 3.2 1.528 2.658.286 11.61-2.7 19.463-1.895 4.984-2.433 7.389-3.566 15.937-1.103 8.329-2.013 12.401-3.783 16.932-1.852 4.738-2.317 6.833-3.804 17.12-1.166 8.067-2.562 14.109-3.824 16.551-1 1.932-2.486 8.371-3.186 13.797-1.21 9.39-2.801 12.583-7.34 14.734L279 281l-74.8.107-74.8.107-2.298-.855c-5.276-1.963-7.396-5.457-8.505-14.016-.928-7.162-1.667-10.422-3.415-15.076-1.857-4.943-2.868-9.418-3.944-17.468-.965-7.209-1.735-10.99-2.869-14.085-2.801-7.638-3.478-10.475-4.567-19.114-.948-7.525-1.951-11.984-3.578-15.915-2.701-6.525-4.237-16.766-2.899-19.329.89-1.705 2.64-3.202 4.675-4 .99-.389 2.638-1.218 3.663-1.842l1.862-1.137 19.018.112c15.012.088 19.127.221 19.537.634.39.392.52 2.409.52 8.036 0 8.406-.087 8.122 2.995 9.8 2.9 1.578 5.348.3 7.478-3.902.561-1.109 1.699-2.925 2.528-4.036 1.195-1.603 1.563-2.517 1.781-4.421.151-1.32.474-3.089.719-3.931.511-1.761.314-1.992-2.301-2.706-5.107-1.393-6.581-4.328-4.8-9.563.55-1.617 1-3.172 1-3.455 0-1.178 1.719-4.966 3.609-7.951 1.129-1.784 2.383-4.43 2.841-5.994 1.938-6.617 2.877-9.051 4.116-10.674 1.924-2.522 2.812-4.487 3.852-8.526 1.247-4.84 2.058-6.657 3.877-8.688.843-.942 1.998-2.342 2.565-3.112 2.387-3.238 5.406-3.622 7.505-.954M165 193.948c-1.962 1.219-2.827 2.458-4.352 6.238l-1.448 3.586.026 18.814c.037 26.026.128 26.521 5.39 29.276l2.104 1.102 1.54-1.076c.847-.591 1.982-1.728 2.521-2.525l.982-1.45.169-21.341c.2-25.403-.153-28.898-3.219-31.872-1.769-1.715-2.065-1.775-3.713-.752m36.705.467c-1.506 1.108-1.764 1.575-2.913 5.273l-1.261 4.058.135 22.027.134 22.027 1.163 1.52c3.002 3.925 5.47 4.128 8.793.725 1.947-1.994 2.231-5.611 2.233-28.445l.002-17.4-1.2-3.978c-1.214-4.029-2.1-5.434-4.071-6.46-1.359-.707-1.084-.767-3.015.653m36.915.485c-2.909 2.952-3.124 5.248-2.958 31.563l.138 21.864 1.242 1.536c2.163 2.675 3.415 3.174 5.469 2.18 5.508-2.666 5.89-4.63 5.886-30.213l-.002-17.63-1.725-4.2c-1.576-3.838-1.89-4.312-3.643-5.5-2.415-1.637-2.398-1.639-4.407.4m-70.528.6c2.464 2.602 2.81 6.635 2.65 30.89-.158 23.973.026 22.403-2.883 24.576l-1.092.815-1.749-.928c-4.025-2.135-4.218-3.467-4.218-29.082V204.08l1.421-3.74c1.375-3.62 3.059-5.94 4.31-5.94.286 0 .988.495 1.561 1.1m37.135-.186c.733.633 1.341 1.974 2.124 4.686l1.097 3.8-.124 22c-.138 24.525.078 22.738-3.026 25.02l-1.591 1.171-1.611-1.167c-3.106-2.25-2.896-.407-2.896-25.434v-22.431l.98-3.38c1.379-4.752 2.946-6.076 5.047-4.265m37.024-.148c.958.584 1.568 1.546 2.6 4.099l1.349 3.335v22.24c0 24.816.167 23.359-2.929 25.472-2.453 1.674-2.852 1.632-4.82-.503l-1.651-1.791v-22.46c0-25.169.292-28.471 2.686-30.355 1.246-.98 1.22-.979 2.765-.037" fill="#fcd4cc"/><path d="M224.382 95.464c-3.847 1.618-4.514 3.258-4.015 9.877.548 7.271 3.224 15.059 5.175 15.059.549 0 1.544 2.691 2.885 7.8 1.415 5.393 1.83 6.337 3.985 9.062 1.554 1.967 2.685 4.863 3.769 9.654.338 1.494.876 3.221 1.196 3.839.56 1.084.528 1.174-.898 2.537-2.538 2.426-.862 2.308-32.881 2.308h-29.654l-1.757-1.209c-2.886-1.985-2.911-1.296.455-12.298.707-2.309 1.456-3.821 2.485-5.01 1.948-2.252 2.617-3.859 4.25-10.209 1.245-4.841 1.521-5.491 3.032-7.13 4.054-4.398 6.446-17.57 3.881-21.375-4.921-7.303-13.874-1.411-17.527 11.535-1.343 4.76-1.678 5.506-3.268 7.275-1.84 2.046-3.507 6.141-4.079 10.021-.396 2.685-1.768 5.877-2.824 6.568-1.319.864-3.24 5.041-4.159 9.041-.841 3.659-2.116 6.977-3.099 8.063-.334.37-.906 1.27-1.271 2-1.27 2.542-.97 2.507-23.463 2.729-11.22.111-20.76.362-21.2.559-3.319 1.483-8.204 5.279-9.258 7.195-2.386 4.333-.746 19.545 2.881 26.721 1.508 2.984 2.689 8.155 3.364 14.724 1.017 9.896 2.03 14.559 3.994 18.386 1.922 3.748 2.455 6.173 3.619 16.469 1.012 8.955 2.014 13.375 3.749 16.539 1.485 2.707 2.34 5.971 3.25 12.406.956 6.764 1.669 8.889 3.648 10.868 3.4 3.4-3.734 3.132 83.353 3.132h77l2.239-.906c4.621-1.869 5.866-4.166 7.195-13.272.994-6.817 1.635-9.269 3.156-12.077 1.765-3.258 2.712-7.451 3.828-16.945 1.105-9.396 1.892-12.873 3.718-16.433 1.651-3.221 2.676-7.711 3.643-15.967 1.128-9.636 1.872-13.171 3.475-16.523 3.618-7.565 5.377-21.917 3.253-26.555-.924-2.018-3.153-4.322-4.183-4.322-.22 0-.743-.379-1.162-.843-.419-.464-1.662-1.319-2.762-1.9l-2-1.057-20.6-.2c-23.273-.226-22.053-.052-24.026-3.431-2.107-3.61-2.835-5.408-3.841-9.483-1.157-4.69-2.068-6.663-4.1-8.886-1.5-1.641-2.153-3.347-3.444-9-.88-3.851-1.904-6.01-3.761-7.923-1.28-1.319-1.671-2.206-2.786-6.306-1.898-6.984-1.999-7.202-4.894-10.487-3.704-4.204-6.892-5.744-9.566-4.62m-40.238 2.17L186 99.268v4.745c0 5.611-1.106 9.856-3.402 13.053-2.241 3.122-2.918 4.626-4.197 9.332-1.499 5.513-1.926 6.534-3.689 8.835-1.561 2.037-2.591 4.546-4.132 10.062-.569 2.038-1.383 4.3-1.808 5.028-1.004 1.72-.993 1.797.49 3.487 2.794 3.182.57 2.99 34.644 2.99h30.337l1.818-1.152c.999-.634 2.201-1.692 2.67-2.352l.854-1.198-1.149-2.349c-.632-1.292-1.374-3.339-1.647-4.549-.89-3.932-2.445-7.757-3.983-9.8-2.079-2.761-2.212-3.07-3.75-8.681-1.406-5.129-2.515-7.772-3.658-8.721-3.559-2.953-5.651-16.716-3-19.735 2.456-2.797 5.565-2.701 8.32.256 5 5.368 5.497 6.238 7.23 12.679.835 3.1 1.626 5.12 2.429 6.2 2.45 3.297 3.243 4.969 4.377 9.228 1.438 5.4 1.954 6.597 4.033 9.368 1.122 1.497 1.968 3.278 2.66 5.6.557 1.873 1.54 4.939 2.183 6.814 2.088 6.081.814 9.841-3.585 10.584-1.865.316-1.955.494-2.27 4.519l-.241 3.089 1.601 2.098c.881 1.154 1.817 2.774 2.081 3.6.482 1.513 2.367 3.832 3.707 4.561.766.417 4.395-1.548 4.798-2.598.64-1.666-.842-13.382-1.847-14.607-.663-.807.898-1.909 3.459-2.44 3.127-.649 38.523-.389 39.867.293 5.965 3.027 7.828 4.354 9.126 6.5l1.326 2.193-.258 4.4c-.318 5.428-1.516 11.619-2.863 14.8-1.922 4.537-2.926 8.682-4.148 17.132-1.526 10.559-2.096 13.103-4.002 17.868-1.689 4.224-2.443 7.488-3.372 14.6-1.385 10.593-2.056 13.703-3.957 18.32-1.684 4.093-2.461 7.213-3.258 13.08-1.119 8.236-2.521 11.62-5.548 13.394-4.019 2.355 1.055 2.224-81.308 2.11L127.4 281.8l-2.399-1.123c-4.857-2.274-6.231-4.957-7.41-14.469-.622-5.014-1.38-8.045-3.228-12.906-2.004-5.269-2.522-7.521-3.569-15.502-1.165-8.887-2.144-13.436-3.748-17.408-2.094-5.184-2.679-7.924-4.48-20.953-.729-5.279-1.932-9.949-3.542-13.747-2.613-6.167-3.911-17.992-2.317-21.102 1.04-2.029 2.164-3.065 4.898-4.516 1.207-.641 3.081-1.64 4.163-2.22l1.968-1.054h18.312c23.166 0 24.507.239 22.962 4.086-.729 1.815-1.724 12.118-1.282 13.271.136.355 1.087 1.177 2.112 1.827 2.706 1.717 4.699.513 6.483-3.914.472-1.172 1.443-2.869 2.158-3.772 1.228-1.551 1.292-1.794 1.17-4.447-.179-3.875-.435-4.374-2.528-4.934-3.948-1.056-5.507-4.849-3.761-9.147.54-1.328 1.354-3.875 1.81-5.659 1.028-4.029 2.01-6.353 3.361-7.958 1.617-1.923 2.895-4.796 4.011-9.026 1.289-4.882 1.798-6.082 3.557-8.377 1.947-2.542 2.037-2.745 3.501-7.95 1.435-5.105 2.185-6.789 3.863-8.679a71.701 71.701 0 002.253-2.701c2.668-3.395 5.835-4.066 8.426-1.786m-29.326 63.979c.612.436 1.572 1.712 2.132 2.837l1.019 2.044-.95 1.253c-.523.689-1.333 2.423-1.801 3.853-.566 1.732-1.262 2.958-2.085 3.672l-1.235 1.072-1.605-1.062-1.605-1.062.255-4.456c.487-8.527 2.135-10.814 5.875-8.151m102.484 1.181c.982 2.236 1.677 10.673.953 11.571-1.691 2.099-5.455 1.65-5.455-.651 0-.995-1.311-4.298-2.296-5.788-1.509-2.28.082-5.4 3.696-7.243 1.483-.757 1.996-.407 3.102 2.111M164.827 195.5c-.76.706-1.694 2.441-2.606 4.84l-1.421 3.74v17.691c0 25.615.193 26.947 4.218 29.082l1.749.928 1.092-.815c2.909-2.173 2.725-.603 2.883-24.576.138-20.933.117-21.669-.733-25.671-.874-4.114-2.088-6.319-3.478-6.319-.285 0-1.052.495-1.704 1.1m37.376-.2c-.726.627-1.34 1.926-2.023 4.279l-.98 3.38v22.431c0 25.027-.21 23.184 2.896 25.434l1.611 1.167 1.591-1.171c3.104-2.282 2.888-.495 3.026-25.02l.124-22-1.097-3.8c-1.494-5.176-3.003-6.553-5.148-4.7m37.283-.097c-2.394 1.884-2.686 5.186-2.686 30.355v22.46l1.651 1.791c1.968 2.135 2.367 2.177 4.82.503 3.096-2.113 2.929-.656 2.929-25.472V202.6l-1.349-3.335c-1.032-2.553-1.642-3.515-2.6-4.099-1.545-.942-1.519-.943-2.765.037m-70.738 4.883c.817 3.344.852 4.387.852 25.74v22.254l-1.4 1.4-1.399 1.399-1.301-.815c-3.075-1.927-2.884-.385-3.037-24.438l-.138-21.515 1.475-3.939c2.327-6.211 3.445-6.231 4.948-.086m37.428.314l1.094 3.8-.135 21.931-.135 21.931-1.494 1.369c-1.833 1.679-1.811 1.679-3.628.015l-1.478-1.354v-44.976l1.038-3.458c1.748-5.828 2.898-5.647 4.738.742m37.293-.57l1.325 3.57.003 20.041c.004 25.022.039 24.621-2.292 26.224l-1.777 1.223-1.364-1.323-1.364-1.322v-22.755c0-21.753.037-22.898.834-26.021 1.411-5.527 2.48-5.443 4.635.363" fill="#fce4d4"/><path d="M178.453 94.012c-5.989 1.242-9.043 4.602-10.235 11.262-.929 5.188-1.264 5.993-3.472 8.334-2.719 2.883-3.3 4.329-4.387 10.923l-.911 5.53-1.486.759c-2.859 1.458-3.963 3.896-4.944 10.924-.513 3.669-1.103 5.456-1.801 5.456-.728 0-2.879 2.153-3.638 3.642-1.44 2.822-.923 2.758-22.139 2.758-23.652 0-24.891.216-28.799 5.013-2.942 3.611-3.477 7.409-2.686 19.058.775 11.404 1.909 15.924 4.831 19.252 1.527 1.739 2.039 4.636 2.794 15.8.681 10.079 1.616 13.588 4.432 16.644 1.854 2.011 2.099 3.276 2.796 14.433.727 11.644 1.499 14.88 4.253 17.824 1.964 2.1 2.171 2.922 3.291 13.086.656 5.961 2.293 7.915 7.421 8.855 3.999.733 156.846.587 160.34-.154 4.951-1.049 6.306-2.858 7.05-9.411 1.135-10.003 1.227-10.369 3.083-12.225 2.784-2.784 3.656-6.718 4.559-20.575.579-8.877.804-9.859 2.73-11.883 2.692-2.83 3.717-7.044 4.457-18.317.657-10.008 1.114-12.568 2.49-13.943 3.612-3.612 5.378-13.318 5.042-27.709-.16-6.849-.315-7.457-2.752-10.846-3.299-4.585-5.143-4.902-28.502-4.902-21.744 0-21.268.067-22.805-3.232-.431-.923-1.463-2.078-2.488-2.784-1.965-1.352-2.171-1.896-2.938-7.784-.637-4.891-1.867-7.387-4.256-8.646-1.051-.553-1.872-1.29-1.955-1.754-.079-.44-.53-3.05-1.002-5.8-1.003-5.84-1.693-7.458-4.381-10.275-1.782-1.868-2.045-2.387-2.636-5.2a693.14 693.14 0 00-1.066-4.999c-1.565-7.149-10-11.363-16.873-8.43-3.36 1.433-4.01 6.993-2.118 18.109 1.068 6.271 1.616 7.611 4.231 10.338 2.231 2.327 2.597 3.222 3.427 8.379.9 5.594 2.388 8.52 5.033 9.897 1.9.989 3.363 9.684 1.893 11.25l-.875.931h-29.677c-29.632 0-29.678-.001-30.754-.848-.593-.467-.985-1.092-.87-1.391.114-.298.416-2.122.67-4.052.545-4.143.907-4.951 2.77-6.183 1.727-1.142 3.441-4.445 4.01-7.726 1.338-7.71 1.533-8.238 4.008-10.834 3.275-3.434 4.682-8.961 4.881-19.166.158-8.124-2.802-10.89-10.046-9.388m51.694 2.456c1.578.83 6.35 6.327 6.927 7.98.259.744 1.055 3.499 1.768 6.123 1.115 4.1 1.506 4.987 2.786 6.306 1.857 1.913 2.881 4.072 3.761 7.923 1.291 5.653 1.944 7.359 3.444 9 2.032 2.223 2.943 4.196 4.1 8.886 1.006 4.075 1.734 5.873 3.841 9.483 1.973 3.379.753 3.205 24.026 3.431l20.6.2 2 1.057c1.1.581 2.343 1.436 2.762 1.9.419.464.942.843 1.162.843 6.158 0 6.723 18.767.93 30.877-1.603 3.352-2.347 6.887-3.475 16.523-.967 8.256-1.992 12.746-3.643 15.967-1.826 3.56-2.613 7.037-3.718 16.433-1.116 9.494-2.063 13.687-3.828 16.945-1.521 2.808-2.162 5.26-3.156 12.077-1.329 9.106-2.574 11.403-7.195 13.272L281 282.6h-77c-87.087 0-79.953.268-83.353-3.132-1.979-1.979-2.692-4.104-3.648-10.868-.91-6.435-1.765-9.699-3.25-12.406-1.735-3.164-2.737-7.584-3.749-16.539-1.164-10.296-1.697-12.721-3.619-16.469-1.964-3.827-2.977-8.49-3.994-18.386-.675-6.569-1.856-11.74-3.364-14.724-3.627-7.176-5.267-22.388-2.881-26.721 1.054-1.916 5.939-5.712 9.258-7.195.44-.197 9.98-.448 21.2-.559 22.493-.222 22.193-.187 23.463-2.729.365-.73.937-1.63 1.271-2 .983-1.086 2.258-4.404 3.099-8.063.919-4 2.84-8.177 4.159-9.041 1.056-.691 2.428-3.883 2.824-6.568.572-3.88 2.239-7.975 4.079-10.021 1.59-1.769 1.925-2.515 3.268-7.275 3.653-12.946 12.606-18.838 17.527-11.535 2.565 3.805.173 16.977-3.881 21.375-1.511 1.639-1.787 2.289-3.032 7.13-1.633 6.35-2.302 7.957-4.25 10.209-1.029 1.189-1.778 2.701-2.485 5.01-3.366 11.002-3.341 10.313-.455 12.298l1.757 1.209h29.654c32.019 0 30.343.118 32.881-2.308 1.426-1.363 1.458-1.453.898-2.537-.32-.618-.858-2.345-1.196-3.839-1.084-4.791-2.215-7.687-3.769-9.654-2.155-2.725-2.57-3.669-3.985-9.062-1.341-5.109-2.336-7.8-2.885-7.8-2.828 0-6.951-17.73-4.997-21.487 1.976-3.798 5.38-4.665 9.602-2.445m-79.064 64.577c-1.272 1.686-1.88 4.165-2.14 8.719l-.255 4.456 1.605 1.062 1.605 1.062 1.235-1.072c.823-.714 1.519-1.94 2.085-3.672.468-1.43 1.278-3.164 1.801-3.853l.95-1.253-1.019-2.044c-1.642-3.295-4.638-5.034-5.867-3.405m103.117-.362c-3.614 1.843-5.205 4.963-3.696 7.243.985 1.49 2.296 4.793 2.296 5.788 0 1.347 2.628 2.662 3.842 1.922 2.032-1.239 2.093-1.463 1.761-6.436-.457-6.834-1.874-9.705-4.203-8.517m-100.833 4.482l1.116 1.166-.684 2.934a829.48 829.48 0 00-.957 4.135c-.775 3.421-2.309.954-2.395-3.851-.083-4.655 1.042-6.344 2.92-4.384m102.994.095c.733 2.101.576 9.002-.212 9.304-1.031.396-1.627-.418-1.92-2.627-.149-1.127-.524-2.782-.833-3.678-.535-1.552-.514-1.691.442-2.944 1.258-1.649 1.962-1.664 2.523-.055m-90.423 30.479c-.364.272-1.326 2.266-2.138 4.433l-1.475 3.939.138 21.515c.153 24.053-.038 22.511 3.037 24.438l1.301.815 1.399-1.399 1.4-1.4v-22.254c0-21.353-.035-22.396-.852-25.74-.957-3.914-1.748-5.138-2.81-4.347m37.183-.044c-.355.278-1.113 2.061-1.683 3.963l-1.038 3.458v44.976l1.478 1.354c1.817 1.664 1.795 1.664 3.628-.015l1.494-1.369.135-21.931.135-21.931-1.094-3.8c-1.234-4.284-2.028-5.508-3.055-4.705m36.971-.005c-1.824 2.197-2.092 6.011-2.092 29.798v22.755l1.364 1.322 1.364 1.323 1.777-1.223c2.331-1.603 2.296-1.202 2.292-26.224l-.003-20.041-1.325-3.57c-1.367-3.682-2.552-5.135-3.377-4.14m-72.298 29.466c.006 25.384-.012 25.597-2.086 23.523-1.271-1.27-1.309-43.359-.044-47.447l.919-2.968.603 1.768c.509 1.495.603 5.379.608 25.124m37.401.73l.005 22.486-.847.453c-2.124 1.137-2.127 1.104-2.292-22.538-.151-21.614-.148-21.708.755-24.692l.907-2.995.733 2.4c.673 2.204.734 4.233.739 24.886m36.49-24.768c1.197 3.152 1.09 46.855-.116 47.609-1.977 1.234-1.969 1.328-1.969-22.909 0-15.269.147-23.215.457-24.761.516-2.57.63-2.566 1.628.061" fill="#fcece4"/></g></svg>