<svg id="svg" version="1.1" xmlns="http://www.w3.org/2000/svg" xmlns:xlink="http://www.w3.org/1999/xlink" width="400" height="400" viewBox="0, 0, 400,400"><g id="svgg"><path id="path0" d="M138.400 1.740 L 138.400 3.481 130.990 3.700 C 122.872 3.940,122.400 4.079,122.400 6.222 C 122.400 7.197,122.188 7.613,121.596 7.801 C 121.154 7.942,120.224 8.764,119.529 9.628 L 118.266 11.200 113.633 11.200 C 104.215 11.200,100.800 12.777,100.800 17.128 L 100.800 18.282 97.204 18.515 C 92.881 18.795,92.800 18.837,92.800 20.797 C 92.800 21.997,92.619 22.404,91.996 22.601 C 91.554 22.742,90.641 23.542,89.968 24.380 L 88.744 25.903 83.922 26.075 C 78.157 26.281,78.000 26.396,78.000 30.424 L 78.000 33.095 76.500 33.343 C 75.675 33.480,74.151 33.593,73.114 33.596 C 70.747 33.601,70.400 34.160,70.400 37.974 L 70.400 40.800 66.963 40.800 C 63.828 40.800,63.506 40.873,63.310 41.624 C 63.183 42.107,62.451 42.706,61.545 43.068 C 59.834 43.753,58.132 45.534,57.756 47.034 C 57.610 47.613,57.124 48.104,56.556 48.247 C 56.030 48.379,55.600 48.737,55.600 49.043 C 55.600 49.350,55.246 49.600,54.814 49.600 C 52.430 49.600,49.600 52.414,49.600 54.784 C 49.600 55.234,49.337 55.600,49.014 55.600 C 48.614 55.600,48.345 56.223,48.168 57.557 C 47.966 59.076,47.689 59.631,46.929 60.038 C 46.390 60.326,45.660 61.052,45.307 61.650 C 44.825 62.465,44.204 62.822,42.832 63.072 L 41.000 63.406 40.884 66.903 L 40.769 70.400 37.958 70.400 C 34.161 70.400,33.601 70.748,33.596 73.114 C 33.593 74.151,33.480 75.675,33.343 76.500 L 33.095 78.000 30.424 78.000 C 26.396 78.000,26.281 78.157,26.075 83.922 L 25.903 88.744 24.380 89.968 C 23.542 90.641,22.742 91.554,22.601 91.996 C 22.404 92.619,21.997 92.800,20.797 92.800 C 18.862 92.800,18.867 92.791,18.550 96.908 L 18.289 100.312 16.244 100.580 C 12.065 101.128,11.638 102.088,11.316 111.677 L 11.091 118.354 9.574 119.573 C 8.739 120.244,7.942 121.154,7.801 121.596 C 7.604 122.217,7.197 122.400,6.016 122.400 C 3.949 122.400,3.947 122.412,3.700 132.300 L 3.488 140.800 1.744 140.800 L 0.000 140.800 0.000 200.000 L 0.000 259.200 1.744 259.200 L 3.488 259.200 3.700 267.700 C 3.947 277.588,3.949 277.600,6.016 277.600 C 7.197 277.600,7.604 277.783,7.801 278.404 C 7.942 278.846,8.739 279.756,9.574 280.427 L 11.091 281.646 11.316 288.323 C 11.638 297.912,12.065 298.872,16.244 299.420 L 18.289 299.688 18.550 303.092 C 18.867 307.209,18.862 307.200,20.797 307.200 C 21.997 307.200,22.404 307.381,22.601 308.004 C 22.742 308.446,23.542 309.359,24.380 310.032 L 25.903 311.256 26.075 316.078 C 26.281 321.843,26.396 322.000,30.424 322.000 L 33.095 322.000 33.343 323.500 C 33.480 324.325,33.593 325.849,33.596 326.886 C 33.601 329.252,34.161 329.600,37.958 329.600 L 40.769 329.600 40.884 333.097 L 41.000 336.594 42.851 336.931 C 44.213 337.179,44.842 337.530,45.232 338.260 C 45.524 338.805,46.246 339.536,46.838 339.886 C 47.689 340.388,47.967 340.926,48.170 342.461 C 48.345 343.781,48.615 344.400,49.014 344.400 C 49.336 344.400,49.600 344.754,49.600 345.186 C 49.600 347.570,52.414 350.400,54.784 350.400 C 55.233 350.400,55.600 350.650,55.600 350.957 C 55.600 351.263,56.030 351.621,56.556 351.753 C 57.124 351.896,57.610 352.387,57.756 352.966 C 58.132 354.466,59.834 356.247,61.545 356.932 C 62.451 357.294,63.183 357.893,63.310 358.376 C 63.506 359.127,63.828 359.200,66.963 359.200 L 70.400 359.200 70.400 362.026 C 70.400 365.840,70.747 366.399,73.114 366.404 C 74.151 366.407,75.675 366.520,76.500 366.657 L 78.000 366.905 78.000 369.576 C 78.000 373.469,78.244 373.676,83.107 373.910 C 87.031 374.099,87.146 374.131,87.396 375.128 C 87.835 376.876,89.123 378.289,90.977 379.056 C 91.956 379.461,92.832 380.081,92.925 380.434 C 93.104 381.118,95.470 381.600,98.648 381.600 C 100.221 381.600,100.406 381.704,100.611 382.700 C 101.274 385.934,101.675 386.818,102.715 387.347 C 104.357 388.182,108.628 388.799,112.833 388.809 L 116.600 388.819 117.482 390.827 C 118.238 392.545,118.652 392.962,120.355 393.718 C 121.450 394.203,122.423 394.886,122.519 395.237 C 122.723 395.986,126.715 396.394,133.900 396.398 L 138.400 396.400 138.400 398.200 L 138.400 400.000 200.000 400.000 L 261.600 400.000 261.600 398.200 L 261.600 396.400 266.100 396.398 C 273.285 396.394,277.277 395.986,277.481 395.237 C 277.577 394.886,278.550 394.203,279.645 393.718 C 281.348 392.962,281.762 392.545,282.518 390.827 L 283.400 388.819 287.167 388.809 C 291.372 388.799,295.643 388.182,297.285 387.347 C 298.325 386.818,298.726 385.934,299.389 382.700 C 299.594 381.704,299.779 381.600,301.352 381.600 C 304.530 381.600,306.896 381.118,307.075 380.434 C 307.168 380.081,308.044 379.461,309.023 379.056 C 310.877 378.289,312.165 376.876,312.604 375.128 C 312.854 374.131,312.969 374.099,316.893 373.910 C 321.756 373.676,322.000 373.469,322.000 369.576 L 322.000 366.905 323.500 366.657 C 324.325 366.520,325.849 366.407,326.886 366.404 C 329.253 366.399,329.600 365.840,329.600 362.026 L 329.600 359.200 333.037 359.200 C 336.172 359.200,336.494 359.127,336.690 358.376 C 336.817 357.893,337.549 357.294,338.455 356.932 C 340.166 356.247,341.868 354.466,342.244 352.966 C 342.390 352.387,342.876 351.896,343.444 351.753 C 343.970 351.621,344.400 351.263,344.400 350.957 C 344.400 350.650,344.767 350.400,345.216 350.400 C 347.586 350.400,350.400 347.570,350.400 345.186 C 350.400 344.754,350.664 344.400,350.986 344.400 C 351.385 344.400,351.655 343.781,351.830 342.461 C 352.033 340.926,352.311 340.388,353.162 339.886 C 353.754 339.536,354.476 338.805,354.768 338.260 C 355.158 337.530,355.787 337.179,357.149 336.931 L 359.000 336.594 359.116 333.097 L 359.231 329.600 362.042 329.600 C 365.682 329.600,366.400 329.212,366.400 327.242 C 366.400 326.400,366.514 324.877,366.654 323.856 L 366.909 322.000 369.578 322.000 C 373.604 322.000,373.719 321.843,373.925 316.078 L 374.097 311.256 375.620 310.032 C 376.458 309.359,377.258 308.446,377.399 308.004 C 377.596 307.381,378.003 307.200,379.203 307.200 C 381.138 307.200,381.133 307.209,381.450 303.092 L 381.711 299.688 383.756 299.420 C 387.935 298.872,388.362 297.912,388.684 288.323 L 388.909 281.646 390.426 280.427 C 391.261 279.756,392.058 278.846,392.199 278.404 C 392.396 277.783,392.803 277.600,393.984 277.600 C 396.051 277.600,396.053 277.588,396.300 267.700 L 396.512 259.200 398.256 259.200 L 400.000 259.200 400.000 200.000 L 400.000 140.800 398.256 140.800 L 396.512 140.800 396.300 132.300 C 396.053 122.412,396.051 122.400,393.984 122.400 C 392.803 122.400,392.396 122.217,392.199 121.596 C 392.058 121.154,391.261 120.244,390.426 119.573 L 388.909 118.354 388.684 111.677 C 388.362 102.088,387.935 101.128,383.756 100.580 L 381.711 100.312 381.450 96.908 C 381.133 92.791,381.138 92.800,379.203 92.800 C 378.003 92.800,377.596 92.619,377.399 91.996 C 377.258 91.554,376.458 90.641,375.620 89.968 L 374.097 88.744 373.925 83.922 C 373.719 78.157,373.604 78.000,369.576 78.000 L 366.905 78.000 366.657 76.500 C 366.520 75.675,366.407 74.151,366.404 73.114 C 366.399 70.748,365.839 70.400,362.042 70.400 L 359.231 70.400 359.116 66.903 L 359.000 63.406 357.149 63.069 C 355.787 62.821,355.158 62.470,354.768 61.740 C 354.476 61.195,353.754 60.464,353.162 60.114 C 352.311 59.612,352.033 59.074,351.830 57.539 C 351.655 56.219,351.385 55.600,350.986 55.600 C 350.663 55.600,350.400 55.234,350.400 54.784 C 350.400 52.414,347.570 49.600,345.186 49.600 C 344.754 49.600,344.400 49.350,344.400 49.043 C 344.400 48.737,343.970 48.379,343.444 48.247 C 342.876 48.104,342.390 47.613,342.244 47.034 C 341.868 45.534,340.166 43.753,338.455 43.068 C 337.549 42.706,336.817 42.107,336.690 41.624 C 336.494 40.873,336.172 40.800,333.037 40.800 L 329.600 40.800 329.600 37.974 C 329.600 34.160,329.253 33.601,326.886 33.596 C 325.849 33.593,324.325 33.480,323.500 33.343 L 322.000 33.095 322.000 30.424 C 322.000 26.396,321.843 26.281,316.078 26.075 L 311.256 25.903 310.032 24.380 C 309.359 23.542,308.446 22.742,308.004 22.601 C 307.381 22.404,307.200 21.997,307.200 20.797 C 307.200 18.837,307.119 18.795,302.796 18.515 L 299.200 18.282 299.200 17.128 C 299.200 12.777,295.785 11.200,286.367 11.200 L 281.734 11.200 280.471 9.628 C 279.776 8.764,278.846 7.942,278.404 7.801 C 277.812 7.613,277.600 7.197,277.600 6.222 C 277.600 4.079,277.128 3.940,269.010 3.700 L 261.600 3.481 261.600 1.740 L 261.600 0.000 200.000 0.000 L 138.400 0.000 138.400 1.740 M185.600 94.760 C 188.149 96.067,188.614 97.456,188.499 103.400 C 188.300 113.605,186.893 119.132,183.618 122.566 C 181.143 125.162,180.948 125.690,179.610 133.400 C 179.041 136.681,177.327 139.984,175.600 141.126 C 173.737 142.358,173.375 143.166,172.830 147.309 C 172.576 149.239,172.274 151.063,172.160 151.361 C 172.045 151.660,172.437 152.285,173.030 152.752 C 174.106 153.599,174.152 153.600,203.784 153.600 L 233.461 153.600 234.336 152.669 C 235.806 151.103,234.343 142.408,232.443 141.419 C 229.798 140.042,228.310 137.116,227.410 131.522 C 226.580 126.365,226.214 125.470,223.983 123.143 C 221.368 120.416,220.820 119.076,219.752 112.805 C 217.860 101.689,218.510 96.129,221.870 94.696 C 228.743 91.763,237.178 95.977,238.743 103.126 C 238.969 104.157,239.449 106.406,239.809 108.125 C 240.400 110.938,240.663 111.457,242.445 113.325 C 245.133 116.142,245.823 117.760,246.826 123.600 C 247.298 126.350,247.749 128.960,247.828 129.400 C 247.911 129.864,248.732 130.601,249.783 131.154 C 252.172 132.413,253.402 134.909,254.039 139.800 C 254.806 145.688,255.012 146.232,256.977 147.584 C 258.002 148.290,259.034 149.445,259.465 150.368 C 261.002 153.667,260.526 153.600,282.270 153.600 C 305.629 153.600,307.473 153.917,310.772 158.502 C 313.209 161.891,313.364 162.499,313.524 169.348 C 313.860 183.739,312.094 193.445,308.482 197.057 C 307.106 198.432,306.649 200.992,305.992 211.000 C 305.252 222.273,304.227 226.487,301.535 229.317 C 299.609 231.341,299.384 232.323,298.805 241.200 C 297.902 255.057,297.030 258.991,294.246 261.775 C 292.390 263.631,292.298 263.997,291.163 274.000 C 290.419 280.553,289.064 282.362,284.113 283.411 C 280.619 284.152,127.772 284.298,123.773 283.565 C 118.645 282.625,117.008 280.671,116.352 274.710 C 115.232 264.546,115.025 263.724,113.061 261.624 C 110.307 258.680,109.535 255.444,108.808 243.800 C 108.111 232.643,107.866 231.378,106.012 229.367 C 103.196 226.311,102.261 222.802,101.580 212.723 C 100.825 201.559,100.313 198.662,98.786 196.923 C 95.864 193.595,94.730 189.075,93.955 177.671 C 93.164 166.022,93.699 162.224,96.641 158.613 C 100.549 153.816,101.788 153.600,125.440 153.600 C 146.656 153.600,146.139 153.664,147.579 150.842 C 148.338 149.353,150.489 147.200,151.217 147.200 C 151.915 147.200,152.505 145.413,153.018 141.744 C 153.999 134.716,155.103 132.278,157.962 130.820 L 159.448 130.061 160.359 124.531 C 161.446 117.937,162.027 116.491,164.746 113.608 C 166.954 111.267,167.289 110.462,168.218 105.274 C 169.846 96.178,178.345 91.037,185.600 94.760 M151.005 165.449 C 149.865 168.178,150.415 174.600,151.789 174.600 C 152.330 174.600,152.654 174.231,152.842 173.400 C 152.991 172.740,153.422 170.879,153.799 169.265 L 154.483 166.331 153.367 165.165 C 151.938 163.674,151.737 163.698,151.005 165.449 M253.838 165.315 C 252.882 166.568,252.861 166.707,253.396 168.259 C 253.705 169.155,254.080 170.810,254.229 171.937 C 254.872 176.785,256.800 175.644,256.800 170.417 C 256.800 164.303,255.853 162.673,253.838 165.315 M165.664 201.232 C 164.399 205.320,164.437 247.409,165.708 248.679 C 166.256 249.228,166.570 249.288,167.108 248.949 C 168.094 248.327,168.167 202.911,167.186 200.032 L 166.583 198.264 165.664 201.232 M202.816 201.595 C 201.913 204.579,201.910 204.673,202.061 226.287 C 202.226 249.929,202.229 249.962,204.353 248.825 L 205.200 248.372 205.195 225.886 C 205.190 205.233,205.129 203.204,204.456 201.000 L 203.723 198.600 202.816 201.595 M240.057 201.057 C 239.747 202.603,239.600 210.549,239.600 225.818 C 239.600 250.055,239.592 249.961,241.569 248.727 C 242.775 247.973,242.882 204.270,241.685 201.118 C 240.687 198.491,240.573 198.487,240.057 201.057 " stroke="none" fill="#fcfcfc" fill-rule="evenodd"></path><path id="path1" d="M180.523 99.399 C 180.066 99.719,179.569 100.481,179.418 101.091 C 178.929 103.080,177.239 105.511,175.704 106.435 C 174.877 106.932,174.134 107.388,174.054 107.449 C 173.974 107.509,173.219 110.362,172.378 113.789 C 170.761 120.373,169.089 124.103,167.412 124.867 C 166.441 125.310,165.367 128.376,164.197 134.046 C 163.408 137.874,162.163 140.371,160.531 141.400 C 158.906 142.425,158.590 143.140,157.585 148.074 L 156.756 152.141 157.984 153.369 C 159.691 155.076,160.898 154.386,162.800 150.617 C 163.824 148.589,164.545 147.676,165.484 147.221 C 167.033 146.472,167.345 145.758,168.378 140.600 C 169.751 133.745,170.194 132.646,172.357 130.724 C 174.238 129.052,174.328 128.868,175.360 124.600 C 176.961 117.981,177.199 117.180,178.245 114.879 C 178.842 113.564,179.656 112.501,180.386 112.082 C 182.343 110.959,183.245 107.954,182.935 103.588 C 182.643 99.474,182.003 98.362,180.523 99.399 M225.062 99.531 C 223.232 101.554,224.537 110.074,226.987 112.093 C 228.641 113.457,230.248 116.832,231.036 120.600 C 232.412 127.175,233.241 129.343,234.800 130.453 C 236.756 131.846,237.771 134.165,238.815 139.636 C 239.948 145.563,240.176 146.122,241.928 147.251 C 242.922 147.892,243.814 149.024,244.675 150.737 C 246.633 154.635,248.027 155.314,249.696 153.181 L 250.649 151.963 249.771 147.881 C 248.657 142.704,248.639 142.665,246.805 141.451 C 244.986 140.247,243.924 137.788,242.770 132.111 C 241.857 127.619,241.115 125.763,239.827 124.750 C 238.341 123.581,236.433 119.948,235.822 117.123 C 233.946 108.451,233.500 107.190,232.066 106.509 C 230.488 105.761,228.575 103.296,228.025 101.304 C 227.419 99.113,226.136 98.345,225.062 99.531 M165.692 163.263 C 165.241 163.998,164.501 165.742,164.046 167.138 C 163.017 170.295,161.859 172.201,160.471 173.024 C 159.882 173.373,158.950 174.590,158.400 175.729 C 155.864 180.981,149.359 181.317,144.358 176.454 L 142.005 174.166 142.781 171.365 C 143.208 169.825,143.743 168.076,143.970 167.479 C 144.445 166.229,142.672 164.625,139.470 163.409 C 133.710 161.222,101.059 163.251,99.296 165.906 C 98.448 167.183,99.281 175.007,100.414 176.400 C 103.272 179.917,104.469 184.486,105.393 195.408 C 106.169 204.585,106.911 208.130,108.419 209.867 C 110.628 212.414,111.996 218.113,112.819 228.200 C 113.492 236.449,114.548 241.950,115.583 242.589 C 117.509 243.780,119.270 250.740,120.191 260.800 C 121.185 271.661,121.354 272.335,123.390 273.594 C 124.103 274.034,125.108 275.190,125.623 276.162 C 127.386 279.484,120.092 279.200,203.653 279.200 C 286.858 279.200,280.045 279.448,281.617 276.366 C 282.045 275.528,283.111 274.267,283.985 273.564 C 285.923 272.006,286.214 271.116,286.784 265.000 C 288.073 251.172,289.011 246.750,291.412 243.182 C 292.982 240.849,294.119 235.569,294.594 228.400 C 295.214 219.049,296.536 213.412,298.958 209.800 C 300.729 207.159,301.036 205.697,301.993 195.376 C 303.049 183.984,303.906 180.583,306.636 176.939 C 307.541 175.731,308.063 173.356,308.518 168.373 C 308.697 166.412,307.855 164.800,306.651 164.800 C 306.310 164.800,304.629 164.352,302.915 163.805 C 299.826 162.819,299.673 162.810,284.771 162.805 C 268.136 162.799,267.369 162.896,264.648 165.325 L 263.219 166.600 264.209 169.945 C 265.493 174.279,265.564 173.931,262.867 176.504 C 257.728 181.406,251.212 180.902,248.757 175.413 C 248.360 174.526,247.398 173.298,246.620 172.685 C 244.984 171.396,244.269 170.146,243.190 166.687 C 242.763 165.319,242.000 163.688,241.494 163.062 L 240.575 161.925 235.988 162.392 C 231.075 162.893,171.333 162.722,168.155 162.198 C 166.602 161.942,166.465 162.001,165.692 163.263 M169.508 191.880 C 173.793 193.907,174.548 198.428,174.568 222.200 C 174.592 249.228,174.184 251.687,169.266 254.179 C 166.074 255.797,159.302 253.179,156.562 249.268 C 154.946 246.960,154.474 206.035,156.007 201.073 C 158.310 193.617,164.404 189.467,169.508 191.880 M205.644 191.416 C 207.841 192.191,209.315 193.590,210.184 195.729 C 210.558 196.648,211.152 197.940,211.505 198.600 C 211.857 199.260,212.574 200.610,213.098 201.600 L 214.051 203.400 213.873 224.800 C 213.775 236.570,213.568 246.666,213.413 247.236 C 212.839 249.348,208.026 253.857,205.522 254.629 L 203.245 255.332 200.623 254.041 C 199.181 253.332,197.807 252.386,197.568 251.940 C 197.329 251.494,196.507 250.435,195.740 249.586 C 193.734 247.366,193.617 245.906,193.608 222.985 C 193.599 201.216,193.423 203.226,195.717 199.000 C 196.076 198.340,196.809 196.780,197.347 195.534 C 198.360 193.186,199.351 192.280,201.904 191.369 C 203.797 190.694,203.591 190.691,205.644 191.416 M244.773 192.129 C 245.769 192.629,247.127 193.805,247.870 194.810 C 252.246 200.731,252.005 199.036,251.971 223.690 C 251.936 248.827,251.979 248.384,249.361 250.714 C 241.298 257.891,234.458 255.539,233.328 245.200 C 232.540 237.996,232.961 203.294,233.887 199.123 C 235.577 191.507,239.069 189.263,244.773 192.129 " stroke="none" fill="#f5ae90" fill-rule="evenodd"></path><path id="path2" d="M179.618 97.727 C 178.669 98.207,177.428 99.230,176.860 100.000 C 176.293 100.770,175.138 102.170,174.295 103.112 C 172.476 105.143,171.665 106.960,170.418 111.800 C 169.378 115.839,168.490 117.804,166.566 120.326 C 165.327 121.949,164.388 124.383,162.450 131.000 C 161.992 132.564,160.738 135.210,159.609 136.994 C 157.719 139.979,156.000 143.767,156.000 144.945 C 156.000 145.228,155.550 146.783,155.000 148.400 C 153.219 153.635,154.693 156.570,159.800 157.963 C 162.415 158.677,162.612 158.908,162.101 160.669 C 161.856 161.511,161.533 163.280,161.382 164.600 C 161.164 166.504,160.796 167.418,159.601 169.021 C 158.772 170.132,157.634 171.948,157.073 173.057 C 154.943 177.259,152.495 178.537,149.595 176.959 C 146.513 175.281,146.600 175.565,146.600 167.159 C 146.600 161.532,146.470 159.515,146.080 159.123 C 145.670 158.710,141.555 158.577,126.543 158.489 L 107.525 158.377 105.663 159.514 C 104.638 160.138,102.990 160.967,102.000 161.356 C 99.965 162.154,98.215 163.651,97.325 165.356 C 95.987 167.919,97.523 178.160,100.224 184.685 C 101.851 188.616,102.854 193.075,103.802 200.600 C 104.891 209.239,105.568 212.076,108.369 219.714 C 109.503 222.809,110.273 226.590,111.238 233.799 C 112.314 241.849,113.325 246.324,115.182 251.267 C 116.930 255.921,117.669 259.181,118.597 266.343 C 119.706 274.902,121.826 278.396,127.102 280.359 L 129.400 281.214 204.200 281.107 L 279.000 281.000 281.673 279.734 C 286.212 277.583,287.803 274.390,289.013 265.000 C 289.713 259.574,291.199 253.135,292.199 251.203 C 293.461 248.761,294.857 242.719,296.023 234.652 C 297.510 224.365,297.975 222.270,299.827 217.532 C 301.597 213.001,302.507 208.929,303.610 200.600 C 304.743 192.052,305.281 189.647,307.176 184.663 C 310.162 176.810,311.404 167.858,309.876 165.200 C 308.803 163.334,307.579 162.000,306.940 162.000 C 306.654 162.000,304.871 161.190,302.978 160.200 L 299.537 158.400 281.013 158.400 C 258.590 158.400,260.795 157.702,260.768 164.808 C 260.757 167.562,260.874 170.767,261.028 171.929 C 261.289 173.895,261.228 174.127,260.154 175.258 C 256.468 179.139,253.033 178.416,250.402 173.204 C 249.735 171.884,248.473 169.857,247.597 168.702 C 246.351 167.059,246.003 166.248,246.002 164.987 C 246.001 164.100,245.756 162.435,245.459 161.287 C 244.838 158.896,244.956 158.704,247.440 158.040 C 250.690 157.171,254.100 153.481,253.382 151.610 C 253.256 151.281,252.524 148.869,251.756 146.250 C 250.319 141.350,249.348 139.088,247.788 137.000 C 246.247 134.938,245.345 132.761,243.985 127.831 C 242.975 124.167,242.276 122.486,240.969 120.576 C 238.528 117.010,238.184 116.236,236.873 111.340 C 235.568 106.473,235.007 105.203,233.335 103.330 C 232.711 102.631,231.515 101.234,230.677 100.226 C 229.840 99.218,228.435 98.026,227.555 97.577 L 225.957 96.762 224.573 97.617 C 222.609 98.830,222.400 99.448,222.400 104.031 C 222.400 109.875,223.254 112.512,226.911 117.963 C 227.955 119.518,228.774 121.792,230.773 128.674 C 231.271 130.390,232.181 132.299,233.030 133.412 C 235.124 136.155,235.853 137.757,237.032 142.200 C 237.969 145.734,239.484 149.308,240.862 151.238 C 242.055 152.909,239.525 156.321,236.161 157.580 C 232.994 158.765,174.719 158.875,171.433 157.702 C 167.191 156.188,165.323 152.928,167.206 150.328 C 167.874 149.406,168.884 147.110,169.450 145.226 C 171.669 137.843,172.131 136.709,174.172 133.642 C 175.926 131.007,176.466 129.741,177.358 126.184 C 178.692 120.858,179.040 120.026,181.326 116.687 C 187.418 107.788,186.211 94.391,179.618 97.727 M182.935 103.588 C 183.245 107.954,182.343 110.959,180.386 112.082 C 179.656 112.501,178.842 113.564,178.245 114.879 C 177.199 117.180,176.961 117.981,175.360 124.600 C 174.328 128.868,174.238 129.052,172.357 130.724 C 170.194 132.646,169.751 133.745,168.378 140.600 C 167.345 145.758,167.033 146.472,165.484 147.221 C 164.545 147.676,163.824 148.589,162.800 150.617 C 160.898 154.386,159.691 155.076,157.984 153.369 L 156.756 152.141 157.585 148.074 C 158.590 143.140,158.906 142.425,160.531 141.400 C 162.163 140.371,163.408 137.874,164.197 134.046 C 165.367 128.376,166.441 125.310,167.412 124.867 C 169.089 124.103,170.761 120.373,172.378 113.789 C 173.219 110.362,173.974 107.509,174.054 107.449 C 174.134 107.388,174.877 106.932,175.704 106.435 C 177.239 105.511,178.929 103.080,179.418 101.091 C 180.386 97.161,182.590 98.726,182.935 103.588 M226.921 99.372 C 227.318 99.673,227.814 100.542,228.025 101.304 C 228.575 103.296,230.488 105.761,232.066 106.509 C 233.500 107.190,233.946 108.451,235.822 117.123 C 236.433 119.948,238.341 123.581,239.827 124.750 C 241.115 125.763,241.857 127.619,242.770 132.111 C 243.924 137.788,244.986 140.247,246.805 141.451 C 248.639 142.665,248.657 142.704,249.771 147.881 L 250.649 151.963 249.696 153.181 C 248.027 155.314,246.633 154.635,244.675 150.737 C 243.814 149.024,242.922 147.892,241.928 147.251 C 240.176 146.122,239.948 145.563,238.815 139.636 C 237.771 134.165,236.756 131.846,234.800 130.453 C 233.241 129.343,232.412 127.175,231.036 120.600 C 230.248 116.832,228.641 113.457,226.987 112.093 C 225.116 110.551,224.400 108.278,224.400 103.881 C 224.400 99.424,225.171 98.045,226.921 99.372 M200.600 162.665 C 222.528 162.804,232.721 162.725,235.988 162.392 L 240.575 161.925 241.494 163.062 C 242.000 163.688,242.763 165.319,243.190 166.687 C 244.269 170.146,244.984 171.396,246.620 172.685 C 247.398 173.298,248.360 174.526,248.757 175.413 C 251.212 180.902,257.728 181.406,262.867 176.504 C 265.564 173.931,265.493 174.279,264.209 169.945 L 263.219 166.600 264.648 165.325 C 267.369 162.896,268.136 162.799,284.771 162.805 C 299.673 162.810,299.826 162.819,302.915 163.805 C 304.629 164.352,306.310 164.800,306.651 164.800 C 307.855 164.800,308.697 166.412,308.518 168.373 C 308.063 173.356,307.541 175.731,306.636 176.939 C 303.906 180.583,303.049 183.984,301.993 195.376 C 301.036 205.697,300.729 207.159,298.958 209.800 C 296.536 213.412,295.214 219.049,294.594 228.400 C 294.119 235.569,292.982 240.849,291.412 243.182 C 289.011 246.750,288.073 251.172,286.784 265.000 C 286.214 271.116,285.923 272.006,283.985 273.564 C 283.111 274.267,282.045 275.528,281.617 276.366 C 280.045 279.448,286.858 279.200,203.653 279.200 C 120.092 279.200,127.386 279.484,125.623 276.162 C 125.108 275.190,124.103 274.034,123.390 273.594 C 121.354 272.335,121.185 271.661,120.191 260.800 C 119.270 250.740,117.509 243.780,115.583 242.589 C 114.548 241.950,113.492 236.449,112.819 228.200 C 111.996 218.113,110.628 212.414,108.419 209.867 C 106.911 208.130,106.169 204.585,105.393 195.408 C 104.469 184.486,103.272 179.917,100.414 176.400 C 99.281 175.007,98.448 167.183,99.296 165.906 C 101.059 163.251,133.710 161.222,139.470 163.409 C 142.672 164.625,144.445 166.229,143.970 167.479 C 143.743 168.076,143.208 169.825,142.781 171.365 L 142.005 174.166 144.358 176.454 C 149.359 181.317,155.864 180.981,158.400 175.729 C 158.950 174.590,159.882 173.373,160.471 173.024 C 161.859 172.201,163.017 170.295,164.046 167.138 C 165.474 162.757,166.206 161.876,168.155 162.198 C 169.060 162.347,183.660 162.557,200.600 162.665 M164.099 191.543 C 160.688 192.736,157.377 196.635,156.007 201.073 C 154.474 206.035,154.946 246.960,156.562 249.268 C 161.034 255.651,169.943 256.398,172.884 250.635 C 174.944 246.599,175.467 207.315,173.569 199.192 C 171.934 192.196,169.003 189.828,164.099 191.543 M201.904 191.369 C 199.351 192.280,198.360 193.186,197.347 195.534 C 196.809 196.780,196.076 198.340,195.717 199.000 C 193.423 203.226,193.599 201.216,193.608 222.985 C 193.617 245.906,193.734 247.366,195.740 249.586 C 196.507 250.435,197.329 251.494,197.568 251.940 C 197.807 252.386,199.181 253.332,200.623 254.041 L 203.245 255.332 205.522 254.629 C 208.026 253.857,212.839 249.348,213.413 247.236 C 213.568 246.666,213.775 236.570,213.873 224.800 L 214.051 203.400 213.098 201.600 C 212.574 200.610,211.857 199.260,211.505 198.600 C 211.152 197.940,210.558 196.648,210.184 195.729 C 208.719 192.125,205.110 190.225,201.904 191.369 M238.803 191.424 C 233.562 193.747,233.031 196.606,233.013 222.600 C 232.996 247.492,233.248 249.939,236.106 252.709 C 239.556 256.053,244.138 255.363,249.361 250.714 C 251.979 248.384,251.936 248.827,251.971 223.690 C 252.002 201.246,251.930 200.371,249.808 197.448 C 247.102 193.720,246.343 192.918,244.773 192.129 C 242.319 190.896,240.483 190.679,238.803 191.424 M168.713 194.700 C 171.779 197.674,172.132 201.169,171.932 226.572 L 171.763 247.913 170.781 249.363 C 170.242 250.160,169.107 251.297,168.260 251.888 L 166.720 252.964 164.616 251.862 C 159.354 249.107,159.263 248.612,159.226 222.586 L 159.200 203.772 160.648 200.186 C 162.173 196.406,163.038 195.167,165.000 193.948 C 166.648 192.925,166.944 192.985,168.713 194.700 M204.720 193.762 C 206.691 194.788,207.577 196.193,208.791 200.222 L 209.991 204.200 209.989 221.600 C 209.987 244.434,209.703 248.051,207.756 250.045 C 204.433 253.448,201.965 253.245,198.963 249.320 L 197.800 247.800 197.666 225.773 L 197.531 203.746 198.792 199.688 C 200.386 194.559,202.393 192.551,204.720 193.762 M243.027 194.500 C 244.780 195.688,245.094 196.162,246.670 200.000 L 248.395 204.200 248.397 221.830 C 248.401 247.413,248.019 249.377,242.511 252.043 C 240.457 253.037,239.205 252.538,237.042 249.863 L 235.800 248.327 235.662 226.463 C 235.496 200.148,235.711 197.852,238.620 194.900 C 240.629 192.861,240.612 192.863,243.027 194.500 " stroke="none" fill="#fcccbc" fill-rule="evenodd"></path><path id="path3" d="M178.718 97.017 C 177.684 97.556,176.334 98.637,175.718 99.420 C 175.103 100.202,174.089 101.418,173.465 102.121 C 171.787 104.011,171.037 105.695,169.602 110.800 C 168.138 116.005,168.048 116.208,166.101 118.750 C 164.342 121.045,163.833 122.245,162.544 127.127 C 161.428 131.357,160.150 134.230,158.533 136.153 C 157.182 137.758,156.200 140.082,155.172 144.111 C 154.716 145.895,153.902 148.442,153.362 149.770 C 151.616 154.068,153.175 157.861,157.123 158.917 C 159.216 159.477,159.472 159.976,159.651 163.851 C 159.773 166.504,159.709 166.747,158.481 168.298 C 157.766 169.201,156.795 170.898,156.323 172.070 C 154.539 176.497,152.546 177.701,149.840 175.984 C 148.815 175.334,147.864 174.512,147.728 174.157 C 147.286 173.004,148.281 162.701,149.010 160.886 C 150.555 157.039,149.214 156.800,126.048 156.800 L 107.736 156.800 105.768 157.854 C 104.686 158.434,102.812 159.433,101.605 160.074 C 98.871 161.525,97.747 162.561,96.707 164.590 C 95.113 167.700,96.411 179.525,99.024 185.692 C 100.634 189.490,101.837 194.160,102.566 199.439 C 104.367 212.468,104.952 215.208,107.046 220.392 C 108.650 224.364,109.629 228.913,110.794 237.800 C 111.841 245.781,112.359 248.033,114.363 253.302 C 116.211 258.163,116.969 261.194,117.591 266.208 C 118.770 275.720,120.144 278.403,125.001 280.677 L 127.400 281.800 202.938 281.904 C 285.301 282.018,280.227 282.149,284.246 279.794 C 287.273 278.020,288.675 274.636,289.794 266.400 C 290.591 260.533,291.368 257.413,293.052 253.320 C 294.953 248.703,295.624 245.593,297.009 235.000 C 297.938 227.888,298.692 224.624,300.381 220.400 C 302.287 215.635,302.857 213.091,304.383 202.532 C 305.605 194.082,306.609 189.937,308.531 185.400 C 309.878 182.219,311.076 176.028,311.394 170.600 L 311.652 166.200 310.326 164.007 C 309.028 161.861,307.165 160.534,301.200 157.507 C 299.856 156.825,264.460 156.565,261.333 157.214 C 258.772 157.745,257.211 158.847,257.874 159.654 C 258.879 160.879,260.361 172.595,259.721 174.261 C 259.318 175.311,255.689 177.276,254.923 176.859 C 253.583 176.130,251.698 173.811,251.216 172.298 C 250.952 171.472,250.016 169.852,249.135 168.698 L 247.534 166.600 247.775 163.511 C 248.090 159.486,248.180 159.308,250.045 158.992 C 254.444 158.249,255.718 154.489,253.630 148.408 C 252.987 146.533,252.004 143.467,251.447 141.594 C 250.755 139.272,249.909 137.491,248.787 135.994 C 246.708 133.223,246.192 132.026,244.754 126.626 C 243.620 122.367,242.827 120.695,240.377 117.398 C 239.574 116.318,238.783 114.298,237.948 111.198 C 236.215 104.757,235.718 103.887,230.718 98.519 C 227.963 95.562,224.854 95.466,222.398 98.263 C 219.747 101.282,221.839 115.045,225.398 117.998 C 226.541 118.947,227.650 121.590,229.056 126.719 C 230.594 132.330,230.727 132.639,232.806 135.400 C 234.344 137.443,235.899 141.268,236.789 145.200 C 237.062 146.410,237.804 148.457,238.436 149.749 L 239.585 152.098 238.731 153.296 C 238.262 153.956,237.060 155.014,236.061 155.648 L 234.243 156.800 203.906 156.800 C 169.832 156.800,172.056 156.992,169.262 153.810 C 167.779 152.120,167.768 152.043,168.772 150.323 C 169.197 149.595,170.011 147.333,170.580 145.295 C 172.121 139.779,173.151 137.270,174.712 135.233 C 176.475 132.932,176.902 131.911,178.401 126.398 C 179.680 121.692,180.357 120.188,182.598 117.066 C 184.894 113.869,186.000 109.624,186.000 104.013 L 186.000 99.268 184.144 97.634 C 182.004 95.751,181.304 95.671,178.718 97.017 M184.365 99.046 C 186.570 101.849,184.918 111.441,181.326 116.687 C 179.040 120.026,178.692 120.858,177.358 126.184 C 176.466 129.741,175.926 131.007,174.172 133.642 C 172.131 136.709,171.669 137.843,169.450 145.226 C 168.884 147.110,167.874 149.406,167.206 150.328 C 165.323 152.928,167.191 156.188,171.433 157.702 C 174.719 158.875,232.994 158.765,236.161 157.580 C 239.525 156.321,242.055 152.909,240.862 151.238 C 239.484 149.308,237.969 145.734,237.032 142.200 C 235.853 137.757,235.124 136.155,233.030 133.412 C 232.181 132.299,231.271 130.390,230.773 128.674 C 228.774 121.792,227.955 119.518,226.911 117.963 C 223.254 112.512,222.400 109.875,222.400 104.031 C 222.400 99.448,222.609 98.830,224.573 97.617 L 225.957 96.762 227.555 97.577 C 228.435 98.026,229.840 99.218,230.677 100.226 C 231.515 101.234,232.711 102.631,233.335 103.330 C 235.007 105.203,235.568 106.473,236.873 111.340 C 238.184 116.236,238.528 117.010,240.969 120.576 C 242.276 122.486,242.975 124.167,243.985 127.831 C 245.345 132.761,246.247 134.938,247.788 137.000 C 249.348 139.088,250.319 141.350,251.756 146.250 C 252.524 148.869,253.256 151.281,253.382 151.610 C 254.100 153.481,250.690 157.171,247.440 158.040 C 244.956 158.704,244.838 158.896,245.459 161.287 C 245.756 162.435,246.001 164.100,246.002 164.987 C 246.003 166.248,246.351 167.059,247.597 168.702 C 248.473 169.857,249.735 171.884,250.402 173.204 C 253.033 178.416,256.468 179.139,260.154 175.258 C 261.228 174.127,261.289 173.895,261.028 171.929 C 260.874 170.767,260.757 167.562,260.768 164.808 C 260.795 157.702,258.590 158.400,281.013 158.400 L 299.537 158.400 302.978 160.200 C 304.871 161.190,306.654 162.000,306.940 162.000 C 307.579 162.000,308.803 163.334,309.876 165.200 C 311.404 167.858,310.162 176.810,307.176 184.663 C 305.281 189.647,304.743 192.052,303.610 200.600 C 302.507 208.929,301.597 213.001,299.827 217.532 C 297.975 222.270,297.510 224.365,296.023 234.652 C 294.857 242.719,293.461 248.761,292.199 251.203 C 291.199 253.135,289.713 259.574,289.013 265.000 C 287.803 274.390,286.212 277.583,281.673 279.734 L 279.000 281.000 204.200 281.107 L 129.400 281.214 127.102 280.359 C 121.826 278.396,119.706 274.902,118.597 266.343 C 117.669 259.181,116.930 255.921,115.182 251.267 C 113.325 246.324,112.314 241.849,111.238 233.799 C 110.273 226.590,109.503 222.809,108.369 219.714 C 105.568 212.076,104.891 209.239,103.802 200.600 C 102.854 193.075,101.851 188.616,100.224 184.685 C 97.523 178.160,95.987 167.919,97.325 165.356 C 98.215 163.651,99.965 162.154,102.000 161.356 C 102.990 160.967,104.638 160.138,105.663 159.514 L 107.525 158.377 126.543 158.489 C 141.555 158.577,145.670 158.710,146.080 159.123 C 146.470 159.515,146.600 161.532,146.600 167.159 C 146.600 175.565,146.513 175.281,149.595 176.959 C 152.495 178.537,154.943 177.259,157.073 173.057 C 157.634 171.948,158.772 170.132,159.601 169.021 C 160.796 167.418,161.164 166.504,161.382 164.600 C 161.533 163.280,161.856 161.511,162.101 160.669 C 162.612 158.908,162.415 158.677,159.800 157.963 C 154.693 156.570,153.219 153.635,155.000 148.400 C 155.550 146.783,156.000 145.228,156.000 144.945 C 156.000 143.767,157.719 139.979,159.609 136.994 C 160.738 135.210,161.992 132.564,162.450 131.000 C 164.388 124.383,165.327 121.949,166.566 120.326 C 168.490 117.804,169.378 115.839,170.418 111.800 C 171.665 106.960,172.476 105.143,174.295 103.112 C 175.138 102.170,176.293 100.770,176.860 100.000 C 179.247 96.762,182.266 96.378,184.365 99.046 M165.000 193.948 C 163.038 195.167,162.173 196.406,160.648 200.186 L 159.200 203.772 159.226 222.586 C 159.263 248.612,159.354 249.107,164.616 251.862 L 166.720 252.964 168.260 251.888 C 169.107 251.297,170.242 250.160,170.781 249.363 L 171.763 247.913 171.932 226.572 C 172.132 201.169,171.779 197.674,168.713 194.700 C 166.944 192.985,166.648 192.925,165.000 193.948 M201.705 194.415 C 200.199 195.523,199.941 195.990,198.792 199.688 L 197.531 203.746 197.666 225.773 L 197.800 247.800 198.963 249.320 C 201.965 253.245,204.433 253.448,207.756 250.045 C 209.703 248.051,209.987 244.434,209.989 221.600 L 209.991 204.200 208.791 200.222 C 207.577 196.193,206.691 194.788,204.720 193.762 C 203.361 193.055,203.636 192.995,201.705 194.415 M238.620 194.900 C 235.711 197.852,235.496 200.148,235.662 226.463 L 235.800 248.327 237.042 249.863 C 239.205 252.538,240.457 253.037,242.511 252.043 C 248.019 249.377,248.401 247.413,248.397 221.830 L 248.395 204.200 246.670 200.000 C 245.094 196.162,244.780 195.688,243.027 194.500 C 240.612 192.863,240.629 192.861,238.620 194.900 M168.092 195.500 C 170.556 198.102,170.902 202.135,170.742 226.390 C 170.584 250.363,170.768 248.793,167.859 250.966 L 166.767 251.781 165.018 250.853 C 160.993 248.718,160.800 247.386,160.800 221.771 L 160.800 204.080 162.221 200.340 C 163.596 196.720,165.280 194.400,166.531 194.400 C 166.817 194.400,167.519 194.895,168.092 195.500 M205.227 195.314 C 205.960 195.947,206.568 197.288,207.351 200.000 L 208.448 203.800 208.324 225.800 C 208.186 250.325,208.402 248.538,205.298 250.820 L 203.707 251.991 202.096 250.824 C 198.990 248.574,199.200 250.417,199.200 225.390 L 199.200 202.959 200.180 199.579 C 201.559 194.827,203.126 193.503,205.227 195.314 M242.251 195.166 C 243.209 195.750,243.819 196.712,244.851 199.265 L 246.200 202.600 246.200 224.840 C 246.200 249.656,246.367 248.199,243.271 250.312 C 240.818 251.986,240.419 251.944,238.451 249.809 L 236.800 248.018 236.800 225.558 C 236.800 200.389,237.092 197.087,239.486 195.203 C 240.732 194.223,240.706 194.224,242.251 195.166 " stroke="none" fill="#fcd4cc" fill-rule="evenodd"></path><path id="path4" d="M224.382 95.464 C 220.535 97.082,219.868 98.722,220.367 105.341 C 220.915 112.612,223.591 120.400,225.542 120.400 C 226.091 120.400,227.086 123.091,228.427 128.200 C 229.842 133.593,230.257 134.537,232.412 137.262 C 233.966 139.229,235.097 142.125,236.181 146.916 C 236.519 148.410,237.057 150.137,237.377 150.755 C 237.937 151.839,237.905 151.929,236.479 153.292 C 233.941 155.718,235.617 155.600,203.598 155.600 L 173.944 155.600 172.187 154.391 C 169.301 152.406,169.276 153.095,172.642 142.093 C 173.349 139.784,174.098 138.272,175.127 137.083 C 177.075 134.831,177.744 133.224,179.377 126.874 C 180.622 122.033,180.898 121.383,182.409 119.744 C 186.463 115.346,188.855 102.174,186.290 98.369 C 181.369 91.066,172.416 96.958,168.763 109.904 C 167.420 114.664,167.085 115.410,165.495 117.179 C 163.655 119.225,161.988 123.320,161.416 127.200 C 161.020 129.885,159.648 133.077,158.592 133.768 C 157.273 134.632,155.352 138.809,154.433 142.809 C 153.592 146.468,152.317 149.786,151.334 150.872 C 151.000 151.242,150.428 152.142,150.063 152.872 C 148.793 155.414,149.093 155.379,126.600 155.601 C 115.380 155.712,105.840 155.963,105.400 156.160 C 102.081 157.643,97.196 161.439,96.142 163.355 C 93.756 167.688,95.396 182.900,99.023 190.076 C 100.531 193.060,101.712 198.231,102.387 204.800 C 103.404 214.696,104.417 219.359,106.381 223.186 C 108.303 226.934,108.836 229.359,110.000 239.655 C 111.012 248.610,112.014 253.030,113.749 256.194 C 115.234 258.901,116.089 262.165,116.999 268.600 C 117.955 275.364,118.668 277.489,120.647 279.468 C 124.047 282.868,116.913 282.600,204.000 282.600 L 281.000 282.600 283.239 281.694 C 287.860 279.825,289.105 277.528,290.434 268.422 C 291.428 261.605,292.069 259.153,293.590 256.345 C 295.355 253.087,296.302 248.894,297.418 239.400 C 298.523 230.004,299.310 226.527,301.136 222.967 C 302.787 219.746,303.812 215.256,304.779 207.000 C 305.907 197.364,306.651 193.829,308.254 190.477 C 311.872 182.912,313.631 168.560,311.507 163.922 C 310.583 161.904,308.354 159.600,307.324 159.600 C 307.104 159.600,306.581 159.221,306.162 158.757 C 305.743 158.293,304.500 157.438,303.400 156.857 L 301.400 155.800 280.800 155.600 C 257.527 155.374,258.747 155.548,256.774 152.169 C 254.667 148.559,253.939 146.761,252.933 142.686 C 251.776 137.996,250.865 136.023,248.833 133.800 C 247.333 132.159,246.680 130.453,245.389 124.800 C 244.509 120.949,243.485 118.790,241.628 116.877 C 240.348 115.558,239.957 114.671,238.842 110.571 C 236.944 103.587,236.843 103.369,233.948 100.084 C 230.244 95.880,227.056 94.340,224.382 95.464 M184.144 97.634 L 186.000 99.268 186.000 104.013 C 186.000 109.624,184.894 113.869,182.598 117.066 C 180.357 120.188,179.680 121.692,178.401 126.398 C 176.902 131.911,176.475 132.932,174.712 135.233 C 173.151 137.270,172.121 139.779,170.580 145.295 C 170.011 147.333,169.197 149.595,168.772 150.323 C 167.768 152.043,167.779 152.120,169.262 153.810 C 172.056 156.992,169.832 156.800,203.906 156.800 L 234.243 156.800 236.061 155.648 C 237.060 155.014,238.262 153.956,238.731 153.296 L 239.585 152.098 238.436 149.749 C 237.804 148.457,237.062 146.410,236.789 145.200 C 235.899 141.268,234.344 137.443,232.806 135.400 C 230.727 132.639,230.594 132.330,229.056 126.719 C 227.650 121.590,226.541 118.947,225.398 117.998 C 221.839 115.045,219.747 101.282,222.398 98.263 C 224.854 95.466,227.963 95.562,230.718 98.519 C 235.718 103.887,236.215 104.757,237.948 111.198 C 238.783 114.298,239.574 116.318,240.377 117.398 C 242.827 120.695,243.620 122.367,244.754 126.626 C 246.192 132.026,246.708 133.223,248.787 135.994 C 249.909 137.491,250.755 139.272,251.447 141.594 C 252.004 143.467,252.987 146.533,253.630 148.408 C 255.718 154.489,254.444 158.249,250.045 158.992 C 248.180 159.308,248.090 159.486,247.775 163.511 L 247.534 166.600 249.135 168.698 C 250.016 169.852,250.952 171.472,251.216 172.298 C 251.698 173.811,253.583 176.130,254.923 176.859 C 255.689 177.276,259.318 175.311,259.721 174.261 C 260.361 172.595,258.879 160.879,257.874 159.654 C 257.211 158.847,258.772 157.745,261.333 157.214 C 264.460 156.565,299.856 156.825,301.200 157.507 C 307.165 160.534,309.028 161.861,310.326 164.007 L 311.652 166.200 311.394 170.600 C 311.076 176.028,309.878 182.219,308.531 185.400 C 306.609 189.937,305.605 194.082,304.383 202.532 C 302.857 213.091,302.287 215.635,300.381 220.400 C 298.692 224.624,297.938 227.888,297.009 235.000 C 295.624 245.593,294.953 248.703,293.052 253.320 C 291.368 257.413,290.591 260.533,289.794 266.400 C 288.675 274.636,287.273 278.020,284.246 279.794 C 280.227 282.149,285.301 282.018,202.938 281.904 L 127.400 281.800 125.001 280.677 C 120.144 278.403,118.770 275.720,117.591 266.208 C 116.969 261.194,116.211 258.163,114.363 253.302 C 112.359 248.033,111.841 245.781,110.794 237.800 C 109.629 228.913,108.650 224.364,107.046 220.392 C 104.952 215.208,104.367 212.468,102.566 199.439 C 101.837 194.160,100.634 189.490,99.024 185.692 C 96.411 179.525,95.113 167.700,96.707 164.590 C 97.747 162.561,98.871 161.525,101.605 160.074 C 102.812 159.433,104.686 158.434,105.768 157.854 L 107.736 156.800 126.048 156.800 C 149.214 156.800,150.555 157.039,149.010 160.886 C 148.281 162.701,147.286 173.004,147.728 174.157 C 147.864 174.512,148.815 175.334,149.840 175.984 C 152.546 177.701,154.539 176.497,156.323 172.070 C 156.795 170.898,157.766 169.201,158.481 168.298 C 159.709 166.747,159.773 166.504,159.651 163.851 C 159.472 159.976,159.216 159.477,157.123 158.917 C 153.175 157.861,151.616 154.068,153.362 149.770 C 153.902 148.442,154.716 145.895,155.172 144.111 C 156.200 140.082,157.182 137.758,158.533 136.153 C 160.150 134.230,161.428 131.357,162.544 127.127 C 163.833 122.245,164.342 121.045,166.101 118.750 C 168.048 116.208,168.138 116.005,169.602 110.800 C 171.037 105.695,171.787 104.011,173.465 102.121 C 174.089 101.418,175.103 100.202,175.718 99.420 C 178.386 96.025,181.553 95.354,184.144 97.634 M154.818 161.613 C 155.430 162.049,156.390 163.325,156.950 164.450 L 157.969 166.494 157.019 167.747 C 156.496 168.436,155.686 170.170,155.218 171.600 C 154.652 173.332,153.956 174.558,153.133 175.272 L 151.898 176.344 150.293 175.282 L 148.688 174.220 148.943 169.764 C 149.430 161.237,151.078 158.950,154.818 161.613 M257.302 162.794 C 258.284 165.030,258.979 173.467,258.255 174.365 C 256.564 176.464,252.800 176.015,252.800 173.714 C 252.800 172.719,251.489 169.416,250.504 167.926 C 248.995 165.646,250.586 162.526,254.200 160.683 C 255.683 159.926,256.196 160.276,257.302 162.794 M164.827 195.500 C 164.067 196.206,163.133 197.941,162.221 200.340 L 160.800 204.080 160.800 221.771 C 160.800 247.386,160.993 248.718,165.018 250.853 L 166.767 251.781 167.859 250.966 C 170.768 248.793,170.584 250.363,170.742 226.390 C 170.880 205.457,170.859 204.721,170.009 200.719 C 169.135 196.605,167.921 194.400,166.531 194.400 C 166.246 194.400,165.479 194.895,164.827 195.500 M202.203 195.300 C 201.477 195.927,200.863 197.226,200.180 199.579 L 199.200 202.959 199.200 225.390 C 199.200 250.417,198.990 248.574,202.096 250.824 L 203.707 251.991 205.298 250.820 C 208.402 248.538,208.186 250.325,208.324 225.800 L 208.448 203.800 207.351 200.000 C 205.857 194.824,204.348 193.447,202.203 195.300 M239.486 195.203 C 237.092 197.087,236.800 200.389,236.800 225.558 L 236.800 248.018 238.451 249.809 C 240.419 251.944,240.818 251.986,243.271 250.312 C 246.367 248.199,246.200 249.656,246.200 224.840 L 246.200 202.600 244.851 199.265 C 243.819 196.712,243.209 195.750,242.251 195.166 C 240.706 194.224,240.732 194.223,239.486 195.203 M168.748 200.086 C 169.565 203.430,169.600 204.473,169.600 225.826 L 169.600 248.080 168.200 249.480 L 166.801 250.879 165.500 250.064 C 162.425 248.137,162.616 249.679,162.463 225.626 L 162.325 204.111 163.800 200.172 C 166.127 193.961,167.245 193.941,168.748 200.086 M206.176 200.400 L 207.270 204.200 207.135 226.131 L 207.000 248.062 205.506 249.431 C 203.673 251.110,203.695 251.110,201.878 249.446 L 200.400 248.092 200.400 225.604 L 200.400 203.116 201.438 199.658 C 203.186 193.830,204.336 194.011,206.176 200.400 M243.469 199.830 L 244.794 203.400 244.797 223.441 C 244.801 248.463,244.836 248.062,242.505 249.665 L 240.728 250.888 239.364 249.565 L 238.000 248.243 238.000 225.488 C 238.000 203.735,238.037 202.590,238.834 199.467 C 240.245 193.940,241.314 194.024,243.469 199.830 " stroke="none" fill="#fce4d4" fill-rule="evenodd"></path><path id="path5" d="M178.453 94.012 C 172.464 95.254,169.410 98.614,168.218 105.274 C 167.289 110.462,166.954 111.267,164.746 113.608 C 162.027 116.491,161.446 117.937,160.359 124.531 L 159.448 130.061 157.962 130.820 C 155.103 132.278,153.999 134.716,153.018 141.744 C 152.505 145.413,151.915 147.200,151.217 147.200 C 150.489 147.200,148.338 149.353,147.579 150.842 C 146.139 153.664,146.656 153.600,125.440 153.600 C 101.788 153.600,100.549 153.816,96.641 158.613 C 93.699 162.224,93.164 166.022,93.955 177.671 C 94.730 189.075,95.864 193.595,98.786 196.923 C 100.313 198.662,100.825 201.559,101.580 212.723 C 102.261 222.802,103.196 226.311,106.012 229.367 C 107.866 231.378,108.111 232.643,108.808 243.800 C 109.535 255.444,110.307 258.680,113.061 261.624 C 115.025 263.724,115.232 264.546,116.352 274.710 C 117.008 280.671,118.645 282.625,123.773 283.565 C 127.772 284.298,280.619 284.152,284.113 283.411 C 289.064 282.362,290.419 280.553,291.163 274.000 C 292.298 263.997,292.390 263.631,294.246 261.775 C 297.030 258.991,297.902 255.057,298.805 241.200 C 299.384 232.323,299.609 231.341,301.535 229.317 C 304.227 226.487,305.252 222.273,305.992 211.000 C 306.649 200.992,307.106 198.432,308.482 197.057 C 312.094 193.445,313.860 183.739,313.524 169.348 C 313.364 162.499,313.209 161.891,310.772 158.502 C 307.473 153.917,305.629 153.600,282.270 153.600 C 260.526 153.600,261.002 153.667,259.465 150.368 C 259.034 149.445,258.002 148.290,256.977 147.584 C 255.012 146.232,254.806 145.688,254.039 139.800 C 253.402 134.909,252.172 132.413,249.783 131.154 C 248.732 130.601,247.911 129.864,247.828 129.400 C 247.749 128.960,247.298 126.350,246.826 123.600 C 245.823 117.760,245.133 116.142,242.445 113.325 C 240.663 111.457,240.400 110.938,239.809 108.125 C 239.449 106.406,238.969 104.157,238.743 103.126 C 237.178 95.977,228.743 91.763,221.870 94.696 C 218.510 96.129,217.860 101.689,219.752 112.805 C 220.820 119.076,221.368 120.416,223.983 123.143 C 226.214 125.470,226.580 126.365,227.410 131.522 C 228.310 137.116,229.798 140.042,232.443 141.419 C 234.343 142.408,235.806 151.103,234.336 152.669 L 233.461 153.600 203.784 153.600 C 174.152 153.600,174.106 153.599,173.030 152.752 C 172.437 152.285,172.045 151.660,172.160 151.361 C 172.274 151.063,172.576 149.239,172.830 147.309 C 173.375 143.166,173.737 142.358,175.600 141.126 C 177.327 139.984,179.041 136.681,179.610 133.400 C 180.948 125.690,181.143 125.162,183.618 122.566 C 186.893 119.132,188.300 113.605,188.499 103.400 C 188.657 95.276,185.697 92.510,178.453 94.012 M230.147 96.468 C 231.725 97.298,236.497 102.795,237.074 104.448 C 237.333 105.192,238.129 107.947,238.842 110.571 C 239.957 114.671,240.348 115.558,241.628 116.877 C 243.485 118.790,244.509 120.949,245.389 124.800 C 246.680 130.453,247.333 132.159,248.833 133.800 C 250.865 136.023,251.776 137.996,252.933 142.686 C 253.939 146.761,254.667 148.559,256.774 152.169 C 258.747 155.548,257.527 155.374,280.800 155.600 L 301.400 155.800 303.400 156.857 C 304.500 157.438,305.743 158.293,306.162 158.757 C 306.581 159.221,307.104 159.600,307.324 159.600 C 313.482 159.600,314.047 178.367,308.254 190.477 C 306.651 193.829,305.907 197.364,304.779 207.000 C 303.812 215.256,302.787 219.746,301.136 222.967 C 299.310 226.527,298.523 230.004,297.418 239.400 C 296.302 248.894,295.355 253.087,293.590 256.345 C 292.069 259.153,291.428 261.605,290.434 268.422 C 289.105 277.528,287.860 279.825,283.239 281.694 L 281.000 282.600 204.000 282.600 C 116.913 282.600,124.047 282.868,120.647 279.468 C 118.668 277.489,117.955 275.364,116.999 268.600 C 116.089 262.165,115.234 258.901,113.749 256.194 C 112.014 253.030,111.012 248.610,110.000 239.655 C 108.836 229.359,108.303 226.934,106.381 223.186 C 104.417 219.359,103.404 214.696,102.387 204.800 C 101.712 198.231,100.531 193.060,99.023 190.076 C 95.396 182.900,93.756 167.688,96.142 163.355 C 97.196 161.439,102.081 157.643,105.400 156.160 C 105.840 155.963,115.380 155.712,126.600 155.601 C 149.093 155.379,148.793 155.414,150.063 152.872 C 150.428 152.142,151.000 151.242,151.334 150.872 C 152.317 149.786,153.592 146.468,154.433 142.809 C 155.352 138.809,157.273 134.632,158.592 133.768 C 159.648 133.077,161.020 129.885,161.416 127.200 C 161.988 123.320,163.655 119.225,165.495 117.179 C 167.085 115.410,167.420 114.664,168.763 109.904 C 172.416 96.958,181.369 91.066,186.290 98.369 C 188.855 102.174,186.463 115.346,182.409 119.744 C 180.898 121.383,180.622 122.033,179.377 126.874 C 177.744 133.224,177.075 134.831,175.127 137.083 C 174.098 138.272,173.349 139.784,172.642 142.093 C 169.276 153.095,169.301 152.406,172.187 154.391 L 173.944 155.600 203.598 155.600 C 235.617 155.600,233.941 155.718,236.479 153.292 C 237.905 151.929,237.937 151.839,237.377 150.755 C 237.057 150.137,236.519 148.410,236.181 146.916 C 235.097 142.125,233.966 139.229,232.412 137.262 C 230.257 134.537,229.842 133.593,228.427 128.200 C 227.086 123.091,226.091 120.400,225.542 120.400 C 222.714 120.400,218.591 102.670,220.545 98.913 C 222.521 95.115,225.925 94.248,230.147 96.468 M151.083 161.045 C 149.811 162.731,149.203 165.210,148.943 169.764 L 148.688 174.220 150.293 175.282 L 151.898 176.344 153.133 175.272 C 153.956 174.558,154.652 173.332,155.218 171.600 C 155.686 170.170,156.496 168.436,157.019 167.747 L 157.969 166.494 156.950 164.450 C 155.308 161.155,152.312 159.416,151.083 161.045 M254.200 160.683 C 250.586 162.526,248.995 165.646,250.504 167.926 C 251.489 169.416,252.800 172.719,252.800 173.714 C 252.800 175.061,255.428 176.376,256.642 175.636 C 258.674 174.397,258.735 174.173,258.403 169.200 C 257.946 162.366,256.529 159.495,254.200 160.683 M153.367 165.165 L 154.483 166.331 153.799 169.265 C 153.422 170.879,152.991 172.740,152.842 173.400 C 152.067 176.821,150.533 174.354,150.447 169.549 C 150.364 164.894,151.489 163.205,153.367 165.165 M256.361 165.260 C 257.094 167.361,256.937 174.262,256.149 174.564 C 255.118 174.960,254.522 174.146,254.229 171.937 C 254.080 170.810,253.705 169.155,253.396 168.259 C 252.861 166.707,252.882 166.568,253.838 165.315 C 255.096 163.666,255.800 163.651,256.361 165.260 M165.938 195.739 C 165.574 196.011,164.612 198.005,163.800 200.172 L 162.325 204.111 162.463 225.626 C 162.616 249.679,162.425 248.137,165.500 250.064 L 166.801 250.879 168.200 249.480 L 169.600 248.080 169.600 225.826 C 169.600 204.473,169.565 203.430,168.748 200.086 C 167.791 196.172,167.000 194.948,165.938 195.739 M203.121 195.695 C 202.766 195.973,202.008 197.756,201.438 199.658 L 200.400 203.116 200.400 225.604 L 200.400 248.092 201.878 249.446 C 203.695 251.110,203.673 251.110,205.506 249.431 L 207.000 248.062 207.135 226.131 L 207.270 204.200 206.176 200.400 C 204.942 196.116,204.148 194.892,203.121 195.695 M240.092 195.690 C 238.268 197.887,238.000 201.701,238.000 225.488 L 238.000 248.243 239.364 249.565 L 240.728 250.888 242.505 249.665 C 244.836 248.062,244.801 248.463,244.797 223.441 L 244.794 203.400 243.469 199.830 C 242.102 196.148,240.917 194.695,240.092 195.690 M167.794 225.156 C 167.800 250.540,167.782 250.753,165.708 248.679 C 164.437 247.409,164.399 205.320,165.664 201.232 L 166.583 198.264 167.186 200.032 C 167.695 201.527,167.789 205.411,167.794 225.156 M205.195 225.886 L 205.200 248.372 204.353 248.825 C 202.229 249.962,202.226 249.929,202.061 226.287 C 201.910 204.673,201.913 204.579,202.816 201.595 L 203.723 198.600 204.456 201.000 C 205.129 203.204,205.190 205.233,205.195 225.886 M241.685 201.118 C 242.882 204.270,242.775 247.973,241.569 248.727 C 239.592 249.961,239.600 250.055,239.600 225.818 C 239.600 210.549,239.747 202.603,240.057 201.057 C 240.573 198.487,240.687 198.491,241.685 201.118 " stroke="none" fill="#fcece4" fill-rule="evenodd"></path></g></svg>