<svg xmlns="http://www.w3.org/2000/svg" width="30" height="30" viewBox="0 0 30 30"><g><g><path fill="#fff" d="M15 0c8.284 0 15 6.716 15 15 0 8.284-6.716 15-15 15-8.284 0-15-6.716-15-15C0 6.716 6.716 0 15 0z"/></g><g><path fill="#f7a98f" d="M16.85 19.489l-.158.799c-.474.232-.853.408-1.135.53-.283.12-.611.181-.985.181-.574 0-1.021-.174-1.34-.52-.318-.347-.478-.787-.478-1.32 0-.206.012-.419.036-.635.024-.217.063-.46.115-.734l.593-2.595c.053-.249.098-.485.134-.707.036-.221.054-.425.054-.608 0-.332-.056-.564-.166-.694-.11-.13-.321-.196-.634-.196-.154 0-.311.03-.472.09-.161.058-.299.115-.415.168l.159-.8c.388-.196.76-.364 1.115-.502.355-.14.69-.21 1.008-.21.57 0 1.01.171 1.32.512.309.341.463.784.463 1.329 0 .112-.01.311-.032.595-.021.285-.06.546-.119.783l-.59 2.585a8.261 8.261 0 0 0-.13.713c-.039.265-.058.468-.058.604 0 .343.062.577.186.702.125.125.34.186.646.186.144 0 .307-.031.489-.093.18-.062.313-.116.395-.164zM17 8.635c0 .45-.137.835-.413 1.151-.275.318-.606.477-.994.477-.39 0-.721-.16-1-.477a1.686 1.686 0 0 1-.417-1.151c0-.45.14-.835.417-1.155.278-.32.611-.48 1-.48.388 0 .72.16.994.48.276.32.413.705.413 1.155z"/></g></g></svg>