<svg xmlns="http://www.w3.org/2000/svg" width="14.19" height="14"><path data-name="Forma 1" d="M14.19 10.812A3.213 3.213 0 0110.96 14H3.22a3.213 3.213 0 01-3.23-3.186V3.186A3.213 3.213 0 013.22 0h7.74a3.213 3.213 0 013.23 3.187v7.626zm-7.1-8.2A4.386 4.386 0 1011.54 7a4.425 4.425 0 00-4.45-4.387zm0 7.261A2.876 2.876 0 1110.01 7a2.893 2.893 0 01-2.92 2.874zm4.64-8.541a1.146 1.146 0 00-.8.324 1.094 1.094 0 000 1.566 1.137 1.137 0 001.59 0 1.094 1.094 0 000-1.566 1.14 1.14 0 00-.79-.323z" fill="#f7a98f" fill-rule="evenodd"/></svg>