<svg xmlns="http://www.w3.org/2000/svg" width="30" height="30" viewBox="0 0 30 30"><g><g><path fill="#fdece1" d="M15 0c8.284 0 15 6.716 15 15 0 8.284-6.716 15-15 15-8.284 0-15-6.716-15-15C0 6.716 6.716 0 15 0z"/></g><g><path fill="#f7a98f" d="M16.932 15.752h-2.916L13.53 8.21h3.852zm.45 2.754c0 .516-.189.963-.567 1.34a1.833 1.833 0 0 1-1.34.568c-.517 0-.964-.189-1.342-.567a1.833 1.833 0 0 1-.567-1.341c0-.528.19-.98.567-1.359a1.83 1.83 0 0 1 1.341-.567c.516 0 .963.189 1.341.567.378.378.567.83.567 1.359z"/></g></g></svg>