<svg xmlns="http://www.w3.org/2000/svg" width="30" height="30" viewBox="0 0 30 30"><g><g><path fill="#fdece1" d="M15 0c8.284 0 15 6.716 15 15 0 8.284-6.716 15-15 15-8.284 0-15-6.716-15-15C0 6.716 6.716 0 15 0z"/></g><g><path fill="#f7a98f" d="M12.11 14.841c-.93 0-1.682-.278-2.251-.835-.57-.558-.856-1.248-.856-2.073 0-.836.285-1.534.856-2.098.57-.563 1.32-.844 2.251-.844.943 0 1.702.281 2.278.844.576.564.864 1.262.864 2.098 0 .825-.288 1.515-.864 2.073-.576.557-1.335.835-2.278.835zm.524 5.937H10.94l7.435-11.612h1.71zm9.355-2.699c0 .825-.288 1.515-.864 2.072-.576.558-1.33.836-2.26.836-.931 0-1.682-.278-2.252-.836-.57-.557-.855-1.247-.855-2.072 0-.835.285-1.534.855-2.098.57-.562 1.321-.844 2.252-.844.93 0 1.684.282 2.26.844.576.564.864 1.263.864 2.098zm-9.879-5.083c.303 0 .547-.087.733-.262.186-.174.28-.44.28-.8 0-.371-.094-.647-.28-.827-.186-.18-.43-.27-.733-.27-.29 0-.526.09-.707.27-.18.18-.27.456-.27.826 0 .36.09.627.27.801.18.175.416.262.707.262zm5.76 5.083c0 .709.332 1.063.995 1.063.675 0 1.012-.354 1.012-1.063 0-.37-.093-.646-.279-.826-.186-.18-.43-.27-.733-.27-.663 0-.995.365-.995 1.096z"/></g></g></svg>