<svg xmlns="http://www.w3.org/2000/svg" width="30" height="30" viewBox="0 0 30 30"><g><g><path fill="#ff98b4" d="M15 0c8.284 0 15 6.716 15 15 0 8.284-6.716 15-15 15-8.284 0-15-6.716-15-15C0 6.716 6.716 0 15 0z"/></g><g><path fill="#fff" d="M20 16.375c0 3.096-2.459 5.616-5.484 5.625H14.5C11.467 22 9 19.477 9 16.375c0-.106 0-.213.006-.319.09-3.192 1.629-3.992 1.694-4.024a.298.298 0 0 1 .277.005.314.314 0 0 1 .159.232c.003.021.285 1.927 1.531 2.2.005-.821.041-2.064.314-3.17.394-1.588 1.52-3.252 2.869-4.24a.297.297 0 0 1 .317-.023c.102.053.166.16.166.278 0 1.459.719 2.447 1.55 3.593.9 1.237 1.918 2.639 2.086 4.876 0 0 .03.436.03.592zm-3.667 3.003c0-.058-.004-.112-.007-.166-.065-.906-.43-1.437-.784-1.951-.247-.36-.5-.727-.63-1.182-.291.35-.522.787-.618 1.198-.108.463-.118.977-.118 1.421a.309.309 0 0 1-.305.313c-.515 0-.832-.358-1.009-.747-.095.21-.18.527-.193.992-.003.046-.002.084-.002.122 0 1.101.822 1.997 1.833 1.997 1.01 0 1.833-.896 1.833-1.997z"/></g></g></svg>