<?xml version="1.0" encoding="UTF-8" standalone="no"?>
<svg
   xmlns:dc="http://purl.org/dc/elements/1.1/"
   xmlns:cc="http://creativecommons.org/ns#"
   xmlns:rdf="http://www.w3.org/1999/02/22-rdf-syntax-ns#"
   xmlns:svg="http://www.w3.org/2000/svg"
   xmlns="http://www.w3.org/2000/svg"
   xmlns:sodipodi="http://sodipodi.sourceforge.net/DTD/sodipodi-0.dtd"
   xmlns:inkscape="http://www.inkscape.org/namespaces/inkscape"
   width="30"
   height="30"
   viewBox="0 0 30 30"
   version="1.1"
   id="svg863"
   sodipodi:docname="mp-like.svg"
   inkscape:version="0.92.4 (5da689c313, 2019-01-14)">
  <metadata
     id="metadata869">
    <rdf:RDF>
      <cc:Work
         rdf:about="">
        <dc:format>image/svg+xml</dc:format>
        <dc:type
           rdf:resource="http://purl.org/dc/dcmitype/StillImage" />
        <dc:title></dc:title>
      </cc:Work>
    </rdf:RDF>
  </metadata>
  <defs
     id="defs867" />
  <sodipodi:namedview
     pagecolor="#ffffff"
     bordercolor="#666666"
     borderopacity="1"
     objecttolerance="10"
     gridtolerance="10"
     guidetolerance="10"
     inkscape:pageopacity="0"
     inkscape:pageshadow="2"
     inkscape:window-width="1920"
     inkscape:window-height="1028"
     id="namedview865"
     showgrid="false"
     inkscape:zoom="10.24"
     inkscape:cx="13.611879"
     inkscape:cy="7.2816157"
     inkscape:window-x="-8"
     inkscape:window-y="-8"
     inkscape:window-maximized="1"
     inkscape:current-layer="g861" />
  <g
     id="g861">
    <g
       id="g855">
      <path
         fill="#ff98b4"
         d="M15 0c8.284 0 15 6.716 15 15 0 8.284-6.716 15-15 15-8.284 0-15-6.716-15-15C0 6.716 6.716 0 15 0z"
         id="path853" />
    </g>
    <path
       d="M 21.418078,9.0835392 C 20.548811,8.2866982 19.403384,7.8895955 18.19258,7.9654345 c -0.905062,0.056667 -1.715183,0.3841307 -2.407918,0.9731867 -0.349547,0.297327 -0.660355,0.653772 -0.92787,1.0638398 -0.320653,-0.3731178 -0.67722,-0.6878748 -1.064179,-0.9390698 -0.766522,-0.497642 -1.614111,-0.721261 -2.519165,-0.66458 -1.210798,0.07585 -2.2928551,0.612474 -3.0468467,1.510981 -0.7449781,0.8880008 -1.108909,2.0601858 -1.0245529,3.3007818 0.086829,1.27687 0.6604571,2.41474 1.805208,3.581047 1.0240506,1.043256 2.4642216,2.077233 4.1319496,3.274523 0.569475,0.408887 1.214967,0.872353 1.886157,1.367067 0.177317,0.130942 0.397826,0.195338 0.621026,0.181356 0.223092,-0.014 0.433119,-0.105326 0.590996,-0.257031 0.59847,-0.574357 1.176078,-1.114678 1.685567,-1.591375 1.491236,-1.394908 2.779175,-2.599647 3.653254,-3.761912 0.977107,-1.299099 1.391664,-2.498867 1.304827,-3.775846 -0.08435,-1.240473 -0.603927,-2.3573218 -1.462955,-3.1448638 z m 0,0"
       id="path825"
       inkscape:connector-curvature="0"
       style="stroke-width:0.03011431;fill:#ffffff;fill-opacity:1;stroke:#fffff0;stroke-opacity:1"
       inkscape:transform-center-x="356.13901"
       inkscape:transform-center-y="283.44088" />
  </g>
</svg>
