<?xml version="1.0" encoding="UTF-8" standalone="no"?>
<svg
   xmlns:dc="http://purl.org/dc/elements/1.1/"
   xmlns:cc="http://creativecommons.org/ns#"
   xmlns:rdf="http://www.w3.org/1999/02/22-rdf-syntax-ns#"
   xmlns:svg="http://www.w3.org/2000/svg"
   xmlns="http://www.w3.org/2000/svg"
   xmlns:sodipodi="http://sodipodi.sourceforge.net/DTD/sodipodi-0.dtd"
   xmlns:inkscape="http://www.inkscape.org/namespaces/inkscape"
   width="30"
   height="30"
   viewBox="0 0 30 30"
   version="1.1"
   id="svg863"
   sodipodi:docname="mp-thumb.svg"
   inkscape:version="0.92.4 (5da689c313, 2019-01-14)">
  <metadata
     id="metadata869">
    <rdf:RDF>
      <cc:Work
         rdf:about="">
        <dc:format>image/svg+xml</dc:format>
        <dc:type
           rdf:resource="http://purl.org/dc/dcmitype/StillImage" />
        <dc:title></dc:title>
      </cc:Work>
    </rdf:RDF>
  </metadata>
  <defs
     id="defs867" />
  <sodipodi:namedview
     pagecolor="#ffffff"
     bordercolor="#666666"
     borderopacity="1"
     objecttolerance="10"
     gridtolerance="10"
     guidetolerance="10"
     inkscape:pageopacity="0"
     inkscape:pageshadow="2"
     inkscape:window-width="1920"
     inkscape:window-height="1028"
     id="namedview865"
     showgrid="false"
     inkscape:zoom="10.24"
     inkscape:cx="13.611879"
     inkscape:cy="7.2816157"
     inkscape:window-x="-8"
     inkscape:window-y="-8"
     inkscape:window-maximized="1"
     inkscape:current-layer="g861" />
  <g
     id="g861">
    <g
       id="g855">
      <path
         fill="#ff98b4"
         d="M15 0c8.284 0 15 6.716 15 15 0 8.284-6.716 15-15 15-8.284 0-15-6.716-15-15C0 6.716 6.716 0 15 0z"
         id="path853" />
    </g>
    <path
       d="m 7.2851162,12.348127 v 7.131703 c 0,0.492234 0.4311891,0.891413 0.963136,0.891413 H 11.137664 V 11.456674 H 8.2482522 c -0.5319465,0 -0.9631354,0.399179 -0.9631354,0.891413 z"
       id="path1441"
       inkscape:connector-curvature="0"
       style="stroke-width:0.92660612;fill:#ffffff;fill-opacity:1" />
    <path
       d="m 20.916697,12.347948 h -2.845202 c -0.248782,0 -0.373394,-0.153761 -0.41526,-0.219859 -0.04192,-0.0659 -0.126481,-0.241225 -0.006,-0.442312 l 1.003116,-1.671998 c 0.22018,-0.36603 0.242618,-0.796561 0.06262,-1.180962 -0.180238,-0.3848 -0.535658,-0.6637665 -0.975378,-0.7652092 L 17.033257,7.9038624 c -0.1721,-0.039941 -0.35458,0.010859 -0.47451,0.1337989 L 12.718345,11.98655 c -0.398322,0.410561 -0.617467,0.939737 -0.617467,1.49088 v 4.664502 c 0,1.228887 1.080241,2.228653 2.407834,2.228653 l 4.790757,-4.21e-4 c 1.081647,0 2.036782,-0.67435 2.322252,-1.639249 L 22.64974,14.36415 c 0.03008,-0.121812 0.04561,-0.246017 0.04561,-0.370424 0,-0.907587 -0.798074,-1.646238 -1.778606,-1.646238 z"
       id="path1443"
       inkscape:connector-curvature="0"
       style="stroke-width:0.92660612;fill:#ffffff;fill-opacity:1" />
  </g>
</svg>
