<svg xmlns="http://www.w3.org/2000/svg" width="30" height="17"><defs><filter id="filter" filterUnits="userSpaceOnUse"><feFlood result="flood" flood-color="#f7a98f"/><feComposite result="composite" operator="in" in2="SourceGraphic"/><feBlend result="blend" in2="SourceGraphic"/></filter><style>.cls-2{fill:none;stroke:#000;stroke-linecap:round;stroke-linejoin:round;stroke-width:2px;fill-rule:evenodd}</style></defs><g id="Группа_11" data-name="Группа 11" filter="url(#filter)"><path id="Forma_1" data-name="Forma 1" class="cls-2" d="M860.368 227.876a3.8 3.8 0 00-1.326-.595l-2.532-.6-.146-.554a8.7 8.7 0 002.685-.8.3.3 0 00.034-.516c-.012-.009-1.193-.932-1.193-4.131 0-2.7-.667-4.066-1.983-4.066h-.2a2.18 2.18 0 00-1.788-.625 4.367 4.367 0 00-3.965 4.691c0 3.2-1.181 4.122-1.19 4.128a.3.3 0 00.028.518 8.489 8.489 0 002.687.8l-.146.553-2.532.6a3.552 3.552 0 00-2.812 3.412.322.322 0 00.33.312h11.725" transform="translate(-845 -215)"/><path id="Forma_1-2" data-name="Forma 1" class="cls-2" d="M871.193 227.281l-2.532-.6-.216-.816a4.228 4.228 0 001.279-2.4.956.956 0 00.717-.786l.165-1.251a.9.9 0 00-.236-.731.99.99 0 00-.4-.261l.061-1.178.247-.235a1.388 1.388 0 00.036-1.949 2.838 2.838 0 00-2.5-1.079 4.551 4.551 0 00-2.5.627c-2.816.055-3.2 1.293-3.2 2.5 0 .281.072.914.12 1.295a.988.988 0 00-.444.274.9.9 0 00-.241.737l.165 1.251a.967.967 0 00.795.806 4.253 4.253 0 001.216 2.327l-.23.872-2.532.6a3.55 3.55 0 00-2.814 3.411.322.322 0 00.33.312h15.2a.323.323 0 00.33-.314 3.551 3.551 0 00-2.816-3.412z" transform="translate(-845 -215)"/></g></svg>