<svg xmlns="http://www.w3.org/2000/svg" width="24" height="21" viewBox="0 0 24 21"><g><g><path fill="#facbbc" d="M19.3 7.438c0 .707-.472 1.27-1.24 1.442-.008.002-.044.007-.044.057v.534a.268.268 0 0 1-.271.264h-.242a.268.268 0 0 1-.27-.264v-.508c0-.037-.042-.052-.05-.053-.03-.005-.703-.11-1.051-.292-.087-.046-.155-.148-.111-.275l.124-.337a.253.253 0 0 1 .24-.167c.039 0 .077.009.114.026.005.003.572.269.99.269.49 0 .833-.264.833-.641 0-.347-.242-.583-.834-.816-.74-.282-1.427-.658-1.427-1.49 0-.668.45-1.197 1.171-1.369.015-.003.058-.02.058-.06V3.25c0-.146.12-.264.27-.264h.233c.15 0 .271.118.271.264l.002.485c0 .037.032.044.041.046.006 0 .577.1.87.227a.206.206 0 0 1 .11.266l-.13.333a.25.25 0 0 1-.234.161.266.266 0 0 1-.123-.031 2.006 2.006 0 0 0-.842-.19c-.537 0-.727.294-.727.546 0 .315.207.49.924.777.943.373 1.345.843 1.346 1.569zM24 6.36c0 3.512-2.842 6.36-6.346 6.36-3.505 0-6.347-2.848-6.347-6.36 0-3.512 2.842-6.36 6.347-6.36C21.158 0 24 2.848 24 6.36zm-1.471 0a4.88 4.88 0 0 0-4.875-4.886 4.88 4.88 0 0 0-4.876 4.886 4.88 4.88 0 0 0 4.876 4.886 4.88 4.88 0 0 0 4.875-4.886zm.902 11.22c-.756.727-4.7 3.069-6.093 3.393-.973.227-8.033-1.07-8.849-1.255-.52-.118-1.082.262-1.483.605-.366.313-.412-.132-.41-.165.103-1.566.291-4.563.386-6.028.021-.316.227-.31.556-.364.96-.156 2.944-.46 3.747-.436 1.706.05 5.699 1.516 6.38 1.671.686.156.865 1.338-.396 1.675-1.643.44-4.36-.529-4.36-.249 0 .737 3.098 1.361 4.745 1.102a16.116 16.116 0 0 0 5.056-1.727c.982-.543 1.893.648.72 1.777zM5.514 14.253l-.45 5.895a.546.546 0 0 1-.56.5H.407c-.285-.011-.461-.248-.39-.525l.672-6.118a.666.666 0 0 1 .648-.48l3.698.183c.286.014.502.26.48.545zm-1.634 4.56a1.024 1.024 0 1 0-2.048-.003 1.024 1.024 0 0 0 2.048.002z"/></g></g></svg>