<svg xmlns="http://www.w3.org/2000/svg" width="25" height="22" viewBox="0 0 25 22"><g><g><path fill="#facbbc" d="M24.973 4.61l-.291 1.848L7.015 2.762 7.306.914c.137-.64.78-1.054 1.427-.918l15.311 3.203c.648.136 1.066.77.929 1.41zm-7.104 3.177l6.149 1.286-1.08 5.045a1.207 1.207 0 0 1-1.427.918l-1.707-.357.455 1.623a1.204 1.204 0 0 1-.846 1.479l-15.22 4.176a1.22 1.22 0 0 1-1.496-.837L.043 11.668a1.203 1.203 0 0 1 .846-1.479l4.709-1.292.753-3.52 6.852 1.434 2.907-.798a1.22 1.22 0 0 1 1.496.837zm1.877 4.447l1.779.372a.497.497 0 0 0 .587-.377l.376-1.759a.491.491 0 0 0-.382-.58l-1.78-.373a.497.497 0 0 0-.586.378l-.377 1.759a.49.49 0 0 0 .383.58zM.998 11.406l.519 1.848L17.17 8.96l-.394-1.401-.125-.448a.23.23 0 0 0-.277-.154l-1.07.294-9.938 2.726-4.212 1.155a.225.225 0 0 0-.156.274zm17.713 3.045l-.954-3.4-15.653 4.294 1.547 5.513a.23.23 0 0 0 .277.155l15.22-4.176a.217.217 0 0 0 .134-.105.216.216 0 0 0 .023-.168zm-11.83 4.247a.49.49 0 0 1-.345.603l-1.778.488a.497.497 0 0 1-.61-.341l-.493-1.757A.49.49 0 0 1 4 17.088l1.777-.488a.498.498 0 0 1 .61.341z"/></g></g></svg>