<svg xmlns="http://www.w3.org/2000/svg" width="40" height="40" viewBox="0 0 40 40"><g><g><path fill="#fff" d="M20 0c11.046 0 20 8.954 20 20s-8.954 20-20 20S0 31.046 0 20 8.954 0 20 0z"/></g><g><path fill="#f7a98f" d="M27.029 26.965c-.41.418-.844.805-1.23 1.238-.566.634-1.278.836-2.083.79-1.177-.063-2.268-.457-3.313-.968-2.33-1.13-4.32-2.7-5.984-4.68-1.231-1.463-2.245-3.057-2.919-4.86-.325-.874-.557-1.764-.487-2.707.046-.58.263-1.076.689-1.486.464-.44.898-.897 1.354-1.346.596-.588 1.34-.58 1.936 0 .371.363.727.727 1.091 1.09.356.357.712.705 1.06 1.06.62.627.62 1.355 0 1.982-.44.448-.882.897-1.338 1.33-.117.116-.132.209-.07.356.294.712.727 1.346 1.207 1.934.968 1.192 2.067 2.252 3.383 3.072.279.178.589.302.883.464.147.085.255.054.371-.07.442-.456.898-.905 1.347-1.354.596-.588 1.34-.588 1.928 0 .727.72 1.447 1.44 2.167 2.167.62.634.62 1.377.008 1.988zm-6.866-12.023l.232-1.656a7.348 7.348 0 0 1 4.203 2.097 7.305 7.305 0 0 1 2.06 3.969l-1.65.286a5.68 5.68 0 0 0-1.594-3.071 5.659 5.659 0 0 0-3.251-1.625zm9.188 4.41a10.562 10.562 0 0 0-2.949-5.694 10.538 10.538 0 0 0-6.023-3.002L20.612 9a12.14 12.14 0 0 1 6.967 3.474A12.227 12.227 0 0 1 31 19.066z"/></g></g></svg>