<svg xmlns="http://www.w3.org/2000/svg" width="32" height="32"><defs><filter id="a" width="54" height="56" x="-11" y="-13" filterUnits="userSpaceOnUse"><feOffset dy="2" in="SourceGraphic" result="FeOffset1093Out"/><feGaussianBlur in="FeOffset1093Out" result="FeGaussianBlur1094Out" stdDeviation="2.8 2.8"/></filter><mask id="b" width="2" height="2" x="-1" y="-1"><path fill="#fff" d="M6 4h20v20H6z"/><path d="M16 4c5.523 0 10 4.477 10 10s-4.477 10-10 10S6 19.523 6 14 10.477 4 16 4z"/></mask></defs><g filter="url(#a)"><path fill="none" d="M16 4c5.523 0 10 4.477 10 10s-4.477 10-10 10S6 19.523 6 14 10.477 4 16 4z" mask="url(&quot;#b&quot;)"/><path fill="#f7a98f" fill-opacity=".32" d="M16 4c5.523 0 10 4.477 10 10s-4.477 10-10 10S6 19.523 6 14 10.477 4 16 4z"/></g><path fill="#fff" d="M16 4c5.523 0 10 4.477 10 10s-4.477 10-10 10S6 19.523 6 14 10.477 4 16 4z"/><g><path fill="#ff98b4" d="M16 11a3 3 0 110 6 3 3 0 010-6z"/></g></svg>