<svg xmlns="http://www.w3.org/2000/svg" width="30" height="30" viewBox="0 0 30 30"><g><g><path fill="#fff" d="M15 0c8.284 0 15 6.716 15 15 0 8.284-6.716 15-15 15-8.284 0-15-6.716-15-15C0 6.716 6.716 0 15 0z"/></g><g><path fill="#f7a98f" d="M12.11 14.842c-.93 0-1.682-.279-2.251-.836-.57-.557-.856-1.247-.856-2.072 0-.836.285-1.535.856-2.098.57-.562 1.32-.844 2.251-.844.943 0 1.702.282 2.278.844.576.563.864 1.262.864 2.098 0 .825-.288 1.515-.864 2.072-.576.557-1.335.836-2.278.836zm.524 5.937H10.94l7.435-11.613h1.71zm9.355-2.699c0 .825-.288 1.515-.864 2.072-.576.557-1.33.836-2.26.836-.931 0-1.682-.279-2.252-.836-.57-.557-.855-1.247-.855-2.072 0-.835.285-1.534.855-2.098.57-.563 1.321-.844 2.252-.844.93 0 1.684.281 2.26.844.576.564.864 1.263.864 2.098zm-9.879-5.084c.303 0 .547-.087.733-.26.186-.175.28-.442.28-.802 0-.37-.094-.646-.28-.827-.186-.18-.43-.27-.733-.27-.29 0-.526.09-.707.27-.18.18-.27.456-.27.827 0 .36.09.627.27.801.18.174.416.261.707.261zm5.76 5.084c0 .709.332 1.062.995 1.062.675 0 1.012-.353 1.012-1.062 0-.37-.093-.647-.279-.826-.186-.18-.43-.27-.733-.27-.663 0-.995.365-.995 1.096z"/></g></g></svg>