<svg xmlns="http://www.w3.org/2000/svg" width="22" height="18" viewBox="0 0 22 18"><g><g><path fill="#eb86a1" d="M21.066 6.067c.598 0 1.041.525.91 1.077L19.57 17.31c-.095.403-.474.69-.91.69H3.314c-.437 0-.816-.287-.911-.69L-.003 7.144c-.131-.552.313-1.077.91-1.077h4.57l-.47 1.043a.619.619 0 0 0 .333.824.662.662 0 0 0 .258.052c.249 0 .486-.14.592-.375l.71-1.577H5.492L8.04.375a.653.653 0 0 1 .85-.323.618.618 0 0 1 .333.824L6.885 6.067h8.203l.696 1.544a.646.646 0 0 0 .591.375.663.663 0 0 0 .258-.052.619.619 0 0 0 .333-.824l-.47-1.043zm-5.978 0l-.015-.033.015.033zM12.751.877a.618.618 0 0 1 .333-.825.653.653 0 0 1 .85.323l2.547 5.659h-1.408zm3.745 5.19l-.015-.033zm-11.02 0l.016-.033-.015.033zm2.284 4.006a.636.636 0 0 0-.645-.626.636.636 0 0 0-.645.626v4.589c0 .345.288.626.645.626.356 0 .645-.28.645-.626zm3.872 0a.636.636 0 0 0-.645-.626.636.636 0 0 0-.646.626v4.589c0 .345.29.626.646.626.356 0 .645-.28.645-.626zm3.872 0a.636.636 0 0 0-.646-.626.636.636 0 0 0-.645.626v4.589c0 .345.289.626.645.626.357 0 .646-.28.646-.626z"/></g></g></svg>