<svg xmlns="http://www.w3.org/2000/svg" width="14.97" height="15" viewBox="0 0 14.97 15">
  <metadata><?xpacket begin="﻿" id="W5M0MpCehiHzreSzNTczkc9d"?>
<x:xmpmeta xmlns:x="adobe:ns:meta/" x:xmptk="Adobe XMP Core 5.6-c138 79.159824, 2016/09/14-01:09:01        ">
   <rdf:RDF xmlns:rdf="http://www.w3.org/1999/02/22-rdf-syntax-ns#">
      <rdf:Description rdf:about=""/>
   </rdf:RDF>
</x:xmpmeta>
                                                                                                    
                                                                                                    
                                                                                                    
                                                                                                    
                                                                                                    
                                                                                                    
                                                                                                    
                                                                                                    
                                                                                                    
                                                                                                    
                                                                                                    
                                                                                                    
                                                                                                    
                                                                                                    
                                                                                                    
                                                                                                    
                                                                                                    
                                                                                                    
                                                                                                    
                                                                                                    
                           
<?xpacket end="w"?></metadata>
<defs>
    <style>
      .cls-1 {
        fill: #ac8c78;
        fill-rule: evenodd;
        opacity: 0.7;
      }
    </style>
  </defs>
  <path id="Forma_1" data-name="Forma 1" class="cls-1" d="M1090.2,122.387a6.084,6.084,0,1,0-8.6-8.608,5.976,5.976,0,0,0-.91,7.346,0.253,0.253,0,0,1-.04.305c-0.77.776-3.1,3.1-3.1,3.1a1.423,1.423,0,0,0-.21,2.031l0.09,0.094a1.418,1.418,0,0,0,2.03-.217s2.32-2.324,3.09-3.1a0.259,0.259,0,0,1,.31-0.042A5.959,5.959,0,0,0,1090.2,122.387Zm-7.47-1.124a4.49,4.49,0,1,1,6.34,0A4.49,4.49,0,0,1,1082.73,121.263Zm0.38-3.541a0.608,0.608,0,0,1-.24-0.05,0.622,0.622,0,0,1-.33-0.823,3.941,3.941,0,0,1,5.17-2.1,0.628,0.628,0,0,1-.49,1.157,2.694,2.694,0,0,0-3.53,1.433A0.623,0.623,0,0,1,1083.11,117.722Z" transform="translate(-1077 -112)"/>
</svg>
