<svg xmlns="http://www.w3.org/2000/svg" width="14.97" height="15"><path data-name="Forma 1" d="M13.2 10.387a6.084 6.084 0 10-8.6-8.608 5.976 5.976 0 00-.91 7.346.253.253 0 01-.04.305c-.77.776-3.1 3.1-3.1 3.1a1.423 1.423 0 00-.21 2.031l.09.094a1.418 1.418 0 002.03-.217s2.32-2.324 3.09-3.1a.259.259 0 01.31-.042 5.959 5.959 0 007.34-.909zM5.73 9.263a4.49 4.49 0 116.34 0 4.49 4.49 0 01-6.34 0zm.38-3.541a.608.608 0 01-.24-.05.622.622 0 01-.33-.823 3.941 3.941 0 015.17-2.1.628.628 0 01-.49 1.157 2.694 2.694 0 00-3.53 1.433.623.623 0 01-.58.383z" fill="#ac8c78" fill-rule="evenodd" opacity=".7"/></svg>