<svg xmlns="http://www.w3.org/2000/svg" width="25" height="28" viewBox="0 0 25 28"><g><g><path fill="#fff" d="M14.134 11.31a1.634 1.634 0 0 1-3.268 0 1.634 1.634 0 0 1 3.268 0zm4.135 7.348a14.657 14.657 0 0 1-5.769 4.903 14.657 14.657 0 0 1-5.769-4.903 14.616 14.616 0 0 1-2.62-8.368V7.51A9.49 9.49 0 0 0 7.53 4.101h9.942a9.463 9.463 0 0 0 3.418 3.41v2.78c0 3.003-.906 5.897-2.62 8.367zM9.221 11.31a3.278 3.278 0 0 0 2.457 3.167v2.96h1.644v-2.96a3.278 3.278 0 0 0 2.457-3.167 3.279 3.279 0 0 0-6.558 0zM25 4.69v5.601a18.69 18.69 0 0 1-3.35 10.703 18.758 18.758 0 0 1-8.86 6.898l-.29.108-.29-.108a18.757 18.757 0 0 1-8.86-6.898A18.692 18.692 0 0 1 0 10.29V4.688l.627-.152a5.337 5.337 0 0 0 2.507-1.41 5.317 5.317 0 0 0 1.413-2.5L4.7 0h15.6l.153.625c.231.945.72 1.81 1.413 2.501a5.338 5.338 0 0 0 2.507 1.41zM5.379 19.591a16.376 16.376 0 0 0 6.414 5.45l.707.336.707-.336a16.376 16.376 0 0 0 6.414-5.45 16.247 16.247 0 0 0 2.912-9.302V6.567l-.817-.475a7.814 7.814 0 0 1-2.824-2.817l-.475-.815H6.584l-.476.815a7.825 7.825 0 0 1-2.824 2.817l-.817.475v3.723c0 3.34 1.007 6.556 2.912 9.302z"/></g></g></svg>