<svg xmlns="http://www.w3.org/2000/svg" width="13" height="18"><path data-name="Forma 1" d="M12.08 7.943h-.33v-2.67A5.256 5.256 0 006.65 0h-.3a5.256 5.256 0 00-5.1 5.273v.059a1.085 1.085 0 002.17 0v-.059a3.08 3.08 0 116.16 0v2.669H.92A1.065 1.065 0 000 9.11v7.716a1.07 1.07 0 00.92 1.172h11.16a1.07 1.07 0 00.92-1.172V9.111a1.065 1.065 0 00-.92-1.168zm-4.53 5.019v2.331a.5.5 0 01-.5.493h-1.1a.5.5 0 01-.5-.493v-2.332a1.426 1.426 0 01-.41-1 1.4 1.4 0 011.31-1.4h.3a1.4 1.4 0 011.31 1.4 1.426 1.426 0 01-.41 1z" fill="#dcbaa4" fill-rule="evenodd"/></svg>