<svg xmlns="http://www.w3.org/2000/svg" width="13" height="18"><path data-name="Forma 1" d="M12.078 7.942h-.33V5.273A5.25 5.25 0 006.654 0h-.309a5.25 5.25 0 00-5.094 5.273v.06a1.086 1.086 0 002.172 0v-.06a3.076 3.076 0 116.152 0v2.669H.922A1.068 1.068 0 000 9.11v7.717A1.072 1.072 0 00.922 18h11.156A1.072 1.072 0 0013 16.827V9.11a1.068 1.068 0 00-.922-1.168zm-4.532 5.019v2.331a.5.5 0 01-.492.493H5.947a.5.5 0 01-.492-.493v-2.331a1.411 1.411 0 01.891-2.4h.309a1.411 1.411 0 01.89 2.4z" fill="#fff" fill-rule="evenodd"/></svg>