<svg xmlns="http://www.w3.org/2000/svg" width="13" height="18" viewBox="0 0 13 18">
  <metadata><?xpacket begin="﻿" id="W5M0MpCehiHzreSzNTczkc9d"?>
<x:xmpmeta xmlns:x="adobe:ns:meta/" x:xmptk="Adobe XMP Core 5.6-c138 79.159824, 2016/09/14-01:09:01        ">
   <rdf:RDF xmlns:rdf="http://www.w3.org/1999/02/22-rdf-syntax-ns#">
      <rdf:Description rdf:about=""/>
   </rdf:RDF>
</x:xmpmeta>
                                                                                                    
                                                                                                    
                                                                                                    
                                                                                                    
                                                                                                    
                                                                                                    
                                                                                                    
                                                                                                    
                                                                                                    
                                                                                                    
                                                                                                    
                                                                                                    
                                                                                                    
                                                                                                    
                                                                                                    
                                                                                                    
                                                                                                    
                                                                                                    
                                                                                                    
                                                                                                    
                           
<?xpacket end="w"?></metadata>
<defs>
    <style>
      .cls-1 {
        fill: #dcbaa4;
        fill-rule: evenodd;
      }
    </style>
  </defs>
  <path id="Forma_1" data-name="Forma 1" class="cls-1" d="M1406.08,51.943h-0.33V49.273a5.256,5.256,0,0,0-5.1-5.273c-0.07,0-.23,0-0.3,0a5.256,5.256,0,0,0-5.1,5.273v0.059a1.085,1.085,0,0,0,2.17,0V49.273a3.08,3.08,0,1,1,6.16,0v2.669h-8.66a1.065,1.065,0,0,0-.92,1.168v7.716a1.07,1.07,0,0,0,.92,1.172h11.16a1.07,1.07,0,0,0,.92-1.172V53.111A1.065,1.065,0,0,0,1406.08,51.943Zm-4.53,5.019v2.331a0.5,0.5,0,0,1-.5.493h-1.1a0.5,0.5,0,0,1-.5-0.493V56.961a1.426,1.426,0,0,1-.41-1,1.4,1.4,0,0,1,1.31-1.4c0.07,0,.23,0,0.3,0a1.4,1.4,0,0,1,1.31,1.4A1.426,1.426,0,0,1,1401.55,56.961Z" transform="translate(-1394 -44)"/>
</svg>
