<svg xmlns="http://www.w3.org/2000/svg" width="25" height="26" viewBox="0 0 25 26"><g><g><path fill="#fff" d="M23.829 23.084l-3.618-1.279-.271.123-1.317 3.514c-.264.707-1.28.753-1.61.068l-2.568-5.352c3.062-.518 5.708-2.224 7.403-4.622l3.069 6.394c.328.682-.363 1.413-1.088 1.154zM22.092 9.32c0 5.138-4.303 9.318-9.592 9.318-5.289 0-9.592-4.18-9.592-9.318 0-5.139 4.303-9.32 9.592-9.32 5.289 0 9.592 4.181 9.592 9.32zm-5.408-2.13l-2.35-.332-1.052-2.07c-.319-.629-1.246-.628-1.564 0l-1.051 2.07-2.351.332c-.713.1-1 .955-.483 1.445l1.7 1.61-.401 2.276c-.123.69.626 1.219 1.265.893l2.103-1.074 2.103 1.074c.635.323 1.388-.199 1.265-.893l-.402-2.275 1.701-1.61c.517-.49.23-1.346-.483-1.446zm-6.129 12.969L7.986 25.51c-.329.686-1.345.638-1.61-.068L5.06 21.928l-.272-.123-3.617 1.28c-.72.257-1.418-.47-1.088-1.155l3.069-6.394c1.695 2.398 4.34 4.104 7.403 4.622z"/></g></g></svg>