<svg xmlns="http://www.w3.org/2000/svg" width="14" height="14" viewBox="0 0 14 14"><g><g><path fill="#82c9ea" d="M13.43 2.942H.625L2.493.082h9.07zm.209.907v1.01c0 1.08-.898 1.96-2 1.96-.618 0-1.17-.276-1.537-.707-.368.431-.92.706-1.537.706-.617 0-1.17-.275-1.537-.706-.368.431-.92.706-1.537.706-.617 0-1.17-.275-1.537-.706-.367.431-.92.706-1.537.706-1.103 0-2-.878-2-1.958V3.85zm-.96 3.69v6.46h-1.768V8.857H7.267V14h-5.83V7.56A2.975 2.975 0 0 0 3.955 7.3a2.96 2.96 0 0 0 1.537.427c.55 0 1.08-.15 1.537-.427a2.96 2.96 0 0 0 1.537.427c.55 0 1.08-.15 1.537-.427a2.975 2.975 0 0 0 2.578.24zm-7 1.317H3.207v2.42h2.472z"/></g></g></svg>