<svg xmlns="http://www.w3.org/2000/svg" width="40" height="40" viewBox="0 0 40 40"><g><g><path fill="#eccdba" d="M20 0c11.046 0 20 8.954 20 20 0 11.045-8.954 20-20 20S0 31.045 0 20C0 8.954 8.954 0 20 0z"/></g><g><path fill="#fff" d="M20.108 14.61V29l-6.992-1.446v-8.47l3.579-.214a.89.89 0 0 0 .672-.382zm8.8 4.474v8.47L21.918 29V14.61l2.74 3.878a.89.89 0 0 0 .673.382zM32 17.34l-3.64-.217-2.51-.15-2.407-3.407-.397-.562 6.195.922zM18.981 13l-.4.567-2.407 3.406-2.509.15L10 17.34l2.713-3.416z"/></g></g></svg>