<svg xmlns="http://www.w3.org/2000/svg" width="22" height="12"><path data-name="Forma 1" d="M21.81 10.6a9.335 9.335 0 00-2.18-2.395c-1.85-1.621-1.6-1.357.62-4.16C21.6 2.338 22.14 1.296 21.97.85c-.16-.425-1.15-.313-1.15-.313l-3.31.018a.805.805 0 00-.43.072.854.854 0 00-.29.336 17.365 17.365 0 01-1.22 2.444c-1.48 2.37-2.07 2.495-2.31 2.348-.56-.343-.42-1.379-.42-2.113 0-2.3.37-3.255-.71-3.5a6.018 6.018 0 00-1.55-.146 7.561 7.561 0 00-2.75.266c-.37.175-.66.564-.49.586a1.515 1.515 0 01.98.465 2.892 2.892 0 01.33 1.419s.19 2.7-.46 3.04c-.44.23-1.06-.24-2.37-2.391a19.935 19.935 0 01-1.18-2.319.966.966 0 00-.27-.348A1.473 1.473 0 003.86.52L.71.538a1.1 1.1 0 00-.64.207.6.6 0 00-.02.53S2.52 6.731 5.3 9.481a7.807 7.807 0 005.47 2.356h1.31a1.138 1.138 0 00.6-.249.852.852 0 00.18-.547s-.03-1.672.79-1.918 1.85 1.616 2.95 2.331a2.166 2.166 0 001.46.422l2.94-.039s1.54-.091.81-1.237z" fill="#f7a98f" fill-rule="evenodd"/></svg>