<svg xmlns="http://www.w3.org/2000/svg" width="26" height="24" viewBox="0 0 26 24"><g><g><path fill="#fff" d="M24.978 18.507c.036 0 .072-.001.107-.003v3.749c0 .964-.78 1.746-1.742 1.746h-21.6A1.745 1.745 0 0 1 0 22.253V6.466C0 5.501.78 4.72 1.742 4.72h21.6c.963 0 1.743.782 1.743 1.747v3.749a2.529 2.529 0 0 0-.107-.003h-5.887a2.265 2.265 0 0 0-2.26 2.266v3.763a2.265 2.265 0 0 0 2.26 2.266zM26 12.477v3.764c0 .566-.457 1.024-1.022 1.024h-5.887a1.023 1.023 0 0 1-1.021-1.024v-3.763c0-.566.457-1.024 1.021-1.024h5.887c.565 0 1.022.458 1.022 1.024zm-3.406 1.883c0-.817-.66-1.479-1.474-1.479s-1.474.662-1.474 1.479c0 .816.66 1.478 1.474 1.478s1.474-.662 1.474-1.478zM20.803 3.017H8.616L17.467.085a2.248 2.248 0 0 1 2.842 1.434z"/></g></g></svg>