<svg xmlns="http://www.w3.org/2000/svg" width="18" height="14"><path data-name="Forma 1" d="M17.68 2.25A2.381 2.381 0 0015.74.277a81.751 81.751 0 00-13.47 0A2.381 2.381 0 00.33 2.25a24.224 24.224 0 00-.32 4.748 23.471 23.471 0 00.32 4.747 2.381 2.381 0 001.94 1.974 54.032 54.032 0 006.73.279 53.873 53.873 0 006.73-.279 2.38 2.38 0 001.95-1.974 24.214 24.214 0 00.31-4.747 24.222 24.222 0 00-.31-4.748zm-11 7.865V3.473c1.91 1.111 3.8 2.214 5.72 3.331-1.91 1.108-3.81 2.204-5.72 3.311z" fill="#f7a98f" fill-rule="evenodd"/></svg>